<?xml version="1.0" encoding="UTF-8"?>
    <svg id="Layer_2" xmlns="http://www.w3.org/2000/svg" width="64" height="64" viewBox="0 0 68.031 68.031">
    <style>
        path{
            fill:#1d1d1b;
        }
        @media (prefers-color-scheme: dark) {
            path { fill: #ffffff; }
        }
    </style>
    <g id="Simbol">
        <g>
            <path
                d="M16.653,50.768c.359-.386,.771-.581,1.235-.585,.685-.006,1.425,.4,2.219,1.221,1.078,1.099,1.922,1.798,2.529,2.095,.851,.417,1.619,.622,2.305,.615,.726-.006,1.35-.174,1.871-.501,.863-.533,1.611-1.362,2.247-2.487,.635-1.126,1.933-4.867,3.895-11.223,1.648-5.302,3.243-10.806,4.787-16.511l1.4-5.064c-1.929,.827-3.865,1.639-5.766,2.528-2.582,1.208-5.049,2.62-7.448,4.155-1.608,1.029-3.187,2.101-4.728,3.228-.267,.059-.336-.043-.32-.313,.028-.484,.008-.971,.008-1.457,.795-3.555,3.134-5.767,6.313-7.243,3.008-1.396,6.128-2.514,9.221-3.699,2.213-.848,4.398-1.757,6.491-2.871,1.285-.684,2.502-1.462,3.651-2.335L37.804,1.563c-2.084-2.084-5.494-2.084-7.578,0L1.563,30.227c-2.084,2.084-2.084,5.494,0,7.578l14.603,14.603c-.012-.102-.046-.2-.046-.304-.005-.504,.173-.95,.533-1.336Z" />
            <path
                d="M66.469,30.227L48.888,12.646l-.009,.007c-1.318,1.122-2.729,2.095-4.202,2.964-1.01,2.717-1.989,5.95-3.166,10.241l-4.369,15.794c-1.386,5.059-3.347,8.769-5.883,11.132-2.557,2.384-5.356,3.59-8.396,3.616-1.208,.011-2.258-.164-3.186-.482l10.55,10.55c2.084,2.084,5.494,2.084,7.578,0l9.94-9.94c-.598,.224-1.214,.411-1.865,.524-.322,.056-.649,.075-.973,.114h-1.125c-.144-.017-.288-.034-.432-.051-1.054-.123-2.025-.471-2.88-1.105-.838-.622-1.528-1.355-1.717-2.437v-.718c.093-.477,.294-.892,.662-1.225,.789-.715,2.022-.465,2.46,.507,.163,.362,.255,.747,.353,1.13,.052,.202,.117,.399,.187,.595,.298,.83,.935,1.264,1.761,1.379,1.347,.188,2.565-.192,3.641-1.016,.584-.447,1.089-.971,1.432-1.629,.576-1.106,.541-2.205-.069-3.292-.379-.676-.91-1.226-1.442-1.777-.65-.674-1.337-1.313-1.954-2.019-.735-.842-1.184-1.818-1.317-2.929-.103-.855,.035-1.686,.394-2.464,1.061-2.296,2.825-3.725,5.315-4.223,.909-.182,1.827-.155,2.744-.022,.772,.112,1.529,.302,2.303,.395,.117,.014,.199,.065,.258,.171,.081,.145,.176,.283,.265,.423v.031c-.025,.063-.052,.125-.074,.188-.468,1.35-.638,2.76-.822,4.166-.048,.366-.092,.731-.133,1.098-.015,.138-.074,.191-.22,.185-.296-.012-.593-.004-.89-.004-.063,0-.124,0-.172-.054-.11-.125-.223-.247-.334-.371-.029-.032-.04-.071-.036-.115,.042-.476,.088-.952,.121-1.428,.035-.497,.075-.994-.012-1.491-.135-.771-.665-1.321-1.432-1.451-.419-.071-.84-.044-1.254,.054-1.016,.239-1.775,.849-2.352,1.691-.738,1.077-.745,2.509,.168,3.571,.493,.573,1.026,1.106,1.553,1.645,.717,.733,1.419,1.48,2.011,2.322,.947,1.345,1.316,2.811,.915,4.433-.02,.081-.054,.154-.076,.233l13.759-13.76c2.084-2.084,2.084-5.494,0-7.578Zm-13.76-.756l-.993,1.766-3.055-2.171,.295,3.79h-1.987l.295-3.754-3.055,2.135-.993-1.73,3.385-1.582-3.385-1.583,.993-1.729,3.055,2.134-.295-3.643h1.987l-.295,3.569,3.055-2.061,.993,1.693-3.312,1.656,3.312,1.509Z"/>
        </g>
    </g>
</svg>