<?xml version="1.0" encoding="UTF-8"?>
<svg id="Layer_2" data-name="Layer 2" xmlns="http://www.w3.org/2000/svg" viewBox="0 0 613.84 120">
  <defs>
    <style>
      .cls-1 {
        fill: #10a029;
      }
    </style>
  </defs>
  <g id="Layer_1-2" data-name="Layer 1">
    <g>
      <path class="cls-1" d="M34.9,88.26h52.19v29.92H0V1.83h34.9v86.43Z"/>
      <path class="cls-1" d="M131.98,1.83v71.3c0,10.97,6.81,16.95,15.12,16.95s15.46-5.98,15.46-16.95V1.83h34.9v71.3c0,30.41-23.1,46.87-50.36,46.87s-50.03-16.45-50.03-46.87V1.83h34.9Z"/>
      <path class="cls-1" d="M275.25,0c19.28,0,32.41,7.65,44.87,18.61l-19.78,22.61c-7.81-8.81-17.12-11.3-25.1-11.3-18.12,0-29.92,13.3-29.92,30.08s11.8,30.08,29.92,30.08c7.98,0,17.28-2.49,25.1-11.3l19.78,22.61c-12.46,10.97-25.59,18.61-44.87,18.61-39.22,0-64.82-27.59-64.82-60S236.03,0,275.25,0Z"/>
      <path class="cls-1" d="M366.68,118.17h-34.9V1.83h34.9v49.86L394.43,1.83h34.9v4.82l-30.08,50.19,10.47,23.77c5.32,11.8,8.48,12.3,13.3,12.3,2.66,0,6.32-1.66,8.31-2.99l10.14,23.77c-10.31,4.49-14.79,6.31-24.77,6.31-13.63,0-28.59-4.49-37.23-24.93l-12.8-31.91v55.02Z"/>
      <path class="cls-1" d="M501.81,41.72l24.6-39.89h38.23v4.82l-45.37,63.99v47.53h-34.9v-46.87L438.99,6.65V1.83h38.39l24.43,39.89Z"/>
      <path class="cls-1" d="M581.77,76.79l-9.14-64.16V1.83h41.22v10.8l-9.14,64.16h-22.94ZM592.74,86.59c10.8,0,19.28,7.15,19.28,16.95s-8.48,16.45-19.28,16.45-19.11-6.98-19.11-16.45,7.98-16.95,19.11-16.95Z"/>
    </g>
  </g>
</svg>