<?xml version="1.0" encoding="UTF-8"?>
<svg id="Layer_2" data-name="Layer 2" xmlns="http://www.w3.org/2000/svg" xmlns:xlink="http://www.w3.org/1999/xlink" viewBox="0 0 300 220">
  <defs>
    <style>
      .cls-1 {
        fill: none;
      }

      .cls-2 {
        fill: #ffc40d;
      }

      .cls-3 {
        fill: #fbae17;
      }

      .cls-4 {
        fill: #f3f4f5;
      }

      .cls-5 {
        fill: #bdbdbd;
      }

      .cls-6 {
        fill: url(#linear-gradient-2);
      }

      .cls-7 {
        fill: #dbdbdb;
      }

      .cls-8 {
        fill: #f58e1f;
      }

      .cls-9 {
        fill: url(#linear-gradient);
      }

      .cls-10 {
        fill: #ffe200;
      }

      .cls-11 {
        fill: #e5e5e5;
      }

      .cls-12 {
        fill: #fdbc11;
      }

      .cls-13 {
        fill: #f9a31a;
      }

      .cls-14 {
        clip-path: url(#clippath-1);
      }

      .cls-15 {
        clip-path: url(#clippath-2);
      }

      .cls-16, .cls-17 {
        fill: #fff;
      }

      .cls-18 {
        fill: #d7d7d7;
      }

      .cls-19 {
        fill: #e9ebf1;
      }

      .cls-20 {
        fill: #eecc16;
      }

      .cls-21 {
        fill: #fde893;
      }

      .cls-17 {
        filter: url(#drop-shadow-1);
      }

      .cls-22 {
        opacity: .25;
      }

      .cls-23 {
        opacity: .08;
      }

      .cls-24 {
        fill: #f7f7f7;
      }

      .cls-25 {
        fill: #fad549;
      }

      .cls-26 {
        fill: #c2c2c2;
      }

      .cls-27 {
        fill: #a1a1a1;
      }

      .cls-28 {
        fill: #333;
      }

      .cls-29 {
        fill: #aeaeae;
      }

      .cls-30 {
        clip-path: url(#clippath);
      }

      .cls-31 {
        fill: #fddd51;
      }
    </style>
    <clipPath id="clippath">
      <rect class="cls-1" width="300" height="220"/>
    </clipPath>
    <clipPath id="clippath-1">
      <rect class="cls-1" x="41.35" y="8.29" width="219.33" height="183.13"/>
    </clipPath>
    <linearGradient id="linear-gradient" x1="249.01" y1="82.12" x2="255.17" y2="83.15" gradientUnits="userSpaceOnUse">
      <stop offset="0" stop-color="#adadad"/>
      <stop offset=".4" stop-color="#bebebe"/>
      <stop offset="1" stop-color="#e0e0e0"/>
    </linearGradient>
    <linearGradient id="linear-gradient-2" x1="63.76" y1="86.68" x2="54.4" y2="85.01" xlink:href="#linear-gradient"/>
    <filter id="drop-shadow-1" x="42.99" y="15.09" width="224" height="159" filterUnits="userSpaceOnUse">
      <feOffset dx="0" dy="-3.7"/>
      <feGaussianBlur result="blur" stdDeviation="3.7"/>
      <feFlood flood-color="#000" flood-opacity=".08"/>
      <feComposite in2="blur" operator="in"/>
      <feComposite in="SourceGraphic"/>
    </filter>
    <clipPath id="clippath-2">
      <rect class="cls-1" x="97.43" y="3.6" width="113.75" height="188.01" rx="7.68" ry="7.68" transform="translate(37.14 237.63) rotate(-82.39)"/>
    </clipPath>
  </defs>
  <g id="Layer_1-2" data-name="Layer 1">
    <g class="cls-30">
      <g>
        <g class="cls-14">
          <g>
            <path class="cls-7" d="M259.44,85.86c0-.12,0-.23,0-.35,0-.04,0-.07,0-.11,0-.09,0-.17-.01-.26,0-.04,0-.07,0-.11,0-.11-.02-.22-.03-.33,0-.03,0-.06-.01-.09,0-.08-.02-.16-.03-.24,0-.05-.01-.09-.02-.14,0-.07-.02-.13-.03-.2,0-.05-.02-.1-.02-.14-.02-.1-.04-.19-.06-.29-.01-.06-.03-.12-.04-.17-.01-.05-.02-.09-.03-.14-.02-.06-.03-.13-.05-.19,0-.04-.02-.07-.03-.11-.06-.23-.13-.45-.2-.68,0-.02-.02-.05-.02-.07-.03-.08-.05-.15-.08-.23,0,0,0,0,0,0-.03-.08-.06-.17-.09-.25,0-.02-.02-.04-.03-.07-.02-.06-.05-.12-.07-.18,0,0,0-.01,0-.02h0c-.99-2.31-2.73-4.23-4.93-5.42L161.58,15.18c-6.32-4.57-14.84-4.61-21.21-.12l-91.95,61.03c-2.19,1.19-3.94,3.1-4.92,5.41,0,0,0,0,0,0-.07.16-.13.31-.19.48,0,.01-.01.03-.02.04-.03.07-.05.14-.08.21,0,.03-.02.06-.03.08-.07.22-.14.44-.2.66-.01.04-.02.08-.03.13-.02.06-.03.12-.04.18-.01.05-.02.1-.04.15-.01.05-.02.11-.04.16-.02.1-.04.2-.06.3,0,.05-.02.09-.02.14-.01.07-.02.14-.03.21,0,.05-.01.09-.02.14-.01.08-.02.17-.03.25,0,.03,0,.06,0,.08-.01.11-.02.22-.03.34,0,.03,0,.07,0,.1,0,.09-.01.17-.01.26,0,.03,0,.07,0,.1,0,.12,0,.23,0,.35v93.13c0,3.08,1.25,5.87,3.28,7.89.8.79,1.71,1.46,2.71,1.98.14.07.29.15.44.21,1.33.62,2.81.99,4.37,1.03,0,0,0,0,0,0,.07,0,.13,0,.2,0,.04,0,.07,0,.11,0h194.59s.09,0,.14,0c.06,0,.12,0,.18,0,.02,0,.05,0,.07,0,.82-.03,1.61-.14,2.37-.34.02,0,.03,0,.05-.01.08-.02.16-.04.24-.07.02,0,.04-.01.05-.02.08-.02.16-.05.24-.07.48-.15.94-.33,1.39-.54.15-.07.29-.14.43-.21.28-.15.56-.31.83-.48.54-.34,1.04-.73,1.51-1.16.12-.11.23-.22.34-.33.17-.17.34-.35.5-.54.07-.07.13-.15.19-.23.83-1,1.49-2.14,1.93-3.39.07-.19.13-.39.19-.58.04-.12.07-.24.1-.37.23-.89.35-1.82.35-2.78h0v-93.13s0,0,0,0Z"/>
            <path class="cls-9" d="M245.99,71.15l6.07,3.67s5.64,3.28,6.48,6.35c.76,2.8-10.07,11.33-10.07,11.33l-2.48-21.36Z"/>
            <path class="cls-6" d="M58.12,106.73l5.97-41.05-18.21,12.3s-3.28,3.44-3.28,13.12c0,11.8,15.52,15.63,15.52,15.63Z"/>
            <path class="cls-19" d="M42.6,178.66c0,3.08,1.25,5.87,3.28,7.89l58.07-57.43-60.46-47.96s0,0,0,0c-.07.16-.13.31-.19.48,0,.01-.01.03-.02.04-.03.07-.05.14-.08.21,0,.03-.02.06-.03.08-.07.22-.14.44-.2.66-.01.04-.02.08-.03.13-.02.06-.03.12-.04.18-.01.05-.02.1-.04.15-.01.05-.02.11-.04.16-.02.1-.04.2-.06.3,0,.05-.02.09-.02.14-.01.07-.02.14-.03.21,0,.05-.01.09-.02.14-.01.08-.02.17-.03.25,0,.03,0,.06,0,.08-.01.11-.02.22-.03.34,0,.03,0,.07,0,.1,0,.09-.01.17-.01.26,0,.03,0,.07,0,.1,0,.12,0,.23,0,.35v93.13Z"/>
            <path class="cls-19" d="M198.1,129.12l58.07,57.42c1.39-1.39,2.42-3.14,2.92-5.1.23-.89.35-1.82.35-2.78v-93.13s0,0,0,0c0-.12,0-.23,0-.35,0-.04,0-.07,0-.11,0-.09,0-.17-.01-.26,0-.04,0-.07,0-.11,0-.11-.02-.22-.03-.33,0-.03,0-.06-.01-.09,0-.08-.02-.16-.03-.24,0-.05-.01-.09-.02-.14,0-.07-.02-.13-.03-.2,0-.05-.02-.1-.02-.14-.02-.1-.04-.19-.06-.29-.01-.06-.03-.12-.04-.17-.01-.05-.02-.09-.03-.14-.02-.06-.03-.13-.05-.19,0-.04-.02-.07-.03-.11-.06-.23-.13-.45-.2-.68,0-.02-.02-.05-.02-.07-.03-.08-.05-.15-.08-.23,0,0,0,0,0,0-.06-.17-.13-.34-.2-.51l-60.45,47.95Z"/>
            <g>
              <rect class="cls-17" x="97.74" y="3.97" width="113.75" height="188.01" rx="7.68" ry="7.68" transform="translate(37.04 238.27) rotate(-82.39)"/>
              <rect class="cls-16" x="97.43" y="3.6" width="113.75" height="188.01" rx="7.68" ry="7.68" transform="translate(37.14 237.63) rotate(-82.39)"/>
              <g class="cls-15">
                <g class="cls-22">
                  <g>
                    <path class="cls-26" d="M229.03,106.3c-5.67,42.49-44.72,72.34-87.21,66.67-22.4-2.99-41.29-15.25-53.31-32.41-3.16-4.5-5.84-9.35-7.99-14.44-5.19-12.32-7.27-26.15-5.37-40.36,5.67-42.49,44.72-72.34,87.21-66.67,14.21,1.9,27.01,7.53,37.54,15.77,4.35,3.41,8.32,7.27,11.84,11.5,13.4,16.09,20.28,37.54,17.29,59.94h0Z"/>
                    <g>
                      <circle class="cls-18" cx="156.52" cy="99.18" r="77.62"/>
                      <path class="cls-11" d="M203.48,37.38l-117.65,93.84c2.42,5.32,5.41,10.36,8.94,14.99l121.33-96.78c-3.73-4.46-7.96-8.5-12.62-12.05Z"/>
                      <path class="cls-11" d="M221.59,56.88l-120.77,96.33c5.66,5.85,12.25,10.84,19.59,14.7l111.15-88.66c-2.13-8-5.52-15.54-9.97-22.37Z"/>
                      <g>
                        <path class="cls-29" d="M216.97,105.94c-4.54,33.99-35.78,57.87-69.77,53.33-11.84-1.58-22.45-6.4-31.06-13.45-3.75-3.07-7.12-6.56-10.05-10.4-2.15-2.81-4.07-5.82-5.72-8.97-2.27-4.34-4.04-8.97-5.23-13.79-1.77-7.13-2.3-14.7-1.36-22.41.03-.25.06-.5.09-.76,4.54-33.99,35.77-57.87,69.77-53.33.25.03.51.07.76.11,7.69,1.12,14.85,3.61,21.27,7.19,4.34,2.42,8.34,5.34,11.93,8.67,2.61,2.42,5,5.05,7.16,7.87,2.93,3.83,5.42,8,7.39,12.43,4.54,10.16,6.41,21.66,4.83,33.5h0Z"/>
                        <path class="cls-5" d="M204.75,60.01l-98.67,75.42c-2.15-2.81-4.07-5.82-5.72-8.97-2.27-4.34-4.04-8.97-5.23-13.79-1.77-7.13-2.3-14.7-1.36-22.41.03-.25.06-.5.09-.76,4.54-33.99,35.77-57.87,69.77-53.33.25.03.51.07.76.11,7.69,1.12,14.85,3.61,21.27,7.19,4.34,2.42,8.34,5.34,11.93,8.67,2.61,2.42,5,5.05,7.16,7.87h0Z"/>
                        <path class="cls-27" d="M216.97,105.94c-4.54,33.99-35.78,57.87-69.77,53.33-1.17-.16-2.32-.34-3.46-.56,32.62,2.52,61.9-20.87,66.28-53.7,4.38-32.83-17.73-63.09-49.87-69.21,1.16.09,2.32.21,3.49.37,33.99,4.54,57.87,35.78,53.33,69.77h0Z"/>
                      </g>
                      <g>
                        <path class="cls-27" d="M141.58,111.58l-2.73,20.47-17.72-2.37,7.43-55.66c1.32-9.89,4.91-13.18,15.23-11.8l14.97,2c14.88,1.99,24.82,10.84,22.65,27.1l-.2,1.46c-2.17,16.26-14.08,22.2-28.97,20.21l-10.67-1.42ZM143.58,96.62l9.81,1.31c5.76.77,9.61-3.1,10.25-7.91l.08-.6c.64-4.82-2.05-9.55-7.82-10.32l-7.31-.98c-1.98-.26-2.55.1-2.83,2.16l-2.18,16.34Z"/>
                        <path class="cls-11" d="M148.94,112.57l-2.73,20.47-17.72-2.37,7.43-55.66c1.32-9.89,4.91-13.18,15.23-11.8l14.97,2c14.88,1.99,24.82,10.84,22.65,27.1l-.2,1.46c-2.17,16.26-14.08,22.2-28.97,20.21l-10.67-1.42ZM150.94,97.6l9.81,1.31c5.76.77,9.61-3.1,10.25-7.91l.08-.6c.64-4.82-2.05-9.55-7.82-10.32l-7.31-.98c-1.98-.26-2.55.1-2.83,2.16l-2.18,16.34Z"/>
                      </g>
                    </g>
                  </g>
                </g>
              </g>
              <g>
                <path class="cls-28" d="M114.55,92.24c-.95,1.27-2.27,2.23-3.96,2.86-1.69.63-3.71.79-6.06.48l-4.33-.58-1.38,10.31-6.99-.93,3.83-28.71,11.33,1.51c2.29.31,4.17.96,5.65,1.96,1.48,1,2.52,2.25,3.12,3.75.6,1.5.79,3.14.55,4.94-.22,1.66-.81,3.13-1.75,4.41ZM107.85,89.41c.74-.54,1.18-1.38,1.34-2.53s-.06-2.07-.63-2.79c-.57-.71-1.52-1.16-2.86-1.34l-3.8-.51-.96,7.2,3.8.51c1.34.18,2.37,0,3.11-.54Z"/>
                <path class="cls-28" d="M123.71,107.01c-2.08-1.55-3.63-3.54-4.66-5.97-1.02-2.43-1.35-5.04-.97-7.85.37-2.81,1.37-5.24,2.99-7.3,1.62-2.06,3.64-3.57,6.06-4.52,2.42-.95,4.97-1.25,7.67-.89,2.7.36,5.09,1.32,7.17,2.87,2.08,1.55,3.62,3.54,4.62,5.94,1,2.41,1.31,5.02.93,7.83-.37,2.81-1.37,5.25-2.98,7.32-1.61,2.07-3.62,3.59-6.02,4.55-2.4.96-4.95,1.25-7.65.89-2.7-.36-5.09-1.32-7.17-2.87ZM137.54,101.95c1.58-1.34,2.54-3.27,2.87-5.78.34-2.54-.08-4.65-1.25-6.35-1.17-1.7-2.91-2.7-5.2-3-2.32-.31-4.27.19-5.84,1.51-1.58,1.32-2.54,3.26-2.88,5.82s.08,4.65,1.25,6.35c1.17,1.7,2.92,2.7,5.24,3.01,2.29.31,4.23-.21,5.81-1.56Z"/>
                <path class="cls-28" d="M160.31,84.3l-3.83,28.71-6.99-.93,3.83-28.71,6.99.93Z"/>
                <path class="cls-28" d="M187.23,117.12l-6.99-.93-9.33-19.27-2.36,17.71-6.99-.93,3.83-28.71,6.99.93,9.32,19.35,2.38-17.79,6.99.93-3.83,28.71Z"/>
                <path class="cls-28" d="M216.79,91.84l-.75,5.6-7.61-1.02-3.09,23.11-6.99-.93,3.09-23.11-7.61-1.02.75-5.6,22.21,2.96Z"/>
              </g>
            </g>
            <path class="cls-24" d="M59.81,94.1l-5.33,39.95c-.54,4.07,2.32,7.82,6.39,8.36l26.11,3.49,16.97-16.79-44.14-35.01Z"/>
            <path class="cls-24" d="M240.84,158.94l9.52-71.27-52.26,41.45,36.59,36.18c3.14-.52,5.71-3.04,6.16-6.36Z"/>
            <path class="cls-4" d="M198.1,129.12h-94.14s0,0,0,0l-58.07,57.43c.91.9,1.97,1.65,3.15,2.2,1.43.66,3.02,1.04,4.69,1.04h194.59c1.69,0,3.3-.38,4.73-1.06,1.16-.55,2.22-1.29,3.12-2.19l-58.07-57.42Z"/>
          </g>
        </g>
        <g>
          <g>
            <path class="cls-20" d="M86.28,153.44c4.43,21.35-9.29,42.24-30.64,46.67-11.25,2.33-22.38-.38-31.04-6.59-2.27-1.63-4.37-3.5-6.26-5.59-4.57-5.04-7.89-11.33-9.37-18.47-4.43-21.35,9.29-42.24,30.64-46.67,7.14-1.48,14.23-.93,20.67,1.26,2.66.9,5.22,2.09,7.62,3.53,9.14,5.47,16.05,14.6,18.38,25.86h0Z"/>
            <g>
              <circle class="cls-31" cx="50.28" cy="162.22" r="39.48"/>
              <path class="cls-21" d="M62.42,124.66l-40.68,64.83c2.06,2.15,4.34,4.06,6.81,5.69l41.95-66.86c-2.54-1.52-5.25-2.74-8.08-3.66Z"/>
              <path class="cls-21" d="M74.39,130.97l-41.75,66.55c3.7,1.85,7.7,3.14,11.87,3.76l38.43-61.25c-2.37-3.48-5.26-6.53-8.55-9.06Z"/>
              <g>
                <path class="cls-13" d="M80.43,155.3c3.54,17.08-7.43,33.79-24.51,37.34-5.95,1.23-11.85.71-17.17-1.23-2.32-.84-4.52-1.95-6.57-3.3-1.51-.99-2.93-2.11-4.25-3.34-1.82-1.7-3.45-3.62-4.83-5.74-2.05-3.12-3.57-6.67-4.42-10.53-.03-.13-.06-.25-.08-.38-3.54-17.08,7.43-33.79,24.51-37.34.13-.03.26-.05.38-.08,3.88-.76,7.73-.76,11.42-.13,2.49.43,4.9,1.16,7.19,2.15,1.66.72,3.25,1.58,4.76,2.57,2.05,1.34,3.95,2.93,5.64,4.72,3.89,4.11,6.72,9.32,7.95,15.27h0Z"/>
                <path class="cls-12" d="M66.83,135.31l-34.67,52.8c-1.51-.99-2.93-2.11-4.25-3.34-1.82-1.7-3.45-3.62-4.83-5.74-2.05-3.12-3.57-6.67-4.42-10.53-.03-.13-.06-.25-.08-.38-3.54-17.08,7.43-33.79,24.51-37.34.13-.03.26-.05.38-.08,3.88-.76,7.73-.76,11.42-.13,2.49.43,4.9,1.16,7.19,2.15,1.66.72,3.25,1.58,4.76,2.57h0Z"/>
                <path class="cls-8" d="M80.43,155.3c3.54,17.08-7.43,33.79-24.51,37.34-.59.12-1.17.23-1.76.31,16.08-4.28,26.19-20.43,22.78-36.92-3.42-16.49-19.12-27.29-35.58-24.83.57-.15,1.15-.29,1.74-.41,17.08-3.54,33.79,7.43,37.34,24.51h0Z"/>
              </g>
              <g>
                <path class="cls-8" d="M45.2,170.69l2.13,10.29-8.9,1.85-5.8-27.96c-1.03-4.97.14-7.15,5.33-8.23l7.52-1.56c7.48-1.55,13.74,1.03,15.43,9.2l.15.73c1.69,8.17-3.02,13.02-10.5,14.57l-5.36,1.11ZM43.64,163.17l4.93-1.02c2.9-.6,4.09-3.1,3.59-5.52l-.06-.3c-.5-2.42-2.59-4.24-5.49-3.64l-3.67.76c-.99.21-1.21.48-.99,1.51l1.7,8.21Z"/>
                <path class="cls-21" d="M48.89,169.92l2.13,10.29-8.9,1.85-5.8-27.96c-1.03-4.97.14-7.15,5.33-8.23l7.52-1.56c7.48-1.55,13.74,1.03,15.43,9.2l.15.73c1.69,8.17-3.02,13.02-10.5,14.57l-5.36,1.11ZM47.33,162.4l4.93-1.02c2.9-.6,4.09-3.1,3.59-5.52l-.06-.3c-.5-2.42-2.59-4.24-5.49-3.64l-3.67.76c-.99.21-1.21.48-.99,1.51l1.7,8.21Z"/>
              </g>
            </g>
          </g>
          <g>
            <path class="cls-23" d="M236.04,169.8c1.25,0,2.48.03,3.7.09,3.8-.63,7.84-.96,12.04-.96,22.13,0,40.08,9.38,40.08,20.95s-17.94,20.95-40.08,20.95c-1.25,0-2.48-.03-3.7-.09-3.8.63-7.84.96-12.04.96-22.13,0-40.08-9.38-40.08-20.95s17.94-20.95,40.08-20.95Z"/>
            <path class="cls-3" d="M245.94,187.26c-16.1-.13-29.26,6.01-29.82,13.81-.01-.19-.02-.38-.02-.56.07-8.01,13.43-14.4,29.84-14.26,16.41.14,29.67,6.74,29.6,14.75,0,.15,0,.3-.02.46-.54-7.76-13.55-14.06-29.58-14.19"/>
            <path class="cls-2" d="M216.1,189.66c-.07,8.01,13.19,14.62,29.6,14.75,16.41.14,29.77-6.25,29.84-14.26.07-8.01-13.19-14.62-29.6-14.75-16.41-.14-29.77,6.25-29.84,14.26"/>
            <path class="cls-3" d="M245.94,176.42c-16.1-.13-29.26,6.01-29.82,13.81-.01-.19-.02-.37-.02-.56.07-8.01,13.43-14.4,29.84-14.26,16.41.14,29.67,6.74,29.6,14.75,0,.15,0,.3-.02.46-.54-7.76-13.55-14.06-29.58-14.19"/>
            <path class="cls-3" d="M282.66,181.86l-.05,6.51v.81c-.09,10.57-16.75,19-37.21,18.83-20.11-.17-36.39-8.57-36.87-18.89l-.02-.55.07-8.14"/>
            <path class="cls-10" d="M208.57,180.43c-.09,10.57,16.43,19.27,36.89,19.44,20.46.17,37.12-8.26,37.21-18.83.09-10.57-16.43-19.27-36.89-19.44-20.46-.17-37.12,8.26-37.21,18.83"/>
            <path class="cls-10" d="M246.07,200.15c9.71,0,18.84-1.92,25.76-5.42,7.12-3.6,11.07-8.46,11.11-13.68.04-5.22-3.82-10.14-10.88-13.86-7-3.69-16.34-5.77-26.27-5.85-20.56-.16-37.39,8.4-37.48,19.1-.04,5.22,3.82,10.14,10.88,13.86,7.01,3.69,16.34,5.77,26.28,5.85.2,0,.41,0,.61,0M245.17,161.87c.2,0,.4,0,.6,0,9.85.08,19.1,2.14,26.03,5.79,6.87,3.62,10.64,8.37,10.6,13.38-.04,5.01-3.88,9.69-10.82,13.2-6.99,3.54-16.26,5.44-26.12,5.36-9.85-.08-19.1-2.14-26.03-5.79-6.87-3.62-10.64-8.37-10.6-13.38.09-10.3,16.33-18.56,36.34-18.56"/>
            <path class="cls-2" d="M215.9,180.49c-.07,8.01,13.19,14.62,29.6,14.75,16.41.14,29.77-6.25,29.84-14.26.07-8.01-13.19-14.62-29.6-14.75-16.41-.14-29.77,6.25-29.84,14.26"/>
            <path class="cls-25" d="M228.66,205.64c.15,0,.27-.12.27-.27l.06-7.05c0-.15-.12-.27-.27-.27h0c-.15,0-.27.12-.27.27l-.06,7.05c0,.15.12.27.27.27h0Z"/>
            <path class="cls-25" d="M224,204.19c.15,0,.27-.12.27-.27l.06-7.05c0-.15-.12-.27-.27-.27h0c-.15,0-.27.12-.27.27l-.06,7.05c0,.15.12.27.27.27h0Z"/>
            <path class="cls-25" d="M221.19,202.95c.15,0,.27-.12.27-.27l.06-7.05c0-.15-.12-.27-.27-.27h0c-.15,0-.27.12-.27.27l-.06,7.05c0,.15.12.27.27.27h0Z"/>
            <path class="cls-25" d="M214.16,198.69c.15,0,.27-.12.27-.27l.06-7.05c0-.15-.12-.27-.27-.27h0c-.15,0-.27.12-.27.27l-.06,7.05c0,.15.12.27.27.27h0Z"/>
            <path class="cls-3" d="M245.74,167.25c-16.1-.13-29.26,6.01-29.82,13.81-.01-.19-.02-.37-.02-.56.07-8.01,13.43-14.4,29.84-14.26,16.41.14,29.67,6.74,29.6,14.75,0,.15,0,.3-.02.45-.54-7.76-13.55-14.06-29.58-14.19"/>
            <path class="cls-3" d="M254.04,176.44c-16-1.77-29.72,3-31.07,10.7,0-.19.02-.38.04-.56.88-7.96,14.82-12.96,31.14-11.15,16.32,1.81,28.83,9.73,27.94,17.7-.02.15-.04.3-.07.45.25-7.77-12.05-15.37-27.98-17.13"/>
            <path class="cls-2" d="M224.11,175.79c-.88,7.96,11.63,15.89,27.94,17.7,16.31,1.81,30.26-3.18,31.14-11.15.88-7.96-11.63-15.89-27.94-17.7-16.31-1.81-30.26,3.18-31.14,11.15"/>
            <path class="cls-3" d="M255.15,165.65c-16-1.77-29.72,3-31.07,10.7,0-.19.02-.37.04-.56.88-7.96,14.82-12.96,31.14-11.15,16.32,1.81,28.83,9.73,27.94,17.7-.02.15-.04.3-.07.45.25-7.77-12.05-15.37-27.98-17.13"/>
            <path class="cls-3" d="M291.12,174.81l-.72,6.47-.09.81c-1.16,10.5-18.6,17.19-38.93,14.94-19.98-2.21-35.33-12.24-34.75-22.55l.03-.55.9-8.09"/>
            <path class="cls-10" d="M217.56,165.84c-1.16,10.5,14.38,20.85,34.72,23.1,20.34,2.25,37.77-4.43,38.93-14.94,1.16-10.5-14.38-20.85-34.72-23.1-20.34-2.25-37.77,4.43-38.93,14.94"/>
            <path class="cls-10" d="M252.85,189.27c9.66.99,18.93.01,26.17-2.77,7.45-2.86,11.87-7.29,12.45-12.48.57-5.19-2.77-10.48-9.41-14.9-6.59-4.39-15.66-7.41-25.54-8.5-20.43-2.26-38.05,4.54-39.23,15.18-.57,5.19,2.77,10.48,9.41,14.9,6.59,4.39,15.66,7.41,25.54,8.5.2.02.41.04.61.06M255.86,151.1c.2.02.4.04.6.06,9.79,1.09,18.78,4.07,25.3,8.41,6.47,4.3,9.73,9.41,9.18,14.39-.55,4.97-4.85,9.25-12.11,12.03-7.31,2.81-16.73,3.75-26.53,2.67-9.79-1.09-18.78-4.07-25.3-8.41-6.47-4.3-9.73-9.42-9.18-14.39,1.13-10.24,18.14-16.8,38.04-14.76"/>
            <path class="cls-2" d="M224.84,166.65c-.88,7.96,11.63,15.89,27.94,17.7,16.31,1.81,30.26-3.18,31.14-11.15.88-7.96-11.63-15.89-27.94-17.7-16.31-1.81-30.26,3.18-31.14,11.15"/>
            <path class="cls-25" d="M227.82,189.53c.15.02.28-.09.3-.24l.78-7c.02-.15-.09-.28-.24-.3h0c-.15-.02-.28.09-.3.24l-.78,7c-.02.15.09.28.24.3h0Z"/>
            <path class="cls-25" d="M221.26,184.57c.15.02.28-.09.3-.24l.78-7c.02-.15-.09-.28-.24-.3h0c-.15-.02-.28.09-.29.24l-.78,7c-.02.15.09.28.24.3h0Z"/>
            <path class="cls-3" d="M255.88,156.51c-16-1.77-29.72,3-31.07,10.7,0-.19.02-.37.04-.56.88-7.96,14.82-12.96,31.14-11.15,16.32,1.81,28.83,9.73,27.94,17.7-.02.15-.04.3-.07.45.25-7.77-12.05-15.37-27.98-17.13"/>
          </g>
        </g>
      </g>
    </g>
  </g>
</svg>