<?xml version="1.0" encoding="UTF-8"?>
<svg id="Layer_2" data-name="Layer 2" xmlns="http://www.w3.org/2000/svg" xmlns:xlink="http://www.w3.org/1999/xlink" viewBox="0 0 240 200">
  <defs>
    <style>
      .cls-1 {
        fill: none;
      }

      .cls-2 {
        fill: #f3f4f5;
      }

      .cls-3 {
        fill: url(#linear-gradient-2);
      }

      .cls-4 {
        fill: #dbdbdb;
      }

      .cls-5 {
        fill: url(#radial-gradient);
      }

      .cls-6 {
        fill: #f58e1f;
      }

      .cls-7 {
        fill: url(#linear-gradient);
      }

      .cls-8 {
        fill: #fdbc11;
      }

      .cls-9 {
        fill: #f9a31a;
      }

      .cls-10, .cls-11 {
        fill: #fff;
      }

      .cls-12 {
        fill: #e9ebf1;
      }

      .cls-13 {
        fill: #eecc16;
      }

      .cls-14 {
        fill: #fde893;
      }

      .cls-11 {
        filter: url(#drop-shadow-1);
      }

      .cls-15 {
        fill: #f7f7f7;
      }

      .cls-16 {
        fill: #333;
      }

      .cls-17 {
        clip-path: url(#clippath);
      }

      .cls-18 {
        fill: #fddd51;
      }
    </style>
    <clipPath id="clippath">
      <rect class="cls-1" width="240" height="200"/>
    </clipPath>
    <linearGradient id="linear-gradient" x1="213.19" y1="80.11" x2="223.34" y2="80.11" gradientUnits="userSpaceOnUse">
      <stop offset="0" stop-color="#adadad"/>
      <stop offset=".02" stop-color="#aeaeae"/>
      <stop offset=".4" stop-color="#c9c9c9"/>
      <stop offset=".74" stop-color="#dadada"/>
      <stop offset="1" stop-color="#e0e0e0"/>
    </linearGradient>
    <linearGradient id="linear-gradient-2" x1="31.56" y1="85.57" x2="22.07" y2="83.87" gradientUnits="userSpaceOnUse">
      <stop offset="0" stop-color="#adadad"/>
      <stop offset=".4" stop-color="#bebebe"/>
      <stop offset="1" stop-color="#e0e0e0"/>
    </linearGradient>
    <filter id="drop-shadow-1" x="14.99" y="24.24" width="210" height="135" filterUnits="userSpaceOnUse">
      <feOffset dx="0" dy="-3"/>
      <feGaussianBlur result="blur" stdDeviation="3"/>
      <feFlood flood-color="#000" flood-opacity=".08"/>
      <feComposite in2="blur" operator="in"/>
      <feComposite in="SourceGraphic"/>
    </filter>
    <radialGradient id="radial-gradient" cx="-6.8" cy="125.66" fx="-6.8" fy="125.66" r="30.73" gradientTransform="translate(16.05 -70.19) rotate(-7.53)" gradientUnits="userSpaceOnUse">
      <stop offset="0" stop-color="#a0a0a0"/>
      <stop offset=".2" stop-color="#a4a4a4"/>
      <stop offset=".41" stop-color="#b0b0b0"/>
      <stop offset=".62" stop-color="#c4c4c4"/>
      <stop offset=".83" stop-color="#e1e1e1"/>
      <stop offset="1" stop-color="#fff"/>
    </radialGradient>
  </defs>
  <g id="Layer_1-2" data-name="Layer 1">
    <g class="cls-17">
      <g>
        <path class="cls-4" d="M229.88,84.74c0-.12,0-.24,0-.35,0-.04,0-.07,0-.11,0-.09,0-.17-.01-.26,0-.04,0-.07,0-.11,0-.11-.02-.23-.03-.34,0-.03,0-.06-.01-.1,0-.08-.02-.16-.03-.25,0-.05-.01-.1-.02-.14,0-.07-.02-.13-.03-.2,0-.05-.02-.1-.02-.14-.02-.1-.04-.2-.06-.29-.01-.06-.03-.12-.04-.18-.01-.05-.02-.1-.03-.14-.02-.06-.03-.13-.05-.19,0-.04-.02-.07-.03-.11-.06-.23-.13-.46-.21-.69,0-.02-.02-.05-.02-.07-.03-.08-.05-.15-.08-.23,0,0,0,0,0,0-.03-.08-.06-.17-.1-.25,0-.02-.02-.05-.03-.07-.02-.06-.05-.12-.07-.18,0,0,0-.01,0-.02h0c-1-2.35-2.77-4.28-4.99-5.49L130.71,13.1c-6.41-4.63-15.04-4.68-21.5-.12L16.02,74.83c-2.22,1.21-3.99,3.14-4.99,5.48,0,0,0,0,0,0-.07.16-.13.32-.19.48,0,.01-.01.03-.02.04-.03.07-.05.14-.08.22,0,.03-.02.06-.03.08-.07.22-.14.44-.2.67-.01.04-.02.09-.03.13-.02.06-.03.12-.05.18-.01.05-.02.1-.04.16-.01.06-.02.11-.04.17-.02.1-.04.2-.06.3,0,.05-.02.09-.02.14-.01.07-.02.14-.03.21,0,.05-.01.09-.02.14-.01.09-.02.17-.03.26,0,.03,0,.06,0,.09-.01.11-.02.23-.03.34,0,.03,0,.07,0,.1,0,.09-.01.18-.01.26,0,.04,0,.07,0,.11,0,.12,0,.24,0,.36v94.39c0,3.13,1.27,5.95,3.33,7.99.81.8,1.73,1.48,2.75,2.01.15.08.29.15.44.22,1.35.63,2.85,1,4.43,1.05,0,0,0,0,0,0,.07,0,.14,0,.2,0,.04,0,.08,0,.11,0h197.22s.09,0,.14,0c.06,0,.12,0,.18,0,.02,0,.05,0,.07,0,.83-.03,1.63-.15,2.4-.34.02,0,.03,0,.05-.01.08-.02.16-.04.25-.07.02,0,.04-.01.05-.02.08-.02.16-.05.24-.07.49-.15.96-.34,1.41-.55.15-.07.29-.14.44-.22.29-.15.57-.31.84-.49.54-.35,1.06-.74,1.53-1.18.12-.11.24-.22.35-.33.18-.18.35-.36.51-.54.07-.08.13-.15.2-.23.84-1.01,1.51-2.17,1.96-3.43.07-.19.13-.39.19-.59.04-.12.07-.25.1-.37.23-.9.35-1.84.35-2.82h0v-94.39s0,0,0,0Z"/>
        <path class="cls-7" d="M214.26,68.4l6.43,4.01s7.23,4.57,8.29,7.92c.96,3.05-14.74,11.49-14.74,11.49l.02-23.41Z"/>
        <path class="cls-3" d="M25.85,105.89l6.05-41.6-18.46,12.46s-3.32,3.48-3.32,13.3c0,11.96,15.73,15.84,15.73,15.84Z"/>
        <path class="cls-12" d="M10.12,178.79c0,3.13,1.27,5.95,3.33,7.99l58.86-58.21L11.02,79.97s0,0,0,0c-.07.16-.13.32-.19.48,0,.01-.01.03-.02.04-.03.07-.05.14-.08.22,0,.03-.02.06-.03.08-.07.22-.14.44-.2.67-.01.04-.02.09-.03.13-.02.06-.03.12-.05.18-.01.05-.02.1-.04.16-.01.06-.02.11-.04.17-.02.1-.04.2-.06.3,0,.05-.02.09-.02.14-.01.07-.02.14-.03.21,0,.05-.01.09-.02.14-.01.09-.02.17-.03.26,0,.03,0,.06,0,.09-.01.11-.02.23-.03.34,0,.03,0,.07,0,.1,0,.09-.01.18-.01.26,0,.04,0,.07,0,.11,0,.12,0,.24,0,.36v94.39Z"/>
        <path class="cls-12" d="M167.71,128.58l58.85,58.2c1.41-1.4,2.45-3.18,2.96-5.17.23-.9.35-1.84.35-2.82v-94.39s0,0,0,0c0-.12,0-.24,0-.35,0-.04,0-.07,0-.11,0-.09,0-.17-.01-.26,0-.04,0-.07,0-.11,0-.11-.02-.23-.03-.34,0-.03,0-.06-.01-.1,0-.08-.02-.16-.03-.25,0-.05-.01-.1-.02-.14,0-.07-.02-.13-.03-.2,0-.05-.02-.1-.02-.14-.02-.1-.04-.2-.06-.29-.01-.06-.03-.12-.04-.18-.01-.05-.02-.1-.03-.14-.02-.06-.03-.13-.05-.19,0-.04-.02-.07-.03-.11-.06-.23-.13-.46-.21-.69,0-.02-.02-.05-.02-.07-.03-.08-.05-.15-.08-.23,0,0,0,0,0,0-.06-.17-.13-.34-.2-.51l-61.27,48.59Z"/>
        <rect class="cls-11" x="24.73" y="37" width="190.55" height="115.29" rx="7.79" ry="7.79"/>
        <path class="cls-10" d="M58.86,45.48c-1.21-3.07-2.84-5.91-4.81-8.45l-21.41-.03c-4.3,0-7.79,3.48-7.8,7.78l-.04,30.41-.02,18.25c2,.08,4.03,0,6.08-.28,19.19-2.54,32.7-20.15,30.16-39.35-.39-2.92-1.12-5.71-2.16-8.34Z"/>
        <path class="cls-15" d="M24.75,90.83l-.13,54.04c0,4.17,3.38,7.54,7.55,7.53h16.04s24.1-23.82,24.1-23.82l-47.55-37.75Z"/>
        <path class="cls-5" d="M53.95,44.26c-1.04-2.63-2.43-5.05-4.11-7.23l-18.32-.03c-3.68,0-6.67,2.97-6.67,6.65l-.04,26.03-.02,15.62c1.71.07,3.45,0,5.2-.24,16.42-2.17,27.98-17.24,25.81-33.67-.33-2.5-.96-4.89-1.85-7.13Z"/>
        <path class="cls-2" d="M167.71,128.58h-95.41s0,0,0,0l-58.86,58.21c.92.92,2,1.67,3.19,2.23,1.45.67,3.06,1.05,4.76,1.05h197.21c1.72,0,3.34-.38,4.8-1.07,1.18-.56,2.25-1.31,3.16-2.22l-58.85-58.2Z"/>
        <g>
          <path class="cls-13" d="M50.3,50.71c2.82,13.6-5.92,26.91-19.52,29.73-7.17,1.49-14.26-.24-19.77-4.2-1.45-1.04-2.79-2.23-3.99-3.56-2.91-3.21-5.02-7.22-5.97-11.76-2.82-13.6,5.92-26.91,19.52-29.73,4.55-.94,9.07-.59,13.17.8,1.7.58,3.32,1.33,4.85,2.25,5.82,3.48,10.23,9.3,11.71,16.47h0Z"/>
          <g>
            <circle class="cls-18" cx="27.37" cy="56.3" r="25.15"/>
            <path class="cls-14" d="M35.1,32.37l-25.91,41.3c1.31,1.37,2.77,2.59,4.34,3.62l26.72-42.59c-1.62-.97-3.35-1.75-5.15-2.33Z"/>
            <path class="cls-14" d="M42.73,36.39l-26.6,42.4c2.36,1.18,4.91,2,7.56,2.4l24.48-39.02c-1.51-2.22-3.35-4.16-5.45-5.77Z"/>
            <g>
              <path class="cls-9" d="M46.58,51.89c2.26,10.88-4.74,21.53-15.62,23.79-3.79.79-7.55.45-10.94-.78-1.48-.54-2.88-1.24-4.19-2.1-.96-.63-1.87-1.34-2.71-2.13-1.16-1.08-2.2-2.31-3.08-3.66-1.31-1.99-2.28-4.25-2.82-6.71-.02-.08-.04-.16-.05-.24-2.26-10.88,4.74-21.53,15.62-23.79.08-.02.16-.03.24-.05,2.47-.48,4.93-.49,7.27-.08,1.59.28,3.12.74,4.58,1.37,1.06.46,2.07,1.01,3.03,1.64,1.31.86,2.51,1.87,3.59,3.01,2.48,2.62,4.28,5.94,5.07,9.73h0Z"/>
              <path class="cls-8" d="M37.92,39.16l-22.08,33.64c-.96-.63-1.87-1.34-2.71-2.13-1.16-1.08-2.2-2.31-3.08-3.66-1.31-1.99-2.28-4.25-2.82-6.71-.02-.08-.04-.16-.05-.24-2.26-10.88,4.74-21.53,15.62-23.79.08-.02.16-.03.24-.05,2.47-.48,4.93-.49,7.27-.08,1.59.28,3.12.74,4.58,1.37,1.06.46,2.07,1.01,3.03,1.64h0Z"/>
              <path class="cls-6" d="M46.58,51.89c2.26,10.88-4.74,21.53-15.62,23.79-.37.08-.75.14-1.12.2,10.24-2.72,16.69-13.02,14.51-23.52-2.18-10.51-12.18-17.39-22.67-15.82.36-.1.73-.18,1.11-.26,10.88-2.26,21.53,4.74,23.79,15.62h0Z"/>
            </g>
            <g>
              <path class="cls-6" d="M24.13,61.7l1.36,6.55-5.67,1.18-3.69-17.81c-.66-3.17.09-4.56,3.39-5.24l4.79-.99c4.76-.99,8.75.66,9.83,5.86l.1.47c1.08,5.2-1.93,8.3-6.69,9.28l-3.41.71ZM23.14,56.9l3.14-.65c1.84-.38,2.61-1.98,2.29-3.52l-.04-.19c-.32-1.54-1.65-2.7-3.5-2.32l-2.34.49c-.63.13-.77.3-.63.96l1.08,5.23Z"/>
              <path class="cls-14" d="M26.49,61.21l1.36,6.55-5.67,1.18-3.69-17.81c-.66-3.17.09-4.56,3.39-5.24l4.79-.99c4.76-.99,8.75.66,9.83,5.86l.1.47c1.08,5.2-1.93,8.3-6.69,9.28l-3.41.71ZM25.49,56.42l3.14-.65c1.84-.38,2.61-1.98,2.29-3.52l-.04-.19c-.32-1.54-1.65-2.7-3.5-2.32l-2.34.49c-.63.13-.77.3-.63.96l1.08,5.23Z"/>
            </g>
          </g>
        </g>
        <g>
          <path class="cls-16" d="M102.9,117.56c-.33.59-.83,1.07-1.51,1.43s-1.52.54-2.53.54h-1.86v4.42h-3v-12.32h4.86c.98,0,1.81.17,2.49.51s1.19.81,1.53,1.4.51,1.28.51,2.05c0,.71-.16,1.37-.49,1.96ZM99.92,116.74c.28-.27.42-.65.42-1.14s-.14-.87-.42-1.14c-.28-.27-.71-.4-1.28-.4h-1.63v3.09h1.63c.57,0,1-.13,1.28-.4Z"/>
          <path class="cls-16" d="M107.6,123.28c-.97-.54-1.73-1.29-2.3-2.26s-.85-2.05-.85-3.26.28-2.29.85-3.25c.57-.96,1.33-1.71,2.3-2.25.97-.54,2.03-.81,3.19-.81s2.22.27,3.19.81c.97.54,1.73,1.29,2.28,2.25.56.96.83,2.04.83,3.25s-.28,2.29-.84,3.26-1.32,1.72-2.28,2.26-2.02.81-3.18.81-2.22-.27-3.19-.81ZM113.15,120.36c.59-.66.89-1.52.89-2.6s-.3-1.96-.89-2.61c-.59-.65-1.38-.97-2.36-.97s-1.79.32-2.38.97c-.59.64-.89,1.52-.89,2.62s.3,1.96.89,2.61c.59.65,1.38.97,2.38.97s1.77-.33,2.36-.98Z"/>
          <path class="cls-16" d="M121.76,111.64v12.32h-3v-12.32h3Z"/>
          <path class="cls-16" d="M134.96,123.96h-3l-5.02-7.6v7.6h-3v-12.32h3l5.02,7.64v-7.64h3v12.32Z"/>
          <path class="cls-16" d="M146,111.64v2.4h-3.26v9.92h-3v-9.92h-3.27v-2.4h9.53Z"/>
        </g>
        <path class="cls-15" d="M215.28,90.82l.04,53.94c0,4.17-3.38,7.54-7.55,7.53h-16.08s-24.16-23.89-24.16-23.89l47.74-37.58Z"/>
        <g>
          <path class="cls-16" d="M85.83,60.91v5.86s-12.52,0-12.52,0l-.84,6.17c1.56-.73,3.1-1.1,4.63-1.1,3.18,0,5.62.94,7.34,2.82,1.72,1.88,2.58,4.54,2.58,7.98,0,1.94-.41,3.73-1.23,5.36-.82,1.63-2.07,2.95-3.75,3.95-1.68,1-3.72,1.5-6.13,1.5-1.91,0-3.72-.39-5.42-1.17-1.71-.78-3.08-1.88-4.12-3.31-1.04-1.43-1.57-3.09-1.57-5h7.06c.12,1.15.53,2.06,1.23,2.73.71.68,1.63,1.01,2.78,1.01,1.38,0,2.39-.51,3.02-1.54.63-1.03.95-2.37.95-4.01,0-1.62-.39-2.87-1.17-3.75-.78-.88-1.96-1.32-3.55-1.32s-2.94.56-3.88,1.68l-5.73-1.46,1.9-16.4h18.43Z"/>
          <path class="cls-16" d="M91.65,86.84c.73-.71,1.7-1.06,2.91-1.06s2.12.35,2.84,1.06c.72.71,1.08,1.6,1.08,2.69s-.36,1.98-1.08,2.67c-.72.69-1.67,1.04-2.84,1.04s-2.18-.35-2.91-1.06c-.73-.71-1.1-1.59-1.1-2.65s.37-1.98,1.1-2.69ZM98.62,90.63c0,1.41-.4,2.79-1.19,4.14-.62,1.06-1.39,2-2.32,2.82-.93.82-1.74,1.38-2.45,1.68l-1.5-1.9c.71-.56,1.32-1.21,1.85-1.96s.9-1.55,1.1-2.4c.15-.59.22-1.12.22-1.59,0-.62-.12-1.28-.35-1.98l4.19-1.28c.29.79.44,1.62.44,2.47Z"/>
          <path class="cls-16" d="M121.1,90.05c-1.97,2.26-4.66,3.4-8.07,3.4-3.41,0-6.11-1.13-8.09-3.4-1.98-2.26-2.98-5.67-2.98-10.23v-5.69c0-4.61.98-8.05,2.95-10.3,1.97-2.25,4.66-3.37,8.07-3.37,3.41,0,6.11,1.12,8.09,3.37s2.98,5.68,2.98,10.3v5.69c0,4.56-.99,7.97-2.95,10.23ZM115.92,67.76c-.66-1.04-1.64-1.57-2.93-1.57s-2.27.52-2.93,1.57c-.66,1.04-.99,2.82-.99,5.31v7.67c0,2.53.34,4.32,1.01,5.38.68,1.06,1.66,1.59,2.95,1.59s2.26-.53,2.91-1.59c.65-1.06.97-2.85.97-5.38v-7.67c0-2.5-.33-4.27-.99-5.31Z"/>
          <path class="cls-16" d="M146.68,90.05c-1.97,2.26-4.66,3.4-8.07,3.4-3.41,0-6.11-1.13-8.09-3.4-1.98-2.26-2.98-5.67-2.98-10.23v-5.69c0-4.61.98-8.05,2.95-10.3,1.97-2.25,4.66-3.37,8.07-3.37s6.11,1.12,8.09,3.37c1.98,2.25,2.98,5.68,2.98,10.3v5.69c0,4.56-.99,7.97-2.95,10.23ZM141.5,67.76c-.66-1.04-1.64-1.57-2.93-1.57s-2.27.52-2.93,1.57c-.66,1.04-.99,2.82-.99,5.31v7.67c0,2.53.34,4.32,1.01,5.38.68,1.06,1.66,1.59,2.95,1.59s2.26-.53,2.91-1.59c.65-1.06.97-2.85.97-5.38v-7.67c0-2.5-.33-4.27-.99-5.31Z"/>
          <path class="cls-16" d="M172.25,90.05c-1.97,2.26-4.66,3.4-8.07,3.4s-6.11-1.13-8.09-3.4c-1.98-2.26-2.98-5.67-2.98-10.23v-5.69c0-4.61.98-8.05,2.95-10.3,1.97-2.25,4.66-3.37,8.07-3.37s6.11,1.12,8.09,3.37c1.98,2.25,2.98,5.68,2.98,10.3v5.69c0,4.56-.99,7.97-2.95,10.23ZM167.07,67.76c-.66-1.04-1.64-1.57-2.93-1.57s-2.27.52-2.93,1.57c-.66,1.04-.99,2.82-.99,5.31v7.67c0,2.53.34,4.32,1.01,5.38.68,1.06,1.66,1.59,2.95,1.59s2.26-.53,2.91-1.59c.65-1.06.97-2.85.97-5.38v-7.67c0-2.5-.33-4.27-.99-5.31Z"/>
        </g>
      </g>
    </g>
  </g>
</svg>