<?xml version="1.0" encoding="UTF-8"?>
<svg id="Layer_2" data-name="Layer 2" xmlns="http://www.w3.org/2000/svg" xmlns:xlink="http://www.w3.org/1999/xlink" viewBox="0 0 240 200">
  <defs>
    <style>
      .cls-1 {
        fill: none;
      }

      .cls-2 {
        fill: #f3f4f5;
      }

      .cls-3 {
        fill: url(#linear-gradient-2);
      }

      .cls-4 {
        fill: #dbdbdb;
      }

      .cls-5 {
        fill: url(#radial-gradient);
      }

      .cls-6 {
        fill: #f58e1f;
      }

      .cls-7 {
        fill: url(#linear-gradient);
      }

      .cls-8 {
        fill: #ffcaca;
      }

      .cls-9 {
        fill: #fdbc11;
      }

      .cls-10 {
        fill: #f9a31a;
      }

      .cls-11 {
        fill: #fff;
      }

      .cls-12 {
        fill: #e9ebf1;
      }

      .cls-13 {
        fill: #e44a42;
      }

      .cls-14 {
        fill: #eecc16;
      }

      .cls-15 {
        fill: #fde893;
      }

      .cls-16 {
        clip-path: url(#clippath);
      }

      .cls-17 {
        fill: #fddd51;
      }
    </style>
    <clipPath id="clippath">
      <rect class="cls-1" width="240" height="200"/>
    </clipPath>
    <linearGradient id="linear-gradient" x1="217.47" y1="81.48" x2="224.97" y2="81.48" gradientUnits="userSpaceOnUse">
      <stop offset="0" stop-color="#adadad"/>
      <stop offset=".02" stop-color="#aeaeae"/>
      <stop offset=".4" stop-color="#c9c9c9"/>
      <stop offset=".74" stop-color="#dadada"/>
      <stop offset="1" stop-color="#e0e0e0"/>
    </linearGradient>
    <linearGradient id="linear-gradient-2" x1="31.56" y1="85.57" x2="22.07" y2="83.87" gradientUnits="userSpaceOnUse">
      <stop offset="0" stop-color="#adadad"/>
      <stop offset=".4" stop-color="#bebebe"/>
      <stop offset="1" stop-color="#e0e0e0"/>
    </linearGradient>
    <radialGradient id="radial-gradient" cx=".23" cy="63.16" fx=".23" fy="63.16" r="30.73" gradientTransform="translate(20.18 -7.31) rotate(-7.53)" gradientUnits="userSpaceOnUse">
      <stop offset="0" stop-color="#932121"/>
      <stop offset=".22" stop-color="#972322"/>
      <stop offset=".44" stop-color="#a32927"/>
      <stop offset=".67" stop-color="#b7332f"/>
      <stop offset=".9" stop-color="#d4423b"/>
      <stop offset="1" stop-color="#e44a42"/>
    </radialGradient>
  </defs>
  <g id="Layer_1-2" data-name="Layer 1">
    <g class="cls-16">
      <g>
        <path class="cls-4" d="M229.88,84.74c0-.12,0-.24,0-.35,0-.04,0-.07,0-.11,0-.09,0-.17-.01-.26,0-.04,0-.07,0-.11,0-.11-.02-.23-.03-.34,0-.03,0-.06-.01-.1,0-.08-.02-.16-.03-.25,0-.05-.01-.1-.02-.14,0-.07-.02-.13-.03-.2,0-.05-.02-.1-.02-.14-.02-.1-.04-.2-.06-.29-.01-.06-.03-.12-.04-.18-.01-.05-.02-.1-.03-.14-.02-.06-.03-.13-.05-.19,0-.04-.02-.07-.03-.11-.06-.23-.13-.46-.21-.69,0-.02-.02-.05-.02-.07-.03-.08-.05-.15-.08-.23,0,0,0,0,0,0-.03-.08-.06-.17-.1-.25,0-.02-.02-.05-.03-.07-.02-.06-.05-.12-.07-.18,0,0,0-.01,0-.02h0c-1-2.35-2.77-4.28-4.99-5.49L130.71,13.1c-6.41-4.63-15.04-4.68-21.5-.12L16.02,74.83c-2.22,1.21-3.99,3.14-4.99,5.48,0,0,0,0,0,0-.07.16-.13.32-.19.48,0,.01-.01.03-.02.04-.03.07-.05.14-.08.22,0,.03-.02.06-.03.08-.07.22-.14.44-.2.67-.01.04-.02.09-.03.13-.02.06-.03.12-.05.18-.01.05-.02.1-.04.16-.01.06-.02.11-.04.17-.02.1-.04.2-.06.3,0,.05-.02.09-.02.14-.01.07-.02.14-.03.21,0,.05-.01.09-.02.14-.01.09-.02.17-.03.26,0,.03,0,.06,0,.09-.01.11-.02.23-.03.34,0,.03,0,.07,0,.1,0,.09-.01.18-.01.26,0,.04,0,.07,0,.11,0,.12,0,.24,0,.36v94.39c0,3.13,1.27,5.95,3.33,7.99.81.8,1.73,1.48,2.75,2.01.15.08.29.15.44.22,1.35.63,2.85,1,4.43,1.05,0,0,0,0,0,0,.07,0,.14,0,.2,0,.04,0,.08,0,.11,0h197.22s.09,0,.14,0c.06,0,.12,0,.18,0,.02,0,.05,0,.07,0,.83-.03,1.63-.15,2.4-.34.02,0,.03,0,.05-.01.08-.02.16-.04.25-.07.02,0,.04-.01.05-.02.08-.02.16-.05.24-.07.49-.15.96-.34,1.41-.55.15-.07.29-.14.44-.22.29-.15.57-.31.84-.49.54-.35,1.06-.74,1.53-1.18.12-.11.24-.22.35-.33.18-.18.35-.36.51-.54.07-.08.13-.15.2-.23.84-1.01,1.51-2.17,1.96-3.43.07-.19.13-.39.19-.59.04-.12.07-.25.1-.37.23-.9.35-1.84.35-2.82h0v-94.39s0,0,0,0Z"/>
        <path class="cls-7" d="M218.26,70.61l5.14,3.72s4.88,2.93,5.73,6.04c.77,2.84-10.89,11.98-10.89,11.98v-21.74Z"/>
        <path class="cls-3" d="M25.85,105.89l6.05-41.6-18.46,12.46s-3.32,3.48-3.32,13.3c0,11.96,15.73,15.84,15.73,15.84Z"/>
        <path class="cls-12" d="M10.12,178.79c0,3.13,1.27,5.95,3.33,7.99l58.86-58.21L11.02,79.97s0,0,0,0c-.07.16-.13.32-.19.48,0,.01-.01.03-.02.04-.03.07-.05.14-.08.22,0,.03-.02.06-.03.08-.07.22-.14.44-.2.67-.01.04-.02.09-.03.13-.02.06-.03.12-.05.18-.01.05-.02.1-.04.16-.01.06-.02.11-.04.17-.02.1-.04.2-.06.3,0,.05-.02.09-.02.14-.01.07-.02.14-.03.21,0,.05-.01.09-.02.14-.01.09-.02.17-.03.26,0,.03,0,.06,0,.09-.01.11-.02.23-.03.34,0,.03,0,.07,0,.1,0,.09-.01.18-.01.26,0,.04,0,.07,0,.11,0,.12,0,.24,0,.36v94.39Z"/>
        <path class="cls-12" d="M167.71,128.58l58.85,58.2c1.41-1.4,2.45-3.18,2.96-5.17.23-.9.35-1.84.35-2.82v-94.39s0,0,0,0c0-.12,0-.24,0-.35,0-.04,0-.07,0-.11,0-.09,0-.17-.01-.26,0-.04,0-.07,0-.11,0-.11-.02-.23-.03-.34,0-.03,0-.06-.01-.1,0-.08-.02-.16-.03-.25,0-.05-.01-.1-.02-.14,0-.07-.02-.13-.03-.2,0-.05-.02-.1-.02-.14-.02-.1-.04-.2-.06-.29-.01-.06-.03-.12-.04-.18-.01-.05-.02-.1-.03-.14-.02-.06-.03-.13-.05-.19,0-.04-.02-.07-.03-.11-.06-.23-.13-.46-.21-.69,0-.02-.02-.05-.02-.07-.03-.08-.05-.15-.08-.23,0,0,0,0,0,0-.06-.17-.13-.34-.2-.51l-61.27,48.59Z"/>
        <rect class="cls-13" x="27.7" y="37" width="190.55" height="115.29" rx="7.79" ry="7.79"/>
        <path class="cls-8" d="M27.62,93.1l.04,51.77c0,4.17,3.38,7.54,7.55,7.53l12.97.03,24.12-23.86-44.68-35.47Z"/>
        <path class="cls-13" d="M61.77,45.48c-1.21-3.07-2.84-5.91-4.81-8.45l-21.41-.03c-4.3,0-7.79,3.48-7.8,7.78l-.04,30.41-.02,18.25c2,.08,4.03,0,6.08-.28,19.19-2.54,32.7-20.15,30.16-39.35-.39-2.92-1.12-5.71-2.16-8.34Z"/>
        <path class="cls-5" d="M56.86,44.26c-1.04-2.63-2.43-5.05-4.11-7.23l-18.32-.03c-3.68,0-6.67,2.97-6.67,6.65l-.04,26.03-.02,15.62c1.71.07,3.45,0,5.2-.24,16.42-2.17,27.98-17.24,25.81-33.67-.33-2.5-.96-4.89-1.85-7.13Z"/>
        <path class="cls-2" d="M167.71,128.58h-95.41s0,0,0,0l-58.86,58.21c.92.92,2,1.67,3.19,2.23,1.45.67,3.06,1.05,4.76,1.05h197.21c1.72,0,3.34-.38,4.8-1.07,1.18-.56,2.25-1.31,3.16-2.22l-58.85-58.2Z"/>
        <g>
          <path class="cls-14" d="M53.22,50.71c2.82,13.6-5.92,26.91-19.52,29.73-7.17,1.49-14.26-.24-19.77-4.2-1.45-1.04-2.79-2.23-3.99-3.56-2.91-3.21-5.02-7.22-5.97-11.76-2.82-13.6,5.92-26.91,19.52-29.73,4.55-.94,9.07-.59,13.17.8,1.7.58,3.32,1.33,4.85,2.25,5.82,3.48,10.23,9.3,11.71,16.47h0Z"/>
          <g>
            <circle class="cls-17" cx="30.28" cy="56.3" r="25.15"/>
            <path class="cls-15" d="M38.02,32.37l-25.91,41.3c1.31,1.37,2.77,2.59,4.34,3.62l26.72-42.59c-1.62-.97-3.35-1.75-5.15-2.33Z"/>
            <path class="cls-15" d="M45.64,36.39l-26.6,42.4c2.36,1.18,4.91,2,7.56,2.4l24.48-39.02c-1.51-2.22-3.35-4.16-5.45-5.77Z"/>
            <g>
              <path class="cls-10" d="M49.49,51.89c2.26,10.88-4.74,21.53-15.62,23.79-3.79.79-7.55.45-10.94-.78-1.48-.54-2.88-1.24-4.19-2.1-.96-.63-1.87-1.34-2.71-2.13-1.16-1.08-2.2-2.31-3.08-3.66-1.31-1.99-2.28-4.25-2.82-6.71-.02-.08-.04-.16-.05-.24-2.26-10.88,4.74-21.53,15.62-23.79.08-.02.16-.03.24-.05,2.47-.48,4.93-.49,7.27-.08,1.59.28,3.12.74,4.58,1.37,1.06.46,2.07,1.01,3.03,1.64,1.31.86,2.51,1.87,3.59,3.01,2.48,2.62,4.28,5.94,5.07,9.73h0Z"/>
              <path class="cls-9" d="M40.83,39.16l-22.08,33.64c-.96-.63-1.87-1.34-2.71-2.13-1.16-1.08-2.2-2.31-3.08-3.66-1.31-1.99-2.28-4.25-2.82-6.71-.02-.08-.04-.16-.05-.24-2.26-10.88,4.74-21.53,15.62-23.79.08-.02.16-.03.24-.05,2.47-.48,4.93-.49,7.27-.08,1.59.28,3.12.74,4.58,1.37,1.06.46,2.07,1.01,3.03,1.64h0Z"/>
              <path class="cls-6" d="M49.49,51.89c2.26,10.88-4.74,21.53-15.62,23.79-.37.08-.75.14-1.12.2,10.24-2.72,16.69-13.02,14.51-23.52-2.18-10.51-12.18-17.39-22.67-15.82.36-.1.73-.18,1.11-.26,10.88-2.26,21.53,4.74,23.79,15.62h0Z"/>
            </g>
            <g>
              <path class="cls-6" d="M27.04,61.7l1.36,6.55-5.67,1.18-3.69-17.81c-.66-3.17.09-4.56,3.39-5.24l4.79-.99c4.76-.99,8.75.66,9.83,5.86l.1.47c1.08,5.2-1.93,8.3-6.69,9.28l-3.41.71ZM26.05,56.9l3.14-.65c1.84-.38,2.61-1.98,2.29-3.52l-.04-.19c-.32-1.54-1.65-2.7-3.5-2.32l-2.34.49c-.63.13-.77.3-.63.96l1.08,5.23Z"/>
              <path class="cls-15" d="M29.4,61.21l1.36,6.55-5.67,1.18-3.69-17.81c-.66-3.17.09-4.56,3.39-5.24l4.79-.99c4.76-.99,8.75.66,9.83,5.86l.1.47c1.08,5.2-1.93,8.3-6.69,9.28l-3.41.71ZM28.41,56.42l3.14-.65c1.84-.38,2.61-1.98,2.29-3.52l-.04-.19c-.32-1.54-1.65-2.7-3.5-2.32l-2.34.49c-.63.13-.77.3-.63.96l1.08,5.23Z"/>
            </g>
          </g>
        </g>
        <g>
          <path class="cls-11" d="M64.15,69.62l-6.18,2.66v-5.95s9.6-5.41,9.6-5.41h3.92v32.82h-7.35v-24.12Z"/>
          <path class="cls-11" d="M94.74,90.72c-2.01,2.31-4.76,3.47-8.25,3.47s-6.24-1.16-8.27-3.47c-2.03-2.31-3.04-5.8-3.04-10.46v-5.82c0-4.72,1.01-8.23,3.02-10.53,2.01-2.3,4.76-3.45,8.25-3.45s6.24,1.15,8.27,3.45,3.04,5.81,3.04,10.53v5.82c0,4.66-1.01,8.15-3.02,10.46ZM89.44,67.93c-.68-1.07-1.68-1.6-3-1.6s-2.32.53-3,1.6c-.68,1.07-1.01,2.88-1.01,5.43v7.85c0,2.59.34,4.42,1.04,5.5.69,1.08,1.7,1.62,3.02,1.62s2.31-.54,2.98-1.62c.66-1.08.99-2.92.99-5.5v-7.85c0-2.55-.34-4.37-1.01-5.43Z"/>
          <path class="cls-11" d="M108.94,88.87c-.06-.85-.38-1.57-.96-2.14-.65-.64-1.5-.95-2.56-.95s-1.96.32-2.62.95c-.66.64-.99,1.44-.99,2.42s.33,1.75.99,2.38c.57.54,1.29.85,2.17.93-.19.7-.5,1.36-.94,1.99-.48.68-1.03,1.26-1.67,1.77l1.35,1.71c.64-.26,1.37-.77,2.2-1.51.83-.74,1.53-1.59,2.09-2.54.71-1.22,1.07-2.46,1.07-3.73,0-.43-.05-.86-.13-1.27Z"/>
          <path class="cls-11" d="M132.65,90.72c-2.01,2.31-4.76,3.47-8.25,3.47-3.49,0-6.24-1.16-8.27-3.47-2.03-2.31-3.04-5.8-3.04-10.46v-5.82c0-4.72,1.01-8.23,3.02-10.53,2.01-2.3,4.76-3.45,8.25-3.45s6.24,1.15,8.27,3.45,3.04,5.81,3.04,10.53v5.82c0,4.66-1.01,8.15-3.02,10.46ZM127.35,67.93c-.68-1.07-1.68-1.6-3-1.6s-2.32.53-3,1.6c-.68,1.07-1.01,2.88-1.01,5.43v7.85c0,2.59.34,4.42,1.04,5.5.69,1.08,1.7,1.62,3.02,1.62s2.31-.54,2.98-1.62c.66-1.08.99-2.92.99-5.5v-7.85c0-2.55-.34-4.37-1.01-5.43Z"/>
          <path class="cls-11" d="M158.8,90.72c-2.01,2.31-4.76,3.47-8.25,3.47s-6.24-1.16-8.27-3.47c-2.03-2.31-3.04-5.8-3.04-10.46v-5.82c0-4.72,1.01-8.23,3.02-10.53,2.01-2.3,4.76-3.45,8.25-3.45,3.49,0,6.24,1.15,8.27,3.45s3.04,5.81,3.04,10.53v5.82c0,4.66-1.01,8.15-3.02,10.46ZM153.5,67.93c-.68-1.07-1.68-1.6-3-1.6s-2.32.53-3,1.6c-.68,1.07-1.01,2.88-1.01,5.43v7.85c0,2.59.34,4.42,1.04,5.5.69,1.08,1.7,1.62,3.02,1.62s2.31-.54,2.98-1.62c.66-1.08.99-2.92.99-5.5v-7.85c0-2.55-.34-4.37-1.01-5.43Z"/>
          <path class="cls-11" d="M184.95,90.72c-2.01,2.31-4.76,3.47-8.25,3.47s-6.24-1.16-8.27-3.47c-2.03-2.31-3.04-5.8-3.04-10.46v-5.82c0-4.72,1.01-8.23,3.02-10.53,2.01-2.3,4.76-3.45,8.25-3.45s6.24,1.15,8.27,3.45,3.04,5.81,3.04,10.53v5.82c0,4.66-1.01,8.15-3.02,10.46ZM179.65,67.93c-.68-1.07-1.68-1.6-3-1.6s-2.32.53-3,1.6c-.68,1.07-1.01,2.88-1.01,5.43v7.85c0,2.59.34,4.42,1.04,5.5.69,1.08,1.7,1.62,3.02,1.62s2.31-.54,2.98-1.62c.66-1.08.99-2.92.99-5.5v-7.85c0-2.55-.34-4.37-1.01-5.43Z"/>
        </g>
        <g>
          <path class="cls-11" d="M102.9,117.56c-.33.59-.83,1.07-1.51,1.43s-1.52.54-2.53.54h-1.86v4.42h-3v-12.32h4.86c.98,0,1.81.17,2.49.51s1.19.81,1.53,1.4.51,1.28.51,2.05c0,.71-.16,1.37-.49,1.96ZM99.92,116.74c.28-.27.42-.65.42-1.14s-.14-.87-.42-1.14c-.28-.27-.71-.4-1.28-.4h-1.63v3.09h1.63c.57,0,1-.13,1.28-.4Z"/>
          <path class="cls-11" d="M107.6,123.28c-.97-.54-1.73-1.29-2.3-2.26s-.85-2.05-.85-3.26.28-2.29.85-3.25c.57-.96,1.33-1.71,2.3-2.25.97-.54,2.03-.81,3.19-.81s2.22.27,3.19.81c.97.54,1.73,1.29,2.28,2.25.56.96.83,2.04.83,3.25s-.28,2.29-.84,3.26-1.32,1.72-2.28,2.26-2.02.81-3.18.81-2.22-.27-3.19-.81ZM113.15,120.36c.59-.66.89-1.52.89-2.6s-.3-1.96-.89-2.61c-.59-.65-1.38-.97-2.36-.97s-1.79.32-2.38.97c-.59.64-.89,1.52-.89,2.62s.3,1.96.89,2.61c.59.65,1.38.97,2.38.97s1.77-.33,2.36-.98Z"/>
          <path class="cls-11" d="M121.76,111.64v12.32h-3v-12.32h3Z"/>
          <path class="cls-11" d="M134.96,123.96h-3l-5.02-7.6v7.6h-3v-12.32h3l5.02,7.64v-7.64h3v12.32Z"/>
          <path class="cls-11" d="M146,111.64v2.4h-3.26v9.92h-3v-9.92h-3.27v-2.4h9.53Z"/>
        </g>
        <path class="cls-8" d="M218.26,88.47l-.04,56.29c0,4.17-3.38,7.54-7.55,7.53h-18.97s-24.16-23.89-24.16-23.89l50.73-39.93Z"/>
      </g>
    </g>
  </g>
</svg>