<?xml version="1.0" encoding="UTF-8"?>
<svg id="Layer_2" data-name="Layer 2" xmlns="http://www.w3.org/2000/svg" viewBox="0 0 270.1 16.56">
  <defs>
    <style>
      .cls-1 {
        fill: #f7f7f7;
      }
    </style>
  </defs>
  <g id="Layer_1-2" data-name="Layer 1">
    <g>
      <g>
        <path class="cls-1" d="m0,8.28c0-1.14.22-2.21.65-3.22.43-1.01,1.02-1.89,1.78-2.64.75-.75,1.63-1.34,2.64-1.78,1.01-.43,2.08-.65,3.22-.65,1.97,0,3.63.48,4.99,1.44,1.36.96,2.28,2.31,2.76,4.06h-2.35c-.42-1.1-1.1-1.96-2.04-2.56-.94-.6-2.06-.9-3.36-.9-.83,0-1.62.16-2.36.49-.74.33-1.4.78-1.96,1.34-.56.57-1,1.23-1.32,1.99-.32.76-.48,1.56-.48,2.41s.16,1.65.48,2.41c.32.76.76,1.42,1.32,1.99.56.57,1.21,1.02,1.96,1.34.74.33,1.53.49,2.36.49,1.3,0,2.42-.3,3.36-.9.94-.6,1.62-1.45,2.04-2.56h2.35c-.48,1.74-1.4,3.1-2.76,4.06-1.36.96-3.02,1.44-4.99,1.44-1.14,0-2.21-.22-3.22-.65-1.01-.43-1.89-1.02-2.64-1.78-.75-.75-1.34-1.63-1.78-2.63-.43-1-.65-2.08-.65-3.23Z"/>
        <path class="cls-1" d="m23.18.24h2.62l6.19,16.08h-2.18l-1.34-3.5h-7.94l-1.34,3.5h-2.18L23.18.24Zm4.56,10.66l-3.24-8.54-3.26,8.54h6.5Z"/>
        <path class="cls-1" d="m33.17,4.61c0-1.46.51-2.59,1.52-3.4,1.02-.81,2.43-1.21,4.24-1.21.9,0,1.7.11,2.41.34.71.22,1.32.54,1.82.96.5.42.9.91,1.18,1.49.28.58.44,1.22.47,1.94h-2.28c-.02-.35-.1-.7-.25-1.03s-.38-.64-.68-.9c-.3-.26-.69-.48-1.15-.64-.46-.16-1.02-.24-1.66-.24-1.04,0-1.88.24-2.51.71-.63.47-.95,1.13-.95,1.98,0,.5.11.91.34,1.24s.53.6.91.82c.38.22.83.39,1.33.53s1.03.27,1.57.4c.67.14,1.34.3,2.02.47s1.28.41,1.82.72c.54.31.98.72,1.32,1.24.34.51.5,1.19.5,2.04,0,1.42-.49,2.53-1.48,3.32s-2.42,1.19-4.31,1.19c-.99,0-1.89-.11-2.69-.34-.8-.22-1.48-.54-2.05-.96-.57-.42-1.01-.92-1.32-1.51-.31-.59-.47-1.26-.47-1.99h2.28c.14.91.58,1.62,1.31,2.12.73.5,1.69.76,2.89.76,1.14,0,2.03-.21,2.69-.64.66-.42.98-.99.98-1.69,0-.5-.11-.9-.34-1.22-.22-.32-.53-.58-.91-.79-.38-.21-.83-.38-1.33-.5-.5-.13-1.03-.25-1.57-.36-.67-.14-1.34-.3-2.02-.48-.67-.18-1.28-.43-1.82-.77-.54-.34-.98-.79-1.32-1.36-.34-.57-.5-1.31-.5-2.22Z"/>
        <path class="cls-1" d="m48.38.24h2.04v7.42h9.14V.24h2.04v16.08h-2.04v-6.74h-9.14v6.74h-2.04V.24Z"/>
        <path class="cls-1" d="m65.81.24h2.54l5.57,10.8L79.49.24h2.54v16.08h-2.04V3.6l-4.9,9.48h-2.35l-4.9-9.48v12.72h-2.04V.24Z"/>
        <path class="cls-1" d="m90.5.24h2.62l6.19,16.08h-2.18l-1.34-3.5h-7.94l-1.34,3.5h-2.18L90.5.24Zm4.56,10.66l-3.24-8.54-3.26,8.54h6.5Z"/>
        <path class="cls-1" d="m103.54,2.16h-5.78V.24h13.61v1.92h-5.78v14.16h-2.04V2.16Z"/>
        <path class="cls-1" d="m113.4.24h11.04v1.92h-9v5.26h7.66v1.8h-7.66v5.18h9v1.92h-11.04V.24Z"/>
      </g>
      <g>
        <path class="cls-1" d="m145.64,8.28c0-1.14.22-2.21.65-3.22.43-1.01,1.02-1.89,1.78-2.64.75-.75,1.63-1.34,2.64-1.78,1.01-.43,2.08-.65,3.22-.65,1.97,0,3.63.48,4.99,1.44,1.36.96,2.28,2.31,2.76,4.06h-2.35c-.42-1.1-1.1-1.96-2.04-2.56-.94-.6-2.06-.9-3.36-.9-.83,0-1.62.16-2.36.49s-1.4.78-1.96,1.34c-.56.57-1,1.23-1.32,1.99-.32.76-.48,1.56-.48,2.41s.16,1.65.48,2.41.76,1.42,1.32,1.99c.56.57,1.21,1.02,1.96,1.34s1.53.49,2.36.49c1.3,0,2.42-.3,3.36-.9.94-.6,1.62-1.45,2.04-2.56h2.35c-.48,1.74-1.4,3.1-2.76,4.06-1.36.96-3.02,1.44-4.99,1.44-1.14,0-2.21-.22-3.22-.65-1.01-.43-1.89-1.02-2.64-1.78s-1.34-1.63-1.78-2.63c-.43-1-.65-2.08-.65-3.23Z"/>
        <path class="cls-1" d="m164.55.24h2.04v14.16h8.28v1.92h-10.32V.24Z"/>
        <path class="cls-1" d="m177.39.24h2.04v16.08h-2.04V.24Z"/>
        <path class="cls-1" d="m189.56.24c.94,0,1.8.13,2.57.4.77.26,1.42.64,1.97,1.12.54.48.96,1.06,1.26,1.74.3.68.44,1.44.44,2.27s-.15,1.6-.44,2.29c-.3.7-.72,1.29-1.26,1.79-.54.5-1.2.88-1.97,1.15-.77.27-1.62.41-2.57.41h-3.89v4.92h-2.04V.24h5.93Zm-.22,9.24c1.31,0,2.36-.33,3.13-1,.78-.66,1.16-1.56,1.16-2.68s-.39-1.99-1.16-2.65c-.78-.66-1.82-1-3.13-1h-3.67v7.32h3.67Z"/>
        <path class="cls-1" d="m198.56,16.32V.24h5.64c1.25,0,2.38.19,3.39.58,1.02.38,1.89.93,2.62,1.63s1.29,1.55,1.68,2.53c.39.98.59,2.08.59,3.3s-.2,2.32-.59,3.31-.95,1.84-1.68,2.53c-.73.7-1.6,1.24-2.62,1.62-1.02.38-2.15.58-3.39.58h-5.64Zm2.04-1.92h3.6c.93,0,1.77-.14,2.52-.42s1.4-.68,1.93-1.21c.54-.53.95-1.17,1.24-1.93.29-.76.43-1.61.43-2.56s-.14-1.8-.43-2.56-.7-1.4-1.24-1.93c-.54-.53-1.18-.93-1.93-1.21-.75-.28-1.59-.42-2.52-.42h-3.6v12.24Z"/>
        <path class="cls-1" d="m214.28,8.28c0-1.14.22-2.21.65-3.22.43-1.01,1.02-1.89,1.78-2.64.75-.75,1.63-1.34,2.64-1.78,1.01-.43,2.08-.65,3.22-.65s2.23.22,3.23.65,1.88,1.02,2.63,1.78c.75.75,1.34,1.63,1.78,2.64.43,1.01.65,2.08.65,3.22s-.22,2.23-.65,3.23c-.43,1-1.02,1.88-1.78,2.63s-1.63,1.34-2.63,1.78c-1,.43-2.08.65-3.23.65s-2.21-.22-3.22-.65c-1.01-.43-1.89-1.02-2.64-1.78s-1.34-1.63-1.78-2.63c-.43-1-.65-2.08-.65-3.23Zm2.16,0c0,.85.16,1.65.48,2.41s.76,1.42,1.32,1.99c.56.57,1.21,1.02,1.96,1.34s1.53.49,2.36.49,1.64-.16,2.38-.49c.74-.33,1.38-.78,1.94-1.34.56-.57,1-1.23,1.32-1.99.32-.76.48-1.56.48-2.41s-.16-1.65-.48-2.41c-.32-.76-.76-1.42-1.32-1.99-.56-.57-1.21-1.02-1.94-1.34-.74-.33-1.53-.49-2.38-.49s-1.62.16-2.36.49-1.4.78-1.96,1.34c-.56.57-1,1.23-1.32,1.99-.32.76-.48,1.56-.48,2.41Z"/>
        <path class="cls-1" d="m233.6.24l4.3,13.49L241.95.24h2.14l4.06,13.49L252.44.24h2.16l-5.21,16.08h-2.42l-3.96-12.98-3.96,12.98h-2.42L231.44.24h2.16Z"/>
        <path class="cls-1" d="m256.88.24h2.64l8.54,13.27V.24h2.04v16.08h-2.64l-8.54-13.27v13.27h-2.04V.24Z"/>
      </g>
      <path class="cls-1" d="m135.91,8.17l4.14,5.55h-1.7l-3.3-4.4-3.3,4.4h-1.7l4.14-5.55-3.98-5.32h1.72l3.12,4.17,3.12-4.17h1.72l-3.98,5.32Z"/>
    </g>
  </g>
</svg>