<?xml version="1.0" encoding="UTF-8"?>
<svg id="Layer_2" data-name="Layer 2" xmlns="http://www.w3.org/2000/svg" xmlns:xlink="http://www.w3.org/1999/xlink" viewBox="0 0 512 512">
  <defs>
    <style>
      .cls-1 {
        fill: none;
      }

      .cls-2 {
        mask: url(#mask);
      }

      .cls-3 {
        opacity: .24;
      }

      .cls-3, .cls-4, .cls-5 {
        fill-rule: evenodd;
      }

      .cls-4 {
        fill: #fff;
      }

      .cls-6 {
        fill: url(#linear-gradient-2);
      }

      .cls-5 {
        fill: url(#linear-gradient);
      }

      .cls-7 {
        clip-path: url(#clippath);
      }
    </style>
    <clipPath id="clippath">
      <rect class="cls-1" width="512" height="512"/>
    </clipPath>
    <linearGradient id="linear-gradient" x1="256" y1="468.63" x2="256" y2="33.32" gradientUnits="userSpaceOnUse">
      <stop offset="0" stop-color="#13bd33"/>
      <stop offset="1" stop-color="#edef46"/>
    </linearGradient>
    <linearGradient id="linear-gradient-2" x1="-1133.32" y1="1406.86" x2="-583.49" y2="1920.84" gradientTransform="translate(1101.08 -1320.3)" gradientUnits="userSpaceOnUse">
      <stop offset="0" stop-color="#fff"/>
      <stop offset="1" stop-color="#000"/>
    </linearGradient>
    <mask id="mask" x="100.85" y="228.93" width="277.19" height="223.18" maskUnits="userSpaceOnUse">
      <rect class="cls-6" x="100.85" y="228.93" width="277.19" height="223.18"/>
    </mask>
  </defs>
  <g id="Layer_1-2" data-name="Layer 1">
    <g class="cls-7">
      <g>
        <path id="SVGID" class="cls-5" d="M241,8.66c9.28-5.36,20.72-5.36,30,0l95.85,55.34,95.68,55.24c9.39,5.42,15.17,15.44,15.17,26.28v220.96c0,10.84-5.78,20.86-15.17,26.28l-95.68,55.24-95.68,55.24c-9.39,5.42-20.95,5.42-30.34,0l-95.68-55.24-95.68-55.24c-9.39-5.42-15.17-15.44-15.17-26.28v-220.96c0-10.84,5.78-20.86,15.17-26.28l95.68-55.24L241,8.66Z"/>
        <g>
          <g class="cls-2">
            <path class="cls-3" d="M378.04,441.57l-13.41,7.74-4.86,2.81-43.87-43.87c-20.5,10.95-43.92,17.16-68.79,17.16-80.78,0-146.26-65.48-146.26-146.26,0-17.64,3.12-34.55,8.85-50.21-1.71,8.95-2.62,18.18-2.62,27.63,0,80.78,65.48,146.26,146.26,146.26,24.87,0,48.28-6.21,68.79-17.16l55.91,55.91Z"/>
          </g>
          <g>
            <path class="cls-4" d="M296.99,165.75c22.3,0,40.38,18.08,40.38,40.38s-18.08,40.38-40.38,40.38-40.38-18.08-40.38-40.38,18.08-40.38,40.38-40.38"/>
            <path class="cls-4" d="M253.34,110.29c-80.78,0-146.26,65.48-146.26,146.26s65.48,146.26,146.26,146.26c24.87,0,48.28-6.21,68.79-17.16l56.19,55.96,48.03-27.73-62.15-61.93c22.07-25.61,35.41-58.95,35.41-95.41,0-80.78-65.48-146.26-146.26-146.26ZM253.24,349.26c-51.19,0-92.69-41.5-92.69-92.69s41.5-92.69,92.69-92.69,92.69,41.5,92.69,92.69-41.5,92.69-92.69,92.69Z"/>
          </g>
        </g>
      </g>
    </g>
  </g>
</svg>