<?xml version="1.0" standalone="no"?>
<!DOCTYPE svg PUBLIC "-//W3C//DTD SVG 1.1//EN" "http://www.w3.org/Graphics/SVG/1.1/DTD/svg11.dtd" >
<svg xmlns="http://www.w3.org/2000/svg" xmlns:xlink="http://www.w3.org/1999/xlink" version="1.1">
<metadata>
Created by FontForge 20190801 at Mon Feb 12 01:06:58 2018
 By Jimmy Wärting
Copyright (c) 2018 by S-Core Co., Ltd.. All rights reserved.
</metadata>
<defs>
<font id="S-CoreDream-1Thin" horiz-adv-x="960" >
  <font-face 
    font-family="S-Core Dream 1 Thin"
    font-weight="100"
    font-stretch="normal"
    units-per-em="1000"
    panose-1="2 11 4 3 3 3 2 2 2 4"
    ascent="800"
    descent="-200"
    x-height="558"
    cap-height="778"
    bbox="-26 -253 1111 1012"
    underline-thickness="50"
    underline-position="-100"
    stemh="20"
    stemv="22"
    unicode-range="U+0020-FFE6"
  />
<missing-glyph horiz-adv-x="286" 
 />
    <glyph glyph-name=".notdef" horiz-adv-x="286" 
 />
    <glyph glyph-name="_1" unicode=" " horiz-adv-x="286" 
 />
    <glyph glyph-name="_2" unicode="!" horiz-adv-x="290" 
d="M158 778l-2 -537h-22l-2 537h26zM161 96v-88h-31v88h31z" />
    <glyph glyph-name="_3" unicode="&#x22;" horiz-adv-x="353" 
d="M128 558h-22v220h22v-220zM248 558h-22v220h22v-220z" />
    <glyph glyph-name="_4" unicode="#" horiz-adv-x="704" 
d="M554 778h23l-52 -243h135v-20h-140l-52 -244h155v-20h-160l-53 -243h-23l53 243h-238l-52 -243h-23l52 243h-135v20h140l53 244h-156v20h160l53 243h23l-53 -243h238zM260 515l-53 -244h237l53 244h-237z" />
    <glyph glyph-name="_5" unicode="$" horiz-adv-x="616" 
d="M313 874v-83c141 -5 219 -89 219 -195v-22h-22v22c0 99 -72 170 -197 175v-356l39 -8c147 -29 209 -100 209 -206c0 -111 -82 -206 -248 -206v-83h-22v84c-150 8 -225 99 -225 205v27h22v-27c0 -98 73 -178 203 -186v384l-43 8c-118 23 -182 86 -182 189
c0 107 79 192 225 195v83h22zM313 15c145 0 226 82 226 186c0 92 -55 159 -193 187l-33 6v-379zM88 596c0 -93 58 -148 165 -169l38 -8v352c-128 -3 -203 -73 -203 -175z" />
    <glyph glyph-name="_6" unicode="%" horiz-adv-x="843" 
d="M252 8l316 770h23l-316 -770h-23zM363 583c0 -148 -57 -208 -145 -208s-145 60 -145 208c0 149 57 208 145 208s145 -59 145 -208zM341 583c0 142 -51 188 -123 188c-73 0 -123 -46 -123 -188s50 -188 123 -188c72 0 123 46 123 188zM480 203c0 148 57 208 145 208
s145 -60 145 -208c0 -149 -57 -208 -145 -208s-145 59 -145 208zM502 203c0 -142 50 -188 123 -188c72 0 123 46 123 188s-51 188 -123 188c-73 0 -123 -46 -123 -188z" />
    <glyph glyph-name="_7" unicode="&#x26;" horiz-adv-x="689" 
d="M466 599v21c0 100 -63 151 -160 151s-161 -51 -161 -151c0 -54 16 -95 89 -168l310 -302c33 62 52 142 55 240h22c-3 -104 -23 -191 -60 -255l130 -127h-31l-111 108c-53 -78 -134 -121 -247 -121c-145 0 -236 83 -236 215c0 95 44 178 143 238c-70 69 -86 113 -86 172
c0 110 72 171 183 171s182 -61 182 -171v-21h-22zM302 16c105 0 182 40 231 115l-310 303c-93 -59 -135 -130 -135 -224c0 -118 86 -194 214 -194z" />
    <glyph glyph-name="_8" unicode="'" horiz-adv-x="233" 
d="M128 558h-22v220h22v-220z" />
    <glyph glyph-name="_9" unicode="(" horiz-adv-x="340" 
d="M106 389c0 424 57 498 207 498v-20c-136 0 -185 -72 -185 -478s49 -479 185 -479v-20c-150 0 -207 74 -207 499z" />
    <glyph glyph-name="_10" unicode=")" horiz-adv-x="340" 
d="M234 389c0 -425 -57 -499 -208 -499v20c137 0 186 73 186 479s-49 478 -186 478v20c151 0 208 -74 208 -498z" />
    <glyph glyph-name="_11" unicode="*" horiz-adv-x="495" 
d="M237 386v207h21v-207l180 104l11 -20l-180 -103l180 -104l-11 -20l-180 104v-207h-21v207l-180 -104l-11 20l178 104l-178 103l11 20z" />
    <glyph glyph-name="_12" unicode="+" horiz-adv-x="572" 
d="M66 357v20h209v216h22v-216h209v-20h-209v-217h-22v217h-209z" />
    <glyph glyph-name="_13" unicode="," horiz-adv-x="299" 
d="M91 -119v30c28 13 43 35 43 91v94h31v-92c0 -70 -25 -107 -74 -123z" />
    <glyph glyph-name="_14" unicode="-" horiz-adv-x="431" 
d="M66 356v22h299v-22h-299z" />
    <glyph glyph-name="_15" unicode="." horiz-adv-x="299" 
d="M165 96v-88h-31v88h31z" />
    <glyph glyph-name="_16" unicode="/" horiz-adv-x="376" 
d="M376 869l-352 -963h-24l352 963h24z" />
    <glyph glyph-name="_17" unicode="0" horiz-adv-x="598" 
d="M536 393c0 -179 -19 -265 -66 -324c-38 -48 -93 -74 -171 -74s-133 26 -170 74c-48 59 -66 145 -66 324s18 265 66 325c37 47 92 73 170 73s133 -26 171 -73c47 -60 66 -146 66 -325zM514 393c0 172 -21 260 -63 312c-32 40 -86 66 -152 66s-120 -26 -152 -66
c-41 -52 -62 -140 -62 -312s21 -260 62 -312c32 -40 86 -66 152 -66s120 26 152 66c42 52 63 140 63 312z" />
    <glyph glyph-name="_18" unicode="1" horiz-adv-x="598" 
d="M377 8h-22v746l-213 -96v24l213 96h22v-770z" />
    <glyph glyph-name="_19" unicode="2" horiz-adv-x="598" 
d="M518 570c0 -66 -19 -114 -78 -181l-318 -361h407v-20h-435v20l330 374c51 58 72 109 72 167c0 111 -68 202 -196 202c-127 0 -195 -91 -195 -202v-21h-23v22c0 118 74 221 218 221s218 -103 218 -221z" />
    <glyph glyph-name="_20" unicode="3" horiz-adv-x="598" 
d="M505 212c0 118 -70 196 -198 196h-73v20h79c117 0 169 85 169 172c0 99 -69 171 -185 171c-115 0 -185 -72 -185 -171v-19h-22v19c0 106 79 191 207 191s207 -85 207 -191c0 -94 -49 -165 -134 -182c91 -13 157 -86 157 -203c0 -134 -91 -220 -230 -220s-230 89 -230 231
v3h22v-3c0 -132 86 -211 208 -211s208 78 208 197z" />
    <glyph glyph-name="_21" unicode="4" horiz-adv-x="598" 
d="M94 219h320v519zM550 219v-20h-114v-191h-22v191h-345v20l345 559h22v-559h114z" />
    <glyph glyph-name="_22" unicode="5" horiz-adv-x="598" 
d="M84 206h22c14 -125 85 -191 199 -191c130 0 201 87 201 236c0 150 -71 237 -201 237c-79 0 -143 -43 -174 -128h-22l20 418h357v-20h-335l-18 -353c32 64 91 102 172 102c139 0 223 -93 223 -256s-84 -256 -223 -256c-131 0 -207 80 -221 211z" />
    <glyph glyph-name="_23" unicode="6" horiz-adv-x="598" 
d="M508 609h-24c-14 115 -89 162 -182 162c-56 0 -105 -19 -137 -60c-49 -64 -65 -175 -65 -347c28 86 102 143 206 143c140 0 227 -97 227 -256c0 -158 -87 -256 -227 -256c-77 0 -138 28 -177 83c-42 59 -52 128 -52 245c0 213 14 324 67 397c36 49 89 71 158 71
c113 0 192 -59 206 -182zM306 15c122 0 206 87 206 236c0 150 -84 237 -206 237s-206 -87 -206 -237c0 -149 84 -236 206 -236z" />
    <glyph glyph-name="_24" unicode="7" horiz-adv-x="598" 
d="M82 758v20h435v-20l-288 -750h-24l288 750h-411z" />
    <glyph glyph-name="_25" unicode="8" horiz-adv-x="598" 
d="M299 791c132 0 218 -77 218 -193c0 -92 -54 -161 -143 -184c101 -21 166 -96 166 -205c0 -136 -96 -214 -241 -214s-241 78 -241 214c0 109 65 184 166 205c-89 23 -143 92 -143 184c0 116 86 193 218 193zM299 424c115 0 196 67 196 174c0 106 -81 173 -196 173
c-114 0 -196 -67 -196 -173c0 -107 82 -174 196 -174zM299 15c128 0 219 70 219 194c0 125 -91 195 -219 195c-127 0 -219 -70 -219 -195c0 -124 92 -194 219 -194z" />
    <glyph glyph-name="_26" unicode="9" horiz-adv-x="598" 
d="M90 177h24c15 -115 90 -162 182 -162c56 0 106 19 137 60c50 64 65 175 65 347c-27 -86 -102 -143 -205 -143c-140 0 -228 98 -228 256s88 256 228 256c77 0 137 -28 177 -83c42 -59 51 -128 51 -245c0 -213 -14 -324 -67 -397c-36 -49 -89 -71 -158 -71
c-112 0 -191 59 -206 182zM293 771c-123 0 -206 -87 -206 -236c0 -150 83 -237 206 -237c122 0 205 87 205 237c0 149 -83 236 -205 236z" />
    <glyph glyph-name="_27" unicode=":" horiz-adv-x="299" 
d="M165 96v-88h-31v88h31zM165 558v-88h-31v88h31z" />
    <glyph glyph-name="_28" unicode=";" horiz-adv-x="299" 
d="M165 558v-88h-31v88h31zM91 -119v30c28 13 43 35 43 91v94h31v-92c0 -70 -25 -107 -74 -123z" />
    <glyph glyph-name="_29" unicode="&#x3c;" horiz-adv-x="572" 
d="M497 137l-422 219v22l422 218v-24l-397 -205l397 -206v-24z" />
    <glyph glyph-name="_30" unicode="=" horiz-adv-x="572" 
d="M66 456v20h440v-20h-440zM66 258v19h440v-19h-440z" />
    <glyph glyph-name="_31" unicode="&#x3e;" horiz-adv-x="572" 
d="M497 356l-422 -219v24l397 206l-397 205v24l422 -218v-22z" />
    <glyph glyph-name="_32" unicode="?" horiz-adv-x="565" 
d="M486 583c0 -80 -20 -126 -99 -191c-91 -75 -102 -105 -102 -163v-22h-22v22c0 70 16 100 109 178c70 60 92 105 92 176c0 108 -65 188 -185 188s-184 -80 -184 -188v-3h-22v3c0 115 68 208 206 208c139 0 207 -93 207 -208zM289 96v-88h-31v88h31z" />
    <glyph glyph-name="_33" unicode="@" horiz-adv-x="818" 
d="M512 525c100 0 161 -47 189 -129c-14 272 -93 375 -292 375c-225 0 -295 -129 -295 -476c0 -393 110 -475 295 -475c52 0 106 13 148 37l8 -21c-45 -23 -100 -36 -156 -36c-203 0 -317 94 -317 495c0 361 83 496 317 496s317 -135 317 -496v-24
c0 -158 -74 -254 -214 -254c-141 0 -215 96 -215 254s74 254 215 254zM512 37c123 0 192 82 192 234s-69 234 -192 234c-124 0 -193 -82 -193 -234s69 -234 193 -234z" />
    <glyph glyph-name="_34" unicode="A" horiz-adv-x="638" 
d="M37 8h-24l297 770h18l297 -770h-24l-82 211h-401zM512 239l-193 503l-194 -503h387z" />
    <glyph glyph-name="_35" unicode="B" horiz-adv-x="649" 
d="M114 413h245c136 0 195 65 195 172c0 108 -59 173 -195 173h-245v-345zM363 8h-271v770h271c144 0 213 -73 213 -191c0 -109 -55 -165 -134 -183c107 -18 156 -81 156 -194c0 -141 -81 -202 -235 -202zM576 210c0 113 -55 183 -218 183h-244v-365h244
c163 0 218 70 218 182z" />
    <glyph glyph-name="_36" unicode="C" horiz-adv-x="679" 
d="M66 393c0 141 23 251 82 319c47 53 113 79 198 79c164 0 261 -99 271 -259h-22c-11 144 -92 239 -249 239c-77 0 -139 -24 -181 -72c-59 -70 -77 -179 -77 -306s18 -237 77 -306c42 -48 104 -72 181 -72c157 0 238 95 249 239h22c-10 -160 -107 -259 -271 -259
c-85 0 -151 26 -198 79c-59 68 -82 178 -82 319z" />
    <glyph glyph-name="_37" unicode="D" horiz-adv-x="691" 
d="M344 758h-230v-730h230c77 0 141 24 182 72c58 70 77 180 77 293s-19 223 -77 293c-41 48 -105 72 -182 72zM92 8v770h252c86 0 152 -25 198 -78c61 -69 83 -179 83 -307s-22 -238 -83 -307c-46 -53 -112 -78 -198 -78h-252z" />
    <glyph glyph-name="_38" unicode="E" horiz-adv-x="563" 
d="M92 8v770h420v-20h-398v-345h358v-20h-358v-365h403v-20h-425z" />
    <glyph glyph-name="_39" unicode="F" horiz-adv-x="546" 
d="M92 8v770h414v-20h-392v-357h358v-20h-358v-373h-22z" />
    <glyph glyph-name="_40" unicode="G" horiz-adv-x="703" 
d="M66 393c0 141 23 251 82 319c47 53 113 79 198 79c164 0 261 -99 271 -259h-22c-11 144 -92 239 -249 239c-77 0 -139 -24 -181 -72c-59 -70 -77 -179 -77 -306s18 -237 77 -306c42 -48 104 -72 181 -72c76 0 137 23 182 72c38 43 71 122 71 211v64h-247v20h269v-374h-22
v184c-6 -41 -20 -79 -53 -117c-49 -55 -114 -80 -200 -80c-85 0 -151 26 -198 79c-59 68 -82 178 -82 319z" />
    <glyph glyph-name="_41" unicode="H" horiz-adv-x="682" 
d="M568 8v385h-454v-385h-22v770h22v-365h454v365h22v-770h-22z" />
    <glyph glyph-name="_42" unicode="I" horiz-adv-x="207" 
d="M114 778v-770h-22v770h22z" />
    <glyph glyph-name="_43" unicode="J" horiz-adv-x="552" 
d="M249 -5c-147 0 -216 97 -216 247h22v-1c0 -137 64 -226 194 -226c129 0 193 89 193 226v537h22v-535c0 -151 -69 -248 -215 -248z" />
    <glyph glyph-name="_44" unicode="K" horiz-adv-x="588" 
d="M554 778l-301 -375l335 -395h-28l-327 385h-119v-385h-22v770h22v-365h119l293 365h28z" />
    <glyph glyph-name="_45" unicode="L" horiz-adv-x="533" 
d="M92 8v770h22v-750h403v-20h-425z" />
    <glyph glyph-name="_46" unicode="M" horiz-adv-x="913" 
d="M469 8h-25l-330 719v-719h-22v770h22l343 -747l342 747h22v-770h-22v719z" />
    <glyph glyph-name="_47" unicode="N" horiz-adv-x="693" 
d="M601 8h-22l-465 732v-732h-22v770h22l465 -732v732h22v-770z" />
    <glyph glyph-name="_48" unicode="O" horiz-adv-x="693" 
d="M605 393c0 127 -18 236 -77 306c-42 48 -104 72 -182 72c-77 0 -139 -24 -181 -72c-59 -70 -77 -179 -77 -306s18 -237 77 -306c42 -48 104 -72 181 -72c78 0 140 24 182 72c59 69 77 179 77 306zM66 393c0 141 23 251 82 319c47 53 113 79 198 79c86 0 152 -26 198 -79
c60 -68 83 -178 83 -319s-23 -251 -83 -319c-46 -53 -112 -79 -198 -79c-85 0 -151 26 -198 79c-59 68 -82 178 -82 319z" />
    <glyph glyph-name="_49" unicode="P" horiz-adv-x="637" 
d="M114 338h250c140 0 212 80 212 210s-72 210 -212 210h-250v-420zM361 318h-247v-310h-22v770h269c161 0 237 -92 237 -230c0 -137 -76 -230 -237 -230z" />
    <glyph glyph-name="_50" unicode="Q" horiz-adv-x="687" 
d="M66 393c0 141 23 251 82 319c47 53 113 79 198 79c86 0 152 -26 198 -79c60 -68 83 -178 83 -319c0 -130 -20 -233 -69 -301l107 -92l-14 -17l-107 91c-46 -53 -112 -79 -198 -79c-85 0 -151 26 -198 79c-59 68 -82 178 -82 319zM387 208l15 17l139 -120
c49 70 64 171 64 288c0 127 -18 236 -77 306c-42 48 -104 72 -182 72c-77 0 -139 -24 -181 -72c-59 -70 -77 -179 -77 -306s18 -237 77 -306c42 -48 104 -72 181 -72c78 0 140 24 182 72z" />
    <glyph glyph-name="_51" unicode="R" horiz-adv-x="662" 
d="M603 8h-22c-7 18 -12 41 -13 70l-7 110c-7 104 -64 152 -194 152h-253v-332h-22v770h273c162 0 233 -87 233 -219c0 -108 -46 -185 -151 -209c84 -15 129 -59 136 -162l7 -110c2 -29 6 -52 13 -70zM114 360h255c139 0 207 75 207 199s-68 199 -207 199h-255v-398z" />
    <glyph glyph-name="_52" unicode="S" horiz-adv-x="616" 
d="M313 15c145 0 226 82 226 186c0 92 -55 159 -193 187l-98 19c-118 23 -182 86 -182 189c0 109 82 195 233 195s233 -84 233 -195v-22h-22v22c0 104 -78 175 -211 175s-211 -71 -211 -175c0 -93 58 -148 165 -169l99 -20c147 -29 209 -100 209 -206
c0 -111 -82 -206 -248 -206c-165 0 -247 95 -247 206v27h22v-27c0 -104 81 -186 225 -186z" />
    <glyph glyph-name="_53" unicode="T" horiz-adv-x="550" 
d="M20 758v20h510v-20h-244v-750h-22v750h-244z" />
    <glyph glyph-name="_54" unicode="U" horiz-adv-x="702" 
d="M351 15c177 0 243 105 243 279v484h22v-486c0 -177 -74 -297 -265 -297c-192 0 -265 120 -265 297v486h22v-484c0 -174 66 -279 243 -279z" />
    <glyph glyph-name="_55" unicode="V" horiz-adv-x="638" 
d="M37 778l282 -734l282 734h24l-297 -770h-18l-297 770h24z" />
    <glyph glyph-name="_56" unicode="W" horiz-adv-x="1005" 
d="M493 778h20l233 -732l215 732h25l-228 -770h-22l-233 732l-234 -732h-21l-228 770h24l216 -732z" />
    <glyph glyph-name="_57" unicode="X" horiz-adv-x="628" 
d="M591 778l-263 -377l274 -393h-28l-261 373l-259 -373h-28l274 393l-263 377h28l248 -357l250 357h28z" />
    <glyph glyph-name="_58" unicode="Y" horiz-adv-x="629" 
d="M315 331l269 447h25l-283 -466v-304h-22v304l-284 466h25z" />
    <glyph glyph-name="_59" unicode="Z" horiz-adv-x="570" 
d="M53 28l434 730h-423v20h448v-20l-435 -730h440v-20h-464v20z" />
    <glyph glyph-name="_60" unicode="[" horiz-adv-x="359" 
d="M106 -94v963h200v-19h-178v-925h178v-19h-200z" />
    <glyph glyph-name="_61" unicode="\" 
d="M470 778l-102 -367h-194l-93 367h-24l94 -367h-129v-20h135l98 -383h21l107 383h194l106 -383h22l98 383h135v20h-129l94 367h-25l-93 -367h-193l-102 367h-20zM597 391h183l-87 -345zM571 411h-183l92 328zM179 391h184l-96 -345z" />
    <glyph glyph-name="_62" unicode="]" horiz-adv-x="359" 
d="M253 869v-963h-200v19h178v925h-178v19h200z" />
    <glyph glyph-name="_63" unicode="^" horiz-adv-x="440" 
d="M220 758l-167 -235h-27l183 255h22l183 -255h-27z" />
    <glyph glyph-name="_64" unicode="_" horiz-adv-x="550" 
d="M0 -152v20h550v-20h-550z" />
    <glyph glyph-name="_65" unicode="`" horiz-adv-x="350" 
d="M223 634l-121 177h25l121 -177h-25z" />
    <glyph glyph-name="_66" unicode="a" horiz-adv-x="557" 
d="M464 170c0 93 -64 155 -196 155s-195 -62 -195 -155c0 -94 63 -155 195 -155s196 61 196 155zM486 374v-290c0 -29 6 -55 16 -76h-23c-9 16 -15 44 -15 66v14c-26 -58 -92 -93 -198 -93c-142 0 -215 69 -215 175c0 105 73 175 215 175c106 0 172 -36 198 -94v127
c0 103 -64 173 -184 173c-118 0 -173 -58 -182 -146h-22c10 98 72 166 204 166c134 0 206 -78 206 -197z" />
    <glyph glyph-name="_67" unicode="b" horiz-adv-x="583" 
d="M528 283c0 -179 -69 -288 -224 -288c-106 0 -175 51 -203 144v-131h-22v770h22v-351c28 93 97 144 203 144c155 0 224 -109 224 -288zM506 283c0 173 -63 268 -202 268c-140 0 -203 -95 -203 -268s63 -268 203 -268c139 0 202 95 202 268z" />
    <glyph glyph-name="_68" unicode="c" horiz-adv-x="549" 
d="M55 283c0 179 69 288 224 288c127 0 200 -69 215 -183h-22c-15 102 -79 163 -193 163c-139 0 -202 -95 -202 -268s63 -268 202 -268c114 0 178 61 193 163h22c-15 -114 -88 -183 -215 -183c-155 0 -224 109 -224 288z" />
    <glyph glyph-name="_69" unicode="d" horiz-adv-x="583" 
d="M55 283c0 179 69 288 224 288c106 0 175 -51 203 -144v351h22v-770h-22v131c-28 -93 -97 -144 -203 -144c-155 0 -224 109 -224 288zM482 283c0 173 -63 268 -203 268c-139 0 -202 -95 -202 -268s63 -268 202 -268c140 0 203 95 203 268z" />
    <glyph glyph-name="_70" unicode="e" horiz-adv-x="559" 
d="M470 164h22c-19 -104 -92 -169 -213 -169c-155 0 -224 109 -224 288s69 288 224 288c156 0 225 -109 225 -288v-2h-427c0 -170 63 -266 202 -266c107 0 171 55 191 149zM279 551c-135 0 -199 -91 -202 -250h405c-5 159 -68 250 -203 250z" />
    <glyph glyph-name="_71" unicode="f" horiz-adv-x="346" 
d="M320 766h-47c-99 0 -126 -30 -126 -130v-78h173v-20h-173v-530h-22v530h-85v20h85v82c0 111 37 146 149 146c15 0 31 0 46 -1v-19z" />
    <glyph glyph-name="_72" unicode="g" horiz-adv-x="583" 
d="M482 283c0 173 -63 268 -203 268c-139 0 -202 -95 -202 -268s63 -268 202 -268c140 0 203 95 203 268zM91 -89h22c12 -83 78 -138 182 -138c119 0 187 73 187 195v171c-28 -93 -97 -144 -203 -144c-155 0 -224 109 -224 288s69 288 224 288c106 0 175 -51 203 -144v131
h22v-590c0 -128 -69 -215 -209 -215c-123 0 -192 67 -204 158z" />
    <glyph glyph-name="_73" unicode="h" horiz-adv-x="582" 
d="M101 8h-22v770h22v-376c30 108 109 169 216 169c121 0 189 -83 189 -226v-337h-22v337c0 133 -59 206 -169 206c-120 0 -209 -96 -214 -264v-279z" />
    <glyph glyph-name="_74" unicode="i" horiz-adv-x="191" 
d="M107 8h-22v550h22v-550zM107 690h-22v88h22v-88z" />
    <glyph glyph-name="_75" unicode="j" horiz-adv-x="191" 
d="M107 558v-679c0 -83 -44 -111 -110 -111c-9 0 -17 0 -23 1v19h22c57 0 89 27 89 96v674h22zM107 690h-22v88h22v-88z" />
    <glyph glyph-name="_76" unicode="k" horiz-adv-x="472" 
d="M101 8h-22v770h22v-473h87l225 253h27l-232 -263l257 -287h-28l-249 277h-87v-277z" />
    <glyph glyph-name="_77" unicode="l" horiz-adv-x="191" 
d="M107 8h-22v770h22v-770z" />
    <glyph glyph-name="_78" unicode="m" horiz-adv-x="904" 
d="M805 8v369c0 115 -55 174 -154 174c-104 0 -187 -100 -187 -280v-263h-22v369c0 115 -55 174 -154 174c-104 0 -187 -100 -187 -280v-263h-22v550h22v-158c27 107 94 171 189 171c103 0 168 -57 174 -171c23 106 95 171 189 171c110 0 174 -66 174 -189v-374h-22z" />
    <glyph glyph-name="_79" unicode="n" horiz-adv-x="583" 
d="M101 8h-22v550h22v-156c30 108 109 169 216 169c121 0 189 -83 189 -226v-337h-22v337c0 133 -59 206 -169 206c-120 0 -209 -96 -214 -264v-279z" />
    <glyph glyph-name="_80" unicode="o" horiz-adv-x="559" 
d="M504 283c0 -179 -69 -288 -225 -288c-155 0 -224 109 -224 288s69 288 224 288c156 0 225 -109 225 -288zM482 283c0 173 -63 268 -203 268c-139 0 -202 -95 -202 -268s63 -268 202 -268c140 0 203 95 203 268z" />
    <glyph glyph-name="_81" unicode="p" horiz-adv-x="583" 
d="M528 283c0 -179 -69 -288 -224 -288c-106 0 -175 51 -203 144v-371h-22v790h22v-131c28 93 97 144 203 144c155 0 224 -109 224 -288zM506 283c0 173 -63 268 -202 268c-140 0 -203 -95 -203 -268s63 -268 203 -268c139 0 202 95 202 268z" />
    <glyph glyph-name="_82" unicode="q" horiz-adv-x="583" 
d="M55 283c0 179 69 288 224 288c106 0 175 -51 203 -144v131h22v-790h-22v371c-28 -93 -97 -144 -203 -144c-155 0 -224 109 -224 288zM482 283c0 173 -63 268 -203 268c-139 0 -202 -95 -202 -268s63 -268 202 -268c140 0 203 95 203 268z" />
    <glyph glyph-name="_83" unicode="r" horiz-adv-x="333" 
d="M277 550c-109 0 -176 -80 -176 -267v-275h-22v550h22v-146c20 109 85 159 175 159c15 0 30 -1 37 -3v-21c-8 2 -23 3 -36 3z" />
    <glyph glyph-name="_84" unicode="s" horiz-adv-x="503" 
d="M432 430v-23h-22v23c0 70 -60 121 -165 121c-104 0 -165 -51 -165 -122c0 -70 40 -102 141 -122l86 -16c107 -20 146 -65 146 -143c0 -94 -83 -153 -199 -153c-115 0 -199 59 -199 153v21h22v-21c0 -83 75 -133 177 -133s177 50 177 133c0 70 -34 105 -134 124l-86 16
c-109 21 -153 63 -153 142c0 77 66 141 187 141s187 -64 187 -141z" />
    <glyph glyph-name="_85" unicode="t" horiz-adv-x="358" 
d="M136 538v-391c0 -102 49 -127 131 -127h53v-19c-20 -1 -36 -1 -52 -1c-103 0 -154 36 -154 149v389h-85v20h85v156h22v-156h184v-20h-184z" />
    <glyph glyph-name="_86" unicode="u" horiz-adv-x="583" 
d="M99 558v-337c0 -133 59 -206 169 -206c120 0 209 95 214 264v279h22v-550h-22v156c-30 -108 -109 -169 -216 -169c-121 0 -189 83 -189 226v337h22z" />
    <glyph glyph-name="_87" unicode="v" horiz-adv-x="532" 
d="M255 8l-231 550h26l216 -520l217 520h25l-231 -550h-22z" />
    <glyph glyph-name="_88" unicode="w" horiz-adv-x="851" 
d="M415 558h22l186 -518l183 518h26l-198 -550h-22l-186 518l-186 -518h-22l-198 550h25l184 -518z" />
    <glyph glyph-name="_89" unicode="x" horiz-adv-x="488" 
d="M449 8l-205 263l-204 -263h-29l219 282l-208 268h29l193 -250l194 250h28l-208 -268l219 -282h-28z" />
    <glyph glyph-name="_90" unicode="y" horiz-adv-x="532" 
d="M196 -136l58 143l-230 551h26l216 -524l217 524h25l-292 -700c-33 -78 -62 -90 -122 -90c-9 0 -9 0 -16 1v19h14c52 0 78 13 104 76z" />
    <glyph glyph-name="_91" unicode="z" horiz-adv-x="477" 
d="M421 558v-20l-347 -510h355v-20h-381v20l348 510h-339v20h364z" />
    <glyph glyph-name="_92" unicode="{" horiz-adv-x="363" 
d="M53 378v19h20c44 0 68 27 68 73v223c0 129 53 176 149 176h20v-19h-19c-82 0 -128 -36 -128 -156v-223c0 -47 -20 -74 -54 -83c34 -10 54 -37 54 -84v-223c0 -120 46 -156 128 -156h19v-19h-20c-96 0 -149 47 -149 176v223c0 46 -24 73 -68 73h-20z" />
    <glyph glyph-name="_93" unicode="|" horiz-adv-x="286" 
d="M132 -94v963h22v-963h-22z" />
    <glyph glyph-name="_94" unicode="}" horiz-adv-x="363" 
d="M310 397v-19h-20c-44 0 -68 -27 -68 -73v-223c0 -129 -53 -176 -149 -176h-20v19h18c83 0 129 36 129 156v223c0 47 20 74 54 84c-34 9 -54 36 -54 83v223c0 120 -46 156 -129 156h-18v19h20c96 0 149 -47 149 -176v-223c0 -46 24 -73 68 -73h20z" />
    <glyph glyph-name="_95" unicode="~" horiz-adv-x="572" 
d="M384 283c-124 0 -91 149 -197 149c-52 0 -84 -46 -84 -142h-22c0 110 41 161 106 161c124 0 91 -148 197 -148c52 0 84 45 84 142h22c0 -110 -41 -162 -106 -162z" />
    <glyph glyph-name="_101" unicode="&#x3000;" 
 />
    <glyph glyph-name="_101" unicode="&#x3164;" 
 />
    <glyph glyph-name="_106" unicode="&#x2026;" 
d="M495 467h-31v-88h31v88zM205 467h-31v-88h31v88zM785 467h-31v-88h31v88z" />
    <glyph glyph-name="_107" unicode="&#xa8;" horiz-adv-x="600" 
d="M205 779h-31v-88h31v88zM425 779h-31v-88h31v88z" />
    <glyph glyph-name="_108" unicode="&#x3003;" 
d="M426 653l-168 -462l16 -6l173 461zM680 631l-168 -462l17 -5l173 461z" />
    <glyph glyph-name="_112" unicode="&#xff3c;" 
d="M919 1l-866 802l-13 -14l864 -804z" />
    <glyph glyph-name="_114" unicode="&#x2018;" horiz-adv-x="290" 
d="M208 862c-49 -16 -74 -53 -74 -122v-93h31v94c0 56 15 78 43 91v30z" />
    <glyph glyph-name="_115" unicode="&#x2019;" horiz-adv-x="290" 
d="M86 647c49 15 74 53 74 122v93h-31v-94c0 -56 -15 -78 -43 -91v-30z" />
    <glyph glyph-name="_116" unicode="&#x201c;" horiz-adv-x="413" 
d="M208 862c-49 -16 -74 -53 -74 -122v-93h31v94c0 56 15 78 43 91v30zM321 862c-48 -16 -73 -53 -73 -122v-93h30v94c0 56 16 78 43 91v30z" />
    <glyph glyph-name="_117" unicode="&#x201d;" horiz-adv-x="413" 
d="M91 647c49 15 74 53 74 122v93h-31v-94c0 -56 -15 -78 -43 -91v-30zM205 647c48 15 73 53 73 122v93h-30v-94c0 -56 -16 -78 -43 -91v-30z" />
    <glyph glyph-name="_130" unicode="&#xb1;" horiz-adv-x="572" 
d="M66 440h209v-217h22v217h209v20h-209v216h-22v-216h-209v-20zM66 58h440v20h-440v-20z" />
    <glyph glyph-name="_131" unicode="&#xd7;" horiz-adv-x="572" 
d="M462 175l15 16l-176 176l176 176l-15 15l-176 -176l-176 176l-15 -15l176 -176l-176 -176l15 -16l176 176z" />
    <glyph glyph-name="_132" unicode="&#xf7;" horiz-adv-x="572" 
d="M66 357h440v20h-440v-20zM299 593h-26v-88h26v88zM299 228h-26v-88h26v88z" />
    <glyph glyph-name="_133" unicode="&#x2260;" horiz-adv-x="572" 
d="M66 456h262l-107 -179h-155v-19h144l-98 -165h22l98 165h274v19h-262l106 179h156v20h-144l98 164h-22l-99 -164h-273v-20z" />
    <glyph glyph-name="_134" unicode="&#x2264;" horiz-adv-x="572" 
d="M497 220v24l-397 206l397 205v24l-422 -218v-22zM66 58h440v20h-440v-20z" />
    <glyph glyph-name="_135" unicode="&#x2265;" horiz-adv-x="572" 
d="M497 439v22l-422 218v-24l397 -205l-397 -206v-24zM506 78h-440v-20h440v20z" />
    <glyph glyph-name="_136" unicode="&#x221e;" 
d="M469 372c-46 -111 -108 -146 -180 -146c-73 0 -149 45 -149 146s76 146 149 146c72 0 134 -35 180 -146zM480 350c40 -99 111 -144 191 -144c100 0 171 64 171 166s-71 166 -171 166c-80 0 -151 -45 -191 -144c-39 99 -111 144 -191 144c-99 0 -171 -64 -171 -166
s72 -166 171 -166c80 0 152 45 191 144zM491 372c46 111 108 146 180 146c73 0 149 -45 149 -146s-76 -146 -149 -146c-72 0 -134 35 -180 146z" />
    <glyph glyph-name="_137" unicode="&#x2234;" 
d="M495 677h-31v-88h31v88zM245 217h-31v-88h31v88zM745 217h-31v-88h31v88z" />
    <glyph glyph-name="_138" unicode="&#xb0;" horiz-adv-x="398" 
d="M345 638c0 86 -56 149 -146 149s-146 -63 -146 -149s56 -148 146 -148s146 62 146 148zM323 638c0 -79 -55 -128 -124 -128s-124 49 -124 128c0 80 55 129 124 129s124 -49 124 -129z" />
    <glyph glyph-name="_139" unicode="&#x2032;" horiz-adv-x="165" 
d="M38 534h24l65 244h-24z" />
    <glyph glyph-name="_140" unicode="&#x2033;" horiz-adv-x="295" 
d="M38 534h24l65 244h-24zM168 534h23l65 244h-23z" />
    <glyph glyph-name="_141" unicode="&#x2103;" 
d="M67 648c0 68 51 119 119 119s119 -51 119 -119s-51 -119 -119 -119s-119 51 -119 119zM45 648c0 -76 59 -139 141 -139s141 63 141 139s-59 139 -141 139s-141 -63 -141 -139zM366 393c0 -140 24 -263 96 -334c42 -41 100 -64 179 -64c164 0 256 99 266 259h-22
c-11 -144 -87 -239 -244 -239c-73 0 -127 22 -165 60c-68 68 -88 186 -88 318c0 130 19 249 87 317c38 38 92 61 166 61c157 0 233 -95 244 -239h22c-10 160 -102 259 -266 259c-80 0 -138 -24 -180 -65c-72 -71 -95 -193 -95 -333z" />
    <glyph glyph-name="_142" unicode="&#x212b;" 
d="M198 8l81 211h401l82 -211h24l-290 751c66 7 115 55 115 118c0 68 -57 119 -131 119s-131 -51 -131 -119c0 -63 49 -111 115 -118l-290 -751h24zM673 239h-387l194 503zM371 877c0 60 49 99 109 99s109 -39 109 -99s-49 -99 -109 -99s-109 39 -109 99z" />
    <glyph glyph-name="_143" unicode="&#xffe0;" 
d="M260 283c0 -174 65 -281 209 -288v-85h22v85c122 2 193 71 208 183h-22c-15 -100 -77 -161 -186 -163v536c109 -2 171 -63 186 -163h22c-15 112 -86 181 -208 183v85h-22v-85c-144 -8 -209 -115 -209 -288zM282 283c0 166 58 261 187 267v-535c-129 6 -187 102 -187 268z
" />
    <glyph glyph-name="_144" unicode="&#xffe1;" 
d="M257 350h62c8 -34 15 -69 15 -110c0 -93 -26 -155 -74 -212v-20h443v20h-418c42 49 71 116 71 212c0 41 -7 76 -14 110h241v20h-247c-15 56 -32 114 -32 199c0 120 60 202 184 202s184 -82 184 -202v-10h22v11c0 121 -62 221 -206 221s-206 -100 -206 -221
c0 -87 18 -144 32 -200h-57v-20z" />
    <glyph glyph-name="_145" unicode="&#xffe5;" 
d="M480 364l-270 414h-25l259 -397h-163v-20h177l11 -16v-65h-188v-20h188v-252h22v252h188v20h-188v65l11 16h177v20h-164l259 397h-25z" />
    <glyph glyph-name="_146" unicode="&#x2642;" 
d="M214 512l19 -12l236 321v-408c-126 -5 -224 -110 -224 -235c0 -130 103 -237 235 -237c131 0 237 107 237 237c0 124 -100 230 -226 235v408l237 -321l18 12l-266 359zM267 177c0 119 94 214 213 214s215 -95 215 -214s-96 -214 -215 -214s-213 95 -213 214z" />
    <glyph glyph-name="_147" unicode="&#x2640;" 
d="M206 559c0 -147 117 -267 263 -272v-140h-157v-22h157v-170h22v170h157v22h-157v140c145 5 263 125 263 272c0 149 -123 271 -274 271s-274 -122 -274 -271zM228 559c0 137 112 249 250 249c137 0 249 -112 249 -249c0 -138 -112 -250 -249 -250
c-138 0 -250 112 -250 250z" />
    <glyph glyph-name="_148" unicode="&#x2220;" 
d="M779 710l-15 14l-658 -639v-4h747v20h-701z" />
    <glyph glyph-name="_149" unicode="&#x22a5;" 
d="M491 95v653h-23v-653h-354v-20h731v20h-354z" />
    <glyph glyph-name="_150" unicode="&#x2312;" 
d="M34 650l13 -14c116 114 260 186 433 186s318 -72 433 -186l13 14c-117 119 -261 194 -446 194s-329 -75 -446 -194z" />
    <glyph glyph-name="_151" unicode="&#x2202;" 
d="M494 507c-149 0 -252 -113 -252 -292c0 -137 78 -220 206 -220c115 0 195 65 230 161c17 47 23 97 30 167c6 74 10 138 10 191c0 195 -69 277 -197 277c-114 0 -191 -70 -220 -182h23c33 107 99 162 194 162c115 0 177 -71 177 -262c0 -42 -3 -91 -7 -145
c-20 86 -90 143 -194 143zM449 15c-112 0 -184 73 -184 203c0 170 96 270 228 270c114 0 186 -75 186 -204c0 -167 -98 -269 -230 -269z" />
    <glyph glyph-name="_152" unicode="&#x2207;" 
d="M174 778l297 -770h18l297 770h-612zM206 758h548l-274 -714z" />
    <glyph glyph-name="_153" unicode="&#x2261;" horiz-adv-x="572" 
d="M66 357h440v20h-440v-20zM66 522h440v19h-440v-19zM66 192h440v20h-440v-20z" />
    <glyph glyph-name="_154" unicode="&#x2252;" horiz-adv-x="572" 
d="M66 446h440v20h-440v-20zM66 268h440v19h-440v-19zM183 688h-31v-88h31v88zM421 132h-31v-88h31v88z" />
    <glyph glyph-name="_155" unicode="&#xa7;" 
d="M277 356c0 -90 44 -139 163 -171l57 -15c113 -31 153 -80 153 -154c0 -82 -65 -132 -165 -132s-165 50 -165 131v12h-22v-12c0 -88 65 -151 187 -151s187 63 187 151c0 70 -30 118 -99 150c73 30 110 84 110 153c0 91 -44 139 -163 171l-57 15c-113 31 -153 81 -153 154
c0 82 65 133 165 133s165 -51 165 -132v-12h22v12c0 88 -65 152 -187 152s-187 -64 -187 -152c0 -70 29 -118 99 -150c-73 -30 -110 -85 -110 -153zM456 485l57 -16c106 -28 148 -70 148 -151c0 -62 -37 -114 -113 -143c-14 5 -29 10 -44 15l-58 15
c-105 29 -147 71 -147 151c0 61 37 113 112 143c15 -6 29 -10 45 -14z" />
    <glyph glyph-name="_156" unicode="&#x203b;" 
d="M819 725l-15 16l-326 -325l-321 324l-15 -16l321 -323l-325 -325l15 -15l325 324l327 -328l15 15l-327 328zM515 714c0 19 -14 35 -35 35s-35 -16 -35 -35s14 -35 35 -35s35 16 35 35zM830 397c0 19 -14 35 -35 35s-35 -16 -35 -35s14 -35 35 -35s35 16 35 35zM200 397
c0 19 -14 35 -35 35s-35 -16 -35 -35s14 -35 35 -35s35 16 35 35zM515 84c0 19 -14 35 -35 35s-35 -16 -35 -35s14 -35 35 -35s35 16 35 35z" />
    <glyph glyph-name="_157" unicode="&#x2606;" 
d="M366 538h-329l-1 -7l260 -204l-119 -351l7 -5l296 233l295 -233l5 5l-120 355l264 200l-1 7h-329l-112 322h-4zM381 518l99 290l101 -290l301 3l-246 -183l113 -323l-269 212l-268 -208l106 315l-241 186z" />
    <glyph glyph-name="_158" unicode="&#x2605;" 
d="M366 538h-329l-1 -7l260 -204l-119 -351l7 -5l296 233l295 -233l5 5l-120 355l264 200l-1 7h-329l-112 322h-4z" />
    <glyph glyph-name="_159" unicode="&#x25cb;" 
d="M908 392c0 236 -192 428 -428 428c-237 0 -428 -191 -428 -428c0 -238 189 -429 428 -429c237 0 428 191 428 429zM73 392c0 225 180 408 407 408c226 0 407 -183 407 -408c0 -227 -181 -409 -407 -409c-227 0 -407 182 -407 409z" />
    <glyph glyph-name="_160" unicode="&#x25cf;" 
d="M908 392c0 236 -192 428 -428 428c-237 0 -428 -191 -428 -428c0 -238 189 -429 428 -429c237 0 428 191 428 429z" />
    <glyph glyph-name="_161" unicode="&#x25ce;" 
d="M908 392c0 236 -192 428 -428 428c-237 0 -428 -191 -428 -428c0 -238 189 -429 428 -429c237 0 428 191 428 429zM73 392c0 225 180 408 407 408c226 0 407 -183 407 -408c0 -227 -181 -409 -407 -409c-227 0 -407 182 -407 409zM199 395c0 157 123 292 281 292
s281 -135 281 -292c0 -156 -123 -292 -281 -292s-281 136 -281 292zM178 395c0 -171 133 -312 302 -312s302 141 302 312c0 172 -133 312 -302 312s-302 -140 -302 -312z" />
    <glyph glyph-name="_162" unicode="&#x25c7;" 
d="M480 861l-459 -469l459 -468l459 468zM480 832l428 -440l-428 -438l-428 438z" />
    <glyph glyph-name="_163" unicode="&#x25c6;" 
d="M480 861l-459 -469l459 -468l459 468z" />
    <glyph glyph-name="_164" unicode="&#x25a1;" 
d="M849 28v730h-739v-730h739zM132 48v690h695v-690h-695z" />
    <glyph glyph-name="_165" unicode="&#x25a0;" 
d="M849 28v730h-739v-730h739z" />
    <glyph glyph-name="_166" unicode="&#x25b3;" 
d="M480 807l-442 -762h884zM480 768l406 -703h-813z" />
    <glyph glyph-name="_167" unicode="&#x25b2;" 
d="M480 807l-442 -762h884z" />
    <glyph glyph-name="_168" unicode="&#x25bd;" 
d="M922 757h-884l442 -762zM73 737h813l-406 -703z" />
    <glyph glyph-name="_169" unicode="&#x25bc;" 
d="M922 757h-884l442 -762z" />
    <glyph glyph-name="_170" unicode="&#x2192;" 
d="M47 362h756v-69l110 80l-110 81v-70h-756v-22z" />
    <glyph glyph-name="_171" unicode="&#x2190;" 
d="M913 384h-756v70l-110 -81l110 -80v69h756v22z" />
    <glyph glyph-name="_172" unicode="&#x2191;" 
d="M491 -34v757h69l-80 110l-80 -110h69v-757h22z" />
    <glyph glyph-name="_173" unicode="&#x2193;" 
d="M469 833v-757h-69l80 -110l80 110h-69v757h-22z" />
    <glyph glyph-name="_174" unicode="&#x2194;" 
d="M157 454l-110 -81l110 -80v69h646v-69l110 80l-110 81v-70h-646v70z" />
    <glyph glyph-name="_178" unicode="&#x221a;" 
d="M601 813h290v20h-307l-296 -919l-212 384h-23l227 -411h22z" />
    <glyph glyph-name="_179" unicode="&#x223d;" 
d="M471 378c-42 -96 -110 -152 -182 -152c-73 0 -149 45 -149 146s76 146 149 146c32 0 62 -7 90 -25l11 17c-30 19 -65 28 -101 28c-99 0 -171 -64 -171 -166s72 -166 171 -166c80 0 157 59 201 162c40 94 109 150 181 150c73 0 149 -45 149 -146s-76 -146 -149 -146
c-37 0 -71 9 -102 33l-11 -16c33 -25 72 -37 113 -37c100 0 171 64 171 166s-71 166 -171 166c-80 0 -156 -60 -200 -160z" />
    <glyph glyph-name="_180" unicode="&#x221d;" 
d="M469 372c-46 -111 -108 -146 -180 -146c-73 0 -149 45 -149 146s76 146 149 146c72 0 134 -35 180 -146zM770 258c-28 -22 -64 -32 -99 -32c-72 0 -134 35 -180 146c46 111 108 146 180 146c32 0 64 -8 90 -26l11 18c-28 18 -62 28 -101 28c-80 0 -151 -45 -191 -144
c-39 99 -111 144 -191 144c-99 0 -171 -64 -171 -166s72 -166 171 -166c80 0 152 45 191 144c40 -99 111 -144 191 -144c44 0 82 13 111 35z" />
    <glyph glyph-name="_181" unicode="&#x2235;" 
d="M495 217h-31v-88h31v88zM245 677h-31v-88h31v88zM745 677h-31v-88h31v88z" />
    <glyph glyph-name="_182" unicode="&#x222b;" 
d="M296 -92v-18c15 -1 30 -1 46 -1c112 0 148 34 148 144v682c0 100 27 130 126 130h47v19c-15 1 -31 1 -46 1c-112 0 -149 -35 -149 -145v-682c0 -100 -26 -130 -125 -130h-47z" />
    <glyph glyph-name="_183" unicode="&#x222c;" 
d="M146 -92v-18c15 -1 30 -1 46 -1c112 0 148 34 148 144v682c0 100 27 130 126 130h47v19c-15 1 -31 1 -46 1c-112 0 -149 -35 -149 -145v-682c0 -100 -26 -130 -125 -130h-47zM446 -92v-18c15 -1 30 -1 46 -1c112 0 148 34 148 144v682c0 100 27 130 126 130h47v19
c-15 1 -31 1 -46 1c-112 0 -149 -35 -149 -145v-682c0 -100 -26 -130 -125 -130h-47z" />
    <glyph glyph-name="_184" unicode="&#x2208;" 
d="M110 388c0 -187 137 -288 386 -288h333v20h-335c-232 0 -356 92 -361 257h696v20h-696c4 166 128 259 361 259h335v20h-333c-249 0 -386 -100 -386 -288z" />
    <glyph glyph-name="_185" unicode="&#x220b;" 
d="M849 388c0 188 -137 288 -386 288h-333v-20h335c233 0 357 -93 361 -259h-696v-20h696c-5 -165 -129 -257 -361 -257h-335v-20h333c249 0 386 101 386 288z" />
    <glyph glyph-name="_186" unicode="&#x2286;" 
d="M130 28v-20h702v20h-702zM107 498c0 -167 117 -248 346 -248h373v20h-375c-217 0 -321 76 -321 228s104 228 321 228h375v20h-373c-229 0 -346 -80 -346 -248z" />
    <glyph glyph-name="_187" unicode="&#x2287;" 
d="M829 28h-702v-20h702v20zM852 498c0 168 -117 248 -346 248h-373v-20h375c217 0 321 -76 321 -228s-104 -228 -321 -228h-375v-20h373c229 0 346 81 346 248z" />
    <glyph glyph-name="_188" unicode="&#x2282;" 
d="M110 388c0 -187 137 -288 386 -288h333v20h-335c-237 0 -361 96 -361 268s124 268 361 268h335v20h-333c-249 0 -386 -100 -386 -288z" />
    <glyph glyph-name="_189" unicode="&#x2283;" 
d="M849 388c0 188 -137 288 -386 288h-333v-20h335c237 0 361 -96 361 -268s-124 -268 -361 -268h-335v-20h333c249 0 386 101 386 288z" />
    <glyph glyph-name="_190" unicode="&#x222a;" 
d="M480 10c188 0 288 137 288 386v333h-22v-335c0 -237 -95 -364 -266 -364c-170 0 -266 127 -266 364v335h-22v-333c0 -249 100 -386 288 -386z" />
    <glyph glyph-name="_191" unicode="&#x2229;" 
d="M480 747c-188 0 -288 -137 -288 -386v-333h22v335c0 237 96 364 266 364c171 0 266 -127 266 -364v-335h22v333c0 249 -100 386 -288 386z" />
    <glyph glyph-name="_192" unicode="&#x2227;" 
d="M125 22l19 -12l335 707l338 -707l18 12l-354 737h-4z" />
    <glyph glyph-name="_193" unicode="&#x2228;" 
d="M477 0h4l354 737l-18 12l-338 -707l-335 707l-19 -12z" />
    <glyph glyph-name="_194" unicode="&#xffe2;" 
d="M153 480h621v-280h22v300h-643v-20z" />
    <glyph glyph-name="_195" unicode="&#x21d2;" 
d="M557 120l14 -16l335 276l-336 266l-12 -14l181 -143h-685v-20h710l113 -89l-116 -94h-707v-20h682z" />
    <glyph glyph-name="_196" unicode="&#x21d4;" 
d="M615 104l315 276l-316 266l-12 -14l169 -143h-584l170 143l-12 14l-316 -266l315 -276l14 16l-169 146h580l-168 -146zM792 286h-626l-108 94l105 89h632l106 -89z" />
    <glyph glyph-name="_197" unicode="&#x2200;" 
d="M174 778l297 -770h18l297 770h-24l-82 -211h-401l-81 211h-24zM480 44l-194 503h387z" />
    <glyph glyph-name="_198" unicode="&#x2203;" 
d="M682 778h-425v-20h403v-365h-358v-20h358v-345h-398v-20h420v770z" />
    <glyph glyph-name="_199" unicode="&#xb4;" horiz-adv-x="350" 
d="M248 811h-25l-121 -177h25z" />
    <glyph glyph-name="_201" unicode="&#x2c7;" horiz-adv-x="350" 
d="M185 634l143 177h-26l-127 -158l-128 158h-25l143 -177h20z" />
    <glyph glyph-name="_202" unicode="&#x2d8;" horiz-adv-x="350" 
d="M175 638c97 0 144 60 149 163h-22c-5 -97 -48 -143 -127 -143s-122 46 -128 143h-22c6 -103 53 -163 150 -163z" />
    <glyph glyph-name="_203" unicode="&#x2dd;" horiz-adv-x="350" 
d="M182 811h-25l-121 -177h25zM313 811h-24l-121 -177h25z" />
    <glyph glyph-name="_204" unicode="&#x2da;" horiz-adv-x="350" 
d="M265 722c0 -61 -38 -95 -90 -95s-90 34 -90 95c0 60 38 95 90 95s90 -35 90 -95zM63 722c0 -71 47 -115 112 -115s112 44 112 115c0 70 -47 114 -112 114s-112 -44 -112 -114z" />
    <glyph glyph-name="_205" unicode="&#x2d9;" horiz-adv-x="350" 
d="M195 740h-40v-40h40v40z" />
    <glyph glyph-name="_206" unicode="&#xb8;" horiz-adv-x="350" 
d="M66 -221c25 -22 65 -32 102 -32c75 0 115 39 115 94c0 60 -44 100 -114 100c-14 0 -29 -3 -39 -9l39 76h-22l-42 -84l13 -12c12 6 29 10 46 10c58 0 97 -25 97 -81c0 -46 -33 -75 -93 -75c-33 0 -65 9 -90 31z" />
    <glyph glyph-name="_207" unicode="&#x2db;" horiz-adv-x="350" 
d="M163 8c-60 -28 -99 -80 -99 -134v-5c0 -61 42 -102 116 -102c38 0 76 11 105 35l-12 17c-24 -21 -60 -32 -93 -32c-57 0 -94 27 -94 82v6c0 47 32 99 112 133h-35z" />
    <glyph glyph-name="_208" unicode="&#xa1;" horiz-adv-x="290" 
d="M156 325h-22l-2 -537h26zM161 558h-31v-88h31v88z" />
    <glyph glyph-name="_209" unicode="&#xbf;" horiz-adv-x="565" 
d="M79 -17c0 -115 68 -208 207 -208s207 93 207 208v14h-22v-14c0 -108 -65 -188 -185 -188s-185 80 -185 188c0 71 22 116 93 176c92 78 108 108 108 178v22h-22v-22c0 -58 -11 -88 -102 -163c-79 -65 -99 -111 -99 -191zM278 470h27v88h-27v-88z" />
    <glyph glyph-name="_211" unicode="&#x222e;" 
d="M303 381c0 -95 71 -168 165 -174v-169c0 -100 -26 -130 -125 -130h-47v-19c15 -1 30 -1 46 -1c112 0 148 35 148 145v174c94 6 165 79 165 174s-71 168 -165 174v160c0 100 27 130 126 130h47v19c-15 1 -31 1 -46 1c-112 0 -149 -35 -149 -145v-165
c-94 -6 -165 -79 -165 -174zM325 381c0 83 61 148 143 154v-308c-82 6 -143 71 -143 154zM490 227v308c82 -6 143 -71 143 -154s-61 -148 -143 -154z" />
    <glyph glyph-name="_212" unicode="&#x2211;" 
d="M245 -44v-20h469v20h-446l174 389v14l-174 399h446v20h-469v-20l177 -406z" />
    <glyph glyph-name="_213" unicode="&#x220f;" 
d="M707 -64h22v842h-498v-842h22v822h454v-822z" />
    <glyph glyph-name="_214" unicode="&#xa4;" horiz-adv-x="695" 
d="M106 367c0 -71 25 -128 67 -169l-114 -113l16 -15l114 113c43 -35 100 -54 160 -54c58 0 113 19 157 54l114 -113l16 15l-114 113c41 41 68 97 68 169c0 70 -27 127 -68 168l114 113l-16 16l-114 -115c-44 35 -99 55 -157 55c-60 0 -117 -20 -160 -55l-114 115l-16 -16
l114 -113c-42 -41 -67 -98 -67 -168zM568 367c0 -137 -103 -218 -220 -218c-118 0 -220 81 -220 218c0 136 102 217 220 217c117 0 220 -81 220 -217z" />
    <glyph glyph-name="_215" unicode="&#x2109;" 
d="M67 648c0 68 51 119 119 119s119 -51 119 -119s-51 -119 -119 -119s-119 51 -119 119zM45 648c0 -76 59 -139 141 -139s141 63 141 139s-59 139 -141 139s-141 -63 -141 -139zM425 8h22v373h357v20h-357v357h391v20h-413v-770z" />
    <glyph glyph-name="_216" unicode="&#x2030;" horiz-adv-x="1184" 
d="M252 8h23l316 770h-23zM363 583c0 149 -57 208 -145 208s-145 -59 -145 -208c0 -148 57 -208 145 -208s145 60 145 208zM341 583c0 -142 -51 -188 -123 -188c-73 0 -123 46 -123 188s50 188 123 188c72 0 123 -46 123 -188zM480 203c0 -149 57 -208 145 -208
s145 59 145 208c0 148 -57 208 -145 208s-145 -60 -145 -208zM502 203c0 142 50 188 123 188c72 0 123 -46 123 -188s-51 -188 -123 -188c-73 0 -123 46 -123 188zM821 203c0 -149 57 -208 145 -208s145 59 145 208c0 148 -57 208 -145 208s-145 -60 -145 -208zM843 203
c0 142 50 188 123 188c72 0 123 -46 123 -188s-51 -188 -123 -188c-73 0 -123 46 -123 188z" />
    <glyph glyph-name="_217" unicode="&#x25c1;" 
d="M69 396l762 -442v884zM108 396l703 406v-813z" />
    <glyph glyph-name="_218" unicode="&#x25c0;" 
d="M69 396l762 -442v884z" />
    <glyph glyph-name="_219" unicode="&#x25b7;" 
d="M129 838v-884l762 442zM149 -11v813l703 -406z" />
    <glyph glyph-name="_220" unicode="&#x25b6;" 
d="M129 838v-884l762 442z" />
    <glyph glyph-name="_221" unicode="&#x2664;" 
d="M472 396c-9 -50 -47 -87 -88 -116c-34 -24 -83 -47 -131 -46c-112 2 -165 67 -165 164c0 72 46 152 120 217c73 63 195 134 272 179c79 -45 198 -116 271 -178c75 -64 121 -146 121 -218c0 -93 -54 -164 -166 -164c-54 0 -105 19 -139 47c-37 31 -71 62 -81 115h-14z
M666 38h-374v1c55 23 98 66 129 127c32 61 54 151 57 195h1c1 -44 23 -132 55 -193c31 -61 76 -105 132 -129v-1zM66 396c0 -116 66 -180 186 -182c80 -1 156 49 204 112c-12 -61 -40 -138 -73 -184c-33 -47 -80 -88 -128 -98v-26h448v26c-49 13 -97 53 -129 99
s-62 123 -73 184c45 -65 120 -114 206 -113c121 2 187 69 187 182c0 86 -52 170 -129 233c-84 68 -187 132 -285 185c-96 -55 -205 -116 -286 -186c-82 -71 -128 -150 -128 -232z" />
    <glyph glyph-name="_222" unicode="&#x2660;" 
d="M66 396c0 -57 14 -107 48 -138s88 -43 138 -44c70 -1 156 49 204 112c-12 -61 -40 -138 -73 -184c-33 -47 -80 -88 -128 -98v-26h448v26c-49 13 -97 53 -129 99s-62 123 -73 184c45 -65 130 -115 206 -113c49 1 102 16 135 44c35 30 52 80 52 138c0 86 -52 170 -129 233
c-84 68 -187 132 -285 185c-96 -55 -205 -116 -286 -186c-82 -71 -128 -150 -128 -232z" />
    <glyph glyph-name="_223" unicode="&#x2661;" 
d="M489 508c10 64 53 121 91 155c33 29 78 45 127 46c104 -1 165 -58 165 -188c0 -93 -47 -194 -122 -283c-76 -90 -178 -169 -270 -218c-96 50 -197 129 -273 218c-76 90 -119 190 -119 283c0 121 52 187 166 188c47 -1 91 -20 125 -47c41 -33 81 -90 91 -154h19zM894 524
c0 67 -16 119 -49 154c-33 34 -85 51 -137 51s-100 -17 -140 -49s-72 -80 -88 -135c-17 55 -50 103 -90 135s-88 49 -137 49c-51 0 -100 -15 -136 -50c-37 -35 -51 -88 -51 -155c0 -104 45 -206 125 -301c79 -93 181 -168 289 -226c107 58 208 135 287 228
c80 93 127 195 127 299z" />
    <glyph glyph-name="_224" unicode="&#x2665;" 
d="M894 524c0 67 -15 120 -49 155c-33 34 -85 50 -137 50s-100 -17 -140 -49s-72 -80 -88 -135c-17 55 -50 103 -90 135s-88 49 -137 49c-51 0 -100 -15 -136 -50c-37 -35 -51 -88 -51 -155c0 -104 45 -206 125 -301c79 -93 181 -168 289 -226c106 59 208 135 287 228
c80 93 127 195 127 299z" />
    <glyph glyph-name="_225" unicode="&#x2667;" 
d="M653 641c0 47 -20 91 -52 123c-31 32 -75 52 -122 52c-48 0 -92 -20 -123 -52c-32 -32 -51 -76 -51 -123c0 -48 19 -92 51 -124c31 -32 75 -50 123 -50c47 0 91 18 122 50c32 32 52 76 52 124zM708 40c-60 22 -116 74 -146 118c-34 50 -72 121 -76 189h-14
c-4 -69 -43 -138 -76 -188c-31 -47 -86 -95 -146 -119v-22h458v22zM662 38h-366v5c39 18 84 58 118 105c32 45 54 97 64 140h2c7 -42 32 -97 67 -143c34 -44 70 -79 115 -102v-5zM632 641c0 -42 -17 -81 -46 -109c-27 -28 -66 -45 -107 -45c-42 0 -81 17 -108 45
c-28 28 -46 67 -46 109c0 41 18 80 46 108c27 28 66 47 108 47c41 0 80 -19 107 -47c29 -28 46 -67 46 -108zM410 346c0 47 -20 91 -52 123c-31 32 -75 52 -122 52c-48 0 -92 -20 -123 -52c-32 -32 -51 -76 -51 -123c0 -48 19 -92 51 -124c31 -32 75 -50 123 -50
c47 0 91 18 122 50c32 32 52 76 52 124zM389 346c0 -42 -17 -81 -46 -109c-27 -28 -66 -45 -107 -45c-42 0 -81 17 -108 45c-28 28 -46 67 -46 109c0 41 18 80 46 108c27 28 66 47 108 47c41 0 80 -19 107 -47c29 -28 46 -67 46 -108zM897 346c0 47 -20 91 -52 123
c-31 32 -75 52 -122 52c-48 0 -92 -20 -123 -52c-32 -32 -51 -76 -51 -123c0 -48 19 -92 51 -124c31 -32 75 -50 123 -50c47 0 91 18 122 50c32 32 52 76 52 124zM876 346c0 -42 -17 -81 -46 -109c-27 -28 -66 -45 -107 -45c-42 0 -81 17 -108 45c-28 28 -46 67 -46 109
c0 41 18 80 46 108c27 28 66 47 108 47c41 0 80 -19 107 -47c29 -28 46 -67 46 -108z" />
    <glyph glyph-name="_226" unicode="&#x2663;" 
d="M653 641c0 47 -20 91 -52 123c-31 32 -75 52 -122 52c-48 0 -92 -20 -123 -52c-32 -32 -51 -76 -51 -123c0 -48 19 -92 51 -124c31 -32 75 -50 123 -50c47 0 91 18 122 50c32 32 52 76 52 124zM708 40c-60 22 -116 74 -146 118c-34 50 -72 121 -76 189h-14
c-4 -69 -43 -138 -76 -188c-31 -47 -86 -95 -146 -119v-22h458v22zM410 346c0 47 -20 91 -52 123c-31 32 -75 52 -122 52c-48 0 -92 -20 -123 -52c-32 -32 -51 -76 -51 -123c0 -48 19 -92 51 -124c31 -32 75 -50 123 -50c47 0 91 18 122 50c32 32 52 76 52 124zM897 346
c0 47 -20 91 -52 123c-31 32 -75 52 -122 52c-48 0 -92 -20 -123 -52c-32 -32 -51 -76 -51 -123c0 -48 19 -92 51 -124c31 -32 75 -50 123 -50c47 0 91 18 122 50c32 32 52 76 52 124z" />
    <glyph glyph-name="_228" unicode="&#x25c8;" 
d="M480 861l-459 -469l459 -468l459 468zM480 832l428 -440l-428 -438l-428 438zM480 551l-156 -159l156 -159l155 159z" />
    <glyph glyph-name="_229" unicode="&#x25a3;" 
d="M849 28v730h-739v-730h739zM132 48v690h695v-690h-695zM366 281h226v224h-226v-224z" />
    <glyph glyph-name="_230" unicode="&#x25d0;" 
d="M908 392c0 236 -192 428 -428 428c-237 0 -428 -191 -428 -428c0 -238 189 -429 428 -429c237 0 428 191 428 429zM480 800c226 0 407 -183 407 -408c0 -227 -181 -409 -407 -409v817z" />
    <glyph glyph-name="_231" unicode="&#x25d1;" 
d="M908 392c0 236 -192 428 -428 428c-237 0 -428 -191 -428 -428c0 -238 189 -429 428 -429c237 0 428 191 428 429zM73 392c0 225 180 408 407 408v-817c-227 0 -407 182 -407 409z" />
    <glyph glyph-name="_232" unicode="&#x2592;" 
d="M467 93h22v23h-22v-23zM664 116v-23h20v23h-20zM587 93v23h-22v-23h22zM293 93v23h-21v-23h21zM195 93v23h-21v-23h21zM390 93v23h-21v-23h21zM761 116v-23h21v23h-21zM467 193h22v21h-22v-21zM664 214v-21h20v21h-20zM587 193v21h-22v-21h22zM293 193v21h-21v-21h21z
M195 193v21h-21v-21h21zM390 193v21h-21v-21h21zM761 214v-21h21v21h-21zM467 291h22v22h-22v-22zM664 313v-22h20v22h-20zM587 291v22h-22v-22h22zM293 291v22h-21v-22h21zM195 291v22h-21v-22h21zM390 291v22h-21v-22h21zM761 313v-22h21v22h-21zM467 390h22v22h-22v-22z
M664 412v-22h20v22h-20zM587 390v22h-22v-22h22zM293 390v22h-21v-22h21zM195 390v22h-21v-22h21zM390 390v22h-21v-22h21zM761 412v-22h21v22h-21zM467 489h22v22h-22v-22zM664 511v-22h20v22h-20zM587 489v22h-22v-22h22zM293 489v22h-21v-22h21zM195 489v22h-21v-22h21z
M390 489v22h-21v-22h21zM761 511v-22h21v22h-21zM467 588h22v21h-22v-21zM664 609v-21h20v21h-20zM587 588v21h-22v-21h22zM293 588v21h-21v-21h21zM195 588v21h-21v-21h21zM390 588v21h-21v-21h21zM761 609v-21h21v21h-21zM467 686h22v23h-22v-23zM664 709v-23h20v23h-20z
M587 686v23h-22v-23h22zM293 686v23h-21v-23h21zM195 686v23h-21v-23h21zM390 686v23h-21v-23h21zM761 709v-23h21v23h-21zM868 18v769h-776v-769h776zM114 38v729h732v-729h-732z" />
    <glyph glyph-name="_233" unicode="&#x25a4;" 
d="M868 18v769h-776v-769h776zM846 122v-84h-732v84h732zM846 228v-86h-732v86h732zM846 334v-86h-732v86h732zM846 446v-92h-732v92h732zM846 553v-87h-732v87h732zM846 665v-92h-732v92h732zM846 767v-82h-732v82h732z" />
    <glyph glyph-name="_234" unicode="&#x25a5;" 
d="M868 787h-776v-769h776v769zM762 767h84v-729h-84v729zM654 767h86v-729h-86v729zM546 767h86v-729h-86v729zM440 767h84v-729h-84v729zM331 767h87v-729h-87v729zM217 767h92v-729h-92v729zM114 767h81v-729h-81v729z" />
    <glyph glyph-name="_235" unicode="&#x25a8;" 
d="M868 787h-776v-769h776v769zM114 166l603 601h114l-717 -715v114zM131 38l715 713v-106l-607 -607h-108zM114 308l459 459h113l-572 -570v111zM270 38l576 574v-111l-466 -463h-110zM412 38l434 432v-117l-317 -315h-117zM114 456l311 311h117l-428 -428v117zM559 38
l287 285v-117l-169 -168h-118zM114 604l163 163h117l-280 -280v117zM709 38l137 136v-136h-137zM114 767h132l-132 -132v132z" />
    <glyph glyph-name="_236" unicode="&#x25a7;" 
d="M92 18h776v769h-776v-769zM846 52l-717 715h114l603 -601v-114zM721 38l-607 607v106l715 -713h-108zM846 197l-572 570h113l459 -459v-111zM580 38l-466 463v111l576 -574h-110zM431 38l-317 315v117l434 -432h-117zM846 339l-428 428h117l311 -311v-117zM283 38
l-169 168v117l287 -285h-118zM846 487l-280 280h117l163 -163v-117zM114 38v136l137 -136h-137zM846 635l-132 132h132v-132z" />
    <glyph glyph-name="_237" unicode="&#x25a6;" 
d="M868 18v769h-776v-769h776zM217 446h92v-92h-92v92zM217 665h92v-92h-92v92zM217 553h92v-87h-92v87zM331 446h87v-92h-87v92zM331 665h87v-92h-87v92zM217 228h92v-86h-92v86zM546 446h86v-92h-86v92zM217 334h92v-86h-92v86zM546 665h86v-92h-86v92zM654 446h86v-92
h-86v92zM654 665h86v-92h-86v92zM217 122h92v-84h-92v84zM762 354v92h84v-92h-84zM762 573v92h84v-92h-84zM440 446h84v-92h-84v92zM440 665h84v-92h-84v92zM331 553h87v-87h-87v87zM309 685h-92v82h92v-82zM546 553h86v-87h-86v87zM654 553h86v-87h-86v87zM331 228h87v-86
h-87v86zM331 334h87v-86h-87v86zM195 446v-92h-81v92h81zM195 665v-92h-81v92h81zM546 228h86v-86h-86v86zM546 334h86v-86h-86v86zM654 228h86v-86h-86v86zM654 334h86v-86h-86v86zM331 122h87v-84h-87v84zM762 466v87h84v-87h-84zM440 553h84v-87h-84v87zM546 122h86v-84
h-86v84zM762 142v86h84v-86h-84zM762 248v86h84v-86h-84zM654 122h86v-84h-86v84zM440 228h84v-86h-84v86zM440 334h84v-86h-84v86zM418 685h-87v82h87v-82zM440 122h84v-84h-84v84zM762 122h84v-84h-84v84zM632 685h-86v82h86v-82zM740 685h-86v82h86v-82zM195 553v-87h-81
v87h81zM195 334v-86h-81v86h81zM195 228v-86h-81v86h81zM524 685h-84v82h84v-82zM846 767v-82h-84v82h84zM195 122v-84h-81v84h81zM195 767v-82h-81v82h81z" />
    <glyph glyph-name="_238" unicode="&#x25a9;" 
d="M868 787h-776v-769h776v769zM134 186l59 58l57 -57l-59 -58zM208 259l58 59l58 -57l-59 -59zM767 244l59 -58l-58 -57l-58 58zM260 750l58 -59l-57 -57l-58 59zM334 676l58 -59l-57 -57l-58 59zM567 617l59 59l57 -57l-59 -59zM693 318l59 -59l-57 -57l-59 59zM641 691
l59 59l57 -57l-59 -59zM406 748l58 -59l-56 -56l-59 58zM495 689l59 59l56 -56l-59 -59zM765 389l58 -59l-56 -55l-58 58zM136 330l59 59l56 -56l-59 -58zM422 473l57 57l57 -57l-57 -57zM709 476l59 58l55 -56l-59 -58zM192 534l58 -59l-55 -55l-59 58zM350 118l58 58
l56 -55l-59 -58zM552 602l57 -57l-57 -56l-57 57zM351 545l57 57l56 -56l-57 -57zM551 176l58 -58l-55 -55l-58 58zM423 617l57 57l56 -56l-57 -57zM565 332l57 57l55 -56l-57 -56zM337 389l58 -57l-55 -55l-58 57zM207 113l59 59l53 -54l-58 -58zM694 172l59 -59l-54 -53
l-59 58zM281 187l58 58l54 -53l-59 -59zM620 245l59 -58l-54 -54l-58 59zM637 404l56 56l56 -55l-56 -56zM261 603l59 -58l-53 -53l-59 58zM640 545l58 58l53 -53l-58 -58zM714 619l58 58l53 -53l-58 -58zM187 677l59 -58l-53 -53l-59 58zM266 460l56 -56l-55 -55l-56 56z
M495 401l57 57l54 -53l-57 -57zM407 458l57 -57l-53 -53l-57 57zM425 192l55 55l55 -55l-55 -55zM568 473l56 56l53 -53l-56 -56zM335 529l56 -56l-53 -53l-56 56zM355 261l55 55l54 -53l-55 -55zM549 316l55 -55l-53 -53l-55 55zM426 332l53 53l54 -53l-53 -53zM431 38
l-10 9l59 58l58 -58l-9 -9h-98zM846 353l-7 -7l-59 58l59 59l7 -7v-103zM114 456l7 7l58 -59l-58 -58l-7 7v103zM283 38l-7 6l59 59l55 -55l-10 -10h-97zM580 38l-11 10l55 55l59 -59l-6 -6h-97zM114 206v102l7 7l56 -55l-59 -59zM846 206l-5 -5l-58 59l55 55l8 -7v-102z
M846 501l-7 -7l-56 55l59 59l4 -4v-103zM114 604l4 4l58 -59l-55 -55l-7 7v103zM425 767h110l3 -4l-58 -58l-59 58zM114 166l4 4l57 -57l-61 -61v114zM846 52l-62 61l58 57l4 -4v-114zM277 767h110l3 -4l-56 -56l-59 58zM573 767h110l1 -2l-59 -58l-56 56zM131 38l60 59
l54 -53l-6 -6h-108zM721 38l-6 6l54 53l60 -59h-108zM772 708l-57 57l2 2h114zM243 767l1 -2l-57 -57l-58 59h114zM114 751l58 -58l-53 -53l-5 5v106zM841 640l-53 53l58 58v-106z" />
    <glyph glyph-name="_239" unicode="&#x2668;" 
d="M527 366c0 37 -15 84 -29 128s-28 89 -27 137c1 53 22 110 62 164c4 6 -4 13 -10 8c-28 -23 -62 -63 -82 -98c-18 -31 -26 -63 -27 -93c-1 -41 13 -89 27 -130c15 -45 31 -95 30 -136c-1 -57 -14 -115 -45 -161c-5 -7 3 -12 9 -7c60 47 92 123 92 188zM367 366
c0 30 -14 62 -28 93c-15 31 -27 74 -28 113c-1 56 9 113 52 170c7 9 -2 17 -12 8c-56 -50 -101 -122 -97 -197c2 -35 14 -72 27 -102c16 -35 29 -70 31 -104c3 -55 -18 -117 -48 -161c-5 -7 2 -15 10 -7c45 44 93 115 93 187zM247 321c-111 -12 -170 -66 -171 -130
c-2 -109 216 -162 405 -162c190 0 404 58 404 167c0 55 -60 107 -154 116c-4 0 -6 -5 -1 -6c54 -13 104 -47 104 -93c0 -80 -187 -122 -353 -122s-354 37 -354 117c0 54 52 91 121 107c5 1 4 7 -1 6zM687 366c0 30 -14 62 -28 93c-15 31 -27 74 -28 113c-1 56 9 113 52 170
c7 9 -2 17 -12 8c-56 -50 -101 -122 -97 -197c2 -35 14 -72 27 -102c16 -35 29 -70 31 -104c3 -55 -18 -117 -48 -161c-5 -7 2 -15 10 -7c45 44 93 115 93 187z" />
    <glyph glyph-name="_240" unicode="&#x260f;" 
d="M654 629c22 0 32 -8 34 -30c2 -21 2 -58 1 -86c0 -10 5 -15 15 -16l179 -18c9 -1 15 2 15 12c0 41 -13 99 -36 138c-29 47 -76 84 -154 84h-457c-78 0 -125 -37 -154 -84c-23 -39 -36 -97 -36 -138c0 -10 6 -13 15 -12l179 18c10 1 15 6 15 16c-1 28 -1 65 1 86
c2 22 12 30 34 30h26v-120c-20 -9 -68 -47 -110 -102c-44 -58 -92 -140 -89 -200l8 -97c1 -10 6 -13 16 -13h653c8 0 12 3 13 14l8 101c3 56 -47 141 -91 197c-43 55 -88 90 -108 100v120h23zM533 504h-104v125h104v-125zM625 304c0 76 -65 139 -142 139
c-78 0 -143 -60 -143 -139c0 -81 63 -140 143 -140c78 0 142 62 142 140zM609 499c36 -18 76 -53 112 -100c42 -55 91 -137 87 -192l-7 -90h-640l-7 89c-4 55 43 136 82 189c37 50 80 84 117 103v131h54v-145h148v145h54v-130zM603 304c0 -67 -51 -120 -120 -120
c-71 0 -121 53 -121 120s51 119 121 119c67 0 121 -55 120 -119zM300 647c-29 0 -49 -15 -51 -46c-2 -25 -3 -56 -1 -84l-161 -16c-1 34 10 85 30 119c23 39 70 73 134 73h457c64 0 111 -34 134 -73c20 -34 31 -85 30 -119l-161 16c2 28 1 59 -1 84c-2 31 -22 46 -51 46
h-359z" />
    <glyph glyph-name="_241" unicode="&#x260e;" 
d="M877 479c13 -1 22 4 21 20c-2 39 -13 88 -36 128c-28 47 -73 85 -146 86h-470c-76 -1 -122 -37 -150 -84c-23 -40 -33 -89 -35 -130c-1 -16 8 -22 23 -20l163 17c13 1 19 11 18 21c-1 19 -1 41 3 62c5 27 15 50 38 50h40v-120c-32 -6 -77 -44 -125 -104
c-47 -59 -89 -134 -89 -198l8 -89c1 -13 9 -21 23 -21h636c12 0 22 6 23 20l8 95c0 61 -43 135 -91 194s-98 100 -123 103v120h40c20 0 31 -23 36 -51c3 -21 4 -45 4 -64c0 -10 5 -16 20 -18zM544 629v-120h-126v120h126zM622 304c0 -78 -60 -140 -139 -140
c-81 0 -140 59 -140 140c0 79 60 139 140 139c77 0 139 -62 139 -139z" />
    <glyph glyph-name="_242" unicode="&#x261c;" 
d="M938 165v360h-130v-13h-46c-8 0 -12 -7 -12 -14v-38c-17 -1 -39 0 -55 6s-30 14 -45 26s-28 23 -40 34c-41 31 -94 31 -142 31c-25 -1 -49 -1 -69 -6c-20 -7 -32 -19 -33 -43h-291c-37 0 -53 -27 -53 -54s17 -53 50 -53h215c-5 -8 -4 -20 1 -35c5 -13 11 -25 22 -28
c-11 -8 -12 -24 -9 -37c4 -16 12 -31 27 -36c-8 -11 -7 -27 1 -42s21 -30 41 -31c9 -13 23 -21 43 -25c21 -3 38 -5 52 -4c15 0 41 -1 66 0s52 4 68 11c17 7 36 18 55 30s37 23 54 31c13 4 30 4 42 4v-46c0 -8 5 -13 12 -13h46v-15h130zM365 445c6 11 12 24 16 37
c2 5 4 15 4 23c0 11 4 23 20 28c17 5 40 4 63 5c44 1 100 -1 130 -26c12 -10 25 -22 39 -34c16 -13 31 -24 50 -31c20 -7 45 -8 63 -7v-181c-15 0 -32 -2 -49 -6c-18 -7 -36 -17 -55 -28c-17 -11 -39 -24 -52 -31c-17 -9 -51 -12 -71 -12c-15 -1 -40 0 -64 0
c-25 0 -58 5 -63 13c5 0 25 1 40 2c16 1 28 3 35 5c12 1 28 12 31 31c5 36 -5 90 -14 122c11 -8 32 -19 56 -28c16 -6 22 5 8 12c-56 29 -82 67 -85 130c-1 15 -11 14 -15 0c-9 -32 -39 -42 -79 -42c-8 0 -12 11 -8 18zM363 488c-1 -3 -5 -15 -9 -23c-3 -6 -7 -14 -11 -24
c-3 -8 -2 -16 3 -20h-273c-18 0 -29 13 -29 34c0 22 9 33 33 33h286zM772 200v292h36v-292h-36zM446 337c17 1 27 -8 28 -21c1 -14 -4 -22 -16 -23c-29 -7 -85 -9 -114 -8c-15 0 -22 12 -23 23s4 25 19 25c28 -1 75 0 106 4zM427 405c17 1 27 -7 28 -20
c1 -14 -5 -26 -17 -27c-19 -4 -82 -6 -110 -5c-15 1 -23 15 -23 27c-1 11 4 23 19 23c25 0 76 1 103 2zM457 269c17 0 25 -8 26 -21c1 -15 -4 -27 -15 -28c-28 -4 -76 -7 -101 -6c-13 0 -21 12 -22 23c-3 12 2 28 15 28c27 -1 70 0 97 4z" />
    <glyph glyph-name="_243" unicode="&#x261e;" 
d="M152 165v15h46c7 0 12 5 12 13v46c12 0 29 0 42 -4c17 -8 35 -19 54 -31s38 -23 55 -30c16 -7 43 -10 68 -11s51 0 66 0c14 -1 31 1 52 4c20 4 34 12 43 25c20 1 33 16 41 31s9 31 1 42c15 5 23 20 27 36c3 13 2 29 -9 37c11 3 17 15 22 28c5 15 6 27 1 35h215
c33 0 50 26 50 53s-16 54 -53 54h-291c-1 24 -13 36 -33 43c-20 5 -44 5 -69 6c-48 0 -101 0 -142 -31c-12 -11 -25 -22 -40 -34s-29 -20 -45 -26s-38 -7 -55 -6v38c0 7 -4 14 -12 14h-46v13h-130v-360h130zM595 445c4 -7 0 -18 -8 -18c-40 0 -70 10 -79 42
c-4 14 -14 15 -15 0c-3 -63 -29 -101 -85 -130c-14 -7 -8 -18 8 -12c24 9 45 20 56 28c-9 -32 -19 -86 -14 -122c3 -19 19 -30 31 -31c7 -2 19 -4 35 -5c15 -1 35 -2 40 -2c-5 -8 -38 -13 -63 -13c-24 0 -49 -1 -64 0c-20 0 -54 3 -71 12c-13 7 -35 20 -52 31
c-19 11 -37 21 -55 28c-17 4 -34 6 -49 6v181c18 -1 43 0 63 7c19 7 34 18 50 31c14 12 27 24 39 34c30 25 86 27 130 26c23 -1 46 0 63 -5c16 -5 20 -17 20 -28c0 -8 2 -18 4 -23c4 -13 10 -26 16 -37zM883 488c24 0 33 -11 33 -33c0 -21 -11 -34 -29 -34h-273
c5 4 6 12 3 20c-4 10 -8 18 -11 24c-4 8 -8 20 -9 23h286zM152 200v292h36v-292h-36zM514 337c31 -4 78 -5 106 -4c15 0 20 -14 19 -25s-8 -23 -23 -23c-29 -1 -85 1 -114 8c-12 1 -17 9 -16 23c1 13 11 22 28 21zM533 405c27 -1 78 -2 103 -2c15 0 20 -12 19 -23
c0 -12 -8 -26 -23 -27c-28 -1 -91 1 -110 5c-12 1 -18 13 -17 27c1 13 11 21 28 20zM503 269c27 -4 70 -5 97 -4c13 0 18 -16 15 -28c-1 -11 -9 -23 -22 -23c-25 -1 -73 2 -101 6c-11 1 -16 13 -15 28c1 13 9 21 26 21z" />
    <glyph glyph-name="_244" unicode="&#xb6;" 
d="M512 778c-140 0 -224 -86 -224 -233v-8c0 -148 101 -235 237 -235h30v-438h23v894h51v-894h23v914h-140z" />
    <glyph glyph-name="_245" unicode="&#x2020;" 
d="M698 646h-207v185h-22v-185h-207v-20h207v-762h22v762h207v20z" />
    <glyph glyph-name="_246" unicode="&#x2021;" 
d="M262 49h207v-185h22v185h207v20h-207v557h207v20h-207v185h-22v-185h-207v-20h207v-557h-207v-20z" />
    <glyph glyph-name="_247" unicode="&#x2195;" 
d="M400 76l80 -110l80 110h-69v647h69l-80 110l-80 -110h69v-647h-69z" />
    <glyph glyph-name="_248" unicode="&#x2197;" 
d="M185 59l535 535l48 -49l22 134l-136 -20l50 -50l-535 -534z" />
    <glyph glyph-name="_249" unicode="&#x2199;" 
d="M774 679l-535 -535l-48 49l-22 -134l136 20l-50 50l535 534z" />
    <glyph glyph-name="_250" unicode="&#x2196;" 
d="M790 75l-535 534l50 50l-136 20l22 -134l48 49l535 -535z" />
    <glyph glyph-name="_251" unicode="&#x2198;" 
d="M169 663l535 -534l-50 -50l136 -20l-22 134l-48 -49l-535 535z" />
    <glyph glyph-name="_252" unicode="&#x266d;" 
d="M358 839h-22v-842c176 -2 328 128 328 284c0 99 -56 166 -141 166c-75 0 -140 -56 -165 -108v500zM358 249c0 110 92 178 155 178c71 0 112 -57 112 -146c0 -137 -133 -256 -267 -262v230z" />
    <glyph glyph-name="_253" unicode="&#x2669;" 
d="M543 130c-19 8 -51 14 -76 14c-91 0 -173 -58 -173 -141c0 -46 35 -74 87 -74c115 0 185 71 185 181v730h-23v-710z" />
    <glyph glyph-name="_254" unicode="&#x266a;" 
d="M500 659c126 -38 219 -159 219 -270c0 -84 -29 -175 -71 -240h19c48 66 84 153 84 253c0 115 -57 195 -124 242c-77 54 -134 98 -132 196h-18v-710c-19 8 -51 14 -76 14c-91 0 -173 -58 -173 -141c0 -46 35 -74 87 -74c115 0 185 71 185 181v549z" />
    <glyph glyph-name="_255" unicode="&#x266c;" 
d="M818 678l-508 -120v114l508 120v-114zM818 247c-19 8 -51 14 -76 14c-91 0 -173 -58 -173 -141c0 -46 35 -74 87 -74c115 0 185 71 185 181v626l-554 -132v-591c-19 8 -51 14 -76 14c-91 0 -173 -58 -173 -141c0 -46 35 -74 87 -74c115 0 185 71 185 181v393l508 114
v-370z" />
    <glyph glyph-name="_256" unicode="&#x327f;" 
d="M901 461c-24 205 -206 362 -422 362c-250 0 -427 -193 -422 -433h198v20h-176c5 220 169 393 400 393c205 0 375 -149 400 -342h22zM58 328c24 -205 206 -362 422 -362c250 0 427 193 422 433h-198v-20h176c-5 -220 -169 -393 -400 -393c-205 0 -375 149 -400 342h-22z
M656 663h-28l-194 -249h-75v249h-22v-531h22v262h75l217 -262h28l-226 272z" />
    <glyph glyph-name="_257" unicode="&#x321c;" 
d="M209 -14c-81 121 -137 263 -137 412s56 291 137 411h-20c-83 -118 -139 -262 -139 -411s56 -293 139 -412h20zM751 -14h20c83 119 139 263 139 412s-56 293 -139 411h-20c81 -120 137 -262 137 -411s-56 -291 -137 -412zM230 694v-20h238v-48c0 -121 -134 -201 -246 -220
v-20c120 23 225 90 257 182c34 -92 132 -159 257 -182v20c-117 20 -246 99 -246 220v48h240v20h-500zM193 279v-20h275v-207h22v207h277v20h-574z" />
    <glyph glyph-name="_258" unicode="&#x2116;" horiz-adv-x="938" 
d="M469 8h22v770h-22v-724l-355 724h-22v-770h22v724zM555 8h331v20h-331v-20zM890 368c0 143 -48 224 -169 224c-122 0 -170 -81 -170 -224s48 -225 170 -225c121 0 169 82 169 225zM868 368c0 -136 -44 -205 -147 -205c-104 0 -148 69 -148 205c0 135 44 204 148 204
c103 0 147 -69 147 -204z" />
    <glyph glyph-name="_259" unicode="&#x33c7;" 
d="M40 396c0 -205 37 -401 207 -401c121 0 193 100 201 261h-22c-8 -147 -71 -241 -179 -241c-154 0 -185 195 -185 381s24 382 185 382c109 0 171 -94 179 -241h22c-8 161 -80 261 -201 261c-170 0 -207 -186 -207 -402zM833 286c0 184 -51 290 -166 290
s-166 -106 -166 -290c0 -185 51 -291 166 -291s166 106 166 291zM811 286c0 -175 -47 -271 -144 -271s-144 96 -144 271c0 174 47 270 144 270s144 -96 144 -270zM900 96h-26v-88h26v88z" />
    <glyph glyph-name="_260" unicode="&#x2122;" horiz-adv-x="711" 
d="M492 411l142 314v-314h22v367h-22l-152 -339l-152 339h-22v-367h22v314l142 -314h20zM22 758h115v-347h22v347h116v20h-253v-20z" />
    <glyph glyph-name="_261" unicode="&#x33c2;" 
d="M284 170c0 -84 -36 -155 -119 -155s-117 61 -117 155c0 93 34 155 117 155s119 -72 119 -155zM306 374c0 119 -39 197 -132 197c-88 0 -125 -68 -130 -166h22c4 88 31 146 108 146c79 0 110 -70 110 -173v-116c-19 44 -50 83 -120 83c-91 0 -138 -70 -138 -175
c0 -106 47 -175 138 -175c65 0 100 36 120 82v-3c0 -22 5 -50 12 -66h22c-8 21 -12 47 -12 76v290zM841 8h22v394c0 123 -31 169 -94 169c-48 0 -81 -37 -101 -133c-9 98 -36 133 -92 133c-47 0 -85 -47 -98 -131v118h-22v-550h22v283c0 175 45 260 97 260
c48 0 73 -44 73 -154v-389h22v293c0 156 45 250 97 250c48 0 74 -39 74 -154v-389zM394 96h-25v-88h25v88zM931 96h-25v-88h25v88z" />
    <glyph glyph-name="_262" unicode="&#x33d8;" 
d="M333 283c0 189 -43 288 -140 288c-63 0 -103 -53 -119 -127v114h-22v-790h22v349c20 -70 57 -122 119 -122c97 0 140 99 140 288zM311 283c0 -173 -36 -268 -118 -268c-77 0 -119 100 -119 268s42 268 119 268c82 0 118 -95 118 -268zM841 8h22v394
c0 123 -31 169 -94 169c-48 0 -81 -37 -101 -133c-9 98 -36 133 -92 133c-47 0 -85 -47 -98 -131v118h-22v-550h22v283c0 175 45 260 97 260c48 0 73 -44 73 -154v-389h22v293c0 156 45 250 97 250c48 0 74 -39 74 -154v-389zM394 96h-25v-88h25v88zM931 96h-25v-88h25v88z
" />
    <glyph glyph-name="_263" unicode="&#x2121;" 
d="M744 301c-5 183 -74 270 -203 270c-133 0 -202 -92 -202 -288s69 -288 202 -288c107 0 170 59 192 170h-22c-22 -100 -80 -150 -170 -150c-114 0 -180 78 -180 266h383v20zM541 551c111 0 176 -74 181 -250h-361c3 176 69 250 180 250zM22 758h189v-750h22v750h189v20
h-400v-20zM863 8v770h-22v-770h22z" />
    <glyph glyph-name="_265" unicode="&#xff02;" 
d="M431 558v220h-22v-220h22zM551 558v220h-22v-220h22z" />
    <glyph glyph-name="_266" unicode="&#xff03;" 
d="M682 778l-52 -243h-238l53 243h-23l-53 -243h-160v-20h156l-53 -244h-140v-20h135l-52 -243h23l52 243h238l-53 -243h23l53 243h160v20h-155l52 244h140v20h-135l52 243h-23zM388 515h237l-53 -244h-237z" />
    <glyph glyph-name="_267" unicode="&#xff04;" 
d="M479 874h-22v-83c-146 -3 -225 -88 -225 -195c0 -103 64 -166 182 -189l43 -8v-384c-130 8 -203 88 -203 186v27h-22v-27c0 -106 75 -197 225 -205v-84h22v83c166 0 248 95 248 206c0 106 -62 177 -209 206l-39 8v356c125 -5 197 -76 197 -175v-22h22v22
c0 106 -78 190 -219 195v83zM479 15v379l33 -6c138 -28 193 -95 193 -187c0 -104 -81 -186 -226 -186zM254 596c0 102 75 172 203 175v-352l-38 8c-107 21 -165 76 -165 169z" />
    <glyph glyph-name="_268" unicode="&#xff05;" 
d="M310 8h23l316 770h-23zM421 583c0 149 -57 208 -145 208s-145 -59 -145 -208c0 -148 57 -208 145 -208s145 60 145 208zM399 583c0 -142 -51 -188 -123 -188c-73 0 -123 46 -123 188s50 188 123 188c72 0 123 -46 123 -188zM538 203c0 -149 57 -208 145 -208
s145 59 145 208c0 148 -57 208 -145 208s-145 -60 -145 -208zM560 203c0 142 50 188 123 188c72 0 123 -46 123 -188s-51 -188 -123 -188c-73 0 -123 46 -123 188z" />
    <glyph glyph-name="_269" unicode="&#xff06;" 
d="M587 599h22v21c0 110 -71 171 -182 171s-183 -61 -183 -171c0 -59 16 -103 86 -172c-99 -60 -143 -143 -143 -238c0 -132 91 -215 236 -215c113 0 194 43 247 121l111 -108h31l-130 127c37 64 57 151 60 255h-22c-3 -98 -22 -178 -55 -240l-310 302
c-73 73 -89 114 -89 168c0 100 64 151 161 151s160 -51 160 -151v-21zM423 16c-128 0 -214 76 -214 194c0 94 42 165 135 224l310 -303c-49 -75 -126 -115 -231 -115z" />
    <glyph glyph-name="_270" unicode="&#xff07;" 
d="M491 558v220h-22v-220h22z" />
    <glyph glyph-name="_273" unicode="&#xff0a;" 
d="M469 386l-180 104l-11 -20l178 -103l-178 -104l11 -20l180 104v-207h21v207l180 -104l11 20l-180 104l180 103l-11 20l-180 -104v207h-21v-207z" />
    <glyph glyph-name="_274" unicode="&#xff0b;" 
d="M260 357h209v-217h22v217h209v20h-209v216h-22v-216h-209v-20z" />
    <glyph glyph-name="_276" unicode="&#xff0d;" 
d="M330 356h299v22h-299v-22z" />
    <glyph glyph-name="_278" unicode="&#xff0f;" 
d="M69 -6l15 -15l806 811l-15 14z" />
    <glyph glyph-name="_279" unicode="&#xff10;" 
d="M716 393c0 179 -19 265 -66 325c-38 47 -93 73 -171 73s-133 -26 -170 -73c-48 -60 -66 -146 -66 -325s18 -265 66 -324c37 -48 92 -74 170 -74s133 26 171 74c47 59 66 145 66 324zM694 393c0 -172 -21 -260 -63 -312c-32 -40 -86 -66 -152 -66s-120 26 -152 66
c-41 52 -62 140 -62 312s21 260 62 312c32 40 86 66 152 66s120 -26 152 -66c42 -52 63 -140 63 -312z" />
    <glyph glyph-name="_280" unicode="&#xff11;" 
d="M547 8v770h-22l-213 -96v-24l213 96v-746h22z" />
    <glyph glyph-name="_281" unicode="&#xff12;" 
d="M692 570c0 118 -74 221 -218 221s-218 -103 -218 -221v-22h23v21c0 111 68 202 195 202c128 0 196 -91 196 -202c0 -58 -21 -109 -72 -167l-330 -374v-20h435v20h-407l318 361c59 67 78 115 78 181z" />
    <glyph glyph-name="_282" unicode="&#xff13;" 
d="M688 212c0 -119 -86 -197 -208 -197s-208 79 -208 211v3h-22v-3c0 -142 91 -231 230 -231s230 86 230 220c0 117 -66 190 -157 203c85 17 134 88 134 182c0 106 -79 191 -207 191s-207 -85 -207 -191v-19h22v19c0 99 70 171 185 171c116 0 185 -72 185 -171
c0 -87 -52 -172 -169 -172h-79v-20h73c128 0 198 -78 198 -196z" />
    <glyph glyph-name="_283" unicode="&#xff14;" 
d="M254 219l320 519v-519h-320zM710 219h-114v559h-22l-345 -559v-20h345v-191h22v191h114v20z" />
    <glyph glyph-name="_284" unicode="&#xff15;" 
d="M258 206c14 -131 90 -211 221 -211c139 0 223 93 223 256s-84 256 -223 256c-81 0 -140 -38 -172 -102l18 353h335v20h-357l-20 -418h22c31 85 95 128 174 128c130 0 201 -87 201 -237c0 -149 -71 -236 -201 -236c-114 0 -185 66 -199 191h-22z" />
    <glyph glyph-name="_285" unicode="&#xff16;" 
d="M683 609c-14 123 -93 182 -206 182c-69 0 -122 -22 -158 -71c-53 -73 -67 -184 -67 -397c0 -117 10 -186 52 -245c39 -55 100 -83 177 -83c140 0 227 98 227 256c0 159 -87 256 -227 256c-104 0 -178 -57 -206 -143c0 172 16 283 65 347c32 41 81 60 137 60
c93 0 168 -47 182 -162h24zM481 15c-122 0 -206 87 -206 236c0 150 84 237 206 237s206 -87 206 -237c0 -149 -84 -236 -206 -236z" />
    <glyph glyph-name="_286" unicode="&#xff17;" 
d="M262 758h411l-288 -750h24l288 750v20h-435v-20z" />
    <glyph glyph-name="_287" unicode="&#xff18;" 
d="M480 791c-132 0 -218 -77 -218 -193c0 -92 54 -161 143 -184c-101 -21 -166 -96 -166 -205c0 -136 96 -214 241 -214s241 78 241 214c0 109 -65 184 -166 205c89 23 143 92 143 184c0 116 -86 193 -218 193zM480 424c-114 0 -196 67 -196 174c0 106 82 173 196 173
c115 0 196 -67 196 -173c0 -107 -81 -174 -196 -174zM480 15c-127 0 -219 70 -219 194c0 125 92 195 219 195c128 0 219 -70 219 -195c0 -124 -91 -194 -219 -194z" />
    <glyph glyph-name="_288" unicode="&#xff19;" 
d="M277 177c15 -123 94 -182 206 -182c69 0 122 22 158 71c53 73 67 184 67 397c0 117 -9 186 -51 245c-40 55 -100 83 -177 83c-140 0 -228 -98 -228 -256s88 -256 228 -256c103 0 178 57 205 143c0 -172 -15 -283 -65 -347c-31 -41 -81 -60 -137 -60
c-92 0 -167 47 -182 162h-24zM480 771c122 0 205 -87 205 -236c0 -150 -83 -237 -205 -237c-123 0 -206 87 -206 237c0 149 83 236 206 236z" />
    <glyph glyph-name="_295" unicode="&#xff20;" 
d="M583 525c-141 0 -215 -96 -215 -254s74 -254 215 -254c140 0 214 96 214 254v24c0 361 -83 496 -317 496s-317 -135 -317 -496c0 -401 114 -495 317 -495c56 0 111 13 156 36l-8 21c-42 -24 -96 -37 -148 -37c-185 0 -295 82 -295 475c0 347 70 476 295 476
c199 0 278 -103 292 -375c-28 82 -89 129 -189 129zM583 37c-124 0 -193 82 -193 234s69 234 193 234c123 0 192 -82 192 -234s-69 -234 -192 -234z" />
    <glyph glyph-name="_296" unicode="&#xff21;" 
d="M198 8l81 211h401l82 -211h24l-297 770h-18l-297 -770h24zM673 239h-387l194 503z" />
    <glyph glyph-name="_297" unicode="&#xff22;" 
d="M259 413v345h245c136 0 195 -65 195 -173c0 -107 -59 -172 -195 -172h-245zM508 8c154 0 235 61 235 202c0 113 -49 176 -156 194c79 18 134 74 134 183c0 118 -69 191 -213 191h-271v-770h271zM721 210c0 -112 -55 -182 -218 -182h-244v365h244c163 0 218 -70 218 -183z
" />
    <glyph glyph-name="_298" unicode="&#xff23;" 
d="M204 393c0 -141 23 -251 82 -319c47 -53 113 -79 198 -79c164 0 261 99 271 259h-22c-11 -144 -92 -239 -249 -239c-77 0 -139 24 -181 72c-59 69 -77 179 -77 306s18 236 77 306c42 48 104 72 181 72c157 0 238 -95 249 -239h22c-10 160 -107 259 -271 259
c-85 0 -151 -26 -198 -79c-59 -68 -82 -178 -82 -319z" />
    <glyph glyph-name="_299" unicode="&#xff24;" 
d="M475 758c77 0 141 -24 182 -72c58 -70 77 -180 77 -293s-19 -223 -77 -293c-41 -48 -105 -72 -182 -72h-230v730h230zM223 8h252c86 0 152 25 198 78c61 69 83 179 83 307s-22 238 -83 307c-46 53 -112 78 -198 78h-252v-770z" />
    <glyph glyph-name="_300" unicode="&#xff25;" 
d="M267 8h425v20h-403v365h358v20h-358v345h398v20h-420v-770z" />
    <glyph glyph-name="_301" unicode="&#xff26;" 
d="M283 8h22v373h358v20h-358v357h392v20h-414v-770z" />
    <glyph glyph-name="_302" unicode="&#xff27;" 
d="M202 393c0 -141 23 -251 82 -319c47 -53 113 -79 198 -79c86 0 151 25 200 80c33 38 47 76 53 117v-184h22v374h-269v-20h247v-64c0 -89 -33 -168 -71 -211c-45 -49 -106 -72 -182 -72c-77 0 -139 24 -181 72c-59 69 -77 179 -77 306s18 236 77 306c42 48 104 72 181 72
c157 0 238 -95 249 -239h22c-10 160 -107 259 -271 259c-85 0 -151 -26 -198 -79c-59 -68 -82 -178 -82 -319z" />
    <glyph glyph-name="_303" unicode="&#xff28;" 
d="M707 8h22v770h-22v-365h-454v365h-22v-770h22v385h454v-385z" />
    <glyph glyph-name="_304" unicode="&#xff29;" 
d="M491 778h-22v-770h22v770z" />
    <glyph glyph-name="_305" unicode="&#xff2a;" 
d="M450 -5c146 0 215 97 215 248v535h-22v-537c0 -137 -64 -226 -193 -226c-130 0 -194 89 -194 226v1h-22c0 -150 69 -247 216 -247z" />
    <glyph glyph-name="_306" unicode="&#xff2b;" 
d="M724 778h-28l-293 -365h-119v365h-22v-770h22v385h119l327 -385h28l-335 395z" />
    <glyph glyph-name="_307" unicode="&#xff2c;" 
d="M287 8h425v20h-403v750h-22v-770z" />
    <glyph glyph-name="_308" unicode="&#xff2d;" 
d="M492 8l330 719v-719h22v770h-22l-342 -747l-343 747h-22v-770h22v719l330 -719h25z" />
    <glyph glyph-name="_309" unicode="&#xff2e;" 
d="M734 8v770h-22v-732l-465 732h-22v-770h22v732l465 -732h22z" />
    <glyph glyph-name="_310" unicode="&#xff2f;" 
d="M738 393c0 -127 -18 -237 -77 -306c-42 -48 -104 -72 -182 -72c-77 0 -139 24 -181 72c-59 69 -77 179 -77 306s18 236 77 306c42 48 104 72 181 72c78 0 140 -24 182 -72c59 -70 77 -179 77 -306zM199 393c0 -141 23 -251 82 -319c47 -53 113 -79 198 -79
c86 0 152 26 198 79c60 68 83 178 83 319s-23 251 -83 319c-46 53 -112 79 -198 79c-85 0 -151 -26 -198 -79c-59 -68 -82 -178 -82 -319z" />
    <glyph glyph-name="_311" unicode="&#xff30;" 
d="M269 338v420h250c140 0 212 -80 212 -210s-72 -210 -212 -210h-250zM516 318c161 0 237 93 237 230c0 138 -76 230 -237 230h-269v-770h22v310h247z" />
    <glyph glyph-name="_312" unicode="&#xff31;" 
d="M195 393c0 -141 23 -251 82 -319c47 -53 113 -79 198 -79c86 0 152 26 198 79l107 -91l14 17l-107 92c49 68 69 171 69 301c0 141 -23 251 -83 319c-46 53 -112 79 -198 79c-85 0 -151 -26 -198 -79c-59 -68 -82 -178 -82 -319zM516 208l141 -121
c-42 -48 -104 -72 -182 -72c-77 0 -139 24 -181 72c-59 69 -77 179 -77 306s18 236 77 306c42 48 104 72 181 72c78 0 140 -24 182 -72c59 -70 77 -179 77 -306c0 -117 -15 -218 -64 -288l-139 120z" />
    <glyph glyph-name="_313" unicode="&#xff32;" 
d="M745 8c-7 18 -11 41 -13 70l-7 110c-7 103 -52 147 -136 162c105 24 151 101 151 209c0 132 -71 219 -233 219h-273v-770h22v332h253c130 0 187 -48 194 -152l7 -110c1 -29 6 -52 13 -70h22zM256 360v398h255c139 0 207 -75 207 -199s-68 -199 -207 -199h-255z" />
    <glyph glyph-name="_314" unicode="&#xff33;" 
d="M479 15c-144 0 -225 82 -225 186v27h-22v-27c0 -111 82 -206 247 -206c166 0 248 95 248 206c0 106 -62 177 -209 206l-99 20c-107 21 -165 76 -165 169c0 104 78 175 211 175s211 -71 211 -175v-22h22v22c0 111 -82 195 -233 195s-233 -86 -233 -195
c0 -103 64 -166 182 -189l98 -19c138 -28 193 -95 193 -187c0 -104 -81 -186 -226 -186z" />
    <glyph glyph-name="_315" unicode="&#xff34;" 
d="M225 758h244v-750h22v750h244v20h-510v-20z" />
    <glyph glyph-name="_316" unicode="&#xff35;" 
d="M480 15c-177 0 -243 105 -243 279v484h-22v-486c0 -177 73 -297 265 -297c191 0 265 120 265 297v486h-22v-484c0 -174 -66 -279 -243 -279z" />
    <glyph glyph-name="_317" unicode="&#xff36;" 
d="M198 778h-24l297 -770h18l297 770h-24l-282 -734z" />
    <glyph glyph-name="_318" unicode="&#xff37;" 
d="M470 778l-213 -732l-196 732h-24l208 -770h21l214 732l213 -732h22l208 770h-25l-195 -732l-213 732h-20z" />
    <glyph glyph-name="_319" unicode="&#xff38;" 
d="M757 778h-28l-250 -357l-248 357h-28l263 -377l-274 -393h28l259 373l261 -373h28l-274 393z" />
    <glyph glyph-name="_320" unicode="&#xff39;" 
d="M480 331l-270 447h-25l284 -466v-304h22v304l283 466h-25z" />
    <glyph glyph-name="_321" unicode="&#xff3a;" 
d="M248 28v-20h464v20h-440l435 730v20h-448v-20h423z" />
    <glyph glyph-name="_323" unicode="&#xffe6;" 
d="M470 778l-102 -367h-194l-93 367h-24l94 -367h-129v-20h135l98 -383h21l107 383h194l106 -383h22l98 383h135v20h-129l94 367h-25l-93 -367h-193l-102 367h-20zM597 391h183l-87 -345zM571 411h-183l92 328zM179 391h184l-96 -345z" />
    <glyph glyph-name="_325" unicode="&#xff3e;" 
d="M480 758l167 -235h27l-183 255h-22l-183 -255h27z" />
    <glyph glyph-name="_327" unicode="&#xff40;" 
d="M528 634h25l-121 177h-25z" />
    <glyph glyph-name="_328" unicode="&#xff41;" 
d="M667 170c0 -94 -64 -155 -196 -155s-195 61 -195 155c0 93 63 155 195 155s196 -62 196 -155zM689 374c0 119 -72 197 -206 197c-132 0 -194 -68 -204 -166h22c9 88 64 146 182 146c120 0 184 -70 184 -173v-127c-26 58 -92 94 -198 94c-142 0 -215 -70 -215 -175
c0 -106 73 -175 215 -175c106 0 172 35 198 93v-14c0 -22 6 -50 15 -66h23c-10 21 -16 47 -16 76v290z" />
    <glyph glyph-name="_329" unicode="&#xff42;" 
d="M724 283c0 179 -69 288 -224 288c-106 0 -175 -51 -203 -144v351h-22v-770h22v131c28 -93 97 -144 203 -144c155 0 224 109 224 288zM702 283c0 -173 -63 -268 -202 -268c-140 0 -203 95 -203 268s63 268 203 268c139 0 202 -95 202 -268z" />
    <glyph glyph-name="_330" unicode="&#xff43;" 
d="M260 283c0 -179 69 -288 224 -288c127 0 200 69 215 183h-22c-15 -102 -79 -163 -193 -163c-139 0 -202 95 -202 268s63 268 202 268c114 0 178 -61 193 -163h22c-15 114 -88 183 -215 183c-155 0 -224 -109 -224 -288z" />
    <glyph glyph-name="_331" unicode="&#xff44;" 
d="M235 283c0 -179 69 -288 224 -288c106 0 175 51 203 144v-131h22v770h-22v-351c-28 93 -97 144 -203 144c-155 0 -224 -109 -224 -288zM662 283c0 -173 -63 -268 -203 -268c-139 0 -202 95 -202 268s63 268 202 268c140 0 203 -95 203 -268z" />
    <glyph glyph-name="_332" unicode="&#xff45;" 
d="M670 164c-20 -94 -84 -149 -191 -149c-139 0 -202 96 -202 266h427v2c0 179 -69 288 -225 288c-155 0 -224 -109 -224 -288s69 -288 224 -288c121 0 194 65 213 169h-22zM479 551c135 0 198 -91 203 -250h-405c3 159 67 250 202 250z" />
    <glyph glyph-name="_333" unicode="&#xff46;" 
d="M630 766v19c-15 1 -31 1 -46 1c-112 0 -149 -35 -149 -146v-82h-85v-20h85v-530h22v530h173v20h-173v78c0 100 27 130 126 130h47z" />
    <glyph glyph-name="_334" unicode="&#xff47;" 
d="M682 283c0 -173 -63 -268 -203 -268c-139 0 -202 95 -202 268s63 268 202 268c140 0 203 -95 203 -268zM291 -89c12 -91 81 -158 204 -158c140 0 209 87 209 215v590h-22v-131c-28 93 -97 144 -203 144c-155 0 -224 -109 -224 -288s69 -288 224 -288
c106 0 175 51 203 144v-171c0 -122 -68 -195 -187 -195c-104 0 -170 55 -182 138h-22z" />
    <glyph glyph-name="_335" unicode="&#xff48;" 
d="M298 8v279c5 168 94 264 214 264c110 0 169 -73 169 -206v-337h22v337c0 143 -68 226 -189 226c-107 0 -186 -61 -216 -169v376h-22v-770h22z" />
    <glyph glyph-name="_336" unicode="&#xff49;" 
d="M491 8v550h-22v-550h22zM491 690v88h-22v-88h22z" />
    <glyph glyph-name="_337" unicode="&#xff4a;" 
d="M506 558h-22v-674c0 -69 -32 -96 -89 -96h-22v-19c6 -1 14 -1 23 -1c66 0 110 28 110 111v679zM506 690v88h-22v-88h22z" />
    <glyph glyph-name="_338" unicode="&#xff4b;" 
d="M329 8v277h87l249 -277h28l-257 287l232 263h-27l-225 -253h-87v473h-22v-770h22z" />
    <glyph glyph-name="_339" unicode="&#xff4c;" 
d="M491 8v770h-22v-770h22z" />
    <glyph glyph-name="_340" unicode="&#xff4d;" 
d="M832 8h22v374c0 123 -64 189 -174 189c-94 0 -166 -65 -189 -171c-6 114 -71 171 -174 171c-95 0 -162 -64 -189 -171v158h-22v-550h22v263c0 180 83 280 187 280c99 0 154 -59 154 -174v-369h22v263c0 180 83 280 187 280c99 0 154 -59 154 -174v-369z" />
    <glyph glyph-name="_341" unicode="&#xff4e;" 
d="M288 8v279c5 168 94 264 214 264c110 0 169 -73 169 -206v-337h22v337c0 143 -68 226 -189 226c-107 0 -186 -61 -216 -169v156h-22v-550h22z" />
    <glyph glyph-name="_342" unicode="&#xff4f;" 
d="M704 283c0 179 -69 288 -225 288c-155 0 -224 -109 -224 -288s69 -288 224 -288c156 0 225 109 225 288zM682 283c0 -173 -63 -268 -203 -268c-139 0 -202 95 -202 268s63 268 202 268c140 0 203 -95 203 -268z" />
    <glyph glyph-name="_343" unicode="&#xff50;" 
d="M724 283c0 179 -69 288 -224 288c-106 0 -175 -51 -203 -144v131h-22v-790h22v371c28 -93 97 -144 203 -144c155 0 224 109 224 288zM702 283c0 -173 -63 -268 -202 -268c-140 0 -203 95 -203 268s63 268 203 268c139 0 202 -95 202 -268z" />
    <glyph glyph-name="_344" unicode="&#xff51;" 
d="M235 283c0 -179 69 -288 224 -288c106 0 175 51 203 144v-371h22v790h-22v-131c-28 93 -97 144 -203 144c-155 0 -224 -109 -224 -288zM662 283c0 -173 -63 -268 -203 -268c-139 0 -202 95 -202 268s63 268 202 268c140 0 203 -95 203 -268z" />
    <glyph glyph-name="_345" unicode="&#xff52;" 
d="M581 550c13 0 28 -1 36 -3v21c-7 2 -22 3 -37 3c-90 0 -155 -50 -175 -159v146h-22v-550h22v275c0 187 67 267 176 267z" />
    <glyph glyph-name="_346" unicode="&#xff53;" 
d="M658 430c0 77 -66 141 -187 141s-187 -64 -187 -141c0 -79 44 -121 153 -142l86 -16c100 -19 134 -54 134 -124c0 -83 -75 -133 -177 -133s-177 50 -177 133v21h-22v-21c0 -94 84 -153 199 -153c116 0 199 59 199 153c0 78 -39 123 -146 143l-86 16
c-101 20 -141 52 -141 122c0 71 61 122 165 122c105 0 165 -51 165 -121v-23h22v23z" />
    <glyph glyph-name="_347" unicode="&#xff54;" 
d="M451 538h184v20h-184v156h-22v-156h-85v-20h85v-389c0 -113 51 -149 154 -149c16 0 32 0 52 1v19h-53c-82 0 -131 25 -131 127v391z" />
    <glyph glyph-name="_348" unicode="&#xff55;" 
d="M288 558h-22v-337c0 -143 68 -226 189 -226c107 0 186 61 216 169v-156h22v550h-22v-279c-5 -169 -94 -264 -214 -264c-110 0 -169 73 -169 206v337z" />
    <glyph glyph-name="_349" unicode="&#xff56;" 
d="M469 8h22l231 550h-25l-217 -520l-216 520h-26z" />
    <glyph glyph-name="_350" unicode="&#xff57;" 
d="M469 558l-186 -518l-184 518h-25l198 -550h22l186 518l186 -518h22l198 550h-26l-183 -518l-186 518h-22z" />
    <glyph glyph-name="_351" unicode="&#xff58;" 
d="M685 8h28l-219 282l208 268h-28l-194 -250l-193 250h-29l208 -268l-219 -282h29l204 263z" />
    <glyph glyph-name="_352" unicode="&#xff59;" 
d="M410 -136c-26 -63 -52 -76 -104 -76h-14v-19c7 -1 7 -1 16 -1c60 0 89 12 122 90l292 700h-25l-217 -524l-216 524h-26l230 -551z" />
    <glyph glyph-name="_353" unicode="&#xff5a;" 
d="M662 558h-364v-20h339l-348 -510v-20h381v20h-355l347 510v20z" />
    <glyph glyph-name="_358" unicode="&#x3131;" 
d="M205 623v-20h518v-417h22v437h-540z" />
    <glyph glyph-name="_359" unicode="&#x3132;" 
d="M165 623v-20h249v-417h22v437h-271zM510 623v-20h253v-417h22v437h-275z" />
    <glyph glyph-name="_360" unicode="&#x3133;" 
d="M150 623v-20h229v-417h22v437h-251zM644 623h-23v-204c0 -123 -80 -194 -157 -213v-20c82 19 146 81 169 152c25 -72 87 -132 168 -152v20c-75 21 -157 92 -157 213v204z" />
    <glyph glyph-name="_361" unicode="&#x3134;" 
d="M755 186v20h-518v417h-22v-437h540z" />
    <glyph glyph-name="_362" unicode="&#x3135;" 
d="M405 206h-220v417h-22v-437h242v20zM613 603v-205c0 -102 -89 -176 -162 -192v-20c83 20 152 82 173 151c24 -69 96 -131 174 -151v20c-71 16 -163 91 -163 192v205h157v20h-334v-20h155z" />
    <glyph glyph-name="_363" unicode="&#x3136;" 
d="M415 564v-20h406v20h-192v114h-22v-114h-192zM405 206h-220v417h-22v-437h242v20zM462 310c0 34 15 64 41 86c28 24 69 38 114 38s86 -14 114 -38c26 -22 41 -52 41 -86s-15 -64 -41 -86c-28 -24 -69 -38 -114 -38s-86 14 -114 38c-26 22 -41 52 -41 86zM440 310
c0 -40 19 -75 50 -101c32 -27 78 -43 127 -43s95 16 127 43c31 26 50 61 50 101s-19 75 -50 101c-32 27 -78 43 -127 43s-95 -16 -127 -43c-31 -26 -50 -61 -50 -101z" />
    <glyph glyph-name="_364" unicode="&#x3137;" 
d="M237 206v397h508v20h-530v-437h540v20h-518z" />
    <glyph glyph-name="_365" unicode="&#x3138;" 
d="M536 206v397h244v20h-266v-437h276v20h-254zM200 603h233v20h-255v-437h266v20h-244v397z" />
    <glyph glyph-name="_366" unicode="&#x3139;" 
d="M242 196v200h498v237h-520v-20h498v-197h-498v-240h540v20h-518z" />
    <glyph glyph-name="_367" unicode="&#x313a;" 
d="M509 206h-314v190h253v227h-275v-20h253v-187h-253v-230h336v20zM792 623h-273v-20h251v-417h22v437z" />
    <glyph glyph-name="_368" unicode="&#x313b;" 
d="M518 623v-437h274v437h-274zM540 603h230v-397h-230v397zM454 206h-259v190h238v227h-260v-20h238v-187h-238v-230h281v20z" />
    <glyph glyph-name="_369" unicode="&#x313c;" 
d="M540 440v183h-22v-437h274v437h-22v-183h-230zM540 420h230v-214h-230v214zM454 206h-259v190h238v227h-260v-20h238v-187h-238v-230h281v20z" />
    <glyph glyph-name="_370" unicode="&#x313d;" 
d="M454 206h-259v190h238v227h-260v-20h238v-187h-238v-230h281v20zM631 623v-224c0 -101 -79 -175 -147 -193v-20c75 18 137 82 159 147c24 -65 82 -129 158 -147v20c-70 18 -147 92 -147 193v224h-23z" />
    <glyph glyph-name="_371" unicode="&#x313e;" 
d="M540 206v190h242v20h-242v187h252v20h-274v-437h281v20h-259zM454 186v20h-259v190h238v227h-260v-20h238v-187h-238v-230h281z" />
    <glyph glyph-name="_372" unicode="&#x313f;" 
d="M569 603h132v-397h-132v397zM723 206v397h69v20h-314v-20h69v-397h-72v-20h322v20h-74zM434 186v20h-239v190h223v227h-245v-20h223v-187h-223v-230h261z" />
    <glyph glyph-name="_373" unicode="&#x3140;" 
d="M454 206h-259v190h228v227h-250v-20h228v-187h-228v-230h281v20zM475 564v-20h356v20h-167v114h-22v-114h-167zM517 310c0 35 14 65 37 87c24 23 58 37 98 37s74 -14 98 -37c23 -22 37 -52 37 -87s-14 -65 -37 -87c-24 -23 -58 -37 -98 -37s-74 14 -98 37
c-23 22 -37 52 -37 87zM495 310c0 -41 16 -76 44 -102s67 -42 113 -42s85 16 113 42s44 61 44 102s-16 76 -44 102s-67 42 -113 42s-85 -16 -113 -42s-44 -61 -44 -102z" />
    <glyph glyph-name="_374" unicode="&#x3141;" 
d="M215 623v-437h530v437h-530zM723 603v-397h-486v397h486z" />
    <glyph glyph-name="_375" unicode="&#x3142;" 
d="M237 435v188h-22v-437h530v437h-22v-188h-486zM723 415v-209h-486v209h486z" />
    <glyph glyph-name="_376" unicode="&#x3143;" 
d="M217 437v186h-22v-437h570v437h-22v-186h-248v186h-22v-186h-256zM743 417v-211h-248v211h248zM473 417v-211h-256v211h256z" />
    <glyph glyph-name="_377" unicode="&#x3144;" 
d="M195 433v190h-22v-437h274v437h-22v-190h-230zM195 413h230v-207h-230v207zM631 623v-224c0 -101 -79 -175 -147 -193v-20c75 18 137 82 159 147c24 -65 82 -129 158 -147v20c-70 18 -147 92 -147 193v224h-23z" />
    <glyph glyph-name="_378" unicode="&#x3145;" 
d="M479 431c36 -111 136 -206 301 -255v22c-155 44 -290 154 -290 322v113h-22v-113c0 -168 -124 -279 -290 -322v-22c180 47 266 144 301 255z" />
    <glyph glyph-name="_379" unicode="&#x3146;" 
d="M480 185c86 51 146 137 166 229c26 -91 82 -174 184 -230v22c-89 48 -173 148 -173 295v122h-22v-122c0 -139 -69 -238 -155 -292c-78 53 -155 154 -155 292v122h-22v-122c0 -147 -82 -247 -173 -295v-22c103 53 161 138 184 230c23 -92 84 -173 166 -229z" />
    <glyph glyph-name="_380" unicode="&#x3147;" 
d="M218 405c0 62 23 112 64 148c47 42 117 65 198 65s151 -23 198 -65c41 -36 64 -86 64 -148s-23 -112 -64 -148c-47 -42 -117 -65 -198 -65s-151 23 -198 65c-41 36 -64 86 -64 148zM196 405c0 -68 27 -123 73 -163c51 -45 125 -70 211 -70s160 25 211 70
c46 40 73 95 73 163s-27 123 -73 163c-51 45 -125 70 -211 70s-160 -25 -211 -70c-46 -40 -73 -95 -73 -163z" />
    <glyph glyph-name="_381" unicode="&#x3148;" 
d="M759 603v20h-559v-20h268v-93c0 -158 -116 -269 -280 -312v-22c169 42 259 137 291 250c35 -112 137 -208 291 -250v22c-153 44 -280 154 -280 312v93h269z" />
    <glyph glyph-name="_382" unicode="&#x3149;" 
d="M807 603v20h-643v-20h149v-112c0 -141 -86 -244 -173 -285v-22c100 50 166 144 184 236c19 -89 82 -179 156 -235c78 51 141 147 156 235c21 -93 85 -183 184 -236v22c-85 44 -173 144 -173 285v112h160zM625 603v-112c0 -129 -71 -231 -145 -283
c-66 51 -145 155 -145 283v112h290z" />
    <glyph glyph-name="_383" unicode="&#x314a;" 
d="M759 533v20h-269v145h-22v-145h-268v-20h268v-23c0 -158 -116 -269 -280 -312v-22c169 42 259 137 291 250c35 -112 137 -208 291 -250v22c-153 44 -280 154 -280 312v23h269z" />
    <glyph glyph-name="_384" unicode="&#x314b;" 
d="M215 623v-20h508v-200c-73 -12 -173 -17 -255 -17h-253v-20h252c86 0 184 6 256 18v-198h22v437h-530z" />
    <glyph glyph-name="_385" unicode="&#x314c;" 
d="M242 196v200h488v20h-488v197h498v20h-520v-457h540v20h-518z" />
    <glyph glyph-name="_386" unicode="&#x314d;" 
d="M618 397c0 -68 -6 -141 -25 -191h-248v397h273v-206zM640 603h125v20h-570v-20h128v-397h-148v-20h610v20h-170c19 50 25 125 25 198v199z" />
    <glyph glyph-name="_387" unicode="&#x314e;" 
d="M182 573v-20h596v20h-288v134h-22v-134h-286zM723 305c0 -29 -12 -53 -33 -72c-43 -38 -123 -56 -210 -56s-167 18 -210 56c-21 19 -33 43 -33 72s12 53 33 72c43 38 123 56 210 56s167 -18 210 -56c21 -19 33 -43 33 -72zM215 305c0 -36 15 -64 42 -87
c48 -41 133 -61 223 -61s175 20 223 61c27 23 42 51 42 87s-15 64 -42 87c-48 41 -133 61 -223 61s-175 -20 -223 -61c-27 -23 -42 -51 -42 -87z" />
    <glyph glyph-name="_388" unicode="&#x314f;" 
d="M470 833h-23v-876h23v465h193v21h-193v390z" />
    <glyph glyph-name="_389" unicode="&#x3150;" 
d="M610 -43v876h-24v-383h-213v376h-23v-857h23v460h213v-472h24z" />
    <glyph glyph-name="_390" unicode="&#x3151;" 
d="M470 833h-23v-876h23v308h191v21h-191v280h191v21h-191v246z" />
    <glyph glyph-name="_391" unicode="&#x3152;" 
d="M610 -43v876h-24v-234h-213v227h-23v-857h23v292h213v-304h24zM373 283v295h213v-295h-213z" />
    <glyph glyph-name="_392" unicode="&#x3153;" 
d="M490 443h-193v-21h193v-465h23v876h-23v-390z" />
    <glyph glyph-name="_393" unicode="&#x3154;" 
d="M625 -43v876h-24v-876h24zM403 431v-462h24v857h-24v-373h-183v-22h183z" />
    <glyph glyph-name="_394" unicode="&#x3155;" 
d="M490 587h-191v-21h191v-280h-191v-21h191v-308h23v876h-23v-246z" />
    <glyph glyph-name="_395" unicode="&#x3156;" 
d="M403 563v-264h-177v-21h177v-309h24v857h-24v-242h-177v-21h177zM625 -43v876h-24v-876h24z" />
    <glyph glyph-name="_396" unicode="&#x3157;" 
d="M92 210h776v22h-377v379h-24v-379h-375v-22z" />
    <glyph glyph-name="_397" unicode="&#x3158;" 
d="M293 412v-339h-238v-21h406c106 0 198 25 256 75v-170h23v465h173v21h-173v390h-23v-683c-61 -51 -152 -77 -256 -77h-144v339h-24z" />
    <glyph glyph-name="_398" unicode="&#x3159;" 
d="M288 411v-338h-193v-21h282c90 0 169 21 216 64v-146h24v465h184v-478h24v876h-24v-377h-184v370h-24v-687c-51 -46 -127 -66 -216 -66h-65v338h-24z" />
    <glyph glyph-name="_399" unicode="&#x315a;" 
d="M337 412v-339h-242v-21h415c106 0 198 25 256 75v-170h24v876h-24v-683c-61 -51 -152 -77 -256 -77h-149v339h-24z" />
    <glyph glyph-name="_400" unicode="&#x315b;" 
d="M632 596v-364h-297v364h-24v-364h-219v-22h776v22h-213v364h-23z" />
    <glyph glyph-name="_401" unicode="&#x315c;" 
d="M92 387h375v-376h24v376h377v21h-776v-21z" />
    <glyph glyph-name="_402" unicode="&#x315d;" 
d="M791 833h-23v-669h-240v-22h240v-185h23v876zM428 341c90 0 185 12 238 47v22c-55 -34 -150 -47 -238 -47h-363v-22h240v-385h24v385h99z" />
    <glyph glyph-name="_403" unicode="&#x315e;" 
d="M801 833v-876h24v876h-24zM334 344c81 0 152 7 200 36v21c-51 -29 -122 -36 -200 -36h-239v-21h174v-388h24v388h41zM609 155v-186h24v857h-24v-649h-163v-22h163z" />
    <glyph glyph-name="_404" unicode="&#x315f;" 
d="M512 320c106 0 198 25 256 75v-438h23v876h-23v-415c-61 -51 -152 -77 -256 -77h-447v-21h259v-364h24v364h164z" />
    <glyph glyph-name="_405" unicode="&#x3160;" 
d="M643 387v-369h24v369h201v21h-776v-21h205v-369h24v369h322z" />
    <glyph glyph-name="_406" unicode="&#x3161;" 
d="M92 210h776v22h-776v-22z" />
    <glyph glyph-name="_407" unicode="&#x3162;" 
d="M790 -43v876h-24v-673c-61 -51 -152 -77 -256 -77h-425v-21h425c106 0 198 25 256 75v-180h24z" />
    <glyph glyph-name="_408" unicode="&#x3163;" 
d="M468 -43h24v876h-24v-876z" />
    <glyph glyph-name="_409" unicode="&#x3165;" 
d="M450 206h-255v417h-22v-437h277v20zM795 206h-255v417h-22v-437h277v20z" />
    <glyph glyph-name="_410" unicode="&#x3166;" 
d="M535 206v397h249v20h-271v-437h277v20h-255zM445 186v20h-250v417h-22v-437h272z" />
    <glyph glyph-name="_411" unicode="&#x3167;" 
d="M425 206h-230v417h-22v-437h252v20zM621 623v-204c0 -123 -80 -194 -157 -213v-20c82 19 146 81 169 152c25 -72 87 -132 168 -152v20c-75 21 -157 92 -157 213v204h-23z" />
    <glyph glyph-name="_412" unicode="&#x3168;" 
d="M425 186v20h-230v417h-22v-437h252zM630 603l141 -397h-284zM630 663l-173 -477h344z" />
    <glyph glyph-name="_413" unicode="&#x3169;" 
d="M355 206h-234v189h194v228h-216v-20h194v-188h-194v-229h256v20zM573 623h-206v-20h184v-417h22v437zM740 623v-244c0 -96 -66 -155 -122 -173v-20c63 19 116 73 134 129c19 -56 69 -109 133 -129v20c-58 18 -122 77 -122 173v244h-23z" />
    <glyph glyph-name="_414" unicode="&#x316a;" 
d="M555 206v397h237v20h-259v-437h265v20h-243zM459 186v20h-264v190h243v227h-265v-20h243v-187h-243v-230h286z" />
    <glyph glyph-name="_415" unicode="&#x316b;" 
d="M395 434v189h-22v-437h224v437h-22v-189h-180zM395 414h180v-208h-180v208zM325 206h-204v189h184v228h-206v-20h184v-188h-184v-229h226v20zM740 623v-244c0 -96 -66 -155 -122 -173v-20c63 19 116 73 134 129c19 -56 69 -109 133 -129v20c-58 18 -122 77 -122 173v244
h-23z" />
    <glyph glyph-name="_416" unicode="&#x316c;" 
d="M454 206h-259v190h238v227h-260v-20h238v-187h-238v-230h281v20zM642 603l136 -397h-273zM642 662l-167 -476h333z" />
    <glyph glyph-name="_417" unicode="&#x316d;" 
d="M781 324c0 -42 -19 -78 -47 -102c-23 -19 -52 -31 -83 -31s-60 12 -83 31c-28 24 -47 60 -47 102s19 78 47 102c23 19 52 31 83 31s60 -12 83 -31c28 -24 47 -60 47 -102zM815 603v20h-325v-20h325zM454 206h-259v190h228v227h-250v-20h228v-187h-228v-230h281v20z
M499 324c0 -49 22 -91 55 -118c27 -22 61 -35 97 -35s70 13 97 35c33 27 55 69 55 118s-22 91 -55 118c-27 22 -61 35 -97 35s-70 -13 -97 -35c-33 -27 -55 -69 -55 -118z" />
    <glyph glyph-name="_418" unicode="&#x316e;" 
d="M173 623v-437h270v437h-270zM195 603h226v-397h-226v397zM544 440v183h-22v-437h270v437h-22v-183h-226zM544 420h226v-214h-226v214z" />
    <glyph glyph-name="_419" unicode="&#x316f;" 
d="M173 623v-437h274v437h-274zM195 603h230v-397h-230v397zM631 623v-224c0 -101 -79 -175 -147 -193v-20c75 18 137 82 159 147c24 -65 82 -129 158 -147v20c-70 18 -147 92 -147 193v224h-23z" />
    <glyph glyph-name="_420" unicode="&#x3170;" 
d="M173 623v-437h274v437h-274zM195 603h230v-397h-230v397zM642 603l136 -397h-273zM642 662l-167 -476h333z" />
    <glyph glyph-name="_421" unicode="&#x3171;" 
d="M255 726v-317h450v317h-450zM683 706v-277h-406v277h406zM314 193c0 28 11 51 30 69c31 30 83 45 136 45s105 -15 136 -45c19 -18 30 -41 30 -69s-11 -51 -30 -69c-31 -30 -83 -45 -136 -45s-105 15 -136 45c-19 18 -30 41 -30 69zM292 193c0 -34 14 -62 37 -83
c36 -34 94 -51 151 -51s115 17 151 51c23 21 37 49 37 83s-14 62 -37 83c-36 34 -94 51 -151 51s-115 -17 -151 -51c-23 -21 -37 -49 -37 -83z" />
    <glyph glyph-name="_422" unicode="&#x3172;" 
d="M195 438v185h-22v-437h284v437h-22v-185h-240zM195 418h240v-212h-240v212zM792 623h-263v-20h241v-417h22v437z" />
    <glyph glyph-name="_423" unicode="&#x3173;" 
d="M565 206v397h227v20h-249v-437h255v20h-233zM425 438h-230v185h-22v-437h274v437h-22v-185zM195 206v212h230v-212h-230z" />
    <glyph glyph-name="_424" unicode="&#x3174;" 
d="M833 623h-201v-20h179v-417h22v437zM141 434v189h-22v-437h224v437h-22v-189h-180zM141 414h180v-208h-180v208zM496 623v-244c0 -96 -66 -155 -122 -173v-20c63 19 116 73 134 129c19 -56 69 -109 133 -129v20c-58 18 -122 77 -122 173v244h-23z" />
    <glyph glyph-name="_425" unicode="&#x3175;" 
d="M833 623h-190v-437h200v20h-178v397h168v20zM141 434v189h-22v-437h214v437h-22v-189h-170zM141 414h170v-208h-170v208zM476 623v-244c0 -94 -62 -156 -117 -173v-20c63 19 113 75 129 132c16 -58 66 -110 128 -132v20c-57 18 -117 79 -117 173v244h-23z" />
    <glyph glyph-name="_426" unicode="&#x3176;" 
d="M798 603v20h-288v-20h126v-214c0 -96 -75 -165 -142 -183v-20c73 18 133 78 154 140c22 -62 79 -122 153 -140v20c-69 18 -142 87 -142 183v214h139zM195 438v185h-22v-437h274v437h-22v-185h-230zM195 418h230v-212h-230v212z" />
    <glyph glyph-name="_427" unicode="&#x3177;" 
d="M195 438v185h-22v-437h269v437h-22v-185h-225zM195 418h225v-212h-225v212zM550 206v190h232v20h-232v187h242v20h-264v-437h271v20h-249z" />
    <glyph glyph-name="_428" unicode="&#x3178;" 
d="M277 593v133h-22v-317h450v317h-22v-133h-406zM683 573v-144h-406v144h406zM314 193c0 28 11 51 30 69c31 30 83 45 136 45s105 -15 136 -45c19 -18 30 -41 30 -69s-11 -51 -30 -69c-31 -30 -83 -45 -136 -45s-105 15 -136 45c-19 18 -30 41 -30 69zM292 193
c0 -34 14 -62 37 -83c36 -34 94 -51 151 -51s115 17 151 51c23 21 37 49 37 83s-14 62 -37 83c-36 34 -94 51 -151 51s-115 -17 -151 -51c-23 -21 -37 -49 -37 -83z" />
    <glyph glyph-name="_429" unicode="&#x3179;" 
d="M257 592v134h-22v-317h490v317h-22v-134h-208v134h-22v-134h-216zM703 572v-143h-208v143h208zM473 572v-143h-216v143h216zM314 193c0 28 11 51 30 69c31 30 83 45 136 45s105 -15 136 -45c19 -18 30 -41 30 -69s-11 -51 -30 -69c-31 -30 -83 -45 -136 -45
s-105 15 -136 45c-19 18 -30 41 -30 69zM292 193c0 -34 14 -62 37 -83c36 -34 94 -51 151 -51s115 17 151 51c23 21 37 49 37 83s-14 62 -37 83c-36 34 -94 51 -151 51s-115 -17 -151 -51c-23 -21 -37 -49 -37 -83z" />
    <glyph glyph-name="_430" unicode="&#x317a;" 
d="M328 623v-204c0 -123 -80 -194 -157 -213v-20c82 19 146 81 169 152c25 -72 87 -132 168 -152v20c-75 21 -157 92 -157 213v204h-23zM515 623v-20h239v-417h22v437h-261z" />
    <glyph glyph-name="_431" unicode="&#x317b;" 
d="M795 206h-230v417h-22v-437h252v20zM298 623v-224c0 -101 -79 -175 -147 -193v-20c75 18 137 82 159 147c24 -65 82 -129 158 -147v20c-70 18 -147 92 -147 193v224h-23z" />
    <glyph glyph-name="_432" unicode="&#x317c;" 
d="M550 206v397h232v20h-254v-437h260v20h-238zM321 623h-23v-204c0 -123 -80 -194 -157 -213v-20c82 19 146 81 169 152c25 -72 87 -132 168 -152v20c-75 21 -157 92 -157 213v204z" />
    <glyph glyph-name="_433" unicode="&#x317d;" 
d="M288 623v-224c0 -101 -79 -175 -147 -193v-20c75 18 137 82 159 147c24 -65 82 -129 158 -147v20c-70 18 -147 92 -147 193v224h-23zM544 440v183h-22v-437h270v437h-22v-183h-226zM544 420h226v-214h-226v214z" />
    <glyph glyph-name="_434" unicode="&#x317e;" 
d="M807 603v20h-343v-20h161v-112c0 -129 -71 -231 -145 -283c-66 51 -145 155 -145 283v132h-22v-132c0 -141 -86 -244 -173 -285v-22c100 50 166 144 184 236c19 -89 82 -179 156 -235c78 51 141 147 156 235c21 -93 85 -183 184 -236v22c-85 44 -173 144 -173 285v112
h160z" />
    <glyph glyph-name="_435" unicode="&#x317f;" 
d="M185 186h591l-298 487zM478 634l261 -428h-517z" />
    <glyph glyph-name="_436" unicode="&#x3180;" 
d="M175 405c0 83 19 149 58 183c19 16 42 25 70 25s51 -9 70 -25c39 -34 58 -100 58 -183s-19 -149 -58 -183c-19 -16 -42 -25 -70 -25s-51 9 -70 25c-39 34 -58 100 -58 183zM153 405c0 -93 22 -163 67 -200c22 -18 50 -28 83 -28s61 10 83 28c45 37 67 107 67 200
s-22 163 -67 200c-22 18 -50 28 -83 28s-61 -10 -83 -28c-45 -37 -67 -107 -67 -200zM534 405c0 83 19 149 58 183c19 16 42 25 70 25s51 -9 70 -25c39 -34 58 -100 58 -183s-19 -149 -58 -183c-19 -16 -42 -25 -70 -25s-51 9 -70 25c-39 34 -58 100 -58 183zM512 405
c0 -93 22 -163 67 -200c22 -18 50 -28 83 -28s61 10 83 28c45 37 67 107 67 200s-22 163 -67 200c-22 18 -50 28 -83 28s-61 -10 -83 -28c-45 -37 -67 -107 -67 -200z" />
    <glyph glyph-name="_437" unicode="&#x3181;" 
d="M490 697h-22v-139c-82 -2 -153 -25 -202 -63c-44 -35 -71 -83 -71 -140s27 -105 71 -140c51 -40 126 -63 213 -63s162 23 213 63c44 35 71 83 71 140s-27 105 -71 140c-49 38 -120 61 -202 63v139zM217 355c0 49 22 92 61 123c47 38 117 60 201 60s154 -22 201 -60
c39 -31 61 -74 61 -123s-22 -92 -61 -123c-47 -38 -117 -60 -201 -60s-154 22 -201 60c-39 31 -61 74 -61 123z" />
    <glyph glyph-name="_438" unicode="&#x3182;" 
d="M316 658h-22v-115c-36 -3 -66 -16 -90 -39c-33 -32 -51 -81 -51 -144s18 -112 51 -144c26 -25 60 -39 101 -39s75 14 101 39c33 32 51 81 51 144s-18 112 -51 144c-24 23 -54 36 -90 39v115zM644 623h-23v-204c0 -123 -80 -194 -157 -213v-20c82 19 146 81 169 152
c25 -72 87 -132 168 -152v20c-75 21 -157 92 -157 213v204zM175 360c0 55 15 100 43 129c21 22 50 34 87 34s66 -12 87 -34c28 -29 43 -74 43 -129s-15 -100 -43 -129c-21 -22 -50 -34 -87 -34s-66 12 -87 34c-28 29 -43 74 -43 129z" />
    <glyph glyph-name="_439" unicode="&#x3183;" 
d="M316 658h-22v-115c-36 -3 -66 -16 -90 -39c-33 -32 -51 -81 -51 -144s18 -112 51 -144c26 -25 60 -39 101 -39s75 14 101 39c33 32 51 81 51 144s-18 112 -51 144c-24 23 -54 36 -90 39v115zM175 360c0 55 15 100 43 129c21 22 50 34 87 34s66 -12 87 -34
c28 -29 43 -74 43 -129s-15 -100 -43 -129c-21 -22 -50 -34 -87 -34s-66 12 -87 34c-28 29 -43 74 -43 129zM642 603l136 -397h-273zM642 662l-167 -476h333z" />
    <glyph glyph-name="_440" unicode="&#x3184;" 
d="M215 409h530v20h-146c14 37 18 100 18 150v127h108v20h-490v-20h108v-277h-128v-20zM365 706h230v-135c0 -47 -4 -105 -19 -142h-211v277zM314 193c0 28 11 51 30 69c31 30 83 45 136 45s105 -15 136 -45c19 -18 30 -41 30 -69s-11 -51 -30 -69c-31 -30 -83 -45 -136 -45
s-105 15 -136 45c-19 18 -30 41 -30 69zM292 193c0 -34 14 -62 37 -83c36 -34 94 -51 151 -51s115 17 151 51c23 21 37 49 37 83s-14 62 -37 83c-36 34 -94 51 -151 51s-115 -17 -151 -51c-23 -21 -37 -49 -37 -83z" />
    <glyph glyph-name="_441" unicode="&#x3185;" 
d="M450 539v20h-135v119h-22v-119h-148v-20h305zM177 311c0 39 15 70 40 92c23 20 53 31 86 31s63 -11 86 -31c25 -22 40 -53 40 -92s-15 -70 -40 -92c-23 -20 -53 -31 -86 -31s-63 11 -86 31c-25 22 -40 53 -40 92zM155 311c0 -46 19 -83 49 -108c27 -22 62 -35 99 -35
s72 13 99 35c30 25 49 62 49 108s-19 83 -49 108c-27 22 -62 35 -99 35s-72 -13 -99 -35c-30 -25 -49 -62 -49 -108zM510 539h305v20h-148v119h-22v-119h-135v-20zM783 311c0 -39 -15 -70 -40 -92c-23 -20 -53 -31 -86 -31s-63 11 -86 31c-25 22 -40 53 -40 92s15 70 40 92
c23 20 53 31 86 31s63 -11 86 -31c25 -22 40 -53 40 -92zM805 311c0 46 -19 83 -49 108c-27 22 -62 35 -99 35s-72 -13 -99 -35c-30 -25 -49 -62 -49 -108s19 -83 49 -108c27 -22 62 -35 99 -35s72 13 99 35c30 25 49 62 49 108z" />
    <glyph glyph-name="_442" unicode="&#x3186;" 
d="M205 623v-20h550v20h-550zM693 330c0 -34 -15 -63 -41 -86c-38 -33 -99 -52 -172 -52s-134 19 -172 52c-26 23 -41 52 -41 86s15 63 41 86c38 33 99 52 172 52s134 -19 172 -52c26 -23 41 -52 41 -86zM245 330c0 -41 18 -76 49 -102c42 -35 108 -56 186 -56
s144 21 186 56c31 26 49 61 49 102s-18 76 -49 102c-42 35 -108 56 -186 56s-144 -21 -186 -56c-31 -26 -49 -61 -49 -102z" />
    <glyph glyph-name="_443" unicode="&#x3187;" 
d="M213 412v-339h-158v-21h406c106 0 198 25 256 75v-170h23v335h173v21h-173v229h173v21h-173v270h-23v-683c-60 -51 -150 -76 -253 -77v339h-24v-339h-203v339h-24z" />
    <glyph glyph-name="_444" unicode="&#x3188;" 
d="M825 -43v876h-24v-277h-184v270h-24v-687c-44 -40 -107 -60 -181 -65v337h-24v-338h-146v338h-24v-338h-123v-21h282c90 0 169 21 216 64v-146h24v315h184v-328h24zM801 306h-184v229h184v-229z" />
    <glyph glyph-name="_445" unicode="&#x3189;" 
d="M267 412v-339h-172v-21h415c106 0 198 25 256 75v-170h24v876h-24v-683c-59 -49 -146 -75 -245 -77v339h-24v-339h-206v339h-24z" />
    <glyph glyph-name="_446" unicode="&#x318a;" 
d="M791 833h-23v-579h-230v-22h230v-128h-230v-22h230v-125h23v876zM407 361v-405h24v405c89 0 183 12 235 47v22c-55 -34 -150 -47 -238 -47h-363v-22h150v-405h24v405h168z" />
    <glyph glyph-name="_447" unicode="&#x318b;" 
d="M801 833v-876h24v876h-24zM233 364h126v-408h24v409c65 2 121 11 161 35v21c-51 -29 -122 -36 -200 -36h-249v-21h114v-408h24v408zM619 235v-118h-163v-22h163v-126h24v857h-24v-569h-163v-22h163z" />
    <glyph glyph-name="_448" unicode="&#x318c;" 
d="M512 320c106 0 198 25 256 75v-438h23v876h-23v-415c-61 -51 -152 -77 -256 -77h-437v-21h179v-364h24v364h206v-364h24v364h4z" />
    <glyph glyph-name="_449" unicode="&#x318d;" 
d="M495 461h-31v-88h31v88z" />
    <glyph glyph-name="_450" unicode="&#x318e;" 
d="M385 461h-31v-88h31v88zM578 -43h24v876h-24v-876z" />
    <glyph glyph-name="_451" unicode="&#x2170;" 
d="M491 8v550h-22v-550h22zM491 690v88h-22v-88h22z" />
    <glyph glyph-name="_452" unicode="&#x2171;" 
d="M351 8v550h-22v-550h22zM351 690v88h-22v-88h22zM631 8v550h-22v-550h22zM631 690v88h-22v-88h22z" />
    <glyph glyph-name="_453" unicode="&#x2172;" 
d="M271 8v550h-22v-550h22zM271 690v88h-22v-88h22zM491 8v550h-22v-550h22zM491 690v88h-22v-88h22zM711 8v550h-22v-550h22zM711 690v88h-22v-88h22z" />
    <glyph glyph-name="_454" unicode="&#x2173;" 
d="M795 558l-202 -529l-202 529h-23l210 -550h29l211 550h-23zM281 8v550h-22v-550h22zM281 690v88h-22v-88h22z" />
    <glyph glyph-name="_455" unicode="&#x2174;" 
d="M469 8h22l231 550h-25l-217 -520l-216 520h-26z" />
    <glyph glyph-name="_456" unicode="&#x2175;" 
d="M585 558l-202 -529l-202 529h-23l210 -550h29l211 550h-23zM721 8v550h-22v-550h22zM721 690v88h-22v-88h22z" />
    <glyph glyph-name="_457" unicode="&#x2176;" 
d="M465 558l-172 -527l-172 527h-23l180 -550h29l181 550h-23zM771 8v550h-22v-550h22zM771 690v88h-22v-88h22zM601 8v550h-22v-550h22zM601 690v88h-22v-88h22z" />
    <glyph glyph-name="_458" unicode="&#x2177;" 
d="M375 558l-152 -525l-152 525h-23l159 -550h31l160 550h-23zM501 8v550h-22v-550h22zM501 690v88h-22v-88h22zM671 8v550h-22v-550h22zM671 690v88h-22v-88h22zM841 8v550h-22v-550h22zM841 690v88h-22v-88h22z" />
    <glyph glyph-name="_459" unicode="&#x2178;" 
d="M798 8h28l-213 282l202 268h-27l-189 -250l-189 250h-26l202 -268l-213 -282h28l199 264zM281 8v550h-22v-550h22zM281 690v88h-22v-88h22z" />
    <glyph glyph-name="_460" unicode="&#x2179;" 
d="M685 8h28l-219 282l208 268h-28l-194 -250l-193 250h-29l208 -268l-219 -282h29l204 263z" />
    <glyph glyph-name="_461" unicode="&#x2160;" 
d="M568 8v20h-77v730h77v20h-176v-20h77v-730h-77v-20h176z" />
    <glyph glyph-name="_462" unicode="&#x2161;" 
d="M418 8v20h-77v730h77v20h-176v-20h77v-730h-77v-20h176zM718 8v20h-77v730h77v20h-176v-20h77v-730h-77v-20h176z" />
    <glyph glyph-name="_463" unicode="&#x2162;" 
d="M563 8v20h-72v730h72v20h-166v-20h72v-730h-72v-20h166zM323 8v20h-72v730h72v20h-166v-20h72v-730h-72v-20h166zM803 8v20h-72v730h72v20h-166v-20h72v-730h-72v-20h166z" />
    <glyph glyph-name="_464" unicode="&#x2163;" 
d="M313 8v20h-72v730h72v20h-166v-20h72v-730h-72v-20h166zM629 8l229 770h-25l-219 -745l-220 745h-23l229 -770h29z" />
    <glyph glyph-name="_465" unicode="&#x2164;" 
d="M198 778h-24l297 -770h18l297 770h-24l-282 -734z" />
    <glyph glyph-name="_466" unicode="&#x2165;" 
d="M359 8l229 770h-25l-219 -745l-220 745h-23l229 -770h29zM652 8h166v20h-72v730h72v20h-166v-20h72v-730h-72v-20z" />
    <glyph glyph-name="_467" unicode="&#x2166;" 
d="M893 8v20h-67v730h67v20h-156v-20h67v-730h-67v-20h156zM673 8v20h-67v730h67v20h-156v-20h67v-730h-67v-20h156zM270 8l198 770h-23l-190 -743l-191 743h-23l198 -770h31z" />
    <glyph glyph-name="_468" unicode="&#x2167;" 
d="M918 8v20h-62v730h62v20h-146v-20h62v-730h-62v-20h146zM728 8v20h-62v730h62v20h-146v-20h62v-730h-62v-20h146zM538 8v20h-62v730h62v20h-146v-20h62v-730h-62v-20h146zM207 8l141 770h-23l-135 -743l-136 743h-23l142 -770h34z" />
    <glyph glyph-name="_469" unicode="&#x2168;" 
d="M293 8v20h-72v730h72v20h-166v-20h72v-730h-72v-20h166zM848 8h26l-251 390l244 380h-26l-231 -359l-231 359h-26l244 -380l-251 -390h26l238 370z" />
    <glyph glyph-name="_470" unicode="&#x2169;" 
d="M757 778h-28l-250 -357l-248 357h-28l263 -377l-274 -393h28l259 373l261 -373h28l-274 393z" />
    <glyph glyph-name="_471" unicode="&#x391;" horiz-adv-x="638" 
d="M37 8l81 211h401l82 -211h24l-297 770h-18l-297 -770h24zM512 239h-387l194 503z" />
    <glyph glyph-name="_472" unicode="&#x392;" horiz-adv-x="649" 
d="M114 413v345h245c136 0 195 -65 195 -173c0 -107 -59 -172 -195 -172h-245zM363 8c154 0 235 61 235 202c0 113 -49 176 -156 194c79 18 134 74 134 183c0 118 -69 191 -213 191h-271v-770h271zM576 210c0 -112 -55 -182 -218 -182h-244v365h244c163 0 218 -70 218 -183z
" />
    <glyph glyph-name="_473" unicode="&#x393;" horiz-adv-x="515" 
d="M92 778v-770h22v750h388v20h-410z" />
    <glyph glyph-name="_474" unicode="&#x394;" horiz-adv-x="638" 
d="M625 8l-297 770h-18l-297 -770h612zM319 742l274 -714h-548z" />
    <glyph glyph-name="_475" unicode="&#x395;" horiz-adv-x="563" 
d="M92 8h425v20h-403v365h358v20h-358v345h398v20h-420v-770z" />
    <glyph glyph-name="_476" unicode="&#x396;" horiz-adv-x="570" 
d="M53 28v-20h464v20h-440l435 730v20h-448v-20h423z" />
    <glyph glyph-name="_477" unicode="&#x397;" horiz-adv-x="682" 
d="M568 8h22v770h-22v-365h-454v365h-22v-770h22v385h454v-385z" />
    <glyph glyph-name="_478" unicode="&#x398;" horiz-adv-x="693" 
d="M605 393c0 -127 -18 -237 -77 -306c-42 -48 -104 -72 -182 -72c-77 0 -139 24 -181 72c-59 69 -77 179 -77 306s18 236 77 306c42 48 104 72 181 72c78 0 140 -24 182 -72c59 -70 77 -179 77 -306zM66 393c0 -141 23 -251 82 -319c47 -53 113 -79 198 -79
c86 0 152 26 198 79c60 68 83 178 83 319s-23 251 -83 319c-46 53 -112 79 -198 79c-85 0 -151 -26 -198 -79c-59 -68 -82 -178 -82 -319zM221 383h251v20h-251v-20z" />
    <glyph glyph-name="_479" unicode="&#x399;" horiz-adv-x="207" 
d="M114 778h-22v-770h22v770z" />
    <glyph glyph-name="_480" unicode="&#x39a;" horiz-adv-x="588" 
d="M554 778h-28l-293 -365h-119v365h-22v-770h22v385h119l327 -385h28l-335 395z" />
    <glyph glyph-name="_481" unicode="&#x39b;" horiz-adv-x="638" 
d="M601 8h24l-297 770h-18l-297 -770h24l282 734z" />
    <glyph glyph-name="_482" unicode="&#x39c;" horiz-adv-x="913" 
d="M469 8l330 719v-719h22v770h-22l-342 -747l-343 747h-22v-770h22v719l330 -719h25z" />
    <glyph glyph-name="_483" unicode="&#x39d;" horiz-adv-x="693" 
d="M601 8v770h-22v-732l-465 732h-22v-770h22v732l465 -732h22z" />
    <glyph glyph-name="_484" unicode="&#x39e;" horiz-adv-x="586" 
d="M52 758h483v20h-483v-20zM46 8h494v20h-494v-20zM91 393h404v20h-404v-20z" />
    <glyph glyph-name="_485" unicode="&#x39f;" horiz-adv-x="693" 
d="M605 393c0 -127 -18 -237 -77 -306c-42 -48 -104 -72 -182 -72c-77 0 -139 24 -181 72c-59 69 -77 179 -77 306s18 236 77 306c42 48 104 72 181 72c78 0 140 -24 182 -72c59 -70 77 -179 77 -306zM66 393c0 -141 23 -251 82 -319c47 -53 113 -79 198 -79
c86 0 152 26 198 79c60 68 83 178 83 319s-23 251 -83 319c-46 53 -112 79 -198 79c-85 0 -151 -26 -198 -79c-59 -68 -82 -178 -82 -319z" />
    <glyph glyph-name="_486" unicode="&#x3a0;" horiz-adv-x="682" 
d="M568 8h22v770h-498v-770h22v750h454v-750z" />
    <glyph glyph-name="_487" unicode="&#x3a1;" horiz-adv-x="637" 
d="M114 338v420h250c140 0 212 -80 212 -210s-72 -210 -212 -210h-250zM361 318c161 0 237 93 237 230c0 138 -76 230 -237 230h-269v-770h22v310h247z" />
    <glyph glyph-name="_488" unicode="&#x3a3;" horiz-adv-x="558" 
d="M66 28v-20h446v20h-420l208 373v9l-208 348h420v20h-446v-20l210 -353z" />
    <glyph glyph-name="_489" unicode="&#x3a4;" horiz-adv-x="550" 
d="M20 758h244v-750h22v750h244v20h-510v-20z" />
    <glyph glyph-name="_490" unicode="&#x3a5;" horiz-adv-x="629" 
d="M315 331l-270 447h-25l284 -466v-304h22v304l283 466h-25z" />
    <glyph glyph-name="_491" unicode="&#x3a6;" horiz-adv-x="774" 
d="M728 393c0 192 -140 267 -330 268v117h-22v-117c-190 -1 -330 -76 -330 -268s140 -267 330 -268v-117h22v117c190 1 330 76 330 268zM706 393c0 -180 -129 -245 -308 -249v498c179 -4 308 -69 308 -249zM376 144c-179 4 -308 69 -308 249s129 245 308 249v-498z" />
    <glyph glyph-name="_492" unicode="&#x3a7;" horiz-adv-x="628" 
d="M591 778h-28l-250 -357l-248 357h-28l263 -377l-274 -393h28l259 373l261 -373h28l-274 393z" />
    <glyph glyph-name="_493" unicode="&#x3a8;" horiz-adv-x="748" 
d="M385 8v168c184 5 282 118 282 292v310h-22v-308c0 -171 -91 -271 -260 -274v582h-22v-582c-170 3 -260 103 -260 274v308h-22v-310c0 -174 97 -287 282 -292v-168h22z" />
    <glyph glyph-name="_494" unicode="&#x3a9;" horiz-adv-x="693" 
d="M346 791c-85 0 -151 -26 -198 -79c-59 -68 -82 -178 -82 -319c0 -176 37 -319 166 -365h-142v-20h195v20c-162 38 -197 196 -197 365c0 127 18 236 77 306c42 48 104 72 181 72c78 0 140 -24 182 -72c59 -70 77 -179 77 -306c0 -169 -35 -327 -197 -365v-20h195v20h-142
c129 46 166 189 166 365c0 141 -23 251 -83 319c-46 53 -112 79 -198 79z" />
    <glyph glyph-name="_495" unicode="&#x3b1;" horiz-adv-x="583" 
d="M504 558h-22v-131c-28 93 -97 144 -203 144c-155 0 -224 -109 -224 -288s69 -288 224 -288c106 0 175 51 203 144v-69c0 -50 15 -70 61 -70c5 0 12 0 20 1v19h-15c-35 0 -44 12 -44 53v485zM482 283c0 -173 -63 -268 -203 -268c-139 0 -202 95 -202 268s63 268 202 268
c140 0 203 -95 203 -268z" />
    <glyph glyph-name="_496" unicode="&#x3b2;" horiz-adv-x="587" 
d="M294 791c-138 0 -215 -87 -215 -214v-808h22v361c30 -87 101 -135 209 -135c153 0 231 92 231 211c0 115 -65 185 -163 207c85 21 130 86 130 164c0 127 -77 214 -214 214zM310 15c-136 0 -209 92 -209 202v354c0 121 73 200 193 200s192 -73 192 -194
c0 -78 -51 -154 -170 -154h-38v-20h38c133 0 203 -90 203 -197c0 -110 -72 -191 -209 -191z" />
    <glyph glyph-name="_497" unicode="&#x3b3;" horiz-adv-x="532" 
d="M277 -231v239l231 550h-25l-217 -520l-216 520h-26l231 -550v-239h22z" />
    <glyph glyph-name="_498" unicode="&#x3b4;" horiz-adv-x="559" 
d="M108 778v-20l241 -198c-15 7 -42 11 -70 11c-155 0 -224 -109 -224 -288s69 -288 224 -288c156 0 225 109 225 288c0 120 -30 198 -88 246l-275 229h322v20h-355zM482 283c0 -173 -63 -268 -203 -268c-139 0 -202 95 -202 268s63 268 202 268c140 0 203 -95 203 -268z
" />
    <glyph glyph-name="_499" unicode="&#x3b5;" horiz-adv-x="512" 
d="M261 296c-114 0 -174 53 -174 128s63 127 174 127s174 -52 174 -127v-12h22v12c0 83 -71 147 -196 147c-126 0 -196 -64 -196 -147c0 -70 46 -122 130 -138c-86 -13 -142 -63 -142 -141c0 -94 81 -150 211 -150s211 63 211 157v2h-22v-2c0 -86 -78 -137 -189 -137
s-189 45 -189 130c0 86 78 131 189 131h59v20h-62z" />
    <glyph glyph-name="_500" unicode="&#x3b6;" horiz-adv-x="471" 
d="M73 228c0 199 156 423 359 529v21h-325v-20h296c-190 -101 -352 -323 -352 -530c0 -146 95 -237 359 -234c0 -44 -25 -107 -65 -171l19 -5c43 63 68 129 68 175c0 18 -5 20 -25 20c-238 0 -334 73 -334 215z" />
    <glyph glyph-name="_501" unicode="&#x3b7;" horiz-adv-x="583" 
d="M101 8v279c5 168 94 264 214 264c110 0 169 -73 169 -206v-576h22v576c0 143 -68 226 -189 226c-107 0 -186 -61 -216 -169v156h-22v-550h22z" />
    <glyph glyph-name="_502" unicode="&#x3b8;" horiz-adv-x="614" 
d="M550 393c0 179 -28 264 -75 323c-37 48 -90 75 -168 75s-131 -27 -168 -75c-48 -59 -75 -144 -75 -323s27 -264 75 -323c37 -48 90 -75 168 -75s131 27 168 75c47 59 75 144 75 323zM157 704c32 40 84 67 150 67s118 -27 150 -67c40 -51 70 -136 71 -301h-442
c1 165 30 250 71 301zM457 82c-32 -40 -84 -67 -150 -67s-118 27 -150 67c-41 51 -70 136 -71 301h442c-1 -165 -31 -250 -71 -301z" />
    <glyph glyph-name="_503" unicode="&#x3b9;" horiz-adv-x="188" 
d="M101 558h-22v-488c0 -50 16 -70 62 -70c4 0 12 0 20 1v19h-16c-35 0 -44 12 -44 53v485z" />
    <glyph glyph-name="_504" unicode="&#x3ba;" horiz-adv-x="472" 
d="M101 8v277h87l249 -277h28l-257 287l232 263h-27l-225 -253h-87v253h-22v-550h22z" />
    <glyph glyph-name="_505" unicode="&#x3bb;" horiz-adv-x="510" 
d="M243 552l-230 -544h25l217 517l217 -517h25l-292 693c-33 78 -62 90 -123 90c-8 0 -8 0 -15 -1v-19h14c52 0 78 -13 104 -76z" />
    <glyph glyph-name="_506" unicode="&#x3bc;" horiz-adv-x="585" 
d="M101 558h-22v-789h22v336c26 -73 86 -110 167 -110c107 0 186 61 216 169v-156h22v550h-22v-266c0 -176 -90 -277 -213 -277c-110 0 -170 73 -170 206v337z" />
    <glyph glyph-name="_507" unicode="&#x3bd;" horiz-adv-x="532" 
d="M255 8h22l231 550h-25l-217 -520l-216 520h-26z" />
    <glyph glyph-name="_508" unicode="&#x3be;" horiz-adv-x="494" 
d="M432 -6c0 -44 -25 -107 -65 -171l19 -5c43 63 68 129 68 175c0 18 -5 20 -25 20c-212 0 -356 79 -356 222c0 124 101 217 204 217h85v20h-110c-83 0 -145 62 -145 149c0 93 63 150 166 150c102 0 160 -56 166 -139h22c-4 83 -63 159 -188 159c-126 0 -188 -77 -188 -170
c0 -91 61 -151 134 -162c-96 -29 -168 -113 -168 -225c0 -150 147 -240 381 -240z" />
    <glyph glyph-name="_509" unicode="&#x3bf;" horiz-adv-x="559" 
d="M504 283c0 179 -69 288 -225 288c-155 0 -224 -109 -224 -288s69 -288 224 -288c156 0 225 109 225 288zM482 283c0 -173 -63 -268 -203 -268c-139 0 -202 95 -202 268s63 268 202 268c140 0 203 -95 203 -268z" />
    <glyph glyph-name="_510" unicode="&#x3c0;" horiz-adv-x="561" 
d="M141 538h279v-530h22v530h95v20h-513v-20h95v-530h22v530z" />
    <glyph glyph-name="_511" unicode="&#x3c1;" horiz-adv-x="570" 
d="M66 -231h22v370c28 -93 97 -144 202 -144c156 0 225 109 225 288s-69 288 -225 288c-155 0 -224 -109 -224 -288v-514zM493 283c0 -173 -63 -268 -203 -268c-139 0 -202 95 -202 268s63 268 202 268c140 0 203 -95 203 -268z" />
    <glyph glyph-name="_512" unicode="&#x3c3;" horiz-adv-x="559" 
d="M529 538v20h-250c-155 0 -224 -113 -224 -282c0 -168 69 -281 224 -281c156 0 225 113 225 281c0 127 -39 228 -133 262h158zM482 276c0 -161 -63 -261 -203 -261c-139 0 -202 100 -202 261c0 162 63 262 202 262c140 0 203 -100 203 -262z" />
    <glyph glyph-name="_513" unicode="&#x3c4;" horiz-adv-x="476" 
d="M450 558h-424v-20h195v-446c0 -61 27 -92 84 -92c10 0 23 0 30 1v19h-26c-44 0 -66 23 -66 75v443h207v20z" />
    <glyph glyph-name="_514" unicode="&#x3c5;" horiz-adv-x="570" 
d="M285 -5c133 0 212 76 212 233v330h-22v-330c0 -151 -71 -213 -190 -213s-190 62 -190 213v330h-22v-330c0 -157 79 -233 212 -233z" />
    <glyph glyph-name="_515" unicode="&#x3c6;" horiz-adv-x="746" 
d="M362 558v-543c-215 3 -285 80 -285 261c0 153 52 218 154 247l-4 20c-119 -33 -172 -110 -172 -267c0 -194 82 -278 307 -281v-226h22v226c224 3 307 87 307 281c0 195 -88 282 -310 282h-19zM669 276c0 -180 -71 -258 -285 -261v523c214 -3 285 -80 285 -262z" />
    <glyph glyph-name="_516" unicode="&#x3c7;" horiz-adv-x="521" 
d="M499 558h-24l-214 -365l-215 365h-24l227 -386l-238 -403h24l226 383l225 -383h24l-237 403z" />
    <glyph glyph-name="_517" unicode="&#x3c8;" horiz-adv-x="713" 
d="M367 -231v226c160 3 273 79 273 233v330h-22v-330c0 -147 -108 -210 -251 -213v543h-22v-543c-143 3 -250 66 -250 213v330h-22v-330c0 -154 112 -230 272 -233v-226h22z" />
    <glyph glyph-name="_518" unicode="&#x3c9;" horiz-adv-x="812" 
d="M406 132c18 -89 77 -137 162 -137c108 0 184 70 184 270c0 92 -19 192 -57 293h-22c39 -102 57 -205 57 -293c0 -183 -67 -250 -162 -250c-86 0 -151 59 -151 199v236h-22v-236c0 -140 -65 -199 -151 -199c-96 0 -163 67 -163 250c0 88 19 191 58 293h-22
c-38 -101 -58 -201 -58 -293c0 -200 76 -270 185 -270c85 0 144 48 162 137z" />
    <glyph glyph-name="_519" unicode="&#x2500;" 
d="M960 417h-960v-59h960v59z" />
    <glyph glyph-name="_520" unicode="&#x2502;" 
d="M451 888v-1000h59v1000h-59z" />
    <glyph glyph-name="_521" unicode="&#x250c;" 
d="M451 -112h59v470h450v59h-509v-529z" />
    <glyph glyph-name="_522" unicode="&#x2510;" 
d="M510 417h-510v-59h451v-470h59v529z" />
    <glyph glyph-name="_523" unicode="&#x2518;" 
d="M510 888h-59v-471h-451v-59h510v530z" />
    <glyph glyph-name="_524" unicode="&#x2514;" 
d="M451 358h509v59h-450v471h-59v-530z" />
    <glyph glyph-name="_525" unicode="&#x251c;" 
d="M451 888v-1000h59v470h450v59h-450v471h-59z" />
    <glyph glyph-name="_526" unicode="&#x252c;" 
d="M960 417h-960v-59h451v-470h59v470h450v59z" />
    <glyph glyph-name="_527" unicode="&#x2524;" 
d="M510 888h-59v-471h-451v-59h451v-470h59v1000z" />
    <glyph glyph-name="_528" unicode="&#x2534;" 
d="M960 358v59h-450v471h-59v-471h-451v-59h960z" />
    <glyph glyph-name="_529" unicode="&#x253c;" 
d="M451 888v-471h-451v-59h451v-470h59v470h450v59h-450v471h-59z" />
    <glyph glyph-name="_530" unicode="&#x2501;" 
d="M0 435v-94h960v94h-960z" />
    <glyph glyph-name="_531" unicode="&#x2503;" 
d="M433 888v-1000h94v1000h-94z" />
    <glyph glyph-name="_532" unicode="&#x250f;" 
d="M433 435v-547h94v453h433v94h-527z" />
    <glyph glyph-name="_533" unicode="&#x2513;" 
d="M0 435v-94h433v-453h94v547h-527z" />
    <glyph glyph-name="_534" unicode="&#x251b;" 
d="M433 888v-453h-433v-94h527v547h-94z" />
    <glyph glyph-name="_535" unicode="&#x2517;" 
d="M433 888v-547h527v94h-433v453h-94z" />
    <glyph glyph-name="_536" unicode="&#x2523;" 
d="M433 888v-1000h94v453h433v94h-433v453h-94z" />
    <glyph glyph-name="_537" unicode="&#x2533;" 
d="M0 341h433v-453h94v453h433v94h-960v-94z" />
    <glyph glyph-name="_538" unicode="&#x252b;" 
d="M0 341h433v-453h94v1000h-94v-453h-433v-94z" />
    <glyph glyph-name="_539" unicode="&#x253b;" 
d="M433 435h-433v-94h960v94h-433v453h-94v-453z" />
    <glyph glyph-name="_540" unicode="&#x254b;" 
d="M433 435h-433v-94h433v-453h94v453h433v94h-433v453h-94v-453z" />
    <glyph glyph-name="_541" unicode="&#x2520;" 
d="M960 405h-433v483h-94v-1000h94v481h433v36z" />
    <glyph glyph-name="_542" unicode="&#x252f;" 
d="M960 435h-960v-94h461v-453h37v453h462v94z" />
    <glyph glyph-name="_543" unicode="&#x2528;" 
d="M527 -112v1000h-94v-483h-433v-36h433v-481h94z" />
    <glyph glyph-name="_544" unicode="&#x2537;" 
d="M461 435h-461v-94h960v94h-462v453h-37v-453z" />
    <glyph glyph-name="_545" unicode="&#x253f;" 
d="M461 435h-461v-94h461v-453h37v453h462v94h-462v453h-37v-453z" />
    <glyph glyph-name="_546" unicode="&#x251d;" 
d="M960 435h-462v453h-37v-1000h37v453h462v94z" />
    <glyph glyph-name="_547" unicode="&#x2530;" 
d="M960 405h-960v-36h433v-481h94v481h433v36z" />
    <glyph glyph-name="_548" unicode="&#x2525;" 
d="M461 435h-461v-94h461v-453h37v1000h-37v-453z" />
    <glyph glyph-name="_549" unicode="&#x2538;" 
d="M433 405h-433v-36h960v36h-433v483h-94v-483z" />
    <glyph glyph-name="_550" unicode="&#x2542;" 
d="M433 405h-433v-36h433v-481h94v481h433v36h-433v483h-94v-483z" />
    <glyph glyph-name="_551" unicode="&#x2512;" 
d="M433 369v-481h94v517h-527v-36h433z" />
    <glyph glyph-name="_552" unicode="&#x2511;" 
d="M461 341v-453h37v547h-498v-94h461z" />
    <glyph glyph-name="_553" unicode="&#x251a;" 
d="M433 405h-433v-36h527v519h-94v-483z" />
    <glyph glyph-name="_554" unicode="&#x2519;" 
d="M461 435h-461v-94h498v547h-37v-453z" />
    <glyph glyph-name="_555" unicode="&#x2516;" 
d="M527 405v483h-94v-519h527v36h-433z" />
    <glyph glyph-name="_556" unicode="&#x2515;" 
d="M498 435v453h-37v-547h499v94h-462z" />
    <glyph glyph-name="_557" unicode="&#x250e;" 
d="M527 369h433v36h-527v-517h94v481z" />
    <glyph glyph-name="_558" unicode="&#x250d;" 
d="M461 435v-547h37v453h462v94h-499z" />
    <glyph glyph-name="_559" unicode="&#x251e;" 
d="M433 888v-519h28v-481h37v481h462v36h-433v483h-94z" />
    <glyph glyph-name="_560" unicode="&#x251f;" 
d="M461 888v-483h-28v-517h94v481h433v36h-462v483h-37z" />
    <glyph glyph-name="_561" unicode="&#x2521;" 
d="M461 -112h37v453h462v94h-433v453h-94v-547h28v-453z" />
    <glyph glyph-name="_562" unicode="&#x2522;" 
d="M433 -112h94v453h433v94h-462v453h-37v-453h-28v-547z" />
    <glyph glyph-name="_563" unicode="&#x2526;" 
d="M433 888v-483h-433v-36h461v-481h37v481h29v519h-94z" />
    <glyph glyph-name="_564" unicode="&#x2527;" 
d="M0 405v-36h433v-481h94v517h-29v483h-37v-483h-461z" />
    <glyph glyph-name="_565" unicode="&#x2529;" 
d="M0 341h461v-453h37v453h29v547h-94v-453h-433v-94z" />
    <glyph glyph-name="_566" unicode="&#x252a;" 
d="M0 341h433v-453h94v547h-29v453h-37v-453h-461v-94z" />
    <glyph glyph-name="_567" unicode="&#x252d;" 
d="M0 341h461v-453h37v481h462v36h-462v30h-498v-94z" />
    <glyph glyph-name="_568" unicode="&#x252e;" 
d="M0 369h461v-481h37v453h462v94h-499v-30h-461v-36z" />
    <glyph glyph-name="_569" unicode="&#x2531;" 
d="M0 341h433v-453h94v481h433v36h-433v30h-527v-94z" />
    <glyph glyph-name="_570" unicode="&#x2532;" 
d="M0 369h433v-481h94v453h433v94h-527v-30h-433v-36z" />
    <glyph glyph-name="_571" unicode="&#x2535;" 
d="M0 341h498v28h462v36h-462v483h-37v-453h-461v-94z" />
    <glyph glyph-name="_572" unicode="&#x2536;" 
d="M0 369h461v-28h499v94h-462v453h-37v-483h-461v-36z" />
    <glyph glyph-name="_573" unicode="&#x2539;" 
d="M0 341h527v28h433v36h-433v483h-94v-453h-433v-94z" />
    <glyph glyph-name="_574" unicode="&#x253a;" 
d="M0 369h433v-28h527v94h-433v453h-94v-483h-433v-36z" />
    <glyph glyph-name="_575" unicode="&#x253d;" 
d="M0 341h461v-453h37v481h462v36h-462v483h-37v-453h-461v-94z" />
    <glyph glyph-name="_576" unicode="&#x253e;" 
d="M498 888h-37v-483h-461v-36h461v-481h37v453h462v94h-462v453z" />
    <glyph glyph-name="_577" unicode="&#x2540;" 
d="M527 888h-94v-483h-433v-36h461v-481h37v481h462v36h-433v483z" />
    <glyph glyph-name="_578" unicode="&#x2541;" 
d="M498 888h-37v-483h-461v-36h433v-481h94v481h433v36h-462v483z" />
    <glyph glyph-name="_579" unicode="&#x2543;" 
d="M527 888h-94v-453h-433v-94h461v-453h37v453h29v28h433v36h-433v483z" />
    <glyph glyph-name="_580" unicode="&#x2544;" 
d="M498 -112v453h462v94h-433v453h-94v-483h-433v-36h433v-28h28v-453h37z" />
    <glyph glyph-name="_581" unicode="&#x2545;" 
d="M498 888h-37v-453h-461v-94h433v-453h94v481h433v36h-433v30h-29v453z" />
    <glyph glyph-name="_582" unicode="&#x2546;" 
d="M498 888h-37v-453h-28v-30h-433v-36h433v-481h94v452h433v95h-462v453z" />
    <glyph glyph-name="_583" unicode="&#x2547;" 
d="M527 888h-94v-453h-433v-94h461v-453h37v453h462v94h-433v453z" />
    <glyph glyph-name="_584" unicode="&#x2548;" 
d="M498 888h-37v-453h-461v-94h433v-453h94v453h433v94h-462v453z" />
    <glyph glyph-name="_585" unicode="&#x2549;" 
d="M527 888h-94v-453h-433v-94h433v-453h94v481h433v36h-433v483z" />
    <glyph glyph-name="_586" unicode="&#x254a;" 
d="M527 888h-94v-483h-433v-36h433v-481h94v453h433v94h-433v453z" />
    <glyph glyph-name="_587" unicode="&#x3395;" 
d="M134 558h-22v-789h22v322c21 -63 64 -96 122 -96c77 0 134 55 159 153v-140h21v550h-21v-266c0 -176 -66 -277 -157 -277c-81 0 -124 73 -124 206v337zM726 15c-73 0 -110 60 -118 159h-1c166 74 246 218 246 404v9c0 129 -48 204 -134 204c-87 0 -133 -75 -133 -204
v-399c-16 -6 -37 -13 -59 -19l7 -21c19 5 37 11 54 18c11 -103 55 -171 138 -171c78 0 126 57 138 161l-21 5c-11 -98 -52 -146 -117 -146zM719 771c71 0 113 -61 113 -183v-10c0 -175 -72 -311 -225 -381v391c0 122 41 183 112 183z" />
    <glyph glyph-name="_588" unicode="&#x3396;" 
d="M489 8h21v374c0 123 -39 189 -108 189c-54 0 -94 -50 -112 -137c-10 90 -48 137 -106 137c-52 0 -89 -49 -109 -130v117h-22v-550h22v263c0 180 47 280 108 280c56 0 88 -59 88 -174v-369h21v263c0 180 48 280 109 280c56 0 88 -59 88 -174v-369zM778 15
c-73 0 -110 60 -118 159h-1c166 74 246 218 246 404v9c0 129 -48 204 -134 204c-87 0 -133 -75 -133 -204v-399c-16 -6 -37 -13 -59 -19l7 -21c19 5 37 11 54 18c11 -103 55 -171 138 -171c78 0 126 57 138 161l-21 5c-11 -98 -52 -146 -117 -146zM771 771
c71 0 113 -61 113 -183v-10c0 -175 -72 -311 -225 -381v391c0 122 41 183 112 183z" />
    <glyph glyph-name="_589" unicode="&#x3397;" 
d="M104 283c0 -179 52 -288 168 -288c73 0 124 43 148 120v-107h22v770h-22v-327c-24 77 -75 120 -148 120c-116 0 -168 -109 -168 -288zM420 283c0 -173 -46 -268 -148 -268c-100 0 -146 95 -146 268s46 268 146 268c102 0 148 -95 148 -268zM733 15
c-73 0 -110 60 -118 159h-1c166 74 246 218 246 404v9c0 129 -48 204 -134 204c-87 0 -133 -75 -133 -204v-399c-16 -6 -37 -13 -59 -19l7 -21c19 5 37 11 54 18c11 -103 55 -171 138 -171c78 0 126 57 138 161l-21 5c-11 -98 -52 -146 -117 -146zM726 771
c71 0 113 -61 113 -183v-10c0 -175 -72 -311 -225 -381v391c0 122 41 183 112 183z" />
    <glyph glyph-name="_590" unicode="&#x2113;" horiz-adv-x="509" 
d="M283 15c-99 0 -150 60 -161 159c220 74 326 217 326 404v9c0 129 -61 204 -175 204c-115 0 -175 -75 -175 -204v-368c0 -11 0 -21 1 -31c-25 -7 -52 -14 -79 -19l9 -20c25 5 49 11 72 18c13 -105 71 -172 182 -172c102 0 163 57 180 161l-22 5
c-14 -98 -71 -146 -158 -146zM273 771c96 0 153 -61 153 -183v-10c0 -176 -98 -312 -305 -382c-1 8 -1 16 -1 24v368c0 122 57 183 153 183z" />
    <glyph glyph-name="_591" unicode="&#x3398;" 
d="M168 8v277h75l200 -277h26l-206 287l186 263h-26l-180 -253h-75v473h-22v-770h22zM723 15c-73 0 -110 60 -118 159h-1c166 74 246 218 246 404v9c0 129 -48 204 -134 204c-87 0 -133 -75 -133 -204v-399c-19 -7 -44 -16 -69 -23l7 -21c24 7 47 15 64 22
c11 -103 55 -171 138 -171c78 0 126 57 138 161l-21 5c-11 -98 -52 -146 -117 -146zM716 771c71 0 113 -61 113 -183v-10c0 -175 -72 -311 -225 -381v391c0 122 41 183 112 183z" />
    <glyph glyph-name="_592" unicode="&#x33c4;" 
d="M82 283c0 -179 56 -288 181 -288c103 0 162 69 174 183h-21c-12 -102 -63 -163 -153 -163c-110 0 -159 95 -159 268s49 268 159 268c90 0 141 -61 153 -163h21c-12 114 -71 183 -174 183c-125 0 -181 -109 -181 -288zM526 283c0 -179 56 -288 181 -288
c103 0 162 69 174 183h-22c-12 -102 -62 -163 -152 -163c-110 0 -160 95 -160 268s50 268 160 268c90 0 140 -61 152 -163h22c-12 114 -71 183 -174 183c-125 0 -181 -109 -181 -288z" />
    <glyph glyph-name="_593" unicode="&#x33a3;" 
d="M903 675c0 -32 -23 -53 -55 -53s-55 24 -55 63h-21c0 -49 29 -81 76 -81s76 28 76 72c0 30 -15 52 -37 61c20 9 30 30 30 55c0 34 -26 63 -69 63s-69 -29 -69 -63v-12h21v12c0 26 19 45 48 45c30 0 49 -19 49 -45c0 -24 -14 -46 -44 -46h-31v-18h29c33 0 52 -21 52 -53z
M417 8h21v374c0 123 -33 189 -92 189c-44 0 -76 -46 -92 -124c-11 80 -42 124 -89 124s-77 -54 -90 -125v112h-21v-550h21v263c0 180 40 280 89 280c46 0 72 -59 72 -174v-369h21v263c0 180 39 280 88 280c47 0 72 -59 72 -174v-369zM887 8h21v374c0 123 -33 189 -92 189
c-44 0 -76 -46 -92 -124c-11 80 -42 124 -89 124s-77 -54 -90 -125v112h-21v-550h21v263c0 180 40 280 89 280c46 0 72 -59 72 -174v-369h21v263c0 180 39 280 88 280c47 0 72 -59 72 -174v-369z" />
    <glyph glyph-name="_594" unicode="&#x33a4;" 
d="M40 283c0 -179 53 -288 169 -288c96 0 151 69 163 183h-21c-12 -102 -58 -163 -142 -163c-102 0 -147 95 -147 268s45 268 147 268c84 0 130 -61 142 -163h21c-12 114 -67 183 -163 183c-116 0 -169 -109 -169 -288zM903 675c0 -32 -23 -53 -55 -53s-55 24 -55 63h-21
c0 -49 29 -81 76 -81s76 28 76 72c0 30 -15 52 -37 61c20 9 30 30 30 55c0 34 -26 63 -69 63s-69 -29 -69 -63v-12h21v12c0 26 19 45 48 45c30 0 49 -19 49 -45c0 -24 -14 -46 -44 -46h-31v-18h29c33 0 52 -21 52 -53zM879 8h21v374c0 123 -39 189 -108 189
c-54 0 -94 -50 -112 -137c-10 90 -48 137 -106 137c-52 0 -89 -49 -109 -130v117h-22v-550h22v263c0 180 47 280 108 280c56 0 88 -59 88 -174v-369h21v263c0 180 48 280 109 280c56 0 88 -59 88 -174v-369z" />
    <glyph glyph-name="_595" unicode="&#x33a5;" 
d="M801 8h22v374c0 123 -61 189 -165 189c-90 0 -159 -65 -181 -171c-6 114 -67 171 -165 171c-90 0 -154 -64 -180 -171v158h-22v-550h22v263c0 180 79 280 178 280c94 0 146 -59 146 -174v-369h22v263c0 180 79 280 178 280c94 0 145 -59 145 -174v-369zM903 675
c0 -32 -23 -53 -55 -53s-55 24 -55 63h-21c0 -49 29 -81 76 -81s76 28 76 72c0 30 -15 52 -37 61c20 9 30 30 30 55c0 34 -26 63 -69 63s-69 -29 -69 -63v-12h21v12c0 26 19 45 48 45c30 0 49 -19 49 -45c0 -24 -14 -46 -44 -46h-31v-18h29c33 0 52 -21 52 -53z" />
    <glyph glyph-name="_596" unicode="&#x33a6;" 
d="M74 8v277h76l224 -277h27l-231 287l209 263h-26l-203 -253h-76v473h-22v-770h22zM903 675c0 -32 -23 -53 -55 -53s-55 24 -55 63h-21c0 -49 29 -81 76 -81s76 28 76 72c0 30 -15 52 -37 61c20 9 30 30 30 55c0 34 -26 63 -69 63s-69 -29 -69 -63v-12h21v12
c0 26 19 45 48 45c30 0 49 -19 49 -45c0 -24 -14 -46 -44 -46h-31v-18h29c33 0 52 -21 52 -53zM874 8h21v374c0 123 -39 189 -108 189c-54 0 -94 -50 -112 -137c-10 90 -48 137 -106 137c-52 0 -89 -49 -109 -130v117h-22v-550h22v263c0 180 47 280 108 280
c56 0 88 -59 88 -174v-369h21v263c0 180 48 280 109 280c56 0 88 -59 88 -174v-369z" />
    <glyph glyph-name="_597" unicode="&#x3399;" 
d="M852 8h21v374c0 123 -39 189 -108 189c-54 0 -94 -50 -112 -137c-10 90 -48 137 -106 137c-52 0 -89 -49 -109 -130v117h-22v-550h22v263c0 180 47 280 108 280c56 0 88 -59 88 -174v-369h21v263c0 180 48 280 109 280c56 0 88 -59 88 -174v-369zM340 766v19
c-15 1 -31 1 -46 1c-112 0 -149 -35 -149 -146v-82h-85v-20h85v-530h22v530h173v20h-173v78c0 100 27 130 126 130h47z" />
    <glyph glyph-name="_598" unicode="&#x339a;" 
d="M80 8v279c3 168 61 264 138 264c70 0 108 -73 108 -206v-337h22v337c0 143 -47 226 -129 226c-66 0 -116 -50 -139 -142v129h-22v-550h22zM882 8h21v374c0 123 -39 189 -108 189c-54 0 -94 -50 -112 -137c-10 90 -48 137 -106 137c-52 0 -89 -49 -109 -130v117h-22v-550
h22v263c0 180 47 280 108 280c56 0 88 -59 88 -174v-369h21v263c0 180 48 280 109 280c56 0 88 -59 88 -174v-369z" />
    <glyph glyph-name="_599" unicode="&#x339b;" 
d="M77 558h-22v-789h22v313c19 -58 56 -87 106 -87c66 0 116 49 139 141v-128h22v550h-22v-266c0 -176 -58 -277 -137 -277c-71 0 -108 73 -108 206v337zM882 8h21v374c0 123 -39 189 -108 189c-54 0 -94 -50 -112 -137c-10 90 -48 137 -106 137c-52 0 -89 -49 -109 -130
v117h-22v-550h22v263c0 180 47 280 108 280c56 0 88 -59 88 -174v-369h21v263c0 180 48 280 109 280c56 0 88 -59 88 -174v-369z" />
    <glyph glyph-name="_600" unicode="&#x339c;" 
d="M417 8h21v374c0 123 -33 189 -92 189c-44 0 -76 -46 -92 -124c-11 80 -42 124 -89 124s-77 -54 -90 -125v112h-21v-550h21v263c0 180 40 280 89 280c46 0 72 -59 72 -174v-369h21v263c0 180 39 280 88 280c47 0 72 -59 72 -174v-369zM887 8h21v374c0 123 -33 189 -92 189
c-44 0 -76 -46 -92 -124c-11 80 -42 124 -89 124s-77 -54 -90 -125v112h-21v-550h21v263c0 180 40 280 89 280c46 0 72 -59 72 -174v-369h21v263c0 180 39 280 88 280c47 0 72 -59 72 -174v-369z" />
    <glyph glyph-name="_601" unicode="&#x339d;" 
d="M43 283c0 -179 53 -288 169 -288c96 0 151 69 163 183h-21c-12 -102 -58 -163 -142 -163c-102 0 -147 95 -147 268s45 268 147 268c84 0 130 -61 142 -163h21c-12 114 -67 183 -163 183c-116 0 -169 -109 -169 -288zM882 8h21v374c0 123 -39 189 -108 189
c-54 0 -94 -50 -112 -137c-10 90 -48 137 -106 137c-52 0 -89 -49 -109 -130v117h-22v-550h22v263c0 180 47 280 108 280c56 0 88 -59 88 -174v-369h21v263c0 180 48 280 109 280c56 0 88 -59 88 -174v-369z" />
    <glyph glyph-name="_602" unicode="&#x339e;" 
d="M84 8v277h76l224 -277h27l-231 287l209 263h-26l-203 -253h-76v473h-22v-770h22zM884 8h21v374c0 123 -39 189 -108 189c-54 0 -94 -50 -112 -137c-10 90 -48 137 -106 137c-52 0 -89 -49 -109 -130v117h-22v-550h22v263c0 180 47 280 108 280c56 0 88 -59 88 -174v-369
h21v263c0 180 48 280 109 280c56 0 88 -59 88 -174v-369z" />
    <glyph glyph-name="_603" unicode="&#x339f;" 
d="M918 784c0 38 -24 72 -72 72s-72 -34 -72 -72v-13h20v12c0 31 19 55 52 55s52 -24 52 -55c0 -16 -6 -31 -20 -46l-101 -114v-14h145v18h-116l87 98c18 21 25 39 25 59zM417 8h21v374c0 123 -33 189 -92 189c-44 0 -76 -46 -92 -124c-11 80 -42 124 -89 124
s-77 -54 -90 -125v112h-21v-550h21v263c0 180 40 280 89 280c46 0 72 -59 72 -174v-369h21v263c0 180 39 280 88 280c47 0 72 -59 72 -174v-369zM887 8h21v374c0 123 -33 189 -92 189c-44 0 -76 -46 -92 -124c-11 80 -42 124 -89 124s-77 -54 -90 -125v112h-21v-550h21v263
c0 180 40 280 89 280c46 0 72 -59 72 -174v-369h21v263c0 180 39 280 88 280c47 0 72 -59 72 -174v-369z" />
    <glyph glyph-name="_604" unicode="&#x33a0;" 
d="M40 283c0 -179 53 -288 169 -288c96 0 151 69 163 183h-21c-12 -102 -58 -163 -142 -163c-102 0 -147 95 -147 268s45 268 147 268c84 0 130 -61 142 -163h21c-12 114 -67 183 -163 183c-116 0 -169 -109 -169 -288zM879 8h21v374c0 123 -39 189 -108 189
c-54 0 -94 -50 -112 -137c-10 90 -48 137 -106 137c-52 0 -89 -49 -109 -130v117h-22v-550h22v263c0 180 47 280 108 280c56 0 88 -59 88 -174v-369h21v263c0 180 48 280 109 280c56 0 88 -59 88 -174v-369zM918 784c0 38 -24 72 -72 72s-72 -34 -72 -72v-13h20v12
c0 31 19 55 52 55s52 -24 52 -55c0 -16 -6 -31 -20 -46l-101 -114v-14h145v18h-116l87 98c18 21 25 39 25 59z" />
    <glyph glyph-name="_605" unicode="&#x33a1;" 
d="M801 8h22v374c0 123 -61 189 -165 189c-90 0 -159 -65 -181 -171c-6 114 -67 171 -165 171c-90 0 -154 -64 -180 -171v158h-22v-550h22v263c0 180 79 280 178 280c94 0 146 -59 146 -174v-369h22v263c0 180 79 280 178 280c94 0 145 -59 145 -174v-369zM918 784
c0 38 -24 72 -72 72s-72 -34 -72 -72v-13h20v12c0 31 19 55 52 55s52 -24 52 -55c0 -16 -6 -31 -20 -46l-101 -114v-14h145v18h-116l87 98c18 21 25 39 25 59z" />
    <glyph glyph-name="_606" unicode="&#x33a2;" 
d="M74 8v277h76l224 -277h27l-231 287l209 263h-26l-203 -253h-76v473h-22v-770h22zM874 8h21v374c0 123 -39 189 -108 189c-54 0 -94 -50 -112 -137c-10 90 -48 137 -106 137c-52 0 -89 -49 -109 -130v117h-22v-550h22v263c0 180 47 280 108 280c56 0 88 -59 88 -174v-369
h21v263c0 180 48 280 109 280c56 0 88 -59 88 -174v-369zM918 784c0 38 -24 72 -72 72s-72 -34 -72 -72v-13h20v12c0 31 19 55 52 55s52 -24 52 -55c0 -16 -6 -31 -20 -46l-101 -114v-14h145v18h-116l87 98c18 21 25 39 25 59z" />
    <glyph glyph-name="_607" unicode="&#x33ca;" 
d="M120 8v279c4 168 69 264 159 264c83 0 127 -73 127 -206v-337h22v337c0 143 -54 226 -147 226c-78 0 -136 -55 -161 -153v140h-22v-550h22zM838 170c0 -94 -47 -155 -147 -155c-99 0 -145 61 -145 155c0 93 46 155 145 155c100 0 147 -62 147 -155zM860 374
c0 119 -57 197 -160 197c-101 0 -149 -68 -157 -166h22c7 88 47 146 135 146c91 0 138 -70 138 -173v-116c-22 51 -73 83 -148 83c-109 0 -166 -70 -166 -175c0 -106 57 -175 166 -175c76 0 127 30 148 82c0 -25 4 -49 12 -69h22c-7 21 -12 47 -12 76v290z" />
    <glyph glyph-name="_608" unicode="&#x338d;" 
d="M109 558h-22v-789h22v322c22 -65 66 -96 125 -96c78 0 137 55 162 153v-140h22v550h-22v-266c0 -176 -68 -277 -160 -277c-83 0 -127 73 -127 206v337zM850 283c0 -173 -47 -268 -153 -268c-104 0 -151 95 -151 268s47 268 151 268c106 0 153 -95 153 -268zM552 -89
c9 -90 63 -157 158 -157c107 0 161 87 161 214v590h-21v-115c-24 82 -76 128 -153 128c-118 0 -173 -109 -173 -288s55 -288 173 -288c77 0 129 46 153 128v-155c0 -121 -51 -194 -140 -194c-78 0 -128 55 -137 137h-21z" />
    <glyph glyph-name="_609" unicode="&#x338e;" 
d="M884 283c0 -173 -43 -268 -137 -268c-91 0 -135 95 -135 268s44 268 135 268c94 0 137 -95 137 -268zM615 -89c8 -90 57 -157 144 -157c97 0 147 87 147 214v590h-22v-107c-23 77 -68 120 -137 120c-107 0 -157 -109 -157 -288s50 -288 157 -288c69 0 114 43 137 120
v-147c0 -121 -46 -194 -125 -194c-69 0 -114 55 -122 137h-22zM489 8h21v374c0 123 -39 189 -108 189c-54 0 -94 -50 -112 -137c-10 90 -48 137 -106 137c-52 0 -89 -49 -109 -130v117h-22v-550h22v263c0 180 47 280 108 280c56 0 88 -59 88 -174v-369h21v263
c0 180 48 280 109 280c56 0 88 -59 88 -174v-369z" />
    <glyph glyph-name="_610" unicode="&#x338f;" 
d="M148 8v277h75l200 -277h26l-206 287l186 263h-26l-180 -253h-75v473h-22v-770h22zM820 283c0 -173 -47 -268 -153 -268c-104 0 -151 95 -151 268s47 268 151 268c106 0 153 -95 153 -268zM522 -89c9 -90 63 -157 158 -157c107 0 161 87 161 214v590h-21v-115
c-24 82 -76 128 -153 128c-118 0 -173 -109 -173 -288s55 -288 173 -288c77 0 129 46 153 128v-155c0 -121 -51 -194 -140 -194c-78 0 -128 55 -137 137h-21z" />
    <glyph glyph-name="_611" unicode="&#x33cf;" 
d="M147 8v277h87l249 -277h28l-257 287l232 263h-27l-225 -253h-87v473h-22v-770h22zM674 538h184v20h-184v156h-22v-156h-85v-20h85v-389c0 -113 51 -149 154 -149c16 0 32 0 52 1v19h-53c-82 0 -131 25 -131 127v391z" />
    <glyph glyph-name="_612" unicode="&#x3388;" 
d="M53 283c0 -179 49 -288 157 -288c88 0 140 69 150 183h-22c-10 -102 -53 -163 -128 -163c-93 0 -135 95 -135 268s42 268 135 268c75 0 118 -61 128 -163h22c-10 114 -62 183 -150 183c-108 0 -157 -109 -157 -288zM719 170c0 -94 -42 -155 -130 -155s-130 61 -130 155
c0 93 42 155 130 155s130 -62 130 -155zM741 374c0 119 -51 197 -144 197c-92 0 -136 -68 -143 -166h22c6 88 43 146 121 146c80 0 122 -70 122 -173v-110c-21 51 -64 77 -132 77c-98 0 -150 -70 -150 -175c0 -106 52 -175 150 -175c66 0 111 29 132 77c0 -22 4 -48 10 -64
h23c-7 21 -11 47 -11 76v290zM879 8v770h-22v-770h22z" />
    <glyph glyph-name="_613" unicode="&#x3389;" 
d="M90 8v277h44l139 -277h25l-145 287l130 263h-24l-125 -253h-44v473h-22v-770h22zM299 283c0 -179 36 -288 114 -288c64 0 102 69 109 183h-22c-7 -102 -36 -163 -87 -163c-63 0 -91 95 -91 268s28 268 91 268c51 0 80 -61 87 -163h22c-7 114 -45 183 -109 183
c-78 0 -114 -109 -114 -288zM765 170c0 -94 -28 -155 -88 -155c-59 0 -88 61 -88 155c0 93 29 155 88 155c60 0 88 -62 88 -155zM788 374c0 119 -38 197 -105 197c-66 0 -99 -68 -104 -166h22c4 88 29 146 82 146c54 0 82 -70 82 -173v-92c-16 39 -45 59 -89 59
c-71 0 -109 -70 -109 -175c0 -106 38 -175 109 -175c43 0 74 22 90 62c1 -18 2 -36 6 -49h23c-5 21 -7 47 -7 76v290zM899 8v770h-22v-770h22z" />
    <glyph glyph-name="_614" unicode="&#x33c8;" 
d="M75 283c0 -179 50 -288 160 -288c69 0 117 43 139 120v-107h23v770h-23v-327c-22 77 -70 120 -139 120c-110 0 -160 -109 -160 -288zM374 283c0 -173 -44 -268 -139 -268s-138 95 -138 268s43 268 138 268s139 -95 139 -268zM543 413v345h169c93 0 133 -65 133 -173
c0 -107 -40 -172 -133 -172h-169zM715 8c110 0 168 61 168 202c0 109 -40 173 -112 194c55 19 97 75 97 183c0 118 -50 191 -153 191h-194v-770h194zM861 210c0 -112 -38 -182 -150 -182h-168v365h168c112 0 150 -70 150 -183z" />
    <glyph glyph-name="_615" unicode="&#x33a7;" 
d="M904 430c0 77 -46 141 -126 141c-79 0 -124 -64 -124 -141c0 -76 33 -120 102 -141c19 -6 39 -12 55 -17c59 -18 83 -55 83 -124c0 -83 -46 -133 -110 -133c-63 0 -109 50 -109 133v21h-24v-21c0 -94 58 -153 133 -153c76 0 133 59 133 153c0 78 -31 123 -99 143
c-18 5 -36 10 -54 16c-60 20 -88 52 -88 122c0 71 38 122 102 122c66 0 102 -51 102 -121v-23h24v23zM400 8h22v374c0 123 -33 189 -89 189c-42 0 -74 -45 -89 -121c-10 80 -41 121 -86 121c-39 0 -68 -43 -85 -112v99h-23v-550h23v263c0 180 37 280 84 280
c44 0 69 -59 69 -174v-369h22v263c0 180 36 280 84 280c44 0 68 -59 68 -174v-369zM617 778l-172 -1007h22l172 1007h-22z" />
    <glyph glyph-name="_616" unicode="&#x33a8;" 
d="M904 430c0 77 -46 141 -126 141c-79 0 -124 -64 -124 -141c0 -76 33 -120 102 -141c19 -6 39 -12 55 -17c59 -18 83 -55 83 -124c0 -83 -46 -133 -110 -133c-63 0 -109 50 -109 133v21h-24v-21c0 -94 58 -153 133 -153c76 0 133 59 133 153c0 78 -31 123 -99 143
c-18 5 -36 10 -54 16c-60 20 -88 52 -88 122c0 71 38 122 102 122c66 0 102 -51 102 -121v-23h24v23zM400 8h22v374c0 123 -33 189 -89 189c-42 0 -74 -45 -89 -121c-10 80 -41 121 -86 121c-39 0 -68 -43 -85 -112v99h-23v-550h23v263c0 180 37 280 84 280
c44 0 69 -59 69 -174v-369h22v263c0 180 36 280 84 280c44 0 68 -59 68 -174v-369zM617 778l-172 -1007h22l172 1007h-22zM918 794c0 38 -24 72 -72 72s-72 -34 -72 -72v-13h20v12c0 31 19 55 52 55s52 -24 52 -55c0 -16 -6 -31 -20 -46l-101 -114v-14h145v18h-116l87 98
c18 21 25 39 25 59z" />
    <glyph glyph-name="_617" unicode="&#x33b0;" 
d="M463 283c0 179 -56 288 -181 288c-80 0 -135 -50 -160 -130v117h-22v-789h22v356c23 -89 76 -130 160 -130c125 0 181 109 181 288zM442 283c0 -173 -50 -268 -160 -268c-111 0 -160 95 -160 268s49 268 160 268c110 0 160 -95 160 -268zM859 430c0 77 -54 141 -152 141
c-97 0 -151 -64 -151 -141c0 -78 36 -121 124 -142c23 -5 46 -11 69 -16c77 -19 105 -55 105 -124c0 -83 -59 -133 -139 -133c-81 0 -140 50 -140 133v21h-22v-21c0 -94 69 -153 162 -153s161 59 161 153c0 77 -31 122 -119 143c-23 5 -46 11 -69 16
c-78 19 -111 52 -111 122c0 71 48 122 130 122c83 0 130 -51 130 -121v-23h22v23z" />
    <glyph glyph-name="_618" unicode="&#x33b1;" 
d="M123 8v279c4 168 74 264 169 264c87 0 133 -73 133 -206v-337h22v337c0 143 -56 226 -153 226c-83 0 -144 -55 -171 -153v140h-22v-550h22zM859 430c0 77 -54 141 -152 141c-97 0 -151 -64 -151 -141c0 -78 36 -121 124 -142c23 -5 46 -11 69 -16
c77 -19 105 -55 105 -124c0 -83 -59 -133 -139 -133c-81 0 -140 50 -140 133v21h-22v-21c0 -94 69 -153 162 -153s161 59 161 153c0 77 -31 122 -119 143c-23 5 -46 11 -69 16c-78 19 -111 52 -111 122c0 71 48 122 130 122c83 0 130 -51 130 -121v-23h22v23z" />
    <glyph glyph-name="_619" unicode="&#x33b2;" 
d="M131 558h-22v-789h22v322c23 -65 70 -96 131 -96c83 0 144 55 171 153v-140h22v550h-22v-266c0 -176 -71 -277 -168 -277c-87 0 -134 73 -134 206v337zM859 430c0 77 -54 141 -152 141c-97 0 -151 -64 -151 -141c0 -78 36 -121 124 -142c23 -5 46 -11 69 -16
c77 -19 105 -55 105 -124c0 -83 -59 -133 -139 -133c-81 0 -140 50 -140 133v21h-22v-21c0 -94 69 -153 162 -153s161 59 161 153c0 77 -31 122 -119 143c-23 5 -46 11 -69 16c-78 19 -111 52 -111 122c0 71 48 122 130 122c83 0 130 -51 130 -121v-23h22v23z" />
    <glyph glyph-name="_620" unicode="&#x33b3;" 
d="M886 430c0 77 -48 141 -134 141c-87 0 -135 -64 -135 -141c0 -78 32 -120 110 -142c19 -5 41 -11 60 -16c66 -19 92 -54 92 -124c0 -83 -52 -133 -121 -133c-70 0 -121 50 -121 133v21h-22v-21c0 -94 60 -153 143 -153s143 59 143 153c0 77 -28 122 -105 143
c-19 5 -41 11 -60 16c-68 19 -97 52 -97 122c0 71 42 122 113 122s112 -51 112 -121v-23h22v23zM499 8h21v374c0 123 -39 189 -108 189c-54 0 -94 -50 -112 -137c-10 90 -48 137 -106 137c-52 0 -89 -49 -109 -130v117h-22v-550h22v263c0 180 47 280 108 280
c56 0 88 -59 88 -174v-369h21v263c0 180 48 280 109 280c56 0 88 -59 88 -174v-369z" />
    <glyph glyph-name="_621" unicode="&#x33b4;" 
d="M464 283c0 179 -56 288 -181 288c-80 0 -135 -50 -160 -130v117h-22v-789h22v356c23 -89 76 -130 160 -130c125 0 181 109 181 288zM443 283c0 -173 -50 -268 -160 -268c-111 0 -160 95 -160 268s49 268 160 268c110 0 160 -95 160 -268zM468 778h-23l237 -770h19
l237 770h-23l-223 -728z" />
    <glyph glyph-name="_622" unicode="&#x33b5;" 
d="M123 8v279c4 168 74 264 169 264c87 0 133 -73 133 -206v-337h22v337c0 143 -56 226 -153 226c-83 0 -144 -55 -171 -153v140h-22v-550h22zM468 778h-23l237 -770h19l237 770h-23l-223 -728z" />
    <glyph glyph-name="_623" unicode="&#x33b6;" 
d="M117 558h-22v-789h22v322c23 -65 70 -96 131 -96c83 0 144 55 171 153v-140h22v550h-22v-266c0 -176 -71 -277 -168 -277c-87 0 -134 73 -134 206v337zM468 778h-23l237 -770h19l237 770h-23l-223 -728z" />
    <glyph glyph-name="_624" unicode="&#x33b7;" 
d="M532 778h-23l208 -770h19l208 770h-23l-195 -723zM495 8h21v374c0 123 -39 189 -108 189c-54 0 -94 -50 -112 -137c-10 90 -48 137 -106 137c-52 0 -89 -49 -109 -130v117h-22v-550h22v263c0 180 47 280 108 280c56 0 88 -59 88 -174v-369h21v263c0 180 48 280 109 280
c56 0 88 -59 88 -174v-369z" />
    <glyph glyph-name="_625" unicode="&#x33b8;" 
d="M463 778h-23l237 -770h19l237 770h-23l-223 -728zM143 8v277h75l210 -277h26l-216 287l196 263h-26l-190 -253h-75v473h-22v-770h22z" />
    <glyph glyph-name="_626" unicode="&#x33b9;" 
d="M300 8l190 690v-690h22v770h-22l-201 -732l-202 732h-21v-770h21v690l190 -690h23zM584 778h-22l178 -770h19l178 770h-22l-165 -716z" />
    <glyph glyph-name="_627" unicode="&#x3380;" 
d="M468 8l64 211h317l66 -211h23l-238 770h-18l-238 -770h24zM844 239h-306l153 497zM408 283c0 179 -50 288 -160 288c-69 0 -117 -43 -139 -120v107h-22v-789h22v346c22 -77 70 -120 139 -120c110 0 160 109 160 288zM386 283c0 -173 -43 -268 -138 -268
c-96 0 -139 95 -139 268s43 268 139 268c95 0 138 -95 138 -268z" />
    <glyph glyph-name="_628" unicode="&#x3381;" 
d="M107 8v279c3 168 64 264 147 264c74 0 115 -73 115 -206v-337h21v337c0 143 -48 226 -135 226c-71 0 -124 -50 -148 -142v129h-22v-550h22zM468 8l64 211h317l66 -211h23l-238 770h-18l-238 -770h24zM844 239h-306l153 497z" />
    <glyph glyph-name="_629" unicode="&#x3382;" 
d="M110 558h-22v-789h22v315c21 -58 62 -89 114 -89c69 0 123 51 148 141v-128h21v550h-21v-266c0 -176 -62 -277 -146 -277c-75 0 -116 73 -116 206v337zM468 8l64 211h317l66 -211h23l-238 770h-18l-238 -770h24zM844 239h-306l153 497z" />
    <glyph glyph-name="_630" unicode="&#x3383;" 
d="M539 8l57 211h274l58 -211h23l-208 770h-19l-208 -770h23zM865 239h-264l132 492zM482 8h21v374c0 123 -39 189 -108 189c-54 0 -94 -50 -112 -137c-10 90 -48 137 -106 137c-52 0 -89 -49 -109 -130v117h-22v-550h22v263c0 180 47 280 108 280c56 0 88 -59 88 -174v-369
h21v263c0 180 48 280 109 280c56 0 88 -59 88 -174v-369z" />
    <glyph glyph-name="_631" unicode="&#x3384;" 
d="M834 239h-306l153 497zM418 8h40l64 211h317l66 -211h23l-238 770h-18l-235 -761l-209 278l196 263h-26l-190 -253h-75v473h-22v-770h22v277h75z" />
    <glyph glyph-name="_632" unicode="&#x33ba;" 
d="M356 283c0 179 -43 288 -139 288c-57 0 -97 -37 -117 -108v95h-22v-789h22v334c20 -71 60 -108 117 -108c96 0 139 109 139 288zM335 283c0 -173 -37 -268 -118 -268s-117 95 -117 268s36 268 117 268s118 -95 118 -268zM646 778l-135 -708l-126 708h-22l136 -770h21
l136 709l136 -709h21l137 770h-23l-125 -708l-136 708h-20z" />
    <glyph glyph-name="_633" unicode="&#x33bb;" 
d="M95 8v279c3 168 54 264 124 264c63 0 97 -73 97 -206v-337h22v337c0 143 -42 226 -118 226c-59 0 -103 -45 -125 -131v118h-22v-550h22zM646 778l-135 -708l-126 708h-22l136 -770h21l136 709l136 -709h21l137 770h-23l-125 -708l-136 708h-20z" />
    <glyph glyph-name="_634" unicode="&#x33bc;" 
d="M95 558h-22v-789h22v306c18 -56 50 -80 96 -80c59 0 103 45 125 131v-118h22v550h-22v-266c0 -176 -52 -277 -123 -277c-63 0 -98 73 -98 206v337zM646 778l-135 -708l-126 708h-22l136 -770h21l136 709l136 -709h21l137 770h-23l-125 -708l-136 708h-20z" />
    <glyph glyph-name="_635" unicode="&#x33bd;" 
d="M690 778l-112 -696l-101 696h-23l114 -770h20l112 699l112 -699h21l114 770h-24l-100 -697l-113 697h-20zM417 8h21v374c0 123 -33 189 -92 189c-44 0 -76 -46 -92 -124c-11 80 -42 124 -89 124s-77 -54 -90 -125v112h-21v-550h21v263c0 180 40 280 89 280
c46 0 72 -59 72 -174v-369h21v263c0 180 39 280 88 280c47 0 72 -59 72 -174v-369z" />
    <glyph glyph-name="_636" unicode="&#x33be;" 
d="M84 8v277h66l214 -277h27l-221 287l199 263h-26l-193 -253h-66v473h-22v-770h22zM646 778l-135 -708l-126 708h-22l136 -770h21l136 709l136 -709h21l137 770h-23l-125 -708l-136 708h-20z" />
    <glyph glyph-name="_637" unicode="&#x33bf;" 
d="M255 8l140 660v-660h22v770h-22l-152 -718l-152 718h-22v-770h22v660l140 -660h24zM687 778l-102 -688l-93 688h-23l105 -770h22l101 688l101 -688h23l104 770h-23l-93 -687l-101 687h-21z" />
    <glyph glyph-name="_638" unicode="&#x3390;" 
d="M454 8h23v770h-23v-365h-327v365h-22v-770h22v385h327v-385zM887 558h-297v-20h272l-280 -510v-20h311v20h-285l279 510v20z" />
    <glyph glyph-name="_639" unicode="&#x3391;" 
d="M85 8v277h55l174 -277h26l-180 287l162 263h-25l-157 -253h-55v473h-22v-770h22zM612 8h22v770h-22v-365h-223v365h-22v-770h22v385h223v-385zM921 558h-214v-20h190l-196 -510v-20h224v20h-199l195 510v20z" />
    <glyph glyph-name="_640" unicode="&#x3392;" 
d="M215 8l130 662v-662h22v770h-22l-142 -720l-142 720h-22v-770h22v662l130 -662h24zM647 8h22v770h-22v-365h-173v365h-22v-770h22v385h173v-385zM931 558h-204v-20h180l-186 -510v-20h214v20h-189l185 510v20z" />
    <glyph glyph-name="_641" unicode="&#x3393;" 
d="M43 393c0 -139 11 -252 41 -319c22 -49 60 -79 104 -79c46 0 80 25 105 80c7 16 12 35 16 53v-120h21v374h-144v-20h123v-64c0 -89 -16 -168 -35 -211c-22 -49 -51 -72 -86 -72s-66 26 -86 72c-29 68 -38 181 -38 306s8 237 38 306c20 46 51 72 86 72
c75 0 114 -95 119 -239h21c-5 160 -55 259 -140 259c-44 0 -82 -30 -104 -79c-30 -67 -41 -180 -41 -319zM638 8h21v770h-21v-365h-207v365h-21v-770h21v385h207v-385zM921 558h-202v-20h179l-184 -510v-20h211v20h-188l184 510v20z" />
    <glyph glyph-name="_642" unicode="&#x3394;" 
d="M612 8h22v770h-22v-365h-213v365h-22v-770h22v385h213v-385zM921 558h-214v-20h190l-196 -510v-20h224v20h-199l195 510v20zM17 758h144v-750h22v750h144v20h-310v-20z" />
    <glyph glyph-name="_643" unicode="&#x2126;" horiz-adv-x="693" 
d="M346 791c-85 0 -151 -26 -198 -79c-59 -68 -82 -178 -82 -319c0 -176 37 -319 166 -365h-142v-20h195v20c-162 38 -197 196 -197 365c0 127 18 236 77 306c42 48 104 72 181 72c78 0 140 -24 182 -72c59 -70 77 -179 77 -306c0 -169 -35 -327 -197 -365v-20h195v20h-142
c129 46 166 189 166 365c0 141 -23 251 -83 319c-46 53 -112 79 -198 79z" />
    <glyph glyph-name="_644" unicode="&#x33c0;" 
d="M678 791c-66 0 -116 -26 -152 -79c-44 -68 -61 -178 -61 -319c0 -168 33 -315 126 -365h-108v-20h152v19c-121 38 -148 196 -148 366c0 127 14 237 58 307c31 48 76 71 133 71c55 0 102 -24 133 -71c42 -70 58 -183 58 -307c0 -170 -26 -328 -148 -366v-19h153v20h-109
c94 50 127 197 127 365c0 137 -20 251 -63 319c-34 50 -87 79 -151 79zM120 8v277h75l210 -277h26l-216 287l196 263h-26l-190 -253h-75v473h-22v-770h22z" />
    <glyph glyph-name="_645" unicode="&#x33c1;" 
d="M286 8l190 690v-690h23v770h-23l-201 -732l-202 732h-22v-770h22v690l190 -690h23zM738 791c-54 0 -95 -26 -123 -79c-36 -68 -49 -178 -49 -319c0 -171 27 -315 102 -365h-87v-20h126v19c-98 38 -119 196 -119 366c0 125 11 236 47 306c24 47 61 72 103 72
c43 0 80 -25 104 -72c36 -70 47 -181 47 -306c0 -170 -21 -328 -119 -366v-19h126v20h-87c75 50 102 194 102 365c0 139 -14 252 -50 319c-27 50 -69 79 -123 79z" />
    <glyph glyph-name="_646" unicode="&#x338a;" 
d="M453 283c0 179 -56 288 -181 288c-80 0 -135 -50 -160 -130v117h-22v-789h22v356c23 -89 76 -130 160 -130c125 0 181 109 181 288zM432 283c0 -173 -50 -268 -160 -268c-111 0 -160 95 -160 268s49 268 160 268c110 0 160 -95 160 -268zM557 8h22v373h308v20h-308v357
h332v20h-354v-770z" />
    <glyph glyph-name="_647" unicode="&#x338b;" 
d="M557 8h22v373h308v20h-308v357h332v20h-354v-770zM104 8v279c4 168 74 264 169 264c87 0 133 -73 133 -206v-337h22v337c0 143 -56 226 -153 226c-83 0 -144 -55 -171 -153v140h-22v-550h22z" />
    <glyph glyph-name="_648" unicode="&#x338c;" 
d="M557 8h22v373h308v20h-308v357h332v20h-354v-770zM101 558h-22v-789h22v322c23 -65 70 -96 131 -96c83 0 144 55 171 153v-140h22v550h-22v-266c0 -176 -71 -277 -168 -277c-87 0 -134 73 -134 206v337z" />
    <glyph glyph-name="_649" unicode="&#x33d6;" 
d="M400 8h22v374c0 123 -33 189 -90 189c-41 0 -72 -46 -88 -123c-10 85 -41 123 -86 123c-39 0 -68 -40 -85 -109v96h-22v-550h22v263c0 180 37 280 84 280c44 0 69 -59 69 -174v-369h22v263c0 180 36 280 84 280c43 0 68 -59 68 -174v-369zM784 283
c0 179 -42 288 -140 288s-140 -109 -140 -288s42 -288 140 -288s140 109 140 288zM761 283c0 -173 -36 -268 -117 -268s-118 95 -118 268s37 268 118 268s117 -95 117 -268zM889 8v770h-22v-770h22z" />
    <glyph glyph-name="_650" unicode="&#x33c5;" 
d="M73 283c0 -179 56 -288 181 -288c103 0 162 69 174 183h-21c-12 -102 -63 -163 -153 -163c-110 0 -159 95 -159 268s49 268 159 268c90 0 141 -61 153 -163h21c-12 114 -71 183 -174 183c-125 0 -181 -109 -181 -288zM518 283c0 -179 52 -288 168 -288
c73 0 124 43 148 120v-107h22v770h-22v-327c-24 77 -75 120 -148 120c-116 0 -168 -109 -168 -288zM834 283c0 -173 -46 -268 -148 -268c-100 0 -146 95 -146 268s46 268 146 268c102 0 148 -95 148 -268z" />
    <glyph glyph-name="_651" unicode="&#x33ad;" 
d="M534 170c0 -94 -36 -155 -115 -155c-78 0 -114 61 -114 155c0 93 36 155 114 155c79 0 115 -62 115 -155zM556 374c0 119 -47 197 -130 197c-82 0 -121 -68 -128 -166h22c6 88 37 146 106 146c72 0 108 -70 108 -173v-105c-19 47 -58 72 -116 72
c-88 0 -135 -70 -135 -175c0 -106 47 -175 135 -175c56 0 97 28 116 71c1 -20 5 -42 10 -58h22c-6 21 -10 47 -10 76v290zM636 283c0 -183 41 -288 130 -288c50 0 90 40 109 103v-90h23v770h-23v-310c-18 70 -56 103 -109 103c-89 0 -130 -105 -130 -288zM875 283
c0 -173 -34 -268 -109 -268s-108 95 -108 268s33 268 108 268s109 -95 109 -268zM218 550c9 0 21 -1 30 -4v22c-9 2 -20 3 -31 3c-64 0 -118 -52 -138 -135v122h-22v-550h22v275c0 187 57 267 139 267z" />
    <glyph glyph-name="_652" unicode="&#x33ae;" 
d="M885 184c0 41 -40 75 -116 75s-116 -34 -116 -75c0 -44 27 -66 96 -76c14 -2 36 -5 51 -8c46 -8 77 -28 77 -57c0 -39 -44 -62 -103 -62c-58 0 -102 23 -102 62v15h-21v-15c0 -50 51 -82 123 -82c73 0 124 32 124 82c0 42 -31 66 -92 76c-16 3 -35 5 -51 8
c-51 8 -81 24 -81 56c0 33 36 56 95 56c60 0 95 -23 95 -55v-17h21v17zM436 492c0 -44 -28 -73 -90 -73c-61 0 -89 29 -89 73c0 43 28 72 89 72c62 0 90 -29 90 -72zM458 594c0 62 -39 103 -106 103s-100 -38 -106 -93h23c5 44 29 73 83 73c56 0 84 -33 84 -81v-47
c-17 22 -47 35 -91 35c-71 0 -110 -37 -110 -92c0 -56 39 -93 110 -93c42 0 74 15 92 37c1 -9 4 -23 9 -30h23c-7 14 -11 29 -11 43v145zM518 548c0 -94 34 -149 106 -149c37 0 69 20 85 51v-44h22v395h-22v-153c-16 30 -47 49 -85 49c-72 0 -106 -54 -106 -149zM709 548
c0 -83 -26 -129 -85 -129s-85 46 -85 129c0 84 26 129 85 129s85 -45 85 -129zM185 677c10 0 19 -1 26 -2v21c-7 1 -17 1 -26 1c-47 0 -89 -26 -109 -61v55h-21v-285h21v142c0 90 45 129 109 129zM908 401l-7 17l-835 -341l7 -19z" />
    <glyph glyph-name="_653" unicode="&#x33af;" 
d="M946 294c0 24 -16 47 -48 47s-47 -23 -47 -47v-12h20v11c0 17 10 30 27 30c18 0 28 -12 28 -29c0 -9 -5 -18 -12 -26l-61 -70v-14h95v18h-65l47 53c11 13 16 26 16 39zM815 184c0 41 -40 75 -116 75s-116 -34 -116 -75c0 -44 27 -66 96 -76c14 -2 36 -5 51 -8
c46 -8 77 -28 77 -57c0 -39 -44 -62 -103 -62c-58 0 -102 23 -102 62v15h-21v-15c0 -50 51 -82 123 -82c73 0 124 32 124 82c0 42 -31 66 -92 76c-16 3 -35 5 -51 8c-51 8 -81 24 -81 56c0 33 36 56 95 56c60 0 95 -23 95 -55v-17h21v17zM426 492c0 -44 -28 -73 -90 -73
c-61 0 -89 29 -89 73c0 43 28 72 89 72c62 0 90 -29 90 -72zM448 594c0 62 -39 103 -106 103s-100 -38 -106 -93h23c5 44 29 73 83 73c56 0 84 -33 84 -81v-47c-17 22 -47 35 -91 35c-71 0 -110 -37 -110 -92c0 -56 39 -93 110 -93c42 0 74 15 92 37c1 -9 4 -23 9 -30h23
c-7 14 -11 29 -11 43v145zM508 548c0 -94 34 -149 106 -149c37 0 69 20 85 51v-44h22v395h-22v-153c-16 30 -47 49 -85 49c-72 0 -106 -54 -106 -149zM699 548c0 -83 -26 -129 -85 -129s-85 46 -85 129c0 84 26 129 85 129s85 -45 85 -129zM175 677c10 0 19 -1 26 -2v21
c-7 1 -17 1 -26 1c-47 0 -89 -26 -109 -61v55h-21v-285h21v142c0 90 45 129 109 129zM898 401l-7 17l-835 -341l7 -19z" />
    <glyph glyph-name="_654" unicode="&#x33db;" 
d="M446 430c0 77 -54 141 -152 141c-97 0 -151 -64 -151 -141c0 -78 36 -121 124 -142c23 -5 46 -11 69 -16c77 -19 105 -55 105 -124c0 -83 -59 -133 -139 -133c-81 0 -140 50 -140 133v21h-22v-21c0 -94 69 -153 162 -153s161 59 161 153c0 77 -31 122 -119 143
c-23 5 -46 11 -69 16c-78 19 -111 52 -111 122c0 71 48 122 130 122c83 0 130 -51 130 -121v-23h22v23zM790 550c13 0 28 -1 36 -3v21c-7 2 -22 3 -37 3c-90 0 -155 -50 -175 -159v146h-22v-550h22v275c0 187 67 267 176 267z" />
    <glyph glyph-name="_655" unicode="&#x33a9;" 
d="M110 338v420h188c110 0 168 -80 168 -210s-58 -210 -168 -210h-188zM296 318c131 0 192 93 192 230c0 138 -61 230 -192 230h-208v-770h22v310h186zM856 170c0 -94 -51 -155 -155 -155c-103 0 -154 61 -154 155c0 93 51 155 154 155c104 0 155 -62 155 -155zM879 374
c0 119 -59 197 -168 197c-108 0 -158 -68 -166 -166h22c8 88 52 146 144 146c94 0 145 -70 145 -173v-112c-25 48 -78 79 -156 79c-116 0 -175 -70 -175 -175c0 -106 59 -175 175 -175c80 0 132 30 156 80v-1c0 -22 5 -50 12 -66h24c-8 21 -13 47 -13 76v290z" />
    <glyph glyph-name="_656" unicode="&#x33aa;" 
d="M393 338v420h118c69 0 105 -80 105 -210s-36 -210 -105 -210h-118zM510 318c88 0 129 93 129 230c0 138 -41 230 -129 230h-139v-770h22v310h117zM873 170c0 -94 -32 -155 -97 -155c-64 0 -96 61 -96 155c0 93 32 155 96 155c65 0 97 -62 97 -155zM896 374
c0 119 -40 197 -113 197c-74 0 -107 -68 -112 -166h22c5 88 33 146 90 146c58 0 90 -70 90 -173v-92c-19 36 -52 59 -98 59c-78 0 -117 -70 -117 -175c0 -106 39 -175 117 -175c48 0 80 21 98 60c1 -18 4 -35 8 -47h23c-5 21 -8 47 -8 76v290zM90 8v277h49l162 -277h24
l-167 287l151 263h-24l-146 -253h-49v473h-23v-770h23z" />
    <glyph glyph-name="_657" unicode="&#x33ab;" 
d="M467 338v420h99c57 0 88 -80 88 -210s-31 -210 -88 -210h-99zM565 318c76 0 112 93 112 230c0 138 -36 230 -112 230h-120v-770h22v310h98zM891 170c0 -94 -28 -155 -82 -155c-53 0 -81 61 -81 155c0 93 28 155 81 155c54 0 82 -62 82 -155zM913 374
c0 119 -35 197 -98 197c-64 0 -93 -68 -97 -166h22c4 88 28 146 75 146c48 0 76 -70 76 -173v-87c-17 33 -45 54 -83 54c-67 0 -101 -70 -101 -175c0 -106 34 -175 101 -175c39 0 67 20 83 54c0 -17 3 -30 6 -41h23c-4 21 -7 47 -7 76v290zM215 8l130 662v-662h22v770h-22
l-142 -720l-142 720h-22v-770h22v662l130 -662h24z" />
    <glyph glyph-name="_658" unicode="&#x33ac;" 
d="M462 338v420h99c57 0 88 -80 88 -210s-31 -210 -88 -210h-99zM560 318c76 0 112 93 112 230c0 138 -36 230 -112 230h-120v-770h22v310h98zM886 170c0 -94 -28 -155 -82 -155c-53 0 -81 61 -81 155c0 93 28 155 81 155c54 0 82 -62 82 -155zM908 374
c0 119 -35 197 -98 197c-64 0 -93 -68 -97 -166h22c4 88 28 146 75 146c48 0 76 -70 76 -173v-87c-17 33 -45 54 -83 54c-67 0 -101 -70 -101 -175c0 -106 34 -175 101 -175c39 0 67 20 83 54c0 -17 3 -30 6 -41h23c-4 21 -7 47 -7 76v290zM56 393c0 -139 11 -252 41 -319
c22 -49 60 -79 104 -79c46 0 80 25 105 80c7 16 12 35 16 53v-120h21v374h-144v-20h123v-64c0 -89 -16 -168 -35 -211c-22 -49 -51 -72 -86 -72s-66 26 -86 72c-29 68 -38 181 -38 306s8 237 38 306c20 46 51 72 86 72c75 0 114 -95 119 -239h21c-5 160 -55 259 -140 259
c-44 0 -82 -30 -104 -79c-30 -67 -41 -180 -41 -319z" />
    <glyph glyph-name="_659" unicode="&#x33dd;" 
d="M902 283c0 179 -50 288 -160 288c-69 0 -117 -43 -139 -120v327h-22v-770h22v107c22 -77 70 -120 139 -120c110 0 160 109 160 288zM880 283c0 -173 -43 -268 -138 -268c-96 0 -139 95 -139 268s43 268 139 268c95 0 138 -95 138 -268zM252 778l-112 -696l-101 696h-23
l114 -770h20l112 699l112 -699h21l114 770h-24l-100 -697l-113 697h-20z" />
    <glyph glyph-name="_660" unicode="&#x33d0;" 
d="M834 8h22v374c0 123 -46 189 -125 189c-63 0 -111 -54 -131 -146c-10 95 -55 146 -123 146c-63 0 -107 -52 -129 -142v129h-22v-550h22v263c0 180 57 280 128 280c67 0 104 -59 104 -174v-369h22v263c0 180 57 280 128 280c67 0 104 -59 104 -174v-369zM157 8v770h-22
v-770h22z" />
    <glyph glyph-name="_661" unicode="&#x33d3;" 
d="M197 8v770h-22v-770h22zM789 8h28l-219 282l208 268h-28l-194 -250l-193 250h-29l208 -268l-219 -282h29l204 263z" />
    <glyph glyph-name="_662" unicode="&#x33c3;" 
d="M549 283c0 -179 49 -288 159 -288c70 0 117 43 140 120v-346h21v789h-21v-107c-23 77 -70 120 -140 120c-110 0 -159 -109 -159 -288zM848 283c0 -173 -44 -268 -140 -268c-95 0 -138 95 -138 268s43 268 138 268c96 0 140 -95 140 -268zM122 413v345h168
c94 0 134 -65 134 -173c0 -107 -40 -172 -134 -172h-168zM293 8c110 0 168 61 168 202c0 111 -38 175 -112 194c56 19 96 76 96 183c0 118 -49 191 -152 191h-193v-770h193zM439 210c0 -112 -37 -182 -149 -182h-168v365h168c112 0 149 -70 149 -183z" />
    <glyph glyph-name="_663" unicode="&#x33c9;" 
d="M81 393c0 -139 17 -251 58 -319c32 -52 81 -79 141 -79c62 0 109 25 143 80c15 24 25 51 31 76v-143h22v374h-195v-20h173v-64c0 -88 -22 -169 -49 -211c-31 -49 -75 -72 -125 -72c-52 0 -94 24 -123 72c-42 69 -54 179 -54 306c0 125 12 236 54 306c28 47 72 72 123 72
c108 0 164 -95 172 -239h21c-7 160 -76 259 -193 259c-60 0 -109 -27 -141 -79c-41 -68 -58 -180 -58 -319zM681 -135c-18 -63 -35 -76 -70 -76h-13v-19c5 -1 5 -1 15 -1c44 0 65 12 88 90l204 699h-23l-149 -513l-148 513h-24l161 -551z" />
    <glyph glyph-name="_664" unicode="&#x33dc;" 
d="M281 15c-114 0 -178 82 -178 186v27h-21v-27c0 -111 66 -206 199 -206c134 0 201 95 201 206c0 105 -51 177 -169 206c-25 6 -55 14 -80 20c-81 21 -130 77 -130 169c0 104 62 175 167 175c106 0 167 -71 167 -175v-22h22v22c0 111 -67 195 -189 195s-188 -86 -188 -195
c0 -102 52 -166 147 -189c26 -6 53 -12 79 -19c108 -27 152 -95 152 -187c0 -104 -64 -186 -179 -186zM695 8h22l185 550h-24l-172 -514l-171 514h-24z" />
    <glyph glyph-name="_665" unicode="&#x33c6;" 
d="M45 605c0 -71 11 -127 42 -162c24 -28 59 -42 103 -42c85 0 134 54 140 140h-21c-5 -72 -44 -120 -119 -120c-35 0 -68 12 -87 34c-28 33 -37 89 -37 150c0 62 9 117 37 150c19 22 52 34 87 34c75 0 114 -47 119 -119h21c-6 86 -55 139 -140 139c-45 0 -79 -14 -103 -41
c-31 -35 -42 -91 -42 -163zM474 8v138h40l120 -138h26l-127 148l115 137h-26l-108 -127h-40v237h-21v-395h21zM874 150c0 -83 -27 -129 -88 -129c-59 0 -86 46 -86 129c0 84 27 129 86 129c61 0 88 -45 88 -129zM694 -31c7 -51 40 -89 100 -89c67 0 101 46 101 113v300h-21
v-43c-17 32 -47 49 -88 49c-74 0 -108 -56 -108 -149c0 -92 34 -149 108 -149c41 0 71 17 88 49v-57c0 -58 -30 -93 -80 -93c-44 0 -73 28 -78 69h-22zM51 20l17 -14l597 752l-17 13z" />
    <glyph glyph-name="_666" unicode="&#xc6;" horiz-adv-x="937" 
d="M457 778l-462 -770h24l126 211h321v-211h425v20h-403v365h358v20h-358v345h398v20h-429zM157 239l309 515v-515h-309z" />
    <glyph glyph-name="_667" unicode="&#xd0;" horiz-adv-x="691" 
d="M11 383h81v-375h252c86 0 152 25 198 78c61 69 83 179 83 307s-22 238 -83 307c-46 53 -112 78 -198 78h-252v-375h-81v-20zM344 758c77 0 141 -24 182 -72c58 -70 77 -180 77 -293s-19 -223 -77 -293c-41 -48 -105 -72 -182 -72h-230v355h188v20h-188v355h230z" />
    <glyph glyph-name="_668" unicode="&#xaa;" horiz-adv-x="429" 
d="M207 364c62 0 114 21 133 64v-10c0 -14 3 -33 8 -44h23c-5 14 -9 36 -9 56v225c0 74 -45 132 -145 132s-142 -57 -146 -123h23c3 58 38 103 123 103c84 0 123 -46 123 -112v-99c-19 43 -71 64 -133 64c-95 0 -155 -44 -155 -128s60 -128 155 -128zM207 384
c-87 0 -133 40 -133 108s46 108 133 108s133 -40 133 -108s-46 -108 -133 -108zM41 258h349v20h-349v-20z" />
    <glyph glyph-name="_669" unicode="&#x126;" horiz-adv-x="682" 
d="M671 633h-81v145h-22v-145h-454v145h-22v-145h-81v-20h81v-605h22v385h454v-385h22v605h81v20zM114 413v200h454v-200h-454z" />
    <glyph glyph-name="_670" unicode="&#x132;" horiz-adv-x="759" 
d="M114 778h-22v-770h22v770zM455 -5c147 0 216 97 216 248v535h-22v-537c0 -137 -64 -226 -194 -226c-129 0 -193 89 -193 226v1h-22c0 -150 69 -247 215 -247z" />
    <glyph glyph-name="_671" unicode="&#x13f;" horiz-adv-x="533" 
d="M92 8h425v20h-403v750h-22v-770zM343 443h-39v-40h39v40z" />
    <glyph glyph-name="_672" unicode="&#x141;" horiz-adv-x="533" 
d="M26 290l66 34v-316h425v20h-403v308l234 122v22l-234 -122v420h-22v-432l-66 -34v-22z" />
    <glyph glyph-name="_673" unicode="&#xd8;" horiz-adv-x="693" 
d="M109 -27l52 88c45 -44 107 -66 185 -66c86 0 152 26 198 79c60 68 83 178 83 319c0 139 -23 247 -80 316l61 104h-24l-53 -88c-45 44 -106 66 -185 66c-85 0 -151 -26 -198 -79c-59 -68 -82 -178 -82 -319c0 -140 22 -249 80 -317l-61 -103h24zM88 393
c0 127 18 236 77 306c42 48 104 72 181 72c73 0 133 -22 174 -65l-363 -611c-54 70 -69 176 -69 298zM605 393c0 -127 -18 -237 -77 -306c-42 -48 -104 -72 -182 -72c-72 0 -133 21 -174 64l363 611c53 -70 70 -176 70 -297z" />
    <glyph glyph-name="_674" unicode="&#x152;" horiz-adv-x="1036" 
d="M148 86c47 -53 113 -78 198 -78h644v20h-403v365h358v20h-358v345h398v20h-639c-85 0 -151 -25 -198 -78c-60 -69 -82 -179 -82 -307s22 -238 82 -307zM565 758v-730h-219c-77 0 -140 24 -181 72c-58 70 -77 180 -77 293s19 223 77 293c41 48 104 72 181 72h219z" />
    <glyph glyph-name="_675" unicode="&#xba;" horiz-adv-x="429" 
d="M53 574c0 -149 60 -212 162 -212c101 0 161 63 161 212c0 150 -60 213 -161 213c-102 0 -162 -63 -162 -213zM354 574c0 -135 -48 -192 -139 -192c-92 0 -140 57 -140 192c0 136 48 193 140 193c91 0 139 -57 139 -193zM41 258h349v20h-349v-20z" />
    <glyph glyph-name="_676" unicode="&#xde;" horiz-adv-x="637" 
d="M114 8v155h247c161 0 237 93 237 230s-76 230 -237 230h-247v155h-22v-770h22zM114 183v420h250c140 0 212 -80 212 -210s-72 -210 -212 -210h-250z" />
    <glyph glyph-name="_677" unicode="&#x166;" horiz-adv-x="550" 
d="M121 392h143v-384h22v384h143v20h-143v346h244v20h-510v-20h244v-346h-143v-20z" />
    <glyph glyph-name="_678" unicode="&#x14a;" horiz-adv-x="693" 
d="M601 778h-22v-732l-465 732h-22v-770h22v732l465 -732v-123c0 -69 -32 -96 -89 -96h-22v-19c6 -1 14 -1 23 -1c66 0 110 28 110 111v898z" />
    <glyph glyph-name="_679" unicode="&#x3260;" 
d="M32 393c0 -252 198 -446 448 -446s448 194 448 446s-198 446 -448 446s-448 -194 -448 -446zM54 393c0 239 188 426 426 426c237 0 426 -187 426 -426s-189 -426 -426 -426s-426 187 -426 426zM256 572v-20h414v-334h22v354h-436z" />
    <glyph glyph-name="_680" unicode="&#x3261;" 
d="M32 393c0 -252 198 -446 448 -446s448 194 448 446s-198 446 -448 446s-448 -194 -448 -446zM54 393c0 239 188 426 426 426c237 0 426 -187 426 -426s-189 -426 -426 -426s-426 187 -426 426zM700 218v20h-414v334h-22v-354h436z" />
    <glyph glyph-name="_681" unicode="&#x3262;" 
d="M32 393c0 -252 198 -446 448 -446s448 194 448 446s-198 446 -448 446s-448 -194 -448 -446zM54 393c0 239 188 426 426 426c237 0 426 -187 426 -426s-189 -426 -426 -426s-426 187 -426 426zM286 238v314h406v20h-428v-354h436v20h-414z" />
    <glyph glyph-name="_682" unicode="&#x3263;" 
d="M32 393c0 -252 198 -446 448 -446s448 194 448 446s-198 446 -448 446s-448 -194 -448 -446zM54 393c0 239 188 426 426 426c237 0 426 -187 426 -426s-189 -426 -426 -426s-426 187 -426 426zM290 230v156h398v194h-420v-20h398v-154h-398v-196h436v20h-414z" />
    <glyph glyph-name="_683" unicode="&#x3264;" 
d="M264 572v-354h428v354h-428zM670 552v-314h-384v314h384zM32 393c0 -252 198 -446 448 -446s448 194 448 446s-198 446 -448 446s-448 -194 -448 -446zM54 393c0 239 188 426 426 426c237 0 426 -187 426 -426s-189 -426 -426 -426s-426 187 -426 426z" />
    <glyph glyph-name="_684" unicode="&#x3265;" 
d="M32 393c0 -252 198 -446 448 -446s448 194 448 446s-198 446 -448 446s-448 -194 -448 -446zM54 393c0 239 188 426 426 426c237 0 426 -187 426 -426s-189 -426 -426 -426s-426 187 -426 426zM286 422v150h-22v-354h428v354h-22v-150h-384zM670 402v-164h-384v164h384z
" />
    <glyph glyph-name="_685" unicode="&#x3266;" 
d="M32 393c0 -252 198 -446 448 -446s448 194 448 446s-198 446 -448 446s-448 -194 -448 -446zM54 393c0 239 188 426 426 426c237 0 426 -187 426 -426s-189 -426 -426 -426s-426 187 -426 426zM722 224v23c-124 35 -232 122 -232 256v92h-22v-92
c0 -134 -99 -223 -232 -257v-22c143 38 213 113 243 200c30 -87 111 -160 243 -200z" />
    <glyph glyph-name="_686" unicode="&#x3267;" 
d="M32 393c0 -252 198 -446 448 -446s448 194 448 446s-198 446 -448 446s-448 -194 -448 -446zM54 393c0 239 188 426 426 426c237 0 426 -187 426 -426s-189 -426 -426 -426s-426 187 -426 426zM271 395c0 48 19 88 51 116c37 34 93 52 157 52s120 -18 157 -52
c32 -28 51 -68 51 -116c0 -50 -19 -90 -51 -118c-36 -32 -92 -51 -157 -51s-121 19 -157 51c-32 28 -51 68 -51 118zM250 395c0 -55 22 -100 59 -133c41 -35 101 -56 170 -56s129 21 170 56c37 33 59 78 59 133c0 54 -22 99 -59 132c-41 35 -101 56 -170 56
s-129 -21 -170 -56c-37 -33 -59 -78 -59 -132z" />
    <glyph glyph-name="_687" unicode="&#x3268;" 
d="M32 393c0 -252 198 -446 448 -446s448 194 448 446s-198 446 -448 446s-448 -194 -448 -446zM54 393c0 239 188 426 426 426c237 0 426 -187 426 -426s-189 -426 -426 -426s-426 187 -426 426zM704 552v20h-451v-20h214v-72c0 -126 -92 -215 -224 -249v-22
c135 34 208 107 235 195c30 -86 112 -161 235 -195v23c-122 35 -224 122 -224 248v72h215z" />
    <glyph glyph-name="_688" unicode="&#x3269;" 
d="M32 393c0 -252 198 -446 448 -446s448 194 448 446s-198 446 -448 446s-448 -194 -448 -446zM54 393c0 239 188 426 426 426c237 0 426 -187 426 -426s-189 -426 -426 -426s-426 187 -426 426zM704 491v20h-215v116h-22v-116h-214v-20h214v-16c0 -126 -92 -215 -224 -249
v-22c135 34 208 107 235 196c31 -87 112 -162 235 -196v23c-122 35 -224 122 -224 248v16h215z" />
    <glyph glyph-name="_689" unicode="&#x326a;" 
d="M32 393c0 -252 198 -446 448 -446s448 194 448 446s-198 446 -448 446s-448 -194 -448 -446zM54 393c0 239 188 426 426 426c237 0 426 -187 426 -426s-189 -426 -426 -426s-426 187 -426 426zM264 572v-20h406v-157c-58 -9 -136 -13 -202 -13h-204v-20h204
c68 0 145 5 202 14v-158h22v354h-428z" />
    <glyph glyph-name="_690" unicode="&#x326b;" 
d="M32 393c0 -252 198 -446 448 -446s448 194 448 446s-198 446 -448 446s-448 -194 -448 -446zM54 393c0 239 188 426 426 426c237 0 426 -187 426 -426s-189 -426 -426 -426s-426 187 -426 426zM290 230v156h390v20h-390v154h398v20h-420v-370h436v20h-414z" />
    <glyph glyph-name="_691" unicode="&#x326c;" 
d="M32 393c0 -252 198 -446 448 -446s448 194 448 446s-198 446 -448 446s-448 -194 -448 -446zM54 393c0 239 188 426 426 426c237 0 426 -187 426 -426s-189 -426 -426 -426s-426 187 -426 426zM587 389c0 -51 -5 -111 -20 -151h-194v314h214v-163zM609 552h100v20h-460
v-20h102v-314h-118v-20h492v20h-135c14 40 19 99 19 157v157z" />
    <glyph glyph-name="_692" unicode="&#x326d;" 
d="M32 393c0 -252 198 -446 448 -446s448 194 448 446s-198 446 -448 446s-448 -194 -448 -446zM54 393c0 239 188 426 426 426c237 0 426 -187 426 -426s-189 -426 -426 -426s-426 187 -426 426zM239 533v-20h480v20h-230v107h-22v-107h-228zM671 307c0 -24 -9 -43 -25 -57
c-33 -29 -97 -44 -167 -44s-134 15 -167 44c-16 14 -25 33 -25 57c0 23 9 42 25 56c33 30 97 44 167 44s134 -14 167 -44c16 -14 25 -33 25 -56zM265 307c0 -29 13 -53 35 -72c38 -31 108 -49 179 -49s141 18 179 49c22 19 35 43 35 72c0 28 -13 52 -35 71
c-38 31 -108 49 -179 49s-141 -18 -179 -49c-22 -19 -35 -43 -35 -71z" />
    <glyph glyph-name="_693" unicode="&#x326e;" 
d="M32 393c0 -252 198 -446 448 -446s448 194 448 446s-198 446 -448 446s-448 -194 -448 -446zM54 393c0 239 188 426 426 426c237 0 426 -187 426 -426s-189 -426 -426 -426s-426 187 -426 426zM492 547c0 -208 -89 -337 -251 -384v-20c175 49 273 186 273 405v108h-269
v-20h247v-89zM687 677h-20v-575h20v302h100v20h-100v253z" />
    <glyph glyph-name="_694" unicode="&#x326f;" 
d="M32 393c0 -252 198 -446 448 -446s448 194 448 446s-198 446 -448 446s-448 -194 -448 -446zM54 393c0 239 188 426 426 426c237 0 426 -187 426 -426s-189 -426 -426 -426s-426 187 -426 426zM475 145c78 0 150 27 192 65v-108h20v302h100v20h-100v253h-20v-444
c-45 -43 -118 -69 -192 -69h-209v495h-21v-514h230z" />
    <glyph glyph-name="_695" unicode="&#x3270;" 
d="M32 393c0 -252 198 -446 448 -446s448 194 448 446s-198 446 -448 446s-448 -194 -448 -446zM54 393c0 239 188 426 426 426c237 0 426 -187 426 -426s-189 -426 -426 -426s-426 187 -426 426zM489 145c72 0 139 25 178 58v-101h20v302h100v20h-100v253h-20v-451
c-40 -37 -110 -62 -178 -62h-223v472h241v20h-262v-511h244z" />
    <glyph glyph-name="_696" unicode="&#x3271;" 
d="M32 393c0 -252 198 -446 448 -446s448 194 448 446s-198 446 -448 446s-448 -194 -448 -446zM54 393c0 239 188 426 426 426c237 0 426 -187 426 -426s-189 -426 -426 -426s-426 187 -426 426zM489 145c72 0 139 26 178 58v-101h20v302h100v20h-100v253h-20v-451
c-40 -37 -110 -62 -178 -62h-223v229h233v263h-254v-20h233v-223h-233v-268h244z" />
    <glyph glyph-name="_697" unicode="&#x3272;" 
d="M32 393c0 -252 198 -446 448 -446s448 194 448 446s-198 446 -448 446s-448 -194 -448 -446zM54 393c0 239 188 426 426 426c237 0 426 -187 426 -426s-189 -426 -426 -426s-426 187 -426 426zM514 145v511h-269v-511h269zM492 164h-226v472h226v-472zM687 677h-20v-575
h20v302h100v20h-100v253z" />
    <glyph glyph-name="_698" unicode="&#x3273;" 
d="M32 393c0 -252 198 -446 448 -446s448 194 448 446s-198 446 -448 446s-448 -194 -448 -446zM54 393c0 239 188 426 426 426c237 0 426 -187 426 -426s-189 -426 -426 -426s-426 187 -426 426zM266 436v220h-21v-511h269v511h-22v-220h-226zM492 164h-226v253h226v-253z
M687 677h-20v-575h20v302h100v20h-100v253z" />
    <glyph glyph-name="_699" unicode="&#x3274;" 
d="M32 393c0 -252 198 -446 448 -446s448 194 448 446s-198 446 -448 446s-448 -194 -448 -446zM54 393c0 239 188 426 426 426c237 0 426 -187 426 -426s-189 -426 -426 -426s-426 187 -426 426zM551 141v22c-76 40 -156 112 -156 264v232h-22v-232
c0 -152 -79 -228 -155 -264v-22c82 36 148 108 166 197c19 -88 85 -156 167 -197zM687 677h-20v-575h20v302h100v20h-100v253z" />
    <glyph glyph-name="_700" unicode="&#x3275;" 
d="M32 393c0 -252 198 -446 448 -446s448 194 448 446s-198 446 -448 446s-448 -194 -448 -446zM54 393c0 239 188 426 426 426c237 0 426 -187 426 -426s-189 -426 -426 -426s-426 187 -426 426zM687 677h-20v-575h20v302h100v20h-100v253zM259 401c0 100 13 192 66 229
c16 11 35 17 58 17s42 -6 58 -17c53 -37 66 -129 66 -229s-13 -192 -66 -229c-16 -11 -35 -17 -58 -17s-42 6 -58 17c-53 37 -66 129 -66 229zM237 401c0 -111 19 -205 76 -245c19 -13 42 -21 70 -21s51 8 70 21c57 40 76 134 76 245s-19 205 -76 245c-19 13 -42 21 -70 21
s-51 -8 -70 -21c-57 -40 -76 -134 -76 -245z" />
    <glyph glyph-name="_701" unicode="&#x3276;" 
d="M32 393c0 -252 198 -446 448 -446s448 194 448 446s-198 446 -448 446s-448 -194 -448 -446zM54 393c0 239 188 426 426 426c237 0 426 -187 426 -426s-189 -426 -426 -426s-426 187 -426 426zM238 656v-20h141v-219c0 -129 -82 -222 -148 -254v-22
c72 36 137 111 158 191c22 -78 83 -154 158 -191v22c-69 36 -147 125 -147 254v219h142v20h-304zM687 677h-20v-575h20v302h100v20h-100v253z" />
    <glyph glyph-name="_702" unicode="&#x3277;" 
d="M32 393c0 -252 198 -446 448 -446s448 194 448 446s-198 446 -448 446s-448 -194 -448 -446zM54 393c0 239 188 426 426 426c237 0 426 -187 426 -426s-189 -426 -426 -426s-426 187 -426 426zM400 579v106h-21v-106h-141v-19h141v-143c0 -129 -82 -222 -148 -254v-22
c73 36 137 111 158 191c22 -78 83 -154 158 -191v22c-69 36 -147 125 -147 254v143h142v19h-142zM687 677h-20v-575h20v302h100v20h-100v253z" />
    <glyph glyph-name="_703" unicode="&#x3278;" 
d="M32 393c0 -252 198 -446 448 -446s448 194 448 446s-198 446 -448 446s-448 -194 -448 -446zM54 393c0 239 188 426 426 426c237 0 426 -187 426 -426s-189 -426 -426 -426s-426 187 -426 426zM350 418c45 0 99 8 133 19c-28 -143 -112 -236 -242 -274v-20
c175 49 273 186 273 405v108h-269v-20h247v-89c0 -30 -1 -60 -5 -88c-34 -13 -89 -21 -137 -21h-109v-20h109zM687 677h-20v-575h20v302h100v20h-100v253z" />
    <glyph glyph-name="_704" unicode="&#x3279;" 
d="M32 393c0 -252 198 -446 448 -446s448 194 448 446s-198 446 -448 446s-448 -194 -448 -446zM54 393c0 239 188 426 426 426c237 0 426 -187 426 -426s-189 -426 -426 -426s-426 187 -426 426zM266 636h248v20h-269v-511h244c72 0 139 25 178 58v-101h20v302h100v20h-100
v253h-20v-451c-40 -37 -110 -62 -178 -62h-223v229h233v20h-233v223z" />
    <glyph glyph-name="_705" unicode="&#x327a;" 
d="M32 393c0 -252 198 -446 448 -446s448 194 448 446s-198 446 -448 446s-448 -194 -448 -446zM54 393c0 239 188 426 426 426c237 0 426 -187 426 -426s-189 -426 -426 -426s-426 187 -426 426zM475 345c0 -63 -6 -138 -17 -181h-129v472h146v-291zM230 164v-19h273
c65 0 126 20 164 51v-94h20v302h100v20h-100v253h-20v-458c-37 -35 -100 -55 -164 -55h-24c10 42 17 118 17 183v289h72v20h-330v-20h70v-472h-78z" />
    <glyph glyph-name="_706" unicode="&#x327b;" 
d="M32 393c0 -252 198 -446 448 -446s448 194 448 446s-198 446 -448 446s-448 -194 -448 -446zM54 393c0 239 188 426 426 426c237 0 426 -187 426 -426s-189 -426 -426 -426s-426 187 -426 426zM219 566h334v20h-157v104h-21v-104h-156v-20zM245 316
c0 -69 18 -115 47 -144c25 -26 58 -37 93 -37c37 0 69 11 94 37c29 29 47 75 47 144c0 68 -19 114 -47 144c-25 25 -57 37 -94 37c-35 0 -68 -12 -93 -37c-28 -30 -47 -76 -47 -144zM266 316c0 61 15 103 40 129c21 21 49 32 79 32c31 0 59 -11 80 -32
c25 -26 40 -68 40 -129s-15 -104 -40 -129c-20 -22 -49 -32 -80 -32c-30 0 -59 10 -79 32c-25 25 -40 68 -40 129zM687 677h-20v-575h20v302h100v20h-100v253z" />
    <glyph glyph-name="_707" unicode="&#x24d0;" 
d="M32 393c0 -252 198 -446 448 -446s448 194 448 446s-198 446 -448 446s-448 -194 -448 -446zM54 393c0 239 188 426 426 426c237 0 426 -187 426 -426s-189 -426 -426 -426s-426 187 -426 426zM610 309c0 -68 -46 -112 -142 -112c-95 0 -141 44 -141 112
c0 66 46 111 141 111c96 0 142 -45 142 -111zM633 460c0 90 -55 148 -156 148c-99 0 -146 -52 -154 -128h23c6 65 46 108 131 108c87 0 133 -51 133 -125v-82c-23 36 -73 60 -143 60c-107 0 -162 -53 -162 -132c0 -81 55 -133 162 -133c71 0 120 23 143 60
c0 -18 5 -37 12 -50h24c-8 18 -13 39 -13 59v215z" />
    <glyph glyph-name="_708" unicode="&#x24d1;" 
d="M32 393c0 -252 198 -446 448 -446s448 194 448 446s-198 446 -448 446s-448 -194 -448 -446zM54 393c0 239 188 426 426 426c237 0 426 -187 426 -426s-189 -426 -426 -426s-426 187 -426 426zM687 325c0 135 -52 216 -169 216c-74 0 -124 -30 -147 -91v245h-23v-576h23
v81c25 -57 76 -91 147 -91c117 0 169 82 169 216zM664 325c0 -126 -45 -195 -146 -195c-102 0 -147 69 -147 195s45 196 147 196c101 0 146 -70 146 -196z" />
    <glyph glyph-name="_709" unicode="&#x24d2;" 
d="M32 393c0 -252 198 -446 448 -446s448 194 448 446s-198 446 -448 446s-448 -194 -448 -446zM54 393c0 239 188 426 426 426c237 0 426 -187 426 -426s-189 -426 -426 -426s-426 187 -426 426zM312 392c0 -134 52 -216 168 -216c95 0 150 53 163 142h-23
c-11 -76 -57 -121 -140 -121c-100 0 -146 69 -146 195s46 196 146 196c83 0 129 -46 140 -121h23c-12 88 -68 141 -163 141c-116 0 -168 -81 -168 -216z" />
    <glyph glyph-name="_710" unicode="&#x24d3;" 
d="M32 393c0 -252 198 -446 448 -446s448 194 448 446s-198 446 -448 446s-448 -194 -448 -446zM54 393c0 239 188 426 426 426c237 0 426 -187 426 -426s-189 -426 -426 -426s-426 187 -426 426zM272 325c0 -134 52 -216 168 -216c72 0 123 34 148 91v-81h22v576h-22v-245
c-24 61 -73 91 -148 91c-116 0 -168 -81 -168 -216zM588 325c0 -126 -46 -195 -148 -195c-100 0 -146 69 -146 195s46 196 146 196c102 0 148 -70 148 -196z" />
    <glyph glyph-name="_711" unicode="&#x24d4;" 
d="M32 393c0 -252 198 -446 448 -446s448 194 448 446s-198 446 -448 446s-448 -194 -448 -446zM54 393c0 239 188 426 426 426c237 0 426 -187 426 -426s-189 -426 -426 -426s-426 187 -426 426zM618 308c-15 -69 -61 -110 -139 -110c-99 0 -145 69 -146 191h316
c0 138 -52 220 -170 220c-116 0 -168 -81 -168 -216c0 -134 52 -216 168 -216c92 0 147 50 162 131h-23zM479 589c97 0 144 -65 148 -179h-294c3 114 50 179 146 179z" />
    <glyph glyph-name="_712" unicode="&#x24d5;" 
d="M32 393c0 -252 198 -446 448 -446s448 194 448 446s-198 446 -448 446s-448 -194 -448 -446zM54 393c0 239 188 426 426 426c237 0 426 -187 426 -426s-189 -426 -426 -426s-426 187 -426 426zM584 657v20c-11 1 -25 1 -37 1c-85 0 -114 -27 -114 -112v-57h-62v-21h62
v-392h23v392h128v21h-128v55c0 72 19 93 90 93h38z" />
    <glyph glyph-name="_713" unicode="&#x24d6;" 
d="M32 393c0 -252 198 -446 448 -446s448 194 448 446s-198 446 -448 446s-448 -194 -448 -446zM54 393c0 239 188 426 426 426c237 0 426 -187 426 -426s-189 -426 -426 -426s-426 187 -426 426zM618 471c0 -126 -46 -195 -148 -195c-100 0 -146 69 -146 195
s46 196 146 196c102 0 148 -70 148 -196zM328 199c10 -70 62 -123 154 -123c106 0 158 65 158 162v440h-22v-82c-24 61 -73 91 -148 91c-116 0 -168 -81 -168 -216c0 -134 52 -216 168 -216c72 0 123 34 148 91v-108c0 -88 -50 -141 -136 -141c-75 0 -123 41 -131 102h-23z
" />
    <glyph glyph-name="_714" unicode="&#x24d7;" 
d="M32 393c0 -252 198 -446 448 -446s448 194 448 446s-198 446 -448 446s-448 -194 -448 -446zM54 393c0 239 188 426 426 426c237 0 426 -187 426 -426s-189 -426 -426 -426s-426 187 -426 426zM360 122v209c3 123 68 193 155 193c79 0 122 -53 122 -150v-252h22v252
c0 108 -51 170 -142 170c-73 0 -131 -42 -157 -109v263h-23v-576h23z" />
    <glyph glyph-name="_715" unicode="&#x24d8;" 
d="M32 393c0 -252 198 -446 448 -446s448 194 448 446s-198 446 -448 446s-448 -194 -448 -446zM54 393c0 239 188 426 426 426c237 0 426 -187 426 -426s-189 -426 -426 -426s-426 187 -426 426zM492 110v413h-22v-413h22zM492 614v72h-22v-72h22z" />
    <glyph glyph-name="_716" unicode="&#x24d9;" 
d="M32 393c0 -252 198 -446 448 -446s448 194 448 446s-198 446 -448 446s-448 -194 -448 -446zM54 393c0 239 188 426 426 426c237 0 426 -187 426 -426s-189 -426 -426 -426s-426 187 -426 426zM515 562h-22v-417c0 -49 -23 -68 -63 -68h-19v-20c4 -1 11 -1 20 -1
c51 0 84 22 84 85v421zM515 653v72h-22v-72h22z" />
    <glyph glyph-name="_717" unicode="&#x24da;" 
d="M32 393c0 -252 198 -446 448 -446s448 194 448 446s-198 446 -448 446s-448 -194 -448 -446zM54 393c0 239 188 426 426 426c237 0 426 -187 426 -426s-189 -426 -426 -426s-426 187 -426 426zM392 129v205h60l184 -205h28l-192 215l174 198h-27l-167 -187h-60v350h-23
v-576h23z" />
    <glyph glyph-name="_718" unicode="&#x24db;" 
d="M32 393c0 -252 198 -446 448 -446s448 194 448 446s-198 446 -448 446s-448 -194 -448 -446zM54 393c0 239 188 426 426 426c237 0 426 -187 426 -426s-189 -426 -426 -426s-426 187 -426 426zM494 105v576h-22v-576h22z" />
    <glyph glyph-name="_719" unicode="&#x24dc;" 
d="M32 393c0 -252 198 -446 448 -446s448 194 448 446s-198 446 -448 446s-448 -194 -448 -446zM54 393c0 239 188 426 426 426c237 0 426 -187 426 -426s-189 -426 -426 -426s-426 187 -426 426zM731 186h22v280c0 89 -47 142 -127 142c-61 0 -114 -45 -134 -111
c-9 73 -55 111 -124 111c-64 0 -109 -39 -132 -108v99h-23v-413h23v197c0 132 59 205 130 205c67 0 106 -46 106 -126v-276h22v197c0 132 60 205 131 205c67 0 106 -47 106 -126v-276z" />
    <glyph glyph-name="_720" unicode="&#x24dd;" 
d="M32 393c0 -252 198 -446 448 -446s448 194 448 446s-198 446 -448 446s-448 -194 -448 -446zM54 393c0 239 188 426 426 426c237 0 426 -187 426 -426s-189 -426 -426 -426s-426 187 -426 426zM349 185v209c3 123 68 193 155 193c79 0 122 -53 122 -150v-252h22v252
c0 108 -51 170 -142 170c-73 0 -131 -42 -157 -109v100h-23v-413h23z" />
    <glyph glyph-name="_721" unicode="&#x24de;" 
d="M32 393c0 -252 198 -446 448 -446s448 194 448 446s-198 446 -448 446s-448 -194 -448 -446zM54 393c0 239 188 426 426 426c237 0 426 -187 426 -426s-189 -426 -426 -426s-426 187 -426 426zM650 394c0 135 -52 216 -170 216c-116 0 -168 -81 -168 -216
c0 -134 52 -216 168 -216c118 0 170 82 170 216zM628 394c0 -126 -46 -195 -148 -195c-100 0 -146 69 -146 195s46 196 146 196c102 0 148 -70 148 -196z" />
    <glyph glyph-name="_722" unicode="&#x24df;" 
d="M32 393c0 -252 198 -446 448 -446s448 194 448 446s-198 446 -448 446s-448 -194 -448 -446zM54 393c0 239 188 426 426 426c237 0 426 -187 426 -426s-189 -426 -426 -426s-426 187 -426 426zM688 456c0 135 -52 216 -169 216c-74 0 -124 -30 -147 -91v82h-23v-591h23
v259c25 -57 76 -91 147 -91c117 0 169 82 169 216zM665 456c0 -126 -45 -195 -146 -195c-102 0 -147 69 -147 195s45 196 147 196c101 0 146 -70 146 -196z" />
    <glyph glyph-name="_723" unicode="&#x24e0;" 
d="M32 393c0 -252 198 -446 448 -446s448 194 448 446s-198 446 -448 446s-448 -194 -448 -446zM54 393c0 239 188 426 426 426c237 0 426 -187 426 -426s-189 -426 -426 -426s-426 187 -426 426zM283 456c0 -134 52 -216 168 -216c72 0 123 34 148 91v-259h22v591h-22v-82
c-24 61 -73 91 -148 91c-116 0 -168 -81 -168 -216zM599 456c0 -126 -46 -195 -148 -195c-100 0 -146 69 -146 195s46 196 146 196c102 0 148 -70 148 -196z" />
    <glyph glyph-name="_724" unicode="&#x24e1;" 
d="M32 393c0 -252 198 -446 448 -446s448 194 448 446s-198 446 -448 446s-448 -194 -448 -446zM54 393c0 239 188 426 426 426c237 0 426 -187 426 -426s-189 -426 -426 -426s-426 187 -426 426zM559 575c8 0 21 -2 30 -3v21c-9 3 -20 3 -31 3c-61 0 -106 -30 -126 -94v85
h-23v-413h23v206c0 137 48 195 127 195z" />
    <glyph glyph-name="_725" unicode="&#x24e2;" 
d="M32 393c0 -252 198 -446 448 -446s448 194 448 446s-198 446 -448 446s-448 -194 -448 -446zM54 393c0 239 188 426 426 426c237 0 426 -187 426 -426s-189 -426 -426 -426s-426 187 -426 426zM624 502c0 59 -50 107 -142 107c-91 0 -141 -48 -141 -107s33 -93 115 -108
l64 -12c72 -13 97 -38 97 -89c0 -59 -55 -95 -128 -95c-74 0 -128 36 -128 95v19h-22v-19c0 -71 63 -116 150 -116c88 0 150 45 150 116c0 58 -34 94 -110 109l-63 12c-70 13 -103 39 -103 87c0 51 44 88 119 88c76 0 119 -37 119 -87v-20h23v20z" />
    <glyph glyph-name="_726" unicode="&#x24e3;" 
d="M32 393c0 -252 198 -446 448 -446s448 194 448 446s-198 446 -448 446s-448 -194 -448 -446zM54 393c0 239 188 426 426 426c237 0 426 -187 426 -426s-189 -426 -426 -426s-426 187 -426 426zM453 535h136v21h-136v115h-23v-115h-63v-21h63v-285c0 -85 39 -113 117 -113
c12 0 27 0 42 1v20h-42c-59 0 -94 17 -94 91v286z" />
    <glyph glyph-name="_727" unicode="&#x24e4;" 
d="M32 393c0 -252 198 -446 448 -446s448 194 448 446s-198 446 -448 446s-448 -194 -448 -446zM54 393c0 239 188 426 426 426c237 0 426 -187 426 -426s-189 -426 -426 -426s-426 187 -426 426zM332 593h-22v-253c0 -107 51 -170 143 -170c73 0 130 41 157 109v-99h22v413
h-22v-210c-4 -123 -69 -192 -156 -192c-79 0 -122 53 -122 149v253z" />
    <glyph glyph-name="_728" unicode="&#x24e5;" 
d="M32 393c0 -252 198 -446 448 -446s448 194 448 446s-198 446 -448 446s-448 -194 -448 -446zM54 393c0 239 188 426 426 426c237 0 426 -187 426 -426s-189 -426 -426 -426s-426 187 -426 426zM465 165h20l174 413h-26l-158 -380l-158 380h-26z" />
    <glyph glyph-name="_729" unicode="&#x24e6;" 
d="M32 393c0 -252 198 -446 448 -446s448 194 448 446s-198 446 -448 446s-448 -194 -448 -446zM54 393c0 239 188 426 426 426c237 0 426 -187 426 -426s-189 -426 -426 -426s-426 187 -426 426zM470 585l-136 -376l-134 376h-24l148 -413h21l135 376l136 -376h20l149 413
h-26l-133 -376l-136 376h-20z" />
    <glyph glyph-name="_730" unicode="&#x24e7;" 
d="M32 393c0 -252 198 -446 448 -446s448 194 448 446s-198 446 -448 446s-448 -194 -448 -446zM54 393c0 239 188 426 426 426c237 0 426 -187 426 -426s-189 -426 -426 -426s-426 187 -426 426zM631 181h28l-164 211l156 202h-28l-142 -183l-142 183h-29l156 -202
l-164 -211h29l150 192z" />
    <glyph glyph-name="_731" unicode="&#x24e8;" 
d="M32 393c0 -252 198 -446 448 -446s448 194 448 446s-198 446 -448 446s-448 -194 -448 -446zM54 393c0 239 188 426 426 426c237 0 426 -187 426 -426s-189 -426 -426 -426s-426 187 -426 426zM432 130c-18 -44 -36 -54 -74 -54h-13v-20c5 -1 5 -1 15 -1c45 0 68 9 93 69
l218 522h-26l-158 -383l-158 383h-26l172 -411z" />
    <glyph glyph-name="_732" unicode="&#x24e9;" 
d="M32 393c0 -252 198 -446 448 -446s448 194 448 446s-198 446 -448 446s-448 -194 -448 -446zM54 393c0 239 188 426 426 426c237 0 426 -187 426 -426s-189 -426 -426 -426s-426 187 -426 426zM617 599h-276v-21h249l-255 -373v-19h287v21h-260l255 373v19z" />
    <glyph glyph-name="_733" unicode="&#x2460;" 
d="M32 393c0 -252 198 -446 448 -446s448 194 448 446s-198 446 -448 446s-448 -194 -448 -446zM54 393c0 239 188 426 426 426c237 0 426 -187 426 -426s-189 -426 -426 -426s-426 187 -426 426zM512 123v545h-19l-152 -68v-24l150 67v-520h21z" />
    <glyph glyph-name="_734" unicode="&#x2461;" 
d="M32 393c0 -252 198 -446 448 -446s448 194 448 446s-198 446 -448 446s-448 -194 -448 -446zM54 393c0 239 188 426 426 426c237 0 426 -187 426 -426s-189 -426 -426 -426s-426 187 -426 426zM632 532c0 85 -53 158 -156 158s-156 -73 -156 -158v-18h22v18
c0 75 47 138 134 138c88 0 134 -63 134 -138c0 -41 -14 -76 -49 -115l-232 -263v-18h310v20h-282l219 248c42 48 56 81 56 128z" />
    <glyph glyph-name="_735" unicode="&#x2462;" 
d="M32 393c0 -252 198 -446 448 -446s448 194 448 446s-198 446 -448 446s-448 -194 -448 -446zM54 393c0 239 188 426 426 426c237 0 426 -187 426 -426s-189 -426 -426 -426s-426 187 -426 426zM626 270c0 -83 -58 -135 -143 -135s-143 53 -143 148l-21 2
c0 -106 65 -170 164 -170s164 61 164 157c0 80 -41 128 -99 142c48 18 83 67 83 127c0 77 -57 137 -148 137c-92 0 -148 -60 -148 -137v-16h21v16c0 68 48 117 127 117s126 -49 126 -117c0 -59 -35 -117 -115 -117h-58v-20h54c88 0 136 -54 136 -134z" />
    <glyph glyph-name="_736" unicode="&#x2463;" 
d="M32 393c0 -252 198 -446 448 -446s448 194 448 446s-198 446 -448 446s-448 -194 -448 -446zM54 393c0 239 188 426 426 426c237 0 426 -187 426 -426s-189 -426 -426 -426s-426 187 -426 426zM316 281l215 348v-348h-215zM642 281h-90v391h-20l-243 -392v-19h242v-134
h21v134h90v20z" />
    <glyph glyph-name="_737" unicode="&#x2464;" 
d="M32 393c0 -252 198 -446 448 -446s448 194 448 446s-198 446 -448 446s-448 -194 -448 -446zM54 393c0 239 188 426 426 426c237 0 426 -187 426 -426s-189 -426 -426 -426s-426 187 -426 426zM326 265c11 -96 65 -154 158 -154c99 0 159 66 159 182s-60 182 -159 182
c-55 0 -94 -19 -118 -61l13 231h234v20h-256l-14 -299h21c21 60 65 90 120 90c89 0 137 -60 137 -163c0 -102 -48 -162 -137 -162c-78 0 -127 46 -137 134h-21z" />
    <glyph glyph-name="_738" unicode="&#x2465;" 
d="M32 393c0 -252 198 -446 448 -446s448 194 448 446s-198 446 -448 446s-448 -194 -448 -446zM54 393c0 239 188 426 426 426c237 0 426 -187 426 -426s-189 -426 -426 -426s-426 187 -426 426zM630 545c-10 90 -67 133 -148 133c-48 0 -87 -16 -112 -51
c-37 -52 -48 -131 -48 -279c0 -83 7 -132 37 -174c28 -40 71 -59 126 -59c100 0 162 70 162 182c0 113 -62 182 -162 182c-67 0 -117 -34 -141 -86c1 115 12 181 45 224c21 28 55 41 93 41c63 0 115 -33 125 -113h23zM485 135c-83 0 -141 60 -141 162c0 103 58 163 141 163
c84 0 141 -60 141 -163c0 -102 -57 -162 -141 -162z" />
    <glyph glyph-name="_739" unicode="&#x2466;" 
d="M32 393c0 -252 198 -446 448 -446s448 194 448 446s-198 446 -448 446s-448 -194 -448 -446zM54 393c0 239 188 426 426 426c237 0 426 -187 426 -426s-189 -426 -426 -426s-426 187 -426 426zM326 619h286l-202 -525h24l203 527v18h-311v-20z" />
    <glyph glyph-name="_740" unicode="&#x2467;" 
d="M32 393c0 -252 198 -446 448 -446s448 194 448 446s-198 446 -448 446s-448 -194 -448 -446zM54 393c0 239 188 426 426 426c237 0 426 -187 426 -426s-189 -426 -426 -426s-426 187 -426 426zM481 677c-94 0 -155 -55 -155 -138c0 -63 34 -110 89 -128
c-64 -17 -105 -70 -105 -144c0 -98 68 -153 171 -153c104 0 172 55 172 153c0 74 -41 127 -105 144c55 18 89 65 89 128c0 83 -61 138 -156 138zM481 420c-78 0 -134 46 -134 119c0 72 56 118 134 118c79 0 135 -46 135 -118c0 -73 -56 -119 -135 -119zM481 134
c-87 0 -150 48 -150 133s63 133 150 133c88 0 151 -48 151 -133s-63 -133 -151 -133z" />
    <glyph glyph-name="_741" unicode="&#x2468;" 
d="M32 393c0 -252 198 -446 448 -446s448 194 448 446s-198 446 -448 446s-448 -194 -448 -446zM54 393c0 239 188 426 426 426c237 0 426 -187 426 -426s-189 -426 -426 -426s-426 187 -426 426zM332 248c10 -90 67 -133 147 -133c49 0 88 16 113 51c37 52 48 131 48 279
c0 83 -7 132 -37 174c-28 40 -71 59 -126 59c-100 0 -162 -69 -162 -182s62 -182 162 -182c68 0 118 34 141 86c-1 -115 -12 -181 -45 -224c-21 -28 -56 -41 -94 -41c-62 0 -114 33 -124 113h-23zM477 658c83 0 141 -60 141 -162c0 -103 -58 -163 -141 -163
c-84 0 -141 60 -141 163c0 102 57 162 141 162z" />
    <glyph glyph-name="_742" unicode="&#x2469;" 
d="M32 393c0 -252 198 -446 448 -446s448 194 448 446s-198 446 -448 446s-448 -194 -448 -446zM54 393c0 239 188 426 426 426c237 0 426 -187 426 -426s-189 -426 -426 -426s-426 187 -426 426zM330 129v529h-19l-120 -67v-24l117 65v-503h22zM496 395
c0 116 10 176 33 211c17 26 45 43 79 43s62 -17 79 -43c23 -35 33 -95 33 -211s-10 -176 -33 -211c-17 -26 -45 -43 -79 -43s-62 17 -79 43c-23 35 -33 95 -33 211zM474 395c0 -119 10 -182 37 -223c21 -31 54 -51 97 -51s76 20 97 51c27 41 37 104 37 223s-10 182 -37 223
c-21 31 -54 51 -97 51s-76 -20 -97 -51c-27 -41 -37 -104 -37 -223z" />
    <glyph glyph-name="_743" unicode="&#x246a;" 
d="M32 393c0 -252 198 -446 448 -446s448 194 448 446s-198 446 -448 446s-448 -194 -448 -446zM54 393c0 239 188 426 426 426c237 0 426 -187 426 -426s-189 -426 -426 -426s-426 187 -426 426zM360 129v529h-19l-120 -67v-24l117 65v-503h22zM660 129v529h-19l-120 -67
v-24l117 65v-503h22z" />
    <glyph glyph-name="_744" unicode="&#x246b;" 
d="M32 393c0 -252 198 -446 448 -446s448 194 448 446s-198 446 -448 446s-448 -194 -448 -446zM54 393c0 239 188 426 426 426c237 0 426 -187 426 -426s-189 -426 -426 -426s-426 187 -426 426zM330 129v529h-19l-120 -67v-24l117 65v-503h22zM724 518
c0 82 -43 153 -125 153s-125 -71 -125 -153v-18h23v17c0 74 35 134 102 134s103 -60 103 -134c0 -39 -12 -73 -39 -111l-182 -256v-17h249v19h-222l172 241c31 44 44 81 44 125z" />
    <glyph glyph-name="_745" unicode="&#x246c;" 
d="M32 393c0 -252 198 -446 448 -446s448 194 448 446s-198 446 -448 446s-448 -194 -448 -446zM54 393c0 239 188 426 426 426c237 0 426 -187 426 -426s-189 -426 -426 -426s-426 187 -426 426zM330 129v529h-19l-120 -67v-24l117 65v-503h22zM707 271
c0 -79 -46 -131 -110 -131s-109 54 -109 144l-22 2c0 -103 52 -165 131 -165c80 0 132 59 132 152c0 77 -37 126 -80 138c39 16 67 63 67 124c0 74 -45 133 -119 133c-73 0 -118 -59 -118 -133v-16h22v16c0 65 36 113 96 113c61 0 97 -48 97 -113c0 -57 -26 -114 -88 -114
h-48v-19h45c67 0 104 -52 104 -131z" />
    <glyph glyph-name="_746" unicode="&#x246d;" 
d="M32 393c0 -252 198 -446 448 -446s448 194 448 446s-198 446 -448 446s-448 -194 -448 -446zM54 393c0 239 188 426 426 426c237 0 426 -187 426 -426s-189 -426 -426 -426s-426 187 -426 426zM330 129v529h-19l-120 -67v-24l117 65v-503h22zM474 276l175 330v-330h-175z
M743 276h-72v380h-20l-202 -384v-16h200v-129h22v129h72v20z" />
    <glyph glyph-name="_747" unicode="&#x246e;" 
d="M32 393c0 -252 198 -446 448 -446s448 194 448 446s-198 446 -448 446s-448 -194 -448 -446zM54 393c0 239 188 426 426 426c237 0 426 -187 426 -426s-189 -426 -426 -426s-426 187 -426 426zM330 129v529h-19l-120 -67v-24l117 65v-503h22zM473 268
c8 -93 52 -149 127 -149c79 0 127 64 127 177s-48 177 -127 177c-40 0 -70 -20 -90 -54l10 219h184v19h-206l-11 -290h21c17 58 50 87 92 87c68 0 105 -58 105 -158c0 -99 -37 -158 -105 -158c-60 0 -97 45 -105 130h-22z" />
    <glyph glyph-name="_748" unicode="&#xbd;" 
d="M867 369c0 -41 -14 -69 -43 -100l-224 -241v-20h288v20h-260l209 225c42 45 52 72 52 117c0 90 -56 157 -150 157c-93 0 -150 -67 -150 -157v-11h22v10c0 79 49 138 128 138s128 -59 128 -138zM632 778h-23l-376 -770h23zM207 268v510h-22l-107 -51v-22l107 51v-488h22z
" />
    <glyph glyph-name="_749" unicode="&#x2153;" 
d="M632 778h-23l-376 -770h23zM207 268v510h-22l-107 -51v-22l107 51v-488h22zM876 142c0 -69 -53 -123 -137 -123c-83 0 -136 54 -136 123v28h-22v-28c0 -77 56 -143 158 -143c103 0 159 66 159 143c0 73 -40 118 -105 133c70 17 92 75 92 121c0 74 -55 131 -146 131
c-90 0 -145 -60 -145 -134v-13h22v13c0 69 50 114 123 114c74 0 124 -41 124 -111c0 -72 -53 -111 -115 -111h-53v-20h53c72 0 128 -46 128 -123z" />
    <glyph glyph-name="_750" unicode="&#x2154;" 
d="M896 142c0 -69 -53 -123 -137 -123c-83 0 -136 54 -136 123v28h-22v-28c0 -77 56 -143 158 -143c103 0 159 66 159 143c0 73 -40 118 -105 133c70 17 92 75 92 121c0 74 -55 131 -146 131c-90 0 -145 -60 -145 -134v-13h22v13c0 69 50 114 123 114c74 0 124 -41 124 -111
c0 -72 -53 -111 -115 -111h-53v-20h53c72 0 128 -46 128 -123zM674 778h-23l-376 -770h23zM323 628c0 -40 -14 -68 -43 -100l-223 -241v-19h287v19h-259l209 226c41 45 51 71 51 116c0 91 -56 158 -149 158c-94 0 -150 -67 -150 -158v-11h22v10c0 80 49 139 128 139
s127 -59 127 -139z" />
    <glyph glyph-name="_751" unicode="&#xbc;" 
d="M642 778h-23l-376 -770h23zM207 268v510h-22l-107 -51v-22l107 51v-488h22zM580 144l235 338v-338h-235zM910 144h-73v374h-22l-261 -374v-19h261v-117h22v117h73v19z" />
    <glyph glyph-name="_752" unicode="&#xbe;" 
d="M580 144l235 338v-338h-235zM910 144h-73v374h-22l-261 -374v-19h261v-117h22v117h73v19zM329 402c0 -70 -52 -123 -136 -123s-136 53 -136 123v27h-22v-27c0 -77 56 -143 158 -143s158 66 158 143c0 72 -39 118 -104 133c69 16 91 75 91 121c0 74 -55 131 -145 131
s-145 -61 -145 -134v-14h22v14c0 69 49 114 123 114s123 -42 123 -111c0 -73 -53 -111 -114 -111h-53v-20h53c71 0 127 -46 127 -123zM689 778h-23l-376 -770h23z" />
    <glyph glyph-name="_753" unicode="&#x215b;" 
d="M632 778h-23l-376 -770h23zM207 268v510h-22l-107 -51v-22l107 51v-488h22zM738 526c-92 0 -149 -55 -149 -129c0 -55 32 -103 92 -118c-66 -15 -106 -69 -106 -136c0 -89 63 -145 163 -145s163 56 163 145c0 67 -39 121 -105 136c60 15 92 63 92 118
c0 74 -57 129 -150 129zM738 288c-83 0 -127 49 -127 109c0 61 44 109 127 109c84 0 128 -48 128 -109c0 -60 -44 -109 -128 -109zM738 18c-83 0 -141 48 -141 125s58 126 141 126c84 0 141 -49 141 -126s-57 -125 -141 -125z" />
    <glyph glyph-name="_754" unicode="&#x215c;" 
d="M758 526c-92 0 -149 -55 -149 -129c0 -55 32 -103 92 -118c-66 -15 -106 -69 -106 -136c0 -89 63 -145 163 -145s163 56 163 145c0 67 -39 121 -105 136c60 15 92 63 92 118c0 74 -57 129 -150 129zM758 288c-83 0 -127 49 -127 109c0 61 44 109 127 109
c84 0 128 -48 128 -109c0 -60 -44 -109 -128 -109zM758 18c-83 0 -141 48 -141 125s58 126 141 126c84 0 141 -49 141 -126s-57 -125 -141 -125zM329 402c0 -70 -52 -123 -136 -123s-136 53 -136 123v27h-22v-27c0 -77 56 -143 158 -143s158 66 158 143
c0 72 -39 118 -104 133c69 16 91 75 91 121c0 74 -55 131 -145 131s-145 -61 -145 -134v-14h22v14c0 69 49 114 123 114s123 -42 123 -111c0 -73 -53 -111 -114 -111h-53v-20h53c71 0 127 -46 127 -123zM674 778h-23l-376 -770h23z" />
    <glyph glyph-name="_755" unicode="&#x215d;" 
d="M758 526c-92 0 -149 -55 -149 -129c0 -55 32 -103 92 -118c-66 -15 -106 -69 -106 -136c0 -89 63 -145 163 -145s163 56 163 145c0 67 -39 121 -105 136c60 15 92 63 92 118c0 74 -57 129 -150 129zM758 288c-83 0 -127 49 -127 109c0 61 44 109 127 109
c84 0 128 -48 128 -109c0 -60 -44 -109 -128 -109zM758 18c-83 0 -141 48 -141 125s58 126 141 126c84 0 141 -49 141 -126s-57 -125 -141 -125zM674 778h-23l-376 -770h23zM43 408c6 -89 61 -148 152 -148c99 0 154 68 154 174c0 105 -47 173 -149 173
c-57 0 -98 -24 -119 -64l10 215h232v20h-253l-12 -273h22c16 50 58 83 120 83c88 0 127 -58 127 -154c0 -97 -47 -151 -132 -154c-78 3 -124 49 -130 128h-22z" />
    <glyph glyph-name="_756" unicode="&#x215e;" 
d="M758 526c-92 0 -149 -55 -149 -129c0 -55 32 -103 92 -118c-66 -15 -106 -69 -106 -136c0 -89 63 -145 163 -145s163 56 163 145c0 67 -39 121 -105 136c60 15 92 63 92 118c0 74 -57 129 -150 129zM758 288c-83 0 -127 49 -127 109c0 61 44 109 127 109
c84 0 128 -48 128 -109c0 -60 -44 -109 -128 -109zM758 18c-83 0 -141 48 -141 125s58 126 141 126c84 0 141 -49 141 -126s-57 -125 -141 -125zM649 778h-23l-376 -770h23zM44 758h282l-183 -490h23l183 490v20h-305v-20z" />
    <glyph glyph-name="_757" unicode="&#xe6;" horiz-adv-x="968" 
d="M464 170c0 -94 -64 -155 -196 -155s-195 61 -195 155c0 93 63 155 195 155s196 -62 196 -155zM689 551c134 0 198 -91 202 -250h-405c4 159 67 250 203 250zM278 571c-128 0 -192 -68 -202 -166h22c9 88 65 146 180 146c122 0 186 -70 186 -173v-127
c-26 58 -92 94 -198 94c-142 0 -215 -70 -215 -175c0 -106 73 -175 215 -175c138 0 206 59 217 149c29 -96 97 -149 206 -149c121 0 194 66 212 169h-22c-20 -94 -84 -149 -190 -149c-137 0 -201 91 -203 253v13h427v2c0 179 -69 288 -224 288c-110 0 -182 -57 -207 -155
c-12 95 -87 155 -204 155z" />
    <glyph glyph-name="_758" unicode="&#x111;" horiz-adv-x="583" 
d="M570 662v20h-66v96h-22v-96h-198v-20h198v-235c-28 93 -97 144 -203 144c-155 0 -224 -109 -224 -288s69 -288 224 -288c106 0 175 51 203 144v-131h22v654h66zM482 283c0 -173 -63 -268 -203 -268c-139 0 -202 95 -202 268s63 268 202 268c140 0 203 -95 203 -268z" />
    <glyph glyph-name="_759" unicode="&#xf0;" horiz-adv-x="559" 
d="M504 283c0 231 -33 352 -143 436l85 50l-10 17l-92 -54c-39 26 -89 49 -148 72l-11 -18c55 -20 102 -41 139 -66l-102 -61l11 -16l109 65c75 -55 116 -136 132 -259c-33 80 -99 122 -195 122c-155 0 -224 -109 -224 -288s69 -288 224 -288c156 0 225 109 225 288z
M482 283c0 -173 -63 -268 -203 -268c-139 0 -202 95 -202 268s63 268 202 268c140 0 203 -95 203 -268z" />
    <glyph glyph-name="_760" unicode="&#x127;" horiz-adv-x="582" 
d="M101 8v279c5 168 94 264 214 264c110 0 169 -73 169 -206v-337h22v337c0 143 -68 226 -189 226c-107 0 -186 -61 -216 -169v260h198v20h-198v96h-22v-96h-66v-20h66v-654h22z" />
    <glyph glyph-name="_761" unicode="&#x131;" horiz-adv-x="191" 
d="M107 8v550h-22v-550h22z" />
    <glyph glyph-name="_762" unicode="&#x133;" horiz-adv-x="383" 
d="M107 8v550h-22v-550h22zM107 690v88h-22v-88h22zM298 558h-22v-674c0 -69 -32 -96 -89 -96h-22v-18c7 -1 14 -1 23 -1c66 0 110 27 110 110v679zM298 690v88h-22v-88h22z" />
    <glyph glyph-name="_763" unicode="&#x138;" horiz-adv-x="472" 
d="M101 8v277h87l249 -277h28l-257 287l232 263h-27l-225 -253h-87v253h-22v-550h22z" />
    <glyph glyph-name="_764" unicode="&#x140;" horiz-adv-x="234" 
d="M107 8v770h-22v-770h22zM223 443h-39v-40h39v40z" />
    <glyph glyph-name="_765" unicode="&#x142;" horiz-adv-x="257" 
d="M140 8v380l95 50v22l-95 -50v368h-22v-381l-96 -49v-22l96 49v-367h22z" />
    <glyph glyph-name="_766" unicode="&#xf8;" horiz-adv-x="559" 
d="M109 -34l38 67c35 -25 77 -38 132 -38c156 0 225 109 225 288c0 106 -25 187 -77 237l46 80h-23l-39 -67c-34 25 -78 38 -132 38c-155 0 -224 -109 -224 -288c0 -107 24 -188 77 -237l-46 -80h23zM77 283c0 173 63 268 202 268c51 0 91 -12 121 -36l-258 -451
c-44 45 -65 119 -65 219zM482 283c0 -173 -63 -268 -203 -268c-50 0 -91 12 -122 36l259 450c45 -44 66 -119 66 -218z" />
    <glyph glyph-name="_767" unicode="&#x153;" horiz-adv-x="986" 
d="M706 15c-137 0 -200 92 -202 255v11h427v2c0 179 -70 288 -225 288c-120 0 -193 -69 -213 -181c-21 113 -95 181 -214 181c-155 0 -224 -109 -224 -288s69 -288 224 -288c119 0 195 68 214 181c20 -113 93 -181 213 -181c121 0 195 66 213 169h-22
c-20 -94 -84 -149 -191 -149zM706 551c136 0 198 -91 203 -250h-405c3 159 66 250 202 250zM482 283c0 -173 -63 -268 -203 -268c-139 0 -202 95 -202 268s63 268 202 268c140 0 203 -95 203 -268z" />
    <glyph glyph-name="_768" unicode="&#xdf;" horiz-adv-x="619" 
d="M541 573c0 127 -91 218 -231 218s-231 -91 -231 -218v-565h22v565c0 117 83 198 209 198c127 0 209 -81 209 -198c0 -79 -48 -167 -204 -167h-30v-20h28c153 0 245 -70 245 -185c0 -117 -77 -186 -202 -186c-30 0 -68 4 -95 12v-21c28 -8 63 -11 94 -11
c140 0 225 82 225 206s-100 185 -191 195c92 15 152 85 152 177z" />
    <glyph glyph-name="_769" unicode="&#xfe;" horiz-adv-x="583" 
d="M528 283c0 179 -69 288 -224 288c-106 0 -175 -51 -203 -144v351h-22v-1009h22v370c28 -93 97 -144 203 -144c155 0 224 109 224 288zM506 283c0 -173 -63 -268 -202 -268c-140 0 -203 95 -203 268s63 268 203 268c139 0 202 -95 202 -268z" />
    <glyph glyph-name="_770" unicode="&#x167;" horiz-adv-x="358" 
d="M52 313v-20h62v-144c0 -113 51 -149 154 -149c16 0 32 0 52 1v19h-53c-82 0 -131 25 -131 127v146h159v20h-159v225h184v20h-184v156h-22v-156h-85v-20h85v-225h-62z" />
    <glyph glyph-name="_771" unicode="&#x14b;" horiz-adv-x="582" 
d="M101 8v279c5 168 94 264 214 264c110 0 169 -73 169 -206v-461c0 -69 -32 -96 -89 -96h-22v-18c7 -1 14 -1 23 -1c66 0 110 27 110 110v466c0 143 -68 226 -189 226c-107 0 -186 -61 -216 -169v156h-22v-550h22z" />
    <glyph glyph-name="_772" unicode="&#x149;" horiz-adv-x="583" 
d="M101 8v279c5 168 94 264 214 264c110 0 169 -73 169 -206v-337h22v337c0 143 -68 226 -189 226c-107 0 -186 -61 -216 -169v156h-22v-550h22zM56 684c0 -55 -14 -79 -45 -94v-27c46 18 71 46 71 123v92h-26v-94z" />
    <glyph glyph-name="_773" unicode="&#x3200;" 
d="M692 572h-436v-20h414v-334h22v354zM209 -17c-81 121 -137 263 -137 412s56 291 137 411h-20c-83 -118 -139 -262 -139 -411s56 -293 139 -412h20zM771 -17c83 119 139 263 139 412s-56 293 -139 411h-20c81 -120 137 -262 137 -411s-56 -291 -137 -412h20z" />
    <glyph glyph-name="_774" unicode="&#x3201;" 
d="M264 218h436v20h-414v334h-22v-354zM209 -17c-81 121 -137 263 -137 412s56 291 137 411h-20c-83 -118 -139 -262 -139 -411s56 -293 139 -412h20zM771 -17c83 119 139 263 139 412s-56 293 -139 411h-20c81 -120 137 -262 137 -411s-56 -291 -137 -412h20z" />
    <glyph glyph-name="_775" unicode="&#x3202;" 
d="M700 238h-414v314h406v20h-428v-354h436v20zM209 -17c-81 121 -137 263 -137 412s56 291 137 411h-20c-83 -118 -139 -262 -139 -411s56 -293 139 -412h20zM771 -17c83 119 139 263 139 412s-56 293 -139 411h-20c81 -120 137 -262 137 -411s-56 -291 -137 -412h20z" />
    <glyph glyph-name="_776" unicode="&#x3203;" 
d="M704 230h-414v156h398v194h-420v-20h398v-154h-398v-196h436v20zM209 -17c-81 121 -137 263 -137 412s56 291 137 411h-20c-83 -118 -139 -262 -139 -411s56 -293 139 -412h20zM771 -17c83 119 139 263 139 412s-56 293 -139 411h-20c81 -120 137 -262 137 -411
s-56 -291 -137 -412h20z" />
    <glyph glyph-name="_777" unicode="&#x3204;" 
d="M692 572h-428v-354h428v354zM286 552h384v-314h-384v314zM209 -17c-81 121 -137 263 -137 412s56 291 137 411h-20c-83 -118 -139 -262 -139 -411s56 -293 139 -412h20zM771 -17c83 119 139 263 139 412s-56 293 -139 411h-20c81 -120 137 -262 137 -411
s-56 -291 -137 -412h20z" />
    <glyph glyph-name="_778" unicode="&#x3205;" 
d="M670 422h-384v150h-22v-354h428v354h-22v-150zM286 402h384v-164h-384v164zM209 -17c-81 121 -137 263 -137 412s56 291 137 411h-20c-83 -118 -139 -262 -139 -411s56 -293 139 -412h20zM771 -17c83 119 139 263 139 412s-56 293 -139 411h-20
c81 -120 137 -262 137 -411s-56 -291 -137 -412h20z" />
    <glyph glyph-name="_779" unicode="&#x3206;" 
d="M722 224v23c-124 35 -232 122 -232 256v92h-22v-92c0 -134 -99 -223 -232 -257v-22c143 38 213 113 243 200c30 -87 111 -160 243 -200zM209 -17c-81 121 -137 263 -137 412s56 291 137 411h-20c-83 -118 -139 -262 -139 -411s56 -293 139 -412h20zM771 -17
c83 119 139 263 139 412s-56 293 -139 411h-20c81 -120 137 -262 137 -411s-56 -291 -137 -412h20z" />
    </font>
</defs>
</svg>
