
<?xml version="1.0" encoding="UTF-8"?>
<svg xmlns="http://www.w3.org/2000/svg" viewBox="0 0 513.06 513">
  <defs>
    <style>
      .cls-1 {
        fill: none;
        isolation: isolate;
      }

      .cls-2 {
        fill: #fff;
      }

      .cls-3 {
        fill: #2b63ad;
      }

      .cls-3, .cls-4 {
        fill-rule: evenodd;
      }

      .cls-4 {
        fill: #52b7e8;
      }
    </style>
  </defs>
  <g id="logo_helpstart" class="cls-1">
    <g id="bg">
      <rect class="cls-2" x="1.06" y="1" width="511" height="511"/>
    </g>
    <g id="Group_1" data-name="Group 1">
      <g id="Shape_1" data-name="Shape 1">
        <polygon class="cls-3" points=".06 0 .06 207 37.96 207 37.96 37.87 317.06 37.87 317.06 0 .06 0"/>
      </g>
      <g id="Shape_1_copy_2" data-name="Shape 1 copy 2">
        <polygon class="cls-4" points="317.06 0 317.06 37.9 474.19 37.9 474.19 404 512.06 404 512.06 0 317.06 0"/>
      </g>
      <g id="Shape_1_copy" data-name="Shape 1 copy">
        <polygon class="cls-3" points="37.87 474.1 37.87 238 0 238 0 512 100 512 100 474.1 37.87 474.1"/>
      </g>
      <g id="Shape_1_copy_3" data-name="Shape 1 copy 3">
        <polygon class="cls-4" points="474.13 436 474.13 474.1 100 474.1 100 512 512 512 512 436 474.13 436"/>
      </g>
    </g>
    <g id="icon_search">
      <path class="cls-3" d="m389.55,357.67l-57.01-57.02c12.23-18.58,19.37-40.82,19.37-64.73,0-65.13-52.79-117.93-117.92-117.93s-117.92,52.8-117.92,117.93,52.79,117.93,117.92,117.93c25.46,0,49.02-8.1,68.3-21.82l56.46,56.46c8.51,8.51,22.31,8.51,30.82,0h0c8.51-8.51,8.51-22.31,0-30.82Zm-155.57-44.84c-42.47,0-76.9-34.43-76.9-76.91s34.43-76.91,76.9-76.91,76.9,34.43,76.9,76.91-34.43,76.91-76.9,76.91Z"/>
    </g>
  </g>
</svg>