<?xml version="1.0" encoding="UTF-8"?>
<svg id="Layer_2" data-name="Layer 2" xmlns="http://www.w3.org/2000/svg" viewBox="0 0 200 200">
  <defs>
    <style>
      .cls-1 {
        fill: #fff;
      }

      .cls-2 {
        fill: #52b7e8;
      }

      .cls-3 {
        fill: #2b63ad;
      }
    </style>
  </defs>
  <g id="Layer_2-2" data-name="Layer 2">
    <g>
      <rect class="cls-1" width="200" height="200"/>
      <rect class="cls-1" x="16" y="16" width="168" height="168"/>
      <g>
        <g>
          <polygon class="cls-3" points="16 16 124 16 124 0 0 0 0 81.04 16 81.04 16 16"/>
          <polygon class="cls-3" points="16 93.04 0 93.04 0 200 39 200 39 184 16 184 16 93.04"/>
          <polygon class="cls-2" points="184 184 39 184 39 200 200 200 200 170.07 184 170.07 184 184"/>
          <polygon class="cls-2" points="124 0 124 16 184 16 184 158.07 200 158.07 200 0 124 0"/>
        </g>
        <path class="cls-3" d="m152.1,139.49l-22.24-22.24c4.77-7.25,7.55-15.92,7.55-25.25,0-25.41-20.59-46-46-46s-46,20.59-46,46,20.59,46,46,46c9.93,0,19.12-3.16,26.64-8.51l22.02,22.02c3.32,3.32,8.7,3.32,12.02,0h0c3.32-3.32,3.32-8.7,0-12.02Zm-60.69-17.49c-16.57,0-30-13.43-30-30s13.43-30,30-30,30,13.43,30,30-13.43,30-30,30Z"/>
      </g>
    </g>
  </g>
</svg>