<?xml version="1.0" encoding="UTF-8"?><svg xmlns="http://www.w3.org/2000/svg" xmlns:xlink="http://www.w3.org/1999/xlink" viewBox="0 0 266.48 78.98"><defs><style>.j{fill:url(#d);}.k{fill:url(#i);}.l{fill:url(#h);}.m{fill:none;}.n{fill:#fff;}.o{filter:url(#e);}.p{clip-path:url(#g);}</style><linearGradient id="d" x1="13.57" y1="9.99" x2="63.55" y2="60.31" gradientTransform="matrix(1, 0, 0, 1, 0, 0)" gradientUnits="userSpaceOnUse"><stop offset="0" stop-color="#f3742e"/><stop offset="1" stop-color="#ed0a72"/></linearGradient><filter id="e" filterUnits="userSpaceOnUse"><feOffset dx=".84" dy=".84"/><feGaussianBlur result="f" stdDeviation="1.69"/><feFlood flood-color="#d61d5b" flood-opacity=".3"/><feComposite in2="f" operator="in"/><feComposite in="SourceGraphic"/></filter><clipPath id="g"><path class="m" d="M42.87,13.98c-20.14,0-25.51,5.37-25.51,25.51s5.37,25.51,25.51,25.51,25.51-5.37,25.51-25.51-5.37-25.51-25.51-25.51Z"/></clipPath><linearGradient id="h" x1="29.76" y1="23.69" x2="55.31" y2="45.65" gradientTransform="matrix(1, 0, 0, 1, 0, 0)" gradientUnits="userSpaceOnUse"><stop offset="0" stop-color="#fff" stop-opacity=".5"/><stop offset="1" stop-color="#fff" stop-opacity="0"/></linearGradient><linearGradient id="i" x1="51.36" y1="11.25" x2="25.92" y2="44.38" xlink:href="#h"/></defs><g id="a"/><g id="b"><g id="c"><g><path class="n" d="M264.71,69.65c0,4.18-3.38,7.56-7.57,7.56H9.34c-4.19,0-7.58-3.38-7.58-7.56V9.33C1.76,5.15,5.15,1.76,9.34,1.76h247.8c4.19,0,7.57,3.4,7.57,7.57v60.32h0Z"/><path d="M257.14,78.98H9.34c-5.15,0-9.34-4.18-9.34-9.33V9.33C0,4.19,4.19,0,9.34,0h247.8c5.14,0,9.34,4.19,9.34,9.33v60.32c0,5.14-4.19,9.33-9.34,9.33h0Z"/><path d="M264.71,69.65c0,4.18-3.38,7.56-7.57,7.56H9.34c-4.19,0-7.58-3.38-7.58-7.56V9.33C1.76,5.15,5.15,1.76,9.34,1.76h247.8c4.19,0,7.57,3.4,7.57,7.57v60.32h0Z"/><g><path class="j" d="M42.87,13.98c-20.14,0-25.51,5.37-25.51,25.51s5.37,25.51,25.51,25.51,25.51-5.37,25.51-25.51-5.37-25.51-25.51-25.51Z"/><g class="o"><path class="n" d="M43.25,24.8l-9.16,5.29c-1.62,.93-2.18,3.02-1.24,4.64s3.02,2.18,4.64,1.24l7.75-4.48-3.69,3.95v15.53c0,1.87,1.53,3.4,3.4,3.4s3.4-1.53,3.4-3.4V27.75c0-.65-.2-1.29-.45-1.7-.96-1.6-3.02-2.18-4.64-1.24Z"/></g><path class="m" d="M42.87,13.98c-20.14,0-25.51,5.37-25.51,25.51s5.37,25.51,25.51,25.51,25.51-5.37,25.51-25.51-5.37-25.51-25.51-25.51Z"/><g class="p"><g><polygon class="l" points="35.18 65 68.38 65 68.38 20.24 35.18 43.28 35.18 65"/><polygon class="k" points="35.18 65 17.36 65 17.36 22.86 35.18 43.28 35.18 65"/></g></g></g><g><path class="n" d="M174.2,46.32c-1.94,0-3.29,1.02-3.29,2.51,0,1.35,.88,2.22,2.67,2.62l2.81,.66c3.4,.8,5.08,2.48,5.08,5.03,0,3.17-2.63,5.36-6.69,5.36-2.7,0-4.86-.84-6.5-2.51-.62-.69-.66-1.31-.07-1.89,.62-.62,1.28-.58,1.9,.04,1.32,1.28,2.85,1.89,4.64,1.89,2.52,0,4.02-1.02,4.02-2.73,0-1.28-.95-2.15-2.81-2.59l-2.67-.62c-3.4-.8-5.08-2.51-5.08-5.14,0-1.6,.62-2.84,1.83-3.75,1.21-.91,2.67-1.38,4.35-1.38,2.16,0,3.98,.69,5.45,2.04,.73,.69,.8,1.35,.18,2-.55,.58-1.21,.55-2.05-.15-1.1-.91-2.34-1.38-3.76-1.38"/><path class="n" d="M193.48,61c0,.84-.55,1.24-1.61,1.24-3.95,0-5.63-1.28-5.63-5.61v-9.8h-1.86c-.95,0-1.43-.4-1.43-1.24s.48-1.24,1.43-1.24h1.86v-2.95c0-1.02,.44-1.53,1.35-1.53s1.35,.51,1.35,1.53v2.95h3.11c.95,0,1.43,.4,1.43,1.24s-.47,1.24-1.43,1.24h-3.11v9.62c0,2.62,.62,3.32,3.14,3.32,.91,0,1.39,.4,1.39,1.24"/><path class="n" d="M198.16,59.8c-1.72-1.82-2.56-4.04-2.56-6.63s.84-4.81,2.56-6.63c1.72-1.82,3.87-2.73,6.43-2.73s4.71,.91,6.43,2.73c1.75,1.82,2.63,4.04,2.63,6.63s-.88,4.81-2.59,6.63c-1.72,1.79-3.87,2.7-6.47,2.7s-4.71-.91-6.43-2.7m10.93-1.75c1.17-1.31,1.75-2.95,1.75-4.88s-.58-3.57-1.75-4.85c-1.17-1.31-2.67-1.97-4.49-1.97s-3.29,.66-4.46,1.97c-1.17,1.28-1.75,2.91-1.75,4.85s.58,3.57,1.75,4.88c1.17,1.28,2.67,1.93,4.46,1.93s3.33-.66,4.49-1.93"/><path class="n" d="M219.87,54.48v6.27c0,1.02-.44,1.53-1.35,1.53s-1.35-.51-1.35-1.53v-15.19c0-.98,.58-1.49,1.32-1.49,.88,0,1.32,.51,1.32,1.49v.95c1.39-1.68,3.33-2.51,5.85-2.51l1.32,.15c.84,.18,1.24,.62,1.24,1.35,0,.77-.55,1.35-1.53,1.2-.44-.07-.77-.11-1.02-.11-4.06,0-5.77,2.19-5.77,7.91"/><path class="n" d="M243.39,54.01h-11.51c.26,3.75,2.52,5.98,6.03,5.98,1.68,0,3.14-.62,4.35-1.82,.69-.69,1.35-.69,1.97-.07,.55,.62,.47,1.28-.18,1.93-1.72,1.64-3.76,2.48-6.14,2.48-2.67,0-4.82-.84-6.43-2.55-1.57-1.71-2.38-3.93-2.38-6.67s.8-4.85,2.38-6.7c1.61-1.86,3.62-2.77,6.07-2.77,5.55,0,7.71,4.52,7.71,8.53,0,1.13-.62,1.68-1.86,1.68m-11.4-2.4h10.52c-.04-3.17-1.94-5.25-4.9-5.25s-5.19,2.19-5.63,5.25"/><g><path class="n" d="M95.88,36.9c-7.17,0-12.98,5.8-12.98,12.96s5.81,12.96,12.98,12.96,12.98-5.8,12.98-12.96-5.81-12.96-12.98-12.96m0,20.09c-3.94,0-7.14-3.19-7.14-7.13s3.2-7.13,7.14-7.13,7.14,3.19,7.14,7.13-3.2,7.13-7.14,7.13"/><g><path class="n" d="M115.7,36.97c.93,0,1.72,.46,2.29,1.12l18.12,19.76c.48,.54,.83,1.24,.83,2.03,0,1.61-1.3,2.91-2.91,2.91-.93,0-1.71-.46-2.29-1.12l-13.12-14.05v12.29c0,1.61-1.3,2.91-2.91,2.91s-2.91-1.3-2.91-2.91v-20.04c0-1.61,1.3-2.91,2.91-2.91"/><path class="n" d="M136.78,47.22c0,1.66-1.34,3-3,3h0c-1.66,0-3-1.34-3-3v-7.28c0-1.66,1.34-3,3-3h0c1.66,0,3,1.34,3,3v7.28Z"/></g><path class="n" d="M157.84,57.01h-10.52v-4.2h9.45c1.61,0,2.91-1.3,2.91-2.91s-1.3-2.91-2.91-2.91h-9.45v-4.2h10.52c1.61,0,2.91-1.3,2.91-2.91s-1.3-2.91-2.91-2.91h-13.43c-1.61,0-2.91,1.3-2.91,2.91v20.05c0,1.61,1.3,2.91,2.91,2.91h13.43c1.61,0,2.91-1.3,2.91-2.91s-1.3-2.91-2.91-2.91"/></g></g><g><path class="n" d="M84.91,16.46c0-1.11,.57-1.49,1.61-1.49h2.18c3.64,0,5.76,1.81,5.76,5.93s-1.83,6.45-5.81,6.45h-2.11c-1.18,0-1.63-.45-1.63-1.61v-9.27Zm3.76,9.33c2.67,0,3.95-1.59,3.95-4.92,0-3-1.41-4.31-4.05-4.31h-1.38c-.35,0-.45,.17-.45,.49v8.26c0,.34,.17,.49,.5,.49h1.43Z"/><path class="n" d="M95.95,22.78c0-3.09,2.03-4.75,4.4-4.75s4.38,1.66,4.38,4.75-1.91,4.82-4.38,4.82-4.4-1.71-4.4-4.82Zm6.92,0c0-2.25-1.17-3.17-2.52-3.17s-2.53,.92-2.53,3.17,1.21,3.26,2.53,3.26,2.52-.92,2.52-3.26Z"/><path class="n" d="M110.84,18.89c.25-1.04,1.9-1.06,2.16,0l1.73,6.53,1.71-6.71c.24-1.02,2.08-.7,1.73,.49l-2.15,7.4c-.39,1.33-2.15,1.34-2.47-.03l-1.68-6.13-1.66,6.14c-.34,1.39-2.1,1.34-2.47,.02l-2.2-7.35c-.35-1.19,1.51-1.61,1.78-.5l1.78,6.73,1.73-6.58Z"/><path class="n" d="M125.8,21.47c0-1.06-.76-1.75-1.96-1.75-.99,0-1.86,.52-2.35,1.75v5.29c0,.49-.4,.76-.89,.76s-.92-.27-.92-.76v-7.87c0-.49,.42-.76,.92-.76,.47,0,.89,.27,.89,.76v.62c.72-.91,1.8-1.39,2.94-1.39,1.66,0,3.17,1.02,3.17,3.04v5.61c0,.49-.42,.76-.89,.76-.5,0-.91-.27-.91-.76v-5.29Z"/><path class="n" d="M129.87,14.73c0-.49,.4-.77,.91-.77s.91,.29,.91,.77v12.04c0,.49-.42,.76-.91,.76s-.91-.27-.91-.76V14.73Z"/><path class="n" d="M133.48,22.78c0-3.09,2.03-4.75,4.4-4.75s4.38,1.66,4.38,4.75-1.91,4.82-4.38,4.82-4.4-1.71-4.4-4.82Zm6.92,0c0-2.25-1.17-3.17-2.52-3.17s-2.53,.92-2.53,3.17,1.21,3.26,2.53,3.26,2.52-.92,2.52-3.26Z"/><path class="n" d="M151.1,21.04v5.67c0,.54-.4,.81-.89,.81s-.86-.27-.86-.74v-.45c-.47,.67-1.71,1.16-2.84,1.16-1.6,0-2.87-.92-2.87-2.67,0-1.88,1.56-2.69,3.06-2.94,.79-.15,1.9-.13,2.6-.07v-.6c0-1.13-.71-1.56-2.12-1.56-.57,0-1.46,.25-2.01,.52-1.02,.45-1.44-1.04-.6-1.44,.77-.42,2.05-.67,3-.67,2,0,3.53,.91,3.53,2.99Zm-1.8,3.57v-1.51c-.6-.1-1.58-.1-2.18,.03-.92,.19-1.66,.57-1.66,1.58,0,.89,.79,1.33,1.58,1.33,1.09,0,1.98-.59,2.27-1.43Z"/><path class="n" d="M161.32,26.76c0,.49-.42,.76-.91,.76s-.91-.27-.91-.76v-.52c-.6,.86-1.61,1.29-2.7,1.29-1.81,0-3.96-1.24-3.96-4.75,0-3.22,2.01-4.6,3.98-4.6,1.06,0,2.08,.47,2.68,1.28v-4.57c0-.49,.42-.76,.91-.76s.91,.27,.91,.76v11.87Zm-1.81-2.75v-2.38c-.34-1.33-1.43-1.86-2.32-1.86-1.34,0-2.45,.91-2.45,3.02s.91,3.22,2.45,3.22c.96,0,1.96-.49,2.32-2Z"/><path class="n" d="M167.64,22.78c0-3.09,2.03-4.75,4.4-4.75s4.38,1.66,4.38,4.75-1.91,4.82-4.38,4.82-4.4-1.71-4.4-4.82Zm6.91,0c0-2.25-1.17-3.17-2.52-3.17s-2.53,.92-2.53,3.17,1.21,3.26,2.53,3.26,2.52-.92,2.52-3.26Z"/><path class="n" d="M184.37,21.47c0-1.06-.76-1.75-1.96-1.75-.99,0-1.86,.52-2.35,1.75v5.29c0,.49-.4,.76-.89,.76s-.92-.27-.92-.76v-7.87c0-.49,.42-.76,.92-.76,.47,0,.89,.27,.89,.76v.62c.72-.91,1.8-1.39,2.94-1.39,1.66,0,3.17,1.02,3.17,3.04v5.61c0,.49-.42,.76-.89,.76-.5,0-.91-.27-.91-.76v-5.29Z"/><path class="n" d="M192.9,18.27h.99v-1.91c0-.49,.42-.74,.91-.74s.89,.25,.89,.74v1.91h2.18c.49,0,.72,.35,.72,.77s-.25,.79-.74,.79h-2.16v4.58c0,1.12,.44,1.49,1.24,1.49,.37,0,.75-.12,1.06-.23,.84-.32,1.33,1.09,.35,1.51-.37,.17-1.06,.3-1.65,.3-1.9,0-2.8-.86-2.8-2.99v-4.67h-1.01c-.49,0-.7-.35-.7-.77s.24-.79,.72-.79Z"/><path class="n" d="M200.58,14.89c0-.49,.42-.76,.92-.76s.89,.27,.89,.76v4.62c.72-.91,1.8-1.39,2.94-1.39,1.68,0,3.17,1.02,3.17,3.04v5.61c0,.49-.42,.76-.89,.76-.5,0-.91-.27-.91-.76v-5.29c0-1.06-.75-1.75-1.96-1.75-.99,0-1.86,.52-2.35,1.75v5.29c0,.49-.4,.76-.89,.76s-.92-.27-.92-.76V14.89Z"/><path class="n" d="M218.58,22.06c0,.82-.25,1.28-1.43,1.28h-4.93c.08,1.75,1.17,2.67,2.63,2.67,1.09,0,1.85-.32,2.37-.64,.79-.52,1.56,.65,.79,1.28-.55,.44-1.71,.92-3.19,.92-2.7,0-4.52-1.8-4.52-4.85s2.13-4.65,4.28-4.65c2.38,0,3.99,1.73,3.99,3.99Zm-6.33-.17h4.55c-.05-1.48-1.02-2.27-2.25-2.27-1.06,0-2.11,.76-2.3,2.27Z"/></g></g></g></g></svg>