<?xml version="1.0" encoding="UTF-8"?>
<svg id="Layer_2" xmlns="http://www.w3.org/2000/svg" viewBox="0 0 50 50">
    <style>
    path{fill: #272727;}
    @media (prefers-color-scheme: dark){
        path{fill: #fff;}
    }
    </style>
    <g id="Simbol">
        <g>
            <path d="M12.239,37.312c.264-.284,.567-.427,.908-.43,.504-.004,1.048,.294,1.631,.897,.793,.808,1.412,1.322,1.859,1.54,.625,.306,1.19,.457,1.694,.452,.534-.005,.992-.128,1.375-.368,.634-.392,1.184-1.001,1.652-1.828,.467-.828,1.421-3.577,2.863-8.248,1.211-3.897,2.384-7.942,3.518-12.135l1.029-3.722c-1.418,.608-2.84,1.204-4.238,1.858-1.897,.888-3.711,1.926-5.474,3.054-1.182,.756-2.342,1.544-3.475,2.372-.196,.043-.247-.032-.235-.23,.02-.356,.006-.714,.006-1.071,.584-2.613,2.303-4.239,4.64-5.323,2.211-1.026,4.504-1.848,6.777-2.718,1.626-.623,3.232-1.291,4.771-2.11,.944-.503,1.839-1.075,2.683-1.716L27.785,1.149c-1.531-1.531-4.038-1.531-5.569,0L1.149,22.215c-1.531,1.531-1.531,4.038,0,5.569l10.733,10.733c-.009-.075-.033-.147-.034-.223-.003-.371,.127-.698,.392-.982Z" style="fill:#1d1d1b;"/>
            <path d="M48.851,22.215l-12.921-12.921-.006,.005c-.969,.825-2.005,1.54-3.088,2.179-.742,1.997-1.462,4.373-2.327,7.527l-3.211,11.608c-1.018,3.718-2.46,6.445-4.324,8.182-1.879,1.752-3.936,2.638-6.17,2.658-.888,.008-1.659-.12-2.341-.354l7.754,7.754c1.531,1.532,4.038,1.532,5.569,0l7.306-7.306c-.44,.165-.892,.302-1.37,.385-.237,.041-.477,.055-.715,.084h-.827c-.106-.012-.212-.025-.317-.037-.775-.09-1.488-.346-2.117-.812-.616-.457-1.123-.996-1.262-1.791v-.528c.068-.351,.216-.655,.487-.9,.58-.526,1.486-.342,1.808,.373,.12,.266,.187,.549,.259,.83,.038,.148,.086,.293,.137,.437,.219,.61,.688,.929,1.294,1.014,.99,.138,1.885-.141,2.676-.746,.429-.328,.801-.714,1.053-1.197,.423-.813,.398-1.62-.05-2.419-.279-.497-.669-.901-1.059-1.306-.478-.495-.983-.965-1.436-1.484-.54-.619-.87-1.336-.968-2.153-.075-.629,.026-1.239,.29-1.811,.779-1.687,2.077-2.737,3.906-3.103,.668-.134,1.343-.114,2.017-.016,.567,.082,1.124,.222,1.693,.29,.086,.01,.146,.048,.19,.126,.059,.107,.129,.208,.194,.311v.023c-.018,.046-.038,.092-.054,.138-.344,.992-.469,2.028-.604,3.062-.035,.269-.068,.538-.098,.807-.011,.102-.054,.141-.162,.136-.218-.009-.436-.003-.654-.003-.047,0-.091,0-.126-.04-.081-.092-.164-.182-.246-.273-.021-.024-.03-.052-.027-.085,.031-.35,.064-.699,.089-1.05,.026-.365,.055-.73-.009-1.096-.099-.567-.489-.971-1.052-1.067-.308-.052-.617-.032-.922,.039-.747,.176-1.304,.624-1.728,1.243-.543,.791-.548,1.844,.124,2.625,.362,.421,.754,.813,1.141,1.209,.527,.539,1.043,1.088,1.478,1.706,.696,.989,.968,2.066,.672,3.258-.015,.059-.039,.113-.056,.171l10.113-10.113c1.532-1.531,1.532-4.038,0-5.569Zm-10.113-.555l-.73,1.298-2.245-1.596,.217,2.786h-1.461l.217-2.759-2.245,1.569-.73-1.271,2.488-1.163-2.488-1.163,.73-1.271,2.245,1.568-.217-2.677h1.461l-.217,2.623,2.245-1.514,.73,1.244-2.434,1.217,2.434,1.109Z" style="fill:#1d1d1b;"/>
        </g>
    </g>
</svg>