<?xml version="1.0" standalone="no"?>
<!DOCTYPE svg PUBLIC "-//W3C//DTD SVG 1.1//EN" "http://www.w3.org/Graphics/SVG/1.1/DTD/svg11.dtd" >
<svg xmlns="http://www.w3.org/2000/svg" xmlns:xlink="http://www.w3.org/1999/xlink" version="1.1">
<metadata>
Created by FontForge 20190801 at Mon Feb 12 01:07:17 2018
 By Jimmy Wärting
Copyright (c) 2018 by S-Core Co., Ltd.. All rights reserved.
</metadata>
<defs>
<font id="S-CoreDream-7ExtraBold" horiz-adv-x="960" >
  <font-face 
    font-family="S-Core Dream 7 ExtraBold"
    font-weight="700"
    font-stretch="normal"
    units-per-em="1000"
    panose-1="2 11 8 3 3 3 2 2 2 4"
    ascent="800"
    descent="-200"
    x-height="563"
    cap-height="789"
    bbox="-36 -273 1252 1030"
    underline-thickness="50"
    underline-position="-100"
    stemh="121"
    stemv="156"
    unicode-range="U+0020-FFE6"
  />
<missing-glyph horiz-adv-x="294" 
 />
    <glyph glyph-name=".notdef" horiz-adv-x="294" 
 />
    <glyph glyph-name="_1" unicode=" " horiz-adv-x="294" 
 />
    <glyph glyph-name="_2" unicode="!" horiz-adv-x="319" 
d="M82 -2v143h155v-143h-155zM95 234l-13 434v121h155v-121l-14 -434h-128z" />
    <glyph glyph-name="_3" unicode="&#x22;" horiz-adv-x="458" 
d="M257 551v238h133v-238h-133zM68 551v238h133v-238h-133z" />
    <glyph glyph-name="_4" unicode="#" horiz-adv-x="762" 
d="M358 -2l42 197h-125l-43 -197h-140l43 197h-106v120h132l34 157h-127v120h152l44 197h140l-43 -197h125l44 197h139l-43 -197h107v-120h-132l-35 -157h128v-120h-154l-42 -197h-140zM335 472l-34 -157h125l35 157h-126z" />
    <glyph glyph-name="_5" unicode="$" horiz-adv-x="645" 
d="M324 117c79 0 124 40 124 102c0 89 -72 98 -194 123c-132 27 -213 99 -213 232c0 113 75 207 220 224v89h115v-90c133 -22 207 -114 207 -219v-13h-164v13c0 50 -41 91 -106 91c-71 0 -109 -37 -109 -91c0 -88 95 -96 195 -117c139 -30 213 -105 213 -237
c0 -126 -83 -218 -229 -235v-89h-115v89c-143 20 -226 109 -226 233v14h164v-17c0 -64 49 -102 118 -102z" />
    <glyph glyph-name="_6" unicode="%" horiz-adv-x="912" 
d="M354 -2h-120l324 791h120zM389 589c0 -140 -57 -214 -171 -214c-115 0 -171 74 -171 214s56 214 170 214c115 0 172 -74 172 -214zM268 589c0 84 -12 113 -51 113c-37 0 -50 -29 -50 -113c0 -85 13 -114 50 -114c39 0 51 29 51 114zM523 198c0 140 57 214 171 214
c115 0 171 -74 171 -214s-56 -214 -171 -214c-114 0 -171 74 -171 214zM644 198c0 -85 12 -113 50 -113c37 0 50 28 50 113c0 84 -13 113 -50 113c-38 0 -50 -29 -50 -113z" />
    <glyph glyph-name="_7" unicode="&#x26;" horiz-adv-x="744" 
d="M523 397h154c-4 -94 -26 -177 -64 -244l135 -155h-185l-48 55c-50 -46 -121 -69 -205 -69c-164 0 -268 92 -268 233c0 93 45 169 137 219c-57 61 -80 120 -80 180c0 116 90 187 220 187s220 -71 220 -187v-29h-155v26c0 41 -23 65 -65 65c-41 0 -65 -24 -65 -65
c0 -33 12 -63 50 -107l199 -229c11 32 17 75 20 120zM199 219c0 -74 53 -108 118 -108c45 0 84 13 111 41l-166 188c-44 -33 -63 -74 -63 -121z" />
    <glyph glyph-name="_8" unicode="'" horiz-adv-x="268" 
d="M68 551v238h133v-238h-133z" />
    <glyph glyph-name="_9" unicode="(" horiz-adv-x="371" 
d="M68 389c0 428 90 512 285 512v-126c-87 0 -130 -33 -130 -386s43 -386 130 -386v-126c-195 0 -285 84 -285 512z" />
    <glyph glyph-name="_10" unicode=")" horiz-adv-x="371" 
d="M303 389c0 -428 -90 -512 -285 -512v126c87 0 129 33 129 386s-42 386 -129 386v126c195 0 285 -84 285 -512z" />
    <glyph glyph-name="_11" unicode="*" horiz-adv-x="578" 
d="M224 624h130l-19 -177l145 105l66 -113l-164 -73l164 -74l-66 -113l-145 106l19 -178h-130l17 177l-144 -105l-65 113l163 74l-163 73l65 113l144 -104z" />
    <glyph glyph-name="_12" unicode="+" horiz-adv-x="597" 
d="M42 304v123h186v198h141v-198h186v-123h-186v-197h-141v197h-186z" />
    <glyph glyph-name="_13" unicode="," horiz-adv-x="314" 
d="M239 161v-163c0 -81 -53 -140 -164 -143v71c54 2 83 26 83 72h-83v163h164z" />
    <glyph glyph-name="_14" unicode="-" horiz-adv-x="452" 
d="M42 301v130h368v-130h-368z" />
    <glyph glyph-name="_15" unicode="." horiz-adv-x="314" 
d="M239 161v-163h-164v163h164z" />
    <glyph glyph-name="_16" unicode="/" horiz-adv-x="527" 
d="M527 883l-370 -990h-157l371 990h156z" />
    <glyph glyph-name="_17" unicode="0" horiz-adv-x="628" 
d="M587 394c0 -171 -27 -270 -83 -335c-43 -50 -107 -75 -190 -75s-147 25 -190 75c-57 65 -83 164 -83 335c0 170 26 269 83 334c43 50 107 75 190 75s147 -25 190 -75c56 -65 83 -164 83 -334zM201 394c0 -134 8 -203 34 -241c19 -27 44 -39 79 -39c34 0 59 12 79 39
c26 38 34 107 34 241c0 133 -8 202 -34 240c-20 27 -45 39 -79 39c-35 0 -60 -12 -79 -39c-26 -38 -34 -107 -34 -240z" />
    <glyph glyph-name="_18" unicode="1" horiz-adv-x="628" 
d="M454 -2h-160v638l-170 -77v142l193 88h137v-791z" />
    <glyph glyph-name="_19" unicode="2" horiz-adv-x="628" 
d="M565 564c0 -81 -19 -125 -79 -194l-211 -243h302v-129h-508v118l285 329c37 43 51 75 51 119c0 68 -33 109 -93 109s-94 -40 -94 -109v-29h-160v29c0 131 90 239 254 239s253 -108 253 -239z" />
    <glyph glyph-name="_20" unicode="3" horiz-adv-x="628" 
d="M311 114c64 0 107 42 107 116c0 83 -42 122 -118 122h-70v127h70c59 0 97 33 97 100c0 59 -34 94 -86 94c-51 0 -86 -35 -86 -94v-10h-156v21c0 122 90 213 242 213c153 0 243 -91 243 -213c0 -89 -48 -149 -119 -172c91 -23 142 -93 142 -196
c0 -145 -107 -238 -266 -238c-157 0 -266 93 -266 238v19h160v-11c0 -74 42 -116 106 -116z" />
    <glyph glyph-name="_21" unicode="4" horiz-adv-x="628" 
d="M182 281h166v281zM592 281v-129h-84v-154h-160v154h-313v129l302 508h171v-508h84z" />
    <glyph glyph-name="_22" unicode="5" horiz-adv-x="628" 
d="M316 386c-38 0 -64 -19 -79 -45h-152l20 448h429v-129h-281l-10 -199c21 31 62 50 116 50c126 0 216 -85 216 -264c0 -164 -95 -263 -259 -263c-157 0 -250 90 -258 234h160c6 -69 41 -104 98 -104c63 0 100 43 100 136c0 84 -30 136 -100 136z" />
    <glyph glyph-name="_23" unicode="6" horiz-adv-x="628" 
d="M566 596h-161c-6 53 -33 82 -85 82c-73 0 -104 -69 -107 -235c25 42 75 68 138 68c130 0 231 -96 231 -262c0 -164 -107 -265 -262 -265c-90 0 -168 34 -214 109c-44 69 -54 163 -54 277c0 309 83 433 270 433c138 0 230 -75 244 -207zM213 250c0 -87 39 -136 105 -136
s104 49 104 136s-38 136 -104 136s-105 -49 -105 -136z" />
    <glyph glyph-name="_24" unicode="7" horiz-adv-x="628" 
d="M61 660v129h505v-117l-251 -674h-165l254 662h-343z" />
    <glyph glyph-name="_25" unicode="8" horiz-adv-x="628" 
d="M314 -16c-166 0 -278 92 -278 238c0 99 53 165 139 196c-68 26 -115 93 -115 173c0 122 95 212 254 212c158 0 253 -90 253 -212c0 -80 -46 -147 -115 -173c86 -31 139 -97 139 -196c0 -146 -112 -238 -277 -238zM217 577c0 -60 37 -97 97 -97c59 0 97 37 97 97
c0 59 -38 96 -97 96c-60 0 -97 -37 -97 -96zM196 235c0 -76 47 -121 118 -121c70 0 117 45 117 121s-47 121 -117 121c-71 0 -118 -45 -118 -121z" />
    <glyph glyph-name="_26" unicode="9" horiz-adv-x="628" 
d="M62 191h161c6 -53 33 -82 85 -82c74 0 104 69 107 235c-24 -42 -74 -68 -138 -68c-130 0 -230 96 -230 262c0 164 106 265 262 265c90 0 167 -34 214 -109c44 -69 53 -163 53 -277c0 -309 -82 -433 -270 -433c-138 0 -230 75 -244 207zM415 537c0 87 -39 136 -104 136
c-66 0 -105 -49 -105 -136s39 -136 105 -136c65 0 104 49 104 136z" />
    <glyph glyph-name="_27" unicode=":" horiz-adv-x="314" 
d="M239 563v-163h-164v163h164zM239 161v-163h-164v163h164z" />
    <glyph glyph-name="_28" unicode=";" horiz-adv-x="314" 
d="M239 161v-163c0 -81 -53 -140 -164 -143v71c54 2 83 26 83 72h-83v163h164zM239 563v-163h-164v163h164z" />
    <glyph glyph-name="_29" unicode="&#x3c;" horiz-adv-x="593" 
d="M49 305v123l495 202v-139l-327 -125l327 -124v-139z" />
    <glyph glyph-name="_30" unicode="=" horiz-adv-x="597" 
d="M42 414v122h513v-122h-513zM42 196v123h513v-123h-513z" />
    <glyph glyph-name="_31" unicode="&#x3e;" horiz-adv-x="593" 
d="M544 428v-123l-495 -202v139l327 124l-327 125v139z" />
    <glyph glyph-name="_32" unicode="?" horiz-adv-x="582" 
d="M201 568h-154v10c0 131 85 225 242 225s242 -94 242 -225c0 -90 -29 -141 -95 -199c-60 -54 -76 -83 -76 -135v-32h-155v45c0 83 23 126 95 189c58 51 76 80 76 129c0 63 -33 98 -87 98s-88 -42 -88 -105zM205 -2v142h155v-142h-155z" />
    <glyph glyph-name="_33" unicode="@" horiz-adv-x="831" 
d="M416 693c-167 0 -226 -82 -226 -400c0 -333 71 -399 226 -399c44 0 89 10 122 28l38 -100c-47 -25 -105 -38 -163 -38c-216 0 -353 97 -353 509c0 368 102 510 356 510c253 0 355 -143 355 -507c0 -187 -88 -289 -242 -289s-232 102 -232 262c0 173 81 260 204 260
c70 0 114 -27 133 -71c-19 173 -79 235 -218 235zM434 268c0 -102 31 -147 102 -147c74 0 105 45 105 147c0 101 -31 147 -105 147c-71 0 -102 -46 -102 -147z" />
    <glyph glyph-name="_34" unicode="A" horiz-adv-x="705" 
d="M696 -2h-168l-43 152h-266l-43 -152h-168l253 791h182zM352 620l-96 -336h191z" />
    <glyph glyph-name="_35" unicode="B" horiz-adv-x="670" 
d="M379 -2h-321v791h304c168 0 253 -74 253 -216c0 -83 -42 -139 -113 -163c84 -23 136 -92 136 -184c0 -149 -87 -228 -259 -228zM473 235c0 75 -38 103 -119 103h-131v-207h131c81 0 119 29 119 104zM453 562c0 70 -40 93 -117 93h-113v-186h113c77 0 117 22 117 93z" />
    <glyph glyph-name="_36" unicode="C" horiz-adv-x="710" 
d="M42 394c0 117 17 224 76 302c51 68 127 107 243 107c188 0 300 -110 310 -284h-164c-6 91 -56 146 -146 146c-52 0 -90 -19 -114 -55c-28 -41 -40 -100 -40 -216c0 -117 12 -176 40 -217c24 -36 62 -55 114 -55c90 0 140 55 146 146h164c-10 -174 -122 -284 -310 -284
c-116 0 -192 39 -243 107c-59 78 -76 185 -76 303z" />
    <glyph glyph-name="_37" unicode="D" horiz-adv-x="707" 
d="M500 394c0 203 -46 260 -157 260h-120v-522h120c111 0 157 58 157 262zM353 -2h-295v791h295c260 0 311 -184 311 -395c0 -213 -51 -396 -311 -396z" />
    <glyph glyph-name="_38" unicode="E" horiz-adv-x="593" 
d="M59 -2v791h491v-137h-327v-180h286v-137h-286v-200h332v-137h-496z" />
    <glyph glyph-name="_39" unicode="F" horiz-adv-x="569" 
d="M59 -2v791h485v-137h-321v-191h286v-137h-286v-326h-164z" />
    <glyph glyph-name="_40" unicode="G" horiz-adv-x="723" 
d="M42 394c0 117 17 224 76 302c51 68 127 107 243 107c188 0 300 -110 310 -284h-164c-6 91 -56 146 -146 146c-52 0 -90 -19 -114 -55c-28 -41 -40 -100 -40 -216c0 -214 51 -272 156 -272c102 0 143 69 150 173h-148v122h305v-419h-118l-19 93
c-28 -64 -93 -107 -189 -107c-229 0 -302 189 -302 410z" />
    <glyph glyph-name="_41" unicode="H" horiz-adv-x="688" 
d="M465 -2v337h-242v-337h-164v791h164v-317h242v317h165v-791h-165z" />
    <glyph glyph-name="_42" unicode="I" horiz-adv-x="281" 
d="M223 789v-791h-164v791h164z" />
    <glyph glyph-name="_43" unicode="J" horiz-adv-x="599" 
d="M279 -16c-171 0 -263 94 -263 260v11h165c2 -95 34 -133 98 -133c66 0 98 39 98 143v524h165v-545c0 -166 -91 -260 -263 -260z" />
    <glyph glyph-name="_44" unicode="K" horiz-adv-x="675" 
d="M647 789l-221 -385l251 -406h-181l-203 337h-70v-337h-164v791h164v-317h70l175 317h179z" />
    <glyph glyph-name="_45" unicode="L" horiz-adv-x="569" 
d="M59 -2v791h164v-654h332v-137h-496z" />
    <glyph glyph-name="_46" unicode="M" horiz-adv-x="926" 
d="M531 -2h-136l-176 461v-461h-160v791h167l237 -620l237 620h167v-791h-160v461z" />
    <glyph glyph-name="_47" unicode="N" horiz-adv-x="700" 
d="M474 -2l-251 507v-507h-164v791h166l251 -508v508h165v-791h-167z" />
    <glyph glyph-name="_48" unicode="O" horiz-adv-x="721" 
d="M679 394c0 -118 -16 -225 -75 -303c-51 -68 -128 -107 -243 -107c-116 0 -192 39 -243 107c-59 78 -76 185 -76 303c0 117 17 224 76 302c51 68 127 107 243 107c115 0 192 -39 243 -107c59 -78 75 -185 75 -302zM207 394c0 -117 12 -176 40 -217c24 -36 62 -55 114 -55
s90 19 114 55c28 41 39 100 39 217c0 116 -11 175 -39 216c-24 36 -62 55 -114 55s-90 -19 -114 -55c-28 -41 -40 -100 -40 -216z" />
    <glyph glyph-name="_49" unicode="P" horiz-adv-x="663" 
d="M378 279h-155v-281h-164v791h319c165 0 260 -93 260 -255c0 -163 -95 -255 -260 -255zM223 416h133c78 0 117 40 117 118s-39 118 -117 118h-133v-236z" />
    <glyph glyph-name="_50" unicode="Q" horiz-adv-x="729" 
d="M678 394c0 -101 -11 -195 -53 -269l89 -75l-84 -97l-92 78c-45 -30 -104 -47 -178 -47c-251 0 -318 190 -318 410c0 217 68 409 318 409s318 -191 318 -409zM514 394c0 216 -52 271 -154 271s-154 -55 -154 -271c0 -220 53 -273 154 -273c22 0 43 3 59 10l-90 77l84 98
l86 -75c11 38 15 89 15 163z" />
    <glyph glyph-name="_51" unicode="R" horiz-adv-x="685" 
d="M468 69l-6 100c-5 80 -37 110 -121 110h-118v-281h-164v791h324c168 0 256 -91 256 -242c0 -105 -48 -174 -141 -199c86 -12 121 -64 127 -168l7 -110c2 -30 7 -54 15 -72h-166c-7 17 -11 44 -13 71zM223 416h131c75 0 119 31 119 118c0 86 -44 118 -119 118h-131v-236z
" />
    <glyph glyph-name="_52" unicode="S" horiz-adv-x="645" 
d="M613 225c0 -140 -103 -241 -285 -241c-180 0 -285 99 -285 238v15h164v-17c0 -61 45 -103 121 -103c75 0 120 42 120 103c0 54 -34 91 -108 106l-85 17c-133 26 -214 98 -214 231c0 126 95 229 271 229s271 -104 271 -225v-12h-164v12c0 54 -38 91 -107 91
c-70 0 -107 -37 -107 -91c0 -55 34 -83 110 -99l85 -17c138 -28 213 -106 213 -237z" />
    <glyph glyph-name="_53" unicode="T" horiz-adv-x="609" 
d="M13 652v137h584v-137h-210v-654h-165v654h-209z" />
    <glyph glyph-name="_54" unicode="U" horiz-adv-x="713" 
d="M357 -16c-205 0 -303 121 -303 307v498h165v-491c0 -118 43 -176 138 -176c94 0 138 58 138 176v491h164v-498c0 -186 -98 -307 -302 -307z" />
    <glyph glyph-name="_55" unicode="V" horiz-adv-x="705" 
d="M8 789h168l176 -615l176 615h168l-253 -791h-182z" />
    <glyph glyph-name="_56" unicode="W" horiz-adv-x="1077" 
d="M462 789h153l150 -582l132 582h167l-205 -791h-173l-147 568l-147 -568h-174l-205 791h167l133 -582z" />
    <glyph glyph-name="_57" unicode="X" horiz-adv-x="694" 
d="M505 -2l-158 304l-158 -304h-176l227 409l-210 382h175l142 -279l141 279h176l-211 -382l228 -409h-176z" />
    <glyph glyph-name="_58" unicode="Y" horiz-adv-x="692" 
d="M346 451l162 338h171l-251 -479v-312h-164v312l-250 479h171z" />
    <glyph glyph-name="_59" unicode="Z" horiz-adv-x="604" 
d="M34 124l331 528h-320v137h520v-126l-331 -528h336v-137h-536v126z" />
    <glyph glyph-name="_60" unicode="[" horiz-adv-x="379" 
d="M68 -107v990h277v-125h-122v-740h122v-125h-277z" />
    <glyph glyph-name="_61" unicode="\" 
d="M404 789l-76 -357h-89l-67 357h-167l81 -357h-77v-70h93l83 -364h174l79 364h86l79 -364h173l83 364h85v70h-69l81 357h-167l-66 -357h-89l-77 357h-153zM649 362h61l-28 -152zM509 432h-56l28 131zM252 362h61l-33 -152z" />
    <glyph glyph-name="_62" unicode="]" horiz-adv-x="379" 
d="M311 883v-990h-277v125h122v740h-122v125h277z" />
    <glyph glyph-name="_63" unicode="^" horiz-adv-x="500" 
d="M186 789h128l168 -270h-147l-85 143l-84 -143h-148z" />
    <glyph glyph-name="_64" unicode="_" horiz-adv-x="565" 
d="M0 -196v81h565v-81h-565z" />
    <glyph glyph-name="_65" unicode="`" horiz-adv-x="412" 
d="M210 641l-142 182h169l107 -182h-134z" />
    <glyph glyph-name="_66" unicode="a" horiz-adv-x="594" 
d="M385 63c-17 -46 -73 -79 -154 -79c-119 0 -198 67 -198 179s77 180 198 180c72 0 133 -27 154 -78v103c0 58 -28 90 -87 90c-52 0 -80 -24 -85 -68h-156c9 113 89 187 241 187c162 0 242 -86 242 -212v-286c0 -30 6 -62 15 -81h-159c-6 14 -10 40 -11 65zM287 90
c65 0 99 25 99 73c0 49 -33 74 -99 74s-98 -25 -98 -74c0 -48 34 -73 98 -73z" />
    <glyph glyph-name="_67" unicode="b" horiz-adv-x="612" 
d="M206 281c0 -119 29 -176 107 -176c79 0 108 57 108 176c0 117 -29 174 -108 174c-78 0 -107 -57 -107 -174zM206 789v-313c20 61 76 101 154 101c134 0 216 -95 216 -296c0 -202 -82 -297 -216 -297c-78 0 -134 40 -154 101v-87h-156v791h156z" />
    <glyph glyph-name="_68" unicode="c" horiz-adv-x="585" 
d="M35 281c0 182 84 296 264 296c153 0 246 -78 255 -210h-155c-5 58 -41 89 -100 89c-78 0 -108 -57 -108 -175c0 -119 30 -176 108 -176c59 0 95 31 100 89h155c-9 -132 -102 -210 -255 -210c-180 0 -264 114 -264 297z" />
    <glyph glyph-name="_69" unicode="d" horiz-adv-x="612" 
d="M406 281c0 117 -29 174 -108 174c-78 0 -108 -57 -108 -174c0 -119 30 -176 108 -176c79 0 108 57 108 176zM406 476v313h155v-791h-155v87c-20 -61 -77 -101 -155 -101c-133 0 -216 95 -216 297c0 201 83 296 216 296c78 0 135 -40 155 -101z" />
    <glyph glyph-name="_70" unicode="e" horiz-adv-x="597" 
d="M560 238h-369c4 -91 40 -140 107 -140c51 0 84 26 93 72h158c-18 -115 -108 -186 -251 -186c-179 0 -263 113 -263 297c0 182 84 296 263 296c180 0 263 -114 263 -296c0 -15 0 -31 -1 -43zM298 462c-67 0 -103 -44 -106 -126h211c-3 82 -39 126 -105 126z" />
    <glyph glyph-name="_71" unicode="f" horiz-adv-x="415" 
d="M399 676h-64c-56 0 -74 -18 -74 -64v-49h138v-121h-138v-444h-155v444h-82v121h82v59c0 124 59 175 203 175c31 0 64 -1 90 -6v-115z" />
    <glyph glyph-name="_72" unicode="g" horiz-adv-x="612" 
d="M406 -37v122c-20 -61 -77 -101 -155 -101c-132 0 -216 95 -216 297c0 201 84 296 216 296c78 0 135 -40 155 -101v87h156v-588c0 -135 -78 -239 -251 -239c-146 0 -231 69 -246 180h157c5 -46 37 -70 90 -70c62 0 94 39 94 117zM406 281c0 118 -29 175 -107 175
s-108 -57 -108 -175c0 -119 30 -176 108 -176s107 57 107 176z" />
    <glyph glyph-name="_73" unicode="h" horiz-adv-x="601" 
d="M552 356v-358h-156v355c0 70 -28 103 -80 103c-66 0 -109 -50 -109 -139v-319h-157v791h157v-320c20 65 77 108 158 108c120 0 187 -76 187 -221z" />
    <glyph glyph-name="_74" unicode="i" horiz-adv-x="264" 
d="M54 653v136h156v-136h-156zM54 -2v565h156v-565h-156z" />
    <glyph glyph-name="_75" unicode="j" horiz-adv-x="289" 
d="M79 -49v612h156v-625c0 -122 -66 -186 -203 -186c-18 0 -52 1 -68 3v117h44c48 0 71 25 71 79zM79 653v136h156v-136h-156z" />
    <glyph glyph-name="_76" unicode="k" horiz-adv-x="565" 
d="M50 -2v791h157v-439h45l119 213h165l-159 -271l183 -294h-167l-142 236h-44v-236h-157z" />
    <glyph glyph-name="_77" unicode="l" horiz-adv-x="264" 
d="M210 -2h-156v791h156v-791z" />
    <glyph glyph-name="_78" unicode="m" horiz-adv-x="932" 
d="M728 -2v361c0 64 -27 96 -78 96c-65 0 -106 -50 -106 -139v-318h-155v361c0 64 -27 96 -78 96c-64 0 -105 -50 -105 -139v-318h-156v565h156v-95c20 66 73 109 154 109s141 -39 167 -110c33 74 93 110 172 110c117 0 184 -78 184 -222v-357h-155z" />
    <glyph glyph-name="_79" unicode="n" horiz-adv-x="601" 
d="M552 356v-358h-156v355c0 70 -28 103 -80 103c-66 0 -109 -50 -109 -139v-319h-157v565h157v-94c20 65 77 108 158 108c120 0 187 -76 187 -221z" />
    <glyph glyph-name="_80" unicode="o" horiz-adv-x="597" 
d="M562 281c0 -183 -84 -297 -263 -297c-180 0 -264 114 -264 297c0 182 84 296 264 296c179 0 263 -114 263 -296zM406 281c0 118 -29 175 -107 175s-108 -57 -108 -175c0 -119 30 -176 108 -176s107 57 107 176z" />
    <glyph glyph-name="_81" unicode="p" horiz-adv-x="612" 
d="M206 281c0 -119 29 -176 107 -176c79 0 108 57 108 176c0 117 -29 174 -108 174c-78 0 -107 -57 -107 -174zM206 85v-333h-156v811h156v-87c20 61 76 101 154 101c134 0 216 -95 216 -296c0 -202 -82 -297 -216 -297c-78 0 -134 40 -154 101z" />
    <glyph glyph-name="_82" unicode="q" horiz-adv-x="612" 
d="M406 281c0 117 -29 174 -108 174c-78 0 -108 -57 -108 -174c0 -119 30 -176 108 -176c79 0 108 57 108 176zM406 -248v333c-20 -61 -77 -101 -155 -101c-133 0 -216 95 -216 297c0 201 83 296 216 296c78 0 135 -40 155 -101v87h155v-811h-155z" />
    <glyph glyph-name="_83" unicode="r" horiz-adv-x="411" 
d="M350 448c-90 0 -143 -58 -143 -168v-282h-157v565h157v-105c17 79 63 119 147 119c17 0 33 -2 44 -5l-2 -126c-9 1 -27 2 -46 2z" />
    <glyph glyph-name="_84" unicode="s" horiz-adv-x="536" 
d="M36 162v10h155v-15c0 -37 30 -61 80 -61c49 0 79 25 79 60c0 36 -19 55 -76 65l-55 10c-121 22 -183 75 -183 173c0 100 83 173 223 173c144 0 222 -71 222 -169v-10h-155v11c0 32 -22 56 -67 56c-43 0 -66 -22 -66 -55s21 -50 75 -60l56 -10c127 -24 180 -76 180 -178
s-88 -178 -234 -178c-150 0 -234 77 -234 178z" />
    <glyph glyph-name="_85" unicode="t" horiz-adv-x="434" 
d="M258 442v-252c0 -65 20 -80 89 -80h58v-117c-21 -2 -67 -3 -95 -3c-150 0 -208 46 -208 176v276h-82v121h82v160h156v-160h147v-121h-147z" />
    <glyph glyph-name="_86" unicode="u" horiz-adv-x="600" 
d="M48 205v358h156v-355c0 -70 29 -103 81 -103c65 0 109 50 109 139v319h156v-565h-156v94c-20 -65 -78 -108 -158 -108c-121 0 -188 76 -188 221z" />
    <glyph glyph-name="_87" unicode="v" horiz-adv-x="592" 
d="M380 -2h-168l-199 565h160l123 -401l124 401h160z" />
    <glyph glyph-name="_88" unicode="w" horiz-adv-x="920" 
d="M727 -2h-156l-112 381l-111 -381h-156l-179 565h157l108 -395l115 395h133l115 -395l108 395h157z" />
    <glyph glyph-name="_89" unicode="x" horiz-adv-x="557" 
d="M386 -2l-107 198l-108 -198h-162l171 290l-160 275h163l96 -183l96 183h162l-160 -275l171 -290h-162z" />
    <glyph glyph-name="_90" unicode="y" horiz-adv-x="593" 
d="M200 -67l23 63l-210 567h160l125 -384l122 384h160l-228 -641c-48 -137 -95 -170 -203 -170c-20 0 -48 0 -66 2v118h42c34 0 58 12 75 61z" />
    <glyph glyph-name="_91" unicode="z" horiz-adv-x="511" 
d="M473 563v-110l-250 -334h258v-121h-452v109l251 334h-242v122h435z" />
    <glyph glyph-name="_92" unicode="{" horiz-adv-x="404" 
d="M34 325v125h22c48 0 68 32 68 79v158c0 136 54 196 193 196h53v-125h-23c-45 0 -67 -30 -67 -79v-171c0 -58 -24 -103 -83 -120c59 -17 83 -62 83 -120v-171c0 -50 22 -79 67 -79h23v-125h-53c-139 0 -193 60 -193 196v157c0 48 -20 79 -68 79h-22z" />
    <glyph glyph-name="_93" unicode="|" horiz-adv-x="322" 
d="M83 -107v990h156v-990h-156z" />
    <glyph glyph-name="_94" unicode="}" horiz-adv-x="404" 
d="M370 450v-125h-23c-47 0 -67 -31 -67 -79v-157c0 -136 -55 -196 -194 -196h-52v125h22c46 0 68 29 68 79v171c0 58 24 103 83 120c-59 17 -83 62 -83 120v171c0 49 -22 79 -68 79h-22v125h52c139 0 194 -60 194 -196v-158c0 -47 20 -79 67 -79h23z" />
    <glyph glyph-name="_95" unicode="~" horiz-adv-x="592" 
d="M190 462c96 0 122 -61 171 -61c26 0 40 17 41 53l140 1c0 -109 -42 -184 -140 -184c-96 0 -123 61 -171 61c-26 0 -41 -17 -41 -53l-140 -1c0 109 42 184 140 184z" />
    <glyph glyph-name="_101" unicode="&#x3000;" 
 />
    <glyph glyph-name="_101" unicode="&#x3164;" 
 />
    <glyph glyph-name="_106" unicode="&#x2026;" 
d="M557 506h-155v-163h155v163zM258 506h-155v-163h155v163zM856 506h-155v-163h155v163z" />
    <glyph glyph-name="_107" unicode="&#xa8;" horiz-adv-x="600" 
d="M499 791h-154v-163h154v163zM254 791h-154v-163h154v163z" />
    <glyph glyph-name="_108" unicode="&#x3003;" 
d="M353 670l-159 -478l93 -33l193 466zM637 660l-160 -477l93 -34l195 467z" />
    <glyph glyph-name="_112" unicode="&#xff3c;" 
d="M931 34l-814 793l-88 -88l816 -794z" />
    <glyph glyph-name="_114" unicode="&#x2018;" horiz-adv-x="296" 
d="M67 571h165v163h-83c0 46 28 69 83 72v71c-109 -4 -165 -62 -165 -143v-163z" />
    <glyph glyph-name="_115" unicode="&#x2019;" horiz-adv-x="296" 
d="M229 877h-165v-163h82c0 -46 -27 -70 -82 -73v-70c109 3 165 62 165 143v163z" />
    <glyph glyph-name="_116" unicode="&#x201c;" horiz-adv-x="517" 
d="M64 571h165v163h-83c0 46 28 69 83 72v71c-109 -4 -165 -62 -165 -143v-163zM289 571h163v163h-81c0 46 27 69 81 72v71c-108 -4 -163 -62 -163 -143v-163z" />
    <glyph glyph-name="_117" unicode="&#x201d;" horiz-adv-x="517" 
d="M229 877h-165v-163h82c0 -46 -27 -70 -82 -73v-70c109 3 165 62 165 143v163zM452 877h-163v-163h82c0 -46 -28 -70 -82 -73v-70c107 3 163 62 163 143v163z" />
    <glyph glyph-name="_130" unicode="&#xb1;" horiz-adv-x="597" 
d="M41 392h186v-185h142v185h186v122h-186v186h-142v-186h-186v-122zM41 41h514v122h-514v-122z" />
    <glyph glyph-name="_131" unicode="&#xd7;" horiz-adv-x="597" 
d="M543 211l-150 153l150 154l-95 94l-150 -151l-149 151l-96 -94l150 -154l-150 -153l96 -94l149 152l150 -152z" />
    <glyph glyph-name="_132" unicode="&#xf7;" horiz-adv-x="597" 
d="M41 304h514v122h-514v-122zM373 640h-150v-149h150v149zM223 91h150v149h-150v-149z" />
    <glyph glyph-name="_133" unicode="&#x2260;" horiz-adv-x="597" 
d="M555 196v122h-236l54 94h182v122h-111l69 121h-99l-70 -121h-303v-122h232l-54 -94h-178v-122h108l-69 -119h99l69 119h307z" />
    <glyph glyph-name="_134" unicode="&#x2264;" horiz-adv-x="597" 
d="M546 340l-316 114l316 116v138l-496 -188v-131l496 -189v140zM41 41h514v121h-514v-121z" />
    <glyph glyph-name="_135" unicode="&#x2265;" horiz-adv-x="597" 
d="M546 520l-496 188v-138l318 -116l-318 -114v-140l496 189v131zM555 162h-514v-121h514v121z" />
    <glyph glyph-name="_136" unicode="&#x221e;" 
d="M402 372c-33 -45 -67 -63 -102 -63c-38 0 -64 24 -64 63c0 38 26 61 64 61c35 0 69 -17 102 -61zM480 298c51 -69 118 -101 191 -101c116 0 189 67 189 175c0 107 -73 175 -189 175c-73 0 -140 -34 -191 -102c-52 68 -120 102 -192 102c-116 0 -189 -68 -189 -175
c0 -108 73 -175 189 -175c72 0 140 32 192 101zM557 372c33 44 67 61 102 61c38 0 65 -23 65 -61c0 -39 -27 -63 -65 -63c-35 0 -69 18 -102 63z" />
    <glyph glyph-name="_137" unicode="&#x2234;" 
d="M558 716h-157v-163h157v163zM303 246h-154v-163h154v163zM810 246h-154v-163h154v163z" />
    <glyph glyph-name="_138" unicode="&#xb0;" horiz-adv-x="404" 
d="M363 641c0 91 -63 159 -162 159c-98 0 -161 -68 -161 -159c0 -92 63 -159 161 -159c99 0 162 67 162 159zM146 641c0 38 23 61 55 61c33 0 56 -23 56 -61s-23 -62 -56 -62c-32 0 -55 24 -55 62z" />
    <glyph glyph-name="_139" unicode="&#x2032;" horiz-adv-x="252" 
d="M22 531h125l83 260h-153z" />
    <glyph glyph-name="_140" unicode="&#x2033;" horiz-adv-x="454" 
d="M22 531h125l83 260h-153zM225 531h123l84 260h-153z" />
    <glyph glyph-name="_141" unicode="&#x2103;" 
d="M337 653c0 84 -64 149 -156 149s-155 -65 -155 -149c0 -83 63 -148 155 -148s156 65 156 148zM131 653c0 31 21 52 50 52s50 -21 50 -52c0 -30 -21 -51 -50 -51s-50 21 -50 51zM333 394c0 -164 32 -285 111 -351c47 -40 111 -61 194 -61c185 0 289 114 297 285h-163
c-5 -92 -48 -148 -134 -148c-39 0 -68 11 -90 33c-38 39 -52 117 -52 242c0 118 14 195 49 235c22 26 52 37 93 37c86 0 129 -56 134 -147h163c-8 171 -112 286 -297 286c-89 0 -156 -26 -204 -73c-70 -69 -101 -184 -101 -338z" />
    <glyph glyph-name="_142" unicode="&#x212b;" 
d="M134 -4h168l44 153h267l45 -153h168l-240 746c31 27 49 66 49 111c0 83 -63 149 -156 149c-91 0 -155 -66 -155 -149c0 -45 18 -84 49 -111zM576 283h-193l97 339zM529 853c0 -31 -20 -52 -50 -52c-29 0 -50 21 -50 52c0 30 21 52 50 52c30 0 50 -22 50 -52z" />
    <glyph glyph-name="_143" unicode="&#xffe0;" 
d="M220 280c0 -159 61 -263 190 -290v-94h142v93c110 20 177 92 187 203h-154c-6 -58 -41 -89 -102 -89c-80 0 -109 59 -109 177c0 116 29 176 109 176c61 0 96 -32 102 -89h154c-10 111 -76 183 -187 204v94h-142v-95c-129 -28 -190 -132 -190 -290z" />
    <glyph glyph-name="_144" unicode="&#xffe1;" 
d="M437 412c-15 43 -30 81 -30 165c0 54 26 89 82 89c54 0 80 -38 80 -89v-24h161v25c0 124 -85 226 -241 226c-157 0 -243 -102 -243 -226c0 -74 15 -121 32 -166h-58v-107h73c-10 -73 -24 -134 -69 -186v-123h515v135h-363c47 43 73 102 75 174h163v107h-177z" />
    <glyph glyph-name="_145" unicode="&#xffe5;" 
d="M245 210h152v-214h165v214h151v80h-151v54h151v81h-112l212 365h-174l-160 -312l-160 312h-174l212 -365h-112v-81h152v-54h-152v-80z" />
    <glyph glyph-name="_146" unicode="&#x2642;" 
d="M480 888l-287 -381l84 -62l146 205v-241c-116 -21 -196 -119 -196 -244c0 -139 111 -246 253 -246s254 107 254 246c0 125 -80 223 -197 244v240l147 -206l82 64zM354 165c0 85 48 146 126 146s127 -61 127 -146c0 -82 -49 -144 -127 -144s-126 62 -126 144z" />
    <glyph glyph-name="_147" unicode="&#x2640;" 
d="M197 556c0 -145 100 -255 225 -277v-99h-127v-103h127v-137h116v137h127v103h-127v99c120 19 225 132 225 277c0 159 -123 281 -283 281c-159 0 -283 -122 -283 -281zM322 556c0 101 63 179 158 179c96 0 158 -78 158 -179c0 -100 -62 -177 -158 -177
c-95 0 -158 77 -158 177z" />
    <glyph glyph-name="_148" unicode="&#x2220;" 
d="M805 655l-93 84l-614 -601v-87h763v116h-558z" />
    <glyph glyph-name="_149" unicode="&#x22a5;" 
d="M548 167v596h-136v-596h-315v-116h766v116h-315z" />
    <glyph glyph-name="_150" unicode="&#x2312;" 
d="M21 670l72 -92c96 98 227 165 387 165s292 -67 389 -163l70 90c-111 117 -271 197 -459 197s-349 -80 -459 -197z" />
    <glyph glyph-name="_151" unicode="&#x2202;" 
d="M413 597c13 48 44 79 94 79c63 0 89 -53 89 -167c0 -20 -2 -42 -3 -64c-20 42 -69 66 -133 66c-143 0 -254 -99 -254 -280c0 -158 92 -249 237 -249c226 0 310 173 310 511c0 204 -68 312 -235 312c-139 0 -230 -78 -265 -208h160zM460 111c-61 0 -95 40 -95 112
c0 95 41 159 118 159c61 0 94 -41 94 -115c0 -94 -42 -156 -117 -156z" />
    <glyph glyph-name="_152" unicode="&#x2207;" 
d="M134 790l255 -794h181l255 794h-691zM339 656h280l-139 -488z" />
    <glyph glyph-name="_153" unicode="&#x2261;" horiz-adv-x="597" 
d="M41 494h514v123h-514v-123zM41 304h514v122h-514v-122zM41 114h514v123h-514v-123z" />
    <glyph glyph-name="_154" unicode="&#x2252;" horiz-adv-x="597" 
d="M41 400h514v122h-514v-122zM41 209h514v122h-514v-122zM493 155h-162v-163h162v163zM263 738h-161v-163h161v163z" />
    <glyph glyph-name="_155" unicode="&#xa7;" 
d="M474 424c64 -16 92 -45 92 -100c0 -38 -15 -70 -49 -89c-84 26 -125 35 -125 108c0 37 15 71 49 88c12 -2 24 -5 33 -7zM487 -153c135 0 223 74 223 187c0 69 -24 116 -77 151c55 33 85 89 85 152c0 137 -89 186 -229 219c-62 15 -88 41 -88 85c0 42 27 67 71 67
c40 0 69 -28 69 -67v-12h153v13c0 107 -88 182 -222 182c-136 0 -224 -76 -224 -189c0 -69 26 -117 76 -152c-54 -33 -83 -90 -83 -152c0 -140 82 -181 217 -217c70 -19 99 -40 99 -86c0 -42 -28 -67 -70 -67c-41 0 -71 29 -71 67v13h-152v-13c0 -107 88 -181 223 -181z" />
    <glyph glyph-name="_156" unicode="&#x203b;" 
d="M863 685l-87 88l-296 -297l-295 297l-88 -88l296 -296l-296 -296l88 -87l295 296l296 -296l87 87l-296 296zM578 705c0 57 -42 99 -99 99c-56 0 -99 -42 -99 -99c0 -56 43 -99 99 -99c57 0 99 43 99 99zM578 80c0 56 -42 99 -99 99c-56 0 -99 -43 -99 -99s43 -98 99 -98
c57 0 99 42 99 98zM270 389c0 56 -44 99 -99 99c-57 0 -99 -43 -99 -99s42 -99 99 -99c55 0 99 43 99 99zM887 389c0 56 -43 99 -99 99s-99 -43 -99 -99s43 -99 99 -99s99 43 99 99z" />
    <glyph glyph-name="_157" unicode="&#x2606;" 
d="M353 545h-315l-11 -41l255 -191l-127 -334l35 -26l290 217l289 -217l34 27l-125 333l255 191l-11 41h-315l-105 312h-44zM414 466l66 222l68 -218l221 6l-194 -128l107 -241l-202 163l-201 -159l104 234l-197 127z" />
    <glyph glyph-name="_158" unicode="&#x2605;" 
d="M354 545h-317l-10 -30l258 -201l-128 -341l25 -20l298 219l297 -219l23 21l-124 341l257 200l-10 30l-317 -1l-110 313h-32z" />
    <glyph glyph-name="_159" unicode="&#x25cb;" 
d="M926 390c0 248 -194 446 -446 446c-253 0 -446 -197 -446 -446s192 -446 446 -446c253 0 446 197 446 446zM827 390c0 -198 -148 -354 -346 -354c-199 0 -345 156 -345 354c0 197 146 354 345 354c198 0 346 -157 346 -354z" />
    <glyph glyph-name="_160" unicode="&#x25cf;" 
d="M926 390c0 248 -194 446 -446 446c-253 0 -446 -197 -446 -446s192 -446 446 -446c253 0 446 197 446 446z" />
    <glyph glyph-name="_161" unicode="&#x25ce;" 
d="M183 390c0 -169 131 -298 297 -298s297 129 297 298s-131 299 -297 299s-297 -130 -297 -299zM691 390c0 -130 -88 -222 -211 -222s-211 92 -211 222s88 221 211 221s211 -91 211 -221zM926 390c0 248 -194 446 -446 446c-253 0 -446 -197 -446 -446s192 -446 446 -446
c253 0 446 197 446 446zM837 390c0 -201 -155 -364 -356 -364c-202 0 -356 163 -356 364c0 200 154 364 356 364c201 0 356 -164 356 -364z" />
    <glyph glyph-name="_162" unicode="&#x25c7;" 
d="M480 872l-460 -484l460 -484l460 484zM480 738l331 -350l-331 -350l-333 350z" />
    <glyph glyph-name="_163" unicode="&#x25c6;" 
d="M480 872l-460 -484l460 -484l460 484z" />
    <glyph glyph-name="_164" unicode="&#x25a1;" 
d="M196 106v574h567v-574h-567zM863 13v760h-767v-760h767z" />
    <glyph glyph-name="_165" unicode="&#x25a0;" 
d="M863 13v760h-767v-760h767z" />
    <glyph glyph-name="_166" unicode="&#x25b3;" 
d="M480 814l-457 -796h914zM480 631l295 -523h-590z" />
    <glyph glyph-name="_167" unicode="&#x25b2;" 
d="M480 814l-457 -796h914z" />
    <glyph glyph-name="_168" unicode="&#x25bd;" 
d="M937 764h-914l457 -796zM185 673h590l-295 -523z" />
    <glyph glyph-name="_169" unicode="&#x25bc;" 
d="M937 764h-914l457 -796z" />
    <glyph glyph-name="_170" unicode="&#x2192;" 
d="M32 296h622v-131l273 207l-273 207v-132h-622v-151z" />
    <glyph glyph-name="_171" unicode="&#x2190;" 
d="M927 447h-624v132l-271 -207l271 -207v131h624v151z" />
    <glyph glyph-name="_172" unicode="&#x2191;" 
d="M555 -47v622h131l-206 272l-208 -272h132v-622h151z" />
    <glyph glyph-name="_173" unicode="&#x2193;" 
d="M404 847v-623h-132l208 -271l206 271h-131v623h-151z" />
    <glyph glyph-name="_174" unicode="&#x2194;" 
d="M303 579l-271 -207l271 -207v131h352v-131l272 207l-272 207v-132h-352v132z" />
    <glyph glyph-name="_178" unicode="&#x221a;" 
d="M624 722h300v126h-427l-213 -781l-96 228h-172l198 -424h170z" />
    <glyph glyph-name="_179" unicode="&#x223d;" 
d="M524 327c50 71 93 106 135 106c38 0 65 -23 65 -61c0 -39 -27 -63 -65 -63c-17 0 -32 5 -49 14l-53 -96c35 -20 73 -30 114 -30c116 0 189 67 189 175c0 107 -73 175 -189 175c-95 0 -176 -51 -233 -134c-47 -68 -95 -104 -138 -104c-38 0 -64 24 -64 63
c0 38 26 61 64 61c16 0 31 -4 45 -11l47 99c-32 17 -67 26 -104 26c-116 0 -189 -68 -189 -175c0 -108 73 -175 189 -175c95 0 177 45 236 130z" />
    <glyph glyph-name="_180" unicode="&#x221d;" 
d="M402 372c-33 -45 -67 -63 -102 -63c-38 0 -64 24 -64 63c0 38 26 61 64 61c35 0 69 -17 102 -61zM714 330c-14 -12 -34 -21 -55 -21c-35 0 -69 18 -102 63c33 44 67 61 102 61c18 0 37 -7 50 -16l66 106c-29 15 -64 24 -104 24c-73 0 -140 -34 -191 -102
c-52 68 -120 102 -192 102c-116 0 -189 -68 -189 -175c0 -108 73 -175 189 -175c72 0 140 32 192 101c51 -69 118 -102 191 -102c48 0 89 12 121 34z" />
    <glyph glyph-name="_181" unicode="&#x2235;" 
d="M558 246h-157v-163h157v163zM303 716h-154v-163h154v163zM810 716h-154v-163h154v163z" />
    <glyph glyph-name="_182" unicode="&#x222b;" 
d="M695 759v116c-27 4 -59 6 -89 6c-145 0 -204 -52 -204 -177v-645c0 -48 -19 -65 -76 -65h-62v-115c25 -4 57 -5 88 -5c145 0 205 50 205 174v646c0 47 18 65 74 65h64z" />
    <glyph glyph-name="_183" unicode="&#x222c;" 
d="M522 759v116c-26 4 -57 6 -86 6c-146 0 -204 -52 -204 -177v-645c0 -48 -19 -65 -76 -65h-60v-115c26 -4 58 -5 86 -5c145 0 204 50 204 174v646c0 47 19 65 75 65h61zM862 759v116c-26 4 -56 6 -86 6c-142 0 -204 -51 -204 -177v-645c0 -48 -18 -65 -76 -65h-60v-115
c26 -4 58 -5 86 -5c141 0 205 48 205 174v646c0 47 18 65 74 65h61z" />
    <glyph glyph-name="_184" unicode="&#x2208;" 
d="M251 456c21 80 96 128 245 128h351v135h-354c-239 0 -401 -104 -401 -331c0 -228 162 -332 401 -332h354v134h-351c-150 0 -224 48 -246 131h597v135h-596z" />
    <glyph glyph-name="_185" unicode="&#x220b;" 
d="M112 456v-135h596c-21 -83 -95 -131 -246 -131h-350v-134h353c239 0 402 104 402 332c0 227 -163 331 -402 331h-353v-135h350c149 0 224 -48 245 -128h-595z" />
    <glyph glyph-name="_186" unicode="&#x2286;" 
d="M115 124v-129h736v129h-736zM239 511c0 95 67 145 209 145h395v132h-398c-215 0 -357 -88 -357 -277c0 -190 142 -278 357 -278h398v131h-395c-142 0 -209 50 -209 147z" />
    <glyph glyph-name="_187" unicode="&#x2287;" 
d="M108 124v-129h736v129h-736zM720 511c0 -97 -67 -147 -209 -147h-395v-131h398c215 0 357 88 357 278c0 189 -142 277 -357 277h-398v-132h395c142 0 209 -50 209 -145z" />
    <glyph glyph-name="_188" unicode="&#x2282;" 
d="M244 388c0 119 67 197 253 197h350v135h-353c-238 0 -401 -105 -401 -332s163 -332 401 -332h353v134h-350c-186 0 -253 79 -253 198z" />
    <glyph glyph-name="_189" unicode="&#x2283;" 
d="M715 388c0 -119 -66 -198 -252 -198h-351v-134h354c238 0 401 105 401 332s-163 332 -401 332h-354v-135h351c186 0 252 -78 252 -197z" />
    <glyph glyph-name="_190" unicode="&#x222a;" 
d="M479 109c-112 0 -184 84 -184 281v355h-148v-358c0 -237 106 -396 332 -396c227 0 333 159 333 396v358h-148v-355c0 -197 -72 -281 -185 -281z" />
    <glyph glyph-name="_191" unicode="&#x2229;" 
d="M479 649c113 0 185 -84 185 -281v-355h148v358c0 237 -106 396 -333 396c-226 0 -332 -159 -332 -396v-358h148v355c0 197 72 281 184 281z" />
    <glyph glyph-name="_192" unicode="&#x2227;" 
d="M95 47l128 -55l256 566l259 -566l127 55l-347 732h-76z" />
    <glyph glyph-name="_193" unicode="&#x2228;" 
d="M442 -12h76l347 732l-127 55l-259 -565l-256 565l-128 -55z" />
    <glyph glyph-name="_194" unicode="&#xffe2;" 
d="M118 538v-128h576v-231h152v359h-728z" />
    <glyph glyph-name="_195" unicode="&#x21d2;" 
d="M600 521h-565v-100h684l62 -51l-66 -56h-680v-99h567l-99 -86l66 -73l355 314l-356 304l-65 -72z" />
    <glyph glyph-name="_196" unicode="&#x21d4;" 
d="M635 521h-310l89 82l-67 70l-327 -303l326 -313l68 71l-91 87h313l-90 -87l68 -71l326 313l-327 303l-67 -70zM217 421h525l56 -51l-59 -56h-519l-58 56z" />
    <glyph glyph-name="_197" unicode="&#x2200;" 
d="M657 790l-43 -153h-268l-44 153h-168l255 -794h181l255 794h-168zM577 503l-97 -339l-97 339h194z" />
    <glyph glyph-name="_198" unicode="&#x2203;" 
d="M719 791h-498v-137h333v-202h-287v-137h287v-182h-328v-137h493v795z" />
    <glyph glyph-name="_199" unicode="&#xb4;" horiz-adv-x="414" 
d="M345 825h-169l-107 -183h134z" />
    <glyph glyph-name="_201" unicode="&#x2c7;" horiz-adv-x="438" 
d="M285 824l-67 -84l-66 84h-130l133 -183h127l133 183h-130z" />
    <glyph glyph-name="_202" unicode="&#x2d8;" horiz-adv-x="433" 
d="M217 643c105 0 179 61 183 172h-123c-1 -47 -23 -69 -60 -69s-59 22 -60 69h-125c4 -111 79 -172 185 -172z" />
    <glyph glyph-name="_203" unicode="&#x2dd;" horiz-adv-x="453" 
d="M455 825h-158l-117 -187h126zM243 825h-158l-86 -187h127z" />
    <glyph glyph-name="_204" unicode="&#x2da;" horiz-adv-x="407" 
d="M329 732c0 77 -53 120 -125 120c-73 0 -126 -43 -126 -120c0 -75 53 -119 126 -119c72 0 125 44 125 119zM166 732c0 26 14 42 38 42c23 0 37 -16 37 -42c0 -25 -14 -40 -37 -40c-24 0 -38 15 -38 40z" />
    <glyph glyph-name="_205" unicode="&#x2d9;" horiz-adv-x="387" 
d="M267 804h-148v-148h148v148z" />
    <glyph glyph-name="_206" unicode="&#xb8;" horiz-adv-x="414" 
d="M67 -233c32 -24 80 -40 133 -40c92 0 147 46 147 116c0 56 -38 96 -106 103l25 50h-107l-45 -97l19 -24c10 4 32 6 43 6c37 0 54 -12 54 -34s-15 -33 -45 -33c-27 0 -55 10 -79 27z" />
    <glyph glyph-name="_207" unicode="&#x2db;" horiz-adv-x="413" 
d="M156 -4c-54 -29 -87 -78 -87 -127v-8c0 -71 58 -112 151 -112c52 0 97 14 124 43l-45 68c-17 -15 -39 -22 -63 -22c-34 0 -52 19 -52 44v6c0 33 28 74 85 108h-113z" />
    <glyph glyph-name="_208" unicode="&#xa1;" horiz-adv-x="325" 
d="M98 331l-14 -435v-127h155v127l-13 435h-128zM239 563h-155v-143h155v143z" />
    <glyph glyph-name="_209" unicode="&#xbf;" horiz-adv-x="586" 
d="M383 -9c0 -63 -34 -106 -88 -106c-52 0 -89 39 -89 98c0 51 18 79 76 129c74 64 96 108 96 190v44h-155v-31c0 -53 -16 -82 -76 -135c-66 -59 -96 -109 -96 -199c0 -131 86 -225 244 -225c157 0 243 94 243 225v10h-155zM378 563h-155v-143h155v143z" />
    <glyph glyph-name="_211" unicode="&#x222e;" 
d="M246 372c0 -101 65 -180 157 -208v-105c0 -48 -19 -66 -76 -66h-63v-116c26 -4 58 -5 89 -5c144 0 203 51 203 176v116c92 28 158 106 158 208c0 100 -66 178 -158 206v117c0 46 19 64 76 64h63v116c-26 4 -58 6 -89 6c-145 0 -203 -51 -203 -176v-127
c-92 -28 -157 -106 -157 -206zM353 372c0 43 19 77 50 98v-198c-31 21 -50 56 -50 100zM607 372c0 -44 -19 -79 -51 -100v199c32 -21 51 -56 51 -99z" />
    <glyph glyph-name="_212" unicode="&#x2211;" 
d="M208 53v-133h543v137h-356l163 272v41l-164 283h357v138h-543v-137l178 -304z" />
    <glyph glyph-name="_213" unicode="&#x220f;" 
d="M602 -80h165v871h-574v-871h165v733h244v-733z" />
    <glyph glyph-name="_214" unicode="&#xa4;" horiz-adv-x="714" 
d="M612 366c0 47 -13 91 -37 128l100 100l-99 99l-103 -104c-35 17 -74 27 -116 27s-81 -10 -116 -27l-104 104l-98 -99l99 -100c-23 -37 -36 -81 -36 -128c0 -48 13 -92 36 -129l-99 -100l98 -99l104 104c35 -17 74 -27 116 -27s81 10 116 27l103 -104l99 99l-100 100
c24 37 37 81 37 129zM469 366c0 -76 -48 -122 -112 -122s-112 46 -112 122c0 75 48 121 112 121s112 -46 112 -121z" />
    <glyph glyph-name="_215" unicode="&#x2109;" 
d="M394 -4h165v327h287v137h-287v193h322v138h-487v-795zM337 653c0 84 -64 149 -156 149s-155 -65 -155 -149c0 -83 63 -148 155 -148s156 65 156 148zM131 653c0 31 21 52 50 52s50 -21 50 -52c0 -30 -21 -51 -50 -51s-50 21 -50 51z" />
    <glyph glyph-name="_216" unicode="&#x2030;" horiz-adv-x="1299" 
d="M234 -2h120c108 264 216 527 324 791h-120c-108 -264 -216 -527 -324 -791zM389 589c0 140 -57 214 -172 214c-114 0 -170 -74 -170 -214s56 -214 171 -214c114 0 171 74 171 214zM268 589c0 -85 -12 -114 -51 -114c-37 0 -50 29 -50 114c0 84 13 113 50 113
c39 0 51 -29 51 -113zM523 198c0 -140 57 -214 171 -214c115 0 171 74 171 214s-56 214 -171 214c-114 0 -171 -74 -171 -214zM644 198c0 84 12 113 50 113c37 0 50 -29 50 -113c0 -85 -13 -113 -50 -113c-38 0 -50 28 -50 113zM910 198c0 -140 56 -214 171 -214
c114 0 171 74 171 214s-57 214 -172 214c-114 0 -170 -74 -170 -214zM1030 198c0 84 13 113 50 113c38 0 50 -29 50 -113c0 -85 -12 -113 -50 -113c-37 0 -50 28 -50 113z" />
    <glyph glyph-name="_217" unicode="&#x25c1;" 
d="M52 392l796 -457v914zM231 392l515 295v-590z" />
    <glyph glyph-name="_218" unicode="&#x25c0;" 
d="M52 392l796 -457v914z" />
    <glyph glyph-name="_219" unicode="&#x25b7;" 
d="M112 849v-914l796 457zM213 97v590l515 -295z" />
    <glyph glyph-name="_220" unicode="&#x25b6;" 
d="M112 849v-914l796 457z" />
    <glyph glyph-name="_221" unicode="&#x2664;" 
d="M53 381c0 -61 22 -107 57 -139c35 -31 88 -47 142 -48c64 0 127 26 160 70c-12 -96 -68 -186 -175 -212v-62h484v62c-110 28 -164 114 -176 213c36 -46 96 -71 162 -71c50 1 103 15 139 47s61 79 61 140c0 83 -60 164 -142 236c-81 71 -187 139 -285 195
c-99 -57 -206 -125 -286 -196c-83 -72 -141 -152 -141 -235zM458 430c-4 -42 -33 -87 -71 -114s-90 -40 -124 -40c-80 0 -111 44 -111 115c0 54 40 112 108 174c69 63 149 116 220 157c70 -39 149 -95 217 -154c66 -57 112 -115 112 -177c0 -71 -39 -112 -113 -112
c-38 0 -90 11 -127 39c-38 28 -61 71 -66 112h-45zM575 58h-192v4c70 54 87 148 94 251h4c5 -101 24 -197 94 -251v-4z" />
    <glyph glyph-name="_222" unicode="&#x2660;" 
d="M53 381c0 -61 22 -107 57 -139c35 -31 88 -47 142 -48c64 0 129 27 164 72c-13 -98 -72 -188 -179 -214v-62h484v62c-110 28 -167 114 -180 215c38 -48 100 -73 166 -73c50 1 103 15 139 47s61 79 61 140c0 83 -60 164 -142 236c-81 71 -187 139 -285 195
c-99 -57 -206 -125 -286 -196c-83 -72 -141 -152 -141 -235z" />
    <glyph glyph-name="_223" unicode="&#x2661;" 
d="M907 516c0 77 -23 133 -59 167c-37 35 -88 52 -140 52c-53 0 -102 -18 -142 -51c-38 -32 -70 -79 -86 -134c-17 55 -50 102 -89 134c-39 33 -88 51 -138 51c-51 0 -103 -17 -139 -52c-38 -35 -61 -90 -61 -167c0 -105 52 -212 130 -305c78 -92 189 -177 297 -234
c103 55 219 145 296 236c76 90 131 198 131 303zM519 448c10 56 39 120 78 159c26 26 64 40 104 40c64 0 104 -50 104 -139c0 -76 -45 -160 -106 -238s-140 -147 -219 -188c-76 44 -160 113 -222 189s-103 161 -103 237c0 89 46 139 105 139c38 0 72 -14 99 -41
c39 -40 71 -102 81 -158h79z" />
    <glyph glyph-name="_224" unicode="&#x2665;" 
d="M907 516c0 77 -23 133 -59 167c-37 35 -88 52 -140 52c-53 0 -102 -18 -142 -51c-38 -32 -70 -79 -86 -134c-17 55 -50 102 -89 134c-39 33 -88 51 -138 51c-51 0 -103 -17 -139 -52c-38 -35 -61 -90 -61 -167c0 -105 52 -212 130 -305c78 -92 189 -177 297 -234
c103 55 219 145 296 236c76 90 131 198 131 303z" />
    <glyph glyph-name="_225" unicode="&#x2667;" 
d="M660 631c0 97 -78 179 -181 179c-105 0 -181 -81 -181 -179c0 -99 76 -180 181 -180s181 82 181 180zM721 52c-116 29 -196 125 -212 270h-60c-17 -141 -98 -244 -212 -270v-62h484v62zM573 631c0 -60 -40 -100 -94 -100c-55 0 -94 40 -94 100c0 58 39 99 94 99
c53 0 94 -41 94 -99zM580 55h-202v2c50 21 91 76 100 141h2c7 -65 48 -118 100 -141v-2zM413 330c0 97 -79 180 -182 180c-105 0 -181 -82 -181 -180c0 -99 76 -179 181 -179s182 81 182 179zM325 330c0 -59 -40 -100 -94 -100s-94 41 -94 100s40 99 94 99
c53 0 94 -40 94 -99zM909 330c0 97 -78 180 -181 180c-105 0 -181 -82 -181 -180c0 -99 76 -179 181 -179s181 81 181 179zM822 330c0 -59 -40 -100 -94 -100c-55 0 -94 41 -94 100s39 99 94 99c53 0 94 -40 94 -99z" />
    <glyph glyph-name="_226" unicode="&#x2663;" 
d="M660 631c0 97 -78 179 -181 179c-105 0 -181 -81 -181 -179c0 -99 76 -180 181 -180s181 82 181 180zM721 52c-116 29 -206 121 -222 270h-40c-17 -145 -108 -244 -222 -270v-62h484v62zM413 330c0 97 -79 180 -182 180c-105 0 -181 -82 -181 -180
c0 -99 76 -179 181 -179s182 81 182 179zM909 330c0 97 -78 180 -181 180c-105 0 -181 -82 -181 -180c0 -99 76 -179 181 -179s181 81 181 179z" />
    <glyph glyph-name="_228" unicode="&#x25c8;" 
d="M480 872l-460 -484l460 -484l460 484zM480 738l331 -350l-331 -350l-333 350zM279 388l201 -212l199 212l-199 212z" />
    <glyph glyph-name="_229" unicode="&#x25a3;" 
d="M196 106v574h567v-574h-567zM863 13v760h-767v-760h767zM647 224v338h-335v-338h335z" />
    <glyph glyph-name="_230" unicode="&#x25d0;" 
d="M926 390c0 248 -194 446 -446 446c-253 0 -446 -197 -446 -446s192 -446 446 -446c253 0 446 197 446 446zM827 390c0 -198 -148 -354 -346 -354v708c198 0 346 -157 346 -354z" />
    <glyph glyph-name="_231" unicode="&#x25d1;" 
d="M926 390c0 247 -194 446 -446 446c-253 0 -447 -198 -447 -446c0 -250 192 -446 447 -446c252 0 446 196 446 446zM135 390c0 197 147 354 345 354v-708c-198 0 -345 155 -345 354z" />
    <glyph glyph-name="_232" unicode="&#x2592;" 
d="M445 77h66v68h-66v-68zM626 145v-68h63v68h-63zM600 77v68h-65v-68h65zM331 77v68h-63v-68h63zM242 77v68h-65v-68h65zM420 77v68h-64v-68h64zM714 145v-68h65v68h-65zM445 171h66v65h-66v-65zM626 236v-65h63v65h-63zM600 171v65h-65v-65h65zM331 171v65h-63v-65h63z
M242 171v65h-65v-65h65zM420 171v65h-64v-65h64zM714 236v-65h65v65h-65zM445 261h66v66h-66v-66zM626 327v-66h63v66h-63zM600 261v66h-65v-66h65zM331 261v66h-63v-66h63zM242 261v66h-65v-66h65zM420 261v66h-64v-66h64zM714 327v-66h65v66h-65zM445 351h66v70h-66v-70z
M626 421v-70h63v70h-63zM600 351v70h-65v-70h65zM331 351v70h-63v-70h63zM242 351v70h-65v-70h65zM420 351v70h-64v-70h64zM714 421v-70h65v70h-65zM445 446h66v66h-66v-66zM626 512v-66h63v66h-63zM600 446v66h-65v-66h65zM331 446v66h-63v-66h63zM242 446v66h-65v-66h65z
M420 446v66h-64v-66h64zM714 512v-66h65v66h-65zM445 536h66v66h-66v-66zM626 602v-66h63v66h-63zM600 536v66h-65v-66h65zM331 536v66h-63v-66h63zM242 536v66h-65v-66h65zM420 536v66h-64v-66h64zM714 602v-66h65v66h-65zM445 627h66v68h-66v-68zM626 695v-68h63v68h-63z
M600 627v68h-65v-68h65zM331 627v68h-63v-68h63zM242 627v68h-65v-68h65zM420 627v68h-64v-68h64zM714 695v-68h65v68h-65zM868 3v769h-776v-769h776zM152 52v666h654v-666h-654z" />
    <glyph glyph-name="_233" unicode="&#x25a4;" 
d="M868 3v769h-776v-769h776zM152 413h654v-55h-654v55zM152 202h654v-52h-654v52zM152 306h654v-52h-654v52zM152 516h654v-52h-654v52zM152 621h654v-52h-654v52zM152 52v46h654v-46h-654zM806 673h-654v45h654v-45z" />
    <glyph glyph-name="_234" unicode="&#x25a5;" 
d="M868 3v769h-776v-769h776zM251 718h50v-666h-50v666zM454 718h49v-666h-49v666zM656 718h50v-666h-50v666zM353 718h49v-666h-49v666zM555 718h49v-666h-49v666zM758 52v666h48v-666h-48zM152 718h48v-666h-48v666z" />
    <glyph glyph-name="_235" unicode="&#x25a8;" 
d="M868 3v769h-776v-769h776zM153 165l554 553h69l-623 -623v70zM180 52l627 628v-67l-561 -561h-66zM317 52l490 491v-73l-419 -418h-71zM153 306l413 412h72l-485 -484v72zM459 52l348 348v-70l-277 -278h-71zM153 443l276 275h70l-346 -346v71zM601 52l206 208v-72
l-135 -136h-71zM153 584l134 134h71l-205 -205v71zM153 718h64l-64 -65v65zM743 52l64 66v-66h-64z" />
    <glyph glyph-name="_236" unicode="&#x25a7;" 
d="M868 3v769h-776v-769h776zM807 95l-623 623h69l554 -553v-70zM714 52l-561 561v67l627 -628h-66zM572 52l-419 418v73l490 -491h-71zM807 234l-485 484h72l413 -412v-72zM430 52l-277 278v70l348 -348h-71zM807 372l-346 346h70l276 -275v-71zM288 52l-135 136v72
l206 -208h-71zM807 513l-205 205h71l134 -134v-71zM807 653l-64 65h64v-65zM153 52v66l64 -66h-64z" />
    <glyph glyph-name="_237" unicode="&#x25a6;" 
d="M868 3v769h-776v-769h776zM452 415h53v-59h-53v59zM249 415h54v-59h-54v59zM654 415h54v-59h-54v59zM553 415h53v-59h-53v59zM351 415h53v-59h-53v59zM452 308h53v-56h-53v56zM452 204h53v-56h-53v56zM452 518h53v-56h-53v56zM452 623h53v-56h-53v56zM249 518h54v-56h-54
v56zM249 204h54v-56h-54v56zM249 308h54v-56h-54v56zM249 623h54v-56h-54v56zM654 204h54v-56h-54v56zM654 308h54v-56h-54v56zM654 518h54v-56h-54v56zM654 623h54v-56h-54v56zM553 204h53v-56h-53v56zM553 518h53v-56h-53v56zM553 623h53v-56h-53v56zM553 308h53v-56h-53
v56zM351 204h53v-56h-53v56zM351 308h53v-56h-53v56zM351 518h53v-56h-53v56zM351 623h53v-56h-53v56zM152 415h50v-59h-50v59zM756 415h50v-59h-50v59zM152 204h50v-56h-50v56zM152 518h50v-56h-50v56zM152 623h50v-56h-50v56zM756 308h50v-56h-50v56zM756 518h50v-56h-50
v56zM756 204h50v-56h-50v56zM756 623h50v-56h-50v56zM152 308h50v-56h-50v56zM452 100h53v-48h-53v48zM654 100h54v-48h-54v48zM249 100h54v-48h-54v48zM249 718h54v-47h-54v47zM452 718h53v-47h-53v47zM654 718h54v-47h-54v47zM553 100h53v-48h-53v48zM351 100h53v-48h-53
v48zM553 718h53v-47h-53v47zM351 718h53v-47h-53v47zM756 52v48h50v-48h-50zM152 100h50v-48h-50v48zM152 718h50v-47h-50v47zM806 671h-50v47h50v-47z" />
    <glyph glyph-name="_238" unicode="&#x25a9;" 
d="M868 3v769h-776v-769h776zM233 388l38 38l38 -38l-38 -38zM442 179l38 39l38 -38l-38 -38zM164 456l39 39l37 -38l-38 -38zM442 596l38 38l38 -38l-38 -38zM688 426l38 -38l-38 -38l-38 38zM756 494l39 -38l-37 -37l-39 38zM303 317l39 39l37 -37l-39 -39zM551 146
l37 -37l-37 -38l-38 37zM373 665l38 37l37 -37l-38 -38zM511 665l37 37l38 -38l-37 -37zM162 176l38 38l37 -37l-38 -38zM722 317l38 38l37 -37l-38 -38zM163 318l37 37l38 -38l-37 -37zM409 146l37 -38l-37 -37l-37 38zM759 214l38 -38l-37 -37l-37 38zM512 526l38 37
l37 -36l-38 -38zM617 355l38 -38l-36 -36l-38 38zM372 527l37 37l38 -38l-37 -37zM233 247l37 37l37 -37l-37 -37zM233 666l37 37l37 -38l-36 -36zM340 632l38 -37l-37 -37l-37 38zM652 665l38 38l36 -37l-37 -37zM479 493l37 -37l-36 -36l-37 37zM619 632l36 -37l-37 -37
l-36 37zM689 284l37 -37l-37 -37l-37 37zM548 286l38 -38l-35 -35l-38 38zM340 495l38 -38l-36 -36l-38 38zM373 247l39 39l35 -35l-39 -39zM271 563l38 -37l-36 -36l-37 38zM721 596l38 38l35 -36l-37 -37zM201 634l37 -38l-35 -35l-38 37zM582 456l37 38l36 -35l-38 -38z
M690 144l38 -38l-35 -35l-38 37zM270 144l35 -35l-38 -38l-35 35zM620 215l37 -37l-36 -36l-37 37zM651 526l37 37l35 -36l-37 -37zM410 424l37 -37l-35 -35l-37 37zM303 177l37 37l35 -35l-37 -37zM513 387l36 36l35 -35l-36 -36zM445 319l35 35l35 -35l-35 -35zM315 52
l23 23l23 -23h-46zM457 52l23 23l23 -23h-46zM599 52l23 23l23 -23h-46zM480 697l-21 21h42zM741 52l20 21l21 -21h-41zM178 52l21 21l20 -21h-41zM340 698l-20 20h40zM620 698l-20 20h40zM778 718l-19 -19l-18 19h37zM200 699l-18 19h37zM807 511l-17 17l17 17v-34z
M153 545l17 -17l-17 -17v34zM153 402l16 -16l-16 -16v32zM807 370l-16 16l16 16v-32zM153 682l15 -16l-15 -15v31zM807 651l-16 15l16 16v-31zM807 232l-15 15l15 15v-30zM153 262l15 -15l-15 -15v30zM807 93l-14 13l14 14v-27zM153 120l13 -14l-13 -13v27z" />
    <glyph glyph-name="_239" unicode="&#x2668;" 
d="M550 351c0 44 -15 91 -29 135s-28 89 -27 130c0 49 10 98 39 138c21 29 -12 53 -37 32c-27 -21 -57 -54 -75 -85c-18 -33 -30 -69 -31 -104c-1 -43 14 -92 29 -137c15 -42 29 -87 28 -129c-1 -50 -14 -105 -38 -143c-14 -27 18 -54 46 -32c56 46 95 125 95 195zM390 351
c0 35 -15 69 -30 102c-14 29 -25 68 -27 104c-3 53 4 101 33 143c24 36 -11 59 -40 34c-53 -46 -99 -114 -95 -197c2 -37 15 -78 29 -110c15 -33 27 -66 29 -97c3 -47 -12 -100 -33 -136c-16 -27 11 -51 44 -26c47 37 90 104 90 183zM234 318c-117 -10 -180 -67 -181 -144
c-2 -125 224 -183 428 -183c205 0 427 63 427 188c0 64 -66 122 -167 131c-18 2 -27 -33 -6 -37c42 -8 76 -37 76 -74c0 -63 -176 -98 -330 -98s-331 31 -331 95c0 41 35 72 90 85c24 5 19 40 -6 37zM710 351c0 35 -15 69 -30 102c-14 29 -25 68 -27 104c-3 53 4 101 33 143
c24 36 -11 59 -40 34c-53 -46 -99 -114 -95 -197c2 -37 15 -78 29 -110c15 -33 27 -66 29 -97c3 -47 -12 -100 -33 -136c-16 -27 11 -51 44 -26c47 37 90 104 90 183z" />
    <glyph glyph-name="_240" unicode="&#x260f;" 
d="M252 709c-149 -2 -198 -124 -203 -223c0 -22 11 -36 30 -34l173 17c21 2 29 15 29 36v19c0 36 -5 66 28 66h10v-89c-56 -32 -199 -183 -199 -310l8 -88c2 -25 12 -33 38 -33h634c24 0 34 14 36 40l7 86c0 46 -20 100 -49 145c-46 71 -123 144 -150 160v89h10
c22 0 29 -14 31 -34c1 -12 1 -26 1 -40c0 -24 6 -44 32 -47l165 -17c20 -2 28 10 28 34c-7 97 -54 221 -199 223h-460zM507 590v-82h-51v82h51zM745 521v18c0 64 -17 103 -92 103h-358c-62 0 -76 -34 -76 -98v-20l-101 -11c4 63 39 144 131 144h465c78 0 122 -70 130 -148z
M333 290c0 -88 63 -146 151 -146c84 0 149 61 149 146c0 82 -66 146 -149 146c-85 0 -151 -60 -151 -146zM187 189c4 104 115 239 191 284v117h18v-133h170v133h19v-117c72 -32 191 -178 193 -280l-7 -63h-580zM570 290c0 -51 -35 -91 -86 -91c-54 0 -88 40 -88 91
s35 91 88 91c50 0 86 -42 86 -91z" />
    <glyph glyph-name="_241" unicode="&#x260e;" 
d="M878 454c22 -2 33 6 32 33c-2 40 -13 91 -37 131c-29 50 -78 92 -157 92h-470c-82 0 -131 -39 -161 -90c-24 -41 -34 -90 -36 -133c-1 -26 8 -35 31 -33l171 17c17 1 25 14 25 32c0 17 0 45 2 62c3 23 11 37 26 37h30v-99c-33 -12 -77 -50 -123 -106
c-48 -60 -91 -138 -91 -206l8 -89c2 -20 12 -32 34 -32h638c18 0 32 10 34 31l8 95c0 65 -44 142 -93 202c-44 55 -91 95 -121 105v99h29c13 0 21 -15 24 -37c3 -20 4 -48 4 -66c0 -16 8 -26 26 -28zM532 602v-96h-102v96h102zM610 289c0 -71 -55 -128 -127 -128
c-74 0 -128 54 -128 128c0 72 55 127 128 127c70 0 127 -57 127 -127z" />
    <glyph glyph-name="_242" unicode="&#x261c;" 
d="M938 143v373h-135v-13h-43c-12 0 -16 -6 -16 -16v-36h-11c-44 0 -78 34 -121 65c-40 29 -94 32 -144 32h-12c-44 0 -89 -2 -96 -49h-278c-41 0 -60 -31 -60 -60c0 -31 20 -60 57 -60h198c-1 -1 -1 -4 -1 -6c0 -13 9 -43 24 -53c-4 -7 -6 -15 -6 -24c0 -17 9 -40 25 -50
c-2 -4 -3 -9 -3 -14c0 -20 19 -57 51 -62c18 -24 62 -29 90 -29h26c10 0 20 -1 31 -1c68 0 99 12 144 43c25 17 48 36 86 34v-44c0 -10 4 -15 15 -15h44v-15h135zM376 428c11 20 19 39 21 60c2 18 15 21 41 21h30c62 0 106 -6 152 -47c39 -34 67 -51 115 -51h9v-156
c-30 1 -54 -3 -96 -30c-16 -10 -32 -21 -45 -28c-28 -15 -53 -20 -80 -20c-13 0 -34 -3 -56 -3c-8 0 -19 0 -27 2c51 4 71 12 71 65c0 27 -5 58 -11 82c11 -7 35 -21 50 -21c11 0 17 8 17 17c0 6 -3 14 -12 19c-45 26 -74 64 -77 116c-1 13 -8 19 -16 19
c-7 0 -15 -5 -18 -15c-8 -26 -28 -40 -54 -40c-6 0 -15 0 -15 6c0 1 0 2 1 4zM352 459v-1s-18 -28 -18 -40h-246c-17 0 -26 6 -26 21c0 14 12 20 26 20h264zM783 197v267h20v-267h-20zM458 300v-2c0 -8 -10 -15 -24 -17c-21 -3 -50 -5 -68 -5s-30 1 -30 19c0 6 4 13 12 13
h20c21 0 43 1 66 4c15 0 23 -3 24 -12zM417 381c14 0 21 -4 22 -12c0 -7 -5 -15 -13 -16l-13 -2c-17 -3 -40 -4 -66 -4c-16 0 -27 4 -27 18c0 12 6 16 21 15c21 -1 56 -1 76 1zM470 232v-4c0 -9 -11 -14 -25 -16c-17 -2 -40 -3 -54 -3c-21 0 -32 2 -32 20c0 6 3 10 9 10h20
c22 0 43 1 64 4c10 0 16 -4 18 -11z" />
    <glyph glyph-name="_243" unicode="&#x261e;" 
d="M157 143v15h44c11 0 15 5 15 15v44c38 2 61 -17 86 -34c45 -31 76 -43 144 -43c11 0 21 1 31 1h26c28 0 72 5 90 29c32 5 51 42 51 62c0 5 -1 10 -3 14c16 10 25 33 25 50c0 9 -2 17 -6 24c15 10 24 40 24 53c0 2 0 5 -1 6h198c37 0 57 29 57 60c0 29 -19 60 -60 60h-278
c-7 47 -52 49 -96 49h-12c-50 0 -104 -3 -144 -32c-43 -31 -77 -65 -121 -65h-11v36c0 10 -4 16 -16 16h-43v13h-135v-373h135zM584 428c1 -2 1 -3 1 -4c0 -6 -9 -6 -15 -6c-26 0 -46 14 -54 40c-3 10 -11 15 -18 15c-8 0 -15 -6 -16 -19c-3 -52 -32 -90 -77 -116
c-9 -5 -12 -13 -12 -19c0 -9 6 -17 17 -17c15 0 39 14 50 21c-6 -24 -11 -55 -11 -82c0 -53 20 -61 71 -65c-8 -2 -19 -2 -27 -2c-22 0 -43 3 -56 3c-27 0 -52 5 -80 20c-13 7 -29 18 -45 28c-42 27 -66 31 -96 30v156h9c48 0 76 17 115 51c46 41 90 47 152 47h30
c26 0 39 -3 41 -21c2 -21 10 -40 21 -60zM872 459c14 0 26 -6 26 -20c0 -15 -9 -21 -26 -21h-246c0 12 -18 40 -18 40v1h264zM157 197v267h20v-267h-20zM502 300c1 9 9 12 24 12c23 -3 45 -4 66 -4h20c8 0 12 -7 12 -13c0 -18 -12 -19 -30 -19s-47 2 -68 5
c-14 2 -24 9 -24 17v2zM543 381c20 -2 55 -2 76 -1c15 1 21 -3 21 -15c0 -14 -11 -18 -27 -18c-26 0 -49 1 -66 4l-13 2c-8 1 -13 9 -13 16c1 8 8 12 22 12zM490 232c2 7 8 11 18 11c21 -3 42 -4 64 -4h20c6 0 9 -4 9 -10c0 -18 -11 -20 -32 -20c-14 0 -37 1 -54 3
c-14 2 -25 7 -25 16v4z" />
    <glyph glyph-name="_244" unicode="&#xb6;" 
d="M430 791c-143 0 -231 -89 -231 -241v-8c0 -153 105 -243 245 -243h31v-452h108v843h51v-843h107v944h-311z" />
    <glyph glyph-name="_245" unicode="&#x2020;" 
d="M734 654h-183v190h-144v-190h-182v-122h182v-684h144v684h183v122z" />
    <glyph glyph-name="_246" unicode="&#x2021;" 
d="M225 39h182v-191h144v191h183v119h-183v374h183v122h-183v190h-144v-190h-182v-122h182v-374h-182v-119z" />
    <glyph glyph-name="_247" unicode="&#x2195;" 
d="M272 224l208 -271l206 271h-131v352h131l-206 271l-208 -271h132v-352h-132z" />
    <glyph glyph-name="_248" unicode="&#x2197;" 
d="M244 8l440 440l93 -93l45 339l-337 -47l92 -92l-440 -441z" />
    <glyph glyph-name="_249" unicode="&#x2199;" 
d="M716 694l-440 -440l-93 93l-46 -339l338 47l-92 93l439 440z" />
    <glyph glyph-name="_250" unicode="&#x2196;" 
d="M822 114l-439 441l92 92l-338 47l46 -339l93 93l440 -440z" />
    <glyph glyph-name="_251" unicode="&#x2198;" 
d="M137 588l440 -440l-92 -93l337 -47l-45 339l-93 -93l-440 440z" />
    <glyph glyph-name="_252" unicode="&#x266d;" 
d="M386 844h-69v-879c202 -2 380 137 380 305c0 104 -64 178 -154 178c-75 0 -128 -46 -157 -103v499zM386 191c0 104 60 188 129 188c50 0 76 -39 76 -123c0 -111 -95 -218 -205 -226v161z" />
    <glyph glyph-name="_253" unicode="&#x2669;" 
d="M529 137c-18 7 -41 12 -67 12c-97 0 -199 -75 -199 -162c0 -58 46 -93 106 -93c127 0 228 78 228 194v755h-68v-706z" />
    <glyph glyph-name="_254" unicode="&#x266a;" 
d="M460 136c-18 8 -41 12 -67 12c-97 0 -199 -74 -199 -161c0 -58 46 -92 106 -92c127 0 228 77 228 192v484c111 -34 192 -115 192 -231c0 -78 -23 -158 -64 -225h32c48 65 98 155 98 263c0 107 -64 179 -145 243c-79 61 -130 111 -130 220h-51v-705z" />
    <glyph glyph-name="_255" unicode="&#x266c;" 
d="M802 659l-460 -106v72l460 105v-71zM870 864l-595 -133v-592c-17 7 -40 10 -65 10c-98 0 -198 -76 -198 -162c0 -58 44 -91 104 -91c126 0 226 77 226 192v349l460 108v-295c-16 6 -39 10 -64 10c-99 0 -198 -76 -198 -162c0 -58 44 -92 104 -92c125 0 226 78 226 192
v666z" />
    <glyph glyph-name="_256" unicode="&#x327f;" 
d="M914 451c-19 215 -202 376 -435 376c-247 0 -441 -172 -437 -465h226v79h-116c12 165 127 301 327 301c89 0 166 -30 224 -80h-125l-118 -218h-39v218h-118v-549h118v230h39l138 -230h109c-55 -51 -131 -82 -227 -82c-182 0 -313 124 -333 291h-102
c19 -215 202 -376 435 -376c247 0 441 172 437 465h-226v-79h116c-6 -80 -36 -153 -87 -207l-164 270l148 266c59 -52 98 -126 108 -210h102z" />
    <glyph glyph-name="_257" unicode="&#x321c;" 
d="M33 381c0 -157 47 -304 136 -428h87c-80 127 -122 283 -122 428c0 144 42 301 122 429h-87c-89 -125 -136 -273 -136 -429zM926 381c0 156 -47 304 -136 429h-87c80 -128 122 -286 122 -431c0 -144 -42 -299 -122 -426h87c89 124 136 271 136 428zM221 593h190
c-11 -85 -95 -126 -196 -139v-104c107 9 211 52 264 114c53 -62 159 -105 265 -114v103c-103 14 -187 56 -197 140h191v103h-517v-103zM190 201h223v-162h131v162h225v103h-579v-103z" />
    <glyph glyph-name="_258" unicode="&#x2116;" horiz-adv-x="1023" 
d="M396 -2h147v791h-156v-466l-182 466h-146v-791h156v466zM604 -2h377v107h-377v-107zM985 374c0 151 -54 231 -193 231c-137 0 -193 -80 -193 -231c0 -150 56 -230 193 -230c139 0 193 80 193 230zM851 374c0 -91 -13 -122 -59 -122c-44 0 -58 31 -58 122
c0 92 14 123 58 123c46 0 59 -31 59 -123z" />
    <glyph glyph-name="_259" unicode="&#x33c7;" 
d="M22 393c0 -218 38 -411 219 -411c140 0 208 110 213 284h-149c-3 -91 -22 -147 -64 -147c-57 0 -69 112 -69 274s14 273 69 273c42 0 61 -56 64 -148h149c-5 175 -73 286 -213 286c-181 0 -219 -191 -219 -411zM832 280c0 186 -53 297 -186 297
c-134 0 -187 -111 -187 -297c0 -189 53 -298 187 -298c133 0 186 109 186 298zM602 280c0 123 10 175 44 175c33 0 43 -51 43 -175c0 -127 -10 -177 -43 -177c-34 0 -44 51 -44 177zM954 156h-128v-160h128v160z" />
    <glyph glyph-name="_260" unicode="&#x2122;" horiz-adv-x="754" 
d="M8 704h93v-292h105v292h92v87h-290v-87zM548 412l67 157v-157h101v379h-92l-105 -254l-104 254h-93v-379h102v157l66 -157h58z" />
    <glyph glyph-name="_261" unicode="&#x33c2;" 
d="M694 323c0 91 6 133 22 133c11 0 13 -24 13 -90v-370h104v366c0 148 -32 215 -97 215c-28 0 -54 -20 -69 -55c-14 35 -39 55 -71 55c-20 0 -39 -11 -52 -29v15h-96v-567h104v327c0 91 6 133 23 133c10 0 13 -24 13 -90v-370h106v327zM210 -4h101c-4 20 -8 53 -8 82v288
c0 125 -46 211 -140 211c-88 0 -135 -77 -138 -188h100c2 44 15 69 38 69c26 0 41 -34 41 -91v-63c-17 25 -43 38 -75 38c-70 0 -117 -67 -117 -181c0 -113 47 -179 117 -179c35 0 61 17 77 41c1 -10 2 -20 4 -27zM158 88c-30 0 -46 25 -46 73c0 49 16 74 46 74
s46 -25 46 -74c0 -48 -16 -73 -46 -73zM427 158h-99v-162h99v162zM954 158h-99v-162h99v162z" />
    <glyph glyph-name="_262" unicode="&#x33d8;" 
d="M124 563h-100v-813h100v281c15 -32 40 -49 72 -49c78 0 125 94 125 298c0 203 -47 297 -125 297c-29 0 -56 -20 -72 -48v34zM171 101c-36 0 -47 59 -47 179c0 118 11 176 47 176c35 0 47 -58 47 -176c0 -120 -12 -179 -47 -179zM426 158h-99v-162h99v162zM954 158h-99
v-162h99v162zM694 323c0 91 5 133 22 133c10 0 13 -24 13 -90v-370h104v366c0 148 -33 215 -97 215c-29 0 -55 -20 -69 -55c-14 35 -39 55 -71 55c-21 0 -40 -11 -52 -29v15h-96v-567h104v327c0 91 6 133 22 133c11 0 14 -24 14 -90v-370h106v327z" />
    <glyph glyph-name="_263" unicode="&#x2121;" 
d="M757 237c1 13 1 27 1 43c0 215 -76 297 -210 297c-135 0 -211 -82 -211 -297c0 -217 76 -298 211 -298c114 0 184 58 203 190h-146c-6 -56 -25 -76 -58 -76c-42 0 -59 34 -63 141h273zM5 653h140v-657h156v657h140v137h-436v-137zM934 -4v794h-146v-794h146zM548 462
c44 0 57 -38 63 -126h-126c0 86 21 126 63 126z" />
    <glyph glyph-name="_265" unicode="&#xff02;" 
d="M508 551h133v238h-133v-238zM319 551h133v238h-133v-238z" />
    <glyph glyph-name="_266" unicode="&#xff03;" 
d="M457 -2h140l42 197h154v120h-128l35 157h132v120h-107l43 197h-139l-44 -197h-125l43 197h-140l-44 -197h-152v-120h127l-34 -157h-132v-120h106l-43 -197h140l43 197h125zM434 472h126l-35 -157h-125z" />
    <glyph glyph-name="_267" unicode="&#xff04;" 
d="M477 117c-69 0 -118 38 -118 102v17h-164v-14c0 -124 83 -213 226 -233v-89h115v89c146 17 229 109 229 235c0 132 -74 207 -213 237c-100 21 -195 29 -195 117c0 54 38 91 109 91c65 0 106 -41 106 -91v-13h164v13c0 105 -74 197 -207 219v90h-115v-89
c-145 -17 -220 -111 -220 -224c0 -133 81 -205 213 -232c122 -25 194 -34 194 -123c0 -62 -45 -102 -124 -102z" />
    <glyph glyph-name="_268" unicode="&#xff05;" 
d="M378 -2l324 791h-120l-324 -791h120zM413 589c0 140 -57 214 -172 214c-114 0 -170 -74 -170 -214s56 -214 171 -214c114 0 171 74 171 214zM292 589c0 -85 -12 -114 -51 -114c-37 0 -50 29 -50 114c0 84 13 113 50 113c39 0 51 -29 51 -113zM547 198
c0 -140 57 -214 171 -214c115 0 171 74 171 214s-56 214 -171 214c-114 0 -171 -74 -171 -214zM668 198c0 84 12 113 50 113c37 0 50 -29 50 -113c0 -85 -13 -113 -50 -113c-38 0 -50 28 -50 113z" />
    <glyph glyph-name="_269" unicode="&#xff06;" 
d="M628 397c-3 -45 -9 -88 -20 -120l-199 229c-38 44 -50 74 -50 107c0 41 24 65 65 65c42 0 65 -24 65 -65v-26h155v29c0 116 -90 187 -220 187s-220 -71 -220 -187c0 -60 23 -119 80 -180c-92 -50 -137 -126 -137 -219c0 -141 104 -233 268 -233c84 0 155 23 205 69
l48 -55h185l-135 155c38 67 60 150 64 244h-154zM304 219c0 47 19 88 63 121l166 -188c-27 -28 -66 -41 -111 -41c-65 0 -118 34 -118 108z" />
    <glyph glyph-name="_270" unicode="&#xff07;" 
d="M413 551h133v238h-133v-238z" />
    <glyph glyph-name="_273" unicode="&#xff0a;" 
d="M415 624l17 -176l-144 104l-65 -113l163 -73l-163 -74l65 -113l144 105l-17 -177h130l-19 178l145 -106l66 113l-164 74l164 73l-66 113l-145 -105l19 177h-130z" />
    <glyph glyph-name="_274" unicode="&#xff0b;" 
d="M223 304h186v-197h141v197h186v123h-186v198h-141v-198h-186v-123z" />
    <glyph glyph-name="_276" unicode="&#xff0d;" 
d="M296 301h368v130h-368v-130z" />
    <glyph glyph-name="_278" unicode="&#xff0f;" 
d="M47 20l109 -96l756 842l-107 96z" />
    <glyph glyph-name="_279" unicode="&#xff10;" 
d="M753 394c0 170 -27 269 -83 334c-43 50 -107 75 -190 75s-147 -25 -190 -75c-57 -65 -83 -164 -83 -334c0 -171 26 -270 83 -335c43 -50 107 -75 190 -75s147 25 190 75c56 65 83 164 83 335zM367 394c0 133 8 202 34 240c19 27 44 39 79 39c34 0 59 -12 79 -39
c26 -38 34 -107 34 -240c0 -134 -8 -203 -34 -241c-20 -27 -45 -39 -79 -39c-35 0 -60 12 -79 39c-26 38 -34 107 -34 241z" />
    <glyph glyph-name="_280" unicode="&#xff11;" 
d="M595 -2v791h-137l-193 -88v-142l170 77v-638h160z" />
    <glyph glyph-name="_281" unicode="&#xff12;" 
d="M727 564c0 131 -89 239 -253 239s-254 -108 -254 -239v-29h160v29c0 69 34 109 94 109s93 -41 93 -109c0 -44 -14 -76 -51 -119l-285 -329v-118h508v129h-302l211 243c60 69 79 113 79 194z" />
    <glyph glyph-name="_282" unicode="&#xff13;" 
d="M480 114c-64 0 -106 42 -106 116v11h-160v-19c0 -145 109 -238 266 -238c159 0 266 93 266 238c0 103 -51 173 -142 196c71 23 119 83 119 172c0 122 -90 213 -243 213c-152 0 -242 -91 -242 -213v-21h156v10c0 59 35 94 86 94c52 0 86 -35 86 -94
c0 -67 -38 -100 -97 -100h-70v-127h70c76 0 118 -39 118 -122c0 -74 -43 -116 -107 -116z" />
    <glyph glyph-name="_283" unicode="&#xff14;" 
d="M338 281l166 281v-281h-166zM748 281h-84v508h-171l-302 -508v-129h313v-154h160v154h84v129z" />
    <glyph glyph-name="_284" unicode="&#xff15;" 
d="M479 386c70 0 100 -52 100 -136c0 -93 -37 -136 -100 -136c-57 0 -92 35 -98 104h-160c8 -144 101 -234 258 -234c164 0 259 99 259 263c0 179 -90 264 -216 264c-54 0 -95 -19 -116 -50l10 199h281v129h-429l-20 -448h152c15 26 41 45 79 45z" />
    <glyph glyph-name="_285" unicode="&#xff16;" 
d="M729 596c-14 132 -106 207 -244 207c-187 0 -270 -124 -270 -433c0 -114 10 -208 54 -277c46 -75 124 -109 214 -109c155 0 262 101 262 265c0 166 -101 262 -231 262c-63 0 -113 -26 -138 -68c3 166 34 235 107 235c52 0 79 -29 85 -82h161zM376 250
c0 87 39 136 105 136s104 -49 104 -136s-38 -136 -104 -136s-105 49 -105 136z" />
    <glyph glyph-name="_286" unicode="&#xff17;" 
d="M227 660h343l-254 -662h165l251 674v117h-505v-129z" />
    <glyph glyph-name="_287" unicode="&#xff18;" 
d="M480 -16c165 0 277 92 277 238c0 99 -53 165 -139 196c69 26 115 93 115 173c0 122 -95 212 -253 212c-159 0 -254 -90 -254 -212c0 -80 47 -147 115 -173c-86 -31 -139 -97 -139 -196c0 -146 112 -238 278 -238zM383 577c0 59 37 96 97 96c59 0 97 -37 97 -96
c0 -60 -38 -97 -97 -97c-60 0 -97 37 -97 97zM362 235c0 76 47 121 118 121c70 0 117 -45 117 -121s-47 -121 -117 -121c-71 0 -118 45 -118 121z" />
    <glyph glyph-name="_288" unicode="&#xff19;" 
d="M230 191c14 -132 106 -207 244 -207c188 0 270 124 270 433c0 114 -9 208 -53 277c-47 75 -124 109 -214 109c-156 0 -262 -101 -262 -265c0 -166 100 -262 230 -262c64 0 114 26 138 68c-3 -166 -33 -235 -107 -235c-52 0 -79 29 -85 82h-161zM583 537
c0 -87 -39 -136 -104 -136c-66 0 -105 49 -105 136s39 136 105 136c65 0 104 -49 104 -136z" />
    <glyph glyph-name="_295" unicode="&#xff20;" 
d="M480 693c139 0 199 -62 218 -235c-19 44 -63 71 -133 71c-123 0 -204 -87 -204 -260c0 -160 78 -262 232 -262s242 102 242 289c0 364 -102 507 -355 507c-254 0 -356 -142 -356 -510c0 -412 137 -509 353 -509c58 0 116 13 163 38l-38 100c-33 -18 -78 -28 -122 -28
c-155 0 -226 66 -226 399c0 318 59 400 226 400zM498 268c0 101 31 147 102 147c74 0 105 -46 105 -147c0 -102 -31 -147 -105 -147c-71 0 -102 45 -102 147z" />
    <glyph glyph-name="_296" unicode="&#xff21;" 
d="M824 -2l-253 791h-182l-253 -791h168l43 152h266l43 -152h168zM480 620l95 -336h-191z" />
    <glyph glyph-name="_297" unicode="&#xff22;" 
d="M521 -2c172 0 259 79 259 228c0 92 -52 161 -136 184c71 24 113 80 113 163c0 142 -85 216 -253 216h-304v-791h321zM615 235c0 -75 -38 -104 -119 -104h-131v207h131c81 0 119 -28 119 -103zM595 562c0 -71 -40 -93 -117 -93h-113v186h113c77 0 117 -23 117 -93z" />
    <glyph glyph-name="_298" unicode="&#xff23;" 
d="M165 394c0 -118 17 -225 76 -303c51 -68 127 -107 243 -107c188 0 300 110 310 284h-164c-6 -91 -56 -146 -146 -146c-52 0 -90 19 -114 55c-28 41 -40 100 -40 217c0 116 12 175 40 216c24 36 62 55 114 55c90 0 140 -55 146 -146h164c-10 174 -122 284 -310 284
c-116 0 -192 -39 -243 -107c-59 -78 -76 -185 -76 -302z" />
    <glyph glyph-name="_299" unicode="&#xff24;" 
d="M629 394c0 -204 -46 -262 -157 -262h-120v522h120c111 0 157 -57 157 -260zM482 -2c260 0 311 183 311 396c0 211 -51 395 -311 395h-295v-791h295z" />
    <glyph glyph-name="_300" unicode="&#xff25;" 
d="M232 -2h496v137h-332v200h286v137h-286v180h327v137h-491v-791z" />
    <glyph glyph-name="_301" unicode="&#xff26;" 
d="M247 -2h164v326h286v137h-286v191h321v137h-485v-791z" />
    <glyph glyph-name="_302" unicode="&#xff27;" 
d="M165 394c0 -221 73 -410 302 -410c96 0 161 43 189 107l19 -93h118v419h-305v-122h148c-7 -104 -48 -173 -150 -173c-105 0 -156 58 -156 272c0 116 12 175 40 216c24 36 62 55 114 55c90 0 140 -55 146 -146h164c-10 174 -122 284 -310 284c-116 0 -192 -39 -243 -107
c-59 -78 -76 -185 -76 -302z" />
    <glyph glyph-name="_303" unicode="&#xff28;" 
d="M600 -2h165v791h-165v-317h-242v317h-164v-791h164v337h242v-337z" />
    <glyph glyph-name="_304" unicode="&#xff29;" 
d="M562 789h-164v-791h164v791z" />
    <glyph glyph-name="_305" unicode="&#xff2a;" 
d="M450 -16c172 0 263 94 263 260v545h-165v-524c0 -104 -32 -143 -98 -143c-64 0 -96 38 -98 133h-165v-11c0 -166 92 -260 263 -260z" />
    <glyph glyph-name="_306" unicode="&#xff2b;" 
d="M789 789h-179l-175 -317h-70v317h-164v-791h164v337h70l203 -337h181l-251 406z" />
    <glyph glyph-name="_307" unicode="&#xff2c;" 
d="M252 -2h496v137h-332v654h-164v-791z" />
    <glyph glyph-name="_308" unicode="&#xff2d;" 
d="M548 -2l176 461v-461h160v791h-167l-237 -620l-237 620h-167v-791h160v461l176 -461h136z" />
    <glyph glyph-name="_309" unicode="&#xff2e;" 
d="M604 -2h167v791h-165v-508l-251 508h-166v-791h164v507z" />
    <glyph glyph-name="_310" unicode="&#xff2f;" 
d="M798 394c0 117 -16 224 -75 302c-51 68 -128 107 -243 107c-116 0 -192 -39 -243 -107c-59 -78 -76 -185 -76 -302c0 -118 17 -225 76 -303c51 -68 127 -107 243 -107c115 0 192 39 243 107c59 78 75 185 75 303zM326 394c0 116 12 175 40 216c24 36 62 55 114 55
s90 -19 114 -55c28 -41 39 -100 39 -216c0 -117 -11 -176 -39 -217c-24 -36 -62 -55 -114 -55s-90 19 -114 55c-28 41 -40 100 -40 217z" />
    <glyph glyph-name="_311" unicode="&#xff30;" 
d="M529 279c165 0 260 92 260 255c0 162 -95 255 -260 255h-319v-791h164v281h155zM374 416v236h133c78 0 117 -40 117 -118s-39 -118 -117 -118h-133z" />
    <glyph glyph-name="_312" unicode="&#xff31;" 
d="M792 394c0 218 -68 409 -318 409s-318 -192 -318 -409c0 -220 67 -410 318 -410c74 0 133 17 178 47l92 -78l84 97l-89 75c42 74 53 168 53 269zM628 394c0 -74 -4 -125 -15 -163l-86 75l-84 -98l90 -77c-16 -7 -37 -10 -59 -10c-101 0 -154 53 -154 273
c0 216 52 271 154 271s154 -55 154 -271z" />
    <glyph glyph-name="_313" unicode="&#xff32;" 
d="M605 69c2 -27 6 -54 13 -71h166c-8 18 -13 42 -15 72l-7 110c-6 104 -41 156 -127 168c93 25 141 94 141 199c0 151 -88 242 -256 242h-324v-791h164v281h118c84 0 116 -30 121 -110zM360 416v236h131c75 0 119 -32 119 -118c0 -87 -44 -118 -119 -118h-131z" />
    <glyph glyph-name="_314" unicode="&#xff33;" 
d="M766 225c0 131 -75 209 -213 237l-85 17c-76 16 -110 44 -110 99c0 54 37 91 107 91c69 0 107 -37 107 -91v-12h164v12c0 121 -95 225 -271 225s-271 -103 -271 -229c0 -133 81 -205 214 -231l85 -17c74 -15 108 -52 108 -106c0 -61 -45 -103 -120 -103
c-76 0 -121 42 -121 103v17h-164v-15c0 -139 105 -238 285 -238c182 0 285 101 285 241z" />
    <glyph glyph-name="_315" unicode="&#xff34;" 
d="M188 652h209v-654h165v654h210v137h-584v-137z" />
    <glyph glyph-name="_316" unicode="&#xff35;" 
d="M480 -16c204 0 302 121 302 307v498h-164v-491c0 -118 -44 -176 -138 -176c-95 0 -138 58 -138 176v491h-165v-498c0 -186 98 -307 303 -307z" />
    <glyph glyph-name="_317" unicode="&#xff36;" 
d="M136 789l253 -791h182l253 791h-168l-176 -615l-176 615h-168z" />
    <glyph glyph-name="_318" unicode="&#xff37;" 
d="M404 789l-124 -579l-108 579h-167l180 -791h174l122 565l122 -565h173l180 791h-167l-107 -579l-125 579h-153z" />
    <glyph glyph-name="_319" unicode="&#xff38;" 
d="M638 -2h176l-228 409l211 382h-176l-141 -279l-142 279h-175l210 -382l-227 -409h176l158 304z" />
    <glyph glyph-name="_320" unicode="&#xff39;" 
d="M479 451l-161 338h-171l250 -479v-312h164v312l251 479h-171z" />
    <glyph glyph-name="_321" unicode="&#xff3a;" 
d="M212 124v-126h536v137h-336l331 528v126h-520v-137h320z" />
    <glyph glyph-name="_323" unicode="&#xffe6;" 
d="M404 789l-76 -357h-89l-67 357h-167l81 -357h-77v-70h93l83 -364h174l79 364h86l79 -364h173l83 364h85v70h-69l81 357h-167l-66 -357h-89l-77 357h-153zM649 362h61l-28 -152zM509 432h-56l28 131zM252 362h61l-33 -152z" />
    <glyph glyph-name="_325" unicode="&#xff3e;" 
d="M416 789l-168 -270h148l84 143l85 -143h147l-168 270h-128z" />
    <glyph glyph-name="_327" unicode="&#xff40;" 
d="M484 641h134l-107 182h-169z" />
    <glyph glyph-name="_328" unicode="&#xff41;" 
d="M571 63c1 -25 5 -51 11 -65h159c-9 19 -15 51 -15 81v286c0 126 -80 212 -242 212c-152 0 -232 -74 -241 -187h156c5 44 33 68 85 68c59 0 87 -32 87 -90v-103c-21 51 -82 78 -154 78c-121 0 -198 -68 -198 -180s79 -179 198 -179c81 0 137 33 154 79zM473 90
c-64 0 -98 25 -98 73c0 49 32 74 98 74s99 -25 99 -74c0 -48 -34 -73 -99 -73z" />
    <glyph glyph-name="_329" unicode="&#xff42;" 
d="M393 281c0 117 29 174 107 174c79 0 108 -57 108 -174c0 -119 -29 -176 -108 -176c-78 0 -107 57 -107 176zM393 789h-156v-791h156v87c20 -61 76 -101 154 -101c134 0 216 95 216 297c0 201 -82 296 -216 296c-78 0 -134 -40 -154 -101v313z" />
    <glyph glyph-name="_330" unicode="&#xff43;" 
d="M220 281c0 -183 84 -297 264 -297c153 0 246 78 255 210h-155c-5 -58 -41 -89 -100 -89c-78 0 -108 57 -108 176c0 118 30 175 108 175c59 0 95 -31 100 -89h155c-9 132 -102 210 -255 210c-180 0 -264 -114 -264 -296z" />
    <glyph glyph-name="_331" unicode="&#xff44;" 
d="M568 281c0 -119 -29 -176 -108 -176c-78 0 -108 57 -108 176c0 117 30 174 108 174c79 0 108 -57 108 -174zM568 476c-20 61 -77 101 -155 101c-133 0 -216 -95 -216 -296c0 -202 83 -297 216 -297c78 0 135 40 155 101v-87h155v791h-155v-313z" />
    <glyph glyph-name="_332" unicode="&#xff45;" 
d="M742 238c1 12 1 28 1 43c0 182 -83 296 -263 296c-179 0 -263 -114 -263 -296c0 -184 84 -297 263 -297c143 0 233 71 251 186h-158c-9 -46 -42 -72 -93 -72c-67 0 -103 49 -107 140h369zM480 462c66 0 102 -44 105 -126h-211c3 82 39 126 106 126z" />
    <glyph glyph-name="_333" unicode="&#xff46;" 
d="M677 676v115c-26 5 -59 6 -90 6c-144 0 -203 -51 -203 -175v-59h-82v-121h82v-444h155v444h138v121h-138v49c0 46 18 64 74 64h64z" />
    <glyph glyph-name="_334" unicode="&#xff47;" 
d="M587 -37c0 -78 -32 -117 -94 -117c-53 0 -85 24 -90 70h-157c15 -111 100 -179 246 -179c173 0 251 103 251 238v588h-156v-87c-20 61 -77 101 -155 101c-132 0 -216 -95 -216 -296c0 -202 84 -297 216 -297c78 0 135 40 155 101v-122zM587 281
c0 -119 -29 -176 -107 -176s-108 57 -108 176c0 118 30 175 108 175s107 -57 107 -175z" />
    <glyph glyph-name="_335" unicode="&#xff48;" 
d="M741 356c0 145 -67 221 -187 221c-81 0 -138 -43 -158 -108v320h-157v-791h157v319c0 89 43 139 109 139c52 0 80 -33 80 -103v-355h156v358z" />
    <glyph glyph-name="_336" unicode="&#xff49;" 
d="M402 653h156v136h-156v-136zM402 -2h156v565h-156v-565z" />
    <glyph glyph-name="_337" unicode="&#xff4a;" 
d="M419 -49c0 -54 -23 -79 -71 -79h-44v-116c16 -2 50 -3 68 -3c137 0 203 63 203 185v625h-156v-612zM419 653h156v136h-156v-136z" />
    <glyph glyph-name="_338" unicode="&#xff4b;" 
d="M245 -2h157v236h44l142 -236h167l-183 294l159 271h-165l-119 -213h-45v439h-157v-791z" />
    <glyph glyph-name="_339" unicode="&#xff4c;" 
d="M558 -2v791h-156v-791h156z" />
    <glyph glyph-name="_340" unicode="&#xff4d;" 
d="M741 -2h155v357c0 144 -67 222 -184 222c-79 0 -139 -36 -172 -110c-26 71 -86 110 -167 110s-134 -43 -154 -109v95h-156v-565h156v318c0 89 41 139 105 139c51 0 78 -32 78 -96v-361h155v318c0 89 41 139 106 139c51 0 78 -32 78 -96v-361z" />
    <glyph glyph-name="_341" unicode="&#xff4e;" 
d="M731 356c0 145 -67 221 -187 221c-81 0 -138 -43 -158 -108v94h-157v-565h157v319c0 89 43 139 109 139c52 0 80 -33 80 -103v-355h156v358z" />
    <glyph glyph-name="_342" unicode="&#xff4f;" 
d="M743 281c0 182 -84 296 -263 296c-180 0 -264 -114 -264 -296c0 -183 84 -297 264 -297c179 0 263 114 263 297zM587 281c0 -119 -29 -176 -107 -176s-108 57 -108 176c0 118 30 175 108 175s107 -57 107 -175z" />
    <glyph glyph-name="_343" unicode="&#xff50;" 
d="M393 281c0 117 29 174 107 174c79 0 108 -57 108 -174c0 -119 -29 -176 -108 -176c-78 0 -107 57 -107 176zM393 85c20 -61 76 -101 154 -101c134 0 216 95 216 297c0 201 -82 296 -216 296c-78 0 -134 -40 -154 -101v87h-156v-810h156v332z" />
    <glyph glyph-name="_344" unicode="&#xff51;" 
d="M568 281c0 -119 -29 -176 -108 -176c-78 0 -108 57 -108 176c0 117 30 174 108 174c79 0 108 -57 108 -174zM568 -247h155v810h-155v-87c-20 61 -77 101 -155 101c-133 0 -216 -95 -216 -296c0 -202 83 -297 216 -297c78 0 135 40 155 101v-332z" />
    <glyph glyph-name="_345" unicode="&#xff52;" 
d="M626 448c19 0 37 -1 46 -2l2 126c-11 3 -27 5 -44 5c-84 0 -130 -40 -147 -119v105h-157v-565h157v282c0 110 53 168 143 168z" />
    <glyph glyph-name="_346" unicode="&#xff53;" 
d="M246 162c0 -101 84 -178 234 -178c146 0 234 76 234 178s-53 154 -180 178l-56 10c-54 10 -75 27 -75 60s23 55 66 55c45 0 67 -24 67 -56v-11h155v10c0 98 -78 169 -222 169c-140 0 -223 -73 -223 -173c0 -98 62 -151 183 -173l55 -10c57 -10 76 -29 76 -65
c0 -35 -30 -60 -79 -60c-50 0 -80 24 -80 61v15h-155v-10z" />
    <glyph glyph-name="_347" unicode="&#xff54;" 
d="M535 442h147v121h-147v160h-156v-160h-82v-121h82v-276c0 -130 58 -176 208 -176c28 0 74 1 95 3v117h-58c-69 0 -89 15 -89 80v252z" />
    <glyph glyph-name="_348" unicode="&#xff55;" 
d="M229 205c0 -145 67 -221 188 -221c80 0 138 43 158 108v-94h156v565h-156v-319c0 -89 -44 -139 -109 -139c-52 0 -81 33 -81 103v355h-156v-358z" />
    <glyph glyph-name="_349" unicode="&#xff56;" 
d="M563 -2l200 565h-160l-124 -401l-123 401h-160l199 -565h168z" />
    <glyph glyph-name="_350" unicode="&#xff57;" 
d="M747 -2l179 565h-157l-108 -395l-115 395h-133l-115 -395l-108 395h-157l179 -565h156l111 381l112 -381h156z" />
    <glyph glyph-name="_351" unicode="&#xff58;" 
d="M587 -2h162l-171 290l160 275h-162l-96 -183l-96 183h-163l160 -275l-171 -290h162l108 198z" />
    <glyph glyph-name="_352" unicode="&#xff59;" 
d="M383 -67c-17 -49 -41 -61 -75 -61h-42v-117c18 -2 46 -2 66 -2c108 0 155 32 203 169l228 641h-160l-122 -384l-125 384h-160l210 -567z" />
    <glyph glyph-name="_353" unicode="&#xff5a;" 
d="M698 563h-435v-122h242l-251 -334v-109h452v121h-258l250 334v110z" />
    <glyph glyph-name="_358" unicode="&#x3131;" 
d="M160 668v-130h477v-397h153v527h-630z" />
    <glyph glyph-name="_359" unicode="&#x3132;" 
d="M120 668v-130h186v-397h153v527h-339zM500 668v-130h177v-397h153v527h-330z" />
    <glyph glyph-name="_360" unicode="&#x3133;" 
d="M105 668v-130h176v-397h153v527h-329zM585 668v-188c0 -127 -33 -179 -111 -211v-129c78 15 152 56 187 105c35 -49 108 -91 185 -105v129c-78 32 -110 85 -110 211v188h-151z" />
    <glyph glyph-name="_361" unicode="&#x3134;" 
d="M800 141v130h-477v397h-153v-527h630z" />
    <glyph glyph-name="_362" unicode="&#x3135;" 
d="M408 271h-138v397h-152v-527h290v130zM837 668h-381v-130h114v-48c0 -127 -41 -188 -123 -221v-129c80 15 163 66 199 122c37 -56 117 -108 197 -122v129c-82 35 -122 95 -122 221v48h116v130z" />
    <glyph glyph-name="_363" unicode="&#x3136;" 
d="M413 616v-122h453v122h-149v95h-155v-95h-149zM701 296c0 -15 -3 -27 -12 -37c-10 -11 -26 -19 -49 -19c-22 0 -38 8 -48 19c-9 10 -13 22 -13 37s4 28 13 38c10 11 26 18 48 18c23 0 39 -7 49 -18c9 -10 12 -23 12 -38zM415 271h-145v397h-152v-527h297v130zM436 296
c0 -51 19 -92 52 -120c37 -33 90 -50 152 -50s116 17 153 50c32 28 51 69 51 120c0 52 -19 93 -51 121c-37 33 -91 50 -153 50s-115 -17 -152 -50c-33 -28 -52 -69 -52 -121z" />
    <glyph glyph-name="_364" unicode="&#x3137;" 
d="M323 271v267h467v130h-620v-527h630v130h-477z" />
    <glyph glyph-name="_365" unicode="&#x3138;" 
d="M645 271v267h180v130h-332v-527h342v130h-190zM286 538h158v130h-311v-527h322v130h-169v267z" />
    <glyph glyph-name="_366" unicode="&#x3139;" 
d="M328 259v84h457v335h-610v-128h457v-81h-457v-338h630v128h-477z" />
    <glyph glyph-name="_367" unicode="&#x313a;" 
d="M520 255h-248v95h197v318h-341v-114h197v-92h-197v-321h392v114zM837 668h-328v-128h176v-399h152v527z" />
    <glyph glyph-name="_368" unicode="&#x313b;" 
d="M502 668v-527h335v527h-335zM635 546h69v-283h-69v283zM464 255h-192v95h177v318h-321v-114h177v-92h-177v-321h336v114z" />
    <glyph glyph-name="_369" unicode="&#x313c;" 
d="M634 511v157h-133v-528h336v528h-133v-157h-70zM634 398h70v-136h-70v136zM464 255h-192v94h177v319h-322v-115h177v-91h-177v-322h337v115z" />
    <glyph glyph-name="_370" unicode="&#x313d;" 
d="M455 255h-183v95h177v318h-321v-114h177v-92h-177v-321h327v114zM589 668v-196c0 -123 -31 -173 -106 -203v-129c75 13 144 53 182 100c39 -46 107 -87 181 -100v129c-75 32 -105 82 -105 203v196h-152z" />
    <glyph glyph-name="_371" unicode="&#x313e;" 
d="M646 255v95h181v112h-181v92h191v114h-335v-527h342v114h-198zM464 255h-192v95h177v318h-321v-114h177v-92h-177v-321h336v114z" />
    <glyph glyph-name="_372" unicode="&#x313f;" 
d="M638 549h44v-289h-44v289zM802 260v289h35v119h-354v-119h35v-289h-38v-119h362v119h-40zM459 255h-187v95h172v318h-316v-114h172v-92h-172v-321h331v114z" />
    <glyph glyph-name="_373" unicode="&#x3140;" 
d="M462 255h-190v94h172v319h-317v-115h172v-91h-172v-322h335v115zM467 616v-122h399v122h-126v95h-155v-95h-118zM621 296c0 20 4 36 14 46c7 7 16 10 29 10s22 -3 29 -10c10 -10 14 -26 14 -46s-4 -36 -14 -46c-7 -7 -16 -10 -29 -10s-22 3 -29 10c-10 10 -14 26 -14 46z
M480 296c0 -65 24 -111 65 -139c31 -21 72 -32 119 -32s88 11 119 32c41 28 65 74 65 139s-24 111 -65 139c-31 21 -72 32 -119 32s-88 -11 -119 -32c-41 -28 -65 -74 -65 -139z" />
    <glyph glyph-name="_374" unicode="&#x3141;" 
d="M170 668v-527h620v527h-620zM637 538v-267h-314v267h314z" />
    <glyph glyph-name="_375" unicode="&#x3142;" 
d="M323 521v147h-153v-527h620v527h-153v-147h-314zM637 391v-120h-314v120h314z" />
    <glyph glyph-name="_376" unicode="&#x3143;" 
d="M294 517v151h-144v-527h660v527h-144v-151h-111v151h-142v-151h-119zM666 394v-130h-111v130h111zM413 394v-130h-119v130h119z" />
    <glyph glyph-name="_377" unicode="&#x3144;" 
d="M261 512v156h-133v-527h335v527h-133v-156h-69zM261 399h69v-136h-69v136zM589 668v-196c0 -123 -31 -173 -106 -203v-129c75 13 144 53 182 100c39 -46 107 -87 181 -100v129c-75 32 -105 82 -105 203v196h-152z" />
    <glyph glyph-name="_378" unicode="&#x3145;" 
d="M479 310c65 -90 191 -159 348 -175v130c-183 30 -272 135 -272 309v104h-153v-104c0 -176 -89 -279 -271 -309v-130c159 16 282 85 348 175z" />
    <glyph glyph-name="_379" unicode="&#x3146;" 
d="M479 140c63 28 132 91 170 151c43 -63 132 -125 220 -152v131c-99 48 -142 128 -142 301v97h-153v-97c0 -159 -40 -231 -95 -281c-55 49 -95 122 -95 281v97h-153v-97c0 -173 -44 -254 -142 -301v-131c88 26 177 89 220 152c37 -60 107 -123 170 -151z" />
    <glyph glyph-name="_380" unicode="&#x3147;" 
d="M294 405c0 41 14 75 41 101c31 30 81 47 145 47s113 -17 145 -47c27 -26 41 -60 41 -101s-14 -75 -41 -101c-32 -30 -81 -47 -145 -47s-114 17 -145 47c-27 26 -41 60 -41 101zM141 405c0 -83 33 -151 90 -198c60 -52 147 -80 249 -80s189 28 249 80c57 47 90 115 90 198
s-33 151 -90 198c-60 52 -147 80 -249 80s-189 -28 -249 -80c-57 -47 -90 -115 -90 -198z" />
    <glyph glyph-name="_381" unicode="&#x3148;" 
d="M804 538v130h-649v-130h246c-8 -152 -90 -245 -258 -273v-130c147 14 268 78 336 164c65 -84 191 -150 336 -164v130c-169 28 -251 123 -259 273h248z" />
    <glyph glyph-name="_382" unicode="&#x3149;" 
d="M852 538v130h-733v-130h117c-2 -158 -45 -225 -136 -268v-131c86 23 171 83 214 143c36 -58 100 -114 165 -142c64 28 128 84 165 142c44 -62 127 -119 214 -143v131c-92 44 -134 110 -136 268h130zM569 538c-1 -136 -35 -203 -90 -248c-55 45 -89 111 -90 248h180z" />
    <glyph glyph-name="_383" unicode="&#x314a;" 
d="M804 479v130h-249v126h-153v-126h-247v-130h240c-24 -117 -105 -190 -252 -214v-130c147 14 268 76 336 161c66 -84 191 -147 336 -161v130c-147 25 -229 98 -253 214h242z" />
    <glyph glyph-name="_384" unicode="&#x314b;" 
d="M170 668v-130h467v-101c-71 -10 -158 -13 -237 -13h-230v-129h229c83 0 168 4 238 15v-169h153v527h-620z" />
    <glyph glyph-name="_385" unicode="&#x314c;" 
d="M328 259v84h447v126h-447v81h457v128h-610v-547h630v128h-477z" />
    <glyph glyph-name="_386" unicode="&#x314d;" 
d="M559 434c0 -59 -3 -120 -18 -163h-139v267h157v-104zM712 538h98v130h-660v-130h100v-267h-120v-130h700v130h-138c16 44 20 105 20 170v97z" />
    <glyph glyph-name="_387" unicode="&#x314e;" 
d="M127 641v-126h706v126h-277v106h-155v-106h-274zM640 293c0 -14 -6 -25 -18 -34c-25 -20 -74 -27 -142 -27s-117 7 -142 27c-12 9 -18 20 -18 34c0 15 6 25 18 34c25 20 74 28 142 28s117 -8 142 -28c12 -9 18 -19 18 -34zM168 293c0 -50 21 -88 55 -118
c55 -46 146 -68 257 -68s202 22 257 68c34 30 54 68 54 118s-20 89 -54 118c-55 46 -146 69 -257 69s-202 -23 -257 -69c-34 -29 -55 -68 -55 -118z" />
    <glyph glyph-name="_388" unicode="&#x314f;" 
d="M535 857h-153v-926h153v434h154v130h-154v362z" />
    <glyph glyph-name="_389" unicode="&#x3150;" 
d="M666 -69v926h-144v-351h-86v346h-142v-910h142v433h86v-444h144z" />
    <glyph glyph-name="_390" unicode="&#x3151;" 
d="M535 857h-153v-926h153v271h153v131h-153v177h153v131h-153v216z" />
    <glyph glyph-name="_391" unicode="&#x3152;" 
d="M436 852h-142v-910h142v252h86v-263h144v926h-144v-205h-86v200zM522 323h-86v200h86v-200z" />
    <glyph glyph-name="_392" unicode="&#x3153;" 
d="M422 495h-155v-130h155v-434h153v926h-153v-362z" />
    <glyph glyph-name="_393" unicode="&#x3154;" 
d="M680 -69v926h-144v-926h144zM475 -58v910h-141v-348h-138v-130h138v-432h141z" />
    <glyph glyph-name="_394" unicode="&#x3155;" 
d="M422 641h-153v-131h153v-177h-153v-131h153v-271h153v926h-153v-216z" />
    <glyph glyph-name="_395" unicode="&#x3156;" 
d="M334 515v-171h-134v-129h134v-273h142v910h-142v-207h-134v-130h134zM681 -69v926h-144v-926h144z" />
    <glyph glyph-name="_396" unicode="&#x3157;" 
d="M68 150h824v130h-337v369h-152v-369h-335v-130z" />
    <glyph glyph-name="_397" unicode="&#x3158;" 
d="M794 857h-153v-679c-29 -27 -79 -38 -154 -38h-93v309h-153v-309h-197v-129h418c87 0 149 14 179 45v-125h153v433h145v130h-145v363z" />
    <glyph glyph-name="_398" unicode="&#x3159;" 
d="M207 449v-310h-139v-128h279c80 0 135 11 166 37v-105h140v432h62v-444h142v926h-142v-352h-62v347h-140v-682c-30 -22 -77 -31 -141 -31h-22v310h-143z" />
    <glyph glyph-name="_399" unicode="&#x315a;" 
d="M845 -69v926h-153v-678c-30 -27 -81 -39 -156 -39h-103v310h-153v-310h-208v-130h440c87 0 149 15 180 46v-125h153z" />
    <glyph glyph-name="_400" unicode="&#x315b;" 
d="M67 150h825v130h-181v345h-151v-345h-165v345h-151v-345h-177v-130z" />
    <glyph glyph-name="_401" unicode="&#x315c;" 
d="M68 332h334v-354h153v354h337v130h-824v-130z" />
    <glyph glyph-name="_402" unicode="&#x315d;" 
d="M848 857h-153v-655h-188v-130h188v-141h153v926zM504 282c57 0 106 5 148 20v123c-42 -9 -87 -12 -141 -12h-447v-131h183v-352h152v352h105z" />
    <glyph glyph-name="_403" unicode="&#x315e;" 
d="M715 857v-926h142v926h-142zM364 292c50 0 97 4 137 17v123c-40 -11 -83 -12 -131 -12h-299v-128h133v-362h144v362h16zM531 84v-142h141v910h-141v-641h-126v-127h126z" />
    <glyph glyph-name="_404" unicode="&#x315f;" 
d="M503 263c100 0 156 11 189 38v-370h153v926h-153v-432c-33 -23 -81 -33 -157 -33h-473v-129h200v-333h153v333h88z" />
    <glyph glyph-name="_405" unicode="&#x3160;" 
d="M67 331h168v-338h149v338h193v-338h151v338h164v131h-825v-131z" />
    <glyph glyph-name="_406" unicode="&#x3161;" 
d="M68 150h824v131h-824v-131z" />
    <glyph glyph-name="_407" unicode="&#x3162;" 
d="M835 -69v926h-153v-678c-30 -27 -81 -39 -156 -39h-464v-130h440c87 0 149 15 180 46v-125h153z" />
    <glyph glyph-name="_408" unicode="&#x3163;" 
d="M556 857h-153v-926h153v926z" />
    <glyph glyph-name="_409" unicode="&#x3165;" 
d="M458 271h-188v397h-152v-527h340v130zM840 271h-195v397h-152v-527h347v130z" />
    <glyph glyph-name="_410" unicode="&#x3166;" 
d="M643 271v267h186v130h-339v-527h345v130h-192zM455 271h-185v397h-152v-527h337v130z" />
    <glyph glyph-name="_411" unicode="&#x3167;" 
d="M440 271h-170v397h-152v-527h322v130zM585 668v-188c0 -127 -33 -179 -111 -211v-129c78 15 152 56 187 105c35 -49 108 -91 185 -105v129c-78 32 -110 85 -110 211v188h-151z" />
    <glyph glyph-name="_412" unicode="&#x3168;" 
d="M636 421l51 -168h-104zM118 141h728l-210 570l-196 -527v87h-170v397h-152v-527z" />
    <glyph glyph-name="_413" unicode="&#x3169;" 
d="M364 255h-174v95h136v318h-255v-114h137v-92h-137v-321h293v114zM603 668h-250v-128h126v-399h124v527zM705 668v-196c0 -125 -24 -175 -79 -205v-129c59 14 112 51 141 94c29 -42 80 -80 140 -94v130c-56 31 -78 81 -78 204v196h-124z" />
    <glyph glyph-name="_414" unicode="&#x316a;" 
d="M659 271v267h179v130h-331v-527h337v130h-185zM469 255h-197v95h182v318h-326v-114h182v-92h-182v-321h341v114z" />
    <glyph glyph-name="_415" unicode="&#x316b;" 
d="M460 511v157h-110v-528h262v528h-111v-157h-41zM460 398h41v-136h-41v136zM328 255h-140v94h129v319h-246v-115h129v-91h-129v-322h257v115zM707 668v-196c0 -125 -24 -175 -79 -206v-128c59 14 111 50 140 94c29 -43 78 -80 138 -94v129c-55 32 -77 82 -77 205v196h-122
z" />
    <glyph glyph-name="_416" unicode="&#x316c;" 
d="M650 421l46 -168h-95zM128 141h727l-205 570l-195 -537v81h-183v95h177v318h-321v-114h177v-92h-177v-321z" />
    <glyph glyph-name="_417" unicode="&#x316d;" 
d="M465 255h-193v94h172v319h-317v-115h172v-91h-172v-322h338v115zM477 668v-124h375v124h-375zM622 307c0 26 4 46 15 57c6 7 15 10 27 10s21 -3 27 -10c11 -11 15 -31 15 -57s-4 -46 -15 -57c-6 -7 -15 -10 -27 -10s-21 3 -27 10c-11 11 -15 31 -15 57zM481 307
c0 -64 23 -114 63 -145c31 -24 72 -37 120 -37s89 13 120 37c40 31 63 81 63 145s-23 114 -63 145c-31 24 -72 37 -120 37s-89 -13 -120 -37c-40 -31 -63 -81 -63 -145z" />
    <glyph glyph-name="_418" unicode="&#x316e;" 
d="M127 668v-528h336v528h-336zM260 546h70v-284h-70v284zM634 511v157h-133v-528h336v528h-133v-157h-70zM634 398h70v-136h-70v136z" />
    <glyph glyph-name="_419" unicode="&#x316f;" 
d="M128 668v-527h335v527h-335zM261 546h69v-283h-69v283zM589 668v-196c0 -123 -31 -173 -106 -203v-129c75 13 144 53 182 100c39 -46 107 -87 181 -100v129c-75 32 -105 82 -105 203v196h-152z" />
    <glyph glyph-name="_420" unicode="&#x3170;" 
d="M261 546h69v-283h-69v283zM650 421l46 -168h-95zM128 141h727l-205 570l-187 -515v472h-335v-527z" />
    <glyph glyph-name="_421" unicode="&#x3171;" 
d="M210 771v-385h540v385h-540zM606 649v-140h-252v140h252zM390 182c0 11 5 21 15 29c15 11 42 17 75 17s60 -6 75 -17c10 -8 15 -18 15 -29c0 -12 -5 -22 -15 -29c-15 -12 -42 -18 -75 -18s-60 6 -75 18c-10 7 -15 17 -15 29zM247 182c0 -47 18 -83 49 -111
c44 -38 111 -57 184 -57s140 19 184 57c31 28 49 64 49 111c0 46 -18 83 -49 110c-44 38 -111 58 -184 58s-140 -20 -184 -58c-31 -27 -49 -64 -49 -110z" />
    <glyph glyph-name="_422" unicode="&#x3172;" 
d="M837 668h-319v-128h167v-399h152v527zM261 512v156h-133v-527h350v527h-133v-156h-84zM261 399h84v-136h-84v136z" />
    <glyph glyph-name="_423" unicode="&#x3173;" 
d="M261 512v156h-133v-527h340v527h-133v-156h-74zM261 399h74v-136h-74v136zM663 271v267h175v130h-326v-527h332v130h-181z" />
    <glyph glyph-name="_424" unicode="&#x3174;" 
d="M207 511v157h-111v-528h268v528h-112v-157h-45zM207 398h45v-136h-45v136zM456 668v-196c0 -125 -23 -176 -74 -206v-128c56 14 106 51 135 94c28 -42 75 -80 133 -94v129c-51 31 -73 82 -73 205v196h-121zM855 668h-232v-129h108v-399h124v528z" />
    <glyph glyph-name="_425" unicode="&#x3175;" 
d="M443 668v-196c0 -125 -22 -175 -73 -205v-129c56 14 105 51 132 93c27 -42 75 -79 131 -93v129c-51 31 -73 82 -73 205v196h-117zM758 270v268h98v130h-209v-528h213v130h-102zM207 511v157h-111v-528h262v528h-111v-157h-40zM207 398h40v-136h-40v136z" />
    <glyph glyph-name="_426" unicode="&#x3176;" 
d="M843 538v130h-343v-130h95v-66c0 -121 -31 -175 -101 -203v-129c73 13 139 52 177 102c38 -49 103 -90 175 -102v129c-70 30 -100 83 -100 203v66h97zM261 512v156h-133v-527h340v527h-133v-156h-74zM261 399h74v-136h-74v136z" />
    <glyph glyph-name="_427" unicode="&#x3177;" 
d="M655 255v95h172v112h-172v92h182v114h-326v-527h333v114h-189zM261 512v156h-133v-527h340v527h-133v-156h-74zM261 399h74v-136h-74v136z" />
    <glyph glyph-name="_428" unicode="&#x3178;" 
d="M354 683v88h-144v-385h540v385h-144v-88h-252zM606 566v-60h-252v60h252zM390 182c0 11 5 21 15 29c15 11 42 17 75 17s60 -6 75 -17c10 -8 15 -18 15 -29c0 -12 -5 -22 -15 -29c-15 -12 -42 -18 -75 -18s-60 6 -75 18c-10 7 -15 17 -15 29zM247 182
c0 -47 18 -83 49 -111c44 -38 111 -57 184 -57s140 19 184 57c31 28 49 64 49 111c0 46 -18 83 -49 110c-44 38 -111 58 -184 58s-140 -20 -184 -58c-31 -27 -49 -64 -49 -110z" />
    <glyph glyph-name="_429" unicode="&#x3179;" 
d="M329 682v89h-139v-385h580v385h-138v-89h-79v89h-137v-89h-87zM632 569v-68h-79v68h79zM416 569v-68h-87v68h87zM390 182c0 11 5 21 15 29c15 11 42 17 75 17s60 -6 75 -17c10 -8 15 -18 15 -29c0 -12 -5 -22 -15 -29c-15 -12 -42 -18 -75 -18s-60 6 -75 18
c-10 7 -15 17 -15 29zM247 182c0 -47 18 -83 49 -111c44 -38 111 -57 184 -57s140 19 184 57c31 28 49 64 49 111c0 46 -18 83 -49 110c-44 38 -111 58 -184 58s-140 -20 -184 -58c-31 -27 -49 -64 -49 -110z" />
    <glyph glyph-name="_430" unicode="&#x317a;" 
d="M492 668v-130h177v-397h152v527h-329zM247 668v-188c0 -127 -33 -179 -111 -211v-129c78 15 152 56 186 105c36 -49 109 -91 186 -105v129c-78 32 -110 85 -110 211v188h-151z" />
    <glyph glyph-name="_431" unicode="&#x317b;" 
d="M830 271h-167v397h-151v-527h318v130zM222 668v-196c0 -123 -31 -173 -106 -203v-129c75 13 144 53 182 100c39 -46 107 -87 181 -100v129c-75 32 -106 82 -106 203v196h-151z" />
    <glyph glyph-name="_432" unicode="&#x317c;" 
d="M212 668v-196c0 -123 -32 -173 -106 -203v-129c74 13 144 53 182 100c38 -46 107 -87 181 -100v129c-75 32 -106 82 -106 203v196h-151zM645 271v267h184v130h-336v-527h342v130h-190z" />
    <glyph glyph-name="_433" unicode="&#x317d;" 
d="M212 668v-196c0 -123 -32 -173 -106 -203v-129c74 13 144 53 182 100c38 -46 107 -87 181 -100v129c-75 32 -106 82 -106 203v196h-151zM635 512v156h-133v-527h335v527h-133v-156h-69zM635 399h69v-136h-69v136z" />
    <glyph glyph-name="_434" unicode="&#x317e;" 
d="M847 538v130h-390v-130h113c-1 -136 -35 -203 -91 -248c-57 46 -92 114 -92 257v121h-152v-121c0 -164 -43 -233 -135 -277v-131c86 23 169 83 212 143c37 -58 102 -114 167 -142c64 28 130 84 167 142c43 -62 125 -119 212 -143v131c-91 44 -133 110 -135 268h124z" />
    <glyph glyph-name="_435" unicode="&#x317f;" 
d="M127 141h707l-356 590zM477 485l137 -234h-269z" />
    <glyph glyph-name="_436" unicode="&#x3180;" 
d="M241 405c0 70 5 115 21 137c7 10 16 14 29 14s22 -4 29 -14c16 -22 21 -67 21 -137s-5 -115 -21 -137c-7 -10 -16 -14 -29 -14s-22 4 -29 14c-16 22 -21 67 -21 137zM108 405c0 -116 25 -195 75 -238c28 -23 64 -35 108 -35s79 12 107 35c51 43 76 122 76 238
s-25 195 -76 238c-28 23 -63 35 -107 35s-80 -12 -108 -35c-50 -43 -75 -122 -75 -238zM624 405c0 70 4 115 20 137c8 10 17 14 30 14s22 -4 29 -14c16 -22 21 -67 21 -137s-5 -115 -21 -137c-7 -10 -16 -14 -29 -14s-22 4 -30 14c-16 22 -20 67 -20 137zM491 405
c0 -116 25 -195 75 -238c28 -23 64 -35 108 -35s79 12 107 35c51 43 76 122 76 238s-25 195 -76 238c-28 23 -63 35 -107 35s-80 -12 -108 -35c-50 -43 -75 -122 -75 -238z" />
    <glyph glyph-name="_437" unicode="&#x3181;" 
d="M556 742h-153v-156c-77 -10 -144 -36 -191 -77c-45 -39 -72 -93 -72 -160c0 -68 27 -121 72 -160c62 -55 158 -82 267 -82s205 27 267 82c45 39 72 92 72 160c0 67 -27 121 -72 160c-47 41 -113 67 -190 77v156zM293 349c0 28 10 52 31 70c31 28 85 42 155 42
s123 -14 155 -42c21 -18 31 -42 31 -70c0 -29 -10 -52 -31 -70c-32 -28 -85 -43 -155 -43s-124 15 -155 43c-21 18 -31 41 -31 70z" />
    <glyph glyph-name="_438" unicode="&#x3182;" 
d="M370 693h-152v-130c-14 -5 -27 -12 -38 -21c-49 -38 -72 -104 -72 -188s23 -151 72 -188c29 -22 66 -34 114 -34c47 0 85 12 113 34c50 37 73 104 73 188s-23 150 -73 188c-11 9 -23 16 -37 21v130zM586 668v-188c0 -127 -33 -179 -110 -211v-129c77 15 151 56 185 105
c36 -49 108 -91 185 -105v129c-78 32 -109 85 -109 211v188h-151zM244 354c0 47 5 76 19 91c7 8 17 11 31 11c13 0 23 -3 30 -11c14 -15 19 -44 19 -91c0 -48 -5 -77 -19 -92c-7 -8 -17 -11 -30 -11c-14 0 -24 3 -31 11c-14 15 -19 44 -19 92z" />
    <glyph glyph-name="_439" unicode="&#x3183;" 
d="M368 693h-152v-130c-14 -6 -26 -13 -37 -21c-50 -38 -73 -104 -73 -188s23 -151 73 -188c29 -22 66 -34 113 -34c48 0 85 12 114 34c50 37 72 104 72 188s-22 150 -72 188c-11 9 -24 16 -38 21v130zM243 354c0 47 5 76 19 91c7 8 17 11 30 11c14 0 24 -3 31 -11
c14 -15 19 -44 19 -91c0 -48 -5 -77 -19 -92c-7 -8 -17 -11 -31 -11c-13 0 -23 3 -30 11c-14 15 -19 44 -19 92zM651 421l46 -168h-94zM651 711l-207 -570h412z" />
    <glyph glyph-name="_440" unicode="&#x3184;" 
d="M170 386h620v121h-109c9 26 12 60 12 91v53h77v120h-580v-120h80v-144h-100v-121zM413 651h137v-61c0 -29 -1 -59 -11 -83h-126v144zM390 182c0 11 5 21 15 29c15 11 42 17 75 17s60 -6 75 -17c10 -8 15 -18 15 -29c0 -12 -5 -22 -15 -29c-15 -12 -42 -18 -75 -18
s-60 6 -75 18c-10 7 -15 17 -15 29zM247 182c0 -47 18 -83 49 -111c44 -38 111 -57 184 -57s140 19 184 57c31 28 49 64 49 111c0 46 -18 83 -49 110c-44 38 -111 58 -184 58s-140 -20 -184 -58c-31 -27 -49 -64 -49 -110z" />
    <glyph glyph-name="_441" unicode="&#x3185;" 
d="M466 494v122h-92v96h-154v-96h-112v-122h358zM851 494v122h-112v96h-154v-96h-92v-122h358zM256 294c0 21 4 36 12 45c6 7 15 11 27 11s21 -4 27 -11c8 -9 12 -24 12 -45s-4 -36 -12 -45c-6 -7 -15 -11 -27 -11s-21 4 -27 11c-8 9 -12 24 -12 45zM119 294
c0 -57 20 -103 55 -132c30 -25 71 -38 121 -38s91 13 121 38c35 29 55 75 55 132s-20 103 -55 132c-30 25 -71 38 -121 38s-91 -13 -121 -38c-35 -29 -55 -75 -55 -132zM626 294c0 21 4 36 12 45c6 7 15 11 27 11s21 -4 27 -11c8 -9 12 -24 12 -45s-4 -36 -12 -45
c-6 -7 -15 -11 -27 -11s-21 4 -27 11c-8 9 -12 24 -12 45zM489 294c0 -57 20 -103 55 -132c30 -25 71 -38 121 -38s91 13 121 38c35 29 55 75 55 132s-20 103 -55 132c-30 25 -71 38 -121 38s-91 -13 -121 -38c-35 -29 -55 -75 -55 -132z" />
    <glyph glyph-name="_442" unicode="&#x3186;" 
d="M160 668v-126h640v126h-640zM619 317c0 -16 -6 -30 -19 -40c-21 -17 -61 -25 -120 -25s-99 8 -121 25c-12 10 -18 24 -18 40c0 17 6 31 18 40c22 18 62 26 121 26s99 -8 120 -26c13 -9 19 -23 19 -40zM190 317c0 -55 21 -98 58 -128c51 -42 133 -62 232 -62
s181 20 232 62c37 30 58 73 58 128s-21 99 -58 129c-51 42 -133 62 -232 62s-181 -20 -232 -62c-37 -30 -58 -74 -58 -129z" />
    <glyph glyph-name="_443" unicode="&#x3187;" 
d="M790 857h-153v-680c-24 -22 -61 -33 -114 -37v309h-152v-310h-84v310h-151v-310h-100v-128h422c86 0 148 14 179 45v-125h153v288h142v130h-142v150h142v130h-142v228z" />
    <glyph glyph-name="_444" unicode="&#x3188;" 
d="M665 852h-139v-682c-14 -11 -32 -18 -55 -23v302h-140v-310h-47v310h-140v-310h-75v-129h292c79 0 135 12 165 38v-105h139v270h64v-282h142v926h-142v-226h-64v221zM665 501h64v-158h-64v158z" />
    <glyph glyph-name="_445" unicode="&#x3189;" 
d="M848 -69v926h-153v-679c-24 -22 -63 -33 -117 -37v309h-152v-310h-84v310h-151v-310h-127v-130h451c87 0 149 15 180 46v-125h153z" />
    <glyph glyph-name="_446" unicode="&#x318a;" 
d="M850 857h-151v-564h-164v-125h164v-43h-164v-125h164v-69h151v926zM508 328c57 0 106 5 148 19v123c-42 -9 -87 -11 -142 -11h-460v-131h90v-398h147v398h55v-398h146v398h16z" />
    <glyph glyph-name="_447" unicode="&#x318b;" 
d="M723 857v-926h140v926h-140zM292 329v-399h135v401c31 2 61 6 87 15v121c-40 -10 -83 -11 -131 -11h-314v-127h57v-399h135v399h31zM548 182v-37h-95v-124h95v-79h138v910h-138v-546h-95v-124h95z" />
    <glyph glyph-name="_448" unicode="&#x318c;" 
d="M414 275v-345h152v347c63 4 103 16 129 37v-383h153v926h-153v-419c-34 -23 -81 -33 -158 -33h-475v-130h118v-345h151v345h83z" />
    <glyph glyph-name="_449" unicode="&#x318d;" 
d="M562 497h-165v-162h165v162z" />
    <glyph glyph-name="_450" unicode="&#x318e;" 
d="M437 497h-165v-162h165v162zM670 857h-153v-926h153v926z" />
    <glyph glyph-name="_451" unicode="&#x2170;" 
d="M401 654h155v137h-155v-137zM401 -4h155v568h-155v-568z" />
    <glyph glyph-name="_452" unicode="&#x2171;" 
d="M263 654h151v137h-151v-137zM263 -4h151v568h-151v-568zM543 654h151v137h-151v-137zM543 -4h151v568h-151v-568z" />
    <glyph glyph-name="_453" unicode="&#x2172;" 
d="M180 654h148v137h-148v-137zM180 -4h148v568h-148v-568zM405 654h148v137h-148v-137zM405 -4h148v568h-148v-568zM630 654h148v137h-148v-137zM630 -4h148v568h-148v-568z" />
    <glyph glyph-name="_454" unicode="&#x2173;" 
d="M178 654h148v136h-148v-136zM178 -4h148v567h-148v-567zM691 -4l178 567h-155l-109 -405l-109 405h-155l179 -567h171z" />
    <glyph glyph-name="_455" unicode="&#x2174;" 
d="M563 -4l200 567h-160l-123 -408l-125 408h-160l200 -567h168z" />
    <glyph glyph-name="_456" unicode="&#x2175;" 
d="M452 -4l178 567h-155l-109 -405l-109 405h-155l179 -567h171zM647 654h148v136h-148v-136zM647 -4h148v567h-148v-567z" />
    <glyph glyph-name="_457" unicode="&#x2176;" 
d="M365 -4l138 568h-152l-74 -404l-75 404h-151l138 -568h176zM708 654h143v137h-143v-137zM708 -4h143v568h-143v-568zM519 654h142v137h-142v-137zM519 -4h142v568h-142v-568z" />
    <glyph glyph-name="_458" unicode="&#x2177;" 
d="M312 -4l98 568h-144l-49 -408l-51 408h-144l100 -568h190zM598 654h136v137h-136v-137zM598 -4h136v568h-136v-568zM426 654h136v137h-136v-137zM426 -4h136v568h-136v-568zM770 654h136v137h-136v-137zM770 -4h136v568h-136v-568z" />
    <glyph glyph-name="_459" unicode="&#x2178;" 
d="M865 -4l-185 296l169 271h-153l-93 -149l-93 149h-154l170 -272l-185 -295h155l107 172l107 -172h155zM178 654h148v136h-148v-136zM178 -4h148v567h-148v-567z" />
    <glyph glyph-name="_460" unicode="&#x2179;" 
d="M587 -4h163l-172 291l161 276h-164l-95 -184l-96 184h-163l161 -276l-173 -291h163l108 199z" />
    <glyph glyph-name="_461" unicode="&#x2160;" 
d="M622 -4v135h-61v525h61v135h-285v-135h61v-525h-61v-135h285z" />
    <glyph glyph-name="_462" unicode="&#x2161;" 
d="M454 -4v132h-52v531h52v132h-259v-132h52v-531h-52v-132h259zM765 -4v132h-53v531h53v132h-260v-132h52v-531h-52v-132h260z" />
    <glyph glyph-name="_463" unicode="&#x2162;" 
d="M334 -4v130h-46v534h46v131h-238v-131h46v-534h-46v-130h238zM598 -4v130h-46v534h46v131h-238v-131h46v-534h-46v-130h238zM863 -4v130h-46v534h46v131h-238v-131h46v-534h-46v-130h238z" />
    <glyph glyph-name="_464" unicode="&#x2163;" 
d="M627 172l-122 619h-155l177 -795h199l178 795h-155zM336 -4v130h-46v534h46v131h-238v-131h46v-534h-46v-130h238z" />
    <glyph glyph-name="_465" unicode="&#x2164;" 
d="M302 790h-168l255 -794h181l255 794h-168l-177 -607z" />
    <glyph glyph-name="_466" unicode="&#x2165;" 
d="M210 790h-156l178 -794h199l178 794h-155l-122 -618zM861 -4v130h-46v534h46v130h-238v-130h46v-534h-46v-130h238z" />
    <glyph glyph-name="_467" unicode="&#x2166;" 
d="M926 -4v128h-39v539h39v128h-213v-128h39v-539h-39v-128h213zM693 -4v128h-38v539h38v128h-212v-128h38v-539h-38v-128h212zM246 176l-79 615h-147l130 -795h192l130 795h-147z" />
    <glyph glyph-name="_468" unicode="&#x2167;" 
d="M935 -4v124h-24v546h24v125h-174v-125h24v-546h-24v-124h174zM742 -4v124h-28v546h28v125h-181v-125h28v-546h-28v-124h181zM542 -4v124h-24v546h24v125h-174v-125h24v-546h-24v-124h174zM187 171l-36 620h-137l76 -795h195l76 795h-137z" />
    <glyph glyph-name="_469" unicode="&#x2168;" 
d="M326 -4v130h-46v534h46v131h-238v-131h46v-534h-46v-130h238zM907 791h-154l-129 -244l-130 244h-154l207 -389l-217 -406h154l140 261l139 -261h154l-217 406z" />
    <glyph glyph-name="_470" unicode="&#x2169;" 
d="M319 -4l161 302l159 -302h175l-229 410l212 384h-175l-142 -278l-144 278h-175l212 -384l-229 -410h175z" />
    <glyph glyph-name="_471" unicode="&#x391;" horiz-adv-x="708" 
d="M174 -4l43 153h267l45 -153h168l-255 794h-181l-255 -794h168zM255 283l97 339l95 -339h-192z" />
    <glyph glyph-name="_472" unicode="&#x392;" horiz-adv-x="675" 
d="M457 563c0 -72 -41 -95 -118 -95h-114v189h114c77 0 118 -23 118 -94zM383 -4c173 0 260 79 260 230c0 92 -52 161 -138 184c71 24 115 80 115 164c0 143 -86 217 -255 217h-305v-795h323zM477 234c0 -76 -39 -105 -120 -105h-132v210h132c81 0 120 -29 120 -105z" />
    <glyph glyph-name="_473" unicode="&#x393;" horiz-adv-x="563" 
d="M60 791v-795h165v657h329v138h-494z" />
    <glyph glyph-name="_474" unicode="&#x394;" horiz-adv-x="709" 
d="M700 -4l-256 794h-181l-255 -794h692zM214 129l140 488l140 -488h-280z" />
    <glyph glyph-name="_475" unicode="&#x395;" horiz-adv-x="597" 
d="M60 -4h498v137h-333v201h287v137h-287v182h328v138h-493v-795z" />
    <glyph glyph-name="_476" unicode="&#x396;" horiz-adv-x="608" 
d="M35 121v-125h538v137h-340l335 531v127h-522v-138h323z" />
    <glyph glyph-name="_477" unicode="&#x397;" horiz-adv-x="694" 
d="M469 -4h165v795h-165v-320h-244v320h-165v-795h165v338h244v-338z" />
    <glyph glyph-name="_478" unicode="&#x398;" horiz-adv-x="725" 
d="M518 394c0 -119 -12 -177 -40 -219c-25 -36 -63 -56 -115 -56c-53 0 -90 20 -115 56c-28 42 -40 100 -40 219c0 116 12 176 40 217c25 36 62 55 115 55c52 0 90 -19 115 -55c28 -41 40 -101 40 -217zM682 394c0 116 -15 224 -75 303c-52 68 -131 108 -244 108
c-114 0 -193 -40 -244 -108c-61 -79 -76 -187 -76 -303c0 -118 15 -226 76 -305c51 -68 130 -107 244 -107c113 0 192 39 244 107c60 79 75 187 75 305zM259 335h208v115h-208v-115z" />
    <glyph glyph-name="_479" unicode="&#x399;" horiz-adv-x="285" 
d="M225 791h-165v-795h165v795z" />
    <glyph glyph-name="_480" unicode="&#x39a;" horiz-adv-x="678" 
d="M650 791h-178l-177 -320h-70v320h-165v-795h165v338h70l207 -338h180l-254 408z" />
    <glyph glyph-name="_481" unicode="&#x39b;" horiz-adv-x="709" 
d="M700 -4l-256 794h-181l-255 -794h168l178 621l178 -621h168z" />
    <glyph glyph-name="_482" unicode="&#x39c;" horiz-adv-x="932" 
d="M534 -4l178 466v-466h160v795h-168l-238 -624l-238 624h-168v-795h160v466l178 -466h136z" />
    <glyph glyph-name="_483" unicode="&#x39d;" horiz-adv-x="705" 
d="M644 -4v794h-161v-513l-258 513h-165v-794h161v511l258 -511h165z" />
    <glyph glyph-name="_484" unicode="&#x39e;" horiz-adv-x="646" 
d="M44 653h558v138h-558v-138zM39 -4h568v137h-568v-137zM85 334h476v137h-476v-137z" />
    <glyph glyph-name="_485" unicode="&#x39f;" horiz-adv-x="725" 
d="M518 394c0 -118 -12 -177 -40 -219c-25 -36 -63 -56 -115 -56c-53 0 -90 20 -115 56c-28 42 -40 101 -40 219c0 116 12 176 40 217c25 36 62 55 115 55c52 0 90 -19 115 -55c28 -41 40 -101 40 -217zM682 394c0 116 -15 224 -75 303c-52 68 -131 108 -244 108
c-114 0 -193 -40 -244 -108c-61 -79 -76 -187 -76 -303c0 -118 15 -226 76 -305c51 -68 130 -107 244 -107c113 0 192 39 244 107c60 79 75 187 75 305z" />
    <glyph glyph-name="_486" unicode="&#x3a0;" horiz-adv-x="694" 
d="M469 -4h165v795h-574v-795h165v657h244v-657z" />
    <glyph glyph-name="_487" unicode="&#x3a1;" horiz-adv-x="668" 
d="M382 278c164 0 260 93 260 256s-96 257 -260 257h-322v-795h165v282h157zM225 416v237h133c79 0 119 -40 119 -119c0 -77 -40 -118 -119 -118h-133z" />
    <glyph glyph-name="_488" unicode="&#x3a3;" horiz-adv-x="593" 
d="M43 135v-139h520v137h-328l163 248v49l-162 223h327v138h-520v-139l180 -246z" />
    <glyph glyph-name="_489" unicode="&#x3a4;" horiz-adv-x="613" 
d="M13 653h211v-657h165v657h211v138h-587v-138z" />
    <glyph glyph-name="_490" unicode="&#x3a5;" horiz-adv-x="695" 
d="M347 449l-163 342h-171l252 -482v-313h165v313l252 482h-172z" />
    <glyph glyph-name="_491" unicode="&#x3a6;" horiz-adv-x="851" 
d="M507 790h-164v-117c-187 -12 -313 -97 -313 -280c0 -184 126 -269 313 -281v-116h164v116c187 12 314 97 314 281c0 183 -127 268 -314 280v117zM192 393c0 95 56 142 151 145v-291c-95 3 -151 50 -151 146zM658 393c0 -96 -56 -143 -151 -146v291
c95 -3 151 -50 151 -145z" />
    <glyph glyph-name="_492" unicode="&#x3a7;" horiz-adv-x="698" 
d="M188 -4l161 302l159 -302h176l-230 410l213 384h-176l-142 -278l-144 278h-175l212 -384l-229 -410h175z" />
    <glyph glyph-name="_493" unicode="&#x3a8;" horiz-adv-x="796" 
d="M478 169c173 24 267 128 267 297v324h-163v-317c0 -102 -35 -152 -104 -165v482h-161v-482c-65 12 -104 61 -104 165v317h-162v-324c0 -169 93 -273 266 -297v-173h161v173z" />
    <glyph glyph-name="_494" unicode="&#x3a9;" horiz-adv-x="727" 
d="M363 805c-112 0 -193 -39 -244 -108c-57 -76 -75 -175 -75 -278c0 -145 49 -243 132 -286h-119v-137h274v137c-83 34 -123 110 -123 261c0 116 12 175 40 217c24 36 63 55 115 55s91 -19 115 -55c29 -42 40 -101 40 -217c0 -151 -40 -227 -123 -261v-137h274v137h-119
c82 43 133 141 133 286c0 103 -19 202 -75 278c-51 69 -132 108 -245 108z" />
    <glyph glyph-name="_495" unicode="&#x3b1;" horiz-adv-x="639" 
d="M408 280c0 -120 -28 -178 -109 -178c-80 0 -108 59 -108 178c0 118 28 176 108 176c81 0 109 -57 109 -176zM408 83c10 -67 45 -97 143 -97c26 0 51 1 71 3v120h-17c-29 0 -42 11 -42 45v410h-155v-87c-20 59 -77 101 -155 101c-135 0 -218 -96 -218 -298
c0 -203 83 -298 218 -298c78 0 135 41 155 101z" />
    <glyph glyph-name="_496" unicode="&#x3b2;" horiz-adv-x="630" 
d="M566 580c0 129 -88 225 -258 225c-168 0 -256 -93 -256 -248v-807h155v332c22 -68 81 -100 164 -100c127 0 229 84 229 241c0 110 -75 182 -168 191c86 17 134 82 134 166zM411 574c0 -66 -36 -101 -103 -101h-27v-121h27c88 0 137 -41 137 -122
c0 -83 -44 -127 -120 -127c-82 0 -118 47 -118 149v294c0 93 32 137 101 137c66 0 103 -40 103 -109z" />
    <glyph glyph-name="_497" unicode="&#x3b3;" horiz-adv-x="595" 
d="M375 -250v241l206 572h-160l-124 -402l-124 402h-160l206 -572v-241h156z" />
    <glyph glyph-name="_498" unicode="&#x3b4;" horiz-adv-x="597" 
d="M283 669h234v121h-427v-121l136 -102c-126 -24 -191 -125 -191 -287c0 -187 84 -298 263 -298c180 0 263 111 263 298c0 119 -34 202 -101 252zM190 280c0 118 28 176 108 176c81 0 109 -58 109 -176c0 -120 -28 -179 -109 -179c-80 0 -108 59 -108 179z" />
    <glyph glyph-name="_499" unicode="&#x3b5;" horiz-adv-x="551" 
d="M279 343c-52 0 -81 25 -81 59s29 60 79 60c46 0 65 -25 65 -66h168v10c0 96 -75 171 -233 171c-155 0 -231 -73 -231 -166c0 -63 46 -111 103 -124c-69 -13 -116 -62 -116 -133c0 -100 92 -172 248 -172s248 72 248 172v8h-156v-2c0 -37 -35 -64 -92 -64
c-58 0 -93 25 -93 68c0 41 35 66 94 66h83v113h-86z" />
    <glyph glyph-name="_500" unicode="&#x3b6;" horiz-adv-x="510" 
d="M417 97c-176 7 -230 48 -230 139c0 170 100 305 295 430v125h-392v-121h230c-176 -112 -287 -267 -287 -447c0 -152 94 -235 295 -239c-11 -49 -33 -102 -61 -155l119 -33c54 76 96 181 96 241c0 40 -16 58 -65 60z" />
    <glyph glyph-name="_501" unicode="&#x3b7;" horiz-adv-x="604" 
d="M554 355c0 146 -68 223 -189 223c-80 0 -138 -44 -158 -108v94h-155v-568h155v320c0 91 45 140 111 140c53 0 81 -32 81 -103v-603h155v605z" />
    <glyph glyph-name="_502" unicode="&#x3b8;" horiz-adv-x="644" 
d="M603 397c0 296 -87 414 -281 414c-195 0 -281 -119 -281 -414c0 -297 86 -415 281 -415c194 0 281 117 281 415zM322 690c81 0 121 -51 126 -235h-253c5 184 45 235 126 235h1zM321 102c-81 0 -121 51 -126 235h253c-5 -184 -45 -235 -126 -235h-1z" />
    <glyph glyph-name="_503" unicode="&#x3b9;" horiz-adv-x="294" 
d="M52 124c0 -110 45 -138 143 -138c25 0 51 1 70 3v120h-17c-29 0 -41 11 -41 45v410h-155v-440z" />
    <glyph glyph-name="_504" unicode="&#x3ba;" horiz-adv-x="567" 
d="M52 -4h155v239h44l144 -239h167l-184 295l160 273h-164l-122 -216h-45v216h-155v-568z" />
    <glyph glyph-name="_505" unicode="&#x3bb;" horiz-adv-x="569" 
d="M0 -4h160l125 381l124 -381h160l-235 653c-45 124 -94 155 -198 155c-21 0 -48 0 -67 -3v-118h37c42 0 64 -13 83 -66l21 -59z" />
    <glyph glyph-name="_506" unicode="&#x3bc;" horiz-adv-x="606" 
d="M206 563h-155v-813h155v281c11 -28 39 -49 76 -49c54 0 99 44 116 107v-93h156v567h-156v-322c0 -90 -45 -140 -110 -140c-54 0 -82 33 -82 103v359z" />
    <glyph glyph-name="_507" unicode="&#x3bd;" horiz-adv-x="595" 
d="M381 -4l200 567h-160l-124 -408l-124 408h-160l200 -567h168z" />
    <glyph glyph-name="_508" unicode="&#x3be;" horiz-adv-x="537" 
d="M355 -16c-11 -48 -34 -102 -61 -155l119 -33c54 76 96 181 96 241c0 40 -16 58 -66 60c-182 6 -255 59 -255 153c0 93 72 154 158 154h45v121h-73c-59 0 -97 24 -97 83c0 49 22 76 71 76c46 0 67 -25 71 -60h153c-3 102 -73 181 -224 181s-224 -82 -224 -186
c0 -86 57 -144 144 -160c-106 -32 -179 -112 -179 -229c0 -153 123 -241 322 -246z" />
    <glyph glyph-name="_509" unicode="&#x3bf;" horiz-adv-x="597" 
d="M190 280c0 116 28 176 109 176s108 -59 108 -176c0 -119 -28 -177 -108 -177s-109 59 -109 177zM35 280c0 -188 87 -298 264 -298s263 110 263 298c0 186 -86 298 -263 298s-264 -112 -264 -298z" />
    <glyph glyph-name="_510" unicode="&#x3c0;" horiz-adv-x="653" 
d="M263 442h126v-446h154v446h83v122h-600v-122h82v-446h155v446z" />
    <glyph glyph-name="_511" unicode="&#x3c1;" horiz-adv-x="607" 
d="M570 280c0 184 -83 297 -264 297c-179 0 -263 -114 -263 -297v-530h155v333c20 -60 77 -101 155 -101c135 0 217 95 217 298zM306 101c-80 0 -108 59 -108 179c0 118 28 176 108 176c81 0 109 -58 109 -176c0 -120 -28 -179 -109 -179z" />
    <glyph glyph-name="_512" unicode="&#x3c3;" horiz-adv-x="614" 
d="M561 273c0 90 -36 150 -84 169h122v121h-301c-176 0 -263 -107 -263 -290c0 -184 87 -291 263 -291c177 0 263 107 263 291zM407 273c0 -119 -32 -172 -109 -172c-76 0 -108 54 -108 172c0 115 32 170 108 170c78 0 109 -54 109 -170z" />
    <glyph glyph-name="_513" unicode="&#x3c4;" horiz-adv-x="523" 
d="M329 442h178v122h-497v-122h164v-296c0 -126 41 -160 171 -160c25 0 56 1 75 3v117h-29c-47 0 -62 12 -62 58v278z" />
    <glyph glyph-name="_514" unicode="&#x3c5;" horiz-adv-x="595" 
d="M297 -18c155 0 251 75 251 224v358h-156v-357c0 -71 -34 -104 -95 -104c-60 0 -94 33 -94 104v357h-155v-358c0 -149 96 -224 249 -224z" />
    <glyph glyph-name="_515" unicode="&#x3c6;" horiz-adv-x="796" 
d="M36 273c0 -188 79 -289 286 -291v-232h153v232c206 2 285 103 285 291c0 187 -79 291 -288 291h-150v-461c-90 0 -134 28 -134 170c0 106 26 145 80 160c-3 14 -21 109 -24 124c-153 -25 -208 -126 -208 -284zM608 273c0 -142 -43 -170 -133 -170v339
c90 0 133 -27 133 -169z" />
    <glyph glyph-name="_516" unicode="&#x3c7;" horiz-adv-x="579" 
d="M414 -250h165l-184 418l172 396h-163l-115 -286l-115 286h-163l172 -396l-183 -418h163l126 305z" />
    <glyph glyph-name="_517" unicode="&#x3c8;" horiz-adv-x="759" 
d="M455 -250v236c160 13 255 102 255 243v334h-152v-334c0 -70 -36 -116 -103 -122v456h-153v-456c-62 5 -102 54 -102 122v334h-153v-334c0 -141 96 -230 255 -243v-236h153z" />
    <glyph glyph-name="_518" unicode="&#x3c9;" horiz-adv-x="854" 
d="M350 452v-192c0 -114 -21 -157 -79 -157c-56 0 -77 43 -77 157c0 91 21 201 58 304h-157c-39 -105 -57 -208 -57 -303c0 -199 84 -279 216 -279c89 0 149 39 173 122c24 -83 84 -122 173 -122c133 0 216 80 216 279c0 95 -18 198 -57 303h-157c37 -103 58 -213 58 -304
c0 -114 -21 -157 -77 -157c-58 0 -79 43 -79 157v192h-154z" />
    <glyph glyph-name="_519" unicode="&#x2500;" 
d="M960 417h-960v-59h960v59z" />
    <glyph glyph-name="_520" unicode="&#x2502;" 
d="M451 888v-1000h59v1000h-59z" />
    <glyph glyph-name="_521" unicode="&#x250c;" 
d="M451 -112h59v470h450v59h-509v-529z" />
    <glyph glyph-name="_522" unicode="&#x2510;" 
d="M510 417h-510v-59h451v-470h59v529z" />
    <glyph glyph-name="_523" unicode="&#x2518;" 
d="M510 888h-59v-471h-451v-59h510v530z" />
    <glyph glyph-name="_524" unicode="&#x2514;" 
d="M451 358h509v59h-450v471h-59v-530z" />
    <glyph glyph-name="_525" unicode="&#x251c;" 
d="M451 888v-1000h59v470h450v59h-450v471h-59z" />
    <glyph glyph-name="_526" unicode="&#x252c;" 
d="M960 417h-960v-59h451v-470h59v470h450v59z" />
    <glyph glyph-name="_527" unicode="&#x2524;" 
d="M510 888h-59v-471h-451v-59h451v-470h59v1000z" />
    <glyph glyph-name="_528" unicode="&#x2534;" 
d="M960 358v59h-450v471h-59v-471h-451v-59h960z" />
    <glyph glyph-name="_529" unicode="&#x253c;" 
d="M451 888v-471h-451v-59h451v-470h59v470h450v59h-450v471h-59z" />
    <glyph glyph-name="_530" unicode="&#x2501;" 
d="M0 435v-94h960v94h-960z" />
    <glyph glyph-name="_531" unicode="&#x2503;" 
d="M433 888v-1000h94v1000h-94z" />
    <glyph glyph-name="_532" unicode="&#x250f;" 
d="M433 435v-547h94v453h433v94h-527z" />
    <glyph glyph-name="_533" unicode="&#x2513;" 
d="M0 435v-94h433v-453h94v547h-527z" />
    <glyph glyph-name="_534" unicode="&#x251b;" 
d="M433 888v-453h-433v-94h527v547h-94z" />
    <glyph glyph-name="_535" unicode="&#x2517;" 
d="M433 888v-547h527v94h-433v453h-94z" />
    <glyph glyph-name="_536" unicode="&#x2523;" 
d="M433 888v-1000h94v453h433v94h-433v453h-94z" />
    <glyph glyph-name="_537" unicode="&#x2533;" 
d="M0 341h433v-453h94v453h433v94h-960v-94z" />
    <glyph glyph-name="_538" unicode="&#x252b;" 
d="M0 341h433v-453h94v1000h-94v-453h-433v-94z" />
    <glyph glyph-name="_539" unicode="&#x253b;" 
d="M433 435h-433v-94h960v94h-433v453h-94v-453z" />
    <glyph glyph-name="_540" unicode="&#x254b;" 
d="M433 435h-433v-94h433v-453h94v453h433v94h-433v453h-94v-453z" />
    <glyph glyph-name="_541" unicode="&#x2520;" 
d="M960 405h-433v483h-94v-1000h94v481h433v36z" />
    <glyph glyph-name="_542" unicode="&#x252f;" 
d="M960 435h-960v-94h461v-453h37v453h462v94z" />
    <glyph glyph-name="_543" unicode="&#x2528;" 
d="M527 -112v1000h-94v-483h-433v-36h433v-481h94z" />
    <glyph glyph-name="_544" unicode="&#x2537;" 
d="M461 435h-461v-94h960v94h-462v453h-37v-453z" />
    <glyph glyph-name="_545" unicode="&#x253f;" 
d="M461 435h-461v-94h461v-453h37v453h462v94h-462v453h-37v-453z" />
    <glyph glyph-name="_546" unicode="&#x251d;" 
d="M960 435h-462v453h-37v-1000h37v453h462v94z" />
    <glyph glyph-name="_547" unicode="&#x2530;" 
d="M960 405h-960v-36h433v-481h94v481h433v36z" />
    <glyph glyph-name="_548" unicode="&#x2525;" 
d="M461 435h-461v-94h461v-453h37v1000h-37v-453z" />
    <glyph glyph-name="_549" unicode="&#x2538;" 
d="M433 405h-433v-36h960v36h-433v483h-94v-483z" />
    <glyph glyph-name="_550" unicode="&#x2542;" 
d="M433 405h-433v-36h433v-481h94v481h433v36h-433v483h-94v-483z" />
    <glyph glyph-name="_551" unicode="&#x2512;" 
d="M433 369v-481h94v517h-527v-36h433z" />
    <glyph glyph-name="_552" unicode="&#x2511;" 
d="M461 341v-453h37v547h-498v-94h461z" />
    <glyph glyph-name="_553" unicode="&#x251a;" 
d="M433 405h-433v-36h527v519h-94v-483z" />
    <glyph glyph-name="_554" unicode="&#x2519;" 
d="M461 435h-461v-94h498v547h-37v-453z" />
    <glyph glyph-name="_555" unicode="&#x2516;" 
d="M527 405v483h-94v-519h527v36h-433z" />
    <glyph glyph-name="_556" unicode="&#x2515;" 
d="M498 435v453h-37v-547h499v94h-462z" />
    <glyph glyph-name="_557" unicode="&#x250e;" 
d="M527 369h433v36h-527v-517h94v481z" />
    <glyph glyph-name="_558" unicode="&#x250d;" 
d="M461 435v-547h37v453h462v94h-499z" />
    <glyph glyph-name="_559" unicode="&#x251e;" 
d="M433 888v-519h28v-481h37v481h462v36h-433v483h-94z" />
    <glyph glyph-name="_560" unicode="&#x251f;" 
d="M461 888v-483h-28v-517h94v481h433v36h-462v483h-37z" />
    <glyph glyph-name="_561" unicode="&#x2521;" 
d="M461 -112h37v453h462v94h-433v453h-94v-547h28v-453z" />
    <glyph glyph-name="_562" unicode="&#x2522;" 
d="M433 -112h94v453h433v94h-462v453h-37v-453h-28v-547z" />
    <glyph glyph-name="_563" unicode="&#x2526;" 
d="M433 888v-483h-433v-36h461v-481h37v481h29v519h-94z" />
    <glyph glyph-name="_564" unicode="&#x2527;" 
d="M0 405v-36h433v-481h94v517h-29v483h-37v-483h-461z" />
    <glyph glyph-name="_565" unicode="&#x2529;" 
d="M0 341h461v-453h37v453h29v547h-94v-453h-433v-94z" />
    <glyph glyph-name="_566" unicode="&#x252a;" 
d="M0 341h433v-453h94v547h-29v453h-37v-453h-461v-94z" />
    <glyph glyph-name="_567" unicode="&#x252d;" 
d="M0 341h461v-453h37v481h462v36h-462v30h-498v-94z" />
    <glyph glyph-name="_568" unicode="&#x252e;" 
d="M0 369h461v-481h37v453h462v94h-499v-30h-461v-36z" />
    <glyph glyph-name="_569" unicode="&#x2531;" 
d="M0 341h433v-453h94v481h433v36h-433v30h-527v-94z" />
    <glyph glyph-name="_570" unicode="&#x2532;" 
d="M0 369h433v-481h94v453h433v94h-527v-30h-433v-36z" />
    <glyph glyph-name="_571" unicode="&#x2535;" 
d="M0 341h498v28h462v36h-462v483h-37v-453h-461v-94z" />
    <glyph glyph-name="_572" unicode="&#x2536;" 
d="M0 369h461v-28h499v94h-462v453h-37v-483h-461v-36z" />
    <glyph glyph-name="_573" unicode="&#x2539;" 
d="M0 341h527v28h433v36h-433v483h-94v-453h-433v-94z" />
    <glyph glyph-name="_574" unicode="&#x253a;" 
d="M0 369h433v-28h527v94h-433v453h-94v-483h-433v-36z" />
    <glyph glyph-name="_575" unicode="&#x253d;" 
d="M0 341h461v-453h37v481h462v36h-462v483h-37v-453h-461v-94z" />
    <glyph glyph-name="_576" unicode="&#x253e;" 
d="M498 888h-37v-483h-461v-36h461v-481h37v453h462v94h-462v453z" />
    <glyph glyph-name="_577" unicode="&#x2540;" 
d="M527 888h-94v-483h-433v-36h461v-481h37v481h462v36h-433v483z" />
    <glyph glyph-name="_578" unicode="&#x2541;" 
d="M498 888h-37v-483h-461v-36h433v-481h94v481h433v36h-462v483z" />
    <glyph glyph-name="_579" unicode="&#x2543;" 
d="M527 888h-94v-453h-433v-94h461v-453h37v453h29v28h433v36h-433v483z" />
    <glyph glyph-name="_580" unicode="&#x2544;" 
d="M498 -112v453h462v94h-433v453h-94v-483h-433v-36h433v-28h28v-453h37z" />
    <glyph glyph-name="_581" unicode="&#x2545;" 
d="M498 888h-37v-453h-461v-94h433v-453h94v481h433v36h-433v30h-29v453z" />
    <glyph glyph-name="_582" unicode="&#x2546;" 
d="M498 888h-37v-453h-28v-30h-433v-36h433v-481h94v452h433v95h-462v453z" />
    <glyph glyph-name="_583" unicode="&#x2547;" 
d="M527 888h-94v-453h-433v-94h461v-453h37v453h462v94h-433v453z" />
    <glyph glyph-name="_584" unicode="&#x2548;" 
d="M498 888h-37v-453h-461v-94h433v-453h94v453h433v94h-462v453z" />
    <glyph glyph-name="_585" unicode="&#x2549;" 
d="M527 888h-94v-453h-433v-94h433v-453h94v481h433v36h-433v483z" />
    <glyph glyph-name="_586" unicode="&#x254a;" 
d="M527 888h-94v-483h-433v-36h433v-481h94v453h433v94h-433v453z" />
    <glyph glyph-name="_587" unicode="&#x3395;" 
d="M201 563h-147v-813h147v251c12 -13 29 -19 51 -19c32 0 61 19 80 51v-37h147v208l22 -69c22 5 40 9 54 14c19 -110 86 -167 185 -167c103 0 168 60 187 163l-141 35c-8 -54 -24 -75 -44 -75c-27 0 -46 33 -46 106c135 81 218 208 218 372v9c0 130 -64 212 -182 212
s-182 -81 -182 -215v-303c-21 -8 -45 -17 -71 -24v301h-147v-322c0 -90 -32 -140 -77 -140c-35 0 -54 33 -54 103v359zM769 583c0 -90 -26 -159 -74 -207v210c0 59 11 90 37 90c24 0 37 -28 37 -81v-12z" />
    <glyph glyph-name="_588" unicode="&#x3396;" 
d="M362 316c0 91 16 140 43 140c17 0 26 -31 26 -97v-363h131v217l21 -78c12 3 26 9 37 13c17 -109 75 -166 162 -166c91 0 148 60 164 163l-128 36c-8 -54 -20 -76 -35 -76c-22 0 -35 32 -35 108c114 79 187 206 187 370v9c0 130 -56 212 -160 212
c-103 0 -160 -81 -160 -215v-305c-15 -7 -35 -14 -53 -21v92c0 144 -46 222 -129 222c-42 0 -76 -19 -99 -58c-20 38 -56 58 -100 58c-29 0 -59 -16 -77 -37v23h-124v-567h130v320c0 91 16 140 42 140c18 0 27 -31 27 -97v-363h130v320zM803 583c0 -87 -18 -151 -55 -198
v201c0 59 8 90 27 90c18 0 28 -28 28 -81v-12z" />
    <glyph glyph-name="_589" unicode="&#x3397;" 
d="M326 -4h141v227l28 -88c23 5 40 9 55 14c18 -110 85 -167 184 -167c104 0 169 60 187 163l-140 35c-8 -54 -25 -75 -44 -75c-29 0 -44 32 -47 106c135 81 219 208 219 372v9c0 130 -65 212 -182 212c-118 0 -183 -81 -183 -215v-303c-22 -9 -48 -19 -77 -26v530h-142
v-259c-23 30 -57 46 -101 46c-107 0 -174 -96 -174 -297c0 -202 67 -298 174 -298c42 0 80 18 102 48v-34zM258 101c-49 0 -66 59 -66 179c0 118 17 176 66 176c50 0 67 -58 67 -176c0 -120 -17 -179 -67 -179zM764 583c0 -90 -27 -159 -75 -207v210c0 58 13 90 38 90
c22 0 37 -29 37 -81v-12z" />
    <glyph glyph-name="_590" unicode="&#x2113;" horiz-adv-x="599" 
d="M349 -16c119 0 195 61 221 165l-148 30c-10 -51 -37 -72 -69 -72c-47 0 -72 29 -72 102c172 80 273 205 273 374v9c0 129 -75 211 -214 211c-137 0 -213 -80 -213 -213v-299c-36 -12 -75 -22 -114 -31l47 -122c25 5 49 10 72 17c23 -118 105 -171 217 -171zM281 592
c0 57 20 83 60 83c38 0 58 -27 58 -80v-12c0 -101 -43 -170 -118 -221v230z" />
    <glyph glyph-name="_591" unicode="&#x3398;" 
d="M83 -4h146v235h14l115 -235h154l-147 295l128 272h-152l-97 -212h-15v439h-146v-794zM732 105c-30 0 -44 34 -47 107c135 80 218 206 218 371v9c0 130 -64 212 -182 212s-183 -81 -183 -215v-303c-24 -10 -55 -21 -88 -29l38 -123c21 6 39 10 55 15
c19 -110 86 -167 186 -167c103 0 168 60 187 163l-140 35c-9 -54 -25 -75 -44 -75zM759 583c0 -90 -27 -159 -75 -207v210c0 57 11 90 37 90c22 0 38 -28 38 -81v-12z" />
    <glyph glyph-name="_592" unicode="&#x33c4;" 
d="M45 280c0 -191 70 -298 212 -298c125 0 199 76 207 210h-145c-4 -57 -25 -89 -62 -89c-49 0 -66 59 -66 177c0 115 16 176 66 176c37 0 58 -33 62 -89h145c-8 134 -82 211 -207 211c-142 0 -212 -109 -212 -298zM501 280c0 -191 70 -298 212 -298c125 0 199 76 207 210
h-146c-4 -57 -24 -89 -61 -89c-49 0 -67 59 -67 177c0 115 17 176 67 176c37 0 57 -33 61 -89h146c-8 134 -82 211 -207 211c-142 0 -212 -109 -212 -298z" />
    <glyph glyph-name="_593" unicode="&#x33a3;" 
d="M742 679c0 -51 41 -84 101 -84c61 0 101 32 101 82c0 27 -11 48 -31 60c16 12 24 30 24 52c0 44 -34 78 -94 78c-61 0 -94 -32 -94 -77v-11h79c0 18 6 22 14 22s13 -8 13 -20s-7 -15 -16 -15h-35v-62h35c16 0 25 -7 25 -24c0 -15 -8 -23 -21 -23c-14 0 -20 11 -20 33h-81
v-11zM301 316c0 93 11 140 30 140c13 0 18 -29 18 -97v-363h111v359c0 144 -38 222 -106 222c-33 0 -61 -17 -79 -50c-18 31 -47 50 -79 50c-25 0 -49 -12 -64 -29v15h-101v-567h111v320c0 93 11 140 31 140c13 0 17 -29 17 -97v-363h111v320zM770 316c0 93 10 140 30 140
c13 0 18 -29 18 -97v-363h110v359c0 144 -37 222 -105 222c-34 0 -61 -17 -80 -50c-17 31 -46 50 -78 50c-25 0 -49 -12 -64 -29v15h-101v-567h111v320c0 93 11 140 30 140c14 0 18 -29 18 -97v-363h111v320z" />
    <glyph glyph-name="_594" unicode="&#x33a4;" 
d="M738 316c0 91 14 140 40 140c16 0 23 -31 23 -97v-363h124v359c0 144 -44 222 -122 222c-40 0 -73 -17 -94 -57c-19 37 -52 57 -93 57c-30 0 -59 -16 -75 -34v20h-113v-567h122v320c0 91 15 140 40 140c17 0 25 -31 25 -97v-363h123v320zM23 280c0 -191 61 -298 192 -298
c116 0 181 77 188 210h-134c-3 -57 -21 -89 -54 -89c-43 0 -58 58 -58 177c0 114 14 175 58 175c33 0 51 -33 54 -88h134c-7 134 -72 210 -188 210c-131 0 -192 -108 -192 -297zM742 679c0 -51 41 -84 101 -84c61 0 101 32 101 82c0 27 -11 48 -31 60c16 12 24 30 24 52
c0 44 -34 78 -94 78c-61 0 -94 -32 -94 -77v-11h79c0 18 6 22 14 22s13 -8 13 -20s-7 -15 -16 -15h-35v-62h35c16 0 25 -7 25 -24c0 -15 -8 -23 -21 -23c-14 0 -20 11 -20 33h-81v-11z" />
    <glyph glyph-name="_595" unicode="&#x33a5;" 
d="M549 316c0 91 42 140 107 140c51 0 78 -31 78 -97v-363h156v359c0 144 -67 222 -186 222c-79 0 -139 -36 -172 -110c-26 72 -87 110 -168 110s-134 -43 -155 -108v94h-155v-567h155v320c0 91 41 140 107 140c52 0 78 -31 78 -97v-363h155v320zM742 679
c0 -51 41 -84 101 -84c61 0 101 32 101 82c0 27 -11 48 -31 60c16 12 24 30 24 52c0 44 -34 78 -94 78c-61 0 -94 -32 -94 -77v-11h79c0 18 6 22 14 22s13 -8 13 -20s-7 -15 -16 -15h-35v-62h35c16 0 25 -7 25 -24c0 -15 -8 -23 -21 -23c-14 0 -20 11 -20 33h-81v-11z" />
    <glyph glyph-name="_596" unicode="&#x33a6;" 
d="M33 -4h134v237h13l95 -237h143l-125 295l107 272h-141l-78 -214h-14v441h-134v-794zM733 316c0 91 13 140 40 140c16 0 23 -31 23 -97v-363h124v359c0 144 -44 222 -122 222c-40 0 -73 -17 -94 -57c-19 37 -52 57 -93 57c-31 0 -60 -16 -76 -35v21h-112v-567h122v320
c0 91 14 140 40 140c17 0 24 -31 24 -97v-363h124v320zM742 679c0 -51 41 -84 101 -84c61 0 101 32 101 82c0 27 -11 48 -31 60c16 12 24 30 24 52c0 44 -34 78 -94 78c-61 0 -94 -32 -94 -77v-11h79c0 18 6 22 14 22s13 -8 13 -20s-7 -15 -16 -15h-35v-62h35
c16 0 25 -7 25 -24c0 -15 -8 -23 -21 -23c-14 0 -20 11 -20 33h-81v-11z" />
    <glyph glyph-name="_597" unicode="&#x3399;" 
d="M353 677v114c-24 6 -49 7 -75 7c-122 0 -179 -45 -179 -163v-72h-68v-121h68v-446h142v446h112v121h-112v49c0 46 13 65 58 65h54zM707 316c0 91 14 140 40 140c16 0 23 -31 23 -97v-363h129v359c0 144 -46 222 -126 222c-41 0 -75 -17 -96 -57c-20 37 -54 57 -96 57
c-32 0 -62 -16 -79 -35v21h-115v-567h128v320c0 91 14 140 39 140c17 0 24 -31 24 -97v-363h129v320z" />
    <glyph glyph-name="_598" unicode="&#x339a;" 
d="M392 355c0 145 -49 222 -140 222c-41 0 -73 -18 -94 -50v36h-131v-567h131v320c0 91 24 140 61 140c28 0 41 -33 41 -103v-357h132v359zM745 316c0 91 14 140 40 140c17 0 24 -31 24 -97v-363h123v359c0 144 -44 222 -121 222c-40 0 -73 -17 -94 -57
c-20 37 -53 57 -93 57c-31 0 -60 -16 -76 -34v20h-113v-567h123v320c0 91 14 140 40 140c17 0 24 -31 24 -97v-363h123v320z" />
    <glyph glyph-name="_599" unicode="&#x339b;" 
d="M156 563h-129v-813h129v251c10 -12 23 -19 40 -19c27 0 50 19 66 46v-32h127v567h-130v-304c0 -97 -24 -158 -61 -158c-28 0 -42 33 -42 103v359zM745 316c0 91 14 140 40 140c17 0 24 -31 24 -97v-363h123v359c0 144 -44 222 -121 222c-40 0 -73 -17 -94 -57
c-20 37 -53 57 -93 57c-31 0 -60 -16 -76 -34v20h-113v-567h123v320c0 91 14 140 40 140c17 0 24 -31 24 -97v-363h123v320z" />
    <glyph glyph-name="_600" unicode="&#x339c;" 
d="M301 316c0 93 11 140 30 140c13 0 18 -29 18 -97v-363h111v359c0 144 -38 222 -106 222c-33 0 -61 -17 -79 -50c-18 31 -47 50 -79 50c-25 0 -49 -12 -64 -29v15h-101v-567h111v320c0 93 11 140 31 140c13 0 17 -29 17 -97v-363h111v320zM770 316c0 93 10 140 30 140
c13 0 18 -29 18 -97v-363h110v359c0 144 -37 222 -105 222c-34 0 -61 -17 -80 -50c-17 31 -46 50 -78 50c-25 0 -49 -12 -64 -29v15h-101v-567h111v320c0 93 11 140 30 140c14 0 18 -29 18 -97v-363h111v320z" />
    <glyph glyph-name="_601" unicode="&#x339d;" 
d="M739 316c0 91 13 140 40 140c16 0 23 -31 23 -97v-363h124v359c0 144 -44 222 -122 222c-40 0 -73 -17 -94 -57c-19 37 -52 57 -93 57c-30 0 -60 -16 -76 -34v20h-112v-567h122v320c0 91 15 140 40 140c17 0 24 -31 24 -97v-363h124v320zM24 280c0 -191 61 -298 192 -298
c116 0 181 77 188 210h-134c-3 -57 -22 -89 -54 -89c-43 0 -58 58 -58 177c0 114 14 175 58 175c33 0 51 -33 54 -88h134c-7 134 -72 210 -188 210c-131 0 -192 -108 -192 -297z" />
    <glyph glyph-name="_602" unicode="&#x339e;" 
d="M38 -4h135v237h12l96 -237h143l-125 295l106 272h-140l-79 -214h-13v441h-135v-794zM738 316c0 91 14 140 40 140c17 0 24 -31 24 -97v-363h123v359c0 144 -44 222 -121 222c-40 0 -73 -17 -94 -57c-20 37 -53 57 -93 57c-31 0 -60 -16 -76 -35v21h-113v-567h123v320
c0 91 14 140 40 140c17 0 24 -31 24 -97v-363h123v320z" />
    <glyph glyph-name="_603" unicode="&#x339f;" 
d="M301 316c0 93 11 140 30 140c13 0 18 -29 18 -97v-363h111v359c0 144 -38 222 -106 222c-33 0 -61 -17 -79 -50c-18 31 -47 50 -79 50c-25 0 -49 -12 -64 -29v15h-101v-567h111v320c0 93 11 140 31 140c13 0 17 -29 17 -97v-363h111v320zM770 316c0 93 10 140 30 140
c13 0 18 -29 18 -97v-363h110v359c0 144 -37 222 -105 222c-34 0 -61 -17 -80 -50c-17 31 -46 50 -78 50c-25 0 -49 -12 -64 -29v15h-101v-567h111v320c0 93 11 140 30 140c14 0 18 -29 18 -97v-363h111v320zM938 783c0 46 -34 84 -98 84c-63 0 -97 -38 -97 -84v-20h81v19
c0 14 6 20 17 20c10 0 16 -9 16 -20s-12 -30 -30 -49l-80 -83v-51h194v63h-84l51 54c22 24 30 40 30 67z" />
    <glyph glyph-name="_604" unicode="&#x33a0;" 
d="M738 316c0 91 14 140 40 140c16 0 23 -31 23 -97v-363h124v359c0 144 -44 222 -122 222c-40 0 -73 -17 -94 -57c-19 37 -52 57 -93 57c-30 0 -59 -16 -75 -34v20h-113v-567h122v320c0 91 15 140 40 140c17 0 25 -31 25 -97v-363h123v320zM23 280c0 -191 61 -298 192 -298
c116 0 181 77 188 210h-134c-3 -57 -21 -89 -54 -89c-43 0 -58 58 -58 177c0 114 14 175 58 175c33 0 51 -33 54 -88h134c-7 134 -72 210 -188 210c-131 0 -192 -108 -192 -297zM938 783c0 46 -34 84 -98 84c-63 0 -97 -38 -97 -84v-20h81v19c0 14 6 20 17 20
c10 0 16 -9 16 -20s-12 -30 -30 -49l-80 -83v-51h194v63h-84l51 54c22 24 30 40 30 67z" />
    <glyph glyph-name="_605" unicode="&#x33a1;" 
d="M549 316c0 91 42 140 107 140c51 0 78 -31 78 -97v-363h156v359c0 144 -67 222 -186 222c-79 0 -139 -36 -172 -110c-26 72 -87 110 -168 110s-134 -43 -155 -108v94h-155v-567h155v320c0 91 41 140 107 140c52 0 78 -31 78 -97v-363h155v320zM938 783
c0 46 -34 84 -98 84c-63 0 -97 -38 -97 -84v-20h81v19c0 14 6 20 17 20c10 0 16 -9 16 -20s-12 -30 -30 -49l-80 -83v-51h194v63h-84l51 54c22 24 30 40 30 67z" />
    <glyph glyph-name="_606" unicode="&#x33a2;" 
d="M33 -4h134v237h12l96 -237h143l-125 295l107 272h-141l-79 -214h-13v441h-134v-794zM733 316c0 91 13 140 40 140c16 0 23 -31 23 -97v-363h124v359c0 144 -44 222 -122 222c-40 0 -73 -17 -94 -57c-19 37 -52 57 -93 57c-31 0 -60 -16 -76 -35v21h-112v-567h122v320
c0 91 14 140 40 140c17 0 24 -31 24 -97v-363h124v320zM938 783c0 46 -34 84 -98 84c-63 0 -97 -38 -97 -84v-20h81v19c0 14 6 20 17 20c10 0 16 -9 16 -20s-12 -30 -30 -49l-80 -83v-51h194v63h-84l51 54c22 24 30 40 30 67z" />
    <glyph glyph-name="_607" unicode="&#x33ca;" 
d="M458 355c0 145 -56 222 -157 222c-43 0 -80 -18 -104 -46v32h-147v-567h147v320c0 91 28 140 68 140c30 0 45 -33 45 -103v-357h148v359zM770 -4h148c-6 18 -10 49 -10 82v288c0 125 -66 211 -198 211c-126 0 -192 -76 -197 -187h147c4 44 21 68 50 68
c35 0 52 -32 52 -91v-59c-25 22 -59 34 -101 34c-101 0 -165 -67 -165 -181c0 -113 65 -179 165 -179c46 0 82 18 104 41c1 -10 3 -19 5 -27zM702 88c-39 0 -59 25 -59 73c0 49 20 74 59 74c40 0 60 -25 60 -74c0 -48 -21 -73 -60 -73z" />
    <glyph glyph-name="_608" unicode="&#x338d;" 
d="M192 563h-144v-813h144v247c11 -9 27 -15 44 -15c29 0 56 16 73 41v-27h140v567h-145v-322c0 -90 -27 -140 -66 -140c-30 0 -46 33 -46 103v359zM766 280c0 -120 -16 -179 -64 -179c-49 0 -65 59 -65 179c0 118 16 176 65 176c48 0 64 -58 64 -176zM912 563h-146v-27
c-23 24 -59 41 -98 41c-108 0 -176 -96 -176 -297c0 -202 68 -298 176 -298c39 0 74 17 98 41v-62c0 -77 -17 -115 -55 -115c-29 0 -48 22 -51 68h-147c11 -112 79 -180 197 -180c142 0 202 104 202 238v591z" />
    <glyph glyph-name="_609" unicode="&#x338e;" 
d="M791 280c0 -120 -13 -179 -53 -179s-54 59 -54 179c0 118 14 176 54 176s53 -58 53 -176zM918 563h-127v-24c-20 23 -51 38 -82 38c-93 0 -151 -96 -151 -297c0 -202 58 -298 151 -298c31 0 62 16 82 38v-59c0 -77 -13 -115 -45 -115c-24 0 -39 22 -42 68h-128
c9 -111 68 -180 170 -180c121 0 172 104 172 238v591zM342 316c0 91 14 140 40 140c16 0 24 -31 24 -97v-363h123v359c0 144 -44 222 -121 222c-40 0 -73 -17 -94 -57c-20 37 -53 57 -94 57c-30 0 -59 -16 -75 -34v20h-113v-567h123v320c0 91 14 140 39 140
c17 0 25 -31 25 -97v-363h123v320z" />
    <glyph glyph-name="_610" unicode="&#x338f;" 
d="M744 280c0 -120 -16 -179 -64 -179c-49 0 -65 59 -65 179c0 118 16 176 65 176c48 0 64 -58 64 -176zM890 563h-146v-27c-23 24 -59 41 -98 41c-108 0 -176 -96 -176 -297c0 -202 68 -298 176 -298c39 0 75 17 98 41v-62c0 -77 -17 -115 -55 -115c-29 0 -48 22 -51 68
h-147c11 -112 80 -180 197 -180c142 0 202 104 202 238v591zM71 -4h146v237h14l114 -237h154l-147 295l128 272h-151l-98 -214h-14v441h-146v-794z" />
    <glyph glyph-name="_611" unicode="&#x33cf;" 
d="M82 -4h144v237h31l125 -237h155l-162 295l140 272h-151l-108 -214h-30v441h-144v-794zM760 442h128v121h-128v161h-145v-161h-71v-121h71v-279c0 -129 53 -175 186 -175c26 0 68 1 87 4v116h-55c-57 0 -73 15 -73 79v255z" />
    <glyph glyph-name="_612" unicode="&#x3388;" 
d="M23 280c0 -189 60 -298 181 -298c105 0 170 77 177 210h-126c-4 -57 -20 -89 -51 -89c-40 0 -55 58 -55 177c0 114 14 175 55 175c31 0 47 -33 51 -88h126c-7 134 -72 210 -177 210c-121 0 -181 -111 -181 -297zM637 -4h128c-6 19 -9 51 -9 82v288
c0 125 -56 211 -170 211c-107 0 -163 -76 -168 -187h127c3 44 17 68 41 68c30 0 43 -32 43 -91v-55c-21 19 -50 30 -83 30c-87 0 -143 -67 -143 -181c0 -113 56 -179 143 -179c38 0 67 14 87 36c1 -7 2 -16 4 -22zM580 88c-33 0 -50 25 -50 73c0 49 17 74 50 74
c32 0 49 -25 49 -74c0 -48 -17 -73 -49 -73zM928 -4v794h-127v-794h127z" />
    <glyph glyph-name="_613" unicode="&#x3389;" 
d="M34 -4h104v214l64 -214h108l-93 295l81 272h-106l-54 -200v427h-104v-794zM280 280c0 -195 41 -298 128 -298c76 0 123 75 126 210h-104c-1 -58 -9 -89 -22 -89c-18 0 -24 57 -24 177c0 116 6 175 24 175c13 0 21 -32 22 -88h104c-3 135 -50 210 -126 210
c-87 0 -128 -104 -128 -297zM705 -4h94c-4 19 -5 51 -5 82v288c0 129 -40 211 -121 211c-77 0 -118 -68 -120 -187h104c2 44 6 68 16 68c11 0 15 -32 15 -91v-38c-12 8 -25 13 -42 13c-62 0 -103 -67 -103 -181c0 -113 41 -179 103 -179c22 0 44 11 58 27c1 -4 1 -9 1 -13z
M669 88c-16 0 -22 25 -22 73c0 49 6 74 22 74c13 0 19 -25 19 -74c0 -48 -6 -73 -19 -73zM932 -4v794h-105v-794h105z" />
    <glyph glyph-name="_614" unicode="&#x33c8;" 
d="M295 -4h140v795h-140v-252c-22 23 -55 39 -93 39c-104 0 -167 -96 -167 -298c0 -203 63 -298 167 -298c36 0 71 17 93 39v-25zM295 280c0 -120 -16 -178 -60 -178c-45 0 -60 59 -60 178c0 118 15 176 60 176c44 0 60 -57 60 -176zM766 563c0 -72 -24 -95 -67 -95h-58v189
h58c43 0 67 -23 67 -94zM729 -4c133 0 198 79 198 230c0 90 -40 159 -107 184h2c55 27 89 83 89 164c0 143 -65 217 -193 217h-224v-795h235zM780 234c0 -76 -22 -105 -69 -105h-70v210h70c47 0 69 -29 69 -105z" />
    <glyph glyph-name="_615" unicode="&#x33a7;" 
d="M791 -18c90 0 145 76 145 178c0 86 -23 135 -76 161c-16 8 -37 15 -58 23c-31 12 -46 24 -46 66c0 30 8 55 29 55c20 0 29 -26 29 -57v-11h108v10c0 99 -49 170 -137 170c-87 0 -138 -74 -138 -174c0 -91 29 -136 92 -162c16 -7 34 -15 54 -21c25 -7 33 -29 33 -66
c0 -36 -11 -61 -35 -61c-22 0 -35 26 -35 62v15h-109c0 -112 46 -188 144 -188zM290 316c0 93 8 140 23 140c8 0 10 -29 10 -97v-363h113v359c0 144 -35 222 -102 222c-30 0 -56 -14 -72 -41c-17 27 -43 41 -73 41c-22 0 -44 -11 -56 -26v12h-100v-567h113v320
c0 93 7 140 22 140c8 0 10 -29 10 -97v-363h112v320zM571 792l-155 -1026h107l155 1026h-107z" />
    <glyph glyph-name="_616" unicode="&#x33a8;" 
d="M290 316c0 93 8 140 23 140c8 0 10 -29 10 -97v-363h113v359c0 144 -35 222 -102 222c-30 0 -56 -14 -72 -41c-17 27 -43 41 -73 41c-22 0 -44 -11 -56 -26v12h-100v-567h113v320c0 93 7 140 22 140c8 0 10 -29 10 -97v-363h112v320zM571 792l-155 -1026h107l155 1026
h-107zM938 783c0 46 -34 84 -98 84c-63 0 -97 -38 -97 -84v-20h81v19c0 14 6 20 17 20c10 0 16 -9 16 -20s-6 -22 -18 -35l-92 -97v-51h194v63h-84l51 54c22 24 30 40 30 67zM791 -18c90 0 145 76 145 178c0 86 -23 135 -76 161c-16 8 -37 15 -58 23c-31 12 -46 24 -46 66
c0 30 8 55 29 55c20 0 29 -26 29 -57v-11h108v10c0 99 -49 170 -137 170c-87 0 -138 -74 -138 -174c0 -91 29 -136 92 -162c16 -7 34 -15 54 -21c25 -7 33 -29 33 -66c0 -36 -11 -61 -35 -61c-22 0 -35 26 -35 62v15h-109c0 -112 46 -188 144 -188z" />
    <glyph glyph-name="_617" unicode="&#x33b0;" 
d="M201 563h-144v-813h144v278c24 -30 60 -46 104 -46c109 0 177 95 177 298c0 202 -68 297 -177 297c-44 0 -80 -15 -104 -45v31zM270 101c-51 0 -69 59 -69 179c0 118 19 176 69 176s67 -58 67 -176c0 -120 -17 -179 -67 -179zM525 170c0 -111 69 -188 193 -188
c121 0 194 76 194 178c0 79 -26 133 -90 158c-18 7 -38 14 -61 20c-53 13 -90 16 -90 72c0 30 13 55 39 55c24 0 39 -27 39 -57v-11h145v10c0 99 -66 170 -184 170c-116 0 -185 -74 -185 -174c0 -88 40 -140 125 -163c22 -6 48 -13 72 -19c29 -8 44 -31 44 -67
s-17 -61 -48 -61c-27 0 -47 27 -47 62v15h-146z" />
    <glyph glyph-name="_618" unicode="&#x33b1;" 
d="M469 355c0 145 -57 222 -159 222c-46 0 -83 -18 -107 -51v37h-146v-567h146v320c0 91 30 140 71 140c31 0 47 -33 47 -103v-357h148v359zM525 170c0 -111 69 -188 193 -188c121 0 194 76 194 178c0 79 -26 133 -90 158c-18 7 -38 14 -61 20c-53 13 -90 16 -90 72
c0 30 13 55 39 55c24 0 39 -27 39 -57v-11h145v10c0 99 -66 170 -184 170c-116 0 -185 -74 -185 -174c0 -88 40 -140 125 -163c22 -6 48 -13 72 -19c29 -8 44 -31 44 -67s-17 -61 -48 -61c-27 0 -47 27 -47 62v15h-146z" />
    <glyph glyph-name="_619" unicode="&#x33b2;" 
d="M206 563h-146v-813h146v248c11 -9 29 -16 47 -16c28 0 55 16 74 42v-28h145v567h-148v-322c0 -90 -28 -140 -69 -140c-32 0 -49 33 -49 103v359zM525 170c0 -111 69 -188 193 -188c121 0 194 76 194 178c0 79 -26 133 -90 158c-18 7 -38 14 -61 20c-53 13 -90 16 -90 72
c0 30 13 55 39 55c24 0 39 -27 39 -57v-11h145v10c0 99 -66 170 -184 170c-116 0 -185 -74 -185 -174c0 -88 40 -140 125 -163c22 -6 48 -13 72 -19c29 -8 44 -31 44 -67s-17 -61 -48 -61c-27 0 -47 27 -47 62v15h-146z" />
    <glyph glyph-name="_620" unicode="&#x33b3;" 
d="M563 170c0 -111 65 -188 186 -188c119 0 186 76 186 178s-45 154 -145 178c-11 3 -21 6 -31 8c-33 8 -56 20 -56 64c0 30 13 55 38 55c27 0 39 -25 39 -57v-11h138v10c0 99 -60 170 -176 170c-114 0 -178 -74 -178 -174c0 -94 44 -141 137 -169c11 -3 23 -6 36 -9
c37 -9 59 -24 59 -71c0 -36 -17 -61 -47 -61c-29 0 -47 24 -47 62v15h-139zM345 316c0 91 13 140 40 140c16 0 23 -31 23 -97v-363h123v359c0 144 -44 222 -121 222c-40 0 -73 -17 -94 -57c-19 37 -52 57 -93 57c-30 0 -60 -16 -76 -34v20h-112v-567h122v320
c0 91 14 140 40 140c17 0 24 -31 24 -97v-363h124v320z" />
    <glyph glyph-name="_621" unicode="&#x33b4;" 
d="M199 563h-143v-813h145v274c24 -28 57 -42 99 -42c109 0 176 95 176 298c0 202 -67 297 -176 297c-42 0 -77 -14 -101 -42v28zM266 101c-48 0 -65 59 -65 179c0 118 17 176 65 176s64 -58 64 -176c0 -120 -16 -179 -64 -179zM562 790h-155l189 -794h164l188 794h-154
l-116 -536z" />
    <glyph glyph-name="_622" unicode="&#x33b5;" 
d="M459 355c0 145 -56 222 -155 222c-44 0 -80 -17 -104 -48v34h-143v-567h146v320c0 91 27 140 66 140c30 0 44 -33 44 -103v-357h146v359zM562 790h-155l189 -794h164l188 794h-154l-116 -536z" />
    <glyph glyph-name="_623" unicode="&#x33b6;" 
d="M198 563h-145v-813h145v247c10 -9 26 -15 43 -15c29 0 55 17 73 43v-29h141v567h-146v-304c0 -98 -26 -158 -66 -158c-29 0 -45 33 -45 103v359zM569 790h-154l188 -794h164l189 794h-155l-116 -536z" />
    <glyph glyph-name="_624" unicode="&#x33b7;" 
d="M715 253l-101 537h-142l170 -794h147l170 794h-142zM348 316c0 91 14 140 40 140c16 0 24 -31 24 -97v-363h123v359c0 144 -44 222 -121 222c-40 0 -73 -17 -94 -57c-20 37 -53 57 -93 57c-31 0 -60 -16 -76 -34v20h-113v-567h123v320c0 91 14 140 39 140
c18 0 25 -31 25 -97v-363h123v320z" />
    <glyph glyph-name="_625" unicode="&#x33b8;" 
d="M71 -4h145v238h9l109 -238h152l-140 295l122 272h-150l-93 -216h-9v443h-145v-794zM569 790h-154l188 -794h164l189 794h-155l-116 -536z" />
    <glyph glyph-name="_626" unicode="&#x33b9;" 
d="M337 -4l62 315v-315h125v794h-129l-113 -532l-113 532h-129v-794h125v316l61 -316h111zM670 790h-132l138 -794h140l140 794h-133l-76 -496z" />
    <glyph glyph-name="_627" unicode="&#x3380;" 
d="M186 563h-140v-813h140v273c22 -25 56 -41 93 -41c104 0 168 95 168 298c0 202 -64 297 -168 297c-36 0 -71 -16 -93 -40v26zM246 101c-44 0 -60 59 -60 179c0 118 16 176 60 176c45 0 61 -58 61 -176c0 -120 -16 -179 -61 -179zM586 -4l31 153h156l31 -153h149l-179 794
h-158l-179 -794h149zM643 283l52 267l52 -267h-104z" />
    <glyph glyph-name="_628" unicode="&#x3381;" 
d="M426 355c0 145 -54 222 -148 222c-40 0 -73 -15 -95 -42v28h-140v-567h140v320c0 91 23 140 61 140c28 0 41 -33 41 -103v-357h141v359zM586 -4l31 153h156l31 -153h149l-179 794h-158l-179 -794h149zM643 283l52 267l52 -267h-104z" />
    <glyph glyph-name="_629" unicode="&#x3382;" 
d="M185 563h-140v-813h140v244c11 -8 23 -12 38 -12c24 0 50 15 67 36v-22h138v567h-140v-322c0 -90 -25 -140 -62 -140c-27 0 -41 33 -41 103v359zM586 -4l31 153h156l31 -153h149l-179 794h-158l-179 -794h149zM643 283l52 267l52 -267h-104z" />
    <glyph glyph-name="_630" unicode="&#x3383;" 
d="M693 283l42 266l42 -266h-84zM400 -4h244l26 153h129l27 -153h132l-153 794h-140l-142 -732v297c0 144 -44 222 -122 222c-40 0 -73 -17 -94 -57c-19 37 -52 57 -93 57c-30 0 -59 -16 -75 -34v20h-113v-567h122v320c0 91 15 140 40 140c17 0 25 -31 25 -97v-363h123v320
c0 91 14 140 40 140c16 0 24 -31 24 -97v-363z" />
    <glyph glyph-name="_631" unicode="&#x3384;" 
d="M630 283l54 268l53 -268h-107zM316 -4h257l31 153h160l31 -153h149l-181 794h-158l-168 -734l-104 235l113 272h-145l-85 -216h-11v443h-140v-794h140v239h10z" />
    <glyph glyph-name="_632" unicode="&#x33ba;" 
d="M599 790l-63 -501l-57 501h-123l110 -794h128l62 477l63 -477h128l110 794h-124l-56 -499l-61 499h-117zM161 563h-118v-813h123v263c18 -20 44 -31 73 -31c89 0 144 95 144 298c0 202 -55 297 -144 297c-31 0 -59 -11 -78 -32v18zM213 101c-35 0 -47 59 -47 179
c0 118 12 176 47 176s47 -58 47 -176c0 -120 -12 -179 -47 -179z" />
    <glyph glyph-name="_633" unicode="&#x33bb;" 
d="M366 355c0 145 -46 222 -127 222c-32 0 -65 -16 -84 -41v27h-116v-567h123v320c0 91 20 140 49 140c21 0 32 -33 32 -103v-357h123v359zM599 790l-63 -501l-57 501h-123l110 -794h128l62 477l63 -477h128l110 794h-124l-56 -499l-61 499h-117z" />
    <glyph glyph-name="_634" unicode="&#x33bc;" 
d="M162 563h-123v-813h123v244c7 -7 19 -12 32 -12c21 0 44 13 58 34v-20h114v567h-123v-304c0 -98 -19 -158 -49 -158c-21 0 -32 33 -32 103v359zM599 790l-63 -501l-57 501h-123l110 -794h128l62 477l63 -477h128l110 794h-124l-56 -499l-61 499h-117z" />
    <glyph glyph-name="_635" unicode="&#x33bd;" 
d="M300 316c0 91 8 140 27 140c11 0 14 -31 14 -97v-363h112v359c0 144 -34 222 -105 222c-32 0 -59 -17 -76 -46c-18 29 -45 46 -77 46c-21 0 -45 -11 -59 -26v12h-101v-567h111v320c0 91 9 140 27 140c12 0 15 -31 15 -97v-363h112v320zM640 790l-46 -454l-42 454h-117
l94 -794h118l48 403l46 -403h119l94 794h-117l-42 -454l-46 454h-109z" />
    <glyph glyph-name="_636" unicode="&#x33be;" 
d="M599 790l-63 -501l-57 501h-123l31 -227h-129l-79 -214h-13v441h-135v-794h135v237h13l95 -237h143l-125 295l98 252l76 -547h128l62 477l63 -477h128l110 794h-124l-56 -499l-61 499h-117z" />
    <glyph glyph-name="_637" unicode="&#x33bf;" 
d="M284 -4l43 279v-279h112v794h-112l-90 -512l-91 512h-113v-794h113v281l43 -281h95zM647 790l-41 -453l-40 453h-114l89 -794h113l46 423l47 -423h113l89 794h-115l-39 -450l-41 450h-107z" />
    <glyph glyph-name="_638" unicode="&#x3390;" 
d="M366 -4h145v794h-145v-319h-156v319h-145v-794h145v338h156v-338zM915 563h-346v-121h181l-187 -340v-106h358v120h-194l188 340v107z" />
    <glyph glyph-name="_639" unicode="&#x3391;" 
d="M933 563h-254v-121h121l-125 -343v-103h262v120h-130l126 343v104zM216 -4h243v338h72v-338h120v794h-120v-319h-72v319h-121v-785l-95 286l85 272h-122l-52 -195v422h-121v-794h121v214z" />
    <glyph glyph-name="_640" unicode="&#x3392;" 
d="M244 -4l29 257v-257h101v794h-98l-75 -480l-75 480h-98v-794h101v257l29 -257h86zM570 -4h114v794h-114v-319h-42v319h-116v-794h116v338h42v-338zM936 563h-224v-121h99l-102 -343v-103h230v120h-106l103 343v104z" />
    <glyph glyph-name="_641" unicode="&#x3393;" 
d="M17 393c0 -228 41 -411 160 -411c32 0 60 20 78 46l3 -32h91v421h-179v-124h69c-2 -101 -19 -174 -53 -174c-39 0 -56 59 -56 274c0 217 18 273 55 273c31 0 49 -56 51 -148h113c-3 172 -62 286 -164 286c-131 0 -168 -187 -168 -411zM564 -4h113v794h-113v-319h-74v319
h-113v-794h113v338h74v-338zM940 563h-240v-121h115l-118 -341v-105h247v120h-123l119 340v107z" />
    <glyph glyph-name="_642" unicode="&#x3394;" 
d="M535 -4h120v794h-120v-319h-69v319h-121v-794h121v338h69v-338zM929 563h-249v-121h119l-122 -342v-104h256v120h-127l123 341v106zM11 653h90v-657h128v657h90v137h-308v-137z" />
    <glyph glyph-name="_643" unicode="&#x2126;" horiz-adv-x="723" 
d="M361 803c-111 0 -192 -39 -243 -107c-57 -76 -75 -177 -75 -276c0 -142 49 -238 132 -285h-118v-137h272v137c-81 33 -122 111 -122 259c0 116 12 174 40 216c24 36 63 55 114 55c52 0 90 -19 114 -55c28 -43 40 -100 40 -216c0 -148 -41 -226 -121 -259v-137h272v137
h-119c84 47 132 143 132 285c0 99 -18 200 -74 276c-51 68 -132 107 -244 107z" />
    <glyph glyph-name="_644" unicode="&#x33c0;" 
d="M61 -4h137v225h4l96 -225h144l-129 295l113 272h-143l-83 -213h-2v440h-137v-794zM678 666c78 0 89 -113 89 -273c0 -154 -23 -228 -73 -265v-132h209v136h-86c58 49 94 147 94 287c0 210 -41 385 -233 385s-234 -176 -234 -385c0 -140 37 -238 95 -287h-86v-136h209v132
c-51 37 -73 111 -73 265c0 159 9 273 89 273z" />
    <glyph glyph-name="_645" unicode="&#x33c1;" 
d="M325 -4l56 323v-323h128v795h-129l-111 -534l-110 534h-129v-795h128v324l56 -324h111zM737 666c13 0 23 -5 31 -14c29 -33 34 -123 34 -258c0 -153 -12 -230 -55 -265v-133h179v137h-72c45 48 79 149 79 286c0 175 -25 291 -86 347c-28 26 -64 39 -110 39
c-45 0 -81 -13 -109 -39c-61 -56 -86 -172 -86 -347c0 -137 33 -238 79 -286h-72v-137h178v133c-42 35 -55 112 -55 265c0 135 6 225 35 258c8 9 18 14 30 14z" />
    <glyph glyph-name="_646" unicode="&#x338a;" 
d="M198 564h-144v-814h144v286c23 -35 61 -54 111 -54c112 0 182 95 182 298c0 202 -70 298 -182 298c-48 0 -87 -22 -111 -54v40zM198 280c0 119 19 176 75 176c54 0 74 -57 74 -176c0 -120 -20 -178 -74 -178c-56 0 -75 59 -75 178zM527 -4h152v327h225v137h-225v193h253
v138h-405v-795z" />
    <glyph glyph-name="_647" unicode="&#x338b;" 
d="M464 355c0 146 -57 223 -160 223c-51 0 -90 -23 -114 -59v45h-144v-568h144v320c0 91 31 140 77 140c34 0 53 -32 53 -103v-357h144v359zM527 -4h152v327h225v137h-225v193h253v138h-405v-795z" />
    <glyph glyph-name="_648" unicode="&#x338c;" 
d="M191 563h-144v-813h144v252c11 -12 29 -20 49 -20c31 0 63 23 83 53v-39h141v567h-144v-322c0 -90 -31 -140 -76 -140c-35 0 -53 33 -53 103v359zM526 -4h152v327h226v136h-226v194h253v137h-405v-794z" />
    <glyph glyph-name="_649" unicode="&#x33d6;" 
d="M305 316c0 91 12 140 35 140c15 0 21 -31 21 -97v-363h113v359c0 144 -36 222 -111 222c-36 0 -64 -18 -83 -57c-18 41 -47 57 -85 57c-24 0 -52 -13 -67 -32v18h-105v-567h114v320c0 91 11 140 34 140c15 0 21 -31 21 -97v-363h113v320zM793 280c0 186 -34 297 -148 297
c-113 0 -148 -111 -148 -297c0 -189 35 -298 148 -298c114 0 148 109 148 298zM611 280c0 116 3 175 34 175c30 0 34 -58 34 -175c0 -119 -4 -177 -34 -177c-31 0 -34 58 -34 177zM929 -4v794h-115v-794h115z" />
    <glyph glyph-name="_650" unicode="&#x33c5;" 
d="M40 280c0 -188 69 -298 209 -298c122 0 197 76 205 210h-145c-4 -57 -24 -89 -60 -89c-47 0 -63 59 -63 177c0 115 15 176 63 176c36 0 56 -33 60 -89h145c-8 134 -83 211 -205 211c-140 0 -209 -112 -209 -298zM764 -4h144v795h-147v-254c-23 26 -57 41 -98 41
c-109 0 -176 -96 -176 -298c0 -203 67 -298 176 -298c42 0 78 16 101 43v-29zM761 280c0 -120 -16 -178 -64 -178s-64 59 -64 178c0 118 16 176 64 176s64 -57 64 -176z" />
    <glyph glyph-name="_651" unicode="&#x33ad;" 
d="M473 -4h117c-4 18 -7 49 -7 82v288c0 126 -49 211 -152 211c-97 0 -146 -75 -150 -187h121c2 44 11 68 29 68c22 0 32 -32 32 -91v-47c-18 14 -41 22 -67 22c-78 0 -128 -67 -128 -181c0 -113 51 -179 128 -179c31 0 57 14 73 33c1 -7 2 -14 4 -19zM426 88
c-25 0 -38 25 -38 73c0 49 13 74 38 74s37 -25 37 -74c0 -48 -12 -73 -37 -73zM816 -4h118v794h-121v-240c-16 18 -39 27 -68 27c-84 0 -136 -96 -136 -297c0 -202 52 -298 136 -298c30 0 55 14 71 33v-19zM771 101c-31 0 -42 59 -42 179c0 118 11 176 42 176
c32 0 42 -58 42 -176c0 -120 -10 -179 -42 -179zM239 448c13 0 28 -1 39 -3l1 125c-12 5 -25 7 -37 7c-46 0 -79 -25 -95 -67v53h-121v-567h121v283c0 111 33 169 92 169z" />
    <glyph glyph-name="_652" unicode="&#x33ae;" 
d="M623 65c0 -70 54 -112 148 -112c92 0 148 43 148 101c0 60 -34 85 -116 100c-7 1 -14 2 -22 3c-35 6 -51 8 -51 20c0 10 11 17 34 17c25 0 35 -8 35 -17v-8h107c0 61 -47 104 -141 104c-89 0 -141 -42 -141 -98c0 -57 38 -83 116 -96c8 -1 15 -2 24 -4
c33 -6 49 -8 49 -23c0 -12 -15 -20 -42 -20c-25 0 -42 7 -42 19v14h-106zM396 397h103c-6 15 -10 33 -10 49v145c0 69 -41 115 -127 115c-81 0 -122 -36 -126 -103h105c1 17 8 25 22 25c15 0 21 -12 21 -37v-11c-14 5 -33 8 -50 8c-65 0 -108 -37 -108 -99
c0 -63 44 -99 108 -99c22 0 45 7 60 18c1 -4 1 -8 2 -11zM358 462c-17 0 -27 9 -27 27s10 27 27 27s26 -9 26 -27s-9 -27 -26 -27zM671 397h99l-730 -297l34 -76l857 352l-31 74l-127 -52v414h-106v-117c-14 8 -30 11 -51 11c-70 0 -114 -51 -114 -158
c0 -108 44 -158 114 -158c21 0 40 6 55 15v-8zM637 468c-22 0 -29 26 -29 80c0 53 7 79 29 79c23 0 30 -26 30 -79c0 -54 -7 -80 -30 -80zM198 622c10 0 20 0 34 -1l1 81c-11 3 -23 4 -33 4c-30 0 -55 -11 -70 -29v22h-106v-302h106v151c0 49 24 74 68 74z" />
    <glyph glyph-name="_653" unicode="&#x33af;" 
d="M955 297c0 32 -23 55 -65 55c-43 0 -67 -23 -67 -55v-10h58v9c0 7 3 11 8 11c6 0 8 -4 8 -11s-6 -19 -17 -29l-54 -53v-11c-18 38 -62 62 -132 62c-89 0 -141 -42 -141 -98c0 -57 38 -83 116 -96c8 -1 15 -2 24 -4c33 -6 49 -8 49 -23c0 -12 -15 -20 -42 -20
c-25 0 -42 7 -42 19v14h-106c0 -70 54 -112 148 -112c92 0 148 43 148 101c0 60 -34 85 -116 100c-7 1 -14 2 -22 3c-35 6 -51 8 -51 20c0 10 11 17 34 17c25 0 35 -8 35 -17v-8h107c0 6 0 11 -1 17h123v45h-50l35 38c9 10 13 23 13 36zM388 397h103c-7 15 -11 33 -11 49
v145c0 69 -40 115 -126 115c-81 0 -123 -36 -127 -103h105c1 17 8 25 22 25c15 0 21 -12 21 -37v-11c-13 5 -32 8 -50 8c-65 0 -108 -37 -108 -99c0 -63 44 -99 108 -99c22 0 45 7 60 18c1 -4 2 -8 3 -11zM349 462c-17 0 -26 9 -26 27s8 27 26 27c17 0 26 -9 26 -27
s-9 -27 -26 -27zM662 397h55l-690 -280l33 -75l851 349l-31 72l-116 -47v396h-106v-117c-13 8 -30 11 -51 11c-70 0 -114 -51 -114 -158c0 -108 44 -158 114 -158c21 0 40 6 55 15v-8zM629 468c-23 0 -30 26 -30 80c0 53 7 79 30 79c22 0 29 -26 29 -79
c0 -54 -7 -80 -29 -80zM189 622c10 0 20 0 35 -1l1 81c-11 3 -23 4 -34 4c-30 0 -55 -11 -70 -29v22h-106v-302h106v151c0 49 25 74 68 74z" />
    <glyph glyph-name="_654" unicode="&#x33db;" 
d="M95 170c0 -111 73 -188 202 -188c125 0 201 76 201 178s-46 154 -158 178c-51 11 -100 20 -100 72c0 30 16 55 48 55c31 0 48 -28 48 -57v-11h143v10c0 99 -69 170 -191 170s-192 -74 -192 -174c0 -105 77 -163 206 -182c33 -5 48 -28 48 -58c0 -41 -13 -70 -53 -70
c-34 0 -58 27 -58 62v15h-144zM822 448c18 0 35 -1 45 -2l1 125c-12 4 -27 6 -43 6c-67 0 -107 -28 -128 -88v74h-145v-567h145v283c0 111 46 169 125 169z" />
    <glyph glyph-name="_655" unicode="&#x33a9;" 
d="M299 278c129 0 204 92 204 256c0 163 -75 256 -204 256h-239v-794h146v282h93zM206 415v238h76c49 0 75 -41 75 -119s-26 -119 -75 -119h-76zM775 -4h139c-6 19 -9 51 -9 82v288c0 125 -64 211 -192 211c-123 0 -186 -76 -191 -187h139c3 44 21 68 52 68
c36 0 52 -32 52 -91v-61c-23 23 -59 36 -99 36c-99 0 -162 -67 -162 -181c0 -113 64 -179 162 -179c45 0 81 18 102 42c2 -10 4 -20 7 -28zM705 88c-40 0 -62 25 -62 73c0 49 22 74 62 74s60 -25 60 -74c0 -48 -20 -73 -60 -73z" />
    <glyph glyph-name="_656" unicode="&#x33aa;" 
d="M504 278c92 0 146 92 146 256c0 163 -54 256 -146 256h-161v-794h119v282h42zM462 415v238h31c26 0 39 -41 39 -119s-13 -119 -39 -119h-31zM822 -4h112c-4 19 -6 51 -6 82v288c0 125 -47 211 -139 211c-89 0 -134 -76 -138 -187h114c2 44 10 68 24 68
c18 0 26 -32 26 -91v-42c-15 12 -34 17 -57 17c-72 0 -118 -64 -118 -181c0 -115 46 -179 118 -179c26 0 49 12 61 28c1 -4 2 -10 3 -14zM784 88c-20 0 -30 25 -30 73c0 49 10 74 30 74s31 -25 31 -74c0 -48 -11 -73 -31 -73zM35 -4h119v212l65 -212h122l-97 295l86 272
h-121l-55 -207v434h-119v-794z" />
    <glyph glyph-name="_657" unicode="&#x33ab;" 
d="M559 278c79 0 127 92 127 256c0 163 -48 256 -127 256h-141v-794h107v282h34zM525 415v238h23c22 0 31 -43 31 -119c0 -78 -10 -119 -31 -119h-23zM839 -4h101c-4 19 -6 51 -6 82v288c0 125 -41 211 -122 211c-78 0 -118 -76 -121 -187h103c2 44 8 68 18 68
c14 0 20 -32 20 -91v-38c-12 10 -27 13 -46 13c-64 0 -104 -64 -104 -181c0 -115 41 -179 104 -179c21 0 40 9 52 24c0 -3 1 -7 1 -10zM808 88c-15 0 -24 25 -24 73c0 49 9 74 24 74c16 0 24 -25 24 -74c0 -48 -8 -73 -24 -73zM242 -4l36 280v-280h96v794h-97l-76 -508
l-77 508h-98v-794h98v282l36 -282h82z" />
    <glyph glyph-name="_658" unicode="&#x33ac;" 
d="M540 278c83 0 132 92 132 256c0 163 -49 256 -132 256h-146v-794h109v282h37zM503 415v238h26c23 0 34 -43 34 -119c0 -78 -11 -119 -34 -119h-26zM835 -4h103c-4 19 -5 51 -5 82v288c0 125 -40 211 -127 211c-82 0 -122 -76 -126 -187h106c2 44 8 68 20 68
c15 0 22 -32 22 -91v-40c-13 11 -29 15 -50 15c-65 0 -107 -64 -107 -181c0 -115 42 -179 107 -179c23 0 43 11 55 25c0 -4 1 -7 2 -11zM802 88c-18 0 -26 25 -26 73c0 49 8 74 26 74s26 -25 26 -74c0 -48 -8 -73 -26 -73zM25 393c0 -236 42 -411 161 -411c32 0 60 20 78 46
l3 -32h91v421h-178v-124h68c-2 -101 -18 -174 -53 -174c-39 0 -55 59 -55 274c0 217 17 273 54 273c32 0 50 -56 51 -148h113c-3 172 -62 286 -164 286c-131 0 -169 -179 -169 -411z" />
    <glyph glyph-name="_659" unicode="&#x33dd;" 
d="M682 34c20 -31 54 -52 94 -52c96 0 156 95 156 298c0 202 -60 297 -156 297c-41 0 -74 -20 -94 -53v266h-124v-794h124v38zM745 101c-47 0 -63 59 -63 179c0 118 16 176 63 176c48 0 65 -58 65 -176c0 -120 -17 -179 -65 -179zM213 790l-47 -455l-42 455h-119l96 -794
h120l48 403l48 -403h120l96 794h-119l-43 -455l-46 455h-112z" />
    <glyph glyph-name="_660" unicode="&#x33d0;" 
d="M661 316c0 91 20 140 58 140c26 0 38 -31 38 -97v-363h144v359c0 144 -54 222 -149 222c-51 0 -93 -24 -119 -70c-24 45 -73 70 -120 70c-39 0 -76 -18 -98 -45v31h-137v-567h143v320c0 91 21 140 58 140c27 0 38 -31 38 -97v-363h144v320zM209 -4v794h-144v-794h144z
" />
    <glyph glyph-name="_661" unicode="&#x33d3;" 
d="M262 -4v794h-155v-794h155zM695 -4h163l-173 291l162 276h-164l-96 -184l-96 184h-163l161 -276l-173 -291h163l108 199z" />
    <glyph glyph-name="_662" unicode="&#x33c3;" 
d="M331 563c0 -72 -23 -95 -68 -95h-63v189h63c45 0 68 -23 68 -94zM294 -4c130 0 196 79 196 230c0 90 -40 159 -105 184h1c54 26 87 83 87 164c0 143 -64 217 -192 217h-225v-795h238zM346 234c0 -76 -22 -105 -70 -105h-76v210h76c48 0 70 -29 70 -105zM776 536
c-22 28 -53 42 -94 42c-103 0 -166 -96 -166 -298c0 -203 63 -298 166 -298c36 0 72 19 94 42v-274h137v814h-137v-28zM776 280c0 -120 -15 -178 -61 -178s-62 59 -62 178c0 118 16 176 62 176c45 0 61 -57 61 -176z" />
    <glyph glyph-name="_663" unicode="&#x33c9;" 
d="M36 394c0 -221 53 -412 225 -412c54 0 97 25 123 64l8 -50h111v421h-241v-124h102c-4 -102 -29 -174 -91 -174c-64 0 -95 60 -95 275c0 216 32 272 94 272c56 0 86 -56 89 -147h142c-5 172 -89 286 -231 286c-187 0 -236 -195 -236 -411zM655 -70
c-12 -49 -23 -61 -38 -61h-44v-115c25 -4 45 -4 60 -4c82 0 122 34 152 153l164 661h-140l-71 -340l-74 340h-139l146 -570z" />
    <glyph glyph-name="_664" unicode="&#x33dc;" 
d="M490 224c0 130 -61 208 -163 237c-20 6 -42 12 -62 18c-45 14 -69 44 -69 99s22 92 64 92c41 0 63 -37 63 -92v-12h146v12c0 122 -74 227 -209 227s-209 -102 -209 -230c0 -132 64 -203 163 -232c17 -5 46 -13 62 -18c45 -14 69 -52 69 -107c0 -61 -28 -103 -74 -103
s-74 42 -74 103v17h-145v-14c0 -140 81 -239 219 -239c140 0 219 100 219 242zM789 -4l143 568h-140l-75 -348l-77 348h-139l142 -568h146z" />
    <glyph glyph-name="_665" unicode="&#x33c6;" 
d="M28 603c0 -59 7 -117 35 -159c24 -36 65 -57 120 -57c94 0 149 64 152 164h-103c-2 -46 -19 -74 -49 -74c-15 0 -26 8 -35 22c-10 18 -16 47 -16 104c0 56 5 86 16 103c8 13 20 22 35 22c30 0 47 -27 49 -73h103c-3 99 -58 164 -152 164c-57 0 -95 -20 -120 -58
c-28 -44 -35 -98 -35 -158zM416 -3h106v109l53 -109h113l-89 159l78 147h-111l-44 -100v211h-100l248 332l-76 54l-577 -771l75 -57l324 434v-409zM824 150c0 -52 -6 -78 -25 -78c-18 0 -25 26 -25 78c0 51 7 77 25 77c19 0 25 -25 25 -77zM929 303h-101v-9
c-13 9 -31 16 -48 16c-68 0 -110 -51 -110 -160s42 -160 110 -160c16 0 32 5 44 13v-13c0 -31 -6 -46 -19 -46c-11 0 -17 10 -19 31h-105c6 -69 50 -110 124 -110c86 0 124 57 124 131v307z" />
    <glyph glyph-name="_666" unicode="&#xc6;" horiz-adv-x="1021" 
d="M483 -4h499v136h-334v202h287v137h-287v182h328v137h-596l-392 -794h184l72 153h239v-153zM308 283l175 365v-365h-175z" />
    <glyph glyph-name="_667" unicode="&#xd0;" horiz-adv-x="726" 
d="M5 445v-106h69v-343h296c260 0 312 181 312 397c0 211 -51 397 -312 397h-296v-345h-69zM518 393c0 -208 -48 -262 -158 -262h-121v208h117v106h-117v210h121c111 0 158 -55 158 -262z" />
    <glyph glyph-name="_668" unicode="&#xaa;" horiz-adv-x="480" 
d="M291 415c0 -16 3 -32 8 -42h131c-5 14 -10 37 -10 59v221c0 87 -63 146 -178 146c-111 0 -171 -54 -177 -139h129c3 29 19 45 48 45c33 0 49 -17 49 -51v-80c-14 32 -52 52 -107 52c-83 0 -141 -48 -141 -131c0 -85 58 -132 141 -132c55 0 93 20 107 52zM169 495
c0 27 23 42 61 42s61 -15 61 -42c0 -29 -23 -42 -61 -42s-61 13 -61 42zM31 213h417v95h-417v-95z" />
    <glyph glyph-name="_669" unicode="&#x126;" horiz-adv-x="722" 
d="M482 -4h165v580h69v107h-69v107h-165v-107h-243v107h-165v-107h-69v-107h69v-580h165v338h243v-338zM239 471v105h243v-105h-243z" />
    <glyph glyph-name="_670" unicode="&#x132;" horiz-adv-x="906" 
d="M225 790h-165v-794h165v794zM584 -18c169 0 265 94 265 256v552h-165v-516c0 -109 -30 -155 -99 -155c-65 0 -97 42 -100 134h-165v-15c0 -162 96 -256 264 -256z" />
    <glyph glyph-name="_671" unicode="&#x13f;" horiz-adv-x="572" 
d="M60 -4h498v137h-333v658h-165v-795zM477 497h-148v-147h148v147z" />
    <glyph glyph-name="_672" unicode="&#x141;" horiz-adv-x="587" 
d="M74 -4h498v136h-333v214l182 97v121l-182 -97v323h-165v-409l-71 -38v-121l71 37v-263z" />
    <glyph glyph-name="_673" unicode="&#xd8;" horiz-adv-x="725" 
d="M557 826l-33 -59c-44 24 -98 37 -161 37c-254 0 -320 -194 -320 -411c0 -125 21 -244 85 -317l-66 -116h106l34 58c43 -22 96 -36 161 -36c252 0 319 191 319 411c0 118 -15 236 -86 317l67 116h-106zM517 393c0 -219 -52 -274 -154 -274c-37 0 -66 9 -89 26l229 401
c10 -36 14 -85 14 -153zM363 666c35 0 64 -9 87 -27l-228 -401c-10 37 -15 89 -15 155c0 216 52 273 156 273z" />
    <glyph glyph-name="_674" unicode="&#x152;" horiz-adv-x="1026" 
d="M46 393c0 -215 52 -397 312 -397h626v136h-333v202h287v137h-287v182h327v137h-620c-261 0 -312 -186 -312 -397zM210 393c0 207 48 262 159 262h117v-524h-117c-112 0 -159 54 -159 262z" />
    <glyph glyph-name="_675" unicode="&#xba;" horiz-adv-x="480" 
d="M173 581c0 90 19 122 67 122s66 -33 66 -122s-18 -122 -66 -122s-67 31 -67 122zM45 580c0 -132 57 -217 195 -217c136 0 195 84 195 217c0 137 -59 219 -195 219c-137 0 -195 -82 -195 -219zM31 210h417v98h-417v-98z" />
    <glyph glyph-name="_676" unicode="&#xde;" horiz-adv-x="668" 
d="M225 136h156c165 0 260 93 260 257c0 163 -95 255 -260 255h-156v142h-165v-794h165v140zM225 274v238h133c79 0 119 -41 119 -119c0 -79 -40 -119 -119 -119h-133z" />
    <glyph glyph-name="_677" unicode="&#x166;" horiz-adv-x="613" 
d="M224 348v-352h165v352h107v107h-107v198h210v137h-586v-137h211v-198h-107v-107h107z" />
    <glyph glyph-name="_678" unicode="&#x14a;" horiz-adv-x="705" 
d="M480 5v-55c0 -53 -22 -72 -70 -72h-35v-125c15 -2 48 -3 67 -3c136 0 203 65 203 185v856h-163v-511l-260 511h-162v-795h163v510z" />
    <glyph glyph-name="_679" unicode="&#x3260;" 
d="M22 394c0 -259 201 -456 458 -456s458 197 458 456s-201 456 -458 456s-458 -197 -458 -456zM119 394c0 210 152 368 361 368s361 -158 361 -368c0 -211 -152 -369 -361 -369s-361 158 -361 369zM233 592v-116h336v-280h139v396h-475z" />
    <glyph glyph-name="_680" unicode="&#x3261;" 
d="M22 394c0 -259 201 -456 458 -456s458 197 458 456s-201 456 -458 456s-458 -197 -458 -456zM119 394c0 210 152 368 361 368s361 -158 361 -368c0 -211 -152 -369 -361 -369s-361 158 -361 369zM725 196v116h-336v280h-139v-396h475z" />
    <glyph glyph-name="_681" unicode="&#x3262;" 
d="M22 394c0 -259 201 -456 458 -456s458 197 458 456s-201 456 -458 456s-458 -197 -458 -456zM119 394c0 210 152 368 361 368s361 -158 361 -368c0 -211 -152 -369 -361 -369s-361 158 -361 369zM384 312v164h329v116h-468v-396h475v116h-336z" />
    <glyph glyph-name="_682" unicode="&#x3263;" 
d="M22 394c0 -259 201 -456 458 -456s458 197 458 456s-201 456 -458 456s-458 -197 -458 -456zM119 394c0 210 152 368 361 368s361 -158 361 -368c0 -211 -152 -369 -361 -369s-361 158 -361 369zM388 303v35h322v262h-462v-115h322v-33h-322v-263h476v114h-336z" />
    <glyph glyph-name="_683" unicode="&#x3264;" 
d="M22 393c0 -259 201 -455 458 -455s458 196 458 455s-201 456 -458 456s-458 -197 -458 -456zM118 393c0 211 153 369 362 369c208 0 361 -158 361 -369c0 -210 -153 -367 -361 -367c-209 0 -362 157 -362 367zM245 592v-396h468v396h-468zM574 476v-164h-191v164h191z
" />
    <glyph glyph-name="_684" unicode="&#x3265;" 
d="M22 394c0 -259 201 -456 458 -456s458 197 458 456s-201 456 -458 456s-458 -197 -458 -456zM119 394c0 210 152 368 361 368s361 -158 361 -368c0 -211 -152 -369 -361 -369s-361 158 -361 369zM384 493v99h-139v-396h468v396h-139v-99h-190zM574 379v-67h-190v67h190z
" />
    <glyph glyph-name="_685" unicode="&#x3266;" 
d="M22 394c0 -259 201 -456 458 -456s458 197 458 456s-201 456 -458 456s-458 -197 -458 -456zM119 394c0 210 152 368 361 368s361 -158 361 -368c0 -211 -152 -369 -361 -369s-361 158 -361 369zM746 205v117c-129 21 -192 91 -192 207v86h-139v-86
c0 -117 -63 -187 -191 -207v-117c118 12 209 56 261 116c51 -60 144 -104 261 -116z" />
    <glyph glyph-name="_686" unicode="&#x3267;" 
d="M22 394c0 -259 201 -456 458 -456s458 197 458 456s-201 456 -458 456s-458 -197 -458 -456zM119 394c0 210 152 368 361 368s361 -158 361 -368c0 -211 -152 -369 -361 -369s-361 158 -361 369zM364 393c0 27 9 49 27 65c20 17 50 27 89 27c38 0 67 -10 87 -27
c19 -16 28 -38 28 -65s-9 -49 -28 -66c-19 -16 -49 -26 -87 -26c-39 0 -69 10 -89 26c-18 17 -27 39 -27 66zM224 393c0 -63 26 -114 69 -150c45 -38 109 -59 187 -59c77 0 141 21 186 59c43 36 68 87 68 150s-25 114 -68 150c-45 37 -109 58 -186 58
c-78 0 -142 -21 -187 -58c-43 -36 -69 -87 -69 -150z" />
    <glyph glyph-name="_687" unicode="&#x3268;" 
d="M22 394c0 -259 201 -456 458 -456s458 197 458 456s-201 456 -458 456s-458 -197 -458 -456zM119 394c0 210 152 368 361 368s361 -158 361 -368c0 -211 -152 -369 -361 -369s-361 158 -361 369zM724 476v116h-489v-116h173c-9 -94 -67 -152 -181 -170v-116
c110 11 199 52 252 109c52 -55 143 -98 253 -109v116c-115 19 -174 76 -183 170h175z" />
    <glyph glyph-name="_688" unicode="&#x3269;" 
d="M22 394c0 -259 201 -456 458 -456s458 197 458 456s-201 456 -458 456s-458 -197 -458 -456zM119 394c0 210 152 368 361 368s361 -158 361 -368c0 -211 -152 -369 -361 -369s-361 158 -361 369zM724 437v117h-175v88h-140v-88h-174v-117h166c-19 -73 -77 -112 -174 -128
v-116c110 11 199 50 252 105c53 -54 144 -94 253 -105v116c-98 17 -155 56 -175 128h167z" />
    <glyph glyph-name="_689" unicode="&#x326a;" 
d="M22 394c0 -259 201 -456 458 -456s458 197 458 456s-201 456 -458 456s-458 -197 -458 -456zM119 394c0 210 152 368 361 368s361 -158 361 -368c0 -211 -152 -369 -361 -369s-361 158 -361 369zM245 592v-116h329v-55c-53 -6 -106 -8 -155 -8h-174v-115h174
c53 0 106 2 155 8v-110h139v396h-468z" />
    <glyph glyph-name="_690" unicode="&#x326b;" 
d="M22 394c0 -259 201 -456 458 -456s458 197 458 456s-201 456 -458 456s-458 -197 -458 -456zM119 394c0 210 152 368 361 368s361 -158 361 -368c0 -211 -152 -369 -361 -369s-361 158 -361 369zM388 303v35h315v114h-315v33h322v115h-462v-411h476v114h-336z" />
    <glyph glyph-name="_691" unicode="&#x326c;" 
d="M22 394c0 -259 201 -456 458 -456s458 197 458 456s-201 456 -458 456s-458 -197 -458 -456zM119 394c0 210 152 368 361 368s361 -158 361 -368c0 -211 -152 -369 -361 -369s-361 158 -361 369zM525 415c0 -37 -2 -76 -10 -103h-78v164h88v-61zM664 476h64v116h-496
v-116h66v-164h-80v-116h524v116h-88c8 31 10 67 10 108v56z" />
    <glyph glyph-name="_692" unicode="&#x326d;" 
d="M22 394c0 -259 201 -456 458 -456s458 197 458 456s-201 456 -458 456s-458 -197 -458 -456zM119 394c0 210 152 368 361 368s361 -158 361 -368c0 -211 -152 -369 -361 -369s-361 158 -361 369zM549 646h-141v-73h-191v-113h525v113h-193v73zM382 300c0 7 3 11 8 15
c13 12 45 16 90 16c44 0 76 -4 89 -16c5 -4 8 -8 8 -15c0 -6 -3 -10 -8 -14c-13 -12 -45 -16 -89 -16c-45 0 -77 4 -90 16c-5 4 -8 8 -8 14zM244 300c0 -38 13 -67 38 -89c38 -36 107 -53 198 -53c90 0 159 17 197 53c25 22 38 51 38 89s-13 68 -38 90
c-38 36 -107 53 -197 53c-91 0 -160 -17 -198 -53c-25 -22 -38 -52 -38 -90z" />
    <glyph glyph-name="_693" unicode="&#x326e;" 
d="M480 850c-257 0 -458 -197 -458 -456s201 -456 458 -456s458 197 458 456s-201 456 -458 456zM480 25c-101 0 -189 37 -252 99c218 54 307 195 307 422v117h-306v-100h189v-28c0 -161 -58 -264 -193 -303v-106c-66 67 -106 160 -106 268c0 210 152 368 361 368
s361 -158 361 -368c0 -124 -52 -229 -137 -295v262h82v101h-82v220h-118v-585h115c-60 -46 -136 -72 -221 -72z" />
    <glyph glyph-name="_694" unicode="&#x326f;" 
d="M22 394c0 -259 201 -456 458 -456s458 197 458 456s-201 456 -458 456s-458 -197 -458 -456zM119 394c0 210 152 368 361 368s361 -158 361 -368c0 -124 -52 -229 -137 -295v262h82v101h-82v220h-118v-431c-16 -13 -44 -17 -82 -17h-155v432h-118v-532h259
c40 0 74 6 96 16v-53h115c-60 -46 -136 -72 -221 -72c-209 0 -361 158 -361 369z" />
    <glyph glyph-name="_695" unicode="&#x3270;" 
d="M22 394c0 -259 201 -456 458 -456s458 197 458 456s-201 456 -458 456s-458 -197 -458 -456zM119 394c0 210 152 368 361 368s361 -158 361 -368c0 -124 -52 -229 -137 -295v262h82v101h-82v220h-118v-431c-16 -13 -44 -17 -82 -17h-155v329h185v100h-303v-529h259
c40 0 74 6 96 17v-54h115c-60 -46 -136 -72 -221 -72c-209 0 -361 158 -361 369z" />
    <glyph glyph-name="_696" unicode="&#x3271;" 
d="M22 393c0 -259 201 -455 458 -455s458 196 458 455s-201 456 -458 456s-458 -197 -458 -456zM118 393c0 211 153 369 362 369c208 0 361 -158 361 -369c0 -123 -52 -227 -137 -293v261h82v100h-82v221h-118v-431c-17 -13 -44 -17 -83 -17h-155v117h179v311h-296v-99h179
v-112h-179v-317h258c41 0 74 5 97 16v-54h113c-60 -44 -135 -70 -219 -70c-209 0 -362 157 -362 367z" />
    <glyph glyph-name="_697" unicode="&#x3272;" 
d="M22 394c0 -259 201 -456 458 -456s458 197 458 456s-201 456 -458 456s-458 -197 -458 -456zM841 394c0 -124 -52 -229 -137 -295v262h82v101h-82v220h-118v-585h115c-60 -46 -136 -72 -221 -72c-209 0 -361 158 -361 369c0 210 152 368 361 368s361 -158 361 -368z
M535 663h-306v-529h306v529zM418 234h-72v329h72v-329z" />
    <glyph glyph-name="_698" unicode="&#x3273;" 
d="M938 394c0 259 -201 456 -458 456s-458 -197 -458 -456s201 -456 458 -456s458 197 458 456zM119 394c0 210 152 368 361 368s361 -158 361 -368c0 -124 -52 -229 -137 -295v262h82v101h-82v220h-118v-585h115c-60 -46 -136 -72 -221 -72c-209 0 -361 158 -361 369z
M346 663h-117v-529h306v529h-117v-183h-72v183zM346 234v146h72v-146h-72z" />
    <glyph glyph-name="_699" unicode="&#x3274;" 
d="M22 393c0 -259 201 -455 458 -455s458 196 458 455s-201 456 -458 456s-458 -197 -458 -456zM118 393c0 211 153 369 362 369c208 0 361 -158 361 -369c0 -123 -52 -227 -137 -293v261h82v100h-82v221h-118v-586h113c-60 -44 -135 -70 -219 -70c-105 0 -196 40 -260 106
c67 19 128 57 162 102c36 -48 102 -87 173 -105c0 0 1 0 2 1v102c-66 29 -117 77 -117 229v204h-118v-204c0 -152 -51 -200 -116 -229v-85c-56 64 -88 149 -88 246z" />
    <glyph glyph-name="_700" unicode="&#x3275;" 
d="M22 394c0 -259 201 -456 458 -456s458 197 458 456s-201 456 -458 456s-458 -197 -458 -456zM119 394c0 210 152 368 361 368s361 -158 361 -368c0 -124 -52 -229 -137 -295v262h82v101h-82v220h-118v-585h115c-60 -46 -136 -72 -221 -72c-209 0 -361 158 -361 369z
M336 399c0 96 6 146 24 164c6 7 13 9 22 9s16 -2 22 -9c18 -18 23 -68 23 -164c0 -95 -5 -145 -23 -164c-6 -6 -13 -9 -22 -9s-16 3 -22 9c-18 19 -24 69 -24 164zM545 399c0 129 -20 208 -69 246c-24 18 -55 27 -94 27s-70 -9 -94 -27c-49 -38 -69 -117 -69 -246
c0 -128 20 -207 69 -245c24 -18 55 -27 94 -27s70 9 94 27c49 38 69 117 69 245z" />
    <glyph glyph-name="_701" unicode="&#x3276;" 
d="M22 394c0 -259 201 -456 458 -456s458 197 458 456s-201 456 -458 456s-458 -197 -458 -456zM119 394c0 105 38 198 103 264v-95h107v-104c0 -152 -49 -199 -112 -226v-98c-62 65 -98 156 -98 259zM221 130c69 19 132 58 167 104c35 -47 99 -87 171 -106v104
c-63 29 -113 75 -113 227v104h108v100h-327c64 62 152 99 253 99c209 0 361 -158 361 -368c0 -124 -52 -229 -137 -295v262h82v101h-82v220h-118v-585h115c-60 -46 -136 -72 -221 -72c-105 0 -195 39 -259 105z" />
    <glyph glyph-name="_702" unicode="&#x3277;" 
d="M22 393c0 -259 201 -455 458 -455s458 196 458 455s-201 456 -458 456s-458 -197 -458 -456zM118 393c0 211 153 369 362 369c208 0 361 -158 361 -369c0 -123 -52 -227 -137 -293v261h82v100h-82v221h-118v-586h113c-60 -44 -135 -70 -219 -70c-104 0 -194 39 -258 104
c68 19 131 58 165 104c36 -47 100 -87 173 -106v104c-64 28 -114 75 -114 226v50h109v100h-109v82h-118v-82h-107v-100h107v-50c0 -151 -49 -198 -113 -226v-95c-61 65 -97 154 -97 256z" />
    <glyph glyph-name="_703" unicode="&#x3278;" 
d="M22 394c0 -259 201 -456 458 -456s458 197 458 456s-201 456 -458 456s-458 -197 -458 -456zM119 394c0 210 152 368 361 368s361 -158 361 -368c0 -124 -52 -229 -137 -295v262h82v101h-82v220h-118v-585h115c-60 -46 -136 -72 -221 -72c-101 0 -189 37 -252 99
c218 54 307 195 307 422v117h-306v-100h189v-28c0 -18 -1 -41 -3 -59c-23 -6 -57 -9 -100 -9h-90v-99h88c30 0 60 1 81 4c-28 -68 -84 -116 -169 -140v-106c-66 67 -106 160 -106 268z" />
    <glyph glyph-name="_704" unicode="&#x3279;" 
d="M22 394c0 -259 201 -456 458 -456s458 197 458 456s-201 456 -458 456s-458 -197 -458 -456zM119 394c0 210 152 368 361 368s361 -158 361 -368c0 -124 -52 -229 -137 -295v262h82v101h-82v220h-118v-431c-16 -13 -44 -17 -82 -17h-158v118h179v99h-179v112h185v100
h-302v-529h261c40 0 74 6 96 16v-53h115c-60 -46 -136 -72 -221 -72c-209 0 -361 158 -361 369z" />
    <glyph glyph-name="_705" unicode="&#x327a;" 
d="M22 393c0 -259 201 -455 458 -455s458 196 458 455s-201 456 -458 456s-458 -197 -458 -456zM118 393c0 106 39 199 104 265v-93h41v-334h-47v-95c-62 65 -98 155 -98 257zM217 134h272c40 0 74 5 97 15v-53h113c-60 -44 -135 -70 -219 -70c-106 0 -198 40 -263 108z
M704 100v261h82v100h-82v221h-118v-434c-15 -10 -38 -16 -68 -16c6 32 8 71 8 112v221h38v97h-338c64 63 152 100 254 100c208 0 361 -158 361 -369c0 -123 -52 -227 -137 -293zM415 340c0 -38 -1 -77 -6 -109h-35v334h41v-225z" />
    <glyph glyph-name="_706" unicode="&#x327b;" 
d="M22 394c0 -259 201 -456 458 -456s458 197 458 456s-201 456 -458 456s-458 -197 -458 -456zM119 394c0 210 152 368 361 368s361 -158 361 -368c0 -124 -52 -229 -137 -295v262h82v101h-82v220h-118v-585h115c-60 -46 -136 -72 -221 -72c-209 0 -361 158 -361 369z
M441 692h-118v-69h-115v-100h346v100h-113v69zM423 314c0 -46 -4 -72 -15 -85c-7 -6 -14 -9 -24 -9c-11 0 -18 3 -24 9c-12 13 -16 39 -16 85c0 47 4 73 16 85c6 6 13 9 24 9c10 0 17 -3 24 -9c11 -12 15 -38 15 -85zM227 314c0 -79 18 -133 57 -164c25 -20 58 -30 100 -30
c41 0 75 10 100 30c38 31 56 85 56 164s-18 134 -56 164c-25 20 -59 30 -100 30c-42 0 -75 -10 -100 -30c-39 -30 -57 -85 -57 -164z" />
    <glyph glyph-name="_707" unicode="&#x24d0;" 
d="M22 393c0 -259 201 -455 458 -455s458 196 458 455s-201 456 -458 456s-458 -197 -458 -456zM118 393c0 211 153 369 362 369c208 0 361 -158 361 -369c0 -210 -153 -367 -361 -367c-209 0 -362 157 -362 367zM535 186h139c-10 22 -15 49 -15 68v199
c0 93 -60 157 -182 157c-116 0 -176 -59 -182 -147h136c3 28 19 41 46 41c32 0 47 -18 47 -50v-32c-23 17 -58 26 -92 26c-93 0 -152 -51 -152 -136c0 -86 60 -136 152 -136c42 0 74 11 96 31c2 -7 5 -17 7 -21zM470 274c-37 0 -54 13 -54 38s17 38 54 38
c36 0 54 -13 54 -38s-19 -38 -54 -38z" />
    <glyph glyph-name="_708" unicode="&#x24d1;" 
d="M22 394c0 -259 201 -456 458 -456s458 197 458 456s-201 456 -458 456s-458 -197 -458 -456zM119 394c0 210 152 368 361 368s361 -158 361 -368c0 -211 -152 -369 -361 -369s-361 158 -361 369zM451 153c22 -21 54 -34 93 -34c100 0 163 69 163 217
c0 147 -63 216 -163 216c-38 0 -71 -13 -93 -33v180h-135v-571h135v25zM451 336c0 73 16 109 60 109c45 0 61 -36 61 -109c0 -75 -16 -110 -61 -110c-44 0 -60 36 -60 110z" />
    <glyph glyph-name="_709" unicode="&#x24d2;" 
d="M22 394c0 -259 201 -456 458 -456s458 197 458 456s-201 456 -458 456s-458 -197 -458 -456zM119 394c0 210 152 368 361 368s361 -158 361 -368c0 -211 -152 -369 -361 -369s-361 158 -361 369zM285 393c0 -137 65 -217 196 -217c112 0 182 61 190 169h-134
c-4 -40 -22 -62 -56 -62c-45 0 -61 36 -61 110c0 70 16 108 61 108c34 0 52 -22 56 -60h134c-8 106 -78 168 -190 168c-131 0 -196 -80 -196 -216z" />
    <glyph glyph-name="_710" unicode="&#x24d3;" 
d="M22 394c0 -259 201 -456 458 -456s458 197 458 456s-201 456 -458 456s-458 -197 -458 -456zM119 394c0 210 152 368 361 368s361 -158 361 -368c0 -211 -152 -369 -361 -369s-361 158 -361 369zM512 132h135v571h-135v-180c-22 21 -54 33 -93 33
c-100 0 -163 -69 -163 -216s63 -217 163 -217c40 0 71 12 93 34v-25zM512 340c0 -74 -15 -110 -60 -110c-46 0 -61 36 -61 110c0 73 15 109 61 109c44 0 60 -36 60 -109z" />
    <glyph glyph-name="_711" unicode="&#x24d4;" 
d="M22 393c0 -259 201 -455 458 -455s458 196 458 455s-201 456 -458 456s-458 -197 -458 -456zM118 393c0 211 153 369 362 369c208 0 361 -158 361 -369c0 -210 -153 -367 -361 -367c-209 0 -362 157 -362 367zM672 352c1 14 1 28 1 41c0 136 -64 217 -194 217
c-132 0 -196 -81 -196 -217c0 -137 65 -217 196 -217c103 0 171 54 188 154h-135c-6 -32 -25 -50 -53 -50c-37 0 -58 25 -61 72h254zM479 507c34 0 53 -24 58 -63h-117c4 41 22 63 59 63z" />
    <glyph glyph-name="_712" unicode="&#x24d5;" 
d="M22 394c0 -259 201 -456 458 -456s458 197 458 456s-201 456 -458 456s-458 -197 -458 -456zM119 394c0 210 152 368 361 368s361 -158 361 -368c0 -211 -152 -369 -361 -369s-361 158 -361 369zM616 572v100c-29 7 -53 7 -75 7c-109 0 -154 -38 -154 -133v-30h-57v-108
h57v-305h134v305h95v108h-95v23c0 23 9 33 38 33h57z" />
    <glyph glyph-name="_713" unicode="&#x24d6;" 
d="M22 394c0 -259 201 -456 458 -456s458 197 458 456s-201 456 -458 456s-458 -197 -458 -456zM119 394c0 210 152 368 361 368s361 -158 361 -368c0 -211 -152 -369 -361 -369s-361 158 -361 369zM531 469c0 -74 -16 -110 -60 -110c-46 0 -61 36 -61 110
c0 73 15 109 61 109c44 0 60 -36 60 -109zM666 676h-135v-24c-22 21 -55 33 -93 33c-100 0 -163 -69 -163 -216s63 -217 163 -217c39 0 71 12 93 34v-37c0 -44 -17 -67 -52 -67c-28 0 -45 15 -49 47h-137c12 -92 77 -149 186 -149c130 0 187 77 187 178v418z" />
    <glyph glyph-name="_714" unicode="&#x24d7;" 
d="M22 394c0 -259 201 -456 458 -456s458 197 458 456s-201 456 -458 456s-458 -197 -458 -456zM119 394c0 210 152 368 361 368s361 -158 361 -368c0 -211 -152 -369 -361 -369s-361 158 -361 369zM685 382c0 108 -51 164 -144 164c-40 0 -72 -13 -95 -35v182h-134v-570
h134v232c0 55 26 84 63 84c27 0 41 -18 41 -59v-257h135v259z" />
    <glyph glyph-name="_715" unicode="&#x24d8;" 
d="M22 394c0 -259 201 -456 458 -456s458 197 458 456s-201 456 -458 456s-458 -197 -458 -456zM119 394c0 210 152 368 361 368s361 -158 361 -368c0 -211 -152 -369 -361 -369s-361 158 -361 369zM411 565h135v117h-135v-117zM411 112h135v411h-135v-411z" />
    <glyph glyph-name="_716" unicode="&#x24d9;" 
d="M22 394c0 -259 201 -456 458 -456s458 197 458 456s-201 456 -458 456s-458 -197 -458 -456zM119 394c0 210 152 368 361 368s361 -158 361 -368c0 -211 -152 -369 -361 -369s-361 158 -361 369zM435 216c0 -29 -11 -43 -35 -43h-44v-103c19 -2 46 -3 61 -3
c102 0 153 48 153 140v358h-135v-349zM435 606h135v117h-135v-117z" />
    <glyph glyph-name="_717" unicode="&#x24da;" 
d="M22 393c0 -259 201 -455 458 -455s458 196 458 455s-201 456 -458 456s-458 -197 -458 -456zM118 393c0 211 153 369 362 369c208 0 361 -158 361 -369c0 -210 -153 -367 -361 -367c-209 0 -362 157 -362 367zM320 128h135v162h9l97 -162h148l-135 216l117 198h-145
l-86 -147h-5v304h-135v-571z" />
    <glyph glyph-name="_718" unicode="&#x24db;" 
d="M22 394c0 -259 201 -456 458 -456s458 197 458 456s-201 456 -458 456s-458 -197 -458 -456zM119 394c0 210 152 368 361 368s361 -158 361 -368c0 -211 -152 -369 -361 -369s-361 158 -361 369zM550 107v570h-135v-570h135z" />
    <glyph glyph-name="_719" unicode="&#x24dc;" 
d="M22 393c0 -259 201 -455 458 -455s458 196 458 455s-201 456 -458 456s-458 -197 -458 -456zM118 393c0 211 153 369 362 369c208 0 361 -158 361 -369c0 -210 -153 -367 -361 -367c-209 0 -362 157 -362 367zM550 417c0 55 20 84 54 84c23 0 34 -17 34 -54v-262h133v259
c0 107 -47 164 -136 164c-47 0 -86 -20 -112 -57c-21 38 -58 57 -108 57c-36 0 -66 -13 -85 -33v24h-133v-414h133v232c0 55 19 84 53 84c25 0 34 -17 34 -54v-262h133v232z" />
    <glyph glyph-name="_720" unicode="&#x24dd;" 
d="M22 394c0 -259 201 -456 458 -456s458 197 458 456s-201 456 -458 456s-458 -197 -458 -456zM119 394c0 210 152 368 361 368s361 -158 361 -368c0 -211 -152 -369 -361 -369s-361 158 -361 369zM670 445c0 108 -52 164 -144 164c-40 0 -73 -13 -95 -35v26h-135v-414h135
v232c0 55 25 84 62 84c28 0 41 -18 41 -59v-257h136v259z" />
    <glyph glyph-name="_721" unicode="&#x24de;" 
d="M22 394c0 -259 201 -456 458 -456s458 197 458 456s-201 456 -458 456s-458 -197 -458 -456zM119 394c0 210 152 368 361 368s361 -158 361 -368c0 -211 -152 -369 -361 -369s-361 158 -361 369zM420 395c0 72 16 109 61 109s60 -37 60 -109c0 -74 -15 -109 -60 -109
c-44 0 -61 36 -61 109zM286 395c0 -137 65 -217 195 -217c131 0 195 80 195 217c0 136 -64 216 -195 216c-130 0 -195 -80 -195 -216z" />
    <glyph glyph-name="_722" unicode="&#x24df;" 
d="M22 394c0 -259 201 -456 458 -456s458 197 458 456s-201 456 -458 456s-458 -197 -458 -456zM119 394c0 210 152 368 361 368s361 -158 361 -368c0 -211 -152 -369 -361 -369s-361 158 -361 369zM446 663h-135v-584h135v194c22 -21 54 -34 92 -34c100 0 164 70 164 217
s-64 216 -164 216c-37 0 -70 -13 -92 -33v24zM446 456c0 73 16 109 60 109s61 -36 61 -109c0 -74 -17 -110 -61 -110s-60 36 -60 110z" />
    <glyph glyph-name="_723" unicode="&#x24e0;" 
d="M22 394c0 -259 201 -456 458 -456s458 197 458 456s-201 456 -458 456s-458 -197 -458 -456zM119 394c0 210 152 368 361 368s361 -158 361 -368c0 -211 -152 -369 -361 -369s-361 158 -361 369zM512 639c-22 21 -54 33 -92 33c-101 0 -164 -69 -164 -216
s63 -217 164 -217c39 0 70 12 92 34v-194h135v584h-135v-24zM512 456c0 -74 -15 -110 -60 -110s-61 36 -61 110c0 73 16 109 61 109s60 -36 60 -109z" />
    <glyph glyph-name="_724" unicode="&#x24e1;" 
d="M22 394c0 -259 201 -456 458 -456s458 197 458 456s-201 456 -458 456s-458 -197 -458 -456zM119 394c0 210 152 368 361 368s361 -158 361 -368c0 -211 -152 -369 -361 -369s-361 158 -361 369zM580 487c8 0 28 0 46 -3l1 109c-15 5 -31 7 -44 7c-41 0 -71 -14 -91 -38
v29h-132v-414h135v207c0 68 30 103 85 103z" />
    <glyph glyph-name="_725" unicode="&#x24e2;" 
d="M22 394c0 -259 201 -456 458 -456s458 197 458 456s-201 456 -458 456s-458 -197 -458 -456zM119 394c0 210 152 368 361 368s361 -158 361 -368c0 -211 -152 -369 -361 -369s-361 158 -361 369zM311 311c0 -76 63 -134 175 -134c110 0 176 58 176 135
c0 79 -40 117 -140 135c-12 2 -25 5 -38 7c-25 5 -38 13 -38 30c0 14 10 25 32 25c23 0 34 -12 34 -27v-16h134v16c0 74 -60 128 -168 128c-105 0 -167 -56 -167 -131c0 -74 46 -113 140 -130c13 -2 27 -5 40 -7c24 -5 36 -16 36 -34s-15 -30 -41 -30c-25 0 -40 12 -40 31
v19h-135v-17z" />
    <glyph glyph-name="_726" unicode="&#x24e3;" 
d="M22 394c0 -259 201 -456 458 -456s458 197 458 456s-201 456 -458 456s-458 -197 -458 -456zM119 394c0 210 152 368 361 368s361 -158 361 -368c0 -211 -152 -369 -361 -369s-361 158 -361 369zM518 450h100v108h-100v110h-136v-110h-56v-108h56v-179
c0 -99 44 -133 158 -133c20 0 60 1 78 3v103h-53c-37 0 -47 8 -47 43v163z" />
    <glyph glyph-name="_727" unicode="&#x24e4;" 
d="M22 394c0 -259 201 -456 458 -456s458 197 458 456s-201 456 -458 456s-458 -197 -458 -456zM119 394c0 210 152 368 361 368s361 -158 361 -368c0 -211 -152 -369 -361 -369s-361 158 -361 369zM284 332c0 -107 51 -164 143 -164c39 0 73 14 95 36v-26h136v414h-136
v-233c0 -54 -24 -84 -61 -84c-28 0 -42 18 -42 59v258h-135v-260z" />
    <glyph glyph-name="_728" unicode="&#x24e5;" 
d="M22 394c0 -259 201 -456 458 -456s458 197 458 456s-201 456 -458 456s-458 -197 -458 -456zM119 394c0 210 152 368 361 368s361 -158 361 -368c0 -211 -152 -369 -361 -369s-361 158 -361 369zM542 165l147 414h-140l-75 -247l-75 247h-139l146 -414h136z" />
    <glyph glyph-name="_729" unicode="&#x24e6;" 
d="M22 394c0 -259 201 -456 458 -456s458 197 458 456s-201 456 -458 456s-458 -197 -458 -456zM119 394c0 64 14 122 39 174l127 -395h127l67 228l67 -228h128l127 397c26 -52 40 -111 40 -176c0 -211 -152 -369 -361 -369s-361 158 -361 369zM791 587h-122l-65 -238
l-69 238h-112l-68 -239l-64 239h-122c61 107 173 175 311 175c137 0 250 -68 311 -175z" />
    <glyph glyph-name="_730" unicode="&#x24e7;" 
d="M22 393c0 -259 201 -455 458 -455s458 196 458 455s-201 456 -458 456s-458 -197 -458 -456zM118 393c0 211 153 369 362 369c208 0 361 -158 361 -369c0 -210 -153 -367 -361 -367c-209 0 -362 157 -362 367zM544 180h145l-126 213l118 202h-145l-56 -112l-56 112h-144
l117 -202l-126 -213h144l65 122z" />
    <glyph glyph-name="_731" unicode="&#x24e8;" 
d="M22 394c0 -259 201 -456 458 -456s458 197 458 456s-201 456 -458 456s-458 -197 -458 -456zM119 394c0 210 152 368 361 368s361 -158 361 -368c0 -211 -152 -369 -361 -369s-361 158 -361 369zM407 197c-9 -26 -21 -33 -39 -33h-44v-103c25 -4 46 -4 60 -4
c78 0 117 23 150 115l167 470h-140l-73 -242l-77 242h-140l150 -403z" />
    <glyph glyph-name="_732" unicode="&#x24e9;" 
d="M22 393c0 -259 201 -455 458 -455s458 196 458 455s-201 456 -458 456s-458 -197 -458 -456zM118 393c0 211 153 369 362 369c208 0 361 -158 361 -369c0 -210 -153 -367 -361 -367c-209 0 -362 157 -362 367zM642 600h-329v-108h158l-164 -217v-90h340v107h-169l164 217
v91z" />
    <glyph glyph-name="_733" unicode="&#x2460;" 
d="M22 394c0 -259 201 -456 458 -456s458 197 458 456s-201 456 -458 456s-458 -197 -458 -456zM119 394c0 210 152 368 361 368s361 -158 361 -368c0 -211 -152 -369 -361 -369s-361 158 -361 369zM571 113v568h-109l-144 -66v-121l118 52v-433h135z" />
    <glyph glyph-name="_734" unicode="&#x2461;" 
d="M22 393c0 -259 201 -455 458 -455s458 196 458 455s-201 456 -458 456s-458 -197 -458 -456zM118 393c0 211 153 369 362 369c208 0 361 -158 361 -369c0 -210 -153 -367 -361 -367c-209 0 -362 157 -362 367zM670 522c0 97 -67 176 -188 176s-188 -79 -188 -176v-30h135
v31c0 41 19 65 53 65c32 0 52 -26 52 -65c0 -29 -9 -49 -32 -76l-200 -231v-95h375v110h-197l132 151c40 45 58 84 58 140z" />
    <glyph glyph-name="_735" unicode="&#x2462;" 
d="M22 394c0 -259 201 -456 458 -456s458 197 458 456s-201 456 -458 456s-458 -197 -458 -456zM119 394c0 210 152 368 361 368s361 -158 361 -368c0 -211 -152 -369 -361 -369s-361 158 -361 369zM485 218c-37 0 -61 25 -61 70v19h-136v-25c0 -105 81 -174 197 -174
c117 0 196 69 196 174c0 65 -32 113 -80 137c38 24 63 66 63 118c0 91 -65 157 -179 157s-180 -65 -180 -159v-21h133v15c0 35 18 55 47 55c27 0 47 -20 47 -55c0 -39 -22 -58 -54 -58h-63v-108h63c43 0 68 -24 68 -75c0 -45 -24 -70 -61 -70z" />
    <glyph glyph-name="_736" unicode="&#x2463;" 
d="M22 394c0 -259 201 -456 458 -456s458 197 458 456s-201 456 -458 456s-458 -197 -458 -456zM119 394c0 210 152 368 361 368s361 -158 361 -368c0 -211 -152 -369 -361 -369s-361 158 -361 369zM394 335l83 149v-149h-83zM679 335h-69v351h-137l-214 -360v-101h218v-107
h133v107h69v110z" />
    <glyph glyph-name="_737" unicode="&#x2464;" 
d="M22 394c0 -259 201 -456 458 -456s458 197 458 456s-201 456 -458 456s-458 -197 -458 -456zM119 394c0 210 152 368 361 368s361 -158 361 -368c0 -211 -152 -369 -361 -369s-361 158 -361 369zM483 379c36 0 57 -29 57 -84c0 -57 -21 -84 -57 -84c-32 0 -52 25 -57 72
h-135c7 -112 75 -182 192 -182c121 0 192 72 192 192c0 131 -68 193 -163 193c-24 0 -49 -7 -66 -17l6 99h194v110h-321l-14 -331h126c10 19 26 32 46 32z" />
    <glyph glyph-name="_738" unicode="&#x2465;" 
d="M22 393c0 -259 201 -455 458 -455s458 196 458 455s-201 456 -458 456s-458 -197 -458 -456zM118 393c0 211 153 369 362 369c208 0 361 -158 361 -369c0 -210 -153 -367 -361 -367c-209 0 -362 157 -362 367zM664 527c-12 106 -79 164 -182 164
c-143 0 -198 -96 -198 -316c0 -173 57 -271 197 -271c114 0 193 75 193 194c0 121 -75 191 -174 191c-32 0 -60 -9 -80 -23c5 82 23 117 62 117c26 0 42 -20 47 -56h135zM539 298c0 -53 -22 -84 -60 -84s-60 31 -60 84c0 54 22 83 60 83s60 -29 60 -83z" />
    <glyph glyph-name="_739" unicode="&#x2466;" 
d="M22 394c0 -259 201 -456 458 -456s458 197 458 456s-201 456 -458 456s-458 -197 -458 -456zM119 394c0 210 152 368 361 368s361 -158 361 -368c0 -211 -152 -369 -361 -369s-361 158 -361 369zM296 550h234l-176 -458h139l178 476v92h-375v-110z" />
    <glyph glyph-name="_740" unicode="&#x2467;" 
d="M22 394c0 -259 201 -456 458 -456s458 197 458 456s-201 456 -458 456s-458 -197 -458 -456zM119 394c0 210 152 368 361 368s361 -158 361 -368c0 -211 -152 -369 -361 -369s-361 158 -361 369zM482 691c-118 0 -188 -67 -188 -158c0 -51 26 -95 67 -118
c-50 -26 -83 -72 -83 -136c0 -107 83 -175 204 -175s205 68 205 175c0 65 -32 110 -84 136c40 24 67 69 67 118c0 91 -70 158 -188 158zM537 524c0 -34 -21 -56 -55 -56c-33 0 -55 22 -55 56s22 56 55 56c34 0 55 -22 55 -56zM551 287c0 -46 -28 -73 -69 -73
c-42 0 -69 27 -69 73c0 47 27 74 69 74c41 0 69 -27 69 -74z" />
    <glyph glyph-name="_741" unicode="&#x2468;" 
d="M22 393c0 -259 201 -455 458 -455s458 196 458 455s-201 456 -458 456s-458 -197 -458 -456zM118 393c0 211 153 369 362 369c208 0 361 -158 361 -369c0 -210 -153 -367 -361 -367c-209 0 -362 157 -362 367zM293 261c14 -105 81 -164 184 -164c140 0 199 93 199 316
c0 178 -61 270 -198 270c-114 0 -193 -74 -193 -194s74 -190 172 -190c33 0 61 8 81 22c-5 -81 -23 -116 -61 -116c-27 0 -42 20 -47 56h-137zM420 489c0 54 22 84 60 84c37 0 59 -30 59 -84c0 -53 -22 -84 -59 -84c-38 0 -60 31 -60 84z" />
    <glyph glyph-name="_742" unicode="&#x2469;" 
d="M22 394c0 -259 201 -456 458 -456s458 197 458 456s-201 456 -458 456s-458 -197 -458 -456zM119 394c0 210 152 368 361 368s361 -158 361 -368c0 -211 -152 -369 -361 -369s-361 158 -361 369zM778 396c0 122 -21 199 -67 240c-26 24 -61 37 -105 37s-79 -13 -106 -37
c-45 -41 -66 -118 -66 -240s21 -199 66 -240c27 -24 61 -37 106 -37c44 0 79 13 105 37c46 41 67 118 67 240zM657 396c0 -93 -7 -141 -25 -160c-7 -8 -15 -11 -26 -11s-19 3 -26 11c-18 19 -25 67 -25 160s7 141 25 160c7 8 15 11 26 11s19 -3 26 -11
c18 -19 25 -67 25 -160zM396 126v536h-98l-119 -63v-117l96 50v-406h121z" />
    <glyph glyph-name="_743" unicode="&#x246a;" 
d="M22 394c0 -259 201 -456 458 -456s458 197 458 456s-201 456 -458 456s-458 -197 -458 -456zM119 394c0 210 152 368 361 368s361 -158 361 -368c0 -211 -152 -369 -361 -369s-361 158 -361 369zM422 126v536h-98l-119 -63v-117l96 50v-406h121zM706 126v536h-99
l-119 -63v-117l96 50v-406h122z" />
    <glyph glyph-name="_744" unicode="&#x246b;" 
d="M22 394c0 -259 201 -456 458 -456s458 197 458 456s-201 456 -458 456s-458 -197 -458 -456zM119 394c0 210 152 368 361 368s361 -158 361 -368c0 -90 -28 -170 -75 -232v72h-165l110 142c35 46 48 78 48 132c0 91 -56 166 -160 166s-161 -75 -161 -166v-29h121v29
c0 38 15 61 40 61s39 -23 39 -61c0 -27 -8 -47 -26 -71l-167 -218v-90h293c-65 -65 -154 -104 -258 -104c-209 0 -361 158 -361 369zM396 126v536h-98l-119 -63v-117l96 50v-406h121z" />
    <glyph glyph-name="_745" unicode="&#x246c;" 
d="M22 394c0 -259 201 -456 458 -456s458 197 458 456s-201 456 -458 456s-458 -197 -458 -456zM119 394c0 210 152 368 361 368s361 -158 361 -368c0 -211 -152 -369 -361 -369s-361 158 -361 369zM396 126v536h-98l-119 -63v-117l96 50v-406h121zM598 222
c-28 0 -47 24 -47 65v18h-121v-23c0 -100 67 -165 168 -165c99 0 167 65 167 165c0 63 -24 108 -69 129c35 22 55 62 55 111c0 86 -56 149 -153 149c-98 0 -154 -63 -154 -151v-21h118v16c0 31 14 50 36 50c21 0 34 -18 34 -50c0 -37 -16 -54 -41 -54h-55v-104h55
c33 0 53 -23 53 -70c0 -41 -19 -65 -46 -65z" />
    <glyph glyph-name="_746" unicode="&#x246d;" 
d="M22 394c0 -259 201 -456 458 -456s458 197 458 456s-201 456 -458 456s-458 -197 -458 -456zM119 394c0 210 152 368 361 368s361 -158 361 -368c0 -211 -152 -369 -361 -369s-361 158 -361 369zM396 126v536h-98l-119 -63v-117l96 50v-406h121zM542 329l62 128v-128h-62
zM771 329h-48v331h-124l-176 -340v-95h181v-101h119v101h48v104z" />
    <glyph glyph-name="_747" unicode="&#x246e;" 
d="M22 394c0 -259 201 -456 458 -456s458 197 458 456s-201 456 -458 456s-458 -197 -458 -456zM119 394c0 210 152 368 361 368s361 -158 361 -368c0 -211 -152 -369 -361 -369s-361 158 -361 369zM396 126v536h-98l-119 -63v-117l96 50v-406h121zM595 376
c27 0 43 -26 43 -78c0 -53 -16 -79 -43 -79c-24 0 -40 23 -43 68h-122c6 -106 64 -173 165 -173c103 0 164 69 164 182c0 124 -58 182 -140 182c-20 0 -37 -4 -51 -12l6 88h160v105h-275l-12 -313h113c8 18 20 30 35 30z" />
    <glyph glyph-name="_748" unicode="&#xbd;" 
d="M563 347h128v21c0 31 16 52 49 52c31 0 48 -21 48 -52c0 -26 -12 -46 -30 -66l-185 -213v-93h343v108h-173l114 129c43 49 59 83 59 136c0 102 -74 163 -176 163c-108 0 -177 -63 -177 -163v-22zM266 264v527h-111l-128 -59v-112l109 49v-405h130zM692 791h-128
l-388 -795h128z" />
    <glyph glyph-name="_749" unicode="&#x2153;" 
d="M266 264v527h-111l-128 -59v-112l109 49v-405h130zM692 791h-128l-388 -795h128zM741 428c31 0 47 -19 47 -51c0 -33 -19 -53 -55 -53h-44v-103h44c42 0 63 -20 63 -64c0 -42 -20 -66 -55 -66c-34 0 -55 24 -55 65v14h-128v-20c0 -92 64 -163 183 -163s184 70 184 165
c0 64 -31 107 -89 124c50 18 76 57 76 110c0 88 -67 146 -171 146s-170 -58 -170 -142v-17h123v6c0 30 17 49 47 49z" />
    <glyph glyph-name="_750" unicode="&#x2154;" 
d="M732 791h-127l-237 -498v79h-170l111 129c41 47 59 85 59 136c0 102 -73 163 -174 163c-105 0 -173 -63 -173 -163v-22h127v21c0 31 15 51 46 51c30 0 47 -20 47 -51c0 -26 -12 -45 -29 -65l-181 -214v-93h323l-127 -268h127zM758 428c29 0 44 -19 44 -51
c0 -33 -17 -53 -53 -53h-43v-103h44c41 0 60 -20 60 -64c0 -42 -19 -66 -52 -66s-53 24 -53 65v14h-127v-20c0 -92 64 -163 180 -163c117 0 180 70 180 165c0 64 -31 107 -87 124c49 18 74 58 74 110c0 88 -65 146 -167 146c-103 0 -167 -58 -167 -142v-17h122v6
c0 30 16 49 45 49z" />
    <glyph glyph-name="_751" unicode="&#xbc;" 
d="M266 264v527h-111l-128 -59v-112l109 49v-405h130zM702 791h-128l-388 -795h128zM653 194l92 159v-159h-92zM927 194h-53v329h-143l-198 -337v-98h212v-92h129v92h53v106z" />
    <glyph glyph-name="_752" unicode="&#xbe;" 
d="M659 194l88 154v-154h-88zM926 194h-52v328h-141l-193 -337v-97h207v-92h127v92h52v106zM197 695c27 0 44 -19 44 -51c0 -33 -17 -52 -52 -52h-44v-104h44c41 0 61 -20 61 -64c0 -42 -20 -65 -53 -65c-30 0 -53 24 -53 65v13h-126v-19c0 -92 63 -164 179 -164
c117 0 180 70 180 165c0 65 -31 108 -87 125c49 18 74 57 74 110c0 88 -65 145 -167 145s-167 -58 -167 -142v-17h123v7c0 29 15 48 44 48zM619 790l-378 -794h127l377 794h-126z" />
    <glyph glyph-name="_753" unicode="&#x215b;" 
d="M266 264v527h-111l-128 -59v-112l109 49v-405h130zM692 791h-128l-388 -795h128zM742 427c32 0 52 -20 52 -52c0 -31 -20 -50 -52 -50s-52 19 -52 50c0 32 20 52 52 52zM742 225c35 0 59 -23 59 -69c0 -44 -24 -68 -59 -68c-36 0 -60 24 -60 68c0 46 24 69 60 69z
M742 -14c115 0 189 67 189 163c0 63 -32 108 -88 129c47 17 75 61 75 112c0 83 -66 141 -176 141s-176 -58 -176 -141c0 -51 28 -95 74 -112c-55 -21 -87 -66 -87 -129c0 -96 73 -163 189 -163z" />
    <glyph glyph-name="_754" unicode="&#x215c;" 
d="M753 -14c113 0 185 67 185 163c0 62 -32 107 -86 129c45 17 73 61 73 111c0 83 -65 141 -172 141c-108 0 -172 -58 -172 -141c0 -50 27 -94 73 -111c-55 -22 -86 -67 -86 -129c0 -96 72 -163 185 -163zM753 324c-31 0 -50 19 -50 51s19 52 50 52c30 0 49 -20 49 -52
s-19 -51 -49 -51zM810 156c0 -45 -23 -68 -57 -68c-35 0 -58 23 -58 68s23 68 58 68c34 0 57 -23 57 -68zM196 695c27 0 44 -20 44 -51c0 -33 -17 -52 -52 -52h-44v-104h44c40 0 60 -20 60 -64c0 -42 -19 -65 -52 -65c-30 0 -53 22 -53 65v13h-127v-19
c0 -92 63 -164 180 -164c116 0 180 70 180 165c0 65 -32 108 -87 125c49 18 73 57 73 110c0 88 -64 145 -166 145s-167 -58 -167 -142v-17h122v7c0 29 15 48 45 48zM598 790l-377 -794h126l377 794h-126z" />
    <glyph glyph-name="_755" unicode="&#x215d;" 
d="M19 416c7 -98 68 -160 178 -160c114 0 175 68 175 182c0 110 -53 177 -141 177c-31 0 -56 -11 -71 -29l5 97h183v108h-299l-13 -305h117c7 20 26 31 45 31c31 0 50 -25 50 -79c0 -52 -19 -77 -51 -77c-29 0 -48 20 -51 55h-127zM753 427c31 0 50 -20 50 -52
c0 -31 -19 -50 -50 -50c-30 0 -49 19 -49 50c0 32 19 52 49 52zM753 225c34 0 57 -23 57 -69c0 -44 -23 -68 -57 -68s-57 24 -57 68c0 46 23 69 57 69zM753 -14c113 0 185 67 185 163c0 63 -31 107 -86 129c46 18 74 62 74 112c0 83 -65 141 -173 141
c-107 0 -172 -58 -172 -141c0 -50 28 -94 73 -112c-54 -22 -86 -66 -86 -129c0 -96 72 -163 185 -163zM725 791h-127l-377 -795h126z" />
    <glyph glyph-name="_756" unicode="&#x215e;" 
d="M705 791h-128l-388 -795h128zM749 427c32 0 52 -20 52 -52c0 -31 -20 -50 -52 -50s-52 19 -52 50c0 32 20 52 52 52zM749 225c36 0 60 -23 60 -69c0 -44 -24 -68 -60 -68s-60 24 -60 68c0 46 24 69 60 69zM749 -14c116 0 189 67 189 163c0 63 -32 108 -87 129
c46 17 74 61 74 112c0 83 -66 141 -176 141s-176 -58 -176 -141c0 -51 28 -95 75 -112c-56 -21 -88 -66 -88 -129c0 -96 74 -163 189 -163zM29 682h219l-162 -418h135l164 436v91h-356v-109z" />
    <glyph glyph-name="_757" unicode="&#xe6;" horiz-adv-x="980" 
d="M485 73c35 -59 98 -91 183 -91c136 0 228 69 248 187h-155c-7 -46 -44 -72 -96 -72c-72 0 -101 50 -108 140h370c1 13 1 28 1 43c0 184 -86 297 -258 297c-79 0 -143 -31 -178 -90c-34 59 -100 90 -184 90c-150 0 -230 -77 -237 -188h156c3 36 35 66 86 66
c59 0 89 -34 89 -88v-104c-20 51 -80 79 -153 79c-122 0 -201 -67 -201 -181c0 -113 79 -179 231 -179c96 0 174 34 206 91zM558 336c4 80 39 125 107 125c66 0 98 -46 106 -125h-213zM303 89c-66 0 -99 24 -99 72c0 49 33 74 99 74s99 -25 99 -74c0 -48 -34 -72 -99 -72z
" />
    <glyph glyph-name="_758" unicode="&#x111;" horiz-adv-x="628" 
d="M271 634h136v-158c-19 59 -77 101 -155 101c-134 0 -217 -96 -217 -297c0 -202 83 -298 217 -298c79 0 136 41 155 101v-87h155v638h62v90h-62v66h-155v-66h-136v-90zM299 101c-81 0 -109 59 -109 179c0 118 28 176 109 176c80 0 108 -58 108 -176
c0 -120 -27 -179 -108 -179z" />
    <glyph glyph-name="_759" unicode="&#xf0;" horiz-adv-x="597" 
d="M295 650c44 -35 74 -79 87 -130c-24 36 -71 58 -126 58c-134 0 -221 -94 -221 -298c0 -182 81 -298 264 -298s263 116 263 300c0 208 -48 347 -158 440l63 41l-38 54l-81 -54c-34 21 -73 39 -115 55l-79 -95c29 -9 56 -21 81 -34l-62 -41l37 -54zM407 280
c0 -120 -27 -178 -108 -178s-109 59 -109 178c0 118 28 176 109 176s108 -57 108 -176z" />
    <glyph glyph-name="_760" unicode="&#x127;" horiz-adv-x="617" 
d="M355 724h-136v66h-155v-66h-62v-90h62v-638h155v320c0 91 47 138 113 138c51 0 79 -33 79 -101v-357h156v359c0 145 -68 222 -189 222c-80 0 -138 -43 -159 -108v165h136v90z" />
    <glyph glyph-name="_761" unicode="&#x131;" horiz-adv-x="267" 
d="M55 -4h155v568h-155v-568z" />
    <glyph glyph-name="_762" unicode="&#x133;" horiz-adv-x="562" 
d="M55 654h155v137h-155v-137zM55 -4h155v568h-155v-568zM351 -51c0 -55 -23 -80 -72 -80h-44v-116c16 -2 49 -3 68 -3c136 0 203 63 203 184v630h-155v-615zM351 654h155v137h-155v-137z" />
    <glyph glyph-name="_763" unicode="&#x138;" horiz-adv-x="567" 
d="M52 -4h155v239h44l144 -239h167l-184 295l160 273h-164l-122 -216h-45v216h-155v-568z" />
    <glyph glyph-name="_764" unicode="&#x140;" horiz-adv-x="428" 
d="M210 -4v795h-155v-795h155zM419 497h-147v-147h147v147z" />
    <glyph glyph-name="_765" unicode="&#x142;" horiz-adv-x="357" 
d="M12 250l89 47v-301h155v381l89 48v111l-89 -47v302h-155v-383l-89 -47v-111z" />
    <glyph glyph-name="_766" unicode="&#xf8;" horiz-adv-x="598" 
d="M298 577c-176 0 -263 -111 -263 -297c0 -107 27 -188 83 -237l-52 -90h92l27 49c33 -13 70 -20 113 -20c178 0 263 109 263 298c0 104 -27 185 -82 236l51 90h-92l-28 -49c-32 13 -69 20 -112 20zM190 280c0 116 28 175 108 175c19 0 35 -3 49 -9l-147 -260
c-8 25 -10 56 -10 94zM298 103c-19 0 -36 2 -49 9l147 259c7 -24 11 -54 11 -91c0 -118 -28 -177 -109 -177z" />
    <glyph glyph-name="_767" unicode="&#x153;" horiz-adv-x="993" 
d="M310 456c81 0 109 -58 109 -176c0 -120 -28 -179 -109 -179c-80 0 -108 59 -108 179c0 118 28 176 108 176zM682 461c65 0 101 -44 106 -125h-213c4 80 39 125 107 125zM688 -18c133 0 225 66 245 187h-155c-8 -46 -43 -72 -96 -72c-70 0 -104 48 -108 140h369
c2 8 2 32 2 43c0 184 -87 297 -257 297c-90 0 -159 -39 -192 -99c-33 60 -102 99 -193 99c-170 0 -256 -114 -256 -297c0 -185 86 -298 256 -298c91 0 160 40 193 99c33 -60 101 -99 192 -99z" />
    <glyph glyph-name="_768" unicode="&#xdf;" horiz-adv-x="656" 
d="M628 195c0 120 -74 183 -171 201c81 21 132 89 132 176c0 120 -90 232 -269 232c-180 0 -269 -108 -269 -243v-565h164v560c0 72 38 110 105 110c60 0 103 -43 103 -102c0 -65 -32 -103 -100 -103h-27v-132h20c85 0 146 -52 146 -121c0 -58 -42 -89 -106 -89
c-27 0 -59 3 -81 10v-135c29 -7 69 -12 104 -12c150 0 249 75 249 213z" />
    <glyph glyph-name="_769" unicode="&#xfe;" horiz-adv-x="615" 
d="M206 280c0 118 28 176 109 176c80 0 108 -58 108 -176c0 -120 -28 -179 -108 -179c-81 0 -109 59 -109 179zM206 83c20 -60 77 -101 156 -101c134 0 216 95 216 298c0 202 -82 297 -216 297c-79 0 -136 -41 -156 -101v314h-155v-1040h155v333z" />
    <glyph glyph-name="_770" unicode="&#x167;" horiz-adv-x="436" 
d="M35 341v-90h68v-87c0 -130 58 -176 208 -176c28 0 74 1 95 3v117h-58c-69 0 -89 15 -89 79v64h115v90h-115v101h147v122h-147v160h-156v-160h-82v-122h82v-101h-68z" />
    <glyph glyph-name="_771" unicode="&#x14b;" horiz-adv-x="604" 
d="M399 -55c0 -53 -23 -76 -72 -76h-43v-116c16 -2 49 -3 68 -3c136 0 202 63 202 184v421c0 146 -68 223 -189 223c-80 0 -138 -44 -158 -108v94h-155v-568h155v320c0 91 45 140 111 140c53 0 81 -32 81 -103v-408z" />
    <glyph glyph-name="_772" unicode="&#x149;" horiz-adv-x="684" 
d="M634 355c0 146 -68 223 -188 223c-82 0 -139 -44 -159 -108v94h-156v-568h156v320c0 91 44 140 110 140c53 0 82 -32 82 -103v-357h155v359zM154 791h-147v-144h72c0 -46 -22 -66 -72 -71v-62c100 7 147 59 147 133v144z" />
    <glyph glyph-name="_773" unicode="&#x3200;" 
d="M34 389c0 -157 47 -304 136 -429h87c-81 128 -123 284 -123 429c0 144 42 301 123 429h-87c-89 -125 -136 -273 -136 -429zM926 389c0 156 -47 304 -136 429h-87c81 -128 123 -286 123 -431c0 -144 -42 -299 -123 -427h87c89 125 136 272 136 429zM233 592v-116h336v-280
h139v396h-475z" />
    <glyph glyph-name="_774" unicode="&#x3201;" 
d="M725 196v116h-336v280h-139v-396h475zM34 389c0 -157 47 -304 136 -429h87c-81 128 -123 284 -123 429c0 144 42 301 123 429h-87c-89 -125 -136 -273 -136 -429zM926 389c0 156 -47 304 -136 429h-87c81 -128 123 -286 123 -431c0 -144 -42 -299 -123 -427h87
c89 125 136 272 136 429z" />
    <glyph glyph-name="_775" unicode="&#x3202;" 
d="M384 312v164h329v116h-468v-396h475v116h-336zM34 389c0 -157 47 -304 136 -429h87c-81 128 -123 284 -123 429c0 144 42 301 123 429h-87c-89 -125 -136 -273 -136 -429zM926 389c0 156 -47 304 -136 429h-87c81 -128 123 -286 123 -431c0 -144 -42 -299 -123 -427h87
c89 125 136 272 136 429z" />
    <glyph glyph-name="_776" unicode="&#x3203;" 
d="M388 303v35h322v262h-462v-115h322v-33h-322v-263h476v114h-336zM34 389c0 -157 47 -304 136 -429h87c-81 128 -123 284 -123 429c0 144 42 301 123 429h-87c-89 -125 -136 -273 -136 -429zM926 389c0 156 -47 304 -136 429h-87c81 -128 123 -286 123 -431
c0 -144 -42 -299 -123 -427h87c89 125 136 272 136 429z" />
    <glyph glyph-name="_777" unicode="&#x3204;" 
d="M245 592v-396h468v396h-468zM574 476v-164h-190v164h190zM34 389c0 -157 47 -304 136 -429h87c-81 128 -123 284 -123 429c0 144 42 301 123 429h-87c-89 -125 -136 -273 -136 -429zM926 389c0 156 -47 304 -136 429h-87c81 -128 123 -286 123 -431
c0 -144 -42 -299 -123 -427h87c89 125 136 272 136 429z" />
    <glyph glyph-name="_778" unicode="&#x3205;" 
d="M384 493v99h-139v-396h468v396h-139v-99h-190zM574 379v-67h-190v67h190zM34 389c0 -157 47 -304 136 -429h87c-81 128 -123 284 -123 429c0 144 42 301 123 429h-87c-89 -125 -136 -273 -136 -429zM926 389c0 156 -47 304 -136 429h-87c81 -128 123 -286 123 -431
c0 -144 -42 -299 -123 -427h87c89 125 136 272 136 429z" />
    <glyph glyph-name="_779" unicode="&#x3206;" 
d="M746 205v117c-129 21 -192 91 -192 207v86h-139v-86c0 -117 -63 -187 -191 -207v-117c118 12 209 56 261 116c51 -60 144 -104 261 -116zM34 389c0 -157 47 -304 136 -429h87c-81 128 -123 284 -123 429c0 144 42 301 123 429h-87c-89 -125 -136 -273 -136 -429zM926 389
c0 156 -47 304 -136 429h-87c81 -128 123 -286 123 -431c0 -144 -42 -299 -123 -427h87c89 125 136 272 136 429z" />
    <glyph glyph-name="_780" unicode="&#x3207;" 
d="M364 393c0 27 9 49 27 65c20 17 50 27 89 27c38 0 67 -10 87 -27c19 -16 28 -38 28 -65s-9 -49 -28 -66c-19 -16 -49 -26 -87 -26c-39 0 -69 10 -89 26c-18 17 -27 39 -27 66zM224 393c0 -63 26 -114 69 -150c45 -38 109 -59 187 -59c77 0 141 21 186 59
c43 36 68 87 68 150s-25 114 -68 150c-45 37 -109 58 -186 58c-78 0 -142 -21 -187 -58c-43 -36 -69 -87 -69 -150zM34 389c0 -157 47 -304 136 -429h87c-81 128 -123 284 -123 429c0 144 42 301 123 429h-87c-89 -125 -136 -273 -136 -429zM926 389c0 156 -47 304 -136 429
h-87c81 -128 123 -286 123 -431c0 -144 -42 -299 -123 -427h87c89 125 136 272 136 429z" />
    <glyph glyph-name="_781" unicode="&#x3208;" 
d="M724 476v116h-490v-116h174c-9 -94 -67 -152 -182 -170v-117c111 12 200 53 252 109c52 -55 144 -97 254 -109v117c-116 18 -174 76 -183 170h175zM33 388c0 -156 47 -303 136 -427h87c-80 127 -122 283 -122 427c0 145 42 301 122 430h-87c-89 -126 -136 -273 -136 -430
zM926 388c0 157 -47 304 -136 430h-87c80 -129 122 -287 122 -431c0 -145 -42 -299 -122 -426h87c89 124 136 271 136 427z" />
    <glyph glyph-name="_782" unicode="&#x3209;" 
d="M724 437v116h-176v88h-139v-88h-174v-116h166c-20 -74 -77 -112 -175 -128v-117c111 11 200 50 253 106c52 -54 144 -95 253 -106v117c-98 16 -156 55 -176 128h168zM33 388c0 -156 47 -303 136 -427h87c-80 127 -122 283 -122 427c0 145 42 301 122 430h-87
c-89 -126 -136 -273 -136 -430zM926 388c0 157 -47 304 -136 430h-87c80 -129 122 -287 122 -431c0 -145 -42 -299 -122 -426h87c89 124 136 271 136 427z" />
    <glyph glyph-name="_783" unicode="&#x320a;" 
d="M245 592v-116h329v-55c-53 -6 -106 -8 -155 -8h-174v-115h174c53 0 106 2 155 8v-110h139v396h-468zM34 389c0 -157 47 -304 136 -429h87c-81 128 -123 284 -123 429c0 144 42 301 123 429h-87c-89 -125 -136 -273 -136 -429zM926 389c0 156 -47 304 -136 429h-87
c81 -128 123 -286 123 -431c0 -144 -42 -299 -123 -427h87c89 125 136 272 136 429z" />
    <glyph glyph-name="_784" unicode="&#x320b;" 
d="M388 303v35h315v114h-315v33h322v115h-462v-411h476v114h-336zM34 389c0 -157 47 -304 136 -429h87c-81 128 -123 284 -123 429c0 144 42 301 123 429h-87c-89 -125 -136 -273 -136 -429zM926 389c0 156 -47 304 -136 429h-87c81 -128 123 -286 123 -431
c0 -144 -42 -299 -123 -427h87c89 125 136 272 136 429z" />
    </font>
</defs>
</svg>
