<svg id="icon_benefit_checkup" xmlns="http://www.w3.org/2000/svg" xmlns:xlink="http://www.w3.org/1999/xlink" width="96" height="96" viewBox="0 0 96 96">
  <defs>
    <clipPath id="clip-path">
      <rect id="Rectangle_20" data-name="Rectangle 20" width="96" height="96" fill="none"/>
    </clipPath>
  </defs>
  <g id="Group_22" data-name="Group 22" clip-path="url(#clip-path)">
    <path id="Path_58" data-name="Path 58" d="M36.267,8.407a4.4,4.4,0,1,0,4.4,4.4,4.4,4.4,0,0,0-4.4-4.4m0,5.867a1.467,1.467,0,1,1,1.467-1.467,1.467,1.467,0,0,1-1.467,1.467" fill="#040506"/>
    <rect id="Rectangle_15" data-name="Rectangle 15" width="5.867" height="2.933" transform="translate(17.2 49.474)" fill="#040506"/>
    <rect id="Rectangle_16" data-name="Rectangle 16" width="22" height="2.933" transform="translate(26 49.474)" fill="#040506"/>
    <rect id="Rectangle_17" data-name="Rectangle 17" width="5.867" height="2.933" transform="translate(17.2 58.274)" fill="#040506"/>
    <rect id="Rectangle_18" data-name="Rectangle 18" width="5.867" height="2.933" transform="translate(17.2 67.074)" fill="#040506"/>
    <rect id="Rectangle_19" data-name="Rectangle 19" width="5.867" height="2.933" transform="translate(17.2 75.874)" fill="#040506"/>
    <path id="Path_59" data-name="Path 59" d="M90.534,52.408H89.067a22.171,22.171,0,0,1-13.2-4.4l-3.52-2.64a1.452,1.452,0,0,0-1.76,0l-2.053,1.54v-29.7a4.414,4.414,0,0,0-4.4-4.4h-12A4.415,4.415,0,0,0,48,9.874H44.568a8.8,8.8,0,0,0-16.6,0H24.534A4.415,4.415,0,0,0,20.4,12.808H8.4a4.414,4.414,0,0,0-4.4,4.4v70.4a4.414,4.414,0,0,0,4.4,4.4H64.134a4.424,4.424,0,0,0,3.446-1.687l3.256,1.54a1.434,1.434,0,0,0,1.262,0l12.877-6.116A13.142,13.142,0,0,0,92,74.085V53.874A1.466,1.466,0,0,0,90.534,52.408ZM52.4,15.741H64.134A1.466,1.466,0,0,1,65.6,17.208V49.02a22.312,22.312,0,0,1-2.933,1.54V20.141A1.467,1.467,0,0,0,61.2,18.674H52.4ZM23.067,14.274a1.466,1.466,0,0,1,1.467-1.466H29.08a1.45,1.45,0,0,0,1.438-1.174,5.866,5.866,0,0,1,11.5,0,1.45,1.45,0,0,0,1.438,1.174H48a1.466,1.466,0,0,1,1.467,1.466v5.867h-26.4Zm-1.467,8.8H50.934A1.466,1.466,0,0,0,52.4,21.608h7.334V51.586a22.043,22.043,0,0,1-5.867.822H52.4a1.466,1.466,0,0,0-1.466,1.466v4.4H26v2.934H50.934v5.866H26v2.934H50.934v4.077a14.46,14.46,0,0,0,.117,1.789H26v2.934H51.828a13.239,13.239,0,0,0,2.8,4.4H12.8v-61.6h7.334A1.466,1.466,0,0,0,21.6,23.074m42.534,66H8.4a1.466,1.466,0,0,1-1.466-1.466v-70.4A1.466,1.466,0,0,1,8.4,15.741H20.134v2.933h-8.8a1.467,1.467,0,0,0-1.467,1.467V84.674a1.467,1.467,0,0,0,1.467,1.467H58.795l5.9,2.8a1.471,1.471,0,0,1-.557.132M89.067,74.085a10.2,10.2,0,0,1-5.412,9.035L71.467,88.913,59.308,83.134a10.231,10.231,0,0,1-5.441-9.049V55.341a25.081,25.081,0,0,0,14.96-4.987l2.64-1.98,2.64,1.98a25.081,25.081,0,0,0,14.96,4.987Z" fill="#040506"/>
    <path id="Path_60" data-name="Path 60" d="M45.067,31.874h-4.4v-4.4A1.466,1.466,0,0,0,39.2,26.008H33.333a1.466,1.466,0,0,0-1.466,1.466v4.4h-4.4A1.467,1.467,0,0,0,26,33.341v5.867a1.466,1.466,0,0,0,1.467,1.466h4.4v4.4a1.466,1.466,0,0,0,1.466,1.467H39.2a1.467,1.467,0,0,0,1.467-1.467v-4.4h4.4a1.466,1.466,0,0,0,1.466-1.466V33.341a1.466,1.466,0,0,0-1.466-1.467M43.6,37.741H39.2a1.467,1.467,0,0,0-1.467,1.467v4.4H34.8v-4.4a1.467,1.467,0,0,0-1.467-1.467h-4.4V34.808h4.4A1.467,1.467,0,0,0,34.8,33.341v-4.4h2.933v4.4A1.467,1.467,0,0,0,39.2,34.808h4.4Z" fill="#040506"/>
    <path id="Path_61" data-name="Path 61" d="M84.887,57.952A27.933,27.933,0,0,1,72.347,52.7a1.452,1.452,0,0,0-1.76,0,27.942,27.942,0,0,1-12.54,5.251A1.478,1.478,0,0,0,56.8,59.4V74.085a7.323,7.323,0,0,0,3.784,6.409l.088.044,10.164,4.826a1.432,1.432,0,0,0,1.261,0l10.252-4.87a7.339,7.339,0,0,0,3.784-6.409V59.4A1.477,1.477,0,0,0,84.887,57.952ZM83.2,74.085a4.341,4.341,0,0,1-2.2,3.8l-9.533,4.532-9.5-4.5a4.4,4.4,0,0,1-2.23-3.828V60.636a30.974,30.974,0,0,0,11.734-4.958A30.969,30.969,0,0,0,83.2,60.636Z" fill="#040506"/>
    <path id="Path_62" data-name="Path 62" d="M65.17,70.438,63.1,72.512l4.4,4.4a1.468,1.468,0,0,0,2.074,0L81.3,65.179,79.229,63.1l-10.7,10.7Z" fill="#040506"/>
  </g>
  <circle id="Ellipse_4" data-name="Ellipse 4" cx="20" cy="20" r="20" transform="translate(46 43)" fill="rgba(50,225,240,0.5)"/>
</svg>
