<svg id="icon_benefit_equipment" xmlns="http://www.w3.org/2000/svg" xmlns:xlink="http://www.w3.org/1999/xlink" width="96" height="96" viewBox="0 0 96 96">
  <defs>
    <clipPath id="clip-path">
      <rect id="Rectangle_11" data-name="Rectangle 11" width="96" height="96" fill="none"/>
    </clipPath>
  </defs>
  <g id="Group_14" data-name="Group 14" clip-path="url(#clip-path)">
    <path id="Path_53" data-name="Path 53" d="M84.9,60.528V12.516a4.258,4.258,0,0,0-4.258-4.258H15.355A4.258,4.258,0,0,0,11.1,12.516V60.528L4.084,80.168A1.385,1.385,0,0,0,4,80.645v2.839a4.258,4.258,0,0,0,4.258,4.258H87.742A4.258,4.258,0,0,0,92,83.484V80.645a1.385,1.385,0,0,0-.084-.477ZM15.355,11.1h65.29a1.419,1.419,0,0,1,1.42,1.419V59.355H13.936V12.516A1.419,1.419,0,0,1,15.355,11.1m-1.845,51.1H82.49l6.082,17.033H63.3L61.27,71.094a4.258,4.258,0,0,0-4.132-3.223H38.862A4.256,4.256,0,0,0,34.731,71.1L32.7,79.226H7.433ZM60.377,79.226H35.623l1.861-7.441a1.421,1.421,0,0,1,1.378-1.076H57.138a1.421,1.421,0,0,1,1.378,1.075ZM87.742,84.9H8.258a1.419,1.419,0,0,1-1.419-1.419v-1.42H89.161v1.42A1.419,1.419,0,0,1,87.742,84.9" fill="#040506"/>
    <path id="Path_54" data-name="Path 54" d="M18.194,56.516H77.807A1.419,1.419,0,0,0,79.226,55.1V15.355a1.419,1.419,0,0,0-1.419-1.42H18.194a1.419,1.419,0,0,0-1.419,1.42V55.1a1.419,1.419,0,0,0,1.419,1.419m58.193-2.839H19.613V45.749L48.588,16.774h5.921L35.642,35.641l2.007,2.007L58.523,16.774H76.387Zm-31.813-36.9L19.613,41.735V16.774Z" fill="#040506"/>
    <rect id="Rectangle_10" data-name="Rectangle 10" width="4.014" height="2.839" transform="translate(31.384 39.9) rotate(-45)" fill="#040506"/>
  </g>
  <circle id="Ellipse_11" data-name="Ellipse 11" cx="20" cy="20" r="20" transform="translate(3)" fill="rgba(50,225,240,0.5)"/>
</svg>
