<svg id="icon_benefit_sbi" xmlns="http://www.w3.org/2000/svg" xmlns:xlink="http://www.w3.org/1999/xlink" width="96" height="96" viewBox="0 0 96 96">
  <defs>
    <clipPath id="clip-path">
      <rect id="Rectangle_3" data-name="Rectangle 3" width="96" height="96" fill="none"/>
    </clipPath>
  </defs>
  <g id="Group_4" data-name="Group 4" clip-path="url(#clip-path)">
    <path id="Path_13" data-name="Path 13" d="M86.323,57.936H83.484V49.42H80.646v8.516h-2.91C77,46.749,67.722,37.1,54.138,33.665a1.411,1.411,0,0,0-1.562.646l-.963,1.6a10.213,10.213,0,0,0-6.451-.251V33.807a1.42,1.42,0,0,0-1.42-1.42,43.063,43.063,0,0,0-7.751.7A9.876,9.876,0,0,0,26.71,26.71H23.871a1.419,1.419,0,0,0-1.419,1.419V38.295A28.362,28.362,0,0,0,12.065,49.42H8.258A4.258,4.258,0,0,0,4,53.678V65.033a4.259,4.259,0,0,0,4.258,4.258h3.809a29.221,29.221,0,0,0,11.8,11.976v6.475A4.258,4.258,0,0,0,28.129,92h5.678a4.258,4.258,0,0,0,4.258-4.258v-1.8a43,43,0,0,0,11.355,0v1.8A4.258,4.258,0,0,0,53.678,92h5.677a4.258,4.258,0,0,0,4.258-4.258V81.267c8.42-4.787,13.6-12.323,14.14-20.492h2.893v2.838a5.677,5.677,0,1,0,5.677-5.677m-41.4-17.664a1.431,1.431,0,0,0,.239-.788v-.817a7.286,7.286,0,0,1,4.952-.26L48.2,41.592a1.421,1.421,0,0,0,.036,1.519l2.013,3.019-4.6,2.762-3.066-5.11Zm16.6,38.907a1.418,1.418,0,0,0-.746,1.251v7.312a1.42,1.42,0,0,1-1.42,1.42H53.678a1.42,1.42,0,0,1-1.42-1.42V84.29a1.419,1.419,0,0,0-1.662-1.4,40.19,40.19,0,0,1-13.708,0,1.435,1.435,0,0,0-1.156.313,1.416,1.416,0,0,0-.506,1.085v3.452a1.419,1.419,0,0,1-1.419,1.42H28.129a1.42,1.42,0,0,1-1.419-1.42V80.43a1.42,1.42,0,0,0-.746-1.251A26.254,26.254,0,0,1,14.255,67.287a1.419,1.419,0,0,0-1.294-.835h-4.7a1.419,1.419,0,0,1-1.419-1.419V53.678a1.42,1.42,0,0,1,1.419-1.42h4.7a1.418,1.418,0,0,0,1.294-.834A25.486,25.486,0,0,1,24.6,40.3a1.42,1.42,0,0,0,.687-1.216V29.549H26.71a7.057,7.057,0,0,1,6.917,5.5,1.418,1.418,0,0,0,1.684,1.07,39.6,39.6,0,0,1,7.012-.867v3.806l-2.6,3.9a1.419,1.419,0,0,0-.036,1.519l4.258,7.1a1.421,1.421,0,0,0,1.948.486l7.1-4.258a1.42,1.42,0,0,0,.486-1.948.664.664,0,0,0-.036-.056L51.1,42.287l3.358-5.6c12.314,3.47,20.511,12.478,20.511,22.664,0,7.89-5.026,15.3-13.447,19.824m24.8-12.727a2.839,2.839,0,0,1-2.839-2.839V60.775h2.839a2.839,2.839,0,1,1,0,5.677" fill="#040506"/>
    <path id="Path_14" data-name="Path 14" d="M26.71,45.162a4.258,4.258,0,1,0,4.258,4.258,4.258,4.258,0,0,0-4.258-4.258m0,5.677a1.42,1.42,0,1,1,1.419-1.419,1.419,1.419,0,0,1-1.419,1.419" fill="#040506"/>
    <path id="Path_15" data-name="Path 15" d="M76.387,12.516V11.1H73.548v1.419a4.258,4.258,0,0,0-4.258,4.258v1.42a4.258,4.258,0,0,0,4.258,4.258V26.71a1.419,1.419,0,0,1-1.419-1.42H69.29a4.258,4.258,0,0,0,4.258,4.258v1.42h2.839v-1.42a4.258,4.258,0,0,0,4.258-4.258V23.871a4.258,4.258,0,0,0-4.258-4.258V15.355a1.419,1.419,0,0,1,1.419,1.419v1.42h2.839v-1.42a4.259,4.259,0,0,0-4.258-4.258m1.419,11.355V25.29a1.419,1.419,0,0,1-1.419,1.42V22.452a1.419,1.419,0,0,1,1.419,1.419m-4.258-4.258a1.419,1.419,0,0,1-1.419-1.419v-1.42a1.419,1.419,0,0,1,1.419-1.419Z" fill="#040506"/>
    <path id="Path_16" data-name="Path 16" d="M74.968,4A17.032,17.032,0,1,0,92,21.032,17.032,17.032,0,0,0,74.968,4m0,31.226A14.194,14.194,0,1,1,89.162,21.032,14.194,14.194,0,0,1,74.968,35.226" fill="#040506"/>
  </g>
  <circle id="Ellipse_6" data-name="Ellipse 6" cx="20" cy="20" r="20" transform="translate(55 1)" fill="rgba(50,225,240,0.5)"/>
</svg>
