<?xml version="1.0" encoding="utf-8"?>
<!-- Generator: Adobe Illustrator 26.3.1, SVG Export Plug-In . SVG Version: 6.00 Build 0)  -->
<svg version="1.1" id="icon_benefit_mobile" xmlns="http://www.w3.org/2000/svg" xmlns:xlink="http://www.w3.org/1999/xlink"
	 x="0px" y="0px" viewBox="0 0 96 96" style="enable-background:new 0 0 96 96;" xml:space="preserve">
<style type="text/css">
	.st0{fill:#272727;}
	.st1{opacity:0.5;fill:#32E1F0;}
	.st2{clip-path:url(#SVGID_00000109747351711380380140000008490560542301683645_);}
	.st3{fill:#040506;}
	.st4{clip-path:url(#SVGID_00000009554278952633948020000005633174474509342911_);}
	.st5{clip-path:url(#SVGID_00000025401720112187337010000010694107181675549081_);}
	.st6{clip-path:url(#SVGID_00000061450966419275270270000003127449136356391857_);}
	.st7{clip-path:url(#SVGID_00000137100560764665843260000015338797659570573489_);}
	.st8{opacity:0.6;fill:#00F9FF;}
</style>
<g>
	<g id="Group_1">
		<path id="Path_1" class="st0" d="M-141.4,28.1h-2.8c-3.9,0-7.1,3.2-7.1,7.1v13.7c-1.9-1.4-4.6-1.2-6.3,0.5l-10.4,10.5
			c-2.9,2.9-4.6,6.9-4.6,11v6.9h-1.4c-0.8,0-1.4,0.6-1.4,1.4c0,0,0,0,0,0v11.4c0,0.8,0.6,1.4,1.4,1.4h22.7c0.8,0,1.4-0.6,1.4-1.4
			c0,0,0,0,0,0V79.2c0-0.8-0.6-1.4-1.4-1.4h-1.4v-3.8l12.5-15.2c0.2-0.3,0.3-0.6,0.3-0.9V29.5C-140,28.8-140.6,28.1-141.4,28.1
			C-141.4,28.1-141.4,28.1-141.4,28.1 M-152.8,89.2h-19.9v-8.5h19.9V89.2z M-142.8,57.4l-12.5,15.2c-0.2,0.3-0.3,0.6-0.3,0.9v4.3
			h-14.2v-6.9c0-3.4,1.3-6.6,3.7-9l10.5-10.5c0.8-0.8,2-0.8,2.8,0l2.3,2.3l-7.5,7.5l2,2l8.5-8.5c0.6-0.6,0.6-1.5,0-2l-1-1V35.2
			c0-2.4,1.9-4.3,4.3-4.3c0,0,0,0,0,0h1.4L-142.8,57.4z"/>
		<path id="Path_2" class="st0" d="M-215.2,74.1v3.8h-1.4c-0.8,0-1.4,0.6-1.4,1.4c0,0,0,0,0,0v11.4c0,0.8,0.6,1.4,1.4,1.4h22.7
			c0.8,0,1.4-0.6,1.4-1.4c0,0,0,0,0,0V79.2c0-0.8-0.6-1.4-1.4-1.4h-1.4v-6.9c0-4.1-1.6-8.1-4.6-11l-10.5-10.5
			c-1.7-1.6-4.3-1.8-6.3-0.5V35.2c0-3.9-3.2-7.1-7.1-7.1h-2.8c-0.8,0-1.4,0.6-1.4,1.4c0,0,0,0,0,0v28.4c0,0.3,0.1,0.6,0.3,0.9
			L-215.2,74.1z M-195.4,89.2h-19.9v-8.5h19.9V89.2z M-225.2,31h1.4c2.4,0,4.3,1.9,4.3,4.3c0,0,0,0,0,0v16.4l-1,1
			c-0.6,0.6-0.6,1.5,0,2l8.5,8.5l2-2l-7.5-7.5l2.3-2.3c0.8-0.8,2-0.8,2.8,0l10.5,10.4c2.4,2.4,3.7,5.6,3.7,9v6.9h-14.2v-4.3
			c0-0.3-0.1-0.6-0.3-0.9l-12.5-15.2V31z"/>
		<path id="Path_3" class="st0" d="M-168.4,8.3h-5.7c-0.8,0-1.4,0.6-1.4,1.4v1.2l-7.6-6.5c-0.5-0.5-1.3-0.5-1.8,0l-19.9,17
			c-0.6,0.5-0.7,1.4-0.2,2c0,0,0,0.1,0.1,0.1l4.3,4.3c0.5,0.5,1.4,0.6,2,0l0.5-0.4v5.1h-5.7c-0.8,0-1.4,0.6-1.4,1.4c0,0,0,0,0,0v17
			c0,0.8,0.6,1.4,1.4,1.4h39.7c0.8,0,1.4-0.6,1.4-1.4v-17c0-0.8-0.6-1.4-1.4-1.4c0,0,0,0,0,0h-5.7v-5l0.5,0.4c0.6,0.5,1.4,0.5,2,0
			l4.3-4.3c0.6-0.6,0.6-1.5,0-2c0,0-0.1-0.1-0.1-0.1l-3.8-3.2V9.7C-167,8.9-167.6,8.3-168.4,8.3 M-172.6,11.1h2.8v4.6l-2.8-2.4V11.1
			z M-165.5,49.4h-36.9V35.2h36.9V49.4z M-181.2,32.4h-5.7v-4.3h5.7V32.4z M-172.6,32.4h-5.7v-5.7c0-0.8-0.6-1.4-1.4-1.4
			c0,0,0,0,0,0h-8.5c-0.8,0-1.4,0.6-1.4,1.4v5.7h-5.7v-7.6l11.4-10.3l11.4,10.3V32.4z M-168.4,24.7L-183,11.5
			c-0.5-0.5-1.4-0.5-1.9,0l-14.6,13.3l-2.2-2.2L-184,7.3l17.8,15.2L-168.4,24.7z"/>
		<path id="Path_4" class="st0" d="M-198.2,46.6h4.3v-2.8h-2.8v-2.8h2.8v-2.8h-4.3c-0.8,0-1.4,0.6-1.4,1.4v5.7
			C-199.6,45.9-199,46.6-198.2,46.6"/>
		<path id="Path_5" class="st0" d="M-168.4,45.2v-5.7c0-0.8-0.6-1.4-1.4-1.4h-4.3v2.8h2.8v2.8h-2.8v2.8h4.3
			C-169,46.6-168.4,45.9-168.4,45.2"/>
		<path id="Path_6" class="st0" d="M-184,48c3.1,0,5.7-2.5,5.7-5.7c0-3.1-2.5-5.7-5.7-5.7c-3.1,0-5.7,2.5-5.7,5.7
			C-189.7,45.5-187.1,48-184,48 M-184,39.5c1.6,0,2.8,1.3,2.8,2.8s-1.3,2.8-2.8,2.8c-1.6,0-2.8-1.3-2.8-2.8
			C-186.8,40.8-185.6,39.5-184,39.5C-184,39.5-184,39.5-184,39.5"/>
		<path id="Path_7" class="st0" d="M-155.2,23.5c0.6,0.6,1.5,0.6,2,0l7.3-7.3c2.1-2.1,2.1-5.6,0-7.7c-2.1-2.1-5.6-2.1-7.7,0
			l-0.7,0.7l-0.7-0.7c-2.1-2.1-5.6-2.1-7.7,0.1c-2.1,2.1-2.1,5.5,0,7.6L-155.2,23.5z M-158.7,9.7c0.7,0,1.3,0.3,1.8,0.8l1.7,1.7
			c0.6,0.6,1.5,0.6,2,0l1.7-1.7c1.1-1,2.7-0.9,3.7,0.2c0.9,1,0.9,2.5,0,3.5l-6.3,6.3l-6.3-6.3c-1-1-1-2.7,0-3.7
			C-160,9.9-159.4,9.7-158.7,9.7"/>
		<path id="Path_8" class="st0" d="M-209.3,6.8c-1.4,0-2.8,0.6-3.8,1.6l-0.7,0.7l-0.7-0.7c-2.1-2.1-5.6-2.1-7.7,0.1
			c-2.1,2.1-2.1,5.5,0,7.6l7.3,7.3c0.6,0.6,1.5,0.6,2,0l7.3-7.3c2.1-2.1,2.1-5.6,0-7.7C-206.5,7.4-207.9,6.8-209.3,6.8 M-207.5,14.1
			l-6.3,6.3l-6.3-6.3c-1-1.1-0.9-2.7,0.2-3.7c1-0.9,2.5-0.9,3.5,0l1.7,1.7c0.6,0.6,1.5,0.6,2,0l1.7-1.7c1.1-1,2.7-0.9,3.7,0.2
			C-206.6,11.6-206.6,13.1-207.5,14.1"/>
	</g>
	<circle class="st1" cx="-184" cy="28.1" r="20"/>
</g>
<g>
	<defs>
		<rect id="SVGID_1_" x="-116" width="96" height="96"/>
	</defs>
	<clipPath id="SVGID_00000082345501156756540630000006223088412608562879_">
		<use xlink:href="#SVGID_1_"  style="overflow:visible;"/>
	</clipPath>
	<g id="Group_2" style="clip-path:url(#SVGID_00000082345501156756540630000006223088412608562879_);">
		<path id="Path_9" class="st3" d="M-25.4,83.5h-18.5v-27c0-0.8-0.6-1.4-1.4-1.4h-8.5c-0.8,0-1.4,0.6-1.4,1.4c0,0,0,0,0,0v27h-5.7
			V33.8c0-0.8-0.6-1.4-1.4-1.4h-8.5c-0.8,0-1.4,0.6-1.4,1.4v49.7h-5.7v-27c0-0.8-0.6-1.4-1.4-1.4c0,0,0,0,0,0h-8.5
			c-0.8,0-1.4,0.6-1.4,1.4v27H-95v-44c0-0.8-0.6-1.4-1.4-1.4h-8.5c-0.8,0-1.4,0.6-1.4,1.4c0,0,0,0,0,0v44h-4.3
			c-0.8,0-1.4,0.6-1.4,1.4v5.7c0,0.8,0.6,1.4,1.4,1.4c0,0,0,0,0,0h85.2c0.8,0,1.4-0.6,1.4-1.4v-5.7C-24,84.1-24.6,83.5-25.4,83.5
			 M-52.4,57.9h5.7v25.5h-5.7V57.9z M-69.4,35.2h5.7v48.3h-5.7V35.2z M-86.5,57.9h5.7v25.5h-5.7V57.9z M-103.5,40.9h5.7v42.6h-5.7
			V40.9z M-26.8,89.2h-82.3v-2.8h82.3V89.2z"/>
		<path id="Path_10" class="st3" d="M-100.6,16.8c-3.1,0-5.7,2.5-5.7,5.7s2.5,5.7,5.7,5.7c0.9,0,1.9-0.2,2.7-0.7l9.6,10.4
			c-1.7,2.6-1,6.1,1.7,7.9c2.6,1.7,6.1,1,7.9-1.7c1.3-2,1.2-4.6-0.2-6.5l10.2-12.7c1.5,0.7,3.2,0.7,4.6,0l10.2,12.7
			c-0.7,1-1.1,2.2-1.1,3.4c0,3.2,2.5,5.7,5.7,5.7c3.2,0,5.7-2.5,5.7-5.7c0-3.2-2.5-5.7-5.7-5.7c-0.8,0-1.6,0.2-2.4,0.5L-62.1,23
			c1.9-2.5,1.4-6.1-1.1-8c-2.5-1.9-6.1-1.4-8,1.1c-1.5,2-1.5,4.8,0,6.8l-10.2,12.7c-1.6-0.7-3.4-0.7-5,0.2l-9.6-10.4
			c0.6-0.9,0.9-2,0.9-3.1C-95,19.3-97.5,16.8-100.6,16.8L-100.6,16.8 M-103.5,22.5c0-1.6,1.3-2.8,2.8-2.8s2.8,1.3,2.8,2.8
			c0,1.6-1.3,2.8-2.8,2.8C-102.2,25.3-103.5,24-103.5,22.5L-103.5,22.5 M-46.7,40.9c0,1.6-1.3,2.8-2.8,2.8c-1.6,0-2.8-1.3-2.8-2.8
			s1.3-2.8,2.8-2.8l0,0C-48,38.1-46.7,39.3-46.7,40.9 M-66.6,16.8c1.6,0,2.8,1.3,2.8,2.8c0,1.6-1.3,2.8-2.8,2.8s-2.8-1.3-2.8-2.8
			S-68.1,16.8-66.6,16.8L-66.6,16.8 M-80.8,40.9c0,1.6-1.3,2.8-2.8,2.8s-2.8-1.3-2.8-2.8s1.3-2.8,2.8-2.8S-80.8,39.3-80.8,40.9
			L-80.8,40.9"/>
		<path id="Path_11" class="st3" d="M-38.2,11.1V9.7H-41v1.4c-2.4,0-4.3,1.9-4.3,4.3v1.4c0,2.4,1.9,4.3,4.3,4.3c0,0,0,0,0,0v4.3
			c-0.8,0-1.4-0.6-1.4-1.4c0,0,0,0,0,0h-2.8c0,2.4,1.9,4.3,4.3,4.3c0,0,0,0,0,0v1.4h2.8v-1.4c2.4,0,4.3-1.9,4.3-4.3c0,0,0,0,0,0
			v-1.4c0-2.4-1.9-4.3-4.3-4.3v-4.3c0.8,0,1.4,0.6,1.4,1.4c0,0,0,0,0,0v1.4h2.8v-1.4C-33.9,13-35.8,11.1-38.2,11.1 M-36.8,22.5v1.4
			c0,0.8-0.6,1.4-1.4,1.4c0,0,0,0,0,0V21C-37.4,21-36.8,21.7-36.8,22.5C-36.8,22.5-36.8,22.5-36.8,22.5 M-41,18.2
			c-0.8,0-1.4-0.6-1.4-1.4c0,0,0,0,0,0v-1.4c0-0.8,0.6-1.4,1.4-1.4c0,0,0,0,0,0V18.2z"/>
		<path id="Path_12" class="st3" d="M-39.6,4c-8.6,0-15.6,7-15.6,15.6s7,15.6,15.6,15.6s15.6-7,15.6-15.6S-31,4-39.6,4
			C-39.6,4-39.6,4-39.6,4 M-39.6,32.4c-7.1,0-12.8-5.7-12.8-12.8s5.7-12.8,12.8-12.8c7.1,0,12.8,5.7,12.8,12.8S-32.6,32.4-39.6,32.4
			L-39.6,32.4"/>
	</g>
</g>
<circle class="st1" cx="-91.9" cy="31.5" r="20"/>
<g>
	<defs>
		<rect id="SVGID_00000181792877108020465540000004487614976208205203_" width="96" height="96"/>
	</defs>
	<clipPath id="SVGID_00000148646819185847083000000015228991352118759822_">
		<use xlink:href="#SVGID_00000181792877108020465540000004487614976208205203_"  style="overflow:visible;"/>
	</clipPath>
	<g id="Group_4" style="clip-path:url(#SVGID_00000148646819185847083000000015228991352118759822_);">
		<path id="Path_13" class="st3" d="M86.3,57.9h-2.8v-8.5h-2.8v8.5h-2.9c-0.7-11.2-10-20.8-23.6-24.3c-0.6-0.2-1.2,0.1-1.6,0.6
			l-1,1.6c-2.1-0.8-4.3-0.9-6.5-0.3v-1.9c0-0.8-0.6-1.4-1.4-1.4c-2.6,0-5.2,0.2-7.8,0.7c-1.5-3.9-5.2-6.4-9.3-6.4h-2.8
			c-0.8,0-1.4,0.6-1.4,1.4c0,0,0,0,0,0v10.2c-4.4,2.7-8,6.5-10.4,11.1H8.3c-2.4,0-4.3,1.9-4.3,4.3v0V65c0,2.4,1.9,4.3,4.3,4.3h3.8
			c2.7,5.1,6.8,9.2,11.8,12v6.5c0,2.4,1.9,4.3,4.3,4.3c0,0,0,0,0,0h5.7c2.4,0,4.3-1.9,4.3-4.3l0,0v-1.8c3.8,0.5,7.6,0.5,11.4,0v1.8
			c0,2.4,1.9,4.3,4.3,4.3c0,0,0,0,0,0h5.7c2.4,0,4.3-1.9,4.3-4.3l0,0v-6.5c8.4-4.8,13.6-12.3,14.1-20.5h2.9v2.8
			c0,3.1,2.5,5.7,5.7,5.7c3.1,0,5.7-2.5,5.7-5.7C92,60.5,89.5,57.9,86.3,57.9 M44.9,40.3c0.2-0.2,0.2-0.5,0.2-0.8v-0.8
			c1.6-0.7,3.3-0.8,5-0.3l-1.9,3.2c-0.3,0.5-0.3,1.1,0,1.5l2,3l-4.6,2.8l-3.1-5.1L44.9,40.3z M61.5,79.2c-0.5,0.2-0.7,0.7-0.7,1.3
			v7.3c0,0.8-0.6,1.4-1.4,1.4h-5.7c-0.8,0-1.4-0.6-1.4-1.4v-3.5c0-0.8-0.6-1.4-1.4-1.4c-0.1,0-0.2,0-0.2,0c-4.5,0.8-9.2,0.8-13.7,0
			c-0.4-0.1-0.8,0-1.2,0.3c-0.3,0.3-0.5,0.7-0.5,1.1v3.5c0,0.8-0.6,1.4-1.4,1.4c0,0,0,0,0,0h-5.7c-0.8,0-1.4-0.6-1.4-1.4v-7.3
			c0-0.5-0.3-1-0.7-1.3c-5.1-2.6-9.2-6.8-11.7-11.9c-0.2-0.5-0.7-0.8-1.3-0.8H8.3c-0.8,0-1.4-0.6-1.4-1.4V53.7
			c0-0.8,0.6-1.4,1.4-1.4H13c0.6,0,1.1-0.3,1.3-0.8c2.2-4.7,5.8-8.6,10.3-11.1c0.4-0.3,0.7-0.7,0.7-1.2v-9.5h1.4
			c3.3,0,6.2,2.3,6.9,5.5c0.2,0.8,0.9,1.2,1.7,1.1c2.3-0.5,4.7-0.8,7-0.9v3.8L39.7,43c-0.3,0.5-0.3,1,0,1.5l4.3,7.1
			c0.4,0.7,1.3,0.9,1.9,0.5l7.1-4.3c0.7-0.4,0.9-1.3,0.5-1.9c0,0,0,0,0-0.1l-2.3-3.5l3.4-5.6C66.8,40.2,75,49.2,75,59.4
			C75,67.2,69.9,74.7,61.5,79.2 M86.3,66.4c-1.6,0-2.8-1.3-2.8-2.8v-2.8h2.8c1.6,0,2.9,1.2,2.9,2.8c0,1.6-1.2,2.9-2.8,2.9
			C86.4,66.5,86.4,66.5,86.3,66.4"/>
		<path id="Path_14" class="st3" d="M26.7,45.2c-2.4,0-4.3,1.9-4.3,4.3s1.9,4.3,4.3,4.3s4.3-1.9,4.3-4.3l0,0
			C31,47.1,29.1,45.2,26.7,45.2 M26.7,50.8c-0.8,0-1.4-0.6-1.4-1.4c0-0.8,0.6-1.4,1.4-1.4c0.8,0,1.4,0.6,1.4,1.4c0,0,0,0,0,0
			C28.1,50.2,27.5,50.8,26.7,50.8"/>
		<path id="Path_15" class="st3" d="M76.4,12.5v-1.4h-2.8v1.4c-2.4,0-4.3,1.9-4.3,4.3c0,0,0,0,0,0v1.4c0,2.4,1.9,4.3,4.3,4.3l0,0
			v4.3c-0.8,0-1.4-0.6-1.4-1.4c0,0,0,0,0,0h-2.8c0,2.4,1.9,4.3,4.3,4.3l0,0V31h2.8v-1.4c2.4,0,4.3-1.9,4.3-4.3v0v-1.4
			c0-2.4-1.9-4.3-4.3-4.3l0,0v-4.3c0.8,0,1.4,0.6,1.4,1.4v1.4h2.8v-1.4C80.6,14.4,78.7,12.5,76.4,12.5 M77.8,23.9v1.4
			c0,0.8-0.6,1.4-1.4,1.4c0,0,0,0,0,0v-4.3C77.2,22.5,77.8,23.1,77.8,23.9 M73.5,19.6c-0.8,0-1.4-0.6-1.4-1.4v-1.4
			c0-0.8,0.6-1.4,1.4-1.4V19.6z"/>
		<path id="Path_16" class="st3" d="M75,4c-9.4,0-17,7.6-17,17s7.6,17,17,17s17-7.6,17-17l0,0C92,11.6,84.4,4,75,4 M75,35.2
			c-7.8,0-14.2-6.4-14.2-14.2S67.1,6.8,75,6.8S89.2,13.2,89.2,21v0C89.2,28.9,82.8,35.2,75,35.2L75,35.2"/>
	</g>
</g>
<g>
	<defs>
		<rect id="SVGID_00000060746125278630757720000012707441911094706100_" x="116" width="96" height="96"/>
	</defs>
	<clipPath id="SVGID_00000026147959168428229950000008365804594915625092_">
		<use xlink:href="#SVGID_00000060746125278630757720000012707441911094706100_"  style="overflow:visible;"/>
	</clipPath>
	<g id="Group_6" style="clip-path:url(#SVGID_00000026147959168428229950000008365804594915625092_);">
		<path id="Path_17" class="st3" d="M171.1,49.4c0,7.8,6.4,14.2,14.2,14.2c7.8,0,14.2-6.4,14.2-14.2s-6.4-14.2-14.2-14.2
			c0,0,0,0,0,0C177.5,35.2,171.1,41.6,171.1,49.4 M196.6,49.4c0,6.3-5.1,11.4-11.4,11.4c-6.3,0-11.4-5.1-11.4-11.4
			c0-6.3,5.1-11.4,11.4-11.4C191.6,38.1,196.6,43.2,196.6,49.4"/>
		<path id="Path_18" class="st3" d="M183.9,40.9v1.7c-2.2,0.8-3.4,3.2-2.6,5.4c0.6,1.7,2.2,2.8,4,2.8c0.8,0,1.4,0.6,1.4,1.4
			s-0.6,1.4-1.4,1.4c-0.8,0-1.4-0.6-1.4-1.4c0,0,0,0,0,0H181c0,1.8,1.1,3.4,2.8,4v1.7h2.8v-1.7c2.2-0.8,3.4-3.2,2.6-5.4
			c-0.6-1.7-2.2-2.8-4-2.8c-0.8,0-1.4-0.6-1.4-1.4s0.6-1.4,1.4-1.4c0.8,0,1.4,0.6,1.4,1.4v0h2.8c0-1.8-1.1-3.4-2.8-4v-1.7H183.9z"/>
		<path id="Path_19" class="st3" d="M206.6,66.5c-2.1,0-4.1,0.5-6,1.4l-0.6,0.3c-3,1.5-6.5,1.5-9.5,0l-0.6-0.3
			c-3.8-1.9-8.2-1.9-12,0l-0.6,0.3c-3,1.5-6.5,1.5-9.5,0l-0.6-0.3c-3-1.5-6.4-1.8-9.6-0.9c-1.9-5.9-6.8-10.4-12.8-11.7
			c-1.1-0.2-2.3-0.5-3.4-0.6v-3c0-5.4,1.9-10.6,5.5-14.6l4.7,4.7c1.7,1.7,2.6,3.9,2.6,6.3v7.1c0,0.6,0.4,1.2,1,1.4
			c0.1,0,0.3,0.1,0.4,0.1c0.5,0,0.9-0.2,1.2-0.6l5.6-7.8c1.1-1.6,1.8-3.5,1.8-5.5c0-3.3-1.7-6.4-4.6-8.1c-1.6-1-3.4-1.6-5.3-1.9
			c4.3-0.8,8.7,0.8,11.4,4.1l3,3.7c0.5,0.6,1.4,0.7,2,0.2c0.3-0.3,0.5-0.7,0.5-1.1v-5.1c0-2.4-0.4-4.8-1.1-7
			c-1.2-3.7-4.8-6.3-8.7-6.3c-2.1,0-4.2,0.4-6.2,1.2c-0.1,0-0.1,0.1-0.2,0.1c0.3-0.2,0.6-0.4,0.9-0.6c1-0.5,2.1-0.9,3.2-1.1
			l13.7-2.5c0.8-0.1,1.3-0.9,1.1-1.6c-0.1-0.4-0.3-0.8-0.7-1l-7.1-4.1c-6.6-3.8-15-1.5-18.8,5.1c-0.2,0.4-0.5,0.9-0.7,1.3l-0.5,1.2
			c-0.2-0.5-0.3-0.9-0.5-1.4c-2.9-6.7-10.7-9.8-17.4-6.9c-0.7,0.3-1.5,0.7-2.1,1.2l-5.5,3.7c-0.7,0.4-0.8,1.3-0.4,2
			c0.3,0.4,0.7,0.6,1.2,0.6h5.2c2.7,0,5.4,0.9,7.6,2.5c1.1,0.9,2.1,1.9,2.9,3.1l1.9,2.9c-3.5-2.3-8.2-1.7-10.9,1.6l-5,6.1
			c-0.5,0.6-0.4,1.5,0.2,2c0.3,0.2,0.6,0.3,0.9,0.3c0.2,0,0.3,0,0.4-0.1l5.8-1.9c2.2-0.7,4.5-1,6.8-0.7c-4.7,3.8-7.4,9.5-7.4,15.5
			v4.2c-0.2,0-0.3,0-0.5,0c-2.7,0-5.3,0.4-7.9,1.3l-0.6,0.2c-0.6,0.2-1,0.7-1,1.3v25.6c0,0.4,0.1,0.7,0.4,1l0.3,0.3
			c1.9,1.9,4.5,3,7.2,3c1.6,0,3.1-0.4,4.5-1.1l1.3-0.6c3-1.5,6.5-1.5,9.5,0l0.6,0.3c3.8,1.9,8.2,1.9,12,0l0.6-0.3
			c3-1.5,6.5-1.5,9.5,0l0.6,0.3c3.8,1.9,8.2,1.9,12,0l0.6-0.3c3-1.5,6.5-1.5,9.5,0l0.6,0.3c3.8,1.9,8.2,1.9,12,0l0.6-0.3
			c1.5-0.7,3.1-1.1,4.7-1.1c0.8,0,1.4-0.6,1.4-1.4V67.9C208,67.1,207.4,66.5,206.6,66.5C206.6,66.5,206.6,66.5,206.6,66.5z
			 M161.2,42.6c0,1.4-0.4,2.7-1.2,3.8l-3,4.2V48c0-3.1-1.2-6.1-3.4-8.3l-4.5-4.5h2.8c2.2,0,4.3,0.6,6.2,1.7
			C159.9,38.1,161.2,40.3,161.2,42.6 M156.1,24.9c1.6-0.7,3.4-1,5.1-1c2.7,0,5.1,1.7,6,4.3c0.7,2,1,4.1,1,6.1v1.2l-0.5-0.6
			c-3.9-4.7-10.4-6.5-16.2-4.6l-2.5,0.8l0.8-1.2C151.3,27.7,153.5,25.9,156.1,24.9z M159.3,12.5c1.9,0,3.8,0.5,5.4,1.4l3.7,2.1
			l-9.9,1.8c-1.4,0.3-2.7,0.7-4,1.3c-2.9,1.4-5.2,3.7-6.6,6.6l-1,2v-3.4l2.3-5.3C151,15.1,155,12.5,159.3,12.5z M136,18.5
			c-2.7-2-5.9-3.1-9.3-3.1h-0.6l1.6-1.1c4.8-3.2,11.2-1.9,14.4,2.9c0.4,0.5,0.7,1.1,0.9,1.7c0.7,1.7,1.1,3.4,1.1,5.2v5.1l-4.6-6.9
			C138.6,20.8,137.4,19.5,136,18.5z M129.7,31.9l-1.1,0.4l1.9-2.2c1.9-2.3,5.3-2.6,7.6-0.7c0,0,0,0,0,0l2.6,2.2l-1.9-0.3
			C135.7,30.7,132.6,31,129.7,31.9 M132.8,49.5c0-6.2,3.3-11.9,8.7-14.9l3.3,0.5c-4.1,4.6-6.3,10.5-6.3,16.6v2.6
			c-1.9-0.2-3.8-0.4-5.7-0.5V49.5z M122.8,57.5c2.1-0.7,4.4-1,6.6-1c4.9,0,9.8,0.5,14.6,1.5c5.1,1.1,9.3,4.9,10.8,9.9l-0.3,0.2
			c-3,1.5-6.5,1.5-9.5,0l-0.6-0.3c-3.8-1.9-8.2-1.9-12,0l-1.3,0.6c-1,0.5-2.1,0.8-3.3,0.8c-1.9,0-3.7-0.7-5-2
			C122.8,67.3,122.8,57.5,122.8,57.5z M132.4,71.1l1.3-0.6c3-1.5,6.5-1.5,9.5,0l0.6,0.3c3.8,1.9,8.2,1.9,12,0l0.6-0.3
			c3-1.5,6.5-1.5,9.5,0l0.6,0.3c3.8,1.9,8.2,1.9,12,0l0.6-0.3c3-1.5,6.5-1.5,9.5,0l0.6,0.3c3.8,1.9,8.2,1.9,12,0l0.6-0.3
			c1-0.5,2.2-0.9,3.3-1v4.2c-1.6,0.2-3.2,0.6-4.6,1.3l-0.6,0.3c-3,1.5-6.5,1.5-9.5,0l-0.6-0.3c-3.8-1.9-8.2-1.9-12,0l-0.6,0.3
			c-3,1.5-6.5,1.5-9.5,0l-0.6-0.3c-3.8-1.9-8.2-1.9-12,0l-0.6,0.3c-3,1.5-6.5,1.5-9.5,0l-0.6-0.3c-3.8-1.9-8.2-1.9-12,0l-1.3,0.6
			c-1,0.5-2.1,0.8-3.3,0.8c-1.9,0-3.7-0.7-5-2v-3.6C125.8,72.4,129.4,72.5,132.4,71.1z M200.6,82.1l-0.6,0.3c-3,1.5-6.5,1.5-9.5,0
			l-0.6-0.3c-3.8-1.9-8.2-1.9-12,0l-0.6,0.3c-3,1.5-6.5,1.5-9.5,0l-0.6-0.3c-3.8-1.9-8.2-1.9-12,0l-0.6,0.3c-3,1.5-6.5,1.5-9.5,0
			l-0.6-0.3c-3.8-1.9-8.2-1.9-12,0l-1.3,0.6c-1,0.5-2.1,0.8-3.3,0.8c-1.9,0-3.7-0.7-5-2v-3.6c1.5,0.9,3.3,1.3,5,1.3
			c1.6,0,3.1-0.4,4.5-1.1l1.3-0.6c3-1.5,6.5-1.5,9.5,0l0.6,0.3c3.8,1.9,8.2,1.9,12,0l0.6-0.3c3-1.5,6.5-1.5,9.5,0l0.6,0.3
			c3.8,1.9,8.2,1.9,12,0l0.6-0.3c3-1.5,6.5-1.5,9.5,0l0.6,0.3c3.8,1.9,8.2,1.9,12,0l0.6-0.3c1-0.5,2.2-0.9,3.3-1v4.2
			C203.6,80.9,202,81.3,200.6,82.1z"/>
	</g>
</g>
<g>
	<defs>
		<rect id="SVGID_00000140709853470680036850000009031033807587581109_" x="-232" y="140.8" width="96" height="96"/>
	</defs>
	<clipPath id="SVGID_00000160876215974912380670000013151249941326098342_">
		<use xlink:href="#SVGID_00000140709853470680036850000009031033807587581109_"  style="overflow:visible;"/>
	</clipPath>
	<g id="Group_8" style="clip-path:url(#SVGID_00000160876215974912380670000013151249941326098342_);">
		<path id="Path_20" class="st3" d="M-189.7,204.4V203h-2.8v1.4c-2.4,0-4.3,1.9-4.3,4.3v1.4c0,2.4,1.9,4.3,4.3,4.3c0,0,0,0,0,0v4.3
			c-0.8,0-1.4-0.6-1.4-1.4c0,0,0,0,0,0h-2.8c0,2.4,1.9,4.3,4.3,4.3c0,0,0,0,0,0v1.4h2.8v-1.4c2.4,0,4.3-1.9,4.3-4.3l0,0v-1.4
			c0-2.4-1.9-4.3-4.3-4.3c0,0,0,0,0,0v-4.3c0.8,0,1.4,0.6,1.4,1.4c0,0,0,0,0,0v1.4h2.8v-1.4C-185.4,206.3-187.3,204.4-189.7,204.4
			 M-188.3,215.8v1.4c0,0.8-0.6,1.4-1.4,1.4c0,0,0,0,0,0v-4.3C-188.9,214.4-188.3,215-188.3,215.8 M-192.5,211.5
			c-0.8,0-1.4-0.6-1.4-1.4c0,0,0,0,0,0v-1.4c0-0.8,0.6-1.4,1.4-1.4c0,0,0,0,0,0V211.5z"/>
		<path id="Path_21" class="st3" d="M-141.4,173.2h-10c-0.2-1.1-0.5-2.1-1-3.1l12.3-23.2c0.4-0.7,0.1-1.6-0.6-1.9
			c-0.2-0.1-0.4-0.2-0.7-0.2h-9.9c-0.5,0-1,0.3-1.3,0.8l-8.7,17.3l-8.7-17.3c-0.2-0.5-0.7-0.8-1.3-0.8h-9.9c-0.8,0-1.4,0.6-1.4,1.4
			c0,0.2,0.1,0.5,0.2,0.7l12.3,23.2c-0.5,1-0.8,2-1,3.1h-10c-0.8,0-1.4,0.6-1.4,1.4v12.8h-41.2c-0.8,0-1.4,0.6-1.4,1.4v4.3h-1.4
			c-0.8,0-1.4,0.6-1.4,1.4v36.9c0,0.8,0.6,1.4,1.4,1.4c0,0,0,0,0,0h85.2c0.8,0,1.4-0.6,1.4-1.4v-56.8
			C-140,173.8-140.6,173.2-141.4,173.2 M-150.5,147.7h6.7l-10.5,19.9c-1.3-1.3-3-2.2-4.8-2.6L-150.5,147.7z M-172.1,147.7l8.6,17.3
			c-1.8,0.4-3.5,1.3-4.8,2.6l-10.5-19.9H-172.1z M-202.5,213c0-6.3,5.1-11.3,11.3-11.4c3.3,0,6.4,1.4,8.5,3.9v15
			c-4.1,4.7-11.3,5.2-16,1.1C-201,219.3-202.5,216.2-202.5,213 M-199.6,224.3h-15.8c-0.5-2-2.1-3.6-4.1-4.1v-14.6
			c2-0.5,3.6-2.1,4.1-4.1h15.8c-6.3,4.7-7.6,13.5-2.9,19.8C-201.7,222.5-200.7,223.5-199.6,224.3z M-182.6,201.6L-182.6,201.6
			L-182.6,201.6L-182.6,201.6z M-182.6,224.3L-182.6,224.3L-182.6,224.3L-182.6,224.3z M-222.3,190.2h39.7v2.8h-39.7V190.2z
			 M-225.2,195.9h42.6v2.8h-34.1c-0.8,0-1.4,0.6-1.4,1.4c0,0,0,0,0,0c0,1.6-1.3,2.8-2.8,2.8c-0.8,0-1.4,0.6-1.4,1.4c0,0,0,0,0,0v17
			c0,0.8,0.6,1.4,1.4,1.4c0,0,0,0,0,0c1.6,0,2.8,1.3,2.8,2.8c0,0.8,0.6,1.4,1.4,1.4h34.1v2.8h-42.6V195.9z M-142.8,230h-36.9V176
			h9.9c0.8,0,1.4-0.6,1.4-1.4c-0.1-3.9,3-7.2,6.9-7.3c3.9-0.1,7.2,3,7.3,6.9c0,0.1,0,0.3,0,0.4c0,0.8,0.6,1.4,1.4,1.4h9.9
			L-142.8,230z"/>
		<path id="Path_22" class="st3" d="M-161.3,178.9c2.4,0,4.3-1.9,4.3-4.3s-1.9-4.3-4.3-4.3c-2.4,0-4.3,1.9-4.3,4.3
			S-163.6,178.9-161.3,178.9L-161.3,178.9 M-161.3,173.2c0.8,0,1.4,0.6,1.4,1.4s-0.6,1.4-1.4,1.4s-1.4-0.6-1.4-1.4c0,0,0,0,0,0
			C-162.7,173.8-162.1,173.2-161.3,173.2"/>
		<path id="Path_23" class="st3" d="M-176.9,183.1v28.4c0,0.8,0.6,1.4,1.4,1.4h28.4c0.8,0,1.4-0.6,1.4-1.4v-28.4
			c0-0.8-0.6-1.4-1.4-1.4c0,0,0,0,0,0h-28.4C-176.3,181.7-176.9,182.4-176.9,183.1 M-166.8,197.3h1.2c1.6,0,3.2-0.7,4.3-2
			c1.1,1.2,2.6,2,4.3,2h1.2c-0.8,3-3.8,4.9-6.9,4.1C-164.7,200.9-166.3,199.3-166.8,197.3L-166.8,197.3z M-159.9,190.4
			c2,0.5,3.5,2.1,4.1,4.1h-1.2c-1.6,0-2.8-1.3-2.8-2.8L-159.9,190.4z M-166.8,194.5c0.5-2,2.1-3.5,4.1-4.1v1.2
			c0,1.6-1.3,2.8-2.8,2.8H-166.8z M-168.2,210.1c0.8-3.8,4.5-6.3,8.4-5.5c2.8,0.6,5,2.7,5.5,5.5H-168.2z M-174.1,184.6h25.5v25.5h-3
			c-0.4-3-2.3-5.7-4.9-7.2c3.9-2.7,4.8-8,2.1-11.9c-2.7-3.9-8-4.8-11.9-2.1c-3.9,2.7-4.8,8-2.1,11.9c0.6,0.8,1.3,1.5,2.1,2.1
			c-2.7,1.5-4.5,4.2-4.9,7.2h-3V184.6z"/>
		<rect id="Rectangle_5" x="-176.9" y="215.8" class="st3" width="31.2" height="2.8"/>
		<rect id="Rectangle_6" x="-176.9" y="221.5" class="st3" width="31.2" height="2.8"/>
	</g>
</g>
<g>
	<defs>
		<rect id="SVGID_00000096773126387508953850000017077324093033247105_" x="-116" y="140.8" width="96" height="96"/>
	</defs>
	<clipPath id="SVGID_00000121983791320405474620000012717154463421960109_">
		<use xlink:href="#SVGID_00000096773126387508953850000017077324093033247105_"  style="overflow:visible;"/>
	</clipPath>
	<g id="Group_10" style="clip-path:url(#SVGID_00000121983791320405474620000012717154463421960109_);">
		<path id="Path_24" class="st3" d="M-97.7,161.7c0.5,0.4,1.3,0.4,1.8-0.1c0.5-0.5,0.4-1.3-0.1-1.8c-0.5-0.5-1.3-0.4-1.8,0.1
			C-98.3,160.4-98.2,161.3-97.7,161.7"/>
		<path id="Path_25" class="st3" d="M-101.9,167.6c0.6,0.4,1.4,0.2,1.8-0.4c0.4-0.6,0.2-1.4-0.4-1.8c-0.6-0.4-1.4-0.2-1.8,0.4
			C-102.7,166.4-102.5,167.2-101.9,167.6C-101.9,167.6-101.9,167.6-101.9,167.6"/>
		<path id="Path_26" class="st3" d="M-91.5,157.2c0.7,0,1.3-0.7,1.2-1.4c0-0.2-0.1-0.5-0.2-0.7c-0.4-0.6-1.2-0.7-1.8-0.2
			s-0.7,1.2-0.2,1.8C-92.3,157-91.9,157.2-91.5,157.2"/>
		<path id="Path_27" class="st3" d="M-104.9,174.2c0.7,0.2,1.4-0.1,1.7-0.7c0.3-0.7-0.1-1.4-0.7-1.7c-0.7-0.3-1.4,0.1-1.7,0.7
			C-105.9,173.2-105.5,173.9-104.9,174.2"/>
		<path id="Path_28" class="st3" d="M-106.6,181.2c0.7,0.1,1.3-0.4,1.5-1c0.1-0.7-0.3-1.4-1-1.5c-0.7-0.1-1.4,0.3-1.5,1
			C-107.8,180.4-107.3,181.1-106.6,181.2"/>
		<path id="Path_29" class="st3" d="M-104.9,200c-0.7,0.3-1,1-0.7,1.7c0.2,0.5,0.7,0.8,1.2,0.8c0.7-0.1,1.3-0.7,1.3-1.5
			c0-0.1,0-0.2-0.1-0.3C-103.5,200.1-104.2,199.8-104.9,200C-104.9,200-104.9,200-104.9,200"/>
		<path id="Path_30" class="st3" d="M-106.2,195.5c0.7-0.1,1.2-0.8,1-1.5c-0.1-0.7-0.8-1.2-1.5-1c-0.7,0.1-1.2,0.8-1,1.5
			c0,0,0,0,0,0C-107.5,195.2-106.9,195.7-106.2,195.5"/>
		<path id="Path_31" class="st3" d="M-107.1,188.4c0.7,0,1.3-0.6,1.3-1.3s-0.6-1.3-1.3-1.3c-0.7,0-1.3,0.6-1.3,1.3
			C-108.3,187.8-107.8,188.4-107.1,188.4C-107.1,188.4-107.1,188.4-107.1,188.4z"/>
		<path id="Path_32" class="st3" d="M-34.3,206.9c-0.6-0.4-1.4-0.2-1.8,0.4c-0.4,0.6-0.2,1.4,0.4,1.8c0.6,0.4,1.4,0.2,1.8-0.4
			C-33.5,208.1-33.7,207.3-34.3,206.9C-34.3,206.9-34.3,206.9-34.3,206.9"/>
		<path id="Path_33" class="st3" d="M-35.3,165.8c-0.6,0.4-0.8,1.2-0.4,1.8c0,0,0,0,0,0c0.4,0.6,1.2,0.8,1.8,0.4
			c0.6-0.4,0.7-1.2,0.3-1.8C-34,165.7-34.7,165.5-35.3,165.8"/>
		<path id="Path_34" class="st3" d="M-39.7,160.1c-0.5,0.5-0.6,1.3-0.1,1.8c0.5,0.5,1.3,0.6,1.8,0.1c0.5-0.5,0.6-1.3,0.1-1.8
			c0,0,0,0,0,0C-38.4,159.7-39.2,159.7-39.7,160.1C-39.7,160.1-39.7,160.1-39.7,160.1"/>
		<path id="Path_35" class="st3" d="M-31.2,200.4c-0.7-0.3-1.4,0.1-1.7,0.7c-0.2,0.7,0.2,1.5,0.9,1.7c0.1,0,0.2,0.1,0.3,0.1
			c0.7,0,1.3-0.6,1.3-1.3C-30.4,201.1-30.8,200.6-31.2,200.4L-31.2,200.4z"/>
		<path id="Path_36" class="st3" d="M-28.9,186.2c-0.7,0-1.3,0.6-1.3,1.3c0,0.7,0.6,1.3,1.3,1.3c0.7,0,1.3-0.6,1.3-1.3
			C-27.6,186.8-28.2,186.2-28.9,186.2"/>
		<path id="Path_37" class="st3" d="M-31.4,174.7c0.7,0,1.3-0.6,1.3-1.3s-0.6-1.3-1.3-1.3s-1.3,0.6-1.3,1.3c0,0.2,0,0.3,0.1,0.5
			C-32.5,174.3-32,174.7-31.4,174.7"/>
		<path id="Path_38" class="st3" d="M-30.8,180.6c0.2,0.7,0.8,1.1,1.5,1c0.7-0.1,1.2-0.8,1-1.5s-0.8-1.2-1.5-1
			C-30.5,179.2-30.9,179.9-30.8,180.6"/>
		<path id="Path_39" class="st3" d="M-38.5,212.8c-0.5-0.5-1.3-0.5-1.8,0.1c-0.5,0.5-0.5,1.3,0.1,1.8c0.5,0.5,1.3,0.5,1.8-0.1
			C-38,214.1-38,213.3-38.5,212.8C-38.5,212.8-38.5,212.8-38.5,212.8"/>
		<path id="Path_40" class="st3" d="M-29.4,193.4c-0.7-0.1-1.4,0.3-1.5,1c-0.1,0.8,0.4,1.4,1.2,1.5c0,0,0,0,0.1,0
			c0.7,0,1.3-0.6,1.3-1.3C-28.4,194.1-28.8,193.6-29.4,193.4z"/>
		<path id="Path_41" class="st3" d="M-64.9,224.8L-64.9,224.8c-0.7,0.1-1.2,0.7-1.2,1.4c0.1,0.7,0.7,1.2,1.4,1.2
			c0.7,0,1.3-0.6,1.2-1.4C-63.5,225.3-64.2,224.7-64.9,224.8C-64.9,224.8-64.9,224.8-64.9,224.8"/>
		<path id="Path_42" class="st3" d="M-51.5,221.1c-0.6,0.3-0.9,1.1-0.6,1.7c0,0,0,0,0,0c0.3,0.6,1.1,0.9,1.7,0.6
			c0.6-0.3,0.9-1.1,0.6-1.7C-50.1,221.1-50.9,220.8-51.5,221.1L-51.5,221.1"/>
		<path id="Path_43" class="st3" d="M-58.1,223.6c-0.7,0.2-1.1,0.9-0.9,1.6c0,0,0,0,0,0c0.2,0.7,0.9,1.1,1.6,0.9
			c0.7-0.2,1.1-0.9,0.9-1.6S-57.4,223.4-58.1,223.6L-58.1,223.6"/>
		<path id="Path_44" class="st3" d="M-43.4,155.2L-43.4,155.2c-0.6-0.4-1.4-0.3-1.8,0.2c-0.4,0.6-0.3,1.4,0.2,1.8
			c0.6,0.4,1.4,0.3,1.8-0.2C-42.7,156.4-42.8,155.6-43.4,155.2"/>
		<path id="Path_45" class="st3" d="M-45.6,217.5c-0.6,0.4-0.7,1.2-0.3,1.8s1.2,0.7,1.8,0.3s0.7-1.2,0.3-1.8c0,0,0,0,0,0
			C-44.2,217.2-45,217.1-45.6,217.5z"/>
		<path id="Path_46" class="st3" d="M-71.9,224.7L-71.9,224.7c-0.7-0.1-1.3,0.4-1.4,1.2c0,0.7,0.5,1.4,1.3,1.4
			c0.7,0,1.3-0.6,1.3-1.3C-70.7,225.3-71.2,224.8-71.9,224.7L-71.9,224.7z"/>
		<path id="Path_47" class="st3" d="M-44.5,187.4c0-1.4-0.6-2.8-1.7-3.8c2.1-1.9,2.2-5.1,0.3-7.2c-0.1-0.1-0.2-0.2-0.3-0.3
			c2.1-1.9,2.2-5.1,0.3-7.2c-0.1-0.1-0.2-0.2-0.3-0.3c2.1-1.9,2.2-5.1,0.3-7.2c-0.8-0.9-1.8-1.4-3-1.6V150c0-2.9-2.3-5.2-5.2-5.2
			h-16.3c-0.7,0-1.3,0.6-1.2,1.3c0,0.7,0.6,1.2,1.2,1.2h16.3c1.4,0,2.6,1.2,2.6,2.6v0.7h-31.8V150c0-1.4,1.2-2.6,2.6-2.6h3.3
			c0.7,0,1.3-0.6,1.2-1.3c0-0.7-0.6-1.2-1.2-1.2h-3.3c-2.9,0-5.2,2.3-5.2,5.2v18.9c-2.6-1.6-5.9-0.7-7.5,1.8
			c-0.5,0.8-0.8,1.8-0.8,2.7v30.2l-2.4,2.4c-3.5-1.6-7.7-0.1-9.3,3.4c-1.2,2.7-0.7,5.8,1.4,7.9l8,8c0.5,0.5,1.3,0.5,1.8,0
			c0.5-0.5,0.5-1.3,0-1.8l-8-8c-1.7-1.7-1.7-4.5,0.1-6.3c1.7-1.7,4.5-1.7,6.2,0l13.3,13.4c1.7,1.7,1.7,4.5,0,6.3
			c-1.8,1.7-4.7,1.7-6.4-0.1c-0.1-0.1-0.2-0.2-0.3-0.4c-0.5-0.5-1.3-0.5-1.8,0c-0.5,0.5-0.5,1.3,0,1.8c6.1,6.5,15.9-0.7,11.3-8.4
			l2.3-2.3c7,0.5,13.7-3.3,16.9-9.6h7.1c2.9,0,5.2-2.3,5.2-5.2v-12.4C-46.4,192.1-44.5,189.9-44.5,187.4z M-47.1,187.4
			c0,1.4-1.1,2.5-2.5,2.5h-2.2c-1.4,0-2.5-1.1-2.5-2.5s1.1-2.5,2.5-2.5h2.2C-48.2,184.9-47.1,186-47.1,187.4
			C-47.1,187.4-47.1,187.4-47.1,187.4z M-47.1,179.9c0,1.4-1.1,2.5-2.5,2.5h-2.2c-1.4,0-2.5-1.1-2.5-2.5s1.1-2.5,2.5-2.5h2.2
			C-48.2,177.4-47.1,178.5-47.1,179.9C-47.1,179.8-47.1,179.9-47.1,179.9z M-47.1,172.3c0,1.4-1.1,2.5-2.5,2.5h-2.3
			c-1.4,0-2.5-1.2-2.4-2.5c0-1.3,1.1-2.4,2.4-2.4h2.2C-48.2,169.8-47.1,170.9-47.1,172.3C-47.1,172.3-47.1,172.3-47.1,172.3
			 M-47.1,164.8c0,1.4-1.1,2.4-2.5,2.5h-2.2c-1.4,0-2.5-1.2-2.4-2.5c0-1.3,1.1-2.4,2.4-2.4h2.2C-48.2,162.3-47.1,163.4-47.1,164.8
			 M-51.5,153.3v6.5c-2.8-0.1-5.2,2-5.3,4.8c-0.1,1.5,0.5,3,1.7,4c-2.1,1.9-2.2,5.1-0.4,7.2c0.1,0.1,0.2,0.2,0.4,0.4
			c-2.1,1.9-2.2,5.1-0.4,7.2c0.1,0.1,0.2,0.2,0.4,0.4c-2.1,1.9-2.2,5.1-0.4,7.2c1,1.1,2.5,1.7,4,1.7v6.5H-76
			c-0.7-4.5-3.4-8.4-7.4-10.6v-35H-51.5z M-76.8,217.1l-1.8-0.1c-0.4,0-0.7,0.1-1,0.4l-2.6,2.6l-12.3-12.4l2.5-2.5
			c0.2-0.2,0.4-0.6,0.4-0.9v-30.8c0-3.6,5.6-3.6,5.6,0V189c0,0.5,0.3,1,0.8,1.2c3.2,1.5,5.6,4.3,6.4,7.8c1.2,4,0.6,8.4-1.7,11.9
			c-0.4,0.6-0.2,1.4,0.4,1.8c0.6,0.4,1.3,0.2,1.8-0.3c0.3-0.4,0.6-0.9,0.8-1.4h13.4C-66.9,214.4-71.6,217.1-76.8,217.1z
			 M-54.1,207.4h-22.4c0.6-1.9,0.9-3.9,0.8-5.9h24.2v3.4C-51.5,206.3-52.7,207.4-54.1,207.4"/>
		<path id="Path_48" class="st3" d="M-79.7,163c0.5,0.5,1.3,0.5,1.8,0c0,0,0,0,0,0l3.8-3.9c0.5-0.5,0.5-1.3,0-1.8
			c-0.5-0.5-1.3-0.5-1.8,0l-3.8,3.9C-80.2,161.7-80.2,162.5-79.7,163"/>
		<path id="Path_49" class="st3" d="M-79.7,171.3c0.5,0.5,1.3,0.5,1.8,0c0,0,0,0,0,0l11.9-12.2c0.5-0.5,0.5-1.3-0.1-1.8
			c-0.5-0.5-1.3-0.5-1.8,0l-11.9,12.2C-80.2,170-80.2,170.8-79.7,171.3C-79.7,171.3-79.7,171.3-79.7,171.3z"/>
	</g>
</g>
<circle class="st8" cx="74.5" cy="23" r="19"/>
<circle class="st8" cx="-7" cy="153.9" r="21.5"/>
</svg>
