<svg xmlns="http://www.w3.org/2000/svg" xmlns:xlink="http://www.w3.org/1999/xlink" width="88" height="88.735" viewBox="0 0 88 88.735">
  <defs>
    <clipPath id="clip-path">
      <rect id="Rectangle_12" data-name="Rectangle 12" width="88" height="88.735" transform="translate(0 0)" fill="none"/>
    </clipPath>
  </defs>
  <g id="icon_benefit_holiday" transform="translate(0 0)">
    <g id="Group_16" data-name="Group 16" clip-path="url(#clip-path)">
      <path id="Path_55" data-name="Path 55" d="M13.9,17.653H4.714A4.714,4.714,0,0,0,0,22.367v44a4.715,4.715,0,0,0,4.714,4.715h30.18L51.166,87.354a4.714,4.714,0,0,0,6.667,0L74.106,71.082h9.18A4.714,4.714,0,0,0,88,66.367v-44a4.713,4.713,0,0,0-4.714-4.714H53.107L36.834,1.381a4.714,4.714,0,0,0-6.667,0ZM39.339,71.082l14.049,14.05a1.573,1.573,0,0,0,2.223,0L69.66,71.082ZM57.767,38.028a1.578,1.578,0,0,1-.41.054H3.143V66.367a1.572,1.572,0,0,0,1.571,1.572H66V44.407l-6.369,6.329a1.572,1.572,0,0,1-2.216-2.23l7.333-7.286A71.491,71.491,0,0,1,57.767,38.028Zm27.09.054H77.241a71.574,71.574,0,0,1-6.858,3.128L77.7,48.522a1.572,1.572,0,1,1-2.223,2.222l-6.33-6.33V67.939H83.286a1.572,1.572,0,0,0,1.571-1.572Zm-19.985-.161c-2.873-1.156-6.861-2.946-8.458-4.544a2.768,2.768,0,0,1,3.913-3.915c1.6,1.6,3.39,5.585,4.545,8.459m5.363,0c1.157-2.874,2.947-6.861,4.545-8.459a2.768,2.768,0,1,1,3.914,3.915c-1.6,1.6-5.585,3.388-8.459,4.544M66,20.8H4.714a1.572,1.572,0,0,0-1.571,1.571V34.939H53.622a5.911,5.911,0,0,1,8.929-7.7A22.658,22.658,0,0,1,66,32.825Zm3.143,0V32.751a22.435,22.435,0,0,1,3.415-5.511,5.911,5.911,0,0,1,8.929,7.7h3.37V22.367A1.572,1.572,0,0,0,83.286,20.8ZM48.661,17.653,34.612,3.6a1.57,1.57,0,0,0-2.223,0L18.34,17.653Z" fill="#040506" fill-rule="evenodd"/>
    </g>
    <circle id="Ellipse_1" data-name="Ellipse 1" cx="20" cy="20" r="20" transform="translate(48 17)" fill="rgba(50,225,240,0.5)"/>
  </g>
</svg>
