<svg id="icon_benefit_loan" xmlns="http://www.w3.org/2000/svg" xmlns:xlink="http://www.w3.org/1999/xlink" width="96" height="96" viewBox="0 0 96 96">
  <defs>
    <clipPath id="clip-path">
      <rect id="Rectangle_1" data-name="Rectangle 1" width="96" height="96" fill="none"/>
    </clipPath>
  </defs>
  <g id="Group_1" data-name="Group 1" clip-path="url(#clip-path)">
    <path id="Path_1" data-name="Path 1" d="M90.581,28.128H87.743a7.1,7.1,0,0,0-7.1,7.1V48.944a4.968,4.968,0,0,0-6.265.474L63.928,59.871a15.518,15.518,0,0,0-4.573,11.041v6.894H57.936a1.419,1.419,0,0,0-1.42,1.419V90.58A1.42,1.42,0,0,0,57.936,92h22.71a1.419,1.419,0,0,0,1.419-1.42V79.225a1.419,1.419,0,0,0-1.419-1.419h-1.42V74.055L91.68,58.833a1.42,1.42,0,0,0,.321-.9V29.547a1.419,1.419,0,0,0-1.42-1.419M79.226,89.161H59.355V80.645H79.226Zm9.936-31.733L76.708,72.649a1.422,1.422,0,0,0-.32.9v4.258H62.194V70.912a12.7,12.7,0,0,1,3.741-9.034L76.388,51.425a2.059,2.059,0,0,1,2.838,0l2.252,2.252-7.513,7.512L75.972,63.2l8.516-8.516a1.42,1.42,0,0,0,0-2.007l-1-1V35.225a4.258,4.258,0,0,1,4.259-4.258h1.419Z" fill="#040506"/>
    <path id="Path_2" data-name="Path 2" d="M16.774,74.055v3.751h-1.42a1.419,1.419,0,0,0-1.419,1.42V90.581A1.419,1.419,0,0,0,15.354,92h22.71a1.419,1.419,0,0,0,1.42-1.419V79.226a1.42,1.42,0,0,0-1.42-1.42H36.645V70.913a15.518,15.518,0,0,0-4.573-11.042L21.619,49.419a4.967,4.967,0,0,0-6.265-.474V35.225a7.105,7.105,0,0,0-7.1-7.1H5.419A1.42,1.42,0,0,0,4,29.548V57.935a1.423,1.423,0,0,0,.321.9ZM36.645,89.161H16.774V80.645H36.645ZM6.838,30.967H8.257a4.258,4.258,0,0,1,4.259,4.258V51.67l-1,1a1.42,1.42,0,0,0,0,2.007L20.028,63.2l2.007-2.007-7.512-7.513,2.251-2.251a2.059,2.059,0,0,1,2.838,0L30.065,61.878a12.7,12.7,0,0,1,3.741,9.035v6.893H19.612V73.548a1.419,1.419,0,0,0-.32-.9L6.838,57.428Z" fill="#040506"/>
    <path id="Path_3" data-name="Path 3" d="M63.613,8.257H57.935a1.419,1.419,0,0,0-1.419,1.419V10.85L48.922,4.34a1.42,1.42,0,0,0-1.845,0L27.206,21.373a1.421,1.421,0,0,0-.155,2c.024.027.048.053.074.079l4.258,4.259a1.419,1.419,0,0,0,1.959.045l.464-.424v5.052H28.128a1.419,1.419,0,0,0-1.419,1.42V50.838a1.42,1.42,0,0,0,1.419,1.419H67.871a1.419,1.419,0,0,0,1.419-1.419V33.806a1.419,1.419,0,0,0-1.419-1.42H62.193V27.338l.465.426a1.418,1.418,0,0,0,1.958-.048l4.258-4.257a1.42,1.42,0,0,0,0-2.008,1.067,1.067,0,0,0-.079-.073l-3.762-3.23V9.676a1.419,1.419,0,0,0-1.419-1.419M59.355,11.1h2.838v4.62l-2.838-2.432Zm7.1,38.323h-36.9V35.224h36.9ZM50.838,32.386H45.16V28.129h5.678Zm8.517,0H53.677V26.709a1.419,1.419,0,0,0-1.419-1.42H43.742a1.42,1.42,0,0,0-1.42,1.42v5.677H36.645V24.757L48,14.434,59.355,24.757Zm4.211-7.638L48.955,11.465a1.417,1.417,0,0,0-1.911,0L32.433,24.748l-2.217-2.216L48,7.287,65.783,22.532Z" fill="#040506"/>
    <path id="Path_4" data-name="Path 4" d="M33.806,46.58h4.258V43.741H35.225V40.9h2.839V38.064H33.806a1.419,1.419,0,0,0-1.419,1.419v5.678a1.419,1.419,0,0,0,1.419,1.419" fill="#040506"/>
    <path id="Path_5" data-name="Path 5" d="M63.613,45.161V39.483a1.419,1.419,0,0,0-1.419-1.419H57.935V40.9h2.839v2.839H57.935V46.58h4.259a1.419,1.419,0,0,0,1.419-1.419" fill="#040506"/>
    <path id="Path_6" data-name="Path 6" d="M48,48a5.677,5.677,0,1,0-5.678-5.677A5.678,5.678,0,0,0,48,48m0-8.516a2.839,2.839,0,1,1-2.839,2.839A2.839,2.839,0,0,1,48,39.483" fill="#040506"/>
    <path id="Path_7" data-name="Path 7" d="M76.8,23.454a1.42,1.42,0,0,0,2.007,0l7.341-7.341a5.434,5.434,0,0,0-7.685-7.685l-.66.66-.66-.66a5.434,5.434,0,0,0-7.684,7.685Zm-3.5-13.778a2.612,2.612,0,0,1,1.835.759L76.8,12.1a1.42,1.42,0,0,0,2.007,0l1.663-1.664a2.6,2.6,0,0,1,3.671,3.671l-6.338,6.337L71.47,14.106a2.6,2.6,0,0,1,1.835-4.43" fill="#040506"/>
    <path id="Path_8" data-name="Path 8" d="M22.7,6.837a5.4,5.4,0,0,0-3.843,1.591l-.66.66-.66-.66a5.434,5.434,0,0,0-7.684,7.685l7.341,7.341a1.42,1.42,0,0,0,2.007,0l7.341-7.341A5.434,5.434,0,0,0,22.7,6.837m1.835,7.269-6.338,6.338-6.337-6.338a2.6,2.6,0,0,1,3.67-3.671L17.19,12.1a1.42,1.42,0,0,0,2.007,0l1.663-1.664a2.6,2.6,0,0,1,3.671,3.671" fill="#040506"/>
  </g>
  <circle id="Ellipse_6" data-name="Ellipse 6" cx="20" cy="20" r="20" transform="translate(28 12)" fill="rgba(50,225,240,0.5)"/>
</svg>
