<?xml version="1.0" encoding="UTF-8"?>
<svg id="Layer_2" data-name="Layer 2" xmlns="http://www.w3.org/2000/svg" viewBox="0 0 512 512">
  <defs>
    <style>
      .cls-1 {
        fill: #ffe6e2;
      }

      .cls-2 {
        fill: #fc573b;
      }

      .cls-2, .cls-3 {
        fill-rule: evenodd;
      }

      .cls-3 {
        fill: #fd907e;
      }
    </style>
  </defs>
  <g id="Layer_2-2" data-name="Layer 2">
    <rect class="cls-1" width="512" height="512" rx="100" ry="100"/>
    <path class="cls-2" d="m202.54,291.2c0-41.19,33.39-74.58,74.58-74.58,37.07,0,71.8,27.06,77.58,62.49.41,2.53,3.63,3.37,5.27,1.4,10.73-12.84,17.19-29.38,17.19-47.43h0c0-40.87-33.13-74.9-74-74.9h-108.9c-39.97,0-74,34.03-74,74.9h0c0,40.87,34.03,74,74,74h6.37c1.86,0,3.26-1.67,2.95-3.5-.68-4.03-1.04-8.17-1.04-12.39Z"/>
    <path class="cls-3" d="m372.36,370.88l-37.13-39.07c6.89-10.45,10.91-22.95,10.91-36.4,0-36.63-29.75-66.32-66.45-66.32s-66.45,29.69-66.45,66.32,29.75,66.32,66.45,66.32c14.35,0,27.62-4.55,38.49-12.27l36.81,38.75c4.8,4.79,12.57,4.79,17.36,0h0c4.79-4.79,4.79-12.55,0-17.33Z"/>
  </g>
</svg>