<svg id="logo_clipdown_wh" xmlns="http://www.w3.org/2000/svg" xmlns:xlink="http://www.w3.org/1999/xlink" width="134" height="61.641" viewBox="0 0 134 61.641">
  <defs>
    <clipPath id="clip-path">
      <rect id="Rectangle_11" data-name="Rectangle 11" width="133.999" height="61.641" fill="#fff"/>
    </clipPath>
    <clipPath id="clip-path-2">
      <path id="Path_42" data-name="Path 42" d="M118.581,0C103.317,0,90.454,2.578,86.468,6.1A16.523,16.523,0,0,0,79.108,17.7,62.283,62.283,0,0,0,77.824,30.82a62.283,62.283,0,0,0,1.284,13.117,16.524,16.524,0,0,0,7.36,11.6c3.987,3.52,16.85,6.1,32.114,6.1s28.128-2.578,32.114-6.1a16.525,16.525,0,0,0,7.36-11.6A62.279,62.279,0,0,0,159.34,30.82,62.279,62.279,0,0,0,158.055,17.7,16.525,16.525,0,0,0,150.7,6.1C146.709,2.578,133.846,0,118.581,0Z" transform="translate(-77.824)" fill="none"/>
    </clipPath>
    <linearGradient id="linear-gradient" x1="-0.649" y1="1" x2="-0.64" y2="1" gradientUnits="objectBoundingBox">
      <stop offset="0" stop-color="#c5081d"/>
      <stop offset="1" stop-color="#dc141c"/>
    </linearGradient>
    <clipPath id="clip-path-3">
      <rect id="Rectangle_13" data-name="Rectangle 13" width="133.999" height="61.641" fill="none"/>
    </clipPath>
  </defs>
  <g id="Group_40" data-name="Group 40">
    <g id="Group_39" data-name="Group 39" clip-path="url(#clip-path)">
      <path id="Path_39" data-name="Path 39" d="M11.5,32.2a8.783,8.783,0,0,0-2.983.489,6.528,6.528,0,0,0-2.344,1.42,6.438,6.438,0,0,0-1.528,2.3,8.346,8.346,0,0,0-.549,3.13,8.639,8.639,0,0,0,.5,3.071,5.836,5.836,0,0,0,1.439,2.213,6.072,6.072,0,0,0,2.288,1.339,9.622,9.622,0,0,0,3.064.452,18.281,18.281,0,0,0,2.506-.177,15.531,15.531,0,0,0,2.392-.518v3.123a19.654,19.654,0,0,1-2.441.467,21.131,21.131,0,0,1-2.716.17,14.857,14.857,0,0,1-4.834-.718A9.566,9.566,0,0,1,2.8,46.932,8.355,8.355,0,0,1,.7,43.794,11.146,11.146,0,0,1,0,39.761a11.532,11.532,0,0,1,.752-4.2A9.644,9.644,0,0,1,2.918,32.2a9.918,9.918,0,0,1,3.541-2.235,13.578,13.578,0,0,1,4.81-.828,19.048,19.048,0,0,1,2.6.17,13.637,13.637,0,0,1,2.215.48v3.079a16.943,16.943,0,0,0-2.409-.518A16.56,16.56,0,0,0,11.5,32.2" transform="translate(0 -9.4)" fill="#fff"/>
      <rect id="Rectangle_10" data-name="Rectangle 10" width="3.832" height="21.432" transform="translate(19.173 18.476)" fill="#fff"/>
      <path id="Path_40" data-name="Path 40" d="M39.184,27.276H43.21v3.8H39.184Zm.1,7.089h3.832V48.708H39.281Z" transform="translate(-12.642 -8.8)" fill="#fff"/>
      <path id="Path_41" data-name="Path 41" d="M57.953,52.285a5.955,5.955,0,0,1-2.287-.422,5.712,5.712,0,0,1-1.706-1.043H53.9q.016.3.033.836c.011.36.016.752.016,1.177V58.8H50.112V37.573h3.362l.162,1.614H53.7a5.534,5.534,0,0,1,1.828-1.413,5.73,5.73,0,0,1,2.587-.555,7.5,7.5,0,0,1,2.514.437,6.12,6.12,0,0,1,2.191,1.339,6.568,6.568,0,0,1,1.528,2.279,8.482,8.482,0,0,1,.574,3.271A8.862,8.862,0,0,1,64.308,48a7.075,7.075,0,0,1-1.617,2.412,6.551,6.551,0,0,1-2.223,1.414,7.1,7.1,0,0,1-2.514.459m-.5-12.255a4.493,4.493,0,0,0-1.907.451,5.383,5.383,0,0,0-1.6,1.177v6.394a4.636,4.636,0,0,0,.582.5,4.909,4.909,0,0,0,1.689.8,4.2,4.2,0,0,0,1.059.133,3.488,3.488,0,0,0,1.584-.348,3.15,3.15,0,0,0,1.156-.984,4.694,4.694,0,0,0,.7-1.517,8.19,8.19,0,0,0-.008-3.989A4.129,4.129,0,0,0,60,41.2a3.012,3.012,0,0,0-1.108-.873,3.423,3.423,0,0,0-1.439-.3" transform="translate(-16.168 -12.008)" fill="#fff"/>
    </g>
  </g>
  <g id="Group_42" data-name="Group 42" transform="translate(52.484)">
    <g id="Group_41" data-name="Group 41" clip-path="url(#clip-path-2)">
      <rect id="Rectangle_12" data-name="Rectangle 12" width="81.516" height="61.641" fill="url(#linear-gradient)"/>
    </g>
  </g>
  <g id="Group_44" data-name="Group 44">
    <g id="Group_43" data-name="Group 43" clip-path="url(#clip-path-3)">
      <path id="Path_43" data-name="Path 43" d="M87.9,49.283V31.642H93q.677,0,1.375.04t1.361.119q.662.079,1.282.191a9.983,9.983,0,0,1,1.138.27,10.247,10.247,0,0,1,2.722,1.213,7.848,7.848,0,0,1,1.981,1.806,7.587,7.587,0,0,1,1.21,2.327,9.122,9.122,0,0,1,.41,2.788,9.933,9.933,0,0,1-.346,2.67,7.4,7.4,0,0,1-2.83,4.087,9.421,9.421,0,0,1-2.541,1.285,14.536,14.536,0,0,1-2.78.633,26.186,26.186,0,0,1-3.5.211Zm4.983-2.7a12.168,12.168,0,0,0,4.839-.778,5.051,5.051,0,0,0,2.333-2.031,6.571,6.571,0,0,0,.793-3.4,6.832,6.832,0,0,0-.259-1.951,5.14,5.14,0,0,0-.748-1.549A4.964,4.964,0,0,0,98.649,35.7a6.7,6.7,0,0,0-1.577-.8,9.02,9.02,0,0,0-1.829-.422,17.655,17.655,0,0,0-2.262-.131H91.427V46.58Z" transform="translate(-28.359 -10.209)" fill="#fff"/>
      <path id="Path_44" data-name="Path 44" d="M128.049,45.069a7.4,7.4,0,0,1-.49,2.743,5.953,5.953,0,0,1-1.4,2.123,6.28,6.28,0,0,1-2.211,1.364,8.274,8.274,0,0,1-2.9.481A8.473,8.473,0,0,1,118.1,51.3a6.2,6.2,0,0,1-2.21-1.364,5.92,5.92,0,0,1-1.39-2.123,7.5,7.5,0,0,1-.482-2.743,7.4,7.4,0,0,1,.49-2.742,5.953,5.953,0,0,1,1.4-2.123,6.28,6.28,0,0,1,2.211-1.364,8.257,8.257,0,0,1,2.894-.482,8.455,8.455,0,0,1,2.945.482,6.2,6.2,0,0,1,2.211,1.364,5.929,5.929,0,0,1,1.39,2.123,7.5,7.5,0,0,1,.482,2.742m-3.528,0a5.665,5.665,0,0,0-.259-1.792,3.771,3.771,0,0,0-.72-1.306,2.913,2.913,0,0,0-1.109-.79,3.706,3.706,0,0,0-1.412-.264,3.613,3.613,0,0,0-1.39.264,2.919,2.919,0,0,0-1.1.79,3.76,3.76,0,0,0-.72,1.306,6.323,6.323,0,0,0,0,3.585,3.62,3.62,0,0,0,.728,1.3,3.07,3.07,0,0,0,1.109.791,3.573,3.573,0,0,0,1.4.27,3.526,3.526,0,0,0,1.4-.27,3.025,3.025,0,0,0,1.095-.791,3.692,3.692,0,0,0,.72-1.3,5.666,5.666,0,0,0,.259-1.793" transform="translate(-36.787 -12.375)" fill="#fff"/>
      <path id="Path_45" data-name="Path 45" d="M145.34,42.293q-.4,1.912-.95,3.705L142.7,51.6h-3.356l-4.883-12.775h3.6l1.8,5.353q.62,1.858,1.095,3.6h.058q.4-1.688.965-3.6l1.6-5.353h3.6l1.57,5.353q.5,1.7.965,3.6h.058q.49-1.78,1.1-3.6l1.8-5.353h3.6L151.389,51.6h-3.356L146.348,46q-.576-1.886-.95-3.705Z" transform="translate(-43.383 -12.526)" fill="#fff"/>
      <path id="Path_46" data-name="Path 46" d="M170.6,40.453h.058a4.852,4.852,0,0,1,.763-.778A5.308,5.308,0,0,1,172.469,39a6.589,6.589,0,0,1,1.3-.468,6.261,6.261,0,0,1,1.519-.178,6.736,6.736,0,0,1,1.476.159,4.636,4.636,0,0,1,1.3.494,3.888,3.888,0,0,1,1.044.87,3.986,3.986,0,0,1,.713,1.273,3.9,3.9,0,0,1,.194.89,10.947,10.947,0,0,1,.05,1.114v8.293H176.66v-7.8a7.672,7.672,0,0,0-.043-.884,2.382,2.382,0,0,0-.159-.646,1.659,1.659,0,0,0-.784-.87,2.826,2.826,0,0,0-1.275-.264,4.453,4.453,0,0,0-1.908.428,4.845,4.845,0,0,0-1.62,1.246v8.794h-3.413V38.674h2.823Z" transform="translate(-54.027 -12.375)" fill="#fff"/>
    </g>
  </g>
</svg>
