<svg id="icon_benefit_birthday" xmlns="http://www.w3.org/2000/svg" xmlns:xlink="http://www.w3.org/1999/xlink" width="96" height="96" viewBox="0 0 96 96">
  <defs>
    <clipPath id="clip-path">
      <rect id="Rectangle_14" data-name="Rectangle 14" width="96" height="96" fill="none"/>
    </clipPath>
  </defs>
  <g id="Group_20" data-name="Group 20" clip-path="url(#clip-path)">
    <path id="Path_57" data-name="Path 57" d="M91.419,35.5l-9.355-6.861V5.419A1.419,1.419,0,0,0,80.645,4H15.354a1.418,1.418,0,0,0-1.418,1.419v23.22L4.581,35.5A1.417,1.417,0,0,0,4,36.645V90.581A1.419,1.419,0,0,0,5.42,92H90.58A1.419,1.419,0,0,0,92,90.581V36.645a1.42,1.42,0,0,0-.581-1.145M33.488,60.505,6.839,87.154V39.565ZM16.774,7.571l6.15,2.637c.081.034.163.063.243.1l-1.9,2.838a1.417,1.417,0,0,0,0,1.576l2.316,3.475-2.314,3.47,2.362,1.575,2.839-4.258a1.419,1.419,0,0,0,0-1.575l-2.32-3.471,1.7-2.554a63.679,63.679,0,0,0,6.991,2.137L31.2,15.986a1.421,1.421,0,0,0,0,1.576l2.319,3.47L31.209,24.5l2.361,1.575,2.84-4.258a1.423,1.423,0,0,0,0-1.575l-2.32-3.471,1.733-2.6A63.56,63.56,0,0,0,48,15.355a63.526,63.526,0,0,0,12.173-1.181l1.736,2.6L59.6,20.245a1.416,1.416,0,0,0,0,1.575l2.838,4.258L64.8,24.5l-2.319-3.471,2.313-3.47a1.417,1.417,0,0,0,0-1.576l-1.646-2.468a63.646,63.646,0,0,0,7-2.137l1.7,2.554-2.314,3.471a1.419,1.419,0,0,0,0,1.575l2.839,4.258,2.362-1.575-2.32-3.47,2.314-3.471a1.419,1.419,0,0,0,0-1.575l-1.9-2.839c.081-.034.162-.062.242-.1l6.153-2.642V43.765L66.271,53.943a4.249,4.249,0,0,0-4.078-3.1V46.581a4.258,4.258,0,0,0-4.258-4.258H49.419V37.237l4.073,2.091a1.42,1.42,0,0,0,2.046-1.509L54.5,31.892l4.416-4.2a1.419,1.419,0,0,0-.778-2.433L52,24.385l-2.735-5.412a1.478,1.478,0,0,0-2.535,0L44,24.385l-6.133.871a1.42,1.42,0,0,0-.778,2.433l4.416,4.2-1.041,5.927a1.42,1.42,0,0,0,2.046,1.509l4.073-2.091v5.086H38.064a4.258,4.258,0,0,0-4.258,4.258v4.258a4.247,4.247,0,0,0-4.077,3.1L16.774,43.762ZM48,12.516A60.446,60.446,0,0,1,24.045,7.6l-1.777-.76H73.731l-1.776.76A60.453,60.453,0,0,1,48,12.516M52.195,65a6.977,6.977,0,0,1-8.389,0L32.387,56.029V55.1a1.419,1.419,0,0,1,1.419-1.42H62.193a1.419,1.419,0,0,1,1.419,1.42v.932ZM44.01,30.36l-2.839-2.7,3.963-.568a1.421,1.421,0,0,0,1.066-.766L48,22.76l1.8,3.566a1.416,1.416,0,0,0,1.065.767l3.963.568-2.838,2.7a1.418,1.418,0,0,0-.426,1.277l.678,3.862-3.6-1.845a1.422,1.422,0,0,0-1.3,0l-3.6,1.845.678-3.862a1.418,1.418,0,0,0-.418-1.283m13.925,14.8a1.419,1.419,0,0,1,1.419,1.42v4.258H36.645V46.581a1.419,1.419,0,0,1,1.419-1.42Zm-22.2,17.111,6.317,4.967a9.628,9.628,0,0,0,11.9,0l6.317-4.967,26.89,26.889H8.845Zm26.776-1.767,26.65-20.94V87.154Zm25.723-23.82-6.17,4.847V32.164Zm-74.3,4.847-6.17-4.847,6.17-4.525Z" fill="#040506"/>
  </g>
  <circle id="Ellipse_3" data-name="Ellipse 3" cx="20" cy="20" r="20" transform="translate(28 16)" fill="rgba(50,225,240,0.5)"/>
</svg>
