<svg id="icon_benefit_vacation" xmlns="http://www.w3.org/2000/svg" xmlns:xlink="http://www.w3.org/1999/xlink" width="96" height="96" viewBox="0 0 96 96">
  <defs>
    <clipPath id="clip-path">
      <rect id="Rectangle_4" data-name="Rectangle 4" width="96" height="96" fill="none"/>
    </clipPath>
  </defs>
  <g id="Group_6" data-name="Group 6" clip-path="url(#clip-path)">
    <path id="Path_17" data-name="Path 17" d="M55.1,49.419A14.194,14.194,0,1,0,69.291,35.225,14.211,14.211,0,0,0,55.1,49.419m25.549,0A11.355,11.355,0,1,1,69.291,38.064,11.368,11.368,0,0,1,80.646,49.419" fill="#040506"/>
    <path id="Path_18" data-name="Path 18" d="M67.872,40.9v1.681a4.248,4.248,0,0,0,1.419,8.255,1.419,1.419,0,1,1-1.419,1.419H65.033a4.253,4.253,0,0,0,2.839,4v1.68h2.839v-1.68A4.248,4.248,0,0,0,69.291,48a1.42,1.42,0,1,1,1.42-1.42H73.55a4.251,4.251,0,0,0-2.839-4V40.9Z" fill="#040506"/>
    <path id="Path_19" data-name="Path 19" d="M90.582,66.451a13.535,13.535,0,0,0-6.015,1.421l-.6.3a10.806,10.806,0,0,1-9.486,0l-.6-.3a13.664,13.664,0,0,0-12.028,0l-.6.3a10.806,10.806,0,0,1-9.486,0l-.6-.3a13.589,13.589,0,0,0-9.644-.917A17.251,17.251,0,0,0,28.709,55.291c-1.134-.243-2.275-.45-3.419-.639V51.693a22.128,22.128,0,0,1,5.5-14.635l4.676,4.675A8.811,8.811,0,0,1,38.066,48v7.1a1.42,1.42,0,0,0,.986,1.352,1.439,1.439,0,0,0,.433.068,1.413,1.413,0,0,0,1.154-.595l5.607-7.848A9.365,9.365,0,0,0,48,42.6a9.47,9.47,0,0,0-4.576-8.08A14.92,14.92,0,0,0,38.1,32.6a11.939,11.939,0,0,1,11.435,4.14l3.047,3.657a1.421,1.421,0,0,0,2.51-.91v-5.13a22.258,22.258,0,0,0-1.144-7.047,9.164,9.164,0,0,0-8.7-6.275,16.551,16.551,0,0,0-6.169,1.188c-.057.023-.111.051-.167.074.305-.19.6-.4.922-.559a11.936,11.936,0,0,1,3.2-1.066l13.739-2.5a1.417,1.417,0,0,0,.45-2.627l-7.087-4.05a13.77,13.77,0,0,0-19.447,6.433l-.509,1.163c-.153-.47-.321-.937-.517-1.4A13.223,13.223,0,0,0,10.175,11.9l-5.543,3.7a1.42,1.42,0,0,0,.788,2.6h5.248a12.728,12.728,0,0,1,7.586,2.529,12.563,12.563,0,0,1,2.934,3.1l1.906,2.858A8.188,8.188,0,0,0,12.215,28.26L7.167,34.317a1.42,1.42,0,0,0,1.09,2.329,1.4,1.4,0,0,0,.449-.074l5.841-1.946a15.938,15.938,0,0,1,6.811-.691,19.963,19.963,0,0,0-7.422,15.544v4.209c-.15,0-.3-.011-.451-.011a24.873,24.873,0,0,0-7.866,1.275l-.646.214A1.423,1.423,0,0,0,4,56.514V82.066a1.41,1.41,0,0,0,.416,1l.281.282a10.084,10.084,0,0,0,7.177,2.973,10.2,10.2,0,0,0,4.54-1.072l1.294-.647a10.782,10.782,0,0,1,9.487,0l.6.3a13.668,13.668,0,0,0,12.025,0l.6-.3a10.782,10.782,0,0,1,9.487,0l.6.3a13.668,13.668,0,0,0,12.025,0l.6-.3a10.782,10.782,0,0,1,9.487,0l.6.3a13.447,13.447,0,0,0,12.025,0l.6-.3a10.691,10.691,0,0,1,4.744-1.121A1.418,1.418,0,0,0,92,82.065V67.871A1.417,1.417,0,0,0,90.582,66.451ZM45.163,42.6a6.548,6.548,0,0,1-1.227,3.827L40.9,50.668V48a11.62,11.62,0,0,0-3.426-8.272l-4.5-4.5h2.765a12.1,12.1,0,0,1,6.225,1.725,6.619,6.619,0,0,1,3.2,5.646M40.135,24.855a13.729,13.729,0,0,1,5.116-.985A6.331,6.331,0,0,1,51.263,28.2a19.437,19.437,0,0,1,1,6.149v1.211l-.538-.646a14.916,14.916,0,0,0-16.183-4.6l-2.513.837L33.791,30A13.721,13.721,0,0,1,40.135,24.855ZM43.3,12.515a10.952,10.952,0,0,1,5.423,1.442l3.706,2.117-9.907,1.8A14.64,14.64,0,0,0,38.565,19.2a14.85,14.85,0,0,0-6.6,6.6l-1,2V24.357l2.319-5.294A10.934,10.934,0,0,1,43.3,12.515ZM19.957,18.453a15.574,15.574,0,0,0-9.289-3.1h-.56L11.75,14.26a10.38,10.38,0,0,1,15.3,4.55,13.239,13.239,0,0,1,1.077,5.25v5.058l-4.579-6.869A15.421,15.421,0,0,0,19.957,18.453ZM13.651,31.934l-1.109.369L14.4,30.08a5.416,5.416,0,0,1,7.631-.693l2.593,2.159-1.935-.322a18.749,18.749,0,0,0-9.034.71m3.124,17.545a17.13,17.13,0,0,1,8.691-14.915l3.267.545a24.96,24.96,0,0,0-6.28,16.585v2.564c-1.887-.235-3.78-.406-5.678-.493ZM6.839,57.541a22.022,22.022,0,0,1,6.646-1.025,69.976,69.976,0,0,1,14.631,1.55,14.405,14.405,0,0,1,10.766,9.94l-.331.166a10.806,10.806,0,0,1-9.486,0l-.6-.3a13.443,13.443,0,0,0-12.027,0l-1.293.648a7.356,7.356,0,0,1-3.27.771,7.255,7.255,0,0,1-5.036-2.011V57.541Zm9.577,13.518,1.293-.649a10.786,10.786,0,0,1,9.486,0l.6.3a13.684,13.684,0,0,0,12.028,0l.6-.3a10.786,10.786,0,0,1,9.486,0l.6.3a13.684,13.684,0,0,0,12.028,0l.6-.3a10.786,10.786,0,0,1,9.486,0l.6.3a13.684,13.684,0,0,0,12.028,0l.6-.3a10.727,10.727,0,0,1,3.324-1.023v4.244a13.526,13.526,0,0,0-4.6,1.337l-.6.3a10.806,10.806,0,0,1-9.486,0l-.6-.3a13.664,13.664,0,0,0-12.028,0l-.6.3a10.806,10.806,0,0,1-9.486,0l-.6-.3a13.664,13.664,0,0,0-12.028,0l-.6.3a10.8,10.8,0,0,1-9.485,0l-.6-.3a13.662,13.662,0,0,0-12.027,0l-1.293.647a7.356,7.356,0,0,1-3.27.771,7.253,7.253,0,0,1-5.036-2.031v-3.56A10.351,10.351,0,0,0,16.416,71.059ZM84.57,82.066l-.6.3a10.775,10.775,0,0,1-9.487,0l-.6-.3a13.447,13.447,0,0,0-12.025,0l-.6.3a10.775,10.775,0,0,1-9.487,0l-.6-.3a13.668,13.668,0,0,0-12.025,0l-.6.3a10.775,10.775,0,0,1-9.487,0l-.6-.3a13.668,13.668,0,0,0-12.025,0l-1.294.647a7.344,7.344,0,0,1-3.271.772,7.26,7.26,0,0,1-5.036-2.011V77.882a10.084,10.084,0,0,0,5.036,1.344,10.23,10.23,0,0,0,4.541-1.07l1.293-.649a10.786,10.786,0,0,1,9.486,0l.6.3a13.684,13.684,0,0,0,12.028,0l.6-.3a10.786,10.786,0,0,1,9.486,0l.6.3a13.684,13.684,0,0,0,12.028,0l.6-.3a10.786,10.786,0,0,1,9.486,0l.6.3a13.454,13.454,0,0,0,12.028,0l.6-.3a10.63,10.63,0,0,1,3.324-1.013v4.228A13.546,13.546,0,0,0,84.57,82.066Z" fill="#040506"/>
  </g>
  <circle id="Ellipse_7" data-name="Ellipse 7" cx="20" cy="20" r="20" transform="translate(11 6)" fill="rgba(50,225,240,0.5)"/>
</svg>
