<svg id="icon_benefit_event" xmlns="http://www.w3.org/2000/svg" xmlns:xlink="http://www.w3.org/1999/xlink" width="96" height="96" viewBox="0 0 96 96">
  <defs>
    <clipPath id="clip-path">
      <rect id="Rectangle_13" data-name="Rectangle 13" width="96" height="96" fill="none"/>
    </clipPath>
  </defs>
  <g id="Group_18" data-name="Group 18" clip-path="url(#clip-path)">
    <path id="Path_56" data-name="Path 56" d="M76.387,90.581V25.29a1.419,1.419,0,0,0-1.419-1.419h-1.42V5.419A1.419,1.419,0,0,0,72.129,4h-36.9a1.419,1.419,0,0,0-1.42,1.419V23.871H32.387a1.419,1.419,0,0,0-1.419,1.419V38.283l-4.881,4.4a10.952,10.952,0,0,0-3.635,8.085L21.1,77.806h-.068a1.419,1.419,0,0,0-1.419,1.42V90.581A1.419,1.419,0,0,0,21.032,92H74.968a1.419,1.419,0,0,0,1.419-1.419M66.452,80.058V35.813l7.1-7.1V87.154ZM36.645,6.839H70.71V23.871H67.871V15.355a1.419,1.419,0,0,0-1.419-1.42A2.838,2.838,0,0,1,63.613,11.1a1.42,1.42,0,0,0-1.419-1.42H45.161a1.419,1.419,0,0,0-1.419,1.42A2.838,2.838,0,0,1,40.9,13.935a1.419,1.419,0,0,0-1.419,1.42v8.516H36.645ZM65.032,23.871H42.323V16.594A5.7,5.7,0,0,0,46.4,12.516H60.954a5.7,5.7,0,0,0,4.078,4.078ZM33.806,26.71H71.541l-7.512,7.512a1.42,1.42,0,0,0-.416,1V80.645a1.42,1.42,0,0,0,.416,1l7.512,7.512H39.484V79.226a1.407,1.407,0,0,0-.941-1.323,13.218,13.218,0,0,0,3.78-9.281V66.787a6.515,6.515,0,0,0-2.839-5.394V52.258A4.258,4.258,0,0,0,37.5,48.67l5.931-7.027a5.326,5.326,0,0,0-3.592-9.256h-.273A5.326,5.326,0,0,0,36,33.754l-2.195,1.974ZM25.29,50.839a8.162,8.162,0,0,1,2.7-6.052L37.9,35.865a2.491,2.491,0,0,1,1.662-.639h.273a2.485,2.485,0,0,1,1.635,4.357,1.548,1.548,0,0,0-.149.154l-7.081,8.389a4.259,4.259,0,0,0-3.273,4.132v9.936h2.838V52.258a1.42,1.42,0,0,1,2.839,0v9.936a1.421,1.421,0,0,0,.785,1.277,3.691,3.691,0,0,1,2.054,3.316v1.835a10.392,10.392,0,0,1-3.052,7.39,30.861,30.861,0,0,1-2.989,1.794h-9.5ZM36.645,89.161H22.451V80.645H36.645Z" fill="#040506"/>
    <circle id="Ellipse_1" data-name="Ellipse 1" cx="20" cy="20" r="20" transform="translate(-77 24)" fill="rgba(50,225,240,0.62)"/>
  </g>
  <circle id="Ellipse_2" data-name="Ellipse 2" cx="20" cy="20" r="20" transform="translate(16 20)" fill="rgba(50,225,240,0.5)"/>
</svg>
