<svg id="icon_benefit_self-improvement" xmlns="http://www.w3.org/2000/svg" xmlns:xlink="http://www.w3.org/1999/xlink" width="96" height="96" viewBox="0 0 96 96">
  <defs>
    <clipPath id="clip-path">
      <rect id="Rectangle_9" data-name="Rectangle 9" width="96" height="96" fill="none"/>
    </clipPath>
  </defs>
  <g id="Group_12" data-name="Group 12" clip-path="url(#clip-path)">
    <path id="Path_50" data-name="Path 50" d="M87.914,85.906a5.434,5.434,0,0,1,0-7.684l3.67-3.67a1.419,1.419,0,0,0-1-2.423H80.489A9.926,9.926,0,0,0,73.548,55.1H60.353L74.1,49.309A1.422,1.422,0,0,0,74.968,48V33.71l7.1-2.891v9.5l-3.843,3.842a1.42,1.42,0,0,0-.266,1.638l4.258,8.516a1.42,1.42,0,0,0,2.54,0L89.012,45.8a1.417,1.417,0,0,0-.267-1.638L84.9,40.316V29.662l.535-.219a1.42,1.42,0,0,0-.086-2.661L47.029,14.008a1.436,1.436,0,0,0-.9,0L7.809,26.782a1.419,1.419,0,0,0-.087,2.661L18.194,33.71V48a1.42,1.42,0,0,0,.869,1.309L32.809,55.1H5.42a1.419,1.419,0,0,0-1,2.423l3.671,3.67a5.434,5.434,0,0,1,0,7.684L4.416,72.545a1.419,1.419,0,0,0,1,2.423H15.511A9.927,9.927,0,0,0,22.452,92H90.581a1.419,1.419,0,0,0,1-2.423Zm-4.43-35.4-2.531-5.063,2.531-2.531,2.531,2.531Zm3.67,24.464-1.247,1.247a8.211,8.211,0,0,0-2.295,4.43H22.452V74.968h64.7Zm-6.509-9.936a7.1,7.1,0,0,1-4.258,6.5V58.537a7.1,7.1,0,0,1,4.258,6.495M72.129,47.058,53.036,55.1h-.068v.028L48,57.217V44.7l24.129-9.83ZM46.581,16.851,80.814,28.263,46.581,42.209,12.348,28.263ZM21.033,34.867,45.162,44.7v12.52L21.033,47.058ZM8.846,57.935h30.7l6.478,2.728a1.426,1.426,0,0,0,1.1,0l6.479-2.728H73.548v5.678H12.389a8.211,8.211,0,0,0-2.3-4.43Zm0,14.194,1.248-1.248a8.208,8.208,0,0,0,2.3-4.43H73.548v5.678H8.846Zm6.509,9.935a7.1,7.1,0,0,1,4.258-6.5v12.99a7.1,7.1,0,0,1-4.258-6.495m7.1,7.1V83.484h61.16a8.208,8.208,0,0,0,2.295,4.429l1.247,1.248Z" fill="#040506"/>
    <path id="Path_51" data-name="Path 51" d="M70.261,12.444a7.589,7.589,0,0,1,4.779,4.779,1.42,1.42,0,0,0,2.694,0,7.591,7.591,0,0,1,4.779-4.779,1.419,1.419,0,0,0,0-2.693,7.591,7.591,0,0,1-4.779-4.779,1.42,1.42,0,0,0-2.694,0,7.593,7.593,0,0,1-4.779,4.779,1.419,1.419,0,0,0,0,2.693m6.126-3.908A10.493,10.493,0,0,0,78.948,11.1a10.485,10.485,0,0,0-2.561,2.56,10.485,10.485,0,0,0-2.561-2.56,10.493,10.493,0,0,0,2.561-2.562" fill="#040506"/>
    <path id="Path_52" data-name="Path 52" d="M10.648,15.282a7.589,7.589,0,0,1,4.779,4.779,1.42,1.42,0,0,0,2.694,0A7.591,7.591,0,0,1,22.9,15.282a1.419,1.419,0,0,0,0-2.693A7.591,7.591,0,0,1,18.121,7.81a1.42,1.42,0,0,0-2.694,0,7.591,7.591,0,0,1-4.779,4.779,1.419,1.419,0,0,0,0,2.693m6.126-3.907a10.506,10.506,0,0,0,2.561,2.561,10.485,10.485,0,0,0-2.561,2.56,10.485,10.485,0,0,0-2.561-2.56,10.506,10.506,0,0,0,2.561-2.561" fill="#040506"/>
  </g>
  <circle id="Ellipse_10" data-name="Ellipse 10" cx="20" cy="20" r="20" transform="translate(53)" fill="rgba(50,225,240,0.5)"/>
</svg>
