<svg id="icon_benefit_bonus" xmlns="http://www.w3.org/2000/svg" xmlns:xlink="http://www.w3.org/1999/xlink" width="96" height="96" viewBox="0 0 96 96">
  <defs>
    <clipPath id="clip-path">
      <rect id="Rectangle_2" data-name="Rectangle 2" width="96" height="96" fill="none"/>
    </clipPath>
  </defs>
  <g id="Group_2" data-name="Group 2" clip-path="url(#clip-path)">
    <path id="Path_9" data-name="Path 9" d="M90.581,83.484H72.129V56.516A1.419,1.419,0,0,0,70.71,55.1H62.194a1.419,1.419,0,0,0-1.42,1.419V83.484H55.1V33.806a1.42,1.42,0,0,0-1.42-1.419H45.161a1.419,1.419,0,0,0-1.419,1.419V83.484H38.065V56.516a1.419,1.419,0,0,0-1.42-1.419H28.129a1.419,1.419,0,0,0-1.419,1.419V83.484H21.032v-44a1.419,1.419,0,0,0-1.419-1.419H11.1a1.419,1.419,0,0,0-1.42,1.419v44H5.419A1.419,1.419,0,0,0,4,84.9v5.678A1.419,1.419,0,0,0,5.419,92H90.581A1.419,1.419,0,0,0,92,90.581V84.9a1.419,1.419,0,0,0-1.419-1.419M63.613,57.935H69.29V83.483H63.613ZM46.581,35.226h5.677V83.484H46.581ZM29.548,57.935h5.677V83.483H29.548ZM12.516,40.9h5.677V83.484H12.516ZM89.161,89.161H6.838V86.322H89.161Z" fill="#040506"/>
    <path id="Path_10" data-name="Path 10" d="M15.355,16.774a5.677,5.677,0,0,0,0,11.355,5.606,5.606,0,0,0,2.667-.7l9.6,10.4a5.678,5.678,0,1,0,9.291-.319L47.1,24.783a5.559,5.559,0,0,0,4.639,0L61.923,37.515A5.621,5.621,0,0,0,60.774,40.9a5.709,5.709,0,1,0,3.359-5.171L53.949,23a5.678,5.678,0,1,0-9.059,0L34.705,35.732a5.506,5.506,0,0,0-4.985.189l-9.6-10.4a5.619,5.619,0,0,0,.914-3.068,5.677,5.677,0,0,0-5.677-5.677m-2.839,5.677a2.839,2.839,0,1,1,2.839,2.839,2.839,2.839,0,0,1-2.839-2.839M69.291,40.9a2.839,2.839,0,1,1-2.839-2.839A2.839,2.839,0,0,1,69.291,40.9M49.42,16.774a2.839,2.839,0,1,1-2.839,2.839,2.839,2.839,0,0,1,2.839-2.839M35.226,40.9a2.839,2.839,0,1,1-2.839-2.839A2.839,2.839,0,0,1,35.226,40.9" fill="#040506"/>
    <path id="Path_11" data-name="Path 11" d="M77.807,11.1V9.677H74.968V11.1a4.259,4.259,0,0,0-4.258,4.258v1.42a4.258,4.258,0,0,0,4.258,4.259V25.29a1.419,1.419,0,0,1-1.419-1.42H70.71a4.258,4.258,0,0,0,4.258,4.259v1.42h2.839v-1.42a4.258,4.258,0,0,0,4.258-4.259V22.451a4.259,4.259,0,0,0-4.258-4.258V13.936a1.418,1.418,0,0,1,1.419,1.418v1.42h2.839v-1.42A4.259,4.259,0,0,0,77.807,11.1m1.419,11.355V23.87a1.419,1.419,0,0,1-1.419,1.42V21.033a1.418,1.418,0,0,1,1.419,1.418m-4.258-4.258a1.418,1.418,0,0,1-1.419-1.419v-1.42a1.418,1.418,0,0,1,1.419-1.418Z" fill="#040506"/>
    <path id="Path_12" data-name="Path 12" d="M76.387,4A15.613,15.613,0,1,0,92,19.613,15.613,15.613,0,0,0,76.387,4m0,28.387A12.774,12.774,0,1,1,89.161,19.613,12.774,12.774,0,0,1,76.387,32.387" fill="#040506"/>
  </g>
  <circle id="Ellipse_5" data-name="Ellipse 5" cx="20" cy="20" r="20" transform="translate(2 12)" fill="rgba(50,225,240,0.5)"/>
</svg>
