<svg id="icon_benefit_reward" xmlns="http://www.w3.org/2000/svg" xmlns:xlink="http://www.w3.org/1999/xlink" width="96" height="96" viewBox="0 0 96 96">
  <defs>
    <clipPath id="clip-path">
      <rect id="Rectangle_7" data-name="Rectangle 7" width="96" height="96" fill="none"/>
    </clipPath>
  </defs>
  <g id="Group_8" data-name="Group 8" clip-path="url(#clip-path)">
    <path id="Path_20" data-name="Path 20" d="M42.323,63.612V62.194H39.484v1.418a4.259,4.259,0,0,0-4.258,4.259v1.42a4.258,4.258,0,0,0,4.258,4.258v4.257a1.419,1.419,0,0,1-1.419-1.42H35.226a4.257,4.257,0,0,0,4.258,4.258v1.42h2.839v-1.42a4.258,4.258,0,0,0,4.258-4.258V74.968a4.258,4.258,0,0,0-4.258-4.259V66.451a1.419,1.419,0,0,1,1.419,1.42v1.42h2.839v-1.42a4.26,4.26,0,0,0-4.258-4.259m1.419,11.356v1.418a1.419,1.419,0,0,1-1.419,1.42V73.549a1.419,1.419,0,0,1,1.419,1.419m-4.258-4.259a1.418,1.418,0,0,1-1.419-1.418v-1.42a1.419,1.419,0,0,1,1.419-1.42Z" fill="#040506"/>
    <path id="Path_21" data-name="Path 21" d="M90.58,32.387H80.544a9.836,9.836,0,0,0-.993-3.1L91.835,6.084A1.419,1.419,0,0,0,90.58,4H80.645a1.418,1.418,0,0,0-1.277.785L70.71,22.117,62.052,4.785A1.421,1.421,0,0,0,60.774,4H50.839a1.42,1.42,0,0,0-1.255,2.084L61.871,29.292a9.811,9.811,0,0,0-.993,3.1H50.839a1.42,1.42,0,0,0-1.42,1.42V46.581H8.258A1.419,1.419,0,0,0,6.839,48v4.258H5.42A1.42,1.42,0,0,0,4,53.677v36.9A1.42,1.42,0,0,0,5.42,92H90.58A1.42,1.42,0,0,0,92,90.58V33.807a1.42,1.42,0,0,0-1.42-1.42M81.522,6.839h6.7L77.683,26.748a9.9,9.9,0,0,0-4.8-2.627Zm-21.625,0,8.641,17.282a9.9,9.9,0,0,0-4.8,2.627L53.2,6.839ZM29.549,72.129a11.339,11.339,0,0,1,19.87-7.486V79.614a11.339,11.339,0,0,1-19.87-7.485m2.875,11.355H16.6a5.7,5.7,0,0,0-4.08-4.078V64.852a5.7,5.7,0,0,0,4.08-4.078H32.424a14.14,14.14,0,0,0,0,22.71Zm16.995-22.7-.018-.013h.018Zm0,22.684v.013H49.4ZM9.678,49.419H49.42v2.839H9.678ZM6.839,55.1h42.58v2.838H15.355a1.419,1.419,0,0,0-1.419,1.42A2.838,2.838,0,0,1,11.1,62.193a1.419,1.419,0,0,0-1.419,1.42V80.645A1.419,1.419,0,0,0,11.1,82.064,2.839,2.839,0,0,1,13.936,84.9a1.419,1.419,0,0,0,1.419,1.419H49.419v2.839H6.839ZM89.161,89.161h-36.9V35.226h9.935a1.42,1.42,0,0,0,1.42-1.419,7.1,7.1,0,1,1,14.193,0,1.42,1.42,0,0,0,1.42,1.419h9.935Z" fill="#040506"/>
    <path id="Path_22" data-name="Path 22" d="M70.709,38.064a4.258,4.258,0,1,0-4.258-4.258,4.258,4.258,0,0,0,4.258,4.258m0-5.677a1.42,1.42,0,1,1-1.419,1.419,1.419,1.419,0,0,1,1.419-1.419" fill="#040506"/>
    <path id="Path_23" data-name="Path 23" d="M55.1,42.323V70.71a1.42,1.42,0,0,0,1.42,1.419H84.9a1.42,1.42,0,0,0,1.419-1.419V42.323A1.42,1.42,0,0,0,84.9,40.9H56.516a1.42,1.42,0,0,0-1.42,1.42M65.233,56.516h1.218a5.642,5.642,0,0,0,4.258-1.961,5.642,5.642,0,0,0,4.258,1.961h1.218a5.651,5.651,0,0,1-10.952,0Zm6.895-6.9a5.675,5.675,0,0,1,4.057,4.056H74.967a2.839,2.839,0,0,1-2.839-2.838Zm-6.895,4.056a5.678,5.678,0,0,1,4.057-4.056v1.218a2.839,2.839,0,0,1-2.839,2.838ZM63.754,69.29a7.1,7.1,0,0,1,13.91,0ZM57.935,43.742H83.483V69.29H80.531a9.941,9.941,0,0,0-4.942-7.224,8.514,8.514,0,1,0-9.76,0,9.943,9.943,0,0,0-4.942,7.224H57.935Z" fill="#040506"/>
    <rect id="Rectangle_5" data-name="Rectangle 5" width="31.226" height="2.839" transform="translate(55.096 74.968)" fill="#040506"/>
    <rect id="Rectangle_6" data-name="Rectangle 6" width="31.226" height="2.839" transform="translate(55.096 80.645)" fill="#040506"/>
  </g>
  <circle id="Ellipse_8" data-name="Ellipse 8" cx="20" cy="20" r="20" transform="translate(51 36)" fill="rgba(50,225,240,0.5)"/>
</svg>
