<svg xmlns="http://www.w3.org/2000/svg" xmlns:xlink="http://www.w3.org/1999/xlink" width="780" height="600" viewBox="0 0 780 600">
  <defs>
    <clipPath id="clip-path">
      <rect id="bg_section" width="780" height="600" transform="translate(-87.294)" fill="#102520"/>
    </clipPath>
    <clipPath id="clip-path-2">
      <rect id="Rectangle_85" data-name="Rectangle 85" width="50.238" height="50.403" fill="none"/>
    </clipPath>
    <clipPath id="clip-path-3">
      <rect id="Rectangle_90" data-name="Rectangle 90" width="247.298" height="183.038" fill="none"/>
    </clipPath>
    <clipPath id="clip-path-4">
      <path id="Path_652" data-name="Path 652" d="M261.543,152.9,116.331,208.124c-9.187,3.494-14.572,13.478-11.679,22.872a18.456,18.456,0,0,0,24.209,11.851L244.4,198.9a3.623,3.623,0,0,1,3.814.786c1.824,1.772,3.712,3.627,5.394,5.288a3.624,3.624,0,0,0,6.155-2.281l.648-7.682a3.627,3.627,0,0,1,2.324-3.085l11.336-4.311c9.187-3.494,14.572-13.478,11.679-22.872A18.44,18.44,0,0,0,261.543,152.9" transform="translate(-103.868 -151.686)" fill="none"/>
    </clipPath>
    <clipPath id="clip-path-5">
      <rect id="Rectangle_86" data-name="Rectangle 86" width="94.313" height="94.313" fill="none"/>
    </clipPath>
    <clipPath id="clip-path-6">
      <rect id="Rectangle_101" data-name="Rectangle 101" width="96.436" height="96.753" fill="none"/>
    </clipPath>
    <clipPath id="clip-path-7">
      <rect id="Rectangle_84" data-name="Rectangle 84" width="86.02" height="76.428" fill="none"/>
    </clipPath>
  </defs>
  <g id="section_top" transform="translate(87.294)">
    <rect id="bg_section-2" data-name="bg_section" width="780" height="600" transform="translate(-87.294)" fill="none"/>
    <g id="Mask_Group_9" data-name="Mask Group 9" clip-path="url(#clip-path)">
      <g id="title" transform="translate(-21.294 -39)">
        <g id="title_middle" transform="translate(0 46)">
          <rect id="item_line" width="500" height="3" transform="translate(70 146)" fill="#fff"/>
          <g id="title_text" transform="translate(3.564 -11.76)">
            <g id="Group_1952" data-name="Group 1952" transform="translate(-22.57 -6.87)">
              <path id="Path_736" data-name="Path 736" d="M2.046,12.639l348-7.95-.854,53.65-348,7.95Z" transform="translate(160.57 214.734) rotate(-2.995)" fill="#c2a5f9"/>
              <rect id="Rectangle_156" data-name="Rectangle 156" width="360" height="50" transform="translate(158.006 216)" fill="#00a15d"/>
            </g>
            <text id="최대_200_000P_를_획득하세요." data-name="최대 200,000P 
를 획득하세요." transform="translate(320 246)" fill="#f7efe9" font-size="40" font-family="OTSBAggroM, SB AggroOTF"><tspan x="-158.66" y="0">최대 200,000P </tspan><tspan fill="#c2a5f9"><tspan x="-124.7" y="68">를 획득하세요.</tspan></tspan></text>
          </g>
          <rect id="item_line-2" data-name="item_line" width="500" height="3" transform="translate(70 442)" fill="#fff"/>
          <text id="내_추천인_코드가_등록되면_입력한_사람과_입력받은_사람에게_각각_2_000P씩_적립되며_최대_2만_포인트까지_획득_가능합니다." data-name="내 추천인 코드가 등록되면 입력한 사람과 입력받은 사람에게 
각각 2,000P씩 적립되며, 최대 2만 포인트까지 획득 가능합니다." transform="translate(320 498.5)" fill="#f7efe9" font-size="16" font-family="OTSBAggroL, SB AggroOTF"><tspan x="-201.2" y="0">내 추천인 코드가 등록되면 입력한 사람과 입력받은 사람에게 </tspan><tspan fill="#fed849"><tspan x="-217.384" y="24">각각 2,000P씩 적립</tspan><tspan y="24" fill="#f7efe9">되며, </tspan><tspan y="24">최대 2만 포인트까지 획득 가능</tspan><tspan y="24" fill="#f7efe9">합니다.</tspan></tspan></text>
        </g>
        <g id="title_top" transform="translate(-19.57 22)">
          <text id="친구초대하고" transform="translate(339.57 122)" fill="#fed849" font-size="40" font-family="OTSBAggroM, SB AggroOTF"><tspan x="-114.2" y="0">친구초대하고</tspan></text>
        </g>
      </g>
      <g id="item_top" transform="translate(-28 213)">
        <g id="Group_1897" data-name="Group 1897" transform="translate(625.707 -207.491)">
          <g id="Group_1896" data-name="Group 1896" clip-path="url(#clip-path-2)">
            <path id="Path_640" data-name="Path 640" d="M108.746,15.364c-2.573,6.884-11.675,9.843-11.675,9.843S92.141,17,94.715,10.119s7.8-11.291,11.675-9.843,4.929,8.2,2.356,15.088" transform="translate(-71.84 0)" fill="#f7efe9"/>
            <path id="Path_641" data-name="Path 641" d="M116.133,108.326c-6.884-2.573-9.843-11.675-9.843-11.675s8.2-4.929,15.088-2.356,11.291,7.8,9.843,11.675-8.2,4.929-15.088,2.356" transform="translate(-81.258 -71.519)" fill="#f7efe9"/>
            <path id="Path_642" data-name="Path 642" d="M52.885,116.833c2.573-6.884,11.675-9.843,11.675-9.843s4.929,8.2,2.356,15.088-7.8,11.291-11.675,9.843-4.929-8.2-2.356-15.088" transform="translate(-39.355 -81.793)" fill="#f7efe9"/>
            <path id="Path_643" data-name="Path 643" d="M15.364,52.846c6.884,2.573,9.843,11.675,9.843,11.675S17,69.451,10.119,66.878-1.173,59.077.276,55.2s8.2-4.929,15.088-2.356" transform="translate(0 -39.325)" fill="#f7efe9"/>
          </g>
        </g>
        <g id="Group_1899" data-name="Group 1899" transform="translate(103.81 -366.598)">
          <g id="Group_1909" data-name="Group 1909" transform="translate(-211.356 220.277)">
            <g id="Group_1906" data-name="Group 1906">
              <g id="Group_1905" data-name="Group 1905" clip-path="url(#clip-path-3)">
                <path id="Path_651" data-name="Path 651" d="M261.544,152.9,116.331,208.124c-9.187,3.494-14.572,13.478-11.679,22.872a18.456,18.456,0,0,0,24.209,11.851L244.4,198.9a3.623,3.623,0,0,1,3.814.786c1.824,1.772,3.712,3.627,5.394,5.288a3.624,3.624,0,0,0,6.156-2.281l.647-7.682a3.626,3.626,0,0,1,2.325-3.085l11.336-4.311c9.187-3.494,14.572-13.478,11.679-22.872A18.456,18.456,0,0,0,261.544,152.9" transform="translate(-64.97 -94.88)" fill="#c2a5f9"/>
              </g>
            </g>
            <g id="Group_1908" data-name="Group 1908" transform="translate(38.898 56.806)">
              <g id="Group_1907" data-name="Group 1907" clip-path="url(#clip-path-4)">
                <rect id="Rectangle_91" data-name="Rectangle 91" width="110.898" height="110.806" transform="translate(-38.617 22.383) rotate(-20.823)" fill="none" stroke="#102520" stroke-miterlimit="10" stroke-width="1.163"/>
                <line id="Line_21" data-name="Line 21" y1="39.422" x2="103.655" transform="translate(-5.792 69.267)" fill="none" stroke="#102520" stroke-miterlimit="10" stroke-width="1.163"/>
                <line id="Line_22" data-name="Line 22" y1="39.422" x2="103.655" transform="translate(-12.357 52.006)" fill="none" stroke="#102520" stroke-miterlimit="10" stroke-width="1.163"/>
                <line id="Line_23" data-name="Line 23" y1="39.422" x2="103.655" transform="translate(-18.922 34.744)" fill="none" stroke="#102520" stroke-miterlimit="10" stroke-width="1.163"/>
                <line id="Line_24" data-name="Line 24" y1="39.422" x2="103.655" transform="translate(-25.487 17.483)" fill="none" stroke="#102520" stroke-miterlimit="10" stroke-width="1.163"/>
                <line id="Line_25" data-name="Line 25" y1="39.422" x2="103.655" transform="translate(-32.052 0.222)" fill="none" stroke="#102520" stroke-miterlimit="10" stroke-width="1.163"/>
                <line id="Line_26" data-name="Line 26" x2="39.389" y2="103.568" transform="translate(47.762 -10.469)" fill="none" stroke="#102520" stroke-miterlimit="10" stroke-width="1.163"/>
                <line id="Line_27" data-name="Line 27" x2="39.389" y2="103.568" transform="translate(30.486 -3.899)" fill="none" stroke="#102520" stroke-miterlimit="10" stroke-width="1.163"/>
                <line id="Line_28" data-name="Line 28" x2="39.389" y2="103.568" transform="translate(13.21 2.671)" fill="none" stroke="#102520" stroke-miterlimit="10" stroke-width="1.163"/>
                <line id="Line_29" data-name="Line 29" x2="39.389" y2="103.568" transform="translate(-4.065 9.242)" fill="none" stroke="#102520" stroke-miterlimit="10" stroke-width="1.163"/>
                <line id="Line_30" data-name="Line 30" x2="39.389" y2="103.568" transform="translate(-21.341 15.812)" fill="none" stroke="#102520" stroke-miterlimit="10" stroke-width="1.163"/>
                <rect id="Rectangle_92" data-name="Rectangle 92" width="110.899" height="110.806" transform="matrix(0.935, -0.355, 0.355, 0.935, 65.074, -17.102)" fill="none" stroke="#102520" stroke-miterlimit="10" stroke-width="1.163"/>
                <line id="Line_31" data-name="Line 31" y1="39.422" x2="103.655" transform="translate(97.899 29.782)" fill="none" stroke="#102520" stroke-miterlimit="10" stroke-width="1.163"/>
                <line id="Line_32" data-name="Line 32" y1="39.422" x2="103.655" transform="translate(91.334 12.521)" fill="none" stroke="#102520" stroke-miterlimit="10" stroke-width="1.163"/>
                <line id="Line_33" data-name="Line 33" y1="39.422" x2="103.655" transform="translate(84.769 -4.74)" fill="none" stroke="#102520" stroke-miterlimit="10" stroke-width="1.163"/>
                <line id="Line_34" data-name="Line 34" y1="39.422" x2="103.655" transform="translate(78.204 -22.002)" fill="none" stroke="#102520" stroke-miterlimit="10" stroke-width="1.163"/>
                <line id="Line_35" data-name="Line 35" y1="39.422" x2="103.655" transform="translate(71.639 -39.263)" fill="none" stroke="#102520" stroke-miterlimit="10" stroke-width="1.163"/>
                <line id="Line_36" data-name="Line 36" x2="39.389" y2="103.568" transform="translate(151.453 -49.954)" fill="none" stroke="#102520" stroke-miterlimit="10" stroke-width="1.163"/>
                <line id="Line_37" data-name="Line 37" x2="39.389" y2="103.568" transform="translate(134.178 -43.384)" fill="none" stroke="#102520" stroke-miterlimit="10" stroke-width="1.163"/>
                <line id="Line_38" data-name="Line 38" x2="39.389" y2="103.568" transform="translate(116.902 -36.813)" fill="none" stroke="#102520" stroke-miterlimit="10" stroke-width="1.163"/>
                <line id="Line_39" data-name="Line 39" x2="39.389" y2="103.568" transform="translate(99.626 -30.243)" fill="none" stroke="#102520" stroke-miterlimit="10" stroke-width="1.163"/>
                <line id="Line_40" data-name="Line 40" x2="39.389" y2="103.568" transform="translate(82.35 -23.672)" fill="none" stroke="#102520" stroke-miterlimit="10" stroke-width="1.163"/>
              </g>
            </g>
          </g>
          <g id="Group_1898" data-name="Group 1898" transform="translate(-131.692 233.083)" clip-path="url(#clip-path-5)">
            <path id="Path_644" data-name="Path 644" d="M90.556,28.744A47.144,47.144,0,1,1,28.743,3.757,47.144,47.144,0,0,1,90.556,28.744" transform="translate(0 0)" fill="#ff9fd5"/>
            <path id="Path_645" data-name="Path 645" d="M76.528,99.077A42.544,42.544,0,1,1,99.076,43.3,42.592,42.592,0,0,1,76.528,99.077Z" transform="translate(-12.756 -12.756)" fill="none" stroke="#102520" stroke-miterlimit="10" stroke-width="2.877"/>
            <path id="Path_646" data-name="Path 646" d="M199.5,66.339a12.324,12.324,0,0,0-4.608.448,12.327,12.327,0,0,0,3.524-3c2.357-3.173,2.339-5.523.936-6.565s-3.658-.381-6.014,2.792a11.919,11.919,0,0,0-1.767,3.9,12.091,12.091,0,0,0-.8-4.358c-1.544-3.639-3.58-4.812-5.188-4.13s-2.179,2.962-.636,6.6a11.6,11.6,0,0,0,2.272,3.291,11.319,11.319,0,0,0-3.569-1.2c-3.92-.51-5.962.653-6.188,2.385s1.452,3.379,5.372,3.889a12.324,12.324,0,0,0,4.608-.447,12.326,12.326,0,0,0-3.524,3c-2.357,3.173-2.339,5.523-.936,6.565s3.658.381,6.015-2.792a11.32,11.32,0,0,0,1.621-3.4,11.587,11.587,0,0,0,.787,3.921c1.544,3.638,3.58,4.812,5.188,4.13s2.179-2.962.636-6.6a12.1,12.1,0,0,0-2.576-3.605,11.916,11.916,0,0,0,4.034,1.441c3.919.51,5.962-.653,6.187-2.385s-1.452-3.379-5.371-3.889" transform="translate(-130.315 -40.57)" fill="#102520"/>
            <path id="Path_647" data-name="Path 647" d="M59.727,125.64a12.319,12.319,0,0,0-4.608.448,12.326,12.326,0,0,0,3.524-3c2.357-3.173,2.339-5.523.936-6.565s-3.658-.381-6.015,2.792a11.92,11.92,0,0,0-1.767,3.9,12.091,12.091,0,0,0-.8-4.358c-1.544-3.639-3.58-4.812-5.188-4.13s-2.179,2.962-.636,6.6a11.6,11.6,0,0,0,2.272,3.291,11.32,11.32,0,0,0-3.569-1.2c-3.92-.51-5.962.653-6.187,2.385s1.452,3.379,5.371,3.889a12.324,12.324,0,0,0,4.608-.447,12.325,12.325,0,0,0-3.524,3c-2.357,3.173-2.339,5.523-.936,6.565s3.658.381,6.015-2.792a11.32,11.32,0,0,0,1.621-3.4,11.593,11.593,0,0,0,.787,3.921c1.544,3.638,3.58,4.812,5.188,4.13s2.179-2.962.636-6.6a12.1,12.1,0,0,0-2.576-3.605,11.917,11.917,0,0,0,4.034,1.441c3.919.51,5.962-.653,6.187-2.385s-1.452-3.379-5.371-3.889" transform="translate(-27.663 -84.123)" fill="#102520"/>
            <path id="Path_648" data-name="Path 648" d="M127.389,266.825a42.984,42.984,0,0,1-34.275-3.482" transform="translate(-65.156 -193.405)" fill="none" stroke="#fff" stroke-miterlimit="10" stroke-width="8"/>
          </g>
        </g>
        <g id="Group_1910" data-name="Group 1910" transform="translate(670.908 72.887)">
          <rect id="Rectangle_93" data-name="Rectangle 93" width="5.989" height="49.799" transform="translate(21.905)" fill="#00a15d"/>
          <rect id="Rectangle_94" data-name="Rectangle 94" width="49.799" height="5.989" transform="translate(0 21.905)" fill="#00a15d"/>
          <rect id="Rectangle_95" data-name="Rectangle 95" width="5.989" height="49.798" transform="translate(5.176 9.41) rotate(-45)" fill="#00a15d"/>
          <rect id="Rectangle_96" data-name="Rectangle 96" width="49.798" height="5.989" transform="translate(5.175 40.388) rotate(-45)" fill="#00a15d"/>
        </g>
        <g id="Group_1911" data-name="Group 1911" transform="translate(-76.794 164.85)">
          <rect id="Rectangle_97" data-name="Rectangle 97" width="9.813" height="81.598" transform="translate(35.892)" fill="#fed849"/>
          <rect id="Rectangle_98" data-name="Rectangle 98" width="81.598" height="9.813" transform="translate(0 35.892)" fill="#fed849"/>
          <rect id="Rectangle_99" data-name="Rectangle 99" width="9.813" height="81.598" transform="translate(8.48 15.419) rotate(-45)" fill="#fed849"/>
          <rect id="Rectangle_100" data-name="Rectangle 100" width="81.598" height="9.813" transform="translate(8.48 66.178) rotate(-45)" fill="#fed849"/>
        </g>
        <g id="Group_1913" data-name="Group 1913" transform="translate(627.727 272.447)">
          <g id="Group_1912" data-name="Group 1912" clip-path="url(#clip-path-6)">
            <path id="Path_653" data-name="Path 653" d="M183.649,29.491c-4.94,13.215-22.412,18.894-22.412,18.894s-9.462-15.747-4.522-28.962S171.69-2.251,179.127.529s9.462,15.747,4.522,28.962" transform="translate(-112.806 0)" fill="#f7efe9"/>
            <path id="Path_654" data-name="Path 654" d="M194.538,182.956c-13.215-4.94-18.894-22.412-18.894-22.412s15.747-9.462,28.962-4.522S226.28,171,223.5,178.434s-15.747,9.462-28.962,4.522" transform="translate(-127.593 -112.302)" fill="#f7efe9"/>
            <path id="Path_655" data-name="Path 655" d="M87.769,195.7c4.94-13.215,22.412-18.894,22.412-18.894s9.462,15.747,4.522,28.962-14.974,21.674-22.411,18.894-9.462-15.747-4.522-28.962" transform="translate(-61.796 -128.435)" fill="#f7efe9"/>
            <path id="Path_656" data-name="Path 656" d="M29.491,87.7c13.215,4.94,18.894,22.412,18.894,22.412s-15.747,9.462-28.962,4.522S-2.251,99.665.529,92.227,16.276,82.765,29.491,87.7" transform="translate(0 -61.749)" fill="#f7efe9"/>
          </g>
        </g>
        <path id="Path_719" data-name="Path 719" d="M281.471,701.668c0-.971-1.717-1.758-5.336-1.758a20.3,20.3,0,0,0-5.773,1.042,20.3,20.3,0,0,0,4.819-3.346c2.559-2.559,3.216-4.33,2.53-5.016s-2.458-.029-5.016,2.53a20.3,20.3,0,0,0-3.346,4.819,20.3,20.3,0,0,0,1.042-5.773c0-3.619-.787-5.336-1.758-5.336s-1.758,1.717-1.758,5.336a20.3,20.3,0,0,0,1.042,5.773,20.3,20.3,0,0,0-3.346-4.819c-2.559-2.559-4.33-3.217-5.016-2.53s-.029,2.458,2.53,5.016a20.3,20.3,0,0,0,4.819,3.346,20.3,20.3,0,0,0-5.773-1.042c-3.619,0-5.336.787-5.336,1.758s1.717,1.758,5.336,1.758a20.3,20.3,0,0,0,5.773-1.042,20.3,20.3,0,0,0-4.819,3.346c-2.559,2.559-3.217,4.33-2.53,5.016s2.458.029,5.016-2.53a20.3,20.3,0,0,0,3.346-4.819,20.3,20.3,0,0,0-1.042,5.773c0,3.619.787,5.336,1.758,5.336s1.758-1.717,1.758-5.336a20.3,20.3,0,0,0-1.042-5.773,20.3,20.3,0,0,0,3.346,4.819c2.559,2.559,4.33,3.217,5.016,2.53s.029-2.458-2.53-5.016a20.3,20.3,0,0,0-4.819-3.346,20.3,20.3,0,0,0,5.773,1.042c3.619,0,5.336-.787,5.336-1.758" transform="translate(57.913 -348.546)" fill="#c2a5f9"/>
        <g id="Group_1954" data-name="Group 1954" transform="translate(265.79 -346.186)">
          <path id="Path_689" data-name="Path 689" d="M2255.81,692.9c1.5-.1,2.548-1.532,3.6-2.5a10.7,10.7,0,0,1,4.127-2.253,10.5,10.5,0,0,1,7.48.472c4.962,2.285,7.64,7.984,7.479,13.422-.141,4.758-3.068,9.185-5.743,12.767-1.47,1.969-2.939,3.945-4.57,5.772-2.31,2.587-3.943,4.507-7.535,3.488a55.913,55.913,0,0,1-9.6-4.121c-4-2-8.6-4.646-10.857-8.837-2.581-4.789-2.744-11.082.667-15.35a10.5,10.5,0,0,1,6.475-3.776,13.64,13.64,0,0,1,4.506.036c1.3.214,2.57.94,3.9.885l.065,0" transform="translate(-2197.361 -419.783)" fill="#fe9fd5"/>
          <path id="Path_690" data-name="Path 690" d="M2280.722,737.448a48.484,48.484,0,0,1-8.09-3.489l-.429-.214c-3.252-1.629-6.759-3.635-8.119-6.157-1.257-2.332-1.765-5.9.09-8.223a4.6,4.6,0,0,1,2.573-1.585c.107-.025.217-.048.327-.066a7.809,7.809,0,0,1,2.589.039,6.526,6.526,0,0,1,.678.2,12.306,12.306,0,0,0,4.415.752l.355-.018.095-.013a8.342,8.342,0,0,0,1.114-.185,11.067,11.067,0,0,0,5.316-3.359c.155-.156.3-.311.456-.45a5.058,5.058,0,0,1,1.9-.976q.162-.05.324-.088a4.6,4.6,0,0,1,3.01.263c2.7,1.244,3.846,4.662,3.768,7.311-.085,2.862-2.321,6.227-4.5,9.142l-.1.131c-1.4,1.874-2.718,3.643-4.138,5.232l-.122.137C2281.752,736.382,2281.122,737.087,2280.722,737.448Z" transform="translate(-2215.998 -439.275)" fill="none" stroke="#102520" stroke-miterlimit="10" stroke-width="5.05"/>
        </g>
        <g id="Group_1895" data-name="Group 1895" transform="translate(618.267 -142.563) rotate(-3)">
          <g id="Group_1894" data-name="Group 1894" transform="translate(-123.425 29.934) rotate(-9)" clip-path="url(#clip-path-7)">
            <path id="Path_637" data-name="Path 637" d="M43.488,71.541,11.535,49.18A27.031,27.031,0,0,1,4.887,11.535h0A27.031,27.031,0,0,1,42.532,4.887L74.485,27.248a27.031,27.031,0,0,1-31,44.293" transform="translate(0 0)" fill="#00a15d"/>
            <path id="Path_638" data-name="Path 638" d="M9.914,42.3A23.256,23.256,0,1,1,36.583,4.195L68.536,26.556A23.256,23.256,0,1,1,41.867,64.664Z" transform="translate(3.785 3.785)" fill="none" stroke="#102520" stroke-miterlimit="10" stroke-width="3.354"/>
            <path id="Path_639" data-name="Path 639" d="M23.18,8.815c1.034,1,2.685.877,4.027,1.042A10.609,10.609,0,0,1,31.4,11.414a10.379,10.379,0,0,1,4.47,5.547c1.611,4.859-.587,10.15-4.424,13.288C28.086,33,23.17,33.582,19,33.841c-2.294.142-4.593.291-6.892.235C8.848,34,6.483,34,4.88,30.858a53.267,53.267,0,0,1-3.322-9.221C.372,17.627-.761,12.808.669,8.712,2.3,4.033,6.521.155,11.638,0A10.378,10.378,0,0,1,18.38,2.3,13.564,13.564,0,0,1,21.243,5.5c.685,1.042,1,2.371,1.893,3.275l.044.044" transform="translate(26.47 18.797)" fill="#fed849"/>
          </g>
        </g>
        <g id="Group_1955" data-name="Group 1955" transform="translate(-1 -268.873)">
          <path id="Path_737" data-name="Path 737" d="M895.977,225.474,724.283,178.839c-10.862-2.951-22.574,2.671-26.219,13.32a21.135,21.135,0,0,0,14.442,27.28l136.612,37.106a4.149,4.149,0,0,1,3,3.3c.5,2.87,1,5.86,1.436,8.531a4.15,4.15,0,0,0,7.237,2.032l5.773-6.679a4.152,4.152,0,0,1,4.23-1.292l13.4,3.641c10.863,2.95,22.574-2.671,26.22-13.32a21.135,21.135,0,0,0-14.442-27.28" transform="translate(-320.028 -127.696)" fill="#c2a5f9"/>
          <text id="CASHMATE_EVENT" data-name="CASHMATE EVENT" transform="translate(398.073 75.465) rotate(16)" fill="#102520" font-size="13" font-family="Montserrat-Bold, Montserrat" font-weight="700" letter-spacing="0.3em"><tspan x="0" y="0">CASHMATE EVENT</tspan></text>
        </g>
        <g id="Group_1956" data-name="Group 1956" transform="translate(122.661 -191.27)">
          <rect id="Rectangle_93-2" data-name="Rectangle 93" width="4.111" height="34.182" transform="translate(15.036)" fill="#c2a5f9"/>
          <rect id="Rectangle_94-2" data-name="Rectangle 94" width="34.182" height="4.111" transform="translate(0 15.036)" fill="#c2a5f9"/>
          <rect id="Rectangle_95-2" data-name="Rectangle 95" width="4.111" height="34.182" transform="translate(3.553 6.459) rotate(-45)" fill="#c2a5f9"/>
          <rect id="Rectangle_96-2" data-name="Rectangle 96" width="34.182" height="4.111" transform="translate(3.552 27.723) rotate(-45)" fill="#c2a5f9"/>
        </g>
      </g>
    </g>
  </g>
</svg>
